%TF.GenerationSoftware,KiCad,Pcbnew,(5.1.6-0)*%
%TF.CreationDate,2023-03-27T21:53:34-07:00*%
%TF.ProjectId,LM3886-bal-no15v-th,4c4d3338-3836-42d6-9261-6c2d6e6f3135,rev?*%
%TF.SameCoordinates,Original*%
%TF.FileFunction,Copper,L2,Bot*%
%TF.FilePolarity,Positive*%
%FSLAX46Y46*%
G04 Gerber Fmt 4.6, Leading zero omitted, Abs format (unit mm)*
G04 Created by KiCad (PCBNEW (5.1.6-0)) date 2023-03-27 21:53:34*
%MOMM*%
%LPD*%
G01*
G04 APERTURE LIST*
%TA.AperFunction,ComponentPad*%
%ADD10C,1.600000*%
%TD*%
%TA.AperFunction,ComponentPad*%
%ADD11R,1.600000X1.600000*%
%TD*%
%TA.AperFunction,ComponentPad*%
%ADD12C,2.400000*%
%TD*%
%TA.AperFunction,ComponentPad*%
%ADD13R,2.400000X2.400000*%
%TD*%
%TA.AperFunction,ComponentPad*%
%ADD14C,2.600000*%
%TD*%
%TA.AperFunction,ComponentPad*%
%ADD15C,2.000000*%
%TD*%
%TA.AperFunction,ComponentPad*%
%ADD16O,1.800000X1.800000*%
%TD*%
%TA.AperFunction,ComponentPad*%
%ADD17R,1.800000X1.800000*%
%TD*%
%TA.AperFunction,ViaPad*%
%ADD18C,0.700000*%
%TD*%
%TA.AperFunction,ViaPad*%
%ADD19C,0.800000*%
%TD*%
%TA.AperFunction,Conductor*%
%ADD20C,3.000000*%
%TD*%
%TA.AperFunction,Conductor*%
%ADD21C,0.300000*%
%TD*%
%TA.AperFunction,Conductor*%
%ADD22C,0.254000*%
%TD*%
G04 APERTURE END LIST*
D10*
%TO.P,C10,2*%
%TO.N,VEE*%
X85344000Y-66492000D03*
D11*
%TO.P,C10,1*%
%TO.N,GND*%
X85344000Y-62992000D03*
%TD*%
D10*
%TO.P,C7,2*%
%TO.N,VEE*%
X101600000Y-63540000D03*
D11*
%TO.P,C7,1*%
%TO.N,GND*%
X101600000Y-66040000D03*
%TD*%
D10*
%TO.P,C6,2*%
%TO.N,GND*%
X103672000Y-79756000D03*
D11*
%TO.P,C6,1*%
%TO.N,VCC*%
X106172000Y-79756000D03*
%TD*%
D12*
%TO.P,C3,2*%
%TO.N,VEE*%
X90544000Y-74168000D03*
D13*
%TO.P,C3,1*%
%TO.N,GND*%
X98044000Y-74168000D03*
%TD*%
D12*
%TO.P,C2,2*%
%TO.N,GND*%
X90544000Y-91440000D03*
D13*
%TO.P,C2,1*%
%TO.N,VCC*%
X98044000Y-91440000D03*
%TD*%
D12*
%TO.P,J1,3*%
%TO.N,/IN-*%
X135636000Y-89296000D03*
%TO.P,J1,2*%
%TO.N,/IN+*%
X135636000Y-85796000D03*
D13*
%TO.P,J1,1*%
%TO.N,GND*%
X135636000Y-82296000D03*
%TD*%
D14*
%TO.P,J3,3*%
%TO.N,GND*%
X79756000Y-88392000D03*
%TO.P,J3,2*%
%TO.N,VCC*%
X79756000Y-83312000D03*
%TO.P,J3,1*%
%TO.N,VEE*%
X79756000Y-78232000D03*
%TD*%
%TO.P,J2,2*%
%TO.N,GND*%
X114808000Y-94996000D03*
%TO.P,J2,1*%
%TO.N,Net-(J2-Pad1)*%
X109728000Y-94996000D03*
%TD*%
D15*
%TO.P,L1,2*%
%TO.N,Net-(J2-Pad1)*%
X109982000Y-86614000D03*
%TO.P,L1,1*%
%TO.N,/SIGOUT*%
X117602000Y-73914000D03*
%TD*%
D16*
%TO.P,U1,11*%
%TO.N,Net-(U1-Pad11)*%
X127490000Y-69596000D03*
%TO.P,U1,10*%
%TO.N,/ICIN+*%
X125790000Y-64516000D03*
%TO.P,U1,9*%
%TO.N,/ICIN-*%
X124090000Y-69596000D03*
%TO.P,U1,8*%
%TO.N,/MUTE*%
X122390000Y-64516000D03*
%TO.P,U1,7*%
%TO.N,GND*%
X120690000Y-69596000D03*
%TO.P,U1,6*%
%TO.N,Net-(U1-Pad6)*%
X118990000Y-64516000D03*
%TO.P,U1,5*%
%TO.N,VCC*%
X117290000Y-69596000D03*
%TO.P,U1,4*%
%TO.N,VEE*%
X115590000Y-64516000D03*
%TO.P,U1,3*%
%TO.N,/SIGOUT*%
X113890000Y-69596000D03*
%TO.P,U1,2*%
%TO.N,Net-(U1-Pad2)*%
X112190000Y-64516000D03*
D17*
%TO.P,U1,1*%
%TO.N,VCC*%
X110490000Y-69596000D03*
%TD*%
D18*
%TO.N,GND*%
X133096000Y-86868000D03*
X131572000Y-84328000D03*
X129032000Y-79756000D03*
X105664000Y-89916000D03*
X98044000Y-97536000D03*
X92964000Y-79756000D03*
X98552000Y-82296000D03*
X101600000Y-68072000D03*
X101092000Y-77216000D03*
X86360000Y-71120000D03*
X98044000Y-69596000D03*
X103632000Y-72136000D03*
X105156000Y-74168000D03*
X105156000Y-70104000D03*
X106680000Y-68072000D03*
X104648000Y-66548000D03*
X122428000Y-91948000D03*
X123952000Y-93980000D03*
X132588000Y-79756000D03*
X134620000Y-79756000D03*
X131572000Y-79756000D03*
X135636000Y-79756000D03*
X114300000Y-77216000D03*
X114300000Y-80264000D03*
X114300000Y-83312000D03*
X117348000Y-85344000D03*
X121920000Y-86360000D03*
X126492000Y-86360000D03*
X121920000Y-80264000D03*
X125984000Y-80264000D03*
X119888000Y-76200000D03*
X127000000Y-73152000D03*
X130048000Y-73152000D03*
X121920000Y-67056000D03*
X128016000Y-66548000D03*
X130556000Y-62992000D03*
X135128000Y-71628000D03*
X138176000Y-76200000D03*
X113284000Y-89916000D03*
X124460000Y-61976000D03*
X133604000Y-79756000D03*
X136652000Y-79756000D03*
D19*
%TO.N,/MUTE*%
X93980000Y-61468000D03*
%TD*%
D20*
%TO.N,/SIGOUT*%
X113890000Y-69596000D02*
X113890000Y-71218000D01*
X116586000Y-73914000D02*
X117602000Y-73914000D01*
X113890000Y-71218000D02*
X116586000Y-73914000D01*
D21*
%TO.N,/MUTE*%
X122390000Y-64516000D02*
X118326000Y-60452000D01*
X118326000Y-60452000D02*
X94996000Y-60452000D01*
X94996000Y-60452000D02*
X93980000Y-61468000D01*
X93980000Y-61468000D02*
X93980000Y-61468000D01*
%TD*%
D22*
%TO.N,GND*%
G36*
X93990999Y-60641000D02*
G01*
X93898548Y-60641000D01*
X93738773Y-60672782D01*
X93588269Y-60735123D01*
X93452819Y-60825628D01*
X93337628Y-60940819D01*
X93247123Y-61076269D01*
X93184782Y-61226773D01*
X93153000Y-61386548D01*
X93153000Y-61549452D01*
X93184782Y-61709227D01*
X93247123Y-61859731D01*
X93337628Y-61995181D01*
X93452819Y-62110372D01*
X93588269Y-62200877D01*
X93738773Y-62263218D01*
X93898548Y-62295000D01*
X94061452Y-62295000D01*
X94221227Y-62263218D01*
X94371731Y-62200877D01*
X94507181Y-62110372D01*
X94622372Y-61995181D01*
X94712877Y-61859731D01*
X94775218Y-61709227D01*
X94807000Y-61549452D01*
X94807000Y-61457001D01*
X95235002Y-61029000D01*
X118086999Y-61029000D01*
X121135357Y-64077358D01*
X121113996Y-64128928D01*
X121063000Y-64385302D01*
X121063000Y-64646698D01*
X121113996Y-64903072D01*
X121214028Y-65144570D01*
X121359252Y-65361913D01*
X121544087Y-65546748D01*
X121761430Y-65691972D01*
X122002928Y-65792004D01*
X122259302Y-65843000D01*
X122520698Y-65843000D01*
X122777072Y-65792004D01*
X123018570Y-65691972D01*
X123235913Y-65546748D01*
X123420748Y-65361913D01*
X123565972Y-65144570D01*
X123666004Y-64903072D01*
X123717000Y-64646698D01*
X123717000Y-64385302D01*
X124463000Y-64385302D01*
X124463000Y-64646698D01*
X124513996Y-64903072D01*
X124614028Y-65144570D01*
X124759252Y-65361913D01*
X124944087Y-65546748D01*
X125161430Y-65691972D01*
X125402928Y-65792004D01*
X125659302Y-65843000D01*
X125920698Y-65843000D01*
X126177072Y-65792004D01*
X126418570Y-65691972D01*
X126635913Y-65546748D01*
X126820748Y-65361913D01*
X126965972Y-65144570D01*
X127066004Y-64903072D01*
X127117000Y-64646698D01*
X127117000Y-64385302D01*
X127066004Y-64128928D01*
X126965972Y-63887430D01*
X126820748Y-63670087D01*
X126635913Y-63485252D01*
X126418570Y-63340028D01*
X126177072Y-63239996D01*
X125920698Y-63189000D01*
X125659302Y-63189000D01*
X125402928Y-63239996D01*
X125161430Y-63340028D01*
X124944087Y-63485252D01*
X124759252Y-63670087D01*
X124614028Y-63887430D01*
X124513996Y-64128928D01*
X124463000Y-64385302D01*
X123717000Y-64385302D01*
X123666004Y-64128928D01*
X123565972Y-63887430D01*
X123420748Y-63670087D01*
X123235913Y-63485252D01*
X123018570Y-63340028D01*
X122777072Y-63239996D01*
X122520698Y-63189000D01*
X122259302Y-63189000D01*
X122002928Y-63239996D01*
X121951358Y-63261357D01*
X119136001Y-60446000D01*
X137643450Y-60446000D01*
X138260725Y-60506524D01*
X138830868Y-60678660D01*
X139356727Y-60958265D01*
X139818255Y-61334678D01*
X140197885Y-61793572D01*
X140481150Y-62317460D01*
X140493390Y-62357000D01*
X133096000Y-62357000D01*
X133071224Y-62359440D01*
X133047399Y-62366667D01*
X133025443Y-62378403D01*
X133006197Y-62394197D01*
X132990403Y-62413443D01*
X132978667Y-62435399D01*
X132971440Y-62459224D01*
X132969000Y-62484000D01*
X132969000Y-70104000D01*
X132971440Y-70128776D01*
X132978667Y-70152601D01*
X132990403Y-70174557D01*
X133006197Y-70193803D01*
X133025443Y-70209597D01*
X133047399Y-70221333D01*
X133071224Y-70228560D01*
X133096000Y-70231000D01*
X140722000Y-70231000D01*
X140722001Y-91313000D01*
X135636000Y-91313000D01*
X135611224Y-91315440D01*
X135587399Y-91322667D01*
X135565443Y-91334403D01*
X135546197Y-91350197D01*
X131990197Y-94906197D01*
X131974403Y-94925443D01*
X131962667Y-94947399D01*
X131955440Y-94971224D01*
X131953000Y-94996000D01*
X131953000Y-100082000D01*
X80899000Y-100082000D01*
X80899000Y-94996000D01*
X80896560Y-94971224D01*
X80889333Y-94947399D01*
X80877597Y-94925443D01*
X80861803Y-94906197D01*
X80781511Y-94825905D01*
X108001000Y-94825905D01*
X108001000Y-95166095D01*
X108067368Y-95499747D01*
X108197553Y-95814041D01*
X108386552Y-96096898D01*
X108627102Y-96337448D01*
X108909959Y-96526447D01*
X109224253Y-96656632D01*
X109557905Y-96723000D01*
X109898095Y-96723000D01*
X110231747Y-96656632D01*
X110546041Y-96526447D01*
X110817260Y-96345224D01*
X113638381Y-96345224D01*
X113770317Y-96640312D01*
X114111045Y-96811159D01*
X114478557Y-96912250D01*
X114858729Y-96939701D01*
X115236951Y-96892457D01*
X115598690Y-96772333D01*
X115845683Y-96640312D01*
X115977619Y-96345224D01*
X114808000Y-95175605D01*
X113638381Y-96345224D01*
X110817260Y-96345224D01*
X110828898Y-96337448D01*
X111069448Y-96096898D01*
X111258447Y-95814041D01*
X111388632Y-95499747D01*
X111455000Y-95166095D01*
X111455000Y-95046729D01*
X112864299Y-95046729D01*
X112911543Y-95424951D01*
X113031667Y-95786690D01*
X113163688Y-96033683D01*
X113458776Y-96165619D01*
X114628395Y-94996000D01*
X114987605Y-94996000D01*
X116157224Y-96165619D01*
X116452312Y-96033683D01*
X116623159Y-95692955D01*
X116724250Y-95325443D01*
X116751701Y-94945271D01*
X116704457Y-94567049D01*
X116584333Y-94205310D01*
X116452312Y-93958317D01*
X116157224Y-93826381D01*
X114987605Y-94996000D01*
X114628395Y-94996000D01*
X113458776Y-93826381D01*
X113163688Y-93958317D01*
X112992841Y-94299045D01*
X112891750Y-94666557D01*
X112864299Y-95046729D01*
X111455000Y-95046729D01*
X111455000Y-94825905D01*
X111388632Y-94492253D01*
X111258447Y-94177959D01*
X111069448Y-93895102D01*
X110828898Y-93654552D01*
X110817261Y-93646776D01*
X113638381Y-93646776D01*
X114808000Y-94816395D01*
X115977619Y-93646776D01*
X115845683Y-93351688D01*
X115504955Y-93180841D01*
X115137443Y-93079750D01*
X114757271Y-93052299D01*
X114379049Y-93099543D01*
X114017310Y-93219667D01*
X113770317Y-93351688D01*
X113638381Y-93646776D01*
X110817261Y-93646776D01*
X110546041Y-93465553D01*
X110231747Y-93335368D01*
X109898095Y-93269000D01*
X109557905Y-93269000D01*
X109224253Y-93335368D01*
X108909959Y-93465553D01*
X108627102Y-93654552D01*
X108386552Y-93895102D01*
X108197553Y-94177959D01*
X108067368Y-94492253D01*
X108001000Y-94825905D01*
X80781511Y-94825905D01*
X78673586Y-92717980D01*
X89445626Y-92717980D01*
X89565514Y-93002836D01*
X89889210Y-93163699D01*
X90238069Y-93258322D01*
X90598684Y-93283067D01*
X90957198Y-93236985D01*
X91299833Y-93121846D01*
X91522486Y-93002836D01*
X91642374Y-92717980D01*
X90544000Y-91619605D01*
X89445626Y-92717980D01*
X78673586Y-92717980D01*
X77813803Y-91858197D01*
X77794557Y-91842403D01*
X77772601Y-91830667D01*
X77748776Y-91823440D01*
X77724000Y-91821000D01*
X72638000Y-91821000D01*
X72638000Y-91494684D01*
X88700933Y-91494684D01*
X88747015Y-91853198D01*
X88862154Y-92195833D01*
X88981164Y-92418486D01*
X89266020Y-92538374D01*
X90364395Y-91440000D01*
X90723605Y-91440000D01*
X91821980Y-92538374D01*
X92106836Y-92418486D01*
X92267699Y-92094790D01*
X92362322Y-91745931D01*
X92387067Y-91385316D01*
X92340985Y-91026802D01*
X92225846Y-90684167D01*
X92106836Y-90461514D01*
X91821980Y-90341626D01*
X90723605Y-91440000D01*
X90364395Y-91440000D01*
X89266020Y-90341626D01*
X88981164Y-90461514D01*
X88820301Y-90785210D01*
X88725678Y-91134069D01*
X88700933Y-91494684D01*
X72638000Y-91494684D01*
X72638000Y-89741224D01*
X78586381Y-89741224D01*
X78718317Y-90036312D01*
X79059045Y-90207159D01*
X79426557Y-90308250D01*
X79806729Y-90335701D01*
X80184951Y-90288457D01*
X80546690Y-90168333D01*
X80558500Y-90162020D01*
X89445626Y-90162020D01*
X90544000Y-91260395D01*
X91564394Y-90240000D01*
X96414934Y-90240000D01*
X96414934Y-92640000D01*
X96423178Y-92723707D01*
X96447595Y-92804196D01*
X96487245Y-92878376D01*
X96540605Y-92943395D01*
X96605624Y-92996755D01*
X96679804Y-93036405D01*
X96760293Y-93060822D01*
X96844000Y-93069066D01*
X99244000Y-93069066D01*
X99327707Y-93060822D01*
X99408196Y-93036405D01*
X99482376Y-92996755D01*
X99547395Y-92943395D01*
X99600755Y-92878376D01*
X99640405Y-92804196D01*
X99664822Y-92723707D01*
X99673066Y-92640000D01*
X99673066Y-90240000D01*
X99664822Y-90156293D01*
X99640405Y-90075804D01*
X99600755Y-90001624D01*
X99547395Y-89936605D01*
X99482376Y-89883245D01*
X99408196Y-89843595D01*
X99327707Y-89819178D01*
X99244000Y-89810934D01*
X96844000Y-89810934D01*
X96760293Y-89819178D01*
X96679804Y-89843595D01*
X96605624Y-89883245D01*
X96540605Y-89936605D01*
X96487245Y-90001624D01*
X96447595Y-90075804D01*
X96423178Y-90156293D01*
X96414934Y-90240000D01*
X91564394Y-90240000D01*
X91642374Y-90162020D01*
X91522486Y-89877164D01*
X91198790Y-89716301D01*
X90849931Y-89621678D01*
X90489316Y-89596933D01*
X90130802Y-89643015D01*
X89788167Y-89758154D01*
X89565514Y-89877164D01*
X89445626Y-90162020D01*
X80558500Y-90162020D01*
X80793683Y-90036312D01*
X80925619Y-89741224D01*
X79756000Y-88571605D01*
X78586381Y-89741224D01*
X72638000Y-89741224D01*
X72638000Y-88442729D01*
X77812299Y-88442729D01*
X77859543Y-88820951D01*
X77979667Y-89182690D01*
X78111688Y-89429683D01*
X78406776Y-89561619D01*
X79576395Y-88392000D01*
X79935605Y-88392000D01*
X81105224Y-89561619D01*
X81400312Y-89429683D01*
X81547692Y-89135755D01*
X134009000Y-89135755D01*
X134009000Y-89456245D01*
X134071525Y-89770578D01*
X134194172Y-90066673D01*
X134372227Y-90333152D01*
X134598848Y-90559773D01*
X134865327Y-90737828D01*
X135161422Y-90860475D01*
X135475755Y-90923000D01*
X135796245Y-90923000D01*
X136110578Y-90860475D01*
X136406673Y-90737828D01*
X136673152Y-90559773D01*
X136899773Y-90333152D01*
X137077828Y-90066673D01*
X137200475Y-89770578D01*
X137263000Y-89456245D01*
X137263000Y-89135755D01*
X137200475Y-88821422D01*
X137077828Y-88525327D01*
X136899773Y-88258848D01*
X136673152Y-88032227D01*
X136406673Y-87854172D01*
X136110578Y-87731525D01*
X135796245Y-87669000D01*
X135475755Y-87669000D01*
X135161422Y-87731525D01*
X134865327Y-87854172D01*
X134598848Y-88032227D01*
X134372227Y-88258848D01*
X134194172Y-88525327D01*
X134071525Y-88821422D01*
X134009000Y-89135755D01*
X81547692Y-89135755D01*
X81571159Y-89088955D01*
X81672250Y-88721443D01*
X81699701Y-88341271D01*
X81652457Y-87963049D01*
X81532333Y-87601310D01*
X81400312Y-87354317D01*
X81105224Y-87222381D01*
X79935605Y-88392000D01*
X79576395Y-88392000D01*
X78406776Y-87222381D01*
X78111688Y-87354317D01*
X77940841Y-87695045D01*
X77839750Y-88062557D01*
X77812299Y-88442729D01*
X72638000Y-88442729D01*
X72638000Y-87042776D01*
X78586381Y-87042776D01*
X79756000Y-88212395D01*
X80925619Y-87042776D01*
X80793683Y-86747688D01*
X80452955Y-86576841D01*
X80085443Y-86475750D01*
X80053632Y-86473453D01*
X108555000Y-86473453D01*
X108555000Y-86754547D01*
X108609838Y-87030241D01*
X108717409Y-87289938D01*
X108873576Y-87523660D01*
X109072340Y-87722424D01*
X109306062Y-87878591D01*
X109565759Y-87986162D01*
X109841453Y-88041000D01*
X110122547Y-88041000D01*
X110398241Y-87986162D01*
X110657938Y-87878591D01*
X110891660Y-87722424D01*
X111090424Y-87523660D01*
X111246591Y-87289938D01*
X111354162Y-87030241D01*
X111409000Y-86754547D01*
X111409000Y-86473453D01*
X111354162Y-86197759D01*
X111246591Y-85938062D01*
X111090424Y-85704340D01*
X111021839Y-85635755D01*
X134009000Y-85635755D01*
X134009000Y-85956245D01*
X134071525Y-86270578D01*
X134194172Y-86566673D01*
X134372227Y-86833152D01*
X134598848Y-87059773D01*
X134865327Y-87237828D01*
X135161422Y-87360475D01*
X135475755Y-87423000D01*
X135796245Y-87423000D01*
X136110578Y-87360475D01*
X136406673Y-87237828D01*
X136673152Y-87059773D01*
X136899773Y-86833152D01*
X137077828Y-86566673D01*
X137200475Y-86270578D01*
X137263000Y-85956245D01*
X137263000Y-85635755D01*
X137200475Y-85321422D01*
X137077828Y-85025327D01*
X136899773Y-84758848D01*
X136673152Y-84532227D01*
X136406673Y-84354172D01*
X136110578Y-84231525D01*
X135796245Y-84169000D01*
X135475755Y-84169000D01*
X135161422Y-84231525D01*
X134865327Y-84354172D01*
X134598848Y-84532227D01*
X134372227Y-84758848D01*
X134194172Y-85025327D01*
X134071525Y-85321422D01*
X134009000Y-85635755D01*
X111021839Y-85635755D01*
X110891660Y-85505576D01*
X110657938Y-85349409D01*
X110398241Y-85241838D01*
X110122547Y-85187000D01*
X109841453Y-85187000D01*
X109565759Y-85241838D01*
X109306062Y-85349409D01*
X109072340Y-85505576D01*
X108873576Y-85704340D01*
X108717409Y-85938062D01*
X108609838Y-86197759D01*
X108555000Y-86473453D01*
X80053632Y-86473453D01*
X79705271Y-86448299D01*
X79327049Y-86495543D01*
X78965310Y-86615667D01*
X78718317Y-86747688D01*
X78586381Y-87042776D01*
X72638000Y-87042776D01*
X72638000Y-83141905D01*
X78029000Y-83141905D01*
X78029000Y-83482095D01*
X78095368Y-83815747D01*
X78225553Y-84130041D01*
X78414552Y-84412898D01*
X78655102Y-84653448D01*
X78937959Y-84842447D01*
X79252253Y-84972632D01*
X79585905Y-85039000D01*
X79926095Y-85039000D01*
X80259747Y-84972632D01*
X80574041Y-84842447D01*
X80856898Y-84653448D01*
X81097448Y-84412898D01*
X81286447Y-84130041D01*
X81416632Y-83815747D01*
X81480234Y-83496000D01*
X133797928Y-83496000D01*
X133810188Y-83620482D01*
X133846498Y-83740180D01*
X133905463Y-83850494D01*
X133984815Y-83947185D01*
X134081506Y-84026537D01*
X134191820Y-84085502D01*
X134311518Y-84121812D01*
X134436000Y-84134072D01*
X135350250Y-84131000D01*
X135509000Y-83972250D01*
X135509000Y-82423000D01*
X135763000Y-82423000D01*
X135763000Y-83972250D01*
X135921750Y-84131000D01*
X136836000Y-84134072D01*
X136960482Y-84121812D01*
X137080180Y-84085502D01*
X137190494Y-84026537D01*
X137287185Y-83947185D01*
X137366537Y-83850494D01*
X137425502Y-83740180D01*
X137461812Y-83620482D01*
X137474072Y-83496000D01*
X137471000Y-82581750D01*
X137312250Y-82423000D01*
X135763000Y-82423000D01*
X135509000Y-82423000D01*
X133959750Y-82423000D01*
X133801000Y-82581750D01*
X133797928Y-83496000D01*
X81480234Y-83496000D01*
X81483000Y-83482095D01*
X81483000Y-83141905D01*
X81416632Y-82808253D01*
X81286447Y-82493959D01*
X81097448Y-82211102D01*
X80856898Y-81970552D01*
X80574041Y-81781553D01*
X80259747Y-81651368D01*
X79926095Y-81585000D01*
X79585905Y-81585000D01*
X79252253Y-81651368D01*
X78937959Y-81781553D01*
X78655102Y-81970552D01*
X78414552Y-82211102D01*
X78225553Y-82493959D01*
X78095368Y-82808253D01*
X78029000Y-83141905D01*
X72638000Y-83141905D01*
X72638000Y-80748702D01*
X102858903Y-80748702D01*
X102930486Y-80992671D01*
X103185996Y-81113571D01*
X103460184Y-81182300D01*
X103742512Y-81196217D01*
X104022130Y-81154787D01*
X104186515Y-81096000D01*
X133797928Y-81096000D01*
X133801000Y-82010250D01*
X133959750Y-82169000D01*
X135509000Y-82169000D01*
X135509000Y-80619750D01*
X135763000Y-80619750D01*
X135763000Y-82169000D01*
X137312250Y-82169000D01*
X137471000Y-82010250D01*
X137474072Y-81096000D01*
X137461812Y-80971518D01*
X137425502Y-80851820D01*
X137366537Y-80741506D01*
X137287185Y-80644815D01*
X137190494Y-80565463D01*
X137080180Y-80506498D01*
X136960482Y-80470188D01*
X136836000Y-80457928D01*
X135921750Y-80461000D01*
X135763000Y-80619750D01*
X135509000Y-80619750D01*
X135350250Y-80461000D01*
X134436000Y-80457928D01*
X134311518Y-80470188D01*
X134191820Y-80506498D01*
X134081506Y-80565463D01*
X133984815Y-80644815D01*
X133905463Y-80741506D01*
X133846498Y-80851820D01*
X133810188Y-80971518D01*
X133797928Y-81096000D01*
X104186515Y-81096000D01*
X104288292Y-81059603D01*
X104413514Y-80992671D01*
X104485097Y-80748702D01*
X103672000Y-79935605D01*
X102858903Y-80748702D01*
X72638000Y-80748702D01*
X72638000Y-78061905D01*
X78029000Y-78061905D01*
X78029000Y-78402095D01*
X78095368Y-78735747D01*
X78225553Y-79050041D01*
X78414552Y-79332898D01*
X78655102Y-79573448D01*
X78937959Y-79762447D01*
X79252253Y-79892632D01*
X79585905Y-79959000D01*
X79926095Y-79959000D01*
X80259747Y-79892632D01*
X80419374Y-79826512D01*
X102231783Y-79826512D01*
X102273213Y-80106130D01*
X102368397Y-80372292D01*
X102435329Y-80497514D01*
X102679298Y-80569097D01*
X103492395Y-79756000D01*
X103851605Y-79756000D01*
X104664702Y-80569097D01*
X104908671Y-80497514D01*
X104942934Y-80425103D01*
X104942934Y-80556000D01*
X104951178Y-80639707D01*
X104975595Y-80720196D01*
X105015245Y-80794376D01*
X105068605Y-80859395D01*
X105133624Y-80912755D01*
X105207804Y-80952405D01*
X105288293Y-80976822D01*
X105372000Y-80985066D01*
X106972000Y-80985066D01*
X107055707Y-80976822D01*
X107136196Y-80952405D01*
X107210376Y-80912755D01*
X107275395Y-80859395D01*
X107328755Y-80794376D01*
X107368405Y-80720196D01*
X107392822Y-80639707D01*
X107401066Y-80556000D01*
X107401066Y-78956000D01*
X107392822Y-78872293D01*
X107368405Y-78791804D01*
X107328755Y-78717624D01*
X107275395Y-78652605D01*
X107210376Y-78599245D01*
X107136196Y-78559595D01*
X107055707Y-78535178D01*
X106972000Y-78526934D01*
X105372000Y-78526934D01*
X105288293Y-78535178D01*
X105207804Y-78559595D01*
X105133624Y-78599245D01*
X105068605Y-78652605D01*
X105015245Y-78717624D01*
X104975595Y-78791804D01*
X104951178Y-78872293D01*
X104942934Y-78956000D01*
X104942934Y-79078588D01*
X104908671Y-79014486D01*
X104664702Y-78942903D01*
X103851605Y-79756000D01*
X103492395Y-79756000D01*
X102679298Y-78942903D01*
X102435329Y-79014486D01*
X102314429Y-79269996D01*
X102245700Y-79544184D01*
X102231783Y-79826512D01*
X80419374Y-79826512D01*
X80574041Y-79762447D01*
X80856898Y-79573448D01*
X81097448Y-79332898D01*
X81286447Y-79050041D01*
X81405219Y-78763298D01*
X102858903Y-78763298D01*
X103672000Y-79576395D01*
X104485097Y-78763298D01*
X104413514Y-78519329D01*
X104158004Y-78398429D01*
X103883816Y-78329700D01*
X103601488Y-78315783D01*
X103321870Y-78357213D01*
X103055708Y-78452397D01*
X102930486Y-78519329D01*
X102858903Y-78763298D01*
X81405219Y-78763298D01*
X81416632Y-78735747D01*
X81483000Y-78402095D01*
X81483000Y-78061905D01*
X81416632Y-77728253D01*
X81286447Y-77413959D01*
X81097448Y-77131102D01*
X80856898Y-76890552D01*
X80574041Y-76701553D01*
X80259747Y-76571368D01*
X79926095Y-76505000D01*
X79585905Y-76505000D01*
X79252253Y-76571368D01*
X78937959Y-76701553D01*
X78655102Y-76890552D01*
X78414552Y-77131102D01*
X78225553Y-77413959D01*
X78095368Y-77728253D01*
X78029000Y-78061905D01*
X72638000Y-78061905D01*
X72638000Y-74007755D01*
X88917000Y-74007755D01*
X88917000Y-74328245D01*
X88979525Y-74642578D01*
X89102172Y-74938673D01*
X89280227Y-75205152D01*
X89506848Y-75431773D01*
X89773327Y-75609828D01*
X90069422Y-75732475D01*
X90383755Y-75795000D01*
X90704245Y-75795000D01*
X91018578Y-75732475D01*
X91314673Y-75609828D01*
X91581152Y-75431773D01*
X91644925Y-75368000D01*
X96205928Y-75368000D01*
X96218188Y-75492482D01*
X96254498Y-75612180D01*
X96313463Y-75722494D01*
X96392815Y-75819185D01*
X96489506Y-75898537D01*
X96599820Y-75957502D01*
X96719518Y-75993812D01*
X96844000Y-76006072D01*
X97758250Y-76003000D01*
X97917000Y-75844250D01*
X97917000Y-74295000D01*
X98171000Y-74295000D01*
X98171000Y-75844250D01*
X98329750Y-76003000D01*
X99244000Y-76006072D01*
X99368482Y-75993812D01*
X99488180Y-75957502D01*
X99598494Y-75898537D01*
X99695185Y-75819185D01*
X99774537Y-75722494D01*
X99833502Y-75612180D01*
X99869812Y-75492482D01*
X99882072Y-75368000D01*
X99879000Y-74453750D01*
X99720250Y-74295000D01*
X98171000Y-74295000D01*
X97917000Y-74295000D01*
X96367750Y-74295000D01*
X96209000Y-74453750D01*
X96205928Y-75368000D01*
X91644925Y-75368000D01*
X91807773Y-75205152D01*
X91985828Y-74938673D01*
X92108475Y-74642578D01*
X92171000Y-74328245D01*
X92171000Y-74007755D01*
X92108475Y-73693422D01*
X91985828Y-73397327D01*
X91807773Y-73130848D01*
X91644925Y-72968000D01*
X96205928Y-72968000D01*
X96209000Y-73882250D01*
X96367750Y-74041000D01*
X97917000Y-74041000D01*
X97917000Y-72491750D01*
X98171000Y-72491750D01*
X98171000Y-74041000D01*
X99720250Y-74041000D01*
X99879000Y-73882250D01*
X99882072Y-72968000D01*
X99869812Y-72843518D01*
X99833502Y-72723820D01*
X99774537Y-72613506D01*
X99695185Y-72516815D01*
X99598494Y-72437463D01*
X99488180Y-72378498D01*
X99368482Y-72342188D01*
X99244000Y-72329928D01*
X98329750Y-72333000D01*
X98171000Y-72491750D01*
X97917000Y-72491750D01*
X97758250Y-72333000D01*
X96844000Y-72329928D01*
X96719518Y-72342188D01*
X96599820Y-72378498D01*
X96489506Y-72437463D01*
X96392815Y-72516815D01*
X96313463Y-72613506D01*
X96254498Y-72723820D01*
X96218188Y-72843518D01*
X96205928Y-72968000D01*
X91644925Y-72968000D01*
X91581152Y-72904227D01*
X91314673Y-72726172D01*
X91018578Y-72603525D01*
X90704245Y-72541000D01*
X90383755Y-72541000D01*
X90069422Y-72603525D01*
X89773327Y-72726172D01*
X89506848Y-72904227D01*
X89280227Y-73130848D01*
X89102172Y-73397327D01*
X88979525Y-73693422D01*
X88917000Y-74007755D01*
X72638000Y-74007755D01*
X72638000Y-71218000D01*
X111953678Y-71218000D01*
X111963000Y-71312648D01*
X111963000Y-71312658D01*
X111990884Y-71595758D01*
X112101071Y-71958998D01*
X112280007Y-72293763D01*
X112460472Y-72513661D01*
X112460476Y-72513665D01*
X112520814Y-72587187D01*
X112594336Y-72647525D01*
X115156475Y-75209665D01*
X115216813Y-75283187D01*
X115290335Y-75343525D01*
X115290338Y-75343528D01*
X115397865Y-75431773D01*
X115510237Y-75523994D01*
X115845001Y-75702929D01*
X116208241Y-75813117D01*
X116241291Y-75816372D01*
X116491342Y-75841000D01*
X116491350Y-75841000D01*
X116586000Y-75850322D01*
X116680650Y-75841000D01*
X117696658Y-75841000D01*
X117979758Y-75813117D01*
X118342999Y-75702929D01*
X118677763Y-75523994D01*
X118971187Y-75283187D01*
X119211994Y-74989763D01*
X119390929Y-74654999D01*
X119501117Y-74291758D01*
X119538323Y-73914000D01*
X119501117Y-73536242D01*
X119390929Y-73173001D01*
X119211994Y-72838237D01*
X118971187Y-72544813D01*
X118677763Y-72304006D01*
X118342999Y-72125071D01*
X117979758Y-72014883D01*
X117696658Y-71987000D01*
X117384190Y-71987000D01*
X115817000Y-70419811D01*
X115817000Y-69501342D01*
X115813451Y-69465302D01*
X115963000Y-69465302D01*
X115963000Y-69726698D01*
X116013996Y-69983072D01*
X116114028Y-70224570D01*
X116259252Y-70441913D01*
X116444087Y-70626748D01*
X116661430Y-70771972D01*
X116902928Y-70872004D01*
X117159302Y-70923000D01*
X117420698Y-70923000D01*
X117677072Y-70872004D01*
X117918570Y-70771972D01*
X118135913Y-70626748D01*
X118320748Y-70441913D01*
X118465972Y-70224570D01*
X118566004Y-69983072D01*
X118570446Y-69960740D01*
X119198964Y-69960740D01*
X119247606Y-70121107D01*
X119377764Y-70392414D01*
X119558351Y-70633116D01*
X119782427Y-70833962D01*
X120041380Y-70987234D01*
X120325259Y-71087041D01*
X120563000Y-70966992D01*
X120563000Y-69723000D01*
X120817000Y-69723000D01*
X120817000Y-70966992D01*
X121054741Y-71087041D01*
X121338620Y-70987234D01*
X121597573Y-70833962D01*
X121821649Y-70633116D01*
X122002236Y-70392414D01*
X122132394Y-70121107D01*
X122181036Y-69960740D01*
X122060378Y-69723000D01*
X120817000Y-69723000D01*
X120563000Y-69723000D01*
X119319622Y-69723000D01*
X119198964Y-69960740D01*
X118570446Y-69960740D01*
X118617000Y-69726698D01*
X118617000Y-69465302D01*
X118570447Y-69231260D01*
X119198964Y-69231260D01*
X119319622Y-69469000D01*
X120563000Y-69469000D01*
X120563000Y-68225008D01*
X120817000Y-68225008D01*
X120817000Y-69469000D01*
X122060378Y-69469000D01*
X122062254Y-69465302D01*
X122763000Y-69465302D01*
X122763000Y-69726698D01*
X122813996Y-69983072D01*
X122914028Y-70224570D01*
X123059252Y-70441913D01*
X123244087Y-70626748D01*
X123461430Y-70771972D01*
X123702928Y-70872004D01*
X123959302Y-70923000D01*
X124220698Y-70923000D01*
X124477072Y-70872004D01*
X124718570Y-70771972D01*
X124935913Y-70626748D01*
X125120748Y-70441913D01*
X125265972Y-70224570D01*
X125366004Y-69983072D01*
X125417000Y-69726698D01*
X125417000Y-69465302D01*
X126163000Y-69465302D01*
X126163000Y-69726698D01*
X126213996Y-69983072D01*
X126314028Y-70224570D01*
X126459252Y-70441913D01*
X126644087Y-70626748D01*
X126861430Y-70771972D01*
X127102928Y-70872004D01*
X127359302Y-70923000D01*
X127620698Y-70923000D01*
X127877072Y-70872004D01*
X128118570Y-70771972D01*
X128335913Y-70626748D01*
X128520748Y-70441913D01*
X128665972Y-70224570D01*
X128766004Y-69983072D01*
X128817000Y-69726698D01*
X128817000Y-69465302D01*
X128766004Y-69208928D01*
X128665972Y-68967430D01*
X128520748Y-68750087D01*
X128335913Y-68565252D01*
X128118570Y-68420028D01*
X127877072Y-68319996D01*
X127620698Y-68269000D01*
X127359302Y-68269000D01*
X127102928Y-68319996D01*
X126861430Y-68420028D01*
X126644087Y-68565252D01*
X126459252Y-68750087D01*
X126314028Y-68967430D01*
X126213996Y-69208928D01*
X126163000Y-69465302D01*
X125417000Y-69465302D01*
X125366004Y-69208928D01*
X125265972Y-68967430D01*
X125120748Y-68750087D01*
X124935913Y-68565252D01*
X124718570Y-68420028D01*
X124477072Y-68319996D01*
X124220698Y-68269000D01*
X123959302Y-68269000D01*
X123702928Y-68319996D01*
X123461430Y-68420028D01*
X123244087Y-68565252D01*
X123059252Y-68750087D01*
X122914028Y-68967430D01*
X122813996Y-69208928D01*
X122763000Y-69465302D01*
X122062254Y-69465302D01*
X122181036Y-69231260D01*
X122132394Y-69070893D01*
X122002236Y-68799586D01*
X121821649Y-68558884D01*
X121597573Y-68358038D01*
X121338620Y-68204766D01*
X121054741Y-68104959D01*
X120817000Y-68225008D01*
X120563000Y-68225008D01*
X120325259Y-68104959D01*
X120041380Y-68204766D01*
X119782427Y-68358038D01*
X119558351Y-68558884D01*
X119377764Y-68799586D01*
X119247606Y-69070893D01*
X119198964Y-69231260D01*
X118570447Y-69231260D01*
X118566004Y-69208928D01*
X118465972Y-68967430D01*
X118320748Y-68750087D01*
X118135913Y-68565252D01*
X117918570Y-68420028D01*
X117677072Y-68319996D01*
X117420698Y-68269000D01*
X117159302Y-68269000D01*
X116902928Y-68319996D01*
X116661430Y-68420028D01*
X116444087Y-68565252D01*
X116259252Y-68750087D01*
X116114028Y-68967430D01*
X116013996Y-69208928D01*
X115963000Y-69465302D01*
X115813451Y-69465302D01*
X115789117Y-69218242D01*
X115678929Y-68855001D01*
X115499994Y-68520237D01*
X115259187Y-68226813D01*
X114965763Y-67986006D01*
X114630998Y-67807071D01*
X114267757Y-67696883D01*
X113890000Y-67659677D01*
X113512242Y-67696883D01*
X113149001Y-67807071D01*
X112814237Y-67986006D01*
X112520813Y-68226813D01*
X112280006Y-68520237D01*
X112101071Y-68855002D01*
X111990883Y-69218243D01*
X111963000Y-69501343D01*
X111963000Y-71123352D01*
X111953678Y-71218000D01*
X72638000Y-71218000D01*
X72638000Y-70231000D01*
X80264000Y-70231000D01*
X80288776Y-70228560D01*
X80312601Y-70221333D01*
X80334557Y-70209597D01*
X80353803Y-70193803D01*
X80369597Y-70174557D01*
X80381333Y-70152601D01*
X80388560Y-70128776D01*
X80391000Y-70104000D01*
X80391000Y-68696000D01*
X109160934Y-68696000D01*
X109160934Y-70496000D01*
X109169178Y-70579707D01*
X109193595Y-70660196D01*
X109233245Y-70734376D01*
X109286605Y-70799395D01*
X109351624Y-70852755D01*
X109425804Y-70892405D01*
X109506293Y-70916822D01*
X109590000Y-70925066D01*
X111390000Y-70925066D01*
X111473707Y-70916822D01*
X111554196Y-70892405D01*
X111628376Y-70852755D01*
X111693395Y-70799395D01*
X111746755Y-70734376D01*
X111786405Y-70660196D01*
X111810822Y-70579707D01*
X111819066Y-70496000D01*
X111819066Y-68696000D01*
X111810822Y-68612293D01*
X111786405Y-68531804D01*
X111746755Y-68457624D01*
X111693395Y-68392605D01*
X111628376Y-68339245D01*
X111554196Y-68299595D01*
X111473707Y-68275178D01*
X111390000Y-68266934D01*
X109590000Y-68266934D01*
X109506293Y-68275178D01*
X109425804Y-68299595D01*
X109351624Y-68339245D01*
X109286605Y-68392605D01*
X109233245Y-68457624D01*
X109193595Y-68531804D01*
X109169178Y-68612293D01*
X109160934Y-68696000D01*
X80391000Y-68696000D01*
X80391000Y-66371151D01*
X84117000Y-66371151D01*
X84117000Y-66612849D01*
X84164153Y-66849903D01*
X84256647Y-67073202D01*
X84390927Y-67274167D01*
X84561833Y-67445073D01*
X84762798Y-67579353D01*
X84986097Y-67671847D01*
X85223151Y-67719000D01*
X85464849Y-67719000D01*
X85701903Y-67671847D01*
X85925202Y-67579353D01*
X86126167Y-67445073D01*
X86297073Y-67274167D01*
X86431353Y-67073202D01*
X86523847Y-66849903D01*
X86525816Y-66840000D01*
X100161928Y-66840000D01*
X100174188Y-66964482D01*
X100210498Y-67084180D01*
X100269463Y-67194494D01*
X100348815Y-67291185D01*
X100445506Y-67370537D01*
X100555820Y-67429502D01*
X100675518Y-67465812D01*
X100800000Y-67478072D01*
X101314250Y-67475000D01*
X101473000Y-67316250D01*
X101473000Y-66167000D01*
X101727000Y-66167000D01*
X101727000Y-67316250D01*
X101885750Y-67475000D01*
X102400000Y-67478072D01*
X102524482Y-67465812D01*
X102644180Y-67429502D01*
X102754494Y-67370537D01*
X102851185Y-67291185D01*
X102930537Y-67194494D01*
X102989502Y-67084180D01*
X103025812Y-66964482D01*
X103038072Y-66840000D01*
X103035000Y-66325750D01*
X102876250Y-66167000D01*
X101727000Y-66167000D01*
X101473000Y-66167000D01*
X100323750Y-66167000D01*
X100165000Y-66325750D01*
X100161928Y-66840000D01*
X86525816Y-66840000D01*
X86571000Y-66612849D01*
X86571000Y-66371151D01*
X86523847Y-66134097D01*
X86431353Y-65910798D01*
X86297073Y-65709833D01*
X86126167Y-65538927D01*
X85925202Y-65404647D01*
X85701903Y-65312153D01*
X85464849Y-65265000D01*
X85223151Y-65265000D01*
X84986097Y-65312153D01*
X84762798Y-65404647D01*
X84561833Y-65538927D01*
X84390927Y-65709833D01*
X84256647Y-65910798D01*
X84164153Y-66134097D01*
X84117000Y-66371151D01*
X80391000Y-66371151D01*
X80391000Y-65240000D01*
X100161928Y-65240000D01*
X100165000Y-65754250D01*
X100323750Y-65913000D01*
X101473000Y-65913000D01*
X101473000Y-65893000D01*
X101727000Y-65893000D01*
X101727000Y-65913000D01*
X102876250Y-65913000D01*
X103035000Y-65754250D01*
X103038072Y-65240000D01*
X103025812Y-65115518D01*
X102989502Y-64995820D01*
X102930537Y-64885506D01*
X102851185Y-64788815D01*
X102754494Y-64709463D01*
X102644180Y-64650498D01*
X102524482Y-64614188D01*
X102400000Y-64601928D01*
X102217623Y-64603017D01*
X102382167Y-64493073D01*
X102489938Y-64385302D01*
X110863000Y-64385302D01*
X110863000Y-64646698D01*
X110913996Y-64903072D01*
X111014028Y-65144570D01*
X111159252Y-65361913D01*
X111344087Y-65546748D01*
X111561430Y-65691972D01*
X111802928Y-65792004D01*
X112059302Y-65843000D01*
X112320698Y-65843000D01*
X112577072Y-65792004D01*
X112818570Y-65691972D01*
X113035913Y-65546748D01*
X113220748Y-65361913D01*
X113365972Y-65144570D01*
X113466004Y-64903072D01*
X113517000Y-64646698D01*
X113517000Y-64385302D01*
X114263000Y-64385302D01*
X114263000Y-64646698D01*
X114313996Y-64903072D01*
X114414028Y-65144570D01*
X114559252Y-65361913D01*
X114744087Y-65546748D01*
X114961430Y-65691972D01*
X115202928Y-65792004D01*
X115459302Y-65843000D01*
X115720698Y-65843000D01*
X115977072Y-65792004D01*
X116218570Y-65691972D01*
X116435913Y-65546748D01*
X116620748Y-65361913D01*
X116765972Y-65144570D01*
X116866004Y-64903072D01*
X116917000Y-64646698D01*
X116917000Y-64385302D01*
X117663000Y-64385302D01*
X117663000Y-64646698D01*
X117713996Y-64903072D01*
X117814028Y-65144570D01*
X117959252Y-65361913D01*
X118144087Y-65546748D01*
X118361430Y-65691972D01*
X118602928Y-65792004D01*
X118859302Y-65843000D01*
X119120698Y-65843000D01*
X119377072Y-65792004D01*
X119618570Y-65691972D01*
X119835913Y-65546748D01*
X120020748Y-65361913D01*
X120165972Y-65144570D01*
X120266004Y-64903072D01*
X120317000Y-64646698D01*
X120317000Y-64385302D01*
X120266004Y-64128928D01*
X120165972Y-63887430D01*
X120020748Y-63670087D01*
X119835913Y-63485252D01*
X119618570Y-63340028D01*
X119377072Y-63239996D01*
X119120698Y-63189000D01*
X118859302Y-63189000D01*
X118602928Y-63239996D01*
X118361430Y-63340028D01*
X118144087Y-63485252D01*
X117959252Y-63670087D01*
X117814028Y-63887430D01*
X117713996Y-64128928D01*
X117663000Y-64385302D01*
X116917000Y-64385302D01*
X116866004Y-64128928D01*
X116765972Y-63887430D01*
X116620748Y-63670087D01*
X116435913Y-63485252D01*
X116218570Y-63340028D01*
X115977072Y-63239996D01*
X115720698Y-63189000D01*
X115459302Y-63189000D01*
X115202928Y-63239996D01*
X114961430Y-63340028D01*
X114744087Y-63485252D01*
X114559252Y-63670087D01*
X114414028Y-63887430D01*
X114313996Y-64128928D01*
X114263000Y-64385302D01*
X113517000Y-64385302D01*
X113466004Y-64128928D01*
X113365972Y-63887430D01*
X113220748Y-63670087D01*
X113035913Y-63485252D01*
X112818570Y-63340028D01*
X112577072Y-63239996D01*
X112320698Y-63189000D01*
X112059302Y-63189000D01*
X111802928Y-63239996D01*
X111561430Y-63340028D01*
X111344087Y-63485252D01*
X111159252Y-63670087D01*
X111014028Y-63887430D01*
X110913996Y-64128928D01*
X110863000Y-64385302D01*
X102489938Y-64385302D01*
X102553073Y-64322167D01*
X102687353Y-64121202D01*
X102779847Y-63897903D01*
X102827000Y-63660849D01*
X102827000Y-63419151D01*
X102779847Y-63182097D01*
X102687353Y-62958798D01*
X102553073Y-62757833D01*
X102382167Y-62586927D01*
X102181202Y-62452647D01*
X101957903Y-62360153D01*
X101720849Y-62313000D01*
X101479151Y-62313000D01*
X101242097Y-62360153D01*
X101018798Y-62452647D01*
X100817833Y-62586927D01*
X100646927Y-62757833D01*
X100512647Y-62958798D01*
X100420153Y-63182097D01*
X100373000Y-63419151D01*
X100373000Y-63660849D01*
X100420153Y-63897903D01*
X100512647Y-64121202D01*
X100646927Y-64322167D01*
X100817833Y-64493073D01*
X100982377Y-64603017D01*
X100800000Y-64601928D01*
X100675518Y-64614188D01*
X100555820Y-64650498D01*
X100445506Y-64709463D01*
X100348815Y-64788815D01*
X100269463Y-64885506D01*
X100210498Y-64995820D01*
X100174188Y-65115518D01*
X100161928Y-65240000D01*
X80391000Y-65240000D01*
X80391000Y-63792000D01*
X83905928Y-63792000D01*
X83918188Y-63916482D01*
X83954498Y-64036180D01*
X84013463Y-64146494D01*
X84092815Y-64243185D01*
X84189506Y-64322537D01*
X84299820Y-64381502D01*
X84419518Y-64417812D01*
X84544000Y-64430072D01*
X85058250Y-64427000D01*
X85217000Y-64268250D01*
X85217000Y-63119000D01*
X85471000Y-63119000D01*
X85471000Y-64268250D01*
X85629750Y-64427000D01*
X86144000Y-64430072D01*
X86268482Y-64417812D01*
X86388180Y-64381502D01*
X86498494Y-64322537D01*
X86595185Y-64243185D01*
X86674537Y-64146494D01*
X86733502Y-64036180D01*
X86769812Y-63916482D01*
X86782072Y-63792000D01*
X86779000Y-63277750D01*
X86620250Y-63119000D01*
X85471000Y-63119000D01*
X85217000Y-63119000D01*
X84067750Y-63119000D01*
X83909000Y-63277750D01*
X83905928Y-63792000D01*
X80391000Y-63792000D01*
X80391000Y-62484000D01*
X80388560Y-62459224D01*
X80381333Y-62435399D01*
X80369597Y-62413443D01*
X80353803Y-62394197D01*
X80334557Y-62378403D01*
X80312601Y-62366667D01*
X80288776Y-62359440D01*
X80264000Y-62357000D01*
X72864662Y-62357000D01*
X72870660Y-62337132D01*
X72947828Y-62192000D01*
X83905928Y-62192000D01*
X83909000Y-62706250D01*
X84067750Y-62865000D01*
X85217000Y-62865000D01*
X85217000Y-61715750D01*
X85471000Y-61715750D01*
X85471000Y-62865000D01*
X86620250Y-62865000D01*
X86779000Y-62706250D01*
X86782072Y-62192000D01*
X86769812Y-62067518D01*
X86733502Y-61947820D01*
X86674537Y-61837506D01*
X86595185Y-61740815D01*
X86498494Y-61661463D01*
X86388180Y-61602498D01*
X86268482Y-61566188D01*
X86144000Y-61553928D01*
X85629750Y-61557000D01*
X85471000Y-61715750D01*
X85217000Y-61715750D01*
X85058250Y-61557000D01*
X84544000Y-61553928D01*
X84419518Y-61566188D01*
X84299820Y-61602498D01*
X84189506Y-61661463D01*
X84092815Y-61740815D01*
X84013463Y-61837506D01*
X83954498Y-61947820D01*
X83918188Y-62067518D01*
X83905928Y-62192000D01*
X72947828Y-62192000D01*
X73150265Y-61811273D01*
X73526678Y-61349745D01*
X73985572Y-60970115D01*
X74509460Y-60686850D01*
X75078394Y-60510735D01*
X75694311Y-60446000D01*
X94185998Y-60446000D01*
X93990999Y-60641000D01*
G37*
X93990999Y-60641000D02*
X93898548Y-60641000D01*
X93738773Y-60672782D01*
X93588269Y-60735123D01*
X93452819Y-60825628D01*
X93337628Y-60940819D01*
X93247123Y-61076269D01*
X93184782Y-61226773D01*
X93153000Y-61386548D01*
X93153000Y-61549452D01*
X93184782Y-61709227D01*
X93247123Y-61859731D01*
X93337628Y-61995181D01*
X93452819Y-62110372D01*
X93588269Y-62200877D01*
X93738773Y-62263218D01*
X93898548Y-62295000D01*
X94061452Y-62295000D01*
X94221227Y-62263218D01*
X94371731Y-62200877D01*
X94507181Y-62110372D01*
X94622372Y-61995181D01*
X94712877Y-61859731D01*
X94775218Y-61709227D01*
X94807000Y-61549452D01*
X94807000Y-61457001D01*
X95235002Y-61029000D01*
X118086999Y-61029000D01*
X121135357Y-64077358D01*
X121113996Y-64128928D01*
X121063000Y-64385302D01*
X121063000Y-64646698D01*
X121113996Y-64903072D01*
X121214028Y-65144570D01*
X121359252Y-65361913D01*
X121544087Y-65546748D01*
X121761430Y-65691972D01*
X122002928Y-65792004D01*
X122259302Y-65843000D01*
X122520698Y-65843000D01*
X122777072Y-65792004D01*
X123018570Y-65691972D01*
X123235913Y-65546748D01*
X123420748Y-65361913D01*
X123565972Y-65144570D01*
X123666004Y-64903072D01*
X123717000Y-64646698D01*
X123717000Y-64385302D01*
X124463000Y-64385302D01*
X124463000Y-64646698D01*
X124513996Y-64903072D01*
X124614028Y-65144570D01*
X124759252Y-65361913D01*
X124944087Y-65546748D01*
X125161430Y-65691972D01*
X125402928Y-65792004D01*
X125659302Y-65843000D01*
X125920698Y-65843000D01*
X126177072Y-65792004D01*
X126418570Y-65691972D01*
X126635913Y-65546748D01*
X126820748Y-65361913D01*
X126965972Y-65144570D01*
X127066004Y-64903072D01*
X127117000Y-64646698D01*
X127117000Y-64385302D01*
X127066004Y-64128928D01*
X126965972Y-63887430D01*
X126820748Y-63670087D01*
X126635913Y-63485252D01*
X126418570Y-63340028D01*
X126177072Y-63239996D01*
X125920698Y-63189000D01*
X125659302Y-63189000D01*
X125402928Y-63239996D01*
X125161430Y-63340028D01*
X124944087Y-63485252D01*
X124759252Y-63670087D01*
X124614028Y-63887430D01*
X124513996Y-64128928D01*
X124463000Y-64385302D01*
X123717000Y-64385302D01*
X123666004Y-64128928D01*
X123565972Y-63887430D01*
X123420748Y-63670087D01*
X123235913Y-63485252D01*
X123018570Y-63340028D01*
X122777072Y-63239996D01*
X122520698Y-63189000D01*
X122259302Y-63189000D01*
X122002928Y-63239996D01*
X121951358Y-63261357D01*
X119136001Y-60446000D01*
X137643450Y-60446000D01*
X138260725Y-60506524D01*
X138830868Y-60678660D01*
X139356727Y-60958265D01*
X139818255Y-61334678D01*
X140197885Y-61793572D01*
X140481150Y-62317460D01*
X140493390Y-62357000D01*
X133096000Y-62357000D01*
X133071224Y-62359440D01*
X133047399Y-62366667D01*
X133025443Y-62378403D01*
X133006197Y-62394197D01*
X132990403Y-62413443D01*
X132978667Y-62435399D01*
X132971440Y-62459224D01*
X132969000Y-62484000D01*
X132969000Y-70104000D01*
X132971440Y-70128776D01*
X132978667Y-70152601D01*
X132990403Y-70174557D01*
X133006197Y-70193803D01*
X133025443Y-70209597D01*
X133047399Y-70221333D01*
X133071224Y-70228560D01*
X133096000Y-70231000D01*
X140722000Y-70231000D01*
X140722001Y-91313000D01*
X135636000Y-91313000D01*
X135611224Y-91315440D01*
X135587399Y-91322667D01*
X135565443Y-91334403D01*
X135546197Y-91350197D01*
X131990197Y-94906197D01*
X131974403Y-94925443D01*
X131962667Y-94947399D01*
X131955440Y-94971224D01*
X131953000Y-94996000D01*
X131953000Y-100082000D01*
X80899000Y-100082000D01*
X80899000Y-94996000D01*
X80896560Y-94971224D01*
X80889333Y-94947399D01*
X80877597Y-94925443D01*
X80861803Y-94906197D01*
X80781511Y-94825905D01*
X108001000Y-94825905D01*
X108001000Y-95166095D01*
X108067368Y-95499747D01*
X108197553Y-95814041D01*
X108386552Y-96096898D01*
X108627102Y-96337448D01*
X108909959Y-96526447D01*
X109224253Y-96656632D01*
X109557905Y-96723000D01*
X109898095Y-96723000D01*
X110231747Y-96656632D01*
X110546041Y-96526447D01*
X110817260Y-96345224D01*
X113638381Y-96345224D01*
X113770317Y-96640312D01*
X114111045Y-96811159D01*
X114478557Y-96912250D01*
X114858729Y-96939701D01*
X115236951Y-96892457D01*
X115598690Y-96772333D01*
X115845683Y-96640312D01*
X115977619Y-96345224D01*
X114808000Y-95175605D01*
X113638381Y-96345224D01*
X110817260Y-96345224D01*
X110828898Y-96337448D01*
X111069448Y-96096898D01*
X111258447Y-95814041D01*
X111388632Y-95499747D01*
X111455000Y-95166095D01*
X111455000Y-95046729D01*
X112864299Y-95046729D01*
X112911543Y-95424951D01*
X113031667Y-95786690D01*
X113163688Y-96033683D01*
X113458776Y-96165619D01*
X114628395Y-94996000D01*
X114987605Y-94996000D01*
X116157224Y-96165619D01*
X116452312Y-96033683D01*
X116623159Y-95692955D01*
X116724250Y-95325443D01*
X116751701Y-94945271D01*
X116704457Y-94567049D01*
X116584333Y-94205310D01*
X116452312Y-93958317D01*
X116157224Y-93826381D01*
X114987605Y-94996000D01*
X114628395Y-94996000D01*
X113458776Y-93826381D01*
X113163688Y-93958317D01*
X112992841Y-94299045D01*
X112891750Y-94666557D01*
X112864299Y-95046729D01*
X111455000Y-95046729D01*
X111455000Y-94825905D01*
X111388632Y-94492253D01*
X111258447Y-94177959D01*
X111069448Y-93895102D01*
X110828898Y-93654552D01*
X110817261Y-93646776D01*
X113638381Y-93646776D01*
X114808000Y-94816395D01*
X115977619Y-93646776D01*
X115845683Y-93351688D01*
X115504955Y-93180841D01*
X115137443Y-93079750D01*
X114757271Y-93052299D01*
X114379049Y-93099543D01*
X114017310Y-93219667D01*
X113770317Y-93351688D01*
X113638381Y-93646776D01*
X110817261Y-93646776D01*
X110546041Y-93465553D01*
X110231747Y-93335368D01*
X109898095Y-93269000D01*
X109557905Y-93269000D01*
X109224253Y-93335368D01*
X108909959Y-93465553D01*
X108627102Y-93654552D01*
X108386552Y-93895102D01*
X108197553Y-94177959D01*
X108067368Y-94492253D01*
X108001000Y-94825905D01*
X80781511Y-94825905D01*
X78673586Y-92717980D01*
X89445626Y-92717980D01*
X89565514Y-93002836D01*
X89889210Y-93163699D01*
X90238069Y-93258322D01*
X90598684Y-93283067D01*
X90957198Y-93236985D01*
X91299833Y-93121846D01*
X91522486Y-93002836D01*
X91642374Y-92717980D01*
X90544000Y-91619605D01*
X89445626Y-92717980D01*
X78673586Y-92717980D01*
X77813803Y-91858197D01*
X77794557Y-91842403D01*
X77772601Y-91830667D01*
X77748776Y-91823440D01*
X77724000Y-91821000D01*
X72638000Y-91821000D01*
X72638000Y-91494684D01*
X88700933Y-91494684D01*
X88747015Y-91853198D01*
X88862154Y-92195833D01*
X88981164Y-92418486D01*
X89266020Y-92538374D01*
X90364395Y-91440000D01*
X90723605Y-91440000D01*
X91821980Y-92538374D01*
X92106836Y-92418486D01*
X92267699Y-92094790D01*
X92362322Y-91745931D01*
X92387067Y-91385316D01*
X92340985Y-91026802D01*
X92225846Y-90684167D01*
X92106836Y-90461514D01*
X91821980Y-90341626D01*
X90723605Y-91440000D01*
X90364395Y-91440000D01*
X89266020Y-90341626D01*
X88981164Y-90461514D01*
X88820301Y-90785210D01*
X88725678Y-91134069D01*
X88700933Y-91494684D01*
X72638000Y-91494684D01*
X72638000Y-89741224D01*
X78586381Y-89741224D01*
X78718317Y-90036312D01*
X79059045Y-90207159D01*
X79426557Y-90308250D01*
X79806729Y-90335701D01*
X80184951Y-90288457D01*
X80546690Y-90168333D01*
X80558500Y-90162020D01*
X89445626Y-90162020D01*
X90544000Y-91260395D01*
X91564394Y-90240000D01*
X96414934Y-90240000D01*
X96414934Y-92640000D01*
X96423178Y-92723707D01*
X96447595Y-92804196D01*
X96487245Y-92878376D01*
X96540605Y-92943395D01*
X96605624Y-92996755D01*
X96679804Y-93036405D01*
X96760293Y-93060822D01*
X96844000Y-93069066D01*
X99244000Y-93069066D01*
X99327707Y-93060822D01*
X99408196Y-93036405D01*
X99482376Y-92996755D01*
X99547395Y-92943395D01*
X99600755Y-92878376D01*
X99640405Y-92804196D01*
X99664822Y-92723707D01*
X99673066Y-92640000D01*
X99673066Y-90240000D01*
X99664822Y-90156293D01*
X99640405Y-90075804D01*
X99600755Y-90001624D01*
X99547395Y-89936605D01*
X99482376Y-89883245D01*
X99408196Y-89843595D01*
X99327707Y-89819178D01*
X99244000Y-89810934D01*
X96844000Y-89810934D01*
X96760293Y-89819178D01*
X96679804Y-89843595D01*
X96605624Y-89883245D01*
X96540605Y-89936605D01*
X96487245Y-90001624D01*
X96447595Y-90075804D01*
X96423178Y-90156293D01*
X96414934Y-90240000D01*
X91564394Y-90240000D01*
X91642374Y-90162020D01*
X91522486Y-89877164D01*
X91198790Y-89716301D01*
X90849931Y-89621678D01*
X90489316Y-89596933D01*
X90130802Y-89643015D01*
X89788167Y-89758154D01*
X89565514Y-89877164D01*
X89445626Y-90162020D01*
X80558500Y-90162020D01*
X80793683Y-90036312D01*
X80925619Y-89741224D01*
X79756000Y-88571605D01*
X78586381Y-89741224D01*
X72638000Y-89741224D01*
X72638000Y-88442729D01*
X77812299Y-88442729D01*
X77859543Y-88820951D01*
X77979667Y-89182690D01*
X78111688Y-89429683D01*
X78406776Y-89561619D01*
X79576395Y-88392000D01*
X79935605Y-88392000D01*
X81105224Y-89561619D01*
X81400312Y-89429683D01*
X81547692Y-89135755D01*
X134009000Y-89135755D01*
X134009000Y-89456245D01*
X134071525Y-89770578D01*
X134194172Y-90066673D01*
X134372227Y-90333152D01*
X134598848Y-90559773D01*
X134865327Y-90737828D01*
X135161422Y-90860475D01*
X135475755Y-90923000D01*
X135796245Y-90923000D01*
X136110578Y-90860475D01*
X136406673Y-90737828D01*
X136673152Y-90559773D01*
X136899773Y-90333152D01*
X137077828Y-90066673D01*
X137200475Y-89770578D01*
X137263000Y-89456245D01*
X137263000Y-89135755D01*
X137200475Y-88821422D01*
X137077828Y-88525327D01*
X136899773Y-88258848D01*
X136673152Y-88032227D01*
X136406673Y-87854172D01*
X136110578Y-87731525D01*
X135796245Y-87669000D01*
X135475755Y-87669000D01*
X135161422Y-87731525D01*
X134865327Y-87854172D01*
X134598848Y-88032227D01*
X134372227Y-88258848D01*
X134194172Y-88525327D01*
X134071525Y-88821422D01*
X134009000Y-89135755D01*
X81547692Y-89135755D01*
X81571159Y-89088955D01*
X81672250Y-88721443D01*
X81699701Y-88341271D01*
X81652457Y-87963049D01*
X81532333Y-87601310D01*
X81400312Y-87354317D01*
X81105224Y-87222381D01*
X79935605Y-88392000D01*
X79576395Y-88392000D01*
X78406776Y-87222381D01*
X78111688Y-87354317D01*
X77940841Y-87695045D01*
X77839750Y-88062557D01*
X77812299Y-88442729D01*
X72638000Y-88442729D01*
X72638000Y-87042776D01*
X78586381Y-87042776D01*
X79756000Y-88212395D01*
X80925619Y-87042776D01*
X80793683Y-86747688D01*
X80452955Y-86576841D01*
X80085443Y-86475750D01*
X80053632Y-86473453D01*
X108555000Y-86473453D01*
X108555000Y-86754547D01*
X108609838Y-87030241D01*
X108717409Y-87289938D01*
X108873576Y-87523660D01*
X109072340Y-87722424D01*
X109306062Y-87878591D01*
X109565759Y-87986162D01*
X109841453Y-88041000D01*
X110122547Y-88041000D01*
X110398241Y-87986162D01*
X110657938Y-87878591D01*
X110891660Y-87722424D01*
X111090424Y-87523660D01*
X111246591Y-87289938D01*
X111354162Y-87030241D01*
X111409000Y-86754547D01*
X111409000Y-86473453D01*
X111354162Y-86197759D01*
X111246591Y-85938062D01*
X111090424Y-85704340D01*
X111021839Y-85635755D01*
X134009000Y-85635755D01*
X134009000Y-85956245D01*
X134071525Y-86270578D01*
X134194172Y-86566673D01*
X134372227Y-86833152D01*
X134598848Y-87059773D01*
X134865327Y-87237828D01*
X135161422Y-87360475D01*
X135475755Y-87423000D01*
X135796245Y-87423000D01*
X136110578Y-87360475D01*
X136406673Y-87237828D01*
X136673152Y-87059773D01*
X136899773Y-86833152D01*
X137077828Y-86566673D01*
X137200475Y-86270578D01*
X137263000Y-85956245D01*
X137263000Y-85635755D01*
X137200475Y-85321422D01*
X137077828Y-85025327D01*
X136899773Y-84758848D01*
X136673152Y-84532227D01*
X136406673Y-84354172D01*
X136110578Y-84231525D01*
X135796245Y-84169000D01*
X135475755Y-84169000D01*
X135161422Y-84231525D01*
X134865327Y-84354172D01*
X134598848Y-84532227D01*
X134372227Y-84758848D01*
X134194172Y-85025327D01*
X134071525Y-85321422D01*
X134009000Y-85635755D01*
X111021839Y-85635755D01*
X110891660Y-85505576D01*
X110657938Y-85349409D01*
X110398241Y-85241838D01*
X110122547Y-85187000D01*
X109841453Y-85187000D01*
X109565759Y-85241838D01*
X109306062Y-85349409D01*
X109072340Y-85505576D01*
X108873576Y-85704340D01*
X108717409Y-85938062D01*
X108609838Y-86197759D01*
X108555000Y-86473453D01*
X80053632Y-86473453D01*
X79705271Y-86448299D01*
X79327049Y-86495543D01*
X78965310Y-86615667D01*
X78718317Y-86747688D01*
X78586381Y-87042776D01*
X72638000Y-87042776D01*
X72638000Y-83141905D01*
X78029000Y-83141905D01*
X78029000Y-83482095D01*
X78095368Y-83815747D01*
X78225553Y-84130041D01*
X78414552Y-84412898D01*
X78655102Y-84653448D01*
X78937959Y-84842447D01*
X79252253Y-84972632D01*
X79585905Y-85039000D01*
X79926095Y-85039000D01*
X80259747Y-84972632D01*
X80574041Y-84842447D01*
X80856898Y-84653448D01*
X81097448Y-84412898D01*
X81286447Y-84130041D01*
X81416632Y-83815747D01*
X81480234Y-83496000D01*
X133797928Y-83496000D01*
X133810188Y-83620482D01*
X133846498Y-83740180D01*
X133905463Y-83850494D01*
X133984815Y-83947185D01*
X134081506Y-84026537D01*
X134191820Y-84085502D01*
X134311518Y-84121812D01*
X134436000Y-84134072D01*
X135350250Y-84131000D01*
X135509000Y-83972250D01*
X135509000Y-82423000D01*
X135763000Y-82423000D01*
X135763000Y-83972250D01*
X135921750Y-84131000D01*
X136836000Y-84134072D01*
X136960482Y-84121812D01*
X137080180Y-84085502D01*
X137190494Y-84026537D01*
X137287185Y-83947185D01*
X137366537Y-83850494D01*
X137425502Y-83740180D01*
X137461812Y-83620482D01*
X137474072Y-83496000D01*
X137471000Y-82581750D01*
X137312250Y-82423000D01*
X135763000Y-82423000D01*
X135509000Y-82423000D01*
X133959750Y-82423000D01*
X133801000Y-82581750D01*
X133797928Y-83496000D01*
X81480234Y-83496000D01*
X81483000Y-83482095D01*
X81483000Y-83141905D01*
X81416632Y-82808253D01*
X81286447Y-82493959D01*
X81097448Y-82211102D01*
X80856898Y-81970552D01*
X80574041Y-81781553D01*
X80259747Y-81651368D01*
X79926095Y-81585000D01*
X79585905Y-81585000D01*
X79252253Y-81651368D01*
X78937959Y-81781553D01*
X78655102Y-81970552D01*
X78414552Y-82211102D01*
X78225553Y-82493959D01*
X78095368Y-82808253D01*
X78029000Y-83141905D01*
X72638000Y-83141905D01*
X72638000Y-80748702D01*
X102858903Y-80748702D01*
X102930486Y-80992671D01*
X103185996Y-81113571D01*
X103460184Y-81182300D01*
X103742512Y-81196217D01*
X104022130Y-81154787D01*
X104186515Y-81096000D01*
X133797928Y-81096000D01*
X133801000Y-82010250D01*
X133959750Y-82169000D01*
X135509000Y-82169000D01*
X135509000Y-80619750D01*
X135763000Y-80619750D01*
X135763000Y-82169000D01*
X137312250Y-82169000D01*
X137471000Y-82010250D01*
X137474072Y-81096000D01*
X137461812Y-80971518D01*
X137425502Y-80851820D01*
X137366537Y-80741506D01*
X137287185Y-80644815D01*
X137190494Y-80565463D01*
X137080180Y-80506498D01*
X136960482Y-80470188D01*
X136836000Y-80457928D01*
X135921750Y-80461000D01*
X135763000Y-80619750D01*
X135509000Y-80619750D01*
X135350250Y-80461000D01*
X134436000Y-80457928D01*
X134311518Y-80470188D01*
X134191820Y-80506498D01*
X134081506Y-80565463D01*
X133984815Y-80644815D01*
X133905463Y-80741506D01*
X133846498Y-80851820D01*
X133810188Y-80971518D01*
X133797928Y-81096000D01*
X104186515Y-81096000D01*
X104288292Y-81059603D01*
X104413514Y-80992671D01*
X104485097Y-80748702D01*
X103672000Y-79935605D01*
X102858903Y-80748702D01*
X72638000Y-80748702D01*
X72638000Y-78061905D01*
X78029000Y-78061905D01*
X78029000Y-78402095D01*
X78095368Y-78735747D01*
X78225553Y-79050041D01*
X78414552Y-79332898D01*
X78655102Y-79573448D01*
X78937959Y-79762447D01*
X79252253Y-79892632D01*
X79585905Y-79959000D01*
X79926095Y-79959000D01*
X80259747Y-79892632D01*
X80419374Y-79826512D01*
X102231783Y-79826512D01*
X102273213Y-80106130D01*
X102368397Y-80372292D01*
X102435329Y-80497514D01*
X102679298Y-80569097D01*
X103492395Y-79756000D01*
X103851605Y-79756000D01*
X104664702Y-80569097D01*
X104908671Y-80497514D01*
X104942934Y-80425103D01*
X104942934Y-80556000D01*
X104951178Y-80639707D01*
X104975595Y-80720196D01*
X105015245Y-80794376D01*
X105068605Y-80859395D01*
X105133624Y-80912755D01*
X105207804Y-80952405D01*
X105288293Y-80976822D01*
X105372000Y-80985066D01*
X106972000Y-80985066D01*
X107055707Y-80976822D01*
X107136196Y-80952405D01*
X107210376Y-80912755D01*
X107275395Y-80859395D01*
X107328755Y-80794376D01*
X107368405Y-80720196D01*
X107392822Y-80639707D01*
X107401066Y-80556000D01*
X107401066Y-78956000D01*
X107392822Y-78872293D01*
X107368405Y-78791804D01*
X107328755Y-78717624D01*
X107275395Y-78652605D01*
X107210376Y-78599245D01*
X107136196Y-78559595D01*
X107055707Y-78535178D01*
X106972000Y-78526934D01*
X105372000Y-78526934D01*
X105288293Y-78535178D01*
X105207804Y-78559595D01*
X105133624Y-78599245D01*
X105068605Y-78652605D01*
X105015245Y-78717624D01*
X104975595Y-78791804D01*
X104951178Y-78872293D01*
X104942934Y-78956000D01*
X104942934Y-79078588D01*
X104908671Y-79014486D01*
X104664702Y-78942903D01*
X103851605Y-79756000D01*
X103492395Y-79756000D01*
X102679298Y-78942903D01*
X102435329Y-79014486D01*
X102314429Y-79269996D01*
X102245700Y-79544184D01*
X102231783Y-79826512D01*
X80419374Y-79826512D01*
X80574041Y-79762447D01*
X80856898Y-79573448D01*
X81097448Y-79332898D01*
X81286447Y-79050041D01*
X81405219Y-78763298D01*
X102858903Y-78763298D01*
X103672000Y-79576395D01*
X104485097Y-78763298D01*
X104413514Y-78519329D01*
X104158004Y-78398429D01*
X103883816Y-78329700D01*
X103601488Y-78315783D01*
X103321870Y-78357213D01*
X103055708Y-78452397D01*
X102930486Y-78519329D01*
X102858903Y-78763298D01*
X81405219Y-78763298D01*
X81416632Y-78735747D01*
X81483000Y-78402095D01*
X81483000Y-78061905D01*
X81416632Y-77728253D01*
X81286447Y-77413959D01*
X81097448Y-77131102D01*
X80856898Y-76890552D01*
X80574041Y-76701553D01*
X80259747Y-76571368D01*
X79926095Y-76505000D01*
X79585905Y-76505000D01*
X79252253Y-76571368D01*
X78937959Y-76701553D01*
X78655102Y-76890552D01*
X78414552Y-77131102D01*
X78225553Y-77413959D01*
X78095368Y-77728253D01*
X78029000Y-78061905D01*
X72638000Y-78061905D01*
X72638000Y-74007755D01*
X88917000Y-74007755D01*
X88917000Y-74328245D01*
X88979525Y-74642578D01*
X89102172Y-74938673D01*
X89280227Y-75205152D01*
X89506848Y-75431773D01*
X89773327Y-75609828D01*
X90069422Y-75732475D01*
X90383755Y-75795000D01*
X90704245Y-75795000D01*
X91018578Y-75732475D01*
X91314673Y-75609828D01*
X91581152Y-75431773D01*
X91644925Y-75368000D01*
X96205928Y-75368000D01*
X96218188Y-75492482D01*
X96254498Y-75612180D01*
X96313463Y-75722494D01*
X96392815Y-75819185D01*
X96489506Y-75898537D01*
X96599820Y-75957502D01*
X96719518Y-75993812D01*
X96844000Y-76006072D01*
X97758250Y-76003000D01*
X97917000Y-75844250D01*
X97917000Y-74295000D01*
X98171000Y-74295000D01*
X98171000Y-75844250D01*
X98329750Y-76003000D01*
X99244000Y-76006072D01*
X99368482Y-75993812D01*
X99488180Y-75957502D01*
X99598494Y-75898537D01*
X99695185Y-75819185D01*
X99774537Y-75722494D01*
X99833502Y-75612180D01*
X99869812Y-75492482D01*
X99882072Y-75368000D01*
X99879000Y-74453750D01*
X99720250Y-74295000D01*
X98171000Y-74295000D01*
X97917000Y-74295000D01*
X96367750Y-74295000D01*
X96209000Y-74453750D01*
X96205928Y-75368000D01*
X91644925Y-75368000D01*
X91807773Y-75205152D01*
X91985828Y-74938673D01*
X92108475Y-74642578D01*
X92171000Y-74328245D01*
X92171000Y-74007755D01*
X92108475Y-73693422D01*
X91985828Y-73397327D01*
X91807773Y-73130848D01*
X91644925Y-72968000D01*
X96205928Y-72968000D01*
X96209000Y-73882250D01*
X96367750Y-74041000D01*
X97917000Y-74041000D01*
X97917000Y-72491750D01*
X98171000Y-72491750D01*
X98171000Y-74041000D01*
X99720250Y-74041000D01*
X99879000Y-73882250D01*
X99882072Y-72968000D01*
X99869812Y-72843518D01*
X99833502Y-72723820D01*
X99774537Y-72613506D01*
X99695185Y-72516815D01*
X99598494Y-72437463D01*
X99488180Y-72378498D01*
X99368482Y-72342188D01*
X99244000Y-72329928D01*
X98329750Y-72333000D01*
X98171000Y-72491750D01*
X97917000Y-72491750D01*
X97758250Y-72333000D01*
X96844000Y-72329928D01*
X96719518Y-72342188D01*
X96599820Y-72378498D01*
X96489506Y-72437463D01*
X96392815Y-72516815D01*
X96313463Y-72613506D01*
X96254498Y-72723820D01*
X96218188Y-72843518D01*
X96205928Y-72968000D01*
X91644925Y-72968000D01*
X91581152Y-72904227D01*
X91314673Y-72726172D01*
X91018578Y-72603525D01*
X90704245Y-72541000D01*
X90383755Y-72541000D01*
X90069422Y-72603525D01*
X89773327Y-72726172D01*
X89506848Y-72904227D01*
X89280227Y-73130848D01*
X89102172Y-73397327D01*
X88979525Y-73693422D01*
X88917000Y-74007755D01*
X72638000Y-74007755D01*
X72638000Y-71218000D01*
X111953678Y-71218000D01*
X111963000Y-71312648D01*
X111963000Y-71312658D01*
X111990884Y-71595758D01*
X112101071Y-71958998D01*
X112280007Y-72293763D01*
X112460472Y-72513661D01*
X112460476Y-72513665D01*
X112520814Y-72587187D01*
X112594336Y-72647525D01*
X115156475Y-75209665D01*
X115216813Y-75283187D01*
X115290335Y-75343525D01*
X115290338Y-75343528D01*
X115397865Y-75431773D01*
X115510237Y-75523994D01*
X115845001Y-75702929D01*
X116208241Y-75813117D01*
X116241291Y-75816372D01*
X116491342Y-75841000D01*
X116491350Y-75841000D01*
X116586000Y-75850322D01*
X116680650Y-75841000D01*
X117696658Y-75841000D01*
X117979758Y-75813117D01*
X118342999Y-75702929D01*
X118677763Y-75523994D01*
X118971187Y-75283187D01*
X119211994Y-74989763D01*
X119390929Y-74654999D01*
X119501117Y-74291758D01*
X119538323Y-73914000D01*
X119501117Y-73536242D01*
X119390929Y-73173001D01*
X119211994Y-72838237D01*
X118971187Y-72544813D01*
X118677763Y-72304006D01*
X118342999Y-72125071D01*
X117979758Y-72014883D01*
X117696658Y-71987000D01*
X117384190Y-71987000D01*
X115817000Y-70419811D01*
X115817000Y-69501342D01*
X115813451Y-69465302D01*
X115963000Y-69465302D01*
X115963000Y-69726698D01*
X116013996Y-69983072D01*
X116114028Y-70224570D01*
X116259252Y-70441913D01*
X116444087Y-70626748D01*
X116661430Y-70771972D01*
X116902928Y-70872004D01*
X117159302Y-70923000D01*
X117420698Y-70923000D01*
X117677072Y-70872004D01*
X117918570Y-70771972D01*
X118135913Y-70626748D01*
X118320748Y-70441913D01*
X118465972Y-70224570D01*
X118566004Y-69983072D01*
X118570446Y-69960740D01*
X119198964Y-69960740D01*
X119247606Y-70121107D01*
X119377764Y-70392414D01*
X119558351Y-70633116D01*
X119782427Y-70833962D01*
X120041380Y-70987234D01*
X120325259Y-71087041D01*
X120563000Y-70966992D01*
X120563000Y-69723000D01*
X120817000Y-69723000D01*
X120817000Y-70966992D01*
X121054741Y-71087041D01*
X121338620Y-70987234D01*
X121597573Y-70833962D01*
X121821649Y-70633116D01*
X122002236Y-70392414D01*
X122132394Y-70121107D01*
X122181036Y-69960740D01*
X122060378Y-69723000D01*
X120817000Y-69723000D01*
X120563000Y-69723000D01*
X119319622Y-69723000D01*
X119198964Y-69960740D01*
X118570446Y-69960740D01*
X118617000Y-69726698D01*
X118617000Y-69465302D01*
X118570447Y-69231260D01*
X119198964Y-69231260D01*
X119319622Y-69469000D01*
X120563000Y-69469000D01*
X120563000Y-68225008D01*
X120817000Y-68225008D01*
X120817000Y-69469000D01*
X122060378Y-69469000D01*
X122062254Y-69465302D01*
X122763000Y-69465302D01*
X122763000Y-69726698D01*
X122813996Y-69983072D01*
X122914028Y-70224570D01*
X123059252Y-70441913D01*
X123244087Y-70626748D01*
X123461430Y-70771972D01*
X123702928Y-70872004D01*
X123959302Y-70923000D01*
X124220698Y-70923000D01*
X124477072Y-70872004D01*
X124718570Y-70771972D01*
X124935913Y-70626748D01*
X125120748Y-70441913D01*
X125265972Y-70224570D01*
X125366004Y-69983072D01*
X125417000Y-69726698D01*
X125417000Y-69465302D01*
X126163000Y-69465302D01*
X126163000Y-69726698D01*
X126213996Y-69983072D01*
X126314028Y-70224570D01*
X126459252Y-70441913D01*
X126644087Y-70626748D01*
X126861430Y-70771972D01*
X127102928Y-70872004D01*
X127359302Y-70923000D01*
X127620698Y-70923000D01*
X127877072Y-70872004D01*
X128118570Y-70771972D01*
X128335913Y-70626748D01*
X128520748Y-70441913D01*
X128665972Y-70224570D01*
X128766004Y-69983072D01*
X128817000Y-69726698D01*
X128817000Y-69465302D01*
X128766004Y-69208928D01*
X128665972Y-68967430D01*
X128520748Y-68750087D01*
X128335913Y-68565252D01*
X128118570Y-68420028D01*
X127877072Y-68319996D01*
X127620698Y-68269000D01*
X127359302Y-68269000D01*
X127102928Y-68319996D01*
X126861430Y-68420028D01*
X126644087Y-68565252D01*
X126459252Y-68750087D01*
X126314028Y-68967430D01*
X126213996Y-69208928D01*
X126163000Y-69465302D01*
X125417000Y-69465302D01*
X125366004Y-69208928D01*
X125265972Y-68967430D01*
X125120748Y-68750087D01*
X124935913Y-68565252D01*
X124718570Y-68420028D01*
X124477072Y-68319996D01*
X124220698Y-68269000D01*
X123959302Y-68269000D01*
X123702928Y-68319996D01*
X123461430Y-68420028D01*
X123244087Y-68565252D01*
X123059252Y-68750087D01*
X122914028Y-68967430D01*
X122813996Y-69208928D01*
X122763000Y-69465302D01*
X122062254Y-69465302D01*
X122181036Y-69231260D01*
X122132394Y-69070893D01*
X122002236Y-68799586D01*
X121821649Y-68558884D01*
X121597573Y-68358038D01*
X121338620Y-68204766D01*
X121054741Y-68104959D01*
X120817000Y-68225008D01*
X120563000Y-68225008D01*
X120325259Y-68104959D01*
X120041380Y-68204766D01*
X119782427Y-68358038D01*
X119558351Y-68558884D01*
X119377764Y-68799586D01*
X119247606Y-69070893D01*
X119198964Y-69231260D01*
X118570447Y-69231260D01*
X118566004Y-69208928D01*
X118465972Y-68967430D01*
X118320748Y-68750087D01*
X118135913Y-68565252D01*
X117918570Y-68420028D01*
X117677072Y-68319996D01*
X117420698Y-68269000D01*
X117159302Y-68269000D01*
X116902928Y-68319996D01*
X116661430Y-68420028D01*
X116444087Y-68565252D01*
X116259252Y-68750087D01*
X116114028Y-68967430D01*
X116013996Y-69208928D01*
X115963000Y-69465302D01*
X115813451Y-69465302D01*
X115789117Y-69218242D01*
X115678929Y-68855001D01*
X115499994Y-68520237D01*
X115259187Y-68226813D01*
X114965763Y-67986006D01*
X114630998Y-67807071D01*
X114267757Y-67696883D01*
X113890000Y-67659677D01*
X113512242Y-67696883D01*
X113149001Y-67807071D01*
X112814237Y-67986006D01*
X112520813Y-68226813D01*
X112280006Y-68520237D01*
X112101071Y-68855002D01*
X111990883Y-69218243D01*
X111963000Y-69501343D01*
X111963000Y-71123352D01*
X111953678Y-71218000D01*
X72638000Y-71218000D01*
X72638000Y-70231000D01*
X80264000Y-70231000D01*
X80288776Y-70228560D01*
X80312601Y-70221333D01*
X80334557Y-70209597D01*
X80353803Y-70193803D01*
X80369597Y-70174557D01*
X80381333Y-70152601D01*
X80388560Y-70128776D01*
X80391000Y-70104000D01*
X80391000Y-68696000D01*
X109160934Y-68696000D01*
X109160934Y-70496000D01*
X109169178Y-70579707D01*
X109193595Y-70660196D01*
X109233245Y-70734376D01*
X109286605Y-70799395D01*
X109351624Y-70852755D01*
X109425804Y-70892405D01*
X109506293Y-70916822D01*
X109590000Y-70925066D01*
X111390000Y-70925066D01*
X111473707Y-70916822D01*
X111554196Y-70892405D01*
X111628376Y-70852755D01*
X111693395Y-70799395D01*
X111746755Y-70734376D01*
X111786405Y-70660196D01*
X111810822Y-70579707D01*
X111819066Y-70496000D01*
X111819066Y-68696000D01*
X111810822Y-68612293D01*
X111786405Y-68531804D01*
X111746755Y-68457624D01*
X111693395Y-68392605D01*
X111628376Y-68339245D01*
X111554196Y-68299595D01*
X111473707Y-68275178D01*
X111390000Y-68266934D01*
X109590000Y-68266934D01*
X109506293Y-68275178D01*
X109425804Y-68299595D01*
X109351624Y-68339245D01*
X109286605Y-68392605D01*
X109233245Y-68457624D01*
X109193595Y-68531804D01*
X109169178Y-68612293D01*
X109160934Y-68696000D01*
X80391000Y-68696000D01*
X80391000Y-66371151D01*
X84117000Y-66371151D01*
X84117000Y-66612849D01*
X84164153Y-66849903D01*
X84256647Y-67073202D01*
X84390927Y-67274167D01*
X84561833Y-67445073D01*
X84762798Y-67579353D01*
X84986097Y-67671847D01*
X85223151Y-67719000D01*
X85464849Y-67719000D01*
X85701903Y-67671847D01*
X85925202Y-67579353D01*
X86126167Y-67445073D01*
X86297073Y-67274167D01*
X86431353Y-67073202D01*
X86523847Y-66849903D01*
X86525816Y-66840000D01*
X100161928Y-66840000D01*
X100174188Y-66964482D01*
X100210498Y-67084180D01*
X100269463Y-67194494D01*
X100348815Y-67291185D01*
X100445506Y-67370537D01*
X100555820Y-67429502D01*
X100675518Y-67465812D01*
X100800000Y-67478072D01*
X101314250Y-67475000D01*
X101473000Y-67316250D01*
X101473000Y-66167000D01*
X101727000Y-66167000D01*
X101727000Y-67316250D01*
X101885750Y-67475000D01*
X102400000Y-67478072D01*
X102524482Y-67465812D01*
X102644180Y-67429502D01*
X102754494Y-67370537D01*
X102851185Y-67291185D01*
X102930537Y-67194494D01*
X102989502Y-67084180D01*
X103025812Y-66964482D01*
X103038072Y-66840000D01*
X103035000Y-66325750D01*
X102876250Y-66167000D01*
X101727000Y-66167000D01*
X101473000Y-66167000D01*
X100323750Y-66167000D01*
X100165000Y-66325750D01*
X100161928Y-66840000D01*
X86525816Y-66840000D01*
X86571000Y-66612849D01*
X86571000Y-66371151D01*
X86523847Y-66134097D01*
X86431353Y-65910798D01*
X86297073Y-65709833D01*
X86126167Y-65538927D01*
X85925202Y-65404647D01*
X85701903Y-65312153D01*
X85464849Y-65265000D01*
X85223151Y-65265000D01*
X84986097Y-65312153D01*
X84762798Y-65404647D01*
X84561833Y-65538927D01*
X84390927Y-65709833D01*
X84256647Y-65910798D01*
X84164153Y-66134097D01*
X84117000Y-66371151D01*
X80391000Y-66371151D01*
X80391000Y-65240000D01*
X100161928Y-65240000D01*
X100165000Y-65754250D01*
X100323750Y-65913000D01*
X101473000Y-65913000D01*
X101473000Y-65893000D01*
X101727000Y-65893000D01*
X101727000Y-65913000D01*
X102876250Y-65913000D01*
X103035000Y-65754250D01*
X103038072Y-65240000D01*
X103025812Y-65115518D01*
X102989502Y-64995820D01*
X102930537Y-64885506D01*
X102851185Y-64788815D01*
X102754494Y-64709463D01*
X102644180Y-64650498D01*
X102524482Y-64614188D01*
X102400000Y-64601928D01*
X102217623Y-64603017D01*
X102382167Y-64493073D01*
X102489938Y-64385302D01*
X110863000Y-64385302D01*
X110863000Y-64646698D01*
X110913996Y-64903072D01*
X111014028Y-65144570D01*
X111159252Y-65361913D01*
X111344087Y-65546748D01*
X111561430Y-65691972D01*
X111802928Y-65792004D01*
X112059302Y-65843000D01*
X112320698Y-65843000D01*
X112577072Y-65792004D01*
X112818570Y-65691972D01*
X113035913Y-65546748D01*
X113220748Y-65361913D01*
X113365972Y-65144570D01*
X113466004Y-64903072D01*
X113517000Y-64646698D01*
X113517000Y-64385302D01*
X114263000Y-64385302D01*
X114263000Y-64646698D01*
X114313996Y-64903072D01*
X114414028Y-65144570D01*
X114559252Y-65361913D01*
X114744087Y-65546748D01*
X114961430Y-65691972D01*
X115202928Y-65792004D01*
X115459302Y-65843000D01*
X115720698Y-65843000D01*
X115977072Y-65792004D01*
X116218570Y-65691972D01*
X116435913Y-65546748D01*
X116620748Y-65361913D01*
X116765972Y-65144570D01*
X116866004Y-64903072D01*
X116917000Y-64646698D01*
X116917000Y-64385302D01*
X117663000Y-64385302D01*
X117663000Y-64646698D01*
X117713996Y-64903072D01*
X117814028Y-65144570D01*
X117959252Y-65361913D01*
X118144087Y-65546748D01*
X118361430Y-65691972D01*
X118602928Y-65792004D01*
X118859302Y-65843000D01*
X119120698Y-65843000D01*
X119377072Y-65792004D01*
X119618570Y-65691972D01*
X119835913Y-65546748D01*
X120020748Y-65361913D01*
X120165972Y-65144570D01*
X120266004Y-64903072D01*
X120317000Y-64646698D01*
X120317000Y-64385302D01*
X120266004Y-64128928D01*
X120165972Y-63887430D01*
X120020748Y-63670087D01*
X119835913Y-63485252D01*
X119618570Y-63340028D01*
X119377072Y-63239996D01*
X119120698Y-63189000D01*
X118859302Y-63189000D01*
X118602928Y-63239996D01*
X118361430Y-63340028D01*
X118144087Y-63485252D01*
X117959252Y-63670087D01*
X117814028Y-63887430D01*
X117713996Y-64128928D01*
X117663000Y-64385302D01*
X116917000Y-64385302D01*
X116866004Y-64128928D01*
X116765972Y-63887430D01*
X116620748Y-63670087D01*
X116435913Y-63485252D01*
X116218570Y-63340028D01*
X115977072Y-63239996D01*
X115720698Y-63189000D01*
X115459302Y-63189000D01*
X115202928Y-63239996D01*
X114961430Y-63340028D01*
X114744087Y-63485252D01*
X114559252Y-63670087D01*
X114414028Y-63887430D01*
X114313996Y-64128928D01*
X114263000Y-64385302D01*
X113517000Y-64385302D01*
X113466004Y-64128928D01*
X113365972Y-63887430D01*
X113220748Y-63670087D01*
X113035913Y-63485252D01*
X112818570Y-63340028D01*
X112577072Y-63239996D01*
X112320698Y-63189000D01*
X112059302Y-63189000D01*
X111802928Y-63239996D01*
X111561430Y-63340028D01*
X111344087Y-63485252D01*
X111159252Y-63670087D01*
X111014028Y-63887430D01*
X110913996Y-64128928D01*
X110863000Y-64385302D01*
X102489938Y-64385302D01*
X102553073Y-64322167D01*
X102687353Y-64121202D01*
X102779847Y-63897903D01*
X102827000Y-63660849D01*
X102827000Y-63419151D01*
X102779847Y-63182097D01*
X102687353Y-62958798D01*
X102553073Y-62757833D01*
X102382167Y-62586927D01*
X102181202Y-62452647D01*
X101957903Y-62360153D01*
X101720849Y-62313000D01*
X101479151Y-62313000D01*
X101242097Y-62360153D01*
X101018798Y-62452647D01*
X100817833Y-62586927D01*
X100646927Y-62757833D01*
X100512647Y-62958798D01*
X100420153Y-63182097D01*
X100373000Y-63419151D01*
X100373000Y-63660849D01*
X100420153Y-63897903D01*
X100512647Y-64121202D01*
X100646927Y-64322167D01*
X100817833Y-64493073D01*
X100982377Y-64603017D01*
X100800000Y-64601928D01*
X100675518Y-64614188D01*
X100555820Y-64650498D01*
X100445506Y-64709463D01*
X100348815Y-64788815D01*
X100269463Y-64885506D01*
X100210498Y-64995820D01*
X100174188Y-65115518D01*
X100161928Y-65240000D01*
X80391000Y-65240000D01*
X80391000Y-63792000D01*
X83905928Y-63792000D01*
X83918188Y-63916482D01*
X83954498Y-64036180D01*
X84013463Y-64146494D01*
X84092815Y-64243185D01*
X84189506Y-64322537D01*
X84299820Y-64381502D01*
X84419518Y-64417812D01*
X84544000Y-64430072D01*
X85058250Y-64427000D01*
X85217000Y-64268250D01*
X85217000Y-63119000D01*
X85471000Y-63119000D01*
X85471000Y-64268250D01*
X85629750Y-64427000D01*
X86144000Y-64430072D01*
X86268482Y-64417812D01*
X86388180Y-64381502D01*
X86498494Y-64322537D01*
X86595185Y-64243185D01*
X86674537Y-64146494D01*
X86733502Y-64036180D01*
X86769812Y-63916482D01*
X86782072Y-63792000D01*
X86779000Y-63277750D01*
X86620250Y-63119000D01*
X85471000Y-63119000D01*
X85217000Y-63119000D01*
X84067750Y-63119000D01*
X83909000Y-63277750D01*
X83905928Y-63792000D01*
X80391000Y-63792000D01*
X80391000Y-62484000D01*
X80388560Y-62459224D01*
X80381333Y-62435399D01*
X80369597Y-62413443D01*
X80353803Y-62394197D01*
X80334557Y-62378403D01*
X80312601Y-62366667D01*
X80288776Y-62359440D01*
X80264000Y-62357000D01*
X72864662Y-62357000D01*
X72870660Y-62337132D01*
X72947828Y-62192000D01*
X83905928Y-62192000D01*
X83909000Y-62706250D01*
X84067750Y-62865000D01*
X85217000Y-62865000D01*
X85217000Y-61715750D01*
X85471000Y-61715750D01*
X85471000Y-62865000D01*
X86620250Y-62865000D01*
X86779000Y-62706250D01*
X86782072Y-62192000D01*
X86769812Y-62067518D01*
X86733502Y-61947820D01*
X86674537Y-61837506D01*
X86595185Y-61740815D01*
X86498494Y-61661463D01*
X86388180Y-61602498D01*
X86268482Y-61566188D01*
X86144000Y-61553928D01*
X85629750Y-61557000D01*
X85471000Y-61715750D01*
X85217000Y-61715750D01*
X85058250Y-61557000D01*
X84544000Y-61553928D01*
X84419518Y-61566188D01*
X84299820Y-61602498D01*
X84189506Y-61661463D01*
X84092815Y-61740815D01*
X84013463Y-61837506D01*
X83954498Y-61947820D01*
X83918188Y-62067518D01*
X83905928Y-62192000D01*
X72947828Y-62192000D01*
X73150265Y-61811273D01*
X73526678Y-61349745D01*
X73985572Y-60970115D01*
X74509460Y-60686850D01*
X75078394Y-60510735D01*
X75694311Y-60446000D01*
X94185998Y-60446000D01*
X93990999Y-60641000D01*
%TD*%
M02*
