%TF.GenerationSoftware,KiCad,Pcbnew,(5.1.6-0)*%
%TF.CreationDate,2023-03-27T21:53:34-07:00*%
%TF.ProjectId,LM3886-bal-no15v-th,4c4d3338-3836-42d6-9261-6c2d6e6f3135,rev?*%
%TF.SameCoordinates,Original*%
%TF.FileFunction,Soldermask,Top*%
%TF.FilePolarity,Negative*%
%FSLAX46Y46*%
G04 Gerber Fmt 4.6, Leading zero omitted, Abs format (unit mm)*
G04 Created by KiCad (PCBNEW (5.1.6-0)) date 2023-03-27 21:53:34*
%MOMM*%
%LPD*%
G01*
G04 APERTURE LIST*
%ADD10C,1.700000*%
%ADD11R,1.700000X1.700000*%
%ADD12C,2.500000*%
%ADD13R,2.500000X2.500000*%
%ADD14C,2.700000*%
%ADD15C,3.600000*%
%ADD16C,2.100000*%
%ADD17O,1.900000X1.900000*%
%ADD18R,1.900000X1.900000*%
G04 APERTURE END LIST*
D10*
%TO.C,C10*%
X85344000Y-66492000D03*
D11*
X85344000Y-62992000D03*
%TD*%
D10*
%TO.C,C7*%
X101600000Y-63540000D03*
D11*
X101600000Y-66040000D03*
%TD*%
D10*
%TO.C,C6*%
X103672000Y-79756000D03*
D11*
X106172000Y-79756000D03*
%TD*%
D12*
%TO.C,C3*%
X90544000Y-74168000D03*
D13*
X98044000Y-74168000D03*
%TD*%
D12*
%TO.C,C2*%
X90544000Y-91440000D03*
D13*
X98044000Y-91440000D03*
%TD*%
D12*
%TO.C,J1*%
X135636000Y-89296000D03*
X135636000Y-85796000D03*
D13*
X135636000Y-82296000D03*
%TD*%
D14*
%TO.C,J3*%
X79756000Y-88392000D03*
X79756000Y-83312000D03*
X79756000Y-78232000D03*
%TD*%
%TO.C,J2*%
X114808000Y-94996000D03*
X109728000Y-94996000D03*
%TD*%
D15*
%TO.C,H4*%
X137160000Y-96520000D03*
%TD*%
%TO.C,H3*%
X137160000Y-66248000D03*
%TD*%
%TO.C,H2*%
X76200000Y-96520000D03*
%TD*%
%TO.C,H1*%
X76200000Y-66248000D03*
%TD*%
D16*
%TO.C,L1*%
X109982000Y-86614000D03*
X117602000Y-73914000D03*
%TD*%
%TO.C,R9*%
G36*
G01*
X123376482Y-84185000D02*
X120463518Y-84185000D01*
G75*
G02*
X120195000Y-83916482I0J268518D01*
G01*
X120195000Y-83003518D01*
G75*
G02*
X120463518Y-82735000I268518J0D01*
G01*
X123376482Y-82735000D01*
G75*
G02*
X123645000Y-83003518I0J-268518D01*
G01*
X123645000Y-83916482D01*
G75*
G02*
X123376482Y-84185000I-268518J0D01*
G01*
G37*
G36*
G01*
X123376482Y-89985000D02*
X120463518Y-89985000D01*
G75*
G02*
X120195000Y-89716482I0J268518D01*
G01*
X120195000Y-88803518D01*
G75*
G02*
X120463518Y-88535000I268518J0D01*
G01*
X123376482Y-88535000D01*
G75*
G02*
X123645000Y-88803518I0J-268518D01*
G01*
X123645000Y-89716482D01*
G75*
G02*
X123376482Y-89985000I-268518J0D01*
G01*
G37*
%TD*%
%TO.C,R8*%
G36*
G01*
X125035518Y-88535000D02*
X127948482Y-88535000D01*
G75*
G02*
X128217000Y-88803518I0J-268518D01*
G01*
X128217000Y-89716482D01*
G75*
G02*
X127948482Y-89985000I-268518J0D01*
G01*
X125035518Y-89985000D01*
G75*
G02*
X124767000Y-89716482I0J268518D01*
G01*
X124767000Y-88803518D01*
G75*
G02*
X125035518Y-88535000I268518J0D01*
G01*
G37*
G36*
G01*
X125035518Y-82735000D02*
X127948482Y-82735000D01*
G75*
G02*
X128217000Y-83003518I0J-268518D01*
G01*
X128217000Y-83916482D01*
G75*
G02*
X127948482Y-84185000I-268518J0D01*
G01*
X125035518Y-84185000D01*
G75*
G02*
X124767000Y-83916482I0J268518D01*
G01*
X124767000Y-83003518D01*
G75*
G02*
X125035518Y-82735000I268518J0D01*
G01*
G37*
%TD*%
%TO.C,C9*%
G36*
G01*
X107335000Y-64299000D02*
X106025000Y-64299000D01*
G75*
G02*
X105755000Y-64029000I0J270000D01*
G01*
X105755000Y-63219000D01*
G75*
G02*
X106025000Y-62949000I270000J0D01*
G01*
X107335000Y-62949000D01*
G75*
G02*
X107605000Y-63219000I0J-270000D01*
G01*
X107605000Y-64029000D01*
G75*
G02*
X107335000Y-64299000I-270000J0D01*
G01*
G37*
G36*
G01*
X107335000Y-67099000D02*
X106025000Y-67099000D01*
G75*
G02*
X105755000Y-66829000I0J270000D01*
G01*
X105755000Y-66019000D01*
G75*
G02*
X106025000Y-65749000I270000J0D01*
G01*
X107335000Y-65749000D01*
G75*
G02*
X107605000Y-66019000I0J-270000D01*
G01*
X107605000Y-66829000D01*
G75*
G02*
X107335000Y-67099000I-270000J0D01*
G01*
G37*
%TD*%
%TO.C,C8*%
G36*
G01*
X105955000Y-71481000D02*
X105955000Y-72791000D01*
G75*
G02*
X105685000Y-73061000I-270000J0D01*
G01*
X104875000Y-73061000D01*
G75*
G02*
X104605000Y-72791000I0J270000D01*
G01*
X104605000Y-71481000D01*
G75*
G02*
X104875000Y-71211000I270000J0D01*
G01*
X105685000Y-71211000D01*
G75*
G02*
X105955000Y-71481000I0J-270000D01*
G01*
G37*
G36*
G01*
X108755000Y-71481000D02*
X108755000Y-72791000D01*
G75*
G02*
X108485000Y-73061000I-270000J0D01*
G01*
X107675000Y-73061000D01*
G75*
G02*
X107405000Y-72791000I0J270000D01*
G01*
X107405000Y-71481000D01*
G75*
G02*
X107675000Y-71211000I270000J0D01*
G01*
X108485000Y-71211000D01*
G75*
G02*
X108755000Y-71481000I0J-270000D01*
G01*
G37*
%TD*%
D17*
%TO.C,U1*%
X127490000Y-69596000D03*
X125790000Y-64516000D03*
X124090000Y-69596000D03*
X122390000Y-64516000D03*
X120690000Y-69596000D03*
X118990000Y-64516000D03*
X117290000Y-69596000D03*
X115590000Y-64516000D03*
X113890000Y-69596000D03*
X112190000Y-64516000D03*
D18*
X110490000Y-69596000D03*
%TD*%
%TO.C,R7*%
G36*
G01*
X92937250Y-62084000D02*
X91974750Y-62084000D01*
G75*
G02*
X91706000Y-61815250I0J268750D01*
G01*
X91706000Y-61277750D01*
G75*
G02*
X91974750Y-61009000I268750J0D01*
G01*
X92937250Y-61009000D01*
G75*
G02*
X93206000Y-61277750I0J-268750D01*
G01*
X93206000Y-61815250D01*
G75*
G02*
X92937250Y-62084000I-268750J0D01*
G01*
G37*
G36*
G01*
X92937250Y-63959000D02*
X91974750Y-63959000D01*
G75*
G02*
X91706000Y-63690250I0J268750D01*
G01*
X91706000Y-63152750D01*
G75*
G02*
X91974750Y-62884000I268750J0D01*
G01*
X92937250Y-62884000D01*
G75*
G02*
X93206000Y-63152750I0J-268750D01*
G01*
X93206000Y-63690250D01*
G75*
G02*
X92937250Y-63959000I-268750J0D01*
G01*
G37*
%TD*%
%TO.C,R6*%
G36*
G01*
X122909250Y-76816000D02*
X121946750Y-76816000D01*
G75*
G02*
X121678000Y-76547250I0J268750D01*
G01*
X121678000Y-76009750D01*
G75*
G02*
X121946750Y-75741000I268750J0D01*
G01*
X122909250Y-75741000D01*
G75*
G02*
X123178000Y-76009750I0J-268750D01*
G01*
X123178000Y-76547250D01*
G75*
G02*
X122909250Y-76816000I-268750J0D01*
G01*
G37*
G36*
G01*
X122909250Y-78691000D02*
X121946750Y-78691000D01*
G75*
G02*
X121678000Y-78422250I0J268750D01*
G01*
X121678000Y-77884750D01*
G75*
G02*
X121946750Y-77616000I268750J0D01*
G01*
X122909250Y-77616000D01*
G75*
G02*
X123178000Y-77884750I0J-268750D01*
G01*
X123178000Y-78422250D01*
G75*
G02*
X122909250Y-78691000I-268750J0D01*
G01*
G37*
%TD*%
%TO.C,R5*%
G36*
G01*
X125449250Y-76816000D02*
X124486750Y-76816000D01*
G75*
G02*
X124218000Y-76547250I0J268750D01*
G01*
X124218000Y-76009750D01*
G75*
G02*
X124486750Y-75741000I268750J0D01*
G01*
X125449250Y-75741000D01*
G75*
G02*
X125718000Y-76009750I0J-268750D01*
G01*
X125718000Y-76547250D01*
G75*
G02*
X125449250Y-76816000I-268750J0D01*
G01*
G37*
G36*
G01*
X125449250Y-78691000D02*
X124486750Y-78691000D01*
G75*
G02*
X124218000Y-78422250I0J268750D01*
G01*
X124218000Y-77884750D01*
G75*
G02*
X124486750Y-77616000I268750J0D01*
G01*
X125449250Y-77616000D01*
G75*
G02*
X125718000Y-77884750I0J-268750D01*
G01*
X125718000Y-78422250D01*
G75*
G02*
X125449250Y-78691000I-268750J0D01*
G01*
G37*
%TD*%
%TO.C,R4*%
G36*
G01*
X133069250Y-76816000D02*
X132106750Y-76816000D01*
G75*
G02*
X131838000Y-76547250I0J268750D01*
G01*
X131838000Y-76009750D01*
G75*
G02*
X132106750Y-75741000I268750J0D01*
G01*
X133069250Y-75741000D01*
G75*
G02*
X133338000Y-76009750I0J-268750D01*
G01*
X133338000Y-76547250D01*
G75*
G02*
X133069250Y-76816000I-268750J0D01*
G01*
G37*
G36*
G01*
X133069250Y-78691000D02*
X132106750Y-78691000D01*
G75*
G02*
X131838000Y-78422250I0J268750D01*
G01*
X131838000Y-77884750D01*
G75*
G02*
X132106750Y-77616000I268750J0D01*
G01*
X133069250Y-77616000D01*
G75*
G02*
X133338000Y-77884750I0J-268750D01*
G01*
X133338000Y-78422250D01*
G75*
G02*
X133069250Y-78691000I-268750J0D01*
G01*
G37*
%TD*%
%TO.C,R3*%
G36*
G01*
X135609250Y-76816000D02*
X134646750Y-76816000D01*
G75*
G02*
X134378000Y-76547250I0J268750D01*
G01*
X134378000Y-76009750D01*
G75*
G02*
X134646750Y-75741000I268750J0D01*
G01*
X135609250Y-75741000D01*
G75*
G02*
X135878000Y-76009750I0J-268750D01*
G01*
X135878000Y-76547250D01*
G75*
G02*
X135609250Y-76816000I-268750J0D01*
G01*
G37*
G36*
G01*
X135609250Y-78691000D02*
X134646750Y-78691000D01*
G75*
G02*
X134378000Y-78422250I0J268750D01*
G01*
X134378000Y-77884750D01*
G75*
G02*
X134646750Y-77616000I268750J0D01*
G01*
X135609250Y-77616000D01*
G75*
G02*
X135878000Y-77884750I0J-268750D01*
G01*
X135878000Y-78422250D01*
G75*
G02*
X135609250Y-78691000I-268750J0D01*
G01*
G37*
%TD*%
%TO.C,R2*%
G36*
G01*
X127026750Y-77616000D02*
X127989250Y-77616000D01*
G75*
G02*
X128258000Y-77884750I0J-268750D01*
G01*
X128258000Y-78422250D01*
G75*
G02*
X127989250Y-78691000I-268750J0D01*
G01*
X127026750Y-78691000D01*
G75*
G02*
X126758000Y-78422250I0J268750D01*
G01*
X126758000Y-77884750D01*
G75*
G02*
X127026750Y-77616000I268750J0D01*
G01*
G37*
G36*
G01*
X127026750Y-75741000D02*
X127989250Y-75741000D01*
G75*
G02*
X128258000Y-76009750I0J-268750D01*
G01*
X128258000Y-76547250D01*
G75*
G02*
X127989250Y-76816000I-268750J0D01*
G01*
X127026750Y-76816000D01*
G75*
G02*
X126758000Y-76547250I0J268750D01*
G01*
X126758000Y-76009750D01*
G75*
G02*
X127026750Y-75741000I268750J0D01*
G01*
G37*
%TD*%
%TO.C,R1*%
G36*
G01*
X129566750Y-77616000D02*
X130529250Y-77616000D01*
G75*
G02*
X130798000Y-77884750I0J-268750D01*
G01*
X130798000Y-78422250D01*
G75*
G02*
X130529250Y-78691000I-268750J0D01*
G01*
X129566750Y-78691000D01*
G75*
G02*
X129298000Y-78422250I0J268750D01*
G01*
X129298000Y-77884750D01*
G75*
G02*
X129566750Y-77616000I268750J0D01*
G01*
G37*
G36*
G01*
X129566750Y-75741000D02*
X130529250Y-75741000D01*
G75*
G02*
X130798000Y-76009750I0J-268750D01*
G01*
X130798000Y-76547250D01*
G75*
G02*
X130529250Y-76816000I-268750J0D01*
G01*
X129566750Y-76816000D01*
G75*
G02*
X129298000Y-76547250I0J268750D01*
G01*
X129298000Y-76009750D01*
G75*
G02*
X129566750Y-75741000I268750J0D01*
G01*
G37*
%TD*%
%TO.C,C11*%
G36*
G01*
X124568000Y-91466750D02*
X124568000Y-92429250D01*
G75*
G02*
X124299250Y-92698000I-268750J0D01*
G01*
X123761750Y-92698000D01*
G75*
G02*
X123493000Y-92429250I0J268750D01*
G01*
X123493000Y-91466750D01*
G75*
G02*
X123761750Y-91198000I268750J0D01*
G01*
X124299250Y-91198000D01*
G75*
G02*
X124568000Y-91466750I0J-268750D01*
G01*
G37*
G36*
G01*
X126443000Y-91466750D02*
X126443000Y-92429250D01*
G75*
G02*
X126174250Y-92698000I-268750J0D01*
G01*
X125636750Y-92698000D01*
G75*
G02*
X125368000Y-92429250I0J268750D01*
G01*
X125368000Y-91466750D01*
G75*
G02*
X125636750Y-91198000I268750J0D01*
G01*
X126174250Y-91198000D01*
G75*
G02*
X126443000Y-91466750I0J-268750D01*
G01*
G37*
%TD*%
%TO.C,C5*%
G36*
G01*
X123844000Y-74649250D02*
X123844000Y-73686750D01*
G75*
G02*
X124112750Y-73418000I268750J0D01*
G01*
X124650250Y-73418000D01*
G75*
G02*
X124919000Y-73686750I0J-268750D01*
G01*
X124919000Y-74649250D01*
G75*
G02*
X124650250Y-74918000I-268750J0D01*
G01*
X124112750Y-74918000D01*
G75*
G02*
X123844000Y-74649250I0J268750D01*
G01*
G37*
G36*
G01*
X121969000Y-74649250D02*
X121969000Y-73686750D01*
G75*
G02*
X122237750Y-73418000I268750J0D01*
G01*
X122775250Y-73418000D01*
G75*
G02*
X123044000Y-73686750I0J-268750D01*
G01*
X123044000Y-74649250D01*
G75*
G02*
X122775250Y-74918000I-268750J0D01*
G01*
X122237750Y-74918000D01*
G75*
G02*
X121969000Y-74649250I0J268750D01*
G01*
G37*
%TD*%
%TO.C,C4*%
G36*
G01*
X134004000Y-74649250D02*
X134004000Y-73686750D01*
G75*
G02*
X134272750Y-73418000I268750J0D01*
G01*
X134810250Y-73418000D01*
G75*
G02*
X135079000Y-73686750I0J-268750D01*
G01*
X135079000Y-74649250D01*
G75*
G02*
X134810250Y-74918000I-268750J0D01*
G01*
X134272750Y-74918000D01*
G75*
G02*
X134004000Y-74649250I0J268750D01*
G01*
G37*
G36*
G01*
X132129000Y-74649250D02*
X132129000Y-73686750D01*
G75*
G02*
X132397750Y-73418000I268750J0D01*
G01*
X132935250Y-73418000D01*
G75*
G02*
X133204000Y-73686750I0J-268750D01*
G01*
X133204000Y-74649250D01*
G75*
G02*
X132935250Y-74918000I-268750J0D01*
G01*
X132397750Y-74918000D01*
G75*
G02*
X132129000Y-74649250I0J268750D01*
G01*
G37*
%TD*%
%TO.C,C1*%
G36*
G01*
X131545250Y-66656000D02*
X130582750Y-66656000D01*
G75*
G02*
X130314000Y-66387250I0J268750D01*
G01*
X130314000Y-65849750D01*
G75*
G02*
X130582750Y-65581000I268750J0D01*
G01*
X131545250Y-65581000D01*
G75*
G02*
X131814000Y-65849750I0J-268750D01*
G01*
X131814000Y-66387250D01*
G75*
G02*
X131545250Y-66656000I-268750J0D01*
G01*
G37*
G36*
G01*
X131545250Y-68531000D02*
X130582750Y-68531000D01*
G75*
G02*
X130314000Y-68262250I0J268750D01*
G01*
X130314000Y-67724750D01*
G75*
G02*
X130582750Y-67456000I268750J0D01*
G01*
X131545250Y-67456000D01*
G75*
G02*
X131814000Y-67724750I0J-268750D01*
G01*
X131814000Y-68262250D01*
G75*
G02*
X131545250Y-68531000I-268750J0D01*
G01*
G37*
%TD*%
M02*
