%TF.GenerationSoftware,KiCad,Pcbnew,(5.1.6-0)*%
%TF.CreationDate,2023-03-27T21:53:34-07:00*%
%TF.ProjectId,LM3886-bal-no15v-th,4c4d3338-3836-42d6-9261-6c2d6e6f3135,rev?*%
%TF.SameCoordinates,Original*%
%TF.FileFunction,Legend,Top*%
%TF.FilePolarity,Positive*%
%FSLAX46Y46*%
G04 Gerber Fmt 4.6, Leading zero omitted, Abs format (unit mm)*
G04 Created by KiCad (PCBNEW (5.1.6-0)) date 2023-03-27 21:53:34*
%MOMM*%
%LPD*%
G01*
G04 APERTURE LIST*
%ADD10C,0.300000*%
%ADD11C,0.120000*%
%ADD12C,0.500000*%
%ADD13C,0.150000*%
G04 APERTURE END LIST*
D10*
X139458000Y-80390857D02*
X139386571Y-80533714D01*
X139386571Y-80748000D01*
X139458000Y-80962285D01*
X139600857Y-81105142D01*
X139743714Y-81176571D01*
X140029428Y-81248000D01*
X140243714Y-81248000D01*
X140529428Y-81176571D01*
X140672285Y-81105142D01*
X140815142Y-80962285D01*
X140886571Y-80748000D01*
X140886571Y-80605142D01*
X140815142Y-80390857D01*
X140743714Y-80319428D01*
X140243714Y-80319428D01*
X140243714Y-80605142D01*
X140886571Y-79676571D02*
X139386571Y-79676571D01*
X140886571Y-78819428D01*
X139386571Y-78819428D01*
X140886571Y-78105142D02*
X139386571Y-78105142D01*
X139386571Y-77748000D01*
X139458000Y-77533714D01*
X139600857Y-77390857D01*
X139743714Y-77319428D01*
X140029428Y-77248000D01*
X140243714Y-77248000D01*
X140529428Y-77319428D01*
X140672285Y-77390857D01*
X140815142Y-77533714D01*
X140886571Y-77748000D01*
X140886571Y-78105142D01*
X140886571Y-91630285D02*
X139386571Y-91630285D01*
X140886571Y-90916000D02*
X139386571Y-90916000D01*
X140886571Y-90058857D01*
X139386571Y-90058857D01*
X140315142Y-89344571D02*
X140315142Y-88201714D01*
X140886571Y-86550285D02*
X139386571Y-86550285D01*
X140886571Y-85836000D02*
X139386571Y-85836000D01*
X140886571Y-84978857D01*
X139386571Y-84978857D01*
X140315142Y-84264571D02*
X140315142Y-83121714D01*
X140886571Y-83693142D02*
X139743714Y-83693142D01*
X115189142Y-88150000D02*
X115046285Y-88078571D01*
X114832000Y-88078571D01*
X114617714Y-88150000D01*
X114474857Y-88292857D01*
X114403428Y-88435714D01*
X114332000Y-88721428D01*
X114332000Y-88935714D01*
X114403428Y-89221428D01*
X114474857Y-89364285D01*
X114617714Y-89507142D01*
X114832000Y-89578571D01*
X114974857Y-89578571D01*
X115189142Y-89507142D01*
X115260571Y-89435714D01*
X115260571Y-88935714D01*
X114974857Y-88935714D01*
X115903428Y-89578571D02*
X115903428Y-88078571D01*
X116760571Y-89578571D01*
X116760571Y-88078571D01*
X117474857Y-89578571D02*
X117474857Y-88078571D01*
X117832000Y-88078571D01*
X118046285Y-88150000D01*
X118189142Y-88292857D01*
X118260571Y-88435714D01*
X118332000Y-88721428D01*
X118332000Y-88935714D01*
X118260571Y-89221428D01*
X118189142Y-89364285D01*
X118046285Y-89507142D01*
X117832000Y-89578571D01*
X117474857Y-89578571D01*
X105854857Y-89507142D02*
X106069142Y-89578571D01*
X106426285Y-89578571D01*
X106569142Y-89507142D01*
X106640571Y-89435714D01*
X106712000Y-89292857D01*
X106712000Y-89150000D01*
X106640571Y-89007142D01*
X106569142Y-88935714D01*
X106426285Y-88864285D01*
X106140571Y-88792857D01*
X105997714Y-88721428D01*
X105926285Y-88650000D01*
X105854857Y-88507142D01*
X105854857Y-88364285D01*
X105926285Y-88221428D01*
X105997714Y-88150000D01*
X106140571Y-88078571D01*
X106497714Y-88078571D01*
X106712000Y-88150000D01*
X107354857Y-89578571D02*
X107354857Y-88078571D01*
X107926285Y-88078571D01*
X108069142Y-88150000D01*
X108140571Y-88221428D01*
X108212000Y-88364285D01*
X108212000Y-88578571D01*
X108140571Y-88721428D01*
X108069142Y-88792857D01*
X107926285Y-88864285D01*
X107354857Y-88864285D01*
X108854857Y-89578571D02*
X108854857Y-88078571D01*
X109712000Y-89578571D02*
X109069142Y-88721428D01*
X109712000Y-88078571D02*
X108854857Y-88935714D01*
X110354857Y-89007142D02*
X111497714Y-89007142D01*
X110926285Y-89578571D02*
X110926285Y-88435714D01*
X74410000Y-88265142D02*
X74481428Y-88122285D01*
X74481428Y-87908000D01*
X74410000Y-87693714D01*
X74267142Y-87550857D01*
X74124285Y-87479428D01*
X73838571Y-87408000D01*
X73624285Y-87408000D01*
X73338571Y-87479428D01*
X73195714Y-87550857D01*
X73052857Y-87693714D01*
X72981428Y-87908000D01*
X72981428Y-88050857D01*
X73052857Y-88265142D01*
X73124285Y-88336571D01*
X73624285Y-88336571D01*
X73624285Y-88050857D01*
X72981428Y-88979428D02*
X74481428Y-88979428D01*
X72981428Y-89836571D01*
X74481428Y-89836571D01*
X72981428Y-90550857D02*
X74481428Y-90550857D01*
X74481428Y-90908000D01*
X74410000Y-91122285D01*
X74267142Y-91265142D01*
X74124285Y-91336571D01*
X73838571Y-91408000D01*
X73624285Y-91408000D01*
X73338571Y-91336571D01*
X73195714Y-91265142D01*
X73052857Y-91122285D01*
X72981428Y-90908000D01*
X72981428Y-90550857D01*
X74481428Y-76803428D02*
X72981428Y-77303428D01*
X74481428Y-77803428D01*
X73552857Y-78303428D02*
X73552857Y-79446285D01*
X74481428Y-81883428D02*
X72981428Y-82383428D01*
X74481428Y-82883428D01*
X73552857Y-83383428D02*
X73552857Y-84526285D01*
X72981428Y-83954857D02*
X74124285Y-83954857D01*
D11*
%TO.C,C10*%
X89464000Y-64742000D02*
G75*
G03*
X89464000Y-64742000I-4120000J0D01*
G01*
X89424000Y-64742000D02*
X81264000Y-64742000D01*
X89424000Y-64782000D02*
X81264000Y-64782000D01*
X89424000Y-64822000D02*
X81264000Y-64822000D01*
X89423000Y-64862000D02*
X81265000Y-64862000D01*
X89421000Y-64902000D02*
X81267000Y-64902000D01*
X89420000Y-64942000D02*
X81268000Y-64942000D01*
X89418000Y-64982000D02*
X81270000Y-64982000D01*
X89415000Y-65022000D02*
X81273000Y-65022000D01*
X89412000Y-65062000D02*
X81276000Y-65062000D01*
X89409000Y-65102000D02*
X81279000Y-65102000D01*
X89405000Y-65142000D02*
X81283000Y-65142000D01*
X89401000Y-65182000D02*
X81287000Y-65182000D01*
X89396000Y-65222000D02*
X81292000Y-65222000D01*
X89392000Y-65262000D02*
X81296000Y-65262000D01*
X89386000Y-65302000D02*
X81302000Y-65302000D01*
X89381000Y-65342000D02*
X81307000Y-65342000D01*
X89374000Y-65382000D02*
X81314000Y-65382000D01*
X89368000Y-65422000D02*
X81320000Y-65422000D01*
X89361000Y-65463000D02*
X86384000Y-65463000D01*
X84304000Y-65463000D02*
X81327000Y-65463000D01*
X89354000Y-65503000D02*
X86384000Y-65503000D01*
X84304000Y-65503000D02*
X81334000Y-65503000D01*
X89346000Y-65543000D02*
X86384000Y-65543000D01*
X84304000Y-65543000D02*
X81342000Y-65543000D01*
X89338000Y-65583000D02*
X86384000Y-65583000D01*
X84304000Y-65583000D02*
X81350000Y-65583000D01*
X89329000Y-65623000D02*
X86384000Y-65623000D01*
X84304000Y-65623000D02*
X81359000Y-65623000D01*
X89320000Y-65663000D02*
X86384000Y-65663000D01*
X84304000Y-65663000D02*
X81368000Y-65663000D01*
X89311000Y-65703000D02*
X86384000Y-65703000D01*
X84304000Y-65703000D02*
X81377000Y-65703000D01*
X89301000Y-65743000D02*
X86384000Y-65743000D01*
X84304000Y-65743000D02*
X81387000Y-65743000D01*
X89291000Y-65783000D02*
X86384000Y-65783000D01*
X84304000Y-65783000D02*
X81397000Y-65783000D01*
X89280000Y-65823000D02*
X86384000Y-65823000D01*
X84304000Y-65823000D02*
X81408000Y-65823000D01*
X89269000Y-65863000D02*
X86384000Y-65863000D01*
X84304000Y-65863000D02*
X81419000Y-65863000D01*
X89258000Y-65903000D02*
X86384000Y-65903000D01*
X84304000Y-65903000D02*
X81430000Y-65903000D01*
X89246000Y-65943000D02*
X86384000Y-65943000D01*
X84304000Y-65943000D02*
X81442000Y-65943000D01*
X89233000Y-65983000D02*
X86384000Y-65983000D01*
X84304000Y-65983000D02*
X81455000Y-65983000D01*
X89221000Y-66023000D02*
X86384000Y-66023000D01*
X84304000Y-66023000D02*
X81467000Y-66023000D01*
X89207000Y-66063000D02*
X86384000Y-66063000D01*
X84304000Y-66063000D02*
X81481000Y-66063000D01*
X89194000Y-66103000D02*
X86384000Y-66103000D01*
X84304000Y-66103000D02*
X81494000Y-66103000D01*
X89179000Y-66143000D02*
X86384000Y-66143000D01*
X84304000Y-66143000D02*
X81509000Y-66143000D01*
X89165000Y-66183000D02*
X86384000Y-66183000D01*
X84304000Y-66183000D02*
X81523000Y-66183000D01*
X89149000Y-66223000D02*
X86384000Y-66223000D01*
X84304000Y-66223000D02*
X81539000Y-66223000D01*
X89134000Y-66263000D02*
X86384000Y-66263000D01*
X84304000Y-66263000D02*
X81554000Y-66263000D01*
X89118000Y-66303000D02*
X86384000Y-66303000D01*
X84304000Y-66303000D02*
X81570000Y-66303000D01*
X89101000Y-66343000D02*
X86384000Y-66343000D01*
X84304000Y-66343000D02*
X81587000Y-66343000D01*
X89084000Y-66383000D02*
X86384000Y-66383000D01*
X84304000Y-66383000D02*
X81604000Y-66383000D01*
X89066000Y-66423000D02*
X86384000Y-66423000D01*
X84304000Y-66423000D02*
X81622000Y-66423000D01*
X89048000Y-66463000D02*
X86384000Y-66463000D01*
X84304000Y-66463000D02*
X81640000Y-66463000D01*
X89030000Y-66503000D02*
X86384000Y-66503000D01*
X84304000Y-66503000D02*
X81658000Y-66503000D01*
X89010000Y-66543000D02*
X86384000Y-66543000D01*
X84304000Y-66543000D02*
X81678000Y-66543000D01*
X88991000Y-66583000D02*
X86384000Y-66583000D01*
X84304000Y-66583000D02*
X81697000Y-66583000D01*
X88971000Y-66623000D02*
X86384000Y-66623000D01*
X84304000Y-66623000D02*
X81717000Y-66623000D01*
X88950000Y-66663000D02*
X86384000Y-66663000D01*
X84304000Y-66663000D02*
X81738000Y-66663000D01*
X88928000Y-66703000D02*
X86384000Y-66703000D01*
X84304000Y-66703000D02*
X81760000Y-66703000D01*
X88906000Y-66743000D02*
X86384000Y-66743000D01*
X84304000Y-66743000D02*
X81782000Y-66743000D01*
X88884000Y-66783000D02*
X86384000Y-66783000D01*
X84304000Y-66783000D02*
X81804000Y-66783000D01*
X88861000Y-66823000D02*
X86384000Y-66823000D01*
X84304000Y-66823000D02*
X81827000Y-66823000D01*
X88837000Y-66863000D02*
X86384000Y-66863000D01*
X84304000Y-66863000D02*
X81851000Y-66863000D01*
X88813000Y-66903000D02*
X86384000Y-66903000D01*
X84304000Y-66903000D02*
X81875000Y-66903000D01*
X88788000Y-66943000D02*
X86384000Y-66943000D01*
X84304000Y-66943000D02*
X81900000Y-66943000D01*
X88762000Y-66983000D02*
X86384000Y-66983000D01*
X84304000Y-66983000D02*
X81926000Y-66983000D01*
X88736000Y-67023000D02*
X86384000Y-67023000D01*
X84304000Y-67023000D02*
X81952000Y-67023000D01*
X88709000Y-67063000D02*
X86384000Y-67063000D01*
X84304000Y-67063000D02*
X81979000Y-67063000D01*
X88682000Y-67103000D02*
X86384000Y-67103000D01*
X84304000Y-67103000D02*
X82006000Y-67103000D01*
X88653000Y-67143000D02*
X86384000Y-67143000D01*
X84304000Y-67143000D02*
X82035000Y-67143000D01*
X88624000Y-67183000D02*
X86384000Y-67183000D01*
X84304000Y-67183000D02*
X82064000Y-67183000D01*
X88594000Y-67223000D02*
X86384000Y-67223000D01*
X84304000Y-67223000D02*
X82094000Y-67223000D01*
X88564000Y-67263000D02*
X86384000Y-67263000D01*
X84304000Y-67263000D02*
X82124000Y-67263000D01*
X88533000Y-67303000D02*
X86384000Y-67303000D01*
X84304000Y-67303000D02*
X82155000Y-67303000D01*
X88500000Y-67343000D02*
X86384000Y-67343000D01*
X84304000Y-67343000D02*
X82188000Y-67343000D01*
X88468000Y-67383000D02*
X86384000Y-67383000D01*
X84304000Y-67383000D02*
X82220000Y-67383000D01*
X88434000Y-67423000D02*
X86384000Y-67423000D01*
X84304000Y-67423000D02*
X82254000Y-67423000D01*
X88399000Y-67463000D02*
X86384000Y-67463000D01*
X84304000Y-67463000D02*
X82289000Y-67463000D01*
X88363000Y-67503000D02*
X86384000Y-67503000D01*
X84304000Y-67503000D02*
X82325000Y-67503000D01*
X88327000Y-67543000D02*
X82361000Y-67543000D01*
X88289000Y-67583000D02*
X82399000Y-67583000D01*
X88251000Y-67623000D02*
X82437000Y-67623000D01*
X88211000Y-67663000D02*
X82477000Y-67663000D01*
X88170000Y-67703000D02*
X82518000Y-67703000D01*
X88128000Y-67743000D02*
X82560000Y-67743000D01*
X88085000Y-67783000D02*
X82603000Y-67783000D01*
X88041000Y-67823000D02*
X82647000Y-67823000D01*
X87995000Y-67863000D02*
X82693000Y-67863000D01*
X87948000Y-67903000D02*
X82740000Y-67903000D01*
X87900000Y-67943000D02*
X82788000Y-67943000D01*
X87849000Y-67983000D02*
X82839000Y-67983000D01*
X87798000Y-68023000D02*
X82890000Y-68023000D01*
X87744000Y-68063000D02*
X82944000Y-68063000D01*
X87689000Y-68103000D02*
X82999000Y-68103000D01*
X87631000Y-68143000D02*
X83057000Y-68143000D01*
X87572000Y-68183000D02*
X83116000Y-68183000D01*
X87510000Y-68223000D02*
X83178000Y-68223000D01*
X87446000Y-68263000D02*
X83242000Y-68263000D01*
X87378000Y-68303000D02*
X83310000Y-68303000D01*
X87308000Y-68343000D02*
X83380000Y-68343000D01*
X87234000Y-68383000D02*
X83454000Y-68383000D01*
X87157000Y-68423000D02*
X83531000Y-68423000D01*
X87075000Y-68463000D02*
X83613000Y-68463000D01*
X86989000Y-68503000D02*
X83699000Y-68503000D01*
X86896000Y-68543000D02*
X83792000Y-68543000D01*
X86797000Y-68583000D02*
X83891000Y-68583000D01*
X86690000Y-68623000D02*
X83998000Y-68623000D01*
X86573000Y-68663000D02*
X84115000Y-68663000D01*
X86442000Y-68703000D02*
X84246000Y-68703000D01*
X86292000Y-68743000D02*
X84396000Y-68743000D01*
X86112000Y-68783000D02*
X84576000Y-68783000D01*
X85877000Y-68823000D02*
X84811000Y-68823000D01*
X87659000Y-60332302D02*
X87659000Y-61132302D01*
X88059000Y-60732302D02*
X87259000Y-60732302D01*
%TO.C,C7*%
X104870000Y-64790000D02*
G75*
G03*
X104870000Y-64790000I-3270000J0D01*
G01*
X98370000Y-64790000D02*
X104830000Y-64790000D01*
X98370000Y-64750000D02*
X104830000Y-64750000D01*
X98370000Y-64710000D02*
X104830000Y-64710000D01*
X98372000Y-64670000D02*
X104828000Y-64670000D01*
X98373000Y-64630000D02*
X104827000Y-64630000D01*
X98376000Y-64590000D02*
X104824000Y-64590000D01*
X98378000Y-64550000D02*
X100560000Y-64550000D01*
X102640000Y-64550000D02*
X104822000Y-64550000D01*
X98382000Y-64510000D02*
X100560000Y-64510000D01*
X102640000Y-64510000D02*
X104818000Y-64510000D01*
X98385000Y-64470000D02*
X100560000Y-64470000D01*
X102640000Y-64470000D02*
X104815000Y-64470000D01*
X98389000Y-64430000D02*
X100560000Y-64430000D01*
X102640000Y-64430000D02*
X104811000Y-64430000D01*
X98394000Y-64390000D02*
X100560000Y-64390000D01*
X102640000Y-64390000D02*
X104806000Y-64390000D01*
X98399000Y-64350000D02*
X100560000Y-64350000D01*
X102640000Y-64350000D02*
X104801000Y-64350000D01*
X98405000Y-64310000D02*
X100560000Y-64310000D01*
X102640000Y-64310000D02*
X104795000Y-64310000D01*
X98411000Y-64270000D02*
X100560000Y-64270000D01*
X102640000Y-64270000D02*
X104789000Y-64270000D01*
X98418000Y-64230000D02*
X100560000Y-64230000D01*
X102640000Y-64230000D02*
X104782000Y-64230000D01*
X98425000Y-64190000D02*
X100560000Y-64190000D01*
X102640000Y-64190000D02*
X104775000Y-64190000D01*
X98433000Y-64150000D02*
X100560000Y-64150000D01*
X102640000Y-64150000D02*
X104767000Y-64150000D01*
X98441000Y-64110000D02*
X100560000Y-64110000D01*
X102640000Y-64110000D02*
X104759000Y-64110000D01*
X98450000Y-64069000D02*
X100560000Y-64069000D01*
X102640000Y-64069000D02*
X104750000Y-64069000D01*
X98459000Y-64029000D02*
X100560000Y-64029000D01*
X102640000Y-64029000D02*
X104741000Y-64029000D01*
X98469000Y-63989000D02*
X100560000Y-63989000D01*
X102640000Y-63989000D02*
X104731000Y-63989000D01*
X98479000Y-63949000D02*
X100560000Y-63949000D01*
X102640000Y-63949000D02*
X104721000Y-63949000D01*
X98490000Y-63909000D02*
X100560000Y-63909000D01*
X102640000Y-63909000D02*
X104710000Y-63909000D01*
X98502000Y-63869000D02*
X100560000Y-63869000D01*
X102640000Y-63869000D02*
X104698000Y-63869000D01*
X98514000Y-63829000D02*
X100560000Y-63829000D01*
X102640000Y-63829000D02*
X104686000Y-63829000D01*
X98526000Y-63789000D02*
X100560000Y-63789000D01*
X102640000Y-63789000D02*
X104674000Y-63789000D01*
X98539000Y-63749000D02*
X100560000Y-63749000D01*
X102640000Y-63749000D02*
X104661000Y-63749000D01*
X98553000Y-63709000D02*
X100560000Y-63709000D01*
X102640000Y-63709000D02*
X104647000Y-63709000D01*
X98567000Y-63669000D02*
X100560000Y-63669000D01*
X102640000Y-63669000D02*
X104633000Y-63669000D01*
X98582000Y-63629000D02*
X100560000Y-63629000D01*
X102640000Y-63629000D02*
X104618000Y-63629000D01*
X98598000Y-63589000D02*
X100560000Y-63589000D01*
X102640000Y-63589000D02*
X104602000Y-63589000D01*
X98614000Y-63549000D02*
X100560000Y-63549000D01*
X102640000Y-63549000D02*
X104586000Y-63549000D01*
X98630000Y-63509000D02*
X100560000Y-63509000D01*
X102640000Y-63509000D02*
X104570000Y-63509000D01*
X98648000Y-63469000D02*
X100560000Y-63469000D01*
X102640000Y-63469000D02*
X104552000Y-63469000D01*
X98666000Y-63429000D02*
X100560000Y-63429000D01*
X102640000Y-63429000D02*
X104534000Y-63429000D01*
X98684000Y-63389000D02*
X100560000Y-63389000D01*
X102640000Y-63389000D02*
X104516000Y-63389000D01*
X98704000Y-63349000D02*
X100560000Y-63349000D01*
X102640000Y-63349000D02*
X104496000Y-63349000D01*
X98724000Y-63309000D02*
X100560000Y-63309000D01*
X102640000Y-63309000D02*
X104476000Y-63309000D01*
X98744000Y-63269000D02*
X100560000Y-63269000D01*
X102640000Y-63269000D02*
X104456000Y-63269000D01*
X98766000Y-63229000D02*
X100560000Y-63229000D01*
X102640000Y-63229000D02*
X104434000Y-63229000D01*
X98788000Y-63189000D02*
X100560000Y-63189000D01*
X102640000Y-63189000D02*
X104412000Y-63189000D01*
X98810000Y-63149000D02*
X100560000Y-63149000D01*
X102640000Y-63149000D02*
X104390000Y-63149000D01*
X98834000Y-63109000D02*
X100560000Y-63109000D01*
X102640000Y-63109000D02*
X104366000Y-63109000D01*
X98858000Y-63069000D02*
X100560000Y-63069000D01*
X102640000Y-63069000D02*
X104342000Y-63069000D01*
X98884000Y-63029000D02*
X100560000Y-63029000D01*
X102640000Y-63029000D02*
X104316000Y-63029000D01*
X98910000Y-62989000D02*
X100560000Y-62989000D01*
X102640000Y-62989000D02*
X104290000Y-62989000D01*
X98936000Y-62949000D02*
X100560000Y-62949000D01*
X102640000Y-62949000D02*
X104264000Y-62949000D01*
X98964000Y-62909000D02*
X100560000Y-62909000D01*
X102640000Y-62909000D02*
X104236000Y-62909000D01*
X98993000Y-62869000D02*
X100560000Y-62869000D01*
X102640000Y-62869000D02*
X104207000Y-62869000D01*
X99022000Y-62829000D02*
X100560000Y-62829000D01*
X102640000Y-62829000D02*
X104178000Y-62829000D01*
X99052000Y-62789000D02*
X100560000Y-62789000D01*
X102640000Y-62789000D02*
X104148000Y-62789000D01*
X99084000Y-62749000D02*
X100560000Y-62749000D01*
X102640000Y-62749000D02*
X104116000Y-62749000D01*
X99116000Y-62709000D02*
X100560000Y-62709000D01*
X102640000Y-62709000D02*
X104084000Y-62709000D01*
X99150000Y-62669000D02*
X100560000Y-62669000D01*
X102640000Y-62669000D02*
X104050000Y-62669000D01*
X99184000Y-62629000D02*
X100560000Y-62629000D01*
X102640000Y-62629000D02*
X104016000Y-62629000D01*
X99220000Y-62589000D02*
X100560000Y-62589000D01*
X102640000Y-62589000D02*
X103980000Y-62589000D01*
X99257000Y-62549000D02*
X100560000Y-62549000D01*
X102640000Y-62549000D02*
X103943000Y-62549000D01*
X99295000Y-62509000D02*
X100560000Y-62509000D01*
X102640000Y-62509000D02*
X103905000Y-62509000D01*
X99335000Y-62469000D02*
X103865000Y-62469000D01*
X99376000Y-62429000D02*
X103824000Y-62429000D01*
X99418000Y-62389000D02*
X103782000Y-62389000D01*
X99463000Y-62349000D02*
X103737000Y-62349000D01*
X99508000Y-62309000D02*
X103692000Y-62309000D01*
X99556000Y-62269000D02*
X103644000Y-62269000D01*
X99605000Y-62229000D02*
X103595000Y-62229000D01*
X99656000Y-62189000D02*
X103544000Y-62189000D01*
X99710000Y-62149000D02*
X103490000Y-62149000D01*
X99766000Y-62109000D02*
X103434000Y-62109000D01*
X99824000Y-62069000D02*
X103376000Y-62069000D01*
X99886000Y-62029000D02*
X103314000Y-62029000D01*
X99950000Y-61989000D02*
X103250000Y-61989000D01*
X100019000Y-61949000D02*
X103181000Y-61949000D01*
X100091000Y-61909000D02*
X103109000Y-61909000D01*
X100168000Y-61869000D02*
X103032000Y-61869000D01*
X100250000Y-61829000D02*
X102950000Y-61829000D01*
X100338000Y-61789000D02*
X102862000Y-61789000D01*
X100435000Y-61749000D02*
X102765000Y-61749000D01*
X100541000Y-61709000D02*
X102659000Y-61709000D01*
X100660000Y-61669000D02*
X102540000Y-61669000D01*
X100798000Y-61629000D02*
X102402000Y-61629000D01*
X100967000Y-61589000D02*
X102233000Y-61589000D01*
X101198000Y-61549000D02*
X102002000Y-61549000D01*
X99761000Y-68290241D02*
X99761000Y-67660241D01*
X99446000Y-67975241D02*
X100076000Y-67975241D01*
%TO.C,C6*%
X108192000Y-79756000D02*
G75*
G03*
X108192000Y-79756000I-3270000J0D01*
G01*
X104922000Y-82986000D02*
X104922000Y-76526000D01*
X104882000Y-82986000D02*
X104882000Y-76526000D01*
X104842000Y-82986000D02*
X104842000Y-76526000D01*
X104802000Y-82984000D02*
X104802000Y-76528000D01*
X104762000Y-82983000D02*
X104762000Y-76529000D01*
X104722000Y-82980000D02*
X104722000Y-76532000D01*
X104682000Y-82978000D02*
X104682000Y-80796000D01*
X104682000Y-78716000D02*
X104682000Y-76534000D01*
X104642000Y-82974000D02*
X104642000Y-80796000D01*
X104642000Y-78716000D02*
X104642000Y-76538000D01*
X104602000Y-82971000D02*
X104602000Y-80796000D01*
X104602000Y-78716000D02*
X104602000Y-76541000D01*
X104562000Y-82967000D02*
X104562000Y-80796000D01*
X104562000Y-78716000D02*
X104562000Y-76545000D01*
X104522000Y-82962000D02*
X104522000Y-80796000D01*
X104522000Y-78716000D02*
X104522000Y-76550000D01*
X104482000Y-82957000D02*
X104482000Y-80796000D01*
X104482000Y-78716000D02*
X104482000Y-76555000D01*
X104442000Y-82951000D02*
X104442000Y-80796000D01*
X104442000Y-78716000D02*
X104442000Y-76561000D01*
X104402000Y-82945000D02*
X104402000Y-80796000D01*
X104402000Y-78716000D02*
X104402000Y-76567000D01*
X104362000Y-82938000D02*
X104362000Y-80796000D01*
X104362000Y-78716000D02*
X104362000Y-76574000D01*
X104322000Y-82931000D02*
X104322000Y-80796000D01*
X104322000Y-78716000D02*
X104322000Y-76581000D01*
X104282000Y-82923000D02*
X104282000Y-80796000D01*
X104282000Y-78716000D02*
X104282000Y-76589000D01*
X104242000Y-82915000D02*
X104242000Y-80796000D01*
X104242000Y-78716000D02*
X104242000Y-76597000D01*
X104201000Y-82906000D02*
X104201000Y-80796000D01*
X104201000Y-78716000D02*
X104201000Y-76606000D01*
X104161000Y-82897000D02*
X104161000Y-80796000D01*
X104161000Y-78716000D02*
X104161000Y-76615000D01*
X104121000Y-82887000D02*
X104121000Y-80796000D01*
X104121000Y-78716000D02*
X104121000Y-76625000D01*
X104081000Y-82877000D02*
X104081000Y-80796000D01*
X104081000Y-78716000D02*
X104081000Y-76635000D01*
X104041000Y-82866000D02*
X104041000Y-80796000D01*
X104041000Y-78716000D02*
X104041000Y-76646000D01*
X104001000Y-82854000D02*
X104001000Y-80796000D01*
X104001000Y-78716000D02*
X104001000Y-76658000D01*
X103961000Y-82842000D02*
X103961000Y-80796000D01*
X103961000Y-78716000D02*
X103961000Y-76670000D01*
X103921000Y-82830000D02*
X103921000Y-80796000D01*
X103921000Y-78716000D02*
X103921000Y-76682000D01*
X103881000Y-82817000D02*
X103881000Y-80796000D01*
X103881000Y-78716000D02*
X103881000Y-76695000D01*
X103841000Y-82803000D02*
X103841000Y-80796000D01*
X103841000Y-78716000D02*
X103841000Y-76709000D01*
X103801000Y-82789000D02*
X103801000Y-80796000D01*
X103801000Y-78716000D02*
X103801000Y-76723000D01*
X103761000Y-82774000D02*
X103761000Y-80796000D01*
X103761000Y-78716000D02*
X103761000Y-76738000D01*
X103721000Y-82758000D02*
X103721000Y-80796000D01*
X103721000Y-78716000D02*
X103721000Y-76754000D01*
X103681000Y-82742000D02*
X103681000Y-80796000D01*
X103681000Y-78716000D02*
X103681000Y-76770000D01*
X103641000Y-82726000D02*
X103641000Y-80796000D01*
X103641000Y-78716000D02*
X103641000Y-76786000D01*
X103601000Y-82708000D02*
X103601000Y-80796000D01*
X103601000Y-78716000D02*
X103601000Y-76804000D01*
X103561000Y-82690000D02*
X103561000Y-80796000D01*
X103561000Y-78716000D02*
X103561000Y-76822000D01*
X103521000Y-82672000D02*
X103521000Y-80796000D01*
X103521000Y-78716000D02*
X103521000Y-76840000D01*
X103481000Y-82652000D02*
X103481000Y-80796000D01*
X103481000Y-78716000D02*
X103481000Y-76860000D01*
X103441000Y-82632000D02*
X103441000Y-80796000D01*
X103441000Y-78716000D02*
X103441000Y-76880000D01*
X103401000Y-82612000D02*
X103401000Y-80796000D01*
X103401000Y-78716000D02*
X103401000Y-76900000D01*
X103361000Y-82590000D02*
X103361000Y-80796000D01*
X103361000Y-78716000D02*
X103361000Y-76922000D01*
X103321000Y-82568000D02*
X103321000Y-80796000D01*
X103321000Y-78716000D02*
X103321000Y-76944000D01*
X103281000Y-82546000D02*
X103281000Y-80796000D01*
X103281000Y-78716000D02*
X103281000Y-76966000D01*
X103241000Y-82522000D02*
X103241000Y-80796000D01*
X103241000Y-78716000D02*
X103241000Y-76990000D01*
X103201000Y-82498000D02*
X103201000Y-80796000D01*
X103201000Y-78716000D02*
X103201000Y-77014000D01*
X103161000Y-82472000D02*
X103161000Y-80796000D01*
X103161000Y-78716000D02*
X103161000Y-77040000D01*
X103121000Y-82446000D02*
X103121000Y-80796000D01*
X103121000Y-78716000D02*
X103121000Y-77066000D01*
X103081000Y-82420000D02*
X103081000Y-80796000D01*
X103081000Y-78716000D02*
X103081000Y-77092000D01*
X103041000Y-82392000D02*
X103041000Y-80796000D01*
X103041000Y-78716000D02*
X103041000Y-77120000D01*
X103001000Y-82363000D02*
X103001000Y-80796000D01*
X103001000Y-78716000D02*
X103001000Y-77149000D01*
X102961000Y-82334000D02*
X102961000Y-80796000D01*
X102961000Y-78716000D02*
X102961000Y-77178000D01*
X102921000Y-82304000D02*
X102921000Y-80796000D01*
X102921000Y-78716000D02*
X102921000Y-77208000D01*
X102881000Y-82272000D02*
X102881000Y-80796000D01*
X102881000Y-78716000D02*
X102881000Y-77240000D01*
X102841000Y-82240000D02*
X102841000Y-80796000D01*
X102841000Y-78716000D02*
X102841000Y-77272000D01*
X102801000Y-82206000D02*
X102801000Y-80796000D01*
X102801000Y-78716000D02*
X102801000Y-77306000D01*
X102761000Y-82172000D02*
X102761000Y-80796000D01*
X102761000Y-78716000D02*
X102761000Y-77340000D01*
X102721000Y-82136000D02*
X102721000Y-80796000D01*
X102721000Y-78716000D02*
X102721000Y-77376000D01*
X102681000Y-82099000D02*
X102681000Y-80796000D01*
X102681000Y-78716000D02*
X102681000Y-77413000D01*
X102641000Y-82061000D02*
X102641000Y-80796000D01*
X102641000Y-78716000D02*
X102641000Y-77451000D01*
X102601000Y-82021000D02*
X102601000Y-77491000D01*
X102561000Y-81980000D02*
X102561000Y-77532000D01*
X102521000Y-81938000D02*
X102521000Y-77574000D01*
X102481000Y-81893000D02*
X102481000Y-77619000D01*
X102441000Y-81848000D02*
X102441000Y-77664000D01*
X102401000Y-81800000D02*
X102401000Y-77712000D01*
X102361000Y-81751000D02*
X102361000Y-77761000D01*
X102321000Y-81700000D02*
X102321000Y-77812000D01*
X102281000Y-81646000D02*
X102281000Y-77866000D01*
X102241000Y-81590000D02*
X102241000Y-77922000D01*
X102201000Y-81532000D02*
X102201000Y-77980000D01*
X102161000Y-81470000D02*
X102161000Y-78042000D01*
X102121000Y-81406000D02*
X102121000Y-78106000D01*
X102081000Y-81337000D02*
X102081000Y-78175000D01*
X102041000Y-81265000D02*
X102041000Y-78247000D01*
X102001000Y-81188000D02*
X102001000Y-78324000D01*
X101961000Y-81106000D02*
X101961000Y-78406000D01*
X101921000Y-81018000D02*
X101921000Y-78494000D01*
X101881000Y-80921000D02*
X101881000Y-78591000D01*
X101841000Y-80815000D02*
X101841000Y-78697000D01*
X101801000Y-80696000D02*
X101801000Y-78816000D01*
X101761000Y-80558000D02*
X101761000Y-78954000D01*
X101721000Y-80389000D02*
X101721000Y-79123000D01*
X101681000Y-80158000D02*
X101681000Y-79354000D01*
X108422241Y-81595000D02*
X107792241Y-81595000D01*
X108107241Y-81910000D02*
X108107241Y-81280000D01*
%TO.C,C3*%
X102414000Y-74168000D02*
G75*
G03*
X102414000Y-74168000I-8120000J0D01*
G01*
X94294000Y-82249000D02*
X94294000Y-66087000D01*
X94254000Y-82248000D02*
X94254000Y-66088000D01*
X94214000Y-82248000D02*
X94214000Y-66088000D01*
X94174000Y-82248000D02*
X94174000Y-66088000D01*
X94134000Y-82247000D02*
X94134000Y-66089000D01*
X94094000Y-82246000D02*
X94094000Y-66090000D01*
X94054000Y-82245000D02*
X94054000Y-66091000D01*
X94014000Y-82244000D02*
X94014000Y-66092000D01*
X93974000Y-82242000D02*
X93974000Y-66094000D01*
X93934000Y-82241000D02*
X93934000Y-66095000D01*
X93894000Y-82239000D02*
X93894000Y-66097000D01*
X93854000Y-82237000D02*
X93854000Y-66099000D01*
X93814000Y-82234000D02*
X93814000Y-66102000D01*
X93774000Y-82232000D02*
X93774000Y-66104000D01*
X93734000Y-82229000D02*
X93734000Y-66107000D01*
X93694000Y-82226000D02*
X93694000Y-66110000D01*
X93654000Y-82223000D02*
X93654000Y-66113000D01*
X93614000Y-82220000D02*
X93614000Y-66116000D01*
X93573000Y-82217000D02*
X93573000Y-66119000D01*
X93533000Y-82213000D02*
X93533000Y-66123000D01*
X93493000Y-82209000D02*
X93493000Y-66127000D01*
X93453000Y-82205000D02*
X93453000Y-66131000D01*
X93413000Y-82201000D02*
X93413000Y-66135000D01*
X93373000Y-82196000D02*
X93373000Y-66140000D01*
X93333000Y-82192000D02*
X93333000Y-66144000D01*
X93293000Y-82187000D02*
X93293000Y-66149000D01*
X93253000Y-82182000D02*
X93253000Y-66154000D01*
X93213000Y-82176000D02*
X93213000Y-66160000D01*
X93173000Y-82171000D02*
X93173000Y-66165000D01*
X93133000Y-82165000D02*
X93133000Y-66171000D01*
X93093000Y-82159000D02*
X93093000Y-66177000D01*
X93053000Y-82153000D02*
X93053000Y-66183000D01*
X93013000Y-82147000D02*
X93013000Y-66189000D01*
X92973000Y-82140000D02*
X92973000Y-66196000D01*
X92933000Y-82134000D02*
X92933000Y-66202000D01*
X92893000Y-82127000D02*
X92893000Y-66209000D01*
X92853000Y-82120000D02*
X92853000Y-66216000D01*
X92813000Y-82112000D02*
X92813000Y-66224000D01*
X92773000Y-82105000D02*
X92773000Y-66231000D01*
X92733000Y-82097000D02*
X92733000Y-66239000D01*
X92693000Y-82089000D02*
X92693000Y-66247000D01*
X92653000Y-82081000D02*
X92653000Y-66255000D01*
X92613000Y-82073000D02*
X92613000Y-66263000D01*
X92573000Y-82064000D02*
X92573000Y-66272000D01*
X92533000Y-82055000D02*
X92533000Y-66281000D01*
X92493000Y-82046000D02*
X92493000Y-66290000D01*
X92453000Y-82037000D02*
X92453000Y-66299000D01*
X92413000Y-82028000D02*
X92413000Y-66308000D01*
X92373000Y-82018000D02*
X92373000Y-66318000D01*
X92333000Y-82008000D02*
X92333000Y-66328000D01*
X92293000Y-81998000D02*
X92293000Y-66338000D01*
X92253000Y-81988000D02*
X92253000Y-66348000D01*
X92213000Y-81978000D02*
X92213000Y-66358000D01*
X92173000Y-81967000D02*
X92173000Y-66369000D01*
X92133000Y-81956000D02*
X92133000Y-66380000D01*
X92093000Y-81945000D02*
X92093000Y-66391000D01*
X92053000Y-81933000D02*
X92053000Y-66403000D01*
X92013000Y-81922000D02*
X92013000Y-66414000D01*
X91973000Y-81910000D02*
X91973000Y-75608000D01*
X91973000Y-72728000D02*
X91973000Y-66426000D01*
X91933000Y-81898000D02*
X91933000Y-75608000D01*
X91933000Y-72728000D02*
X91933000Y-66438000D01*
X91893000Y-81886000D02*
X91893000Y-75608000D01*
X91893000Y-72728000D02*
X91893000Y-66450000D01*
X91853000Y-81873000D02*
X91853000Y-75608000D01*
X91853000Y-72728000D02*
X91853000Y-66463000D01*
X91813000Y-81861000D02*
X91813000Y-75608000D01*
X91813000Y-72728000D02*
X91813000Y-66475000D01*
X91773000Y-81848000D02*
X91773000Y-75608000D01*
X91773000Y-72728000D02*
X91773000Y-66488000D01*
X91733000Y-81834000D02*
X91733000Y-75608000D01*
X91733000Y-72728000D02*
X91733000Y-66502000D01*
X91693000Y-81821000D02*
X91693000Y-75608000D01*
X91693000Y-72728000D02*
X91693000Y-66515000D01*
X91653000Y-81807000D02*
X91653000Y-75608000D01*
X91653000Y-72728000D02*
X91653000Y-66529000D01*
X91613000Y-81793000D02*
X91613000Y-75608000D01*
X91613000Y-72728000D02*
X91613000Y-66543000D01*
X91573000Y-81779000D02*
X91573000Y-75608000D01*
X91573000Y-72728000D02*
X91573000Y-66557000D01*
X91533000Y-81765000D02*
X91533000Y-75608000D01*
X91533000Y-72728000D02*
X91533000Y-66571000D01*
X91493000Y-81750000D02*
X91493000Y-75608000D01*
X91493000Y-72728000D02*
X91493000Y-66586000D01*
X91453000Y-81736000D02*
X91453000Y-75608000D01*
X91453000Y-72728000D02*
X91453000Y-66600000D01*
X91413000Y-81721000D02*
X91413000Y-75608000D01*
X91413000Y-72728000D02*
X91413000Y-66615000D01*
X91373000Y-81705000D02*
X91373000Y-75608000D01*
X91373000Y-72728000D02*
X91373000Y-66631000D01*
X91333000Y-81690000D02*
X91333000Y-75608000D01*
X91333000Y-72728000D02*
X91333000Y-66646000D01*
X91293000Y-81674000D02*
X91293000Y-75608000D01*
X91293000Y-72728000D02*
X91293000Y-66662000D01*
X91253000Y-81658000D02*
X91253000Y-75608000D01*
X91253000Y-72728000D02*
X91253000Y-66678000D01*
X91213000Y-81642000D02*
X91213000Y-75608000D01*
X91213000Y-72728000D02*
X91213000Y-66694000D01*
X91173000Y-81625000D02*
X91173000Y-75608000D01*
X91173000Y-72728000D02*
X91173000Y-66711000D01*
X91133000Y-81608000D02*
X91133000Y-75608000D01*
X91133000Y-72728000D02*
X91133000Y-66728000D01*
X91093000Y-81591000D02*
X91093000Y-75608000D01*
X91093000Y-72728000D02*
X91093000Y-66745000D01*
X91053000Y-81574000D02*
X91053000Y-75608000D01*
X91053000Y-72728000D02*
X91053000Y-66762000D01*
X91013000Y-81557000D02*
X91013000Y-75608000D01*
X91013000Y-72728000D02*
X91013000Y-66779000D01*
X90973000Y-81539000D02*
X90973000Y-75608000D01*
X90973000Y-72728000D02*
X90973000Y-66797000D01*
X90933000Y-81521000D02*
X90933000Y-75608000D01*
X90933000Y-72728000D02*
X90933000Y-66815000D01*
X90893000Y-81502000D02*
X90893000Y-75608000D01*
X90893000Y-72728000D02*
X90893000Y-66834000D01*
X90853000Y-81484000D02*
X90853000Y-75608000D01*
X90853000Y-72728000D02*
X90853000Y-66852000D01*
X90813000Y-81465000D02*
X90813000Y-75608000D01*
X90813000Y-72728000D02*
X90813000Y-66871000D01*
X90773000Y-81446000D02*
X90773000Y-75608000D01*
X90773000Y-72728000D02*
X90773000Y-66890000D01*
X90733000Y-81426000D02*
X90733000Y-75608000D01*
X90733000Y-72728000D02*
X90733000Y-66910000D01*
X90693000Y-81407000D02*
X90693000Y-75608000D01*
X90693000Y-72728000D02*
X90693000Y-66929000D01*
X90653000Y-81387000D02*
X90653000Y-75608000D01*
X90653000Y-72728000D02*
X90653000Y-66949000D01*
X90613000Y-81367000D02*
X90613000Y-75608000D01*
X90613000Y-72728000D02*
X90613000Y-66969000D01*
X90573000Y-81346000D02*
X90573000Y-75608000D01*
X90573000Y-72728000D02*
X90573000Y-66990000D01*
X90533000Y-81325000D02*
X90533000Y-75608000D01*
X90533000Y-72728000D02*
X90533000Y-67011000D01*
X90493000Y-81304000D02*
X90493000Y-75608000D01*
X90493000Y-72728000D02*
X90493000Y-67032000D01*
X90453000Y-81283000D02*
X90453000Y-75608000D01*
X90453000Y-72728000D02*
X90453000Y-67053000D01*
X90413000Y-81262000D02*
X90413000Y-75608000D01*
X90413000Y-72728000D02*
X90413000Y-67074000D01*
X90373000Y-81240000D02*
X90373000Y-75608000D01*
X90373000Y-72728000D02*
X90373000Y-67096000D01*
X90333000Y-81217000D02*
X90333000Y-75608000D01*
X90333000Y-72728000D02*
X90333000Y-67119000D01*
X90293000Y-81195000D02*
X90293000Y-75608000D01*
X90293000Y-72728000D02*
X90293000Y-67141000D01*
X90253000Y-81172000D02*
X90253000Y-75608000D01*
X90253000Y-72728000D02*
X90253000Y-67164000D01*
X90213000Y-81149000D02*
X90213000Y-75608000D01*
X90213000Y-72728000D02*
X90213000Y-67187000D01*
X90173000Y-81126000D02*
X90173000Y-75608000D01*
X90173000Y-72728000D02*
X90173000Y-67210000D01*
X90133000Y-81102000D02*
X90133000Y-75608000D01*
X90133000Y-72728000D02*
X90133000Y-67234000D01*
X90093000Y-81078000D02*
X90093000Y-75608000D01*
X90093000Y-72728000D02*
X90093000Y-67258000D01*
X90053000Y-81054000D02*
X90053000Y-75608000D01*
X90053000Y-72728000D02*
X90053000Y-67282000D01*
X90013000Y-81029000D02*
X90013000Y-75608000D01*
X90013000Y-72728000D02*
X90013000Y-67307000D01*
X89973000Y-81004000D02*
X89973000Y-75608000D01*
X89973000Y-72728000D02*
X89973000Y-67332000D01*
X89933000Y-80979000D02*
X89933000Y-75608000D01*
X89933000Y-72728000D02*
X89933000Y-67357000D01*
X89893000Y-80953000D02*
X89893000Y-75608000D01*
X89893000Y-72728000D02*
X89893000Y-67383000D01*
X89853000Y-80927000D02*
X89853000Y-75608000D01*
X89853000Y-72728000D02*
X89853000Y-67409000D01*
X89813000Y-80901000D02*
X89813000Y-75608000D01*
X89813000Y-72728000D02*
X89813000Y-67435000D01*
X89773000Y-80874000D02*
X89773000Y-75608000D01*
X89773000Y-72728000D02*
X89773000Y-67462000D01*
X89733000Y-80847000D02*
X89733000Y-75608000D01*
X89733000Y-72728000D02*
X89733000Y-67489000D01*
X89693000Y-80820000D02*
X89693000Y-75608000D01*
X89693000Y-72728000D02*
X89693000Y-67516000D01*
X89653000Y-80792000D02*
X89653000Y-75608000D01*
X89653000Y-72728000D02*
X89653000Y-67544000D01*
X89613000Y-80764000D02*
X89613000Y-75608000D01*
X89613000Y-72728000D02*
X89613000Y-67572000D01*
X89573000Y-80736000D02*
X89573000Y-75608000D01*
X89573000Y-72728000D02*
X89573000Y-67600000D01*
X89533000Y-80707000D02*
X89533000Y-75608000D01*
X89533000Y-72728000D02*
X89533000Y-67629000D01*
X89493000Y-80678000D02*
X89493000Y-75608000D01*
X89493000Y-72728000D02*
X89493000Y-67658000D01*
X89453000Y-80648000D02*
X89453000Y-75608000D01*
X89453000Y-72728000D02*
X89453000Y-67688000D01*
X89413000Y-80618000D02*
X89413000Y-75608000D01*
X89413000Y-72728000D02*
X89413000Y-67718000D01*
X89373000Y-80588000D02*
X89373000Y-75608000D01*
X89373000Y-72728000D02*
X89373000Y-67748000D01*
X89333000Y-80558000D02*
X89333000Y-75608000D01*
X89333000Y-72728000D02*
X89333000Y-67778000D01*
X89293000Y-80526000D02*
X89293000Y-75608000D01*
X89293000Y-72728000D02*
X89293000Y-67810000D01*
X89253000Y-80495000D02*
X89253000Y-75608000D01*
X89253000Y-72728000D02*
X89253000Y-67841000D01*
X89213000Y-80463000D02*
X89213000Y-75608000D01*
X89213000Y-72728000D02*
X89213000Y-67873000D01*
X89173000Y-80431000D02*
X89173000Y-75608000D01*
X89173000Y-72728000D02*
X89173000Y-67905000D01*
X89133000Y-80398000D02*
X89133000Y-75608000D01*
X89133000Y-72728000D02*
X89133000Y-67938000D01*
X89093000Y-80365000D02*
X89093000Y-67971000D01*
X89053000Y-80331000D02*
X89053000Y-68005000D01*
X89013000Y-80297000D02*
X89013000Y-68039000D01*
X88973000Y-80263000D02*
X88973000Y-68073000D01*
X88933000Y-80228000D02*
X88933000Y-68108000D01*
X88893000Y-80193000D02*
X88893000Y-68143000D01*
X88853000Y-80157000D02*
X88853000Y-68179000D01*
X88813000Y-80120000D02*
X88813000Y-68216000D01*
X88773000Y-80084000D02*
X88773000Y-68252000D01*
X88733000Y-80046000D02*
X88733000Y-68290000D01*
X88693000Y-80008000D02*
X88693000Y-68328000D01*
X88653000Y-79970000D02*
X88653000Y-68366000D01*
X88613000Y-79931000D02*
X88613000Y-68405000D01*
X88573000Y-79892000D02*
X88573000Y-68444000D01*
X88533000Y-79852000D02*
X88533000Y-68484000D01*
X88493000Y-79811000D02*
X88493000Y-68525000D01*
X88453000Y-79770000D02*
X88453000Y-68566000D01*
X88413000Y-79728000D02*
X88413000Y-68608000D01*
X88373000Y-79686000D02*
X88373000Y-68650000D01*
X88333000Y-79643000D02*
X88333000Y-68693000D01*
X88293000Y-79600000D02*
X88293000Y-68736000D01*
X88253000Y-79556000D02*
X88253000Y-68780000D01*
X88213000Y-79511000D02*
X88213000Y-68825000D01*
X88173000Y-79465000D02*
X88173000Y-68871000D01*
X88133000Y-79419000D02*
X88133000Y-68917000D01*
X88093000Y-79372000D02*
X88093000Y-68964000D01*
X88053000Y-79324000D02*
X88053000Y-69012000D01*
X88013000Y-79276000D02*
X88013000Y-69060000D01*
X87973000Y-79227000D02*
X87973000Y-69109000D01*
X87933000Y-79177000D02*
X87933000Y-69159000D01*
X87893000Y-79126000D02*
X87893000Y-69210000D01*
X87853000Y-79074000D02*
X87853000Y-69262000D01*
X87813000Y-79022000D02*
X87813000Y-69314000D01*
X87773000Y-78968000D02*
X87773000Y-69368000D01*
X87733000Y-78914000D02*
X87733000Y-69422000D01*
X87693000Y-78859000D02*
X87693000Y-69477000D01*
X87653000Y-78802000D02*
X87653000Y-69534000D01*
X87613000Y-78745000D02*
X87613000Y-69591000D01*
X87573000Y-78687000D02*
X87573000Y-69649000D01*
X87533000Y-78627000D02*
X87533000Y-69709000D01*
X87493000Y-78566000D02*
X87493000Y-69770000D01*
X87453000Y-78504000D02*
X87453000Y-69832000D01*
X87413000Y-78441000D02*
X87413000Y-69895000D01*
X87373000Y-78377000D02*
X87373000Y-69959000D01*
X87333000Y-78311000D02*
X87333000Y-70025000D01*
X87293000Y-78244000D02*
X87293000Y-70092000D01*
X87253000Y-78175000D02*
X87253000Y-70161000D01*
X87213000Y-78104000D02*
X87213000Y-70232000D01*
X87173000Y-78032000D02*
X87173000Y-70304000D01*
X87133000Y-77958000D02*
X87133000Y-70378000D01*
X87093000Y-77883000D02*
X87093000Y-70453000D01*
X87053000Y-77805000D02*
X87053000Y-70531000D01*
X87013000Y-77725000D02*
X87013000Y-70611000D01*
X86973000Y-77643000D02*
X86973000Y-70693000D01*
X86933000Y-77558000D02*
X86933000Y-70778000D01*
X86893000Y-77471000D02*
X86893000Y-70865000D01*
X86853000Y-77381000D02*
X86853000Y-70955000D01*
X86813000Y-77288000D02*
X86813000Y-71048000D01*
X86773000Y-77192000D02*
X86773000Y-71144000D01*
X86733000Y-77092000D02*
X86733000Y-71244000D01*
X86693000Y-76988000D02*
X86693000Y-71348000D01*
X86653000Y-76879000D02*
X86653000Y-71457000D01*
X86613000Y-76765000D02*
X86613000Y-71571000D01*
X86573000Y-76646000D02*
X86573000Y-71690000D01*
X86533000Y-76519000D02*
X86533000Y-71817000D01*
X86493000Y-76386000D02*
X86493000Y-71950000D01*
X86453000Y-76242000D02*
X86453000Y-72094000D01*
X86413000Y-76088000D02*
X86413000Y-72248000D01*
X86373000Y-75920000D02*
X86373000Y-72416000D01*
X86333000Y-75732000D02*
X86333000Y-72604000D01*
X86293000Y-75519000D02*
X86293000Y-72817000D01*
X86253000Y-75266000D02*
X86253000Y-73070000D01*
X86213000Y-74933000D02*
X86213000Y-73403000D01*
X102983491Y-78723000D02*
X101383491Y-78723000D01*
X102183491Y-79523000D02*
X102183491Y-77923000D01*
%TO.C,C2*%
X102414000Y-91440000D02*
G75*
G03*
X102414000Y-91440000I-8120000J0D01*
G01*
X94294000Y-99521000D02*
X94294000Y-83359000D01*
X94254000Y-99520000D02*
X94254000Y-83360000D01*
X94214000Y-99520000D02*
X94214000Y-83360000D01*
X94174000Y-99520000D02*
X94174000Y-83360000D01*
X94134000Y-99519000D02*
X94134000Y-83361000D01*
X94094000Y-99518000D02*
X94094000Y-83362000D01*
X94054000Y-99517000D02*
X94054000Y-83363000D01*
X94014000Y-99516000D02*
X94014000Y-83364000D01*
X93974000Y-99514000D02*
X93974000Y-83366000D01*
X93934000Y-99513000D02*
X93934000Y-83367000D01*
X93894000Y-99511000D02*
X93894000Y-83369000D01*
X93854000Y-99509000D02*
X93854000Y-83371000D01*
X93814000Y-99506000D02*
X93814000Y-83374000D01*
X93774000Y-99504000D02*
X93774000Y-83376000D01*
X93734000Y-99501000D02*
X93734000Y-83379000D01*
X93694000Y-99498000D02*
X93694000Y-83382000D01*
X93654000Y-99495000D02*
X93654000Y-83385000D01*
X93614000Y-99492000D02*
X93614000Y-83388000D01*
X93573000Y-99489000D02*
X93573000Y-83391000D01*
X93533000Y-99485000D02*
X93533000Y-83395000D01*
X93493000Y-99481000D02*
X93493000Y-83399000D01*
X93453000Y-99477000D02*
X93453000Y-83403000D01*
X93413000Y-99473000D02*
X93413000Y-83407000D01*
X93373000Y-99468000D02*
X93373000Y-83412000D01*
X93333000Y-99464000D02*
X93333000Y-83416000D01*
X93293000Y-99459000D02*
X93293000Y-83421000D01*
X93253000Y-99454000D02*
X93253000Y-83426000D01*
X93213000Y-99448000D02*
X93213000Y-83432000D01*
X93173000Y-99443000D02*
X93173000Y-83437000D01*
X93133000Y-99437000D02*
X93133000Y-83443000D01*
X93093000Y-99431000D02*
X93093000Y-83449000D01*
X93053000Y-99425000D02*
X93053000Y-83455000D01*
X93013000Y-99419000D02*
X93013000Y-83461000D01*
X92973000Y-99412000D02*
X92973000Y-83468000D01*
X92933000Y-99406000D02*
X92933000Y-83474000D01*
X92893000Y-99399000D02*
X92893000Y-83481000D01*
X92853000Y-99392000D02*
X92853000Y-83488000D01*
X92813000Y-99384000D02*
X92813000Y-83496000D01*
X92773000Y-99377000D02*
X92773000Y-83503000D01*
X92733000Y-99369000D02*
X92733000Y-83511000D01*
X92693000Y-99361000D02*
X92693000Y-83519000D01*
X92653000Y-99353000D02*
X92653000Y-83527000D01*
X92613000Y-99345000D02*
X92613000Y-83535000D01*
X92573000Y-99336000D02*
X92573000Y-83544000D01*
X92533000Y-99327000D02*
X92533000Y-83553000D01*
X92493000Y-99318000D02*
X92493000Y-83562000D01*
X92453000Y-99309000D02*
X92453000Y-83571000D01*
X92413000Y-99300000D02*
X92413000Y-83580000D01*
X92373000Y-99290000D02*
X92373000Y-83590000D01*
X92333000Y-99280000D02*
X92333000Y-83600000D01*
X92293000Y-99270000D02*
X92293000Y-83610000D01*
X92253000Y-99260000D02*
X92253000Y-83620000D01*
X92213000Y-99250000D02*
X92213000Y-83630000D01*
X92173000Y-99239000D02*
X92173000Y-83641000D01*
X92133000Y-99228000D02*
X92133000Y-83652000D01*
X92093000Y-99217000D02*
X92093000Y-83663000D01*
X92053000Y-99205000D02*
X92053000Y-83675000D01*
X92013000Y-99194000D02*
X92013000Y-83686000D01*
X91973000Y-99182000D02*
X91973000Y-92880000D01*
X91973000Y-90000000D02*
X91973000Y-83698000D01*
X91933000Y-99170000D02*
X91933000Y-92880000D01*
X91933000Y-90000000D02*
X91933000Y-83710000D01*
X91893000Y-99158000D02*
X91893000Y-92880000D01*
X91893000Y-90000000D02*
X91893000Y-83722000D01*
X91853000Y-99145000D02*
X91853000Y-92880000D01*
X91853000Y-90000000D02*
X91853000Y-83735000D01*
X91813000Y-99133000D02*
X91813000Y-92880000D01*
X91813000Y-90000000D02*
X91813000Y-83747000D01*
X91773000Y-99120000D02*
X91773000Y-92880000D01*
X91773000Y-90000000D02*
X91773000Y-83760000D01*
X91733000Y-99106000D02*
X91733000Y-92880000D01*
X91733000Y-90000000D02*
X91733000Y-83774000D01*
X91693000Y-99093000D02*
X91693000Y-92880000D01*
X91693000Y-90000000D02*
X91693000Y-83787000D01*
X91653000Y-99079000D02*
X91653000Y-92880000D01*
X91653000Y-90000000D02*
X91653000Y-83801000D01*
X91613000Y-99065000D02*
X91613000Y-92880000D01*
X91613000Y-90000000D02*
X91613000Y-83815000D01*
X91573000Y-99051000D02*
X91573000Y-92880000D01*
X91573000Y-90000000D02*
X91573000Y-83829000D01*
X91533000Y-99037000D02*
X91533000Y-92880000D01*
X91533000Y-90000000D02*
X91533000Y-83843000D01*
X91493000Y-99022000D02*
X91493000Y-92880000D01*
X91493000Y-90000000D02*
X91493000Y-83858000D01*
X91453000Y-99008000D02*
X91453000Y-92880000D01*
X91453000Y-90000000D02*
X91453000Y-83872000D01*
X91413000Y-98993000D02*
X91413000Y-92880000D01*
X91413000Y-90000000D02*
X91413000Y-83887000D01*
X91373000Y-98977000D02*
X91373000Y-92880000D01*
X91373000Y-90000000D02*
X91373000Y-83903000D01*
X91333000Y-98962000D02*
X91333000Y-92880000D01*
X91333000Y-90000000D02*
X91333000Y-83918000D01*
X91293000Y-98946000D02*
X91293000Y-92880000D01*
X91293000Y-90000000D02*
X91293000Y-83934000D01*
X91253000Y-98930000D02*
X91253000Y-92880000D01*
X91253000Y-90000000D02*
X91253000Y-83950000D01*
X91213000Y-98914000D02*
X91213000Y-92880000D01*
X91213000Y-90000000D02*
X91213000Y-83966000D01*
X91173000Y-98897000D02*
X91173000Y-92880000D01*
X91173000Y-90000000D02*
X91173000Y-83983000D01*
X91133000Y-98880000D02*
X91133000Y-92880000D01*
X91133000Y-90000000D02*
X91133000Y-84000000D01*
X91093000Y-98863000D02*
X91093000Y-92880000D01*
X91093000Y-90000000D02*
X91093000Y-84017000D01*
X91053000Y-98846000D02*
X91053000Y-92880000D01*
X91053000Y-90000000D02*
X91053000Y-84034000D01*
X91013000Y-98829000D02*
X91013000Y-92880000D01*
X91013000Y-90000000D02*
X91013000Y-84051000D01*
X90973000Y-98811000D02*
X90973000Y-92880000D01*
X90973000Y-90000000D02*
X90973000Y-84069000D01*
X90933000Y-98793000D02*
X90933000Y-92880000D01*
X90933000Y-90000000D02*
X90933000Y-84087000D01*
X90893000Y-98774000D02*
X90893000Y-92880000D01*
X90893000Y-90000000D02*
X90893000Y-84106000D01*
X90853000Y-98756000D02*
X90853000Y-92880000D01*
X90853000Y-90000000D02*
X90853000Y-84124000D01*
X90813000Y-98737000D02*
X90813000Y-92880000D01*
X90813000Y-90000000D02*
X90813000Y-84143000D01*
X90773000Y-98718000D02*
X90773000Y-92880000D01*
X90773000Y-90000000D02*
X90773000Y-84162000D01*
X90733000Y-98698000D02*
X90733000Y-92880000D01*
X90733000Y-90000000D02*
X90733000Y-84182000D01*
X90693000Y-98679000D02*
X90693000Y-92880000D01*
X90693000Y-90000000D02*
X90693000Y-84201000D01*
X90653000Y-98659000D02*
X90653000Y-92880000D01*
X90653000Y-90000000D02*
X90653000Y-84221000D01*
X90613000Y-98639000D02*
X90613000Y-92880000D01*
X90613000Y-90000000D02*
X90613000Y-84241000D01*
X90573000Y-98618000D02*
X90573000Y-92880000D01*
X90573000Y-90000000D02*
X90573000Y-84262000D01*
X90533000Y-98597000D02*
X90533000Y-92880000D01*
X90533000Y-90000000D02*
X90533000Y-84283000D01*
X90493000Y-98576000D02*
X90493000Y-92880000D01*
X90493000Y-90000000D02*
X90493000Y-84304000D01*
X90453000Y-98555000D02*
X90453000Y-92880000D01*
X90453000Y-90000000D02*
X90453000Y-84325000D01*
X90413000Y-98534000D02*
X90413000Y-92880000D01*
X90413000Y-90000000D02*
X90413000Y-84346000D01*
X90373000Y-98512000D02*
X90373000Y-92880000D01*
X90373000Y-90000000D02*
X90373000Y-84368000D01*
X90333000Y-98489000D02*
X90333000Y-92880000D01*
X90333000Y-90000000D02*
X90333000Y-84391000D01*
X90293000Y-98467000D02*
X90293000Y-92880000D01*
X90293000Y-90000000D02*
X90293000Y-84413000D01*
X90253000Y-98444000D02*
X90253000Y-92880000D01*
X90253000Y-90000000D02*
X90253000Y-84436000D01*
X90213000Y-98421000D02*
X90213000Y-92880000D01*
X90213000Y-90000000D02*
X90213000Y-84459000D01*
X90173000Y-98398000D02*
X90173000Y-92880000D01*
X90173000Y-90000000D02*
X90173000Y-84482000D01*
X90133000Y-98374000D02*
X90133000Y-92880000D01*
X90133000Y-90000000D02*
X90133000Y-84506000D01*
X90093000Y-98350000D02*
X90093000Y-92880000D01*
X90093000Y-90000000D02*
X90093000Y-84530000D01*
X90053000Y-98326000D02*
X90053000Y-92880000D01*
X90053000Y-90000000D02*
X90053000Y-84554000D01*
X90013000Y-98301000D02*
X90013000Y-92880000D01*
X90013000Y-90000000D02*
X90013000Y-84579000D01*
X89973000Y-98276000D02*
X89973000Y-92880000D01*
X89973000Y-90000000D02*
X89973000Y-84604000D01*
X89933000Y-98251000D02*
X89933000Y-92880000D01*
X89933000Y-90000000D02*
X89933000Y-84629000D01*
X89893000Y-98225000D02*
X89893000Y-92880000D01*
X89893000Y-90000000D02*
X89893000Y-84655000D01*
X89853000Y-98199000D02*
X89853000Y-92880000D01*
X89853000Y-90000000D02*
X89853000Y-84681000D01*
X89813000Y-98173000D02*
X89813000Y-92880000D01*
X89813000Y-90000000D02*
X89813000Y-84707000D01*
X89773000Y-98146000D02*
X89773000Y-92880000D01*
X89773000Y-90000000D02*
X89773000Y-84734000D01*
X89733000Y-98119000D02*
X89733000Y-92880000D01*
X89733000Y-90000000D02*
X89733000Y-84761000D01*
X89693000Y-98092000D02*
X89693000Y-92880000D01*
X89693000Y-90000000D02*
X89693000Y-84788000D01*
X89653000Y-98064000D02*
X89653000Y-92880000D01*
X89653000Y-90000000D02*
X89653000Y-84816000D01*
X89613000Y-98036000D02*
X89613000Y-92880000D01*
X89613000Y-90000000D02*
X89613000Y-84844000D01*
X89573000Y-98008000D02*
X89573000Y-92880000D01*
X89573000Y-90000000D02*
X89573000Y-84872000D01*
X89533000Y-97979000D02*
X89533000Y-92880000D01*
X89533000Y-90000000D02*
X89533000Y-84901000D01*
X89493000Y-97950000D02*
X89493000Y-92880000D01*
X89493000Y-90000000D02*
X89493000Y-84930000D01*
X89453000Y-97920000D02*
X89453000Y-92880000D01*
X89453000Y-90000000D02*
X89453000Y-84960000D01*
X89413000Y-97890000D02*
X89413000Y-92880000D01*
X89413000Y-90000000D02*
X89413000Y-84990000D01*
X89373000Y-97860000D02*
X89373000Y-92880000D01*
X89373000Y-90000000D02*
X89373000Y-85020000D01*
X89333000Y-97830000D02*
X89333000Y-92880000D01*
X89333000Y-90000000D02*
X89333000Y-85050000D01*
X89293000Y-97798000D02*
X89293000Y-92880000D01*
X89293000Y-90000000D02*
X89293000Y-85082000D01*
X89253000Y-97767000D02*
X89253000Y-92880000D01*
X89253000Y-90000000D02*
X89253000Y-85113000D01*
X89213000Y-97735000D02*
X89213000Y-92880000D01*
X89213000Y-90000000D02*
X89213000Y-85145000D01*
X89173000Y-97703000D02*
X89173000Y-92880000D01*
X89173000Y-90000000D02*
X89173000Y-85177000D01*
X89133000Y-97670000D02*
X89133000Y-92880000D01*
X89133000Y-90000000D02*
X89133000Y-85210000D01*
X89093000Y-97637000D02*
X89093000Y-85243000D01*
X89053000Y-97603000D02*
X89053000Y-85277000D01*
X89013000Y-97569000D02*
X89013000Y-85311000D01*
X88973000Y-97535000D02*
X88973000Y-85345000D01*
X88933000Y-97500000D02*
X88933000Y-85380000D01*
X88893000Y-97465000D02*
X88893000Y-85415000D01*
X88853000Y-97429000D02*
X88853000Y-85451000D01*
X88813000Y-97392000D02*
X88813000Y-85488000D01*
X88773000Y-97356000D02*
X88773000Y-85524000D01*
X88733000Y-97318000D02*
X88733000Y-85562000D01*
X88693000Y-97280000D02*
X88693000Y-85600000D01*
X88653000Y-97242000D02*
X88653000Y-85638000D01*
X88613000Y-97203000D02*
X88613000Y-85677000D01*
X88573000Y-97164000D02*
X88573000Y-85716000D01*
X88533000Y-97124000D02*
X88533000Y-85756000D01*
X88493000Y-97083000D02*
X88493000Y-85797000D01*
X88453000Y-97042000D02*
X88453000Y-85838000D01*
X88413000Y-97000000D02*
X88413000Y-85880000D01*
X88373000Y-96958000D02*
X88373000Y-85922000D01*
X88333000Y-96915000D02*
X88333000Y-85965000D01*
X88293000Y-96872000D02*
X88293000Y-86008000D01*
X88253000Y-96828000D02*
X88253000Y-86052000D01*
X88213000Y-96783000D02*
X88213000Y-86097000D01*
X88173000Y-96737000D02*
X88173000Y-86143000D01*
X88133000Y-96691000D02*
X88133000Y-86189000D01*
X88093000Y-96644000D02*
X88093000Y-86236000D01*
X88053000Y-96596000D02*
X88053000Y-86284000D01*
X88013000Y-96548000D02*
X88013000Y-86332000D01*
X87973000Y-96499000D02*
X87973000Y-86381000D01*
X87933000Y-96449000D02*
X87933000Y-86431000D01*
X87893000Y-96398000D02*
X87893000Y-86482000D01*
X87853000Y-96346000D02*
X87853000Y-86534000D01*
X87813000Y-96294000D02*
X87813000Y-86586000D01*
X87773000Y-96240000D02*
X87773000Y-86640000D01*
X87733000Y-96186000D02*
X87733000Y-86694000D01*
X87693000Y-96131000D02*
X87693000Y-86749000D01*
X87653000Y-96074000D02*
X87653000Y-86806000D01*
X87613000Y-96017000D02*
X87613000Y-86863000D01*
X87573000Y-95959000D02*
X87573000Y-86921000D01*
X87533000Y-95899000D02*
X87533000Y-86981000D01*
X87493000Y-95838000D02*
X87493000Y-87042000D01*
X87453000Y-95776000D02*
X87453000Y-87104000D01*
X87413000Y-95713000D02*
X87413000Y-87167000D01*
X87373000Y-95649000D02*
X87373000Y-87231000D01*
X87333000Y-95583000D02*
X87333000Y-87297000D01*
X87293000Y-95516000D02*
X87293000Y-87364000D01*
X87253000Y-95447000D02*
X87253000Y-87433000D01*
X87213000Y-95376000D02*
X87213000Y-87504000D01*
X87173000Y-95304000D02*
X87173000Y-87576000D01*
X87133000Y-95230000D02*
X87133000Y-87650000D01*
X87093000Y-95155000D02*
X87093000Y-87725000D01*
X87053000Y-95077000D02*
X87053000Y-87803000D01*
X87013000Y-94997000D02*
X87013000Y-87883000D01*
X86973000Y-94915000D02*
X86973000Y-87965000D01*
X86933000Y-94830000D02*
X86933000Y-88050000D01*
X86893000Y-94743000D02*
X86893000Y-88137000D01*
X86853000Y-94653000D02*
X86853000Y-88227000D01*
X86813000Y-94560000D02*
X86813000Y-88320000D01*
X86773000Y-94464000D02*
X86773000Y-88416000D01*
X86733000Y-94364000D02*
X86733000Y-88516000D01*
X86693000Y-94260000D02*
X86693000Y-88620000D01*
X86653000Y-94151000D02*
X86653000Y-88729000D01*
X86613000Y-94037000D02*
X86613000Y-88843000D01*
X86573000Y-93918000D02*
X86573000Y-88962000D01*
X86533000Y-93791000D02*
X86533000Y-89089000D01*
X86493000Y-93658000D02*
X86493000Y-89222000D01*
X86453000Y-93514000D02*
X86453000Y-89366000D01*
X86413000Y-93360000D02*
X86413000Y-89520000D01*
X86373000Y-93192000D02*
X86373000Y-89688000D01*
X86333000Y-93004000D02*
X86333000Y-89876000D01*
X86293000Y-92791000D02*
X86293000Y-90089000D01*
X86253000Y-92538000D02*
X86253000Y-90342000D01*
X86213000Y-92205000D02*
X86213000Y-90675000D01*
X102983491Y-95995000D02*
X101383491Y-95995000D01*
X102183491Y-96795000D02*
X102183491Y-95195000D01*
%TO.C,J1*%
X130836000Y-80246000D02*
X130836000Y-80646000D01*
X131476000Y-80246000D02*
X130836000Y-80246000D01*
X134695000Y-88151000D02*
X134567000Y-88022000D01*
X136911000Y-90366000D02*
X136817000Y-90272000D01*
X134455000Y-88321000D02*
X134362000Y-88227000D01*
X136705000Y-90571000D02*
X136577000Y-90442000D01*
X134695000Y-84651000D02*
X134567000Y-84522000D01*
X136911000Y-86866000D02*
X136817000Y-86772000D01*
X134455000Y-84821000D02*
X134362000Y-84727000D01*
X136705000Y-87071000D02*
X136577000Y-86942000D01*
X138796000Y-91106000D02*
X131076000Y-91106000D01*
X138796000Y-80486000D02*
X131076000Y-80486000D01*
X131076000Y-80486000D02*
X131076000Y-91106000D01*
X138796000Y-80486000D02*
X138796000Y-91106000D01*
X132636000Y-80486000D02*
X132636000Y-91106000D01*
X131536000Y-80486000D02*
X131536000Y-91106000D01*
X137316000Y-89296000D02*
G75*
G03*
X137316000Y-89296000I-1680000J0D01*
G01*
X137316000Y-85796000D02*
G75*
G03*
X137316000Y-85796000I-1680000J0D01*
G01*
X133955901Y-82324674D02*
G75*
G02*
X134196000Y-81430000I1680099J28674D01*
G01*
X134746106Y-80870642D02*
G75*
G02*
X136502000Y-80856000I889894J-1425358D01*
G01*
X137061358Y-81406106D02*
G75*
G02*
X137076000Y-83162000I-1425358J-889894D01*
G01*
X136526193Y-83721505D02*
G75*
G02*
X134745000Y-83721000I-890193J1425505D01*
G01*
X134211279Y-83186264D02*
G75*
G02*
X133956000Y-82296000I1424721J890264D01*
G01*
%TO.C,J3*%
X81436000Y-83312000D02*
G75*
G03*
X81436000Y-83312000I-1680000J0D01*
G01*
X81436000Y-88392000D02*
G75*
G03*
X81436000Y-88392000I-1680000J0D01*
G01*
X75656000Y-75632000D02*
X75656000Y-90992000D01*
X77156000Y-75632000D02*
X77156000Y-90992000D01*
X82057000Y-75632000D02*
X82057000Y-90992000D01*
X85017000Y-75632000D02*
X85017000Y-90992000D01*
X75096000Y-75632000D02*
X75096000Y-90992000D01*
X85017000Y-75632000D02*
X75096000Y-75632000D01*
X85017000Y-90992000D02*
X75096000Y-90992000D01*
X80825000Y-84587000D02*
X80779000Y-84540000D01*
X78517000Y-82278000D02*
X78482000Y-82243000D01*
X81031000Y-84382000D02*
X80995000Y-84347000D01*
X78733000Y-82085000D02*
X78687000Y-82038000D01*
X80825000Y-89667000D02*
X80779000Y-89620000D01*
X78517000Y-87358000D02*
X78482000Y-87323000D01*
X81031000Y-89462000D02*
X80995000Y-89427000D01*
X78733000Y-87165000D02*
X78687000Y-87118000D01*
X75596000Y-75392000D02*
X74856000Y-75392000D01*
X74856000Y-75392000D02*
X74856000Y-75892000D01*
X78075747Y-78260805D02*
G75*
G02*
X78221000Y-77548000I1680253J28805D01*
G01*
X79072958Y-76696574D02*
G75*
G02*
X80440000Y-76697000I683042J-1535426D01*
G01*
X81291426Y-77548958D02*
G75*
G02*
X81291000Y-78916000I-1535426J-683042D01*
G01*
X80439042Y-79767426D02*
G75*
G02*
X79072000Y-79767000I-683042J1535426D01*
G01*
X78221244Y-78915318D02*
G75*
G02*
X78076000Y-78232000I1534756J683318D01*
G01*
%TO.C,J2*%
X116488000Y-94996000D02*
G75*
G03*
X116488000Y-94996000I-1680000J0D01*
G01*
X107128000Y-99096000D02*
X117408000Y-99096000D01*
X107128000Y-97596000D02*
X117408000Y-97596000D01*
X107128000Y-92695000D02*
X117408000Y-92695000D01*
X107128000Y-89735000D02*
X117408000Y-89735000D01*
X107128000Y-99656000D02*
X117408000Y-99656000D01*
X107128000Y-89735000D02*
X107128000Y-99656000D01*
X117408000Y-89735000D02*
X117408000Y-99656000D01*
X116083000Y-93927000D02*
X116036000Y-93973000D01*
X113774000Y-96235000D02*
X113739000Y-96270000D01*
X115878000Y-93721000D02*
X115843000Y-93757000D01*
X113581000Y-96019000D02*
X113534000Y-96065000D01*
X106888000Y-99156000D02*
X106888000Y-99896000D01*
X106888000Y-99896000D02*
X107388000Y-99896000D01*
X109756805Y-96676253D02*
G75*
G02*
X109044000Y-96531000I-28805J1680253D01*
G01*
X108192574Y-95679042D02*
G75*
G02*
X108193000Y-94312000I1535426J683042D01*
G01*
X109044958Y-93460574D02*
G75*
G02*
X110412000Y-93461000I683042J-1535426D01*
G01*
X111263426Y-94312958D02*
G75*
G02*
X111263000Y-95680000I-1535426J-683042D01*
G01*
X110411318Y-96530756D02*
G75*
G02*
X109728000Y-96676000I-683318J1534756D01*
G01*
D12*
%TO.C,L1*%
X117602000Y-84074000D02*
X109982000Y-85344000D01*
X117602000Y-75184000D02*
X109982000Y-76454000D01*
X117602000Y-82804000D02*
X109982000Y-84074000D01*
X117602000Y-81534000D02*
X109982000Y-82804000D01*
X117602000Y-80264000D02*
X109982000Y-81534000D01*
X117602000Y-78994000D02*
X109982000Y-80264000D01*
X117602000Y-77724000D02*
X109982000Y-78994000D01*
X117602000Y-76454000D02*
X109982000Y-77724000D01*
D11*
X118872000Y-86614000D02*
X118872000Y-73914000D01*
X111252000Y-86614000D02*
X118872000Y-86614000D01*
X108712000Y-73914000D02*
X108712000Y-86614000D01*
X116332000Y-73914000D02*
X108712000Y-73914000D01*
%TO.C,R9*%
X123630000Y-88412064D02*
X123630000Y-84307936D01*
X120210000Y-88412064D02*
X120210000Y-84307936D01*
%TO.C,R8*%
X124782000Y-84307936D02*
X124782000Y-88412064D01*
X128202000Y-84307936D02*
X128202000Y-88412064D01*
%TO.C,C9*%
X107590000Y-65626064D02*
X107590000Y-64421936D01*
X105770000Y-65626064D02*
X105770000Y-64421936D01*
%TO.C,C8*%
X107282064Y-71226000D02*
X106077936Y-71226000D01*
X107282064Y-73046000D02*
X106077936Y-73046000D01*
%TO.C,U1*%
X127490000Y-65137000D02*
X127490000Y-68531000D01*
X124090000Y-65137000D02*
X124090000Y-68531000D01*
X120690000Y-65137000D02*
X120690000Y-68531000D01*
X117290000Y-65137000D02*
X117290000Y-68531000D01*
X113890000Y-65137000D02*
X113890000Y-68531000D01*
X110490000Y-65137000D02*
X110490000Y-68546000D01*
X120840000Y-59896000D02*
X120840000Y-61736000D01*
X117140000Y-59896000D02*
X117140000Y-61736000D01*
X108770000Y-61736000D02*
X129210000Y-61736000D01*
X129210000Y-59896000D02*
X129210000Y-65137000D01*
X108770000Y-59896000D02*
X108770000Y-65137000D01*
X126715000Y-65137000D02*
X129210000Y-65137000D01*
X123315000Y-65137000D02*
X124866000Y-65137000D01*
X119915000Y-65137000D02*
X121466000Y-65137000D01*
X116515000Y-65137000D02*
X118066000Y-65137000D01*
X113115000Y-65137000D02*
X114666000Y-65137000D01*
X108770000Y-65137000D02*
X111266000Y-65137000D01*
X108770000Y-59896000D02*
X129210000Y-59896000D01*
%TO.C,R7*%
X93166000Y-62742578D02*
X93166000Y-62225422D01*
X91746000Y-62742578D02*
X91746000Y-62225422D01*
%TO.C,R6*%
X123138000Y-77474578D02*
X123138000Y-76957422D01*
X121718000Y-77474578D02*
X121718000Y-76957422D01*
%TO.C,R5*%
X125678000Y-77474578D02*
X125678000Y-76957422D01*
X124258000Y-77474578D02*
X124258000Y-76957422D01*
%TO.C,R4*%
X133298000Y-77474578D02*
X133298000Y-76957422D01*
X131878000Y-77474578D02*
X131878000Y-76957422D01*
%TO.C,R3*%
X135838000Y-77474578D02*
X135838000Y-76957422D01*
X134418000Y-77474578D02*
X134418000Y-76957422D01*
%TO.C,R2*%
X126798000Y-76957422D02*
X126798000Y-77474578D01*
X128218000Y-76957422D02*
X128218000Y-77474578D01*
%TO.C,R1*%
X129338000Y-76957422D02*
X129338000Y-77474578D01*
X130758000Y-76957422D02*
X130758000Y-77474578D01*
%TO.C,C11*%
X125226578Y-91238000D02*
X124709422Y-91238000D01*
X125226578Y-92658000D02*
X124709422Y-92658000D01*
%TO.C,C5*%
X123185422Y-74878000D02*
X123702578Y-74878000D01*
X123185422Y-73458000D02*
X123702578Y-73458000D01*
%TO.C,C4*%
X133345422Y-74878000D02*
X133862578Y-74878000D01*
X133345422Y-73458000D02*
X133862578Y-73458000D01*
%TO.C,C1*%
X131774000Y-67314578D02*
X131774000Y-66797422D01*
X130354000Y-67314578D02*
X130354000Y-66797422D01*
%TO.C,C10*%
D13*
X81637142Y-69730857D02*
X81684761Y-69778476D01*
X81732380Y-69921333D01*
X81732380Y-70016571D01*
X81684761Y-70159428D01*
X81589523Y-70254666D01*
X81494285Y-70302285D01*
X81303809Y-70349904D01*
X81160952Y-70349904D01*
X80970476Y-70302285D01*
X80875238Y-70254666D01*
X80780000Y-70159428D01*
X80732380Y-70016571D01*
X80732380Y-69921333D01*
X80780000Y-69778476D01*
X80827619Y-69730857D01*
X81732380Y-68778476D02*
X81732380Y-69349904D01*
X81732380Y-69064190D02*
X80732380Y-69064190D01*
X80875238Y-69159428D01*
X80970476Y-69254666D01*
X81018095Y-69349904D01*
X80732380Y-68159428D02*
X80732380Y-68064190D01*
X80780000Y-67968952D01*
X80827619Y-67921333D01*
X80922857Y-67873714D01*
X81113333Y-67826095D01*
X81351428Y-67826095D01*
X81541904Y-67873714D01*
X81637142Y-67921333D01*
X81684761Y-67968952D01*
X81732380Y-68064190D01*
X81732380Y-68159428D01*
X81684761Y-68254666D01*
X81637142Y-68302285D01*
X81541904Y-68349904D01*
X81351428Y-68397523D01*
X81113333Y-68397523D01*
X80922857Y-68349904D01*
X80827619Y-68302285D01*
X80780000Y-68254666D01*
X80732380Y-68159428D01*
%TO.C,C7*%
X97557142Y-64956666D02*
X97604761Y-65004285D01*
X97652380Y-65147142D01*
X97652380Y-65242380D01*
X97604761Y-65385238D01*
X97509523Y-65480476D01*
X97414285Y-65528095D01*
X97223809Y-65575714D01*
X97080952Y-65575714D01*
X96890476Y-65528095D01*
X96795238Y-65480476D01*
X96700000Y-65385238D01*
X96652380Y-65242380D01*
X96652380Y-65147142D01*
X96700000Y-65004285D01*
X96747619Y-64956666D01*
X96652380Y-64623333D02*
X96652380Y-63956666D01*
X97652380Y-64385238D01*
%TO.C,C6*%
X104755333Y-84513142D02*
X104707714Y-84560761D01*
X104564857Y-84608380D01*
X104469619Y-84608380D01*
X104326761Y-84560761D01*
X104231523Y-84465523D01*
X104183904Y-84370285D01*
X104136285Y-84179809D01*
X104136285Y-84036952D01*
X104183904Y-83846476D01*
X104231523Y-83751238D01*
X104326761Y-83656000D01*
X104469619Y-83608380D01*
X104564857Y-83608380D01*
X104707714Y-83656000D01*
X104755333Y-83703619D01*
X105612476Y-83608380D02*
X105422000Y-83608380D01*
X105326761Y-83656000D01*
X105279142Y-83703619D01*
X105183904Y-83846476D01*
X105136285Y-84036952D01*
X105136285Y-84417904D01*
X105183904Y-84513142D01*
X105231523Y-84560761D01*
X105326761Y-84608380D01*
X105517238Y-84608380D01*
X105612476Y-84560761D01*
X105660095Y-84513142D01*
X105707714Y-84417904D01*
X105707714Y-84179809D01*
X105660095Y-84084571D01*
X105612476Y-84036952D01*
X105517238Y-83989333D01*
X105326761Y-83989333D01*
X105231523Y-84036952D01*
X105183904Y-84084571D01*
X105136285Y-84179809D01*
%TO.C,C3*%
X88225333Y-82145142D02*
X88177714Y-82192761D01*
X88034857Y-82240380D01*
X87939619Y-82240380D01*
X87796761Y-82192761D01*
X87701523Y-82097523D01*
X87653904Y-82002285D01*
X87606285Y-81811809D01*
X87606285Y-81668952D01*
X87653904Y-81478476D01*
X87701523Y-81383238D01*
X87796761Y-81288000D01*
X87939619Y-81240380D01*
X88034857Y-81240380D01*
X88177714Y-81288000D01*
X88225333Y-81335619D01*
X88558666Y-81240380D02*
X89177714Y-81240380D01*
X88844380Y-81621333D01*
X88987238Y-81621333D01*
X89082476Y-81668952D01*
X89130095Y-81716571D01*
X89177714Y-81811809D01*
X89177714Y-82049904D01*
X89130095Y-82145142D01*
X89082476Y-82192761D01*
X88987238Y-82240380D01*
X88701523Y-82240380D01*
X88606285Y-82192761D01*
X88558666Y-82145142D01*
%TO.C,C2*%
X88225333Y-99417142D02*
X88177714Y-99464761D01*
X88034857Y-99512380D01*
X87939619Y-99512380D01*
X87796761Y-99464761D01*
X87701523Y-99369523D01*
X87653904Y-99274285D01*
X87606285Y-99083809D01*
X87606285Y-98940952D01*
X87653904Y-98750476D01*
X87701523Y-98655238D01*
X87796761Y-98560000D01*
X87939619Y-98512380D01*
X88034857Y-98512380D01*
X88177714Y-98560000D01*
X88225333Y-98607619D01*
X88606285Y-98607619D02*
X88653904Y-98560000D01*
X88749142Y-98512380D01*
X88987238Y-98512380D01*
X89082476Y-98560000D01*
X89130095Y-98607619D01*
X89177714Y-98702857D01*
X89177714Y-98798095D01*
X89130095Y-98940952D01*
X88558666Y-99512380D01*
X89177714Y-99512380D01*
%TO.C,L1*%
X120340380Y-79922666D02*
X120340380Y-80398857D01*
X119340380Y-80398857D01*
X120340380Y-79065523D02*
X120340380Y-79636952D01*
X120340380Y-79351238D02*
X119340380Y-79351238D01*
X119483238Y-79446476D01*
X119578476Y-79541714D01*
X119626095Y-79636952D01*
%TO.C,R9*%
X121356380Y-91606666D02*
X120880190Y-91940000D01*
X121356380Y-92178095D02*
X120356380Y-92178095D01*
X120356380Y-91797142D01*
X120404000Y-91701904D01*
X120451619Y-91654285D01*
X120546857Y-91606666D01*
X120689714Y-91606666D01*
X120784952Y-91654285D01*
X120832571Y-91701904D01*
X120880190Y-91797142D01*
X120880190Y-92178095D01*
X121356380Y-91130476D02*
X121356380Y-90940000D01*
X121308761Y-90844761D01*
X121261142Y-90797142D01*
X121118285Y-90701904D01*
X120927809Y-90654285D01*
X120546857Y-90654285D01*
X120451619Y-90701904D01*
X120404000Y-90749523D01*
X120356380Y-90844761D01*
X120356380Y-91035238D01*
X120404000Y-91130476D01*
X120451619Y-91178095D01*
X120546857Y-91225714D01*
X120784952Y-91225714D01*
X120880190Y-91178095D01*
X120927809Y-91130476D01*
X120975428Y-91035238D01*
X120975428Y-90844761D01*
X120927809Y-90749523D01*
X120880190Y-90701904D01*
X120784952Y-90654285D01*
%TO.C,R8*%
X129992380Y-88558666D02*
X129516190Y-88892000D01*
X129992380Y-89130095D02*
X128992380Y-89130095D01*
X128992380Y-88749142D01*
X129040000Y-88653904D01*
X129087619Y-88606285D01*
X129182857Y-88558666D01*
X129325714Y-88558666D01*
X129420952Y-88606285D01*
X129468571Y-88653904D01*
X129516190Y-88749142D01*
X129516190Y-89130095D01*
X129420952Y-87987238D02*
X129373333Y-88082476D01*
X129325714Y-88130095D01*
X129230476Y-88177714D01*
X129182857Y-88177714D01*
X129087619Y-88130095D01*
X129040000Y-88082476D01*
X128992380Y-87987238D01*
X128992380Y-87796761D01*
X129040000Y-87701523D01*
X129087619Y-87653904D01*
X129182857Y-87606285D01*
X129230476Y-87606285D01*
X129325714Y-87653904D01*
X129373333Y-87701523D01*
X129420952Y-87796761D01*
X129420952Y-87987238D01*
X129468571Y-88082476D01*
X129516190Y-88130095D01*
X129611428Y-88177714D01*
X129801904Y-88177714D01*
X129897142Y-88130095D01*
X129944761Y-88082476D01*
X129992380Y-87987238D01*
X129992380Y-87796761D01*
X129944761Y-87701523D01*
X129897142Y-87653904D01*
X129801904Y-87606285D01*
X129611428Y-87606285D01*
X129516190Y-87653904D01*
X129468571Y-87701523D01*
X129420952Y-87796761D01*
%TO.C,C9*%
X107037142Y-61634666D02*
X107084761Y-61682285D01*
X107132380Y-61825142D01*
X107132380Y-61920380D01*
X107084761Y-62063238D01*
X106989523Y-62158476D01*
X106894285Y-62206095D01*
X106703809Y-62253714D01*
X106560952Y-62253714D01*
X106370476Y-62206095D01*
X106275238Y-62158476D01*
X106180000Y-62063238D01*
X106132380Y-61920380D01*
X106132380Y-61825142D01*
X106180000Y-61682285D01*
X106227619Y-61634666D01*
X107132380Y-61158476D02*
X107132380Y-60968000D01*
X107084761Y-60872761D01*
X107037142Y-60825142D01*
X106894285Y-60729904D01*
X106703809Y-60682285D01*
X106322857Y-60682285D01*
X106227619Y-60729904D01*
X106180000Y-60777523D01*
X106132380Y-60872761D01*
X106132380Y-61063238D01*
X106180000Y-61158476D01*
X106227619Y-61206095D01*
X106322857Y-61253714D01*
X106560952Y-61253714D01*
X106656190Y-61206095D01*
X106703809Y-61158476D01*
X106751428Y-61063238D01*
X106751428Y-60872761D01*
X106703809Y-60777523D01*
X106656190Y-60729904D01*
X106560952Y-60682285D01*
%TO.C,C8*%
X110069333Y-72493142D02*
X110021714Y-72540761D01*
X109878857Y-72588380D01*
X109783619Y-72588380D01*
X109640761Y-72540761D01*
X109545523Y-72445523D01*
X109497904Y-72350285D01*
X109450285Y-72159809D01*
X109450285Y-72016952D01*
X109497904Y-71826476D01*
X109545523Y-71731238D01*
X109640761Y-71636000D01*
X109783619Y-71588380D01*
X109878857Y-71588380D01*
X110021714Y-71636000D01*
X110069333Y-71683619D01*
X110640761Y-72016952D02*
X110545523Y-71969333D01*
X110497904Y-71921714D01*
X110450285Y-71826476D01*
X110450285Y-71778857D01*
X110497904Y-71683619D01*
X110545523Y-71636000D01*
X110640761Y-71588380D01*
X110831238Y-71588380D01*
X110926476Y-71636000D01*
X110974095Y-71683619D01*
X111021714Y-71778857D01*
X111021714Y-71826476D01*
X110974095Y-71921714D01*
X110926476Y-71969333D01*
X110831238Y-72016952D01*
X110640761Y-72016952D01*
X110545523Y-72064571D01*
X110497904Y-72112190D01*
X110450285Y-72207428D01*
X110450285Y-72397904D01*
X110497904Y-72493142D01*
X110545523Y-72540761D01*
X110640761Y-72588380D01*
X110831238Y-72588380D01*
X110926476Y-72540761D01*
X110974095Y-72493142D01*
X111021714Y-72397904D01*
X111021714Y-72207428D01*
X110974095Y-72112190D01*
X110926476Y-72064571D01*
X110831238Y-72016952D01*
%TO.C,U1*%
X130302095Y-60666380D02*
X130302095Y-61475904D01*
X130349714Y-61571142D01*
X130397333Y-61618761D01*
X130492571Y-61666380D01*
X130683047Y-61666380D01*
X130778285Y-61618761D01*
X130825904Y-61571142D01*
X130873523Y-61475904D01*
X130873523Y-60666380D01*
X131873523Y-61666380D02*
X131302095Y-61666380D01*
X131587809Y-61666380D02*
X131587809Y-60666380D01*
X131492571Y-60809238D01*
X131397333Y-60904476D01*
X131302095Y-60952095D01*
%TO.C,R7*%
X91384380Y-62142666D02*
X90908190Y-62476000D01*
X91384380Y-62714095D02*
X90384380Y-62714095D01*
X90384380Y-62333142D01*
X90432000Y-62237904D01*
X90479619Y-62190285D01*
X90574857Y-62142666D01*
X90717714Y-62142666D01*
X90812952Y-62190285D01*
X90860571Y-62237904D01*
X90908190Y-62333142D01*
X90908190Y-62714095D01*
X90384380Y-61809333D02*
X90384380Y-61142666D01*
X91384380Y-61571238D01*
%TO.C,R6*%
X122880380Y-80430666D02*
X122404190Y-80764000D01*
X122880380Y-81002095D02*
X121880380Y-81002095D01*
X121880380Y-80621142D01*
X121928000Y-80525904D01*
X121975619Y-80478285D01*
X122070857Y-80430666D01*
X122213714Y-80430666D01*
X122308952Y-80478285D01*
X122356571Y-80525904D01*
X122404190Y-80621142D01*
X122404190Y-81002095D01*
X121880380Y-79573523D02*
X121880380Y-79764000D01*
X121928000Y-79859238D01*
X121975619Y-79906857D01*
X122118476Y-80002095D01*
X122308952Y-80049714D01*
X122689904Y-80049714D01*
X122785142Y-80002095D01*
X122832761Y-79954476D01*
X122880380Y-79859238D01*
X122880380Y-79668761D01*
X122832761Y-79573523D01*
X122785142Y-79525904D01*
X122689904Y-79478285D01*
X122451809Y-79478285D01*
X122356571Y-79525904D01*
X122308952Y-79573523D01*
X122261333Y-79668761D01*
X122261333Y-79859238D01*
X122308952Y-79954476D01*
X122356571Y-80002095D01*
X122451809Y-80049714D01*
%TO.C,R5*%
X125420380Y-80430666D02*
X124944190Y-80764000D01*
X125420380Y-81002095D02*
X124420380Y-81002095D01*
X124420380Y-80621142D01*
X124468000Y-80525904D01*
X124515619Y-80478285D01*
X124610857Y-80430666D01*
X124753714Y-80430666D01*
X124848952Y-80478285D01*
X124896571Y-80525904D01*
X124944190Y-80621142D01*
X124944190Y-81002095D01*
X124420380Y-79525904D02*
X124420380Y-80002095D01*
X124896571Y-80049714D01*
X124848952Y-80002095D01*
X124801333Y-79906857D01*
X124801333Y-79668761D01*
X124848952Y-79573523D01*
X124896571Y-79525904D01*
X124991809Y-79478285D01*
X125229904Y-79478285D01*
X125325142Y-79525904D01*
X125372761Y-79573523D01*
X125420380Y-79668761D01*
X125420380Y-79906857D01*
X125372761Y-80002095D01*
X125325142Y-80049714D01*
%TO.C,R4*%
X137358380Y-78398666D02*
X136882190Y-78732000D01*
X137358380Y-78970095D02*
X136358380Y-78970095D01*
X136358380Y-78589142D01*
X136406000Y-78493904D01*
X136453619Y-78446285D01*
X136548857Y-78398666D01*
X136691714Y-78398666D01*
X136786952Y-78446285D01*
X136834571Y-78493904D01*
X136882190Y-78589142D01*
X136882190Y-78970095D01*
X136691714Y-77541523D02*
X137358380Y-77541523D01*
X136310761Y-77779619D02*
X137025047Y-78017714D01*
X137025047Y-77398666D01*
%TO.C,R3*%
X138628380Y-78398666D02*
X138152190Y-78732000D01*
X138628380Y-78970095D02*
X137628380Y-78970095D01*
X137628380Y-78589142D01*
X137676000Y-78493904D01*
X137723619Y-78446285D01*
X137818857Y-78398666D01*
X137961714Y-78398666D01*
X138056952Y-78446285D01*
X138104571Y-78493904D01*
X138152190Y-78589142D01*
X138152190Y-78970095D01*
X137628380Y-78065333D02*
X137628380Y-77446285D01*
X138009333Y-77779619D01*
X138009333Y-77636761D01*
X138056952Y-77541523D01*
X138104571Y-77493904D01*
X138199809Y-77446285D01*
X138437904Y-77446285D01*
X138533142Y-77493904D01*
X138580761Y-77541523D01*
X138628380Y-77636761D01*
X138628380Y-77922476D01*
X138580761Y-78017714D01*
X138533142Y-78065333D01*
%TO.C,R2*%
X127960380Y-80430666D02*
X127484190Y-80764000D01*
X127960380Y-81002095D02*
X126960380Y-81002095D01*
X126960380Y-80621142D01*
X127008000Y-80525904D01*
X127055619Y-80478285D01*
X127150857Y-80430666D01*
X127293714Y-80430666D01*
X127388952Y-80478285D01*
X127436571Y-80525904D01*
X127484190Y-80621142D01*
X127484190Y-81002095D01*
X127055619Y-80049714D02*
X127008000Y-80002095D01*
X126960380Y-79906857D01*
X126960380Y-79668761D01*
X127008000Y-79573523D01*
X127055619Y-79525904D01*
X127150857Y-79478285D01*
X127246095Y-79478285D01*
X127388952Y-79525904D01*
X127960380Y-80097333D01*
X127960380Y-79478285D01*
%TO.C,R1*%
X130500380Y-80430666D02*
X130024190Y-80764000D01*
X130500380Y-81002095D02*
X129500380Y-81002095D01*
X129500380Y-80621142D01*
X129548000Y-80525904D01*
X129595619Y-80478285D01*
X129690857Y-80430666D01*
X129833714Y-80430666D01*
X129928952Y-80478285D01*
X129976571Y-80525904D01*
X130024190Y-80621142D01*
X130024190Y-81002095D01*
X130500380Y-79478285D02*
X130500380Y-80049714D01*
X130500380Y-79764000D02*
X129500380Y-79764000D01*
X129643238Y-79859238D01*
X129738476Y-79954476D01*
X129786095Y-80049714D01*
%TO.C,C11*%
X127881142Y-92305142D02*
X127833523Y-92352761D01*
X127690666Y-92400380D01*
X127595428Y-92400380D01*
X127452571Y-92352761D01*
X127357333Y-92257523D01*
X127309714Y-92162285D01*
X127262095Y-91971809D01*
X127262095Y-91828952D01*
X127309714Y-91638476D01*
X127357333Y-91543238D01*
X127452571Y-91448000D01*
X127595428Y-91400380D01*
X127690666Y-91400380D01*
X127833523Y-91448000D01*
X127881142Y-91495619D01*
X128833523Y-92400380D02*
X128262095Y-92400380D01*
X128547809Y-92400380D02*
X128547809Y-91400380D01*
X128452571Y-91543238D01*
X128357333Y-91638476D01*
X128262095Y-91686095D01*
X129785904Y-92400380D02*
X129214476Y-92400380D01*
X129500190Y-92400380D02*
X129500190Y-91400380D01*
X129404952Y-91543238D01*
X129309714Y-91638476D01*
X129214476Y-91686095D01*
%TO.C,C5*%
X120229333Y-74525142D02*
X120181714Y-74572761D01*
X120038857Y-74620380D01*
X119943619Y-74620380D01*
X119800761Y-74572761D01*
X119705523Y-74477523D01*
X119657904Y-74382285D01*
X119610285Y-74191809D01*
X119610285Y-74048952D01*
X119657904Y-73858476D01*
X119705523Y-73763238D01*
X119800761Y-73668000D01*
X119943619Y-73620380D01*
X120038857Y-73620380D01*
X120181714Y-73668000D01*
X120229333Y-73715619D01*
X121134095Y-73620380D02*
X120657904Y-73620380D01*
X120610285Y-74096571D01*
X120657904Y-74048952D01*
X120753142Y-74001333D01*
X120991238Y-74001333D01*
X121086476Y-74048952D01*
X121134095Y-74096571D01*
X121181714Y-74191809D01*
X121181714Y-74429904D01*
X121134095Y-74525142D01*
X121086476Y-74572761D01*
X120991238Y-74620380D01*
X120753142Y-74620380D01*
X120657904Y-74572761D01*
X120610285Y-74525142D01*
%TO.C,C4*%
X130389333Y-74525142D02*
X130341714Y-74572761D01*
X130198857Y-74620380D01*
X130103619Y-74620380D01*
X129960761Y-74572761D01*
X129865523Y-74477523D01*
X129817904Y-74382285D01*
X129770285Y-74191809D01*
X129770285Y-74048952D01*
X129817904Y-73858476D01*
X129865523Y-73763238D01*
X129960761Y-73668000D01*
X130103619Y-73620380D01*
X130198857Y-73620380D01*
X130341714Y-73668000D01*
X130389333Y-73715619D01*
X131246476Y-73953714D02*
X131246476Y-74620380D01*
X131008380Y-73572761D02*
X130770285Y-74287047D01*
X131389333Y-74287047D01*
%TO.C,C1*%
X131421142Y-70270666D02*
X131468761Y-70318285D01*
X131516380Y-70461142D01*
X131516380Y-70556380D01*
X131468761Y-70699238D01*
X131373523Y-70794476D01*
X131278285Y-70842095D01*
X131087809Y-70889714D01*
X130944952Y-70889714D01*
X130754476Y-70842095D01*
X130659238Y-70794476D01*
X130564000Y-70699238D01*
X130516380Y-70556380D01*
X130516380Y-70461142D01*
X130564000Y-70318285D01*
X130611619Y-70270666D01*
X131516380Y-69318285D02*
X131516380Y-69889714D01*
X131516380Y-69604000D02*
X130516380Y-69604000D01*
X130659238Y-69699238D01*
X130754476Y-69794476D01*
X130802095Y-69889714D01*
%TD*%
M02*
