M48
; DRILL file {KiCad (5.1.6-0)} date Monday, March 27, 2023 at 09:53:38 PM
; FORMAT={-:-/ absolute / inch / decimal}
; #@! TF.CreationDate,2023-03-27T21:53:38-07:00
; #@! TF.GenerationSoftware,Kicad,Pcbnew,(5.1.6-0)
; #@! TF.FileFunction,Plated,1,2,PTH
FMAT,2
INCH
T1C0.0118
T2C0.0157
T3C0.0315
T4C0.0394
T5C0.0472
T6C0.0512
%
G90
G05
T1
X3.4Y-2.8
X3.66Y-3.14
X3.86Y-2.74
X3.86Y-3.84
X3.88Y-3.24
X3.98Y-3.04
X4.0Y-2.68
X4.08Y-2.84
X4.12Y-2.62
X4.14Y-2.76
X4.14Y-2.92
X4.16Y-3.54
X4.2Y-2.68
X4.46Y-3.54
X4.5Y-3.04
X4.5Y-3.16
X4.5Y-3.28
X4.62Y-3.36
X4.72Y-3.0
X4.8Y-2.64
X4.8Y-3.16
X4.8Y-3.4
X4.82Y-3.62
X4.88Y-3.7
X4.9Y-2.44
X4.96Y-3.16
X4.98Y-3.4
X5.0Y-2.88
X5.04Y-2.62
X5.08Y-3.14
X5.12Y-2.88
X5.14Y-2.48
X5.18Y-3.14
X5.18Y-3.32
X5.22Y-3.14
X5.24Y-3.42
X5.26Y-3.14
X5.3Y-3.14
X5.32Y-2.82
X5.34Y-3.14
X5.38Y-3.14
X5.44Y-3.0
T2
X3.7Y-2.42
T3
X3.36Y-2.48
X3.36Y-2.6178
X4.0816Y-3.14
X4.18Y-3.14
X4.0Y-2.5016
X4.0Y-2.6
T4
X4.33Y-3.41
X4.63Y-2.91
X4.35Y-2.74
X4.4169Y-2.54
X4.4839Y-2.74
X4.5508Y-2.54
X4.6177Y-2.74
X4.6846Y-2.54
X4.7516Y-2.74
X4.8185Y-2.54
X4.8854Y-2.74
X4.9524Y-2.54
X5.0193Y-2.74
T5
X3.5647Y-3.6
X3.86Y-3.6
X3.5647Y-2.92
X3.86Y-2.92
X5.34Y-3.24
X5.34Y-3.3778
X5.34Y-3.5156
T6
X4.32Y-3.74
X4.52Y-3.74
X3.14Y-3.08
X3.14Y-3.28
X3.14Y-3.48
T0
M30
