%TF.GenerationSoftware,KiCad,Pcbnew,(5.1.6-0)*%
%TF.CreationDate,2023-03-27T21:53:34-07:00*%
%TF.ProjectId,LM3886-bal-no15v-th,4c4d3338-3836-42d6-9261-6c2d6e6f3135,rev?*%
%TF.SameCoordinates,Original*%
%TF.FileFunction,Copper,L1,Top*%
%TF.FilePolarity,Positive*%
%FSLAX46Y46*%
G04 Gerber Fmt 4.6, Leading zero omitted, Abs format (unit mm)*
G04 Created by KiCad (PCBNEW (5.1.6-0)) date 2023-03-27 21:53:34*
%MOMM*%
%LPD*%
G01*
G04 APERTURE LIST*
%TA.AperFunction,ComponentPad*%
%ADD10C,1.600000*%
%TD*%
%TA.AperFunction,ComponentPad*%
%ADD11R,1.600000X1.600000*%
%TD*%
%TA.AperFunction,ComponentPad*%
%ADD12C,2.400000*%
%TD*%
%TA.AperFunction,ComponentPad*%
%ADD13R,2.400000X2.400000*%
%TD*%
%TA.AperFunction,ComponentPad*%
%ADD14C,2.600000*%
%TD*%
%TA.AperFunction,ComponentPad*%
%ADD15C,2.000000*%
%TD*%
%TA.AperFunction,ComponentPad*%
%ADD16O,1.800000X1.800000*%
%TD*%
%TA.AperFunction,ComponentPad*%
%ADD17R,1.800000X1.800000*%
%TD*%
%TA.AperFunction,ViaPad*%
%ADD18C,0.700000*%
%TD*%
%TA.AperFunction,ViaPad*%
%ADD19C,0.800000*%
%TD*%
%TA.AperFunction,Conductor*%
%ADD20C,1.000000*%
%TD*%
%TA.AperFunction,Conductor*%
%ADD21C,0.300000*%
%TD*%
%TA.AperFunction,Conductor*%
%ADD22C,3.000000*%
%TD*%
%TA.AperFunction,Conductor*%
%ADD23C,0.254000*%
%TD*%
G04 APERTURE END LIST*
D10*
%TO.P,C10,2*%
%TO.N,VEE*%
X85344000Y-66492000D03*
D11*
%TO.P,C10,1*%
%TO.N,GND*%
X85344000Y-62992000D03*
%TD*%
D10*
%TO.P,C7,2*%
%TO.N,VEE*%
X101600000Y-63540000D03*
D11*
%TO.P,C7,1*%
%TO.N,GND*%
X101600000Y-66040000D03*
%TD*%
D10*
%TO.P,C6,2*%
%TO.N,GND*%
X103672000Y-79756000D03*
D11*
%TO.P,C6,1*%
%TO.N,VCC*%
X106172000Y-79756000D03*
%TD*%
D12*
%TO.P,C3,2*%
%TO.N,VEE*%
X90544000Y-74168000D03*
D13*
%TO.P,C3,1*%
%TO.N,GND*%
X98044000Y-74168000D03*
%TD*%
D12*
%TO.P,C2,2*%
%TO.N,GND*%
X90544000Y-91440000D03*
D13*
%TO.P,C2,1*%
%TO.N,VCC*%
X98044000Y-91440000D03*
%TD*%
D12*
%TO.P,J1,3*%
%TO.N,/IN-*%
X135636000Y-89296000D03*
%TO.P,J1,2*%
%TO.N,/IN+*%
X135636000Y-85796000D03*
D13*
%TO.P,J1,1*%
%TO.N,GND*%
X135636000Y-82296000D03*
%TD*%
D14*
%TO.P,J3,3*%
%TO.N,GND*%
X79756000Y-88392000D03*
%TO.P,J3,2*%
%TO.N,VCC*%
X79756000Y-83312000D03*
%TO.P,J3,1*%
%TO.N,VEE*%
X79756000Y-78232000D03*
%TD*%
%TO.P,J2,2*%
%TO.N,GND*%
X114808000Y-94996000D03*
%TO.P,J2,1*%
%TO.N,Net-(J2-Pad1)*%
X109728000Y-94996000D03*
%TD*%
D15*
%TO.P,L1,2*%
%TO.N,Net-(J2-Pad1)*%
X109982000Y-86614000D03*
%TO.P,L1,1*%
%TO.N,/SIGOUT*%
X117602000Y-73914000D03*
%TD*%
%TO.P,R9,2*%
%TO.N,/SIGOUT*%
%TA.AperFunction,SMDPad,CuDef*%
G36*
G01*
X123345001Y-84135000D02*
X120494999Y-84135000D01*
G75*
G02*
X120245000Y-83885001I0J249999D01*
G01*
X120245000Y-83034999D01*
G75*
G02*
X120494999Y-82785000I249999J0D01*
G01*
X123345001Y-82785000D01*
G75*
G02*
X123595000Y-83034999I0J-249999D01*
G01*
X123595000Y-83885001D01*
G75*
G02*
X123345001Y-84135000I-249999J0D01*
G01*
G37*
%TD.AperFunction*%
%TO.P,R9,1*%
%TO.N,Net-(J2-Pad1)*%
%TA.AperFunction,SMDPad,CuDef*%
G36*
G01*
X123345001Y-89935000D02*
X120494999Y-89935000D01*
G75*
G02*
X120245000Y-89685001I0J249999D01*
G01*
X120245000Y-88834999D01*
G75*
G02*
X120494999Y-88585000I249999J0D01*
G01*
X123345001Y-88585000D01*
G75*
G02*
X123595000Y-88834999I0J-249999D01*
G01*
X123595000Y-89685001D01*
G75*
G02*
X123345001Y-89935000I-249999J0D01*
G01*
G37*
%TD.AperFunction*%
%TD*%
%TO.P,R8,2*%
%TO.N,Net-(C11-Pad1)*%
%TA.AperFunction,SMDPad,CuDef*%
G36*
G01*
X125066999Y-88585000D02*
X127917001Y-88585000D01*
G75*
G02*
X128167000Y-88834999I0J-249999D01*
G01*
X128167000Y-89685001D01*
G75*
G02*
X127917001Y-89935000I-249999J0D01*
G01*
X125066999Y-89935000D01*
G75*
G02*
X124817000Y-89685001I0J249999D01*
G01*
X124817000Y-88834999D01*
G75*
G02*
X125066999Y-88585000I249999J0D01*
G01*
G37*
%TD.AperFunction*%
%TO.P,R8,1*%
%TO.N,/SIGOUT*%
%TA.AperFunction,SMDPad,CuDef*%
G36*
G01*
X125066999Y-82785000D02*
X127917001Y-82785000D01*
G75*
G02*
X128167000Y-83034999I0J-249999D01*
G01*
X128167000Y-83885001D01*
G75*
G02*
X127917001Y-84135000I-249999J0D01*
G01*
X125066999Y-84135000D01*
G75*
G02*
X124817000Y-83885001I0J249999D01*
G01*
X124817000Y-83034999D01*
G75*
G02*
X125066999Y-82785000I249999J0D01*
G01*
G37*
%TD.AperFunction*%
%TD*%
%TO.P,C9,2*%
%TO.N,VEE*%
%TA.AperFunction,SMDPad,CuDef*%
G36*
G01*
X107305000Y-64249000D02*
X106055000Y-64249000D01*
G75*
G02*
X105805000Y-63999000I0J250000D01*
G01*
X105805000Y-63249000D01*
G75*
G02*
X106055000Y-62999000I250000J0D01*
G01*
X107305000Y-62999000D01*
G75*
G02*
X107555000Y-63249000I0J-250000D01*
G01*
X107555000Y-63999000D01*
G75*
G02*
X107305000Y-64249000I-250000J0D01*
G01*
G37*
%TD.AperFunction*%
%TO.P,C9,1*%
%TO.N,GND*%
%TA.AperFunction,SMDPad,CuDef*%
G36*
G01*
X107305000Y-67049000D02*
X106055000Y-67049000D01*
G75*
G02*
X105805000Y-66799000I0J250000D01*
G01*
X105805000Y-66049000D01*
G75*
G02*
X106055000Y-65799000I250000J0D01*
G01*
X107305000Y-65799000D01*
G75*
G02*
X107555000Y-66049000I0J-250000D01*
G01*
X107555000Y-66799000D01*
G75*
G02*
X107305000Y-67049000I-250000J0D01*
G01*
G37*
%TD.AperFunction*%
%TD*%
%TO.P,C8,2*%
%TO.N,GND*%
%TA.AperFunction,SMDPad,CuDef*%
G36*
G01*
X105905000Y-71511000D02*
X105905000Y-72761000D01*
G75*
G02*
X105655000Y-73011000I-250000J0D01*
G01*
X104905000Y-73011000D01*
G75*
G02*
X104655000Y-72761000I0J250000D01*
G01*
X104655000Y-71511000D01*
G75*
G02*
X104905000Y-71261000I250000J0D01*
G01*
X105655000Y-71261000D01*
G75*
G02*
X105905000Y-71511000I0J-250000D01*
G01*
G37*
%TD.AperFunction*%
%TO.P,C8,1*%
%TO.N,VCC*%
%TA.AperFunction,SMDPad,CuDef*%
G36*
G01*
X108705000Y-71511000D02*
X108705000Y-72761000D01*
G75*
G02*
X108455000Y-73011000I-250000J0D01*
G01*
X107705000Y-73011000D01*
G75*
G02*
X107455000Y-72761000I0J250000D01*
G01*
X107455000Y-71511000D01*
G75*
G02*
X107705000Y-71261000I250000J0D01*
G01*
X108455000Y-71261000D01*
G75*
G02*
X108705000Y-71511000I0J-250000D01*
G01*
G37*
%TD.AperFunction*%
%TD*%
D16*
%TO.P,U1,11*%
%TO.N,Net-(U1-Pad11)*%
X127490000Y-69596000D03*
%TO.P,U1,10*%
%TO.N,/ICIN+*%
X125790000Y-64516000D03*
%TO.P,U1,9*%
%TO.N,/ICIN-*%
X124090000Y-69596000D03*
%TO.P,U1,8*%
%TO.N,/MUTE*%
X122390000Y-64516000D03*
%TO.P,U1,7*%
%TO.N,GND*%
X120690000Y-69596000D03*
%TO.P,U1,6*%
%TO.N,Net-(U1-Pad6)*%
X118990000Y-64516000D03*
%TO.P,U1,5*%
%TO.N,VCC*%
X117290000Y-69596000D03*
%TO.P,U1,4*%
%TO.N,VEE*%
X115590000Y-64516000D03*
%TO.P,U1,3*%
%TO.N,/SIGOUT*%
X113890000Y-69596000D03*
%TO.P,U1,2*%
%TO.N,Net-(U1-Pad2)*%
X112190000Y-64516000D03*
D17*
%TO.P,U1,1*%
%TO.N,VCC*%
X110490000Y-69596000D03*
%TD*%
%TO.P,R7,2*%
%TO.N,/MUTE*%
%TA.AperFunction,SMDPad,CuDef*%
G36*
G01*
X92912250Y-62034000D02*
X91999750Y-62034000D01*
G75*
G02*
X91756000Y-61790250I0J243750D01*
G01*
X91756000Y-61302750D01*
G75*
G02*
X91999750Y-61059000I243750J0D01*
G01*
X92912250Y-61059000D01*
G75*
G02*
X93156000Y-61302750I0J-243750D01*
G01*
X93156000Y-61790250D01*
G75*
G02*
X92912250Y-62034000I-243750J0D01*
G01*
G37*
%TD.AperFunction*%
%TO.P,R7,1*%
%TO.N,VEE*%
%TA.AperFunction,SMDPad,CuDef*%
G36*
G01*
X92912250Y-63909000D02*
X91999750Y-63909000D01*
G75*
G02*
X91756000Y-63665250I0J243750D01*
G01*
X91756000Y-63177750D01*
G75*
G02*
X91999750Y-62934000I243750J0D01*
G01*
X92912250Y-62934000D01*
G75*
G02*
X93156000Y-63177750I0J-243750D01*
G01*
X93156000Y-63665250D01*
G75*
G02*
X92912250Y-63909000I-243750J0D01*
G01*
G37*
%TD.AperFunction*%
%TD*%
%TO.P,R6,2*%
%TO.N,Net-(C5-Pad1)*%
%TA.AperFunction,SMDPad,CuDef*%
G36*
G01*
X122884250Y-76766000D02*
X121971750Y-76766000D01*
G75*
G02*
X121728000Y-76522250I0J243750D01*
G01*
X121728000Y-76034750D01*
G75*
G02*
X121971750Y-75791000I243750J0D01*
G01*
X122884250Y-75791000D01*
G75*
G02*
X123128000Y-76034750I0J-243750D01*
G01*
X123128000Y-76522250D01*
G75*
G02*
X122884250Y-76766000I-243750J0D01*
G01*
G37*
%TD.AperFunction*%
%TO.P,R6,1*%
%TO.N,/SIGOUT*%
%TA.AperFunction,SMDPad,CuDef*%
G36*
G01*
X122884250Y-78641000D02*
X121971750Y-78641000D01*
G75*
G02*
X121728000Y-78397250I0J243750D01*
G01*
X121728000Y-77909750D01*
G75*
G02*
X121971750Y-77666000I243750J0D01*
G01*
X122884250Y-77666000D01*
G75*
G02*
X123128000Y-77909750I0J-243750D01*
G01*
X123128000Y-78397250D01*
G75*
G02*
X122884250Y-78641000I-243750J0D01*
G01*
G37*
%TD.AperFunction*%
%TD*%
%TO.P,R5,2*%
%TO.N,/ICIN-*%
%TA.AperFunction,SMDPad,CuDef*%
G36*
G01*
X125424250Y-76766000D02*
X124511750Y-76766000D01*
G75*
G02*
X124268000Y-76522250I0J243750D01*
G01*
X124268000Y-76034750D01*
G75*
G02*
X124511750Y-75791000I243750J0D01*
G01*
X125424250Y-75791000D01*
G75*
G02*
X125668000Y-76034750I0J-243750D01*
G01*
X125668000Y-76522250D01*
G75*
G02*
X125424250Y-76766000I-243750J0D01*
G01*
G37*
%TD.AperFunction*%
%TO.P,R5,1*%
%TO.N,/SIGOUT*%
%TA.AperFunction,SMDPad,CuDef*%
G36*
G01*
X125424250Y-78641000D02*
X124511750Y-78641000D01*
G75*
G02*
X124268000Y-78397250I0J243750D01*
G01*
X124268000Y-77909750D01*
G75*
G02*
X124511750Y-77666000I243750J0D01*
G01*
X125424250Y-77666000D01*
G75*
G02*
X125668000Y-77909750I0J-243750D01*
G01*
X125668000Y-78397250D01*
G75*
G02*
X125424250Y-78641000I-243750J0D01*
G01*
G37*
%TD.AperFunction*%
%TD*%
%TO.P,R4,2*%
%TO.N,/ICIN+*%
%TA.AperFunction,SMDPad,CuDef*%
G36*
G01*
X133044250Y-76766000D02*
X132131750Y-76766000D01*
G75*
G02*
X131888000Y-76522250I0J243750D01*
G01*
X131888000Y-76034750D01*
G75*
G02*
X132131750Y-75791000I243750J0D01*
G01*
X133044250Y-75791000D01*
G75*
G02*
X133288000Y-76034750I0J-243750D01*
G01*
X133288000Y-76522250D01*
G75*
G02*
X133044250Y-76766000I-243750J0D01*
G01*
G37*
%TD.AperFunction*%
%TO.P,R4,1*%
%TO.N,GND*%
%TA.AperFunction,SMDPad,CuDef*%
G36*
G01*
X133044250Y-78641000D02*
X132131750Y-78641000D01*
G75*
G02*
X131888000Y-78397250I0J243750D01*
G01*
X131888000Y-77909750D01*
G75*
G02*
X132131750Y-77666000I243750J0D01*
G01*
X133044250Y-77666000D01*
G75*
G02*
X133288000Y-77909750I0J-243750D01*
G01*
X133288000Y-78397250D01*
G75*
G02*
X133044250Y-78641000I-243750J0D01*
G01*
G37*
%TD.AperFunction*%
%TD*%
%TO.P,R3,2*%
%TO.N,Net-(C4-Pad2)*%
%TA.AperFunction,SMDPad,CuDef*%
G36*
G01*
X135584250Y-76766000D02*
X134671750Y-76766000D01*
G75*
G02*
X134428000Y-76522250I0J243750D01*
G01*
X134428000Y-76034750D01*
G75*
G02*
X134671750Y-75791000I243750J0D01*
G01*
X135584250Y-75791000D01*
G75*
G02*
X135828000Y-76034750I0J-243750D01*
G01*
X135828000Y-76522250D01*
G75*
G02*
X135584250Y-76766000I-243750J0D01*
G01*
G37*
%TD.AperFunction*%
%TO.P,R3,1*%
%TO.N,GND*%
%TA.AperFunction,SMDPad,CuDef*%
G36*
G01*
X135584250Y-78641000D02*
X134671750Y-78641000D01*
G75*
G02*
X134428000Y-78397250I0J243750D01*
G01*
X134428000Y-77909750D01*
G75*
G02*
X134671750Y-77666000I243750J0D01*
G01*
X135584250Y-77666000D01*
G75*
G02*
X135828000Y-77909750I0J-243750D01*
G01*
X135828000Y-78397250D01*
G75*
G02*
X135584250Y-78641000I-243750J0D01*
G01*
G37*
%TD.AperFunction*%
%TD*%
%TO.P,R2,2*%
%TO.N,/IN-*%
%TA.AperFunction,SMDPad,CuDef*%
G36*
G01*
X127051750Y-77666000D02*
X127964250Y-77666000D01*
G75*
G02*
X128208000Y-77909750I0J-243750D01*
G01*
X128208000Y-78397250D01*
G75*
G02*
X127964250Y-78641000I-243750J0D01*
G01*
X127051750Y-78641000D01*
G75*
G02*
X126808000Y-78397250I0J243750D01*
G01*
X126808000Y-77909750D01*
G75*
G02*
X127051750Y-77666000I243750J0D01*
G01*
G37*
%TD.AperFunction*%
%TO.P,R2,1*%
%TO.N,/ICIN-*%
%TA.AperFunction,SMDPad,CuDef*%
G36*
G01*
X127051750Y-75791000D02*
X127964250Y-75791000D01*
G75*
G02*
X128208000Y-76034750I0J-243750D01*
G01*
X128208000Y-76522250D01*
G75*
G02*
X127964250Y-76766000I-243750J0D01*
G01*
X127051750Y-76766000D01*
G75*
G02*
X126808000Y-76522250I0J243750D01*
G01*
X126808000Y-76034750D01*
G75*
G02*
X127051750Y-75791000I243750J0D01*
G01*
G37*
%TD.AperFunction*%
%TD*%
%TO.P,R1,2*%
%TO.N,/IN+*%
%TA.AperFunction,SMDPad,CuDef*%
G36*
G01*
X129591750Y-77666000D02*
X130504250Y-77666000D01*
G75*
G02*
X130748000Y-77909750I0J-243750D01*
G01*
X130748000Y-78397250D01*
G75*
G02*
X130504250Y-78641000I-243750J0D01*
G01*
X129591750Y-78641000D01*
G75*
G02*
X129348000Y-78397250I0J243750D01*
G01*
X129348000Y-77909750D01*
G75*
G02*
X129591750Y-77666000I243750J0D01*
G01*
G37*
%TD.AperFunction*%
%TO.P,R1,1*%
%TO.N,/ICIN+*%
%TA.AperFunction,SMDPad,CuDef*%
G36*
G01*
X129591750Y-75791000D02*
X130504250Y-75791000D01*
G75*
G02*
X130748000Y-76034750I0J-243750D01*
G01*
X130748000Y-76522250D01*
G75*
G02*
X130504250Y-76766000I-243750J0D01*
G01*
X129591750Y-76766000D01*
G75*
G02*
X129348000Y-76522250I0J243750D01*
G01*
X129348000Y-76034750D01*
G75*
G02*
X129591750Y-75791000I243750J0D01*
G01*
G37*
%TD.AperFunction*%
%TD*%
%TO.P,C11,2*%
%TO.N,GND*%
%TA.AperFunction,SMDPad,CuDef*%
G36*
G01*
X124518000Y-91491750D02*
X124518000Y-92404250D01*
G75*
G02*
X124274250Y-92648000I-243750J0D01*
G01*
X123786750Y-92648000D01*
G75*
G02*
X123543000Y-92404250I0J243750D01*
G01*
X123543000Y-91491750D01*
G75*
G02*
X123786750Y-91248000I243750J0D01*
G01*
X124274250Y-91248000D01*
G75*
G02*
X124518000Y-91491750I0J-243750D01*
G01*
G37*
%TD.AperFunction*%
%TO.P,C11,1*%
%TO.N,Net-(C11-Pad1)*%
%TA.AperFunction,SMDPad,CuDef*%
G36*
G01*
X126393000Y-91491750D02*
X126393000Y-92404250D01*
G75*
G02*
X126149250Y-92648000I-243750J0D01*
G01*
X125661750Y-92648000D01*
G75*
G02*
X125418000Y-92404250I0J243750D01*
G01*
X125418000Y-91491750D01*
G75*
G02*
X125661750Y-91248000I243750J0D01*
G01*
X126149250Y-91248000D01*
G75*
G02*
X126393000Y-91491750I0J-243750D01*
G01*
G37*
%TD.AperFunction*%
%TD*%
%TO.P,C5,2*%
%TO.N,/ICIN-*%
%TA.AperFunction,SMDPad,CuDef*%
G36*
G01*
X123894000Y-74624250D02*
X123894000Y-73711750D01*
G75*
G02*
X124137750Y-73468000I243750J0D01*
G01*
X124625250Y-73468000D01*
G75*
G02*
X124869000Y-73711750I0J-243750D01*
G01*
X124869000Y-74624250D01*
G75*
G02*
X124625250Y-74868000I-243750J0D01*
G01*
X124137750Y-74868000D01*
G75*
G02*
X123894000Y-74624250I0J243750D01*
G01*
G37*
%TD.AperFunction*%
%TO.P,C5,1*%
%TO.N,Net-(C5-Pad1)*%
%TA.AperFunction,SMDPad,CuDef*%
G36*
G01*
X122019000Y-74624250D02*
X122019000Y-73711750D01*
G75*
G02*
X122262750Y-73468000I243750J0D01*
G01*
X122750250Y-73468000D01*
G75*
G02*
X122994000Y-73711750I0J-243750D01*
G01*
X122994000Y-74624250D01*
G75*
G02*
X122750250Y-74868000I-243750J0D01*
G01*
X122262750Y-74868000D01*
G75*
G02*
X122019000Y-74624250I0J243750D01*
G01*
G37*
%TD.AperFunction*%
%TD*%
%TO.P,C4,2*%
%TO.N,Net-(C4-Pad2)*%
%TA.AperFunction,SMDPad,CuDef*%
G36*
G01*
X134054000Y-74624250D02*
X134054000Y-73711750D01*
G75*
G02*
X134297750Y-73468000I243750J0D01*
G01*
X134785250Y-73468000D01*
G75*
G02*
X135029000Y-73711750I0J-243750D01*
G01*
X135029000Y-74624250D01*
G75*
G02*
X134785250Y-74868000I-243750J0D01*
G01*
X134297750Y-74868000D01*
G75*
G02*
X134054000Y-74624250I0J243750D01*
G01*
G37*
%TD.AperFunction*%
%TO.P,C4,1*%
%TO.N,/ICIN+*%
%TA.AperFunction,SMDPad,CuDef*%
G36*
G01*
X132179000Y-74624250D02*
X132179000Y-73711750D01*
G75*
G02*
X132422750Y-73468000I243750J0D01*
G01*
X132910250Y-73468000D01*
G75*
G02*
X133154000Y-73711750I0J-243750D01*
G01*
X133154000Y-74624250D01*
G75*
G02*
X132910250Y-74868000I-243750J0D01*
G01*
X132422750Y-74868000D01*
G75*
G02*
X132179000Y-74624250I0J243750D01*
G01*
G37*
%TD.AperFunction*%
%TD*%
%TO.P,C1,2*%
%TO.N,/ICIN+*%
%TA.AperFunction,SMDPad,CuDef*%
G36*
G01*
X131520250Y-66606000D02*
X130607750Y-66606000D01*
G75*
G02*
X130364000Y-66362250I0J243750D01*
G01*
X130364000Y-65874750D01*
G75*
G02*
X130607750Y-65631000I243750J0D01*
G01*
X131520250Y-65631000D01*
G75*
G02*
X131764000Y-65874750I0J-243750D01*
G01*
X131764000Y-66362250D01*
G75*
G02*
X131520250Y-66606000I-243750J0D01*
G01*
G37*
%TD.AperFunction*%
%TO.P,C1,1*%
%TO.N,/ICIN-*%
%TA.AperFunction,SMDPad,CuDef*%
G36*
G01*
X131520250Y-68481000D02*
X130607750Y-68481000D01*
G75*
G02*
X130364000Y-68237250I0J243750D01*
G01*
X130364000Y-67749750D01*
G75*
G02*
X130607750Y-67506000I243750J0D01*
G01*
X131520250Y-67506000D01*
G75*
G02*
X131764000Y-67749750I0J-243750D01*
G01*
X131764000Y-68237250D01*
G75*
G02*
X131520250Y-68481000I-243750J0D01*
G01*
G37*
%TD.AperFunction*%
%TD*%
D18*
%TO.N,GND*%
X133096000Y-86868000D03*
X131572000Y-84328000D03*
X129032000Y-79756000D03*
X105664000Y-89916000D03*
X98044000Y-97536000D03*
X92964000Y-79756000D03*
X98552000Y-82296000D03*
X101600000Y-68072000D03*
X101092000Y-77216000D03*
X86360000Y-71120000D03*
X98044000Y-69596000D03*
X103632000Y-72136000D03*
X105156000Y-74168000D03*
X105156000Y-70104000D03*
X106680000Y-68072000D03*
X104648000Y-66548000D03*
X122428000Y-91948000D03*
X123952000Y-93980000D03*
X132588000Y-79756000D03*
X134620000Y-79756000D03*
X131572000Y-79756000D03*
X135636000Y-79756000D03*
X114300000Y-77216000D03*
X114300000Y-80264000D03*
X114300000Y-83312000D03*
X117348000Y-85344000D03*
X121920000Y-86360000D03*
X126492000Y-86360000D03*
X121920000Y-80264000D03*
X125984000Y-80264000D03*
X119888000Y-76200000D03*
X127000000Y-73152000D03*
X130048000Y-73152000D03*
X121920000Y-67056000D03*
X128016000Y-66548000D03*
X130556000Y-62992000D03*
X135128000Y-71628000D03*
X138176000Y-76200000D03*
X113284000Y-89916000D03*
X124460000Y-61976000D03*
X133604000Y-79756000D03*
X136652000Y-79756000D03*
D19*
%TO.N,/MUTE*%
X93980000Y-61468000D03*
%TD*%
D20*
%TO.N,Net-(C4-Pad2)*%
X134541500Y-75692000D02*
X135128000Y-76278500D01*
X134541500Y-74168000D02*
X134541500Y-75692000D01*
%TO.N,Net-(C5-Pad1)*%
X122506500Y-76200000D02*
X122428000Y-76278500D01*
X122506500Y-74168000D02*
X122506500Y-76200000D01*
%TO.N,Net-(C11-Pad1)*%
X125905500Y-89338500D02*
X125984000Y-89260000D01*
X125905500Y-91948000D02*
X125905500Y-89338500D01*
%TO.N,/ICIN+*%
X132666500Y-76200000D02*
X132588000Y-76278500D01*
X132666500Y-74168000D02*
X132666500Y-76200000D01*
X132588000Y-76278500D02*
X130048000Y-76278500D01*
D21*
X129461500Y-64516000D02*
X131064000Y-66118500D01*
X125790000Y-64516000D02*
X129461500Y-64516000D01*
X132666500Y-74168000D02*
X132666500Y-66626500D01*
X132158500Y-66118500D02*
X131064000Y-66118500D01*
X132666500Y-66626500D02*
X132158500Y-66118500D01*
D20*
%TO.N,/ICIN-*%
X124381500Y-75692000D02*
X124968000Y-76278500D01*
X124381500Y-74168000D02*
X124381500Y-75692000D01*
X127508000Y-76278500D02*
X124968000Y-76278500D01*
D21*
X124090000Y-73876500D02*
X124381500Y-74168000D01*
X124090000Y-69596000D02*
X124090000Y-73876500D01*
X125692500Y-67993500D02*
X124090000Y-69596000D01*
X131064000Y-67993500D02*
X125692500Y-67993500D01*
%TO.N,/IN+*%
X135636000Y-85796000D02*
X133548000Y-85796000D01*
X133548000Y-85796000D02*
X132588000Y-84836000D01*
X132588000Y-84836000D02*
X132588000Y-82804000D01*
X130048000Y-80264000D02*
X130048000Y-78153500D01*
X132588000Y-82804000D02*
X130048000Y-80264000D01*
%TO.N,/IN-*%
X127508000Y-80264000D02*
X127508000Y-78153500D01*
X133492000Y-89296000D02*
X130048000Y-85852000D01*
X130048000Y-82804000D02*
X127508000Y-80264000D01*
X130048000Y-85852000D02*
X130048000Y-82804000D01*
X135636000Y-89296000D02*
X133492000Y-89296000D01*
D20*
%TO.N,/SIGOUT*%
X124968000Y-78153500D02*
X122428000Y-78153500D01*
X121412000Y-83460000D02*
X125984000Y-83460000D01*
X120544000Y-83460000D02*
X121920000Y-83460000D01*
X117602000Y-80518000D02*
X120544000Y-83460000D01*
X122428000Y-78153500D02*
X117777500Y-78153500D01*
X117777500Y-78153500D02*
X117602000Y-77978000D01*
X117602000Y-77978000D02*
X117602000Y-80518000D01*
X117602000Y-73914000D02*
X117602000Y-77978000D01*
%TO.N,/MUTE*%
X93901500Y-61546500D02*
X93980000Y-61468000D01*
X92456000Y-61546500D02*
X93901500Y-61546500D01*
D22*
%TO.N,Net-(J2-Pad1)*%
X109982000Y-94742000D02*
X109728000Y-94996000D01*
X109982000Y-86614000D02*
X109982000Y-94742000D01*
D20*
X121412000Y-89260000D02*
X116692000Y-89260000D01*
X114046000Y-86614000D02*
X109982000Y-86614000D01*
X116692000Y-89260000D02*
X114046000Y-86614000D01*
%TD*%
D23*
%TO.N,GND*%
G36*
X86721504Y-64058626D02*
G01*
X86733502Y-64036180D01*
X86769812Y-63916482D01*
X86782072Y-63792000D01*
X86779000Y-63277750D01*
X86620250Y-63119000D01*
X85471000Y-63119000D01*
X85471000Y-63139000D01*
X85217000Y-63139000D01*
X85217000Y-63119000D01*
X84067750Y-63119000D01*
X83909000Y-63277750D01*
X83905928Y-63792000D01*
X83918188Y-63916482D01*
X83954498Y-64036180D01*
X84013463Y-64146494D01*
X84092815Y-64243185D01*
X84189506Y-64322537D01*
X84299820Y-64381502D01*
X84351079Y-64397051D01*
X83518065Y-65230065D01*
X83464962Y-65294772D01*
X83425503Y-65368594D01*
X83401205Y-65448696D01*
X83393000Y-65532000D01*
X83393000Y-67564000D01*
X83401205Y-67647304D01*
X83425503Y-67727406D01*
X83464962Y-67801228D01*
X83518065Y-67865935D01*
X84534065Y-68881935D01*
X84598772Y-68935038D01*
X84672594Y-68974497D01*
X84752696Y-68998795D01*
X84836000Y-69007000D01*
X86691130Y-69007000D01*
X87457000Y-69772870D01*
X87457000Y-72467130D01*
X85167130Y-74757000D01*
X76708000Y-74757000D01*
X76624696Y-74765205D01*
X76544594Y-74789503D01*
X76470772Y-74828962D01*
X76406065Y-74882065D01*
X74882065Y-76406065D01*
X74828962Y-76470772D01*
X74789503Y-76544594D01*
X74765205Y-76624696D01*
X74757000Y-76708000D01*
X74757000Y-79248000D01*
X74765205Y-79331304D01*
X74789503Y-79411406D01*
X74828962Y-79485228D01*
X74882065Y-79549935D01*
X76186463Y-80854333D01*
X76116696Y-80861205D01*
X76036594Y-80885503D01*
X75962772Y-80924962D01*
X75898065Y-80978065D01*
X74374065Y-82502065D01*
X74320962Y-82566772D01*
X74281503Y-82640594D01*
X74257205Y-82720696D01*
X74249000Y-82804000D01*
X74249000Y-84836000D01*
X74257205Y-84919304D01*
X74281503Y-84999406D01*
X74320962Y-85073228D01*
X74374065Y-85137935D01*
X75898065Y-86661935D01*
X75962772Y-86715038D01*
X76036594Y-86754497D01*
X76116696Y-86778795D01*
X76200000Y-86787000D01*
X78700740Y-86787000D01*
X78586381Y-87042776D01*
X79756000Y-88212395D01*
X80925619Y-87042776D01*
X80811260Y-86787000D01*
X90755130Y-86787000D01*
X94569000Y-90600870D01*
X94569000Y-92964000D01*
X94577205Y-93047304D01*
X94601503Y-93127406D01*
X94640962Y-93201228D01*
X94694065Y-93265935D01*
X95710065Y-94281935D01*
X95774772Y-94335038D01*
X95848594Y-94374497D01*
X95928696Y-94398795D01*
X96012000Y-94407000D01*
X100076000Y-94407000D01*
X100159304Y-94398795D01*
X100239406Y-94374497D01*
X100313228Y-94335038D01*
X100377935Y-94281935D01*
X101393935Y-93265935D01*
X101447038Y-93201228D01*
X101486497Y-93127406D01*
X101510795Y-93047304D01*
X101519000Y-92964000D01*
X101519000Y-91616870D01*
X112569935Y-80565935D01*
X112623038Y-80501228D01*
X112662497Y-80427406D01*
X112686795Y-80347304D01*
X112695000Y-80264000D01*
X112695000Y-74344870D01*
X113460870Y-73579000D01*
X116213678Y-73579000D01*
X116175000Y-73773453D01*
X116175000Y-74054547D01*
X116229838Y-74330241D01*
X116337409Y-74589938D01*
X116493576Y-74823660D01*
X116675000Y-75005084D01*
X116675001Y-77932453D01*
X116675000Y-77932463D01*
X116675000Y-77932473D01*
X116670516Y-77978000D01*
X116675000Y-78023528D01*
X116675001Y-80472463D01*
X116670516Y-80518000D01*
X116675001Y-80563537D01*
X116675001Y-80563538D01*
X116688414Y-80699724D01*
X116702476Y-80746079D01*
X116741420Y-80874463D01*
X116827499Y-81035505D01*
X116914312Y-81141287D01*
X116914317Y-81141292D01*
X116943342Y-81176659D01*
X116978708Y-81205683D01*
X119845737Y-84072713D01*
X119867625Y-84144868D01*
X119930377Y-84262269D01*
X120014828Y-84365172D01*
X120117731Y-84449623D01*
X120235132Y-84512375D01*
X120362520Y-84551018D01*
X120494999Y-84564066D01*
X123345001Y-84564066D01*
X123477480Y-84551018D01*
X123604868Y-84512375D01*
X123722269Y-84449623D01*
X123798575Y-84387000D01*
X124613425Y-84387000D01*
X124689731Y-84449623D01*
X124807132Y-84512375D01*
X124934520Y-84551018D01*
X125066999Y-84564066D01*
X127917001Y-84564066D01*
X128049480Y-84551018D01*
X128176868Y-84512375D01*
X128294269Y-84449623D01*
X128397172Y-84365172D01*
X128481623Y-84262269D01*
X128544375Y-84144868D01*
X128583018Y-84017480D01*
X128596066Y-83885001D01*
X128596066Y-83034999D01*
X128583018Y-82902520D01*
X128544375Y-82775132D01*
X128481623Y-82657731D01*
X128397172Y-82554828D01*
X128294269Y-82470377D01*
X128176868Y-82407625D01*
X128049480Y-82368982D01*
X127917001Y-82355934D01*
X125066999Y-82355934D01*
X124934520Y-82368982D01*
X124807132Y-82407625D01*
X124689731Y-82470377D01*
X124613425Y-82533000D01*
X123798575Y-82533000D01*
X123722269Y-82470377D01*
X123604868Y-82407625D01*
X123477480Y-82368982D01*
X123345001Y-82355934D01*
X120750910Y-82355934D01*
X118529000Y-80134025D01*
X118529000Y-79080500D01*
X125013538Y-79080500D01*
X125119477Y-79070066D01*
X125424250Y-79070066D01*
X125555510Y-79057138D01*
X125681726Y-79018851D01*
X125798047Y-78956676D01*
X125900003Y-78873003D01*
X125983676Y-78771047D01*
X126045851Y-78654726D01*
X126084138Y-78528510D01*
X126097066Y-78397250D01*
X126097066Y-77909750D01*
X126378934Y-77909750D01*
X126378934Y-78397250D01*
X126391862Y-78528510D01*
X126430149Y-78654726D01*
X126492324Y-78771047D01*
X126575997Y-78873003D01*
X126677953Y-78956676D01*
X126794274Y-79018851D01*
X126920490Y-79057138D01*
X126931001Y-79058173D01*
X126931000Y-80235669D01*
X126928210Y-80264000D01*
X126939349Y-80377111D01*
X126954607Y-80427406D01*
X126972343Y-80485875D01*
X127025921Y-80586114D01*
X127098026Y-80673974D01*
X127120038Y-80692039D01*
X129471001Y-83043002D01*
X129471000Y-85823669D01*
X129468210Y-85852000D01*
X129479349Y-85965111D01*
X129495356Y-86017876D01*
X129512343Y-86073875D01*
X129565921Y-86174114D01*
X129638026Y-86261974D01*
X129660038Y-86280039D01*
X133063961Y-89683962D01*
X133082026Y-89705974D01*
X133169885Y-89778079D01*
X133243600Y-89817480D01*
X133270123Y-89831657D01*
X133378888Y-89864651D01*
X133492000Y-89875791D01*
X133520339Y-89873000D01*
X134113950Y-89873000D01*
X134194172Y-90066673D01*
X134372227Y-90333152D01*
X134598848Y-90559773D01*
X134865327Y-90737828D01*
X135161422Y-90860475D01*
X135475755Y-90923000D01*
X135796245Y-90923000D01*
X136110578Y-90860475D01*
X136406673Y-90737828D01*
X136673152Y-90559773D01*
X136899773Y-90333152D01*
X137077828Y-90066673D01*
X137200475Y-89770578D01*
X137263000Y-89456245D01*
X137263000Y-89135755D01*
X137200475Y-88821422D01*
X137077828Y-88525327D01*
X136899773Y-88258848D01*
X136673152Y-88032227D01*
X136406673Y-87854172D01*
X136110578Y-87731525D01*
X135796245Y-87669000D01*
X135475755Y-87669000D01*
X135161422Y-87731525D01*
X134865327Y-87854172D01*
X134598848Y-88032227D01*
X134372227Y-88258848D01*
X134194172Y-88525327D01*
X134113950Y-88719000D01*
X133731001Y-88719000D01*
X130625000Y-85612999D01*
X130625000Y-82832328D01*
X130627790Y-82803999D01*
X130625000Y-82775670D01*
X130625000Y-82775664D01*
X130616650Y-82690888D01*
X130583657Y-82582124D01*
X130530079Y-82481885D01*
X130457974Y-82394026D01*
X130435962Y-82375961D01*
X128085000Y-80024999D01*
X128085000Y-79058173D01*
X128095510Y-79057138D01*
X128221726Y-79018851D01*
X128338047Y-78956676D01*
X128440003Y-78873003D01*
X128523676Y-78771047D01*
X128585851Y-78654726D01*
X128624138Y-78528510D01*
X128637066Y-78397250D01*
X128637066Y-77909750D01*
X128918934Y-77909750D01*
X128918934Y-78397250D01*
X128931862Y-78528510D01*
X128970149Y-78654726D01*
X129032324Y-78771047D01*
X129115997Y-78873003D01*
X129217953Y-78956676D01*
X129334274Y-79018851D01*
X129460490Y-79057138D01*
X129471001Y-79058173D01*
X129471000Y-80235669D01*
X129468210Y-80264000D01*
X129479349Y-80377111D01*
X129494607Y-80427406D01*
X129512343Y-80485875D01*
X129565921Y-80586114D01*
X129638026Y-80673974D01*
X129660038Y-80692039D01*
X132011001Y-83043002D01*
X132011000Y-84807669D01*
X132008210Y-84836000D01*
X132019349Y-84949111D01*
X132034607Y-84999406D01*
X132052343Y-85057875D01*
X132105921Y-85158114D01*
X132178026Y-85245974D01*
X132200038Y-85264039D01*
X133119965Y-86183967D01*
X133138026Y-86205974D01*
X133160033Y-86224035D01*
X133160035Y-86224037D01*
X133174907Y-86236242D01*
X133225885Y-86278079D01*
X133326124Y-86331657D01*
X133370782Y-86345204D01*
X133434888Y-86364651D01*
X133495971Y-86370666D01*
X133519664Y-86373000D01*
X133519668Y-86373000D01*
X133547999Y-86375790D01*
X133576330Y-86373000D01*
X134113950Y-86373000D01*
X134194172Y-86566673D01*
X134372227Y-86833152D01*
X134598848Y-87059773D01*
X134865327Y-87237828D01*
X135161422Y-87360475D01*
X135475755Y-87423000D01*
X135796245Y-87423000D01*
X136110578Y-87360475D01*
X136406673Y-87237828D01*
X136673152Y-87059773D01*
X136899773Y-86833152D01*
X137077828Y-86566673D01*
X137200475Y-86270578D01*
X137263000Y-85956245D01*
X137263000Y-85635755D01*
X137200475Y-85321422D01*
X137077828Y-85025327D01*
X136899773Y-84758848D01*
X136673152Y-84532227D01*
X136406673Y-84354172D01*
X136110578Y-84231525D01*
X135796245Y-84169000D01*
X135475755Y-84169000D01*
X135161422Y-84231525D01*
X134865327Y-84354172D01*
X134598848Y-84532227D01*
X134372227Y-84758848D01*
X134194172Y-85025327D01*
X134113950Y-85219000D01*
X133787002Y-85219000D01*
X133165000Y-84596999D01*
X133165000Y-83496000D01*
X133797928Y-83496000D01*
X133810188Y-83620482D01*
X133846498Y-83740180D01*
X133905463Y-83850494D01*
X133984815Y-83947185D01*
X134081506Y-84026537D01*
X134191820Y-84085502D01*
X134311518Y-84121812D01*
X134436000Y-84134072D01*
X135350250Y-84131000D01*
X135509000Y-83972250D01*
X135509000Y-82423000D01*
X135763000Y-82423000D01*
X135763000Y-83972250D01*
X135921750Y-84131000D01*
X136836000Y-84134072D01*
X136960482Y-84121812D01*
X137080180Y-84085502D01*
X137190494Y-84026537D01*
X137287185Y-83947185D01*
X137366537Y-83850494D01*
X137425502Y-83740180D01*
X137461812Y-83620482D01*
X137474072Y-83496000D01*
X137471000Y-82581750D01*
X137312250Y-82423000D01*
X135763000Y-82423000D01*
X135509000Y-82423000D01*
X133959750Y-82423000D01*
X133801000Y-82581750D01*
X133797928Y-83496000D01*
X133165000Y-83496000D01*
X133165000Y-82832328D01*
X133167790Y-82803999D01*
X133165000Y-82775670D01*
X133165000Y-82775664D01*
X133156650Y-82690888D01*
X133123657Y-82582124D01*
X133070079Y-82481885D01*
X132997974Y-82394026D01*
X132975962Y-82375961D01*
X131696001Y-81096000D01*
X133797928Y-81096000D01*
X133801000Y-82010250D01*
X133959750Y-82169000D01*
X135509000Y-82169000D01*
X135509000Y-80619750D01*
X135763000Y-80619750D01*
X135763000Y-82169000D01*
X137312250Y-82169000D01*
X137471000Y-82010250D01*
X137474072Y-81096000D01*
X137461812Y-80971518D01*
X137425502Y-80851820D01*
X137366537Y-80741506D01*
X137287185Y-80644815D01*
X137190494Y-80565463D01*
X137080180Y-80506498D01*
X136960482Y-80470188D01*
X136836000Y-80457928D01*
X135921750Y-80461000D01*
X135763000Y-80619750D01*
X135509000Y-80619750D01*
X135350250Y-80461000D01*
X134436000Y-80457928D01*
X134311518Y-80470188D01*
X134191820Y-80506498D01*
X134081506Y-80565463D01*
X133984815Y-80644815D01*
X133905463Y-80741506D01*
X133846498Y-80851820D01*
X133810188Y-80971518D01*
X133797928Y-81096000D01*
X131696001Y-81096000D01*
X130625000Y-80024999D01*
X130625000Y-79058173D01*
X130635510Y-79057138D01*
X130761726Y-79018851D01*
X130878047Y-78956676D01*
X130980003Y-78873003D01*
X131063676Y-78771047D01*
X131125851Y-78654726D01*
X131130014Y-78641000D01*
X131249928Y-78641000D01*
X131262188Y-78765482D01*
X131298498Y-78885180D01*
X131357463Y-78995494D01*
X131436815Y-79092185D01*
X131533506Y-79171537D01*
X131643820Y-79230502D01*
X131763518Y-79266812D01*
X131888000Y-79279072D01*
X132302250Y-79276000D01*
X132461000Y-79117250D01*
X132461000Y-78280500D01*
X132715000Y-78280500D01*
X132715000Y-79117250D01*
X132873750Y-79276000D01*
X133288000Y-79279072D01*
X133412482Y-79266812D01*
X133532180Y-79230502D01*
X133642494Y-79171537D01*
X133739185Y-79092185D01*
X133818537Y-78995494D01*
X133858000Y-78921665D01*
X133897463Y-78995494D01*
X133976815Y-79092185D01*
X134073506Y-79171537D01*
X134183820Y-79230502D01*
X134303518Y-79266812D01*
X134428000Y-79279072D01*
X134842250Y-79276000D01*
X135001000Y-79117250D01*
X135001000Y-78280500D01*
X135255000Y-78280500D01*
X135255000Y-79117250D01*
X135413750Y-79276000D01*
X135828000Y-79279072D01*
X135952482Y-79266812D01*
X136072180Y-79230502D01*
X136182494Y-79171537D01*
X136279185Y-79092185D01*
X136358537Y-78995494D01*
X136417502Y-78885180D01*
X136453812Y-78765482D01*
X136466072Y-78641000D01*
X136463000Y-78439250D01*
X136304250Y-78280500D01*
X135255000Y-78280500D01*
X135001000Y-78280500D01*
X133951750Y-78280500D01*
X133858000Y-78374250D01*
X133764250Y-78280500D01*
X132715000Y-78280500D01*
X132461000Y-78280500D01*
X131411750Y-78280500D01*
X131253000Y-78439250D01*
X131249928Y-78641000D01*
X131130014Y-78641000D01*
X131164138Y-78528510D01*
X131177066Y-78397250D01*
X131177066Y-77909750D01*
X131164138Y-77778490D01*
X131125851Y-77652274D01*
X131063676Y-77535953D01*
X130980003Y-77433997D01*
X130878047Y-77350324D01*
X130761726Y-77288149D01*
X130635510Y-77249862D01*
X130504250Y-77236934D01*
X129591750Y-77236934D01*
X129460490Y-77249862D01*
X129334274Y-77288149D01*
X129217953Y-77350324D01*
X129115997Y-77433997D01*
X129032324Y-77535953D01*
X128970149Y-77652274D01*
X128931862Y-77778490D01*
X128918934Y-77909750D01*
X128637066Y-77909750D01*
X128624138Y-77778490D01*
X128585851Y-77652274D01*
X128523676Y-77535953D01*
X128440003Y-77433997D01*
X128338047Y-77350324D01*
X128221726Y-77288149D01*
X128095510Y-77249862D01*
X127964250Y-77236934D01*
X127051750Y-77236934D01*
X126920490Y-77249862D01*
X126794274Y-77288149D01*
X126677953Y-77350324D01*
X126575997Y-77433997D01*
X126492324Y-77535953D01*
X126430149Y-77652274D01*
X126391862Y-77778490D01*
X126378934Y-77909750D01*
X126097066Y-77909750D01*
X126084138Y-77778490D01*
X126045851Y-77652274D01*
X125983676Y-77535953D01*
X125900003Y-77433997D01*
X125798047Y-77350324D01*
X125681726Y-77288149D01*
X125555510Y-77249862D01*
X125424250Y-77236934D01*
X125119477Y-77236934D01*
X125013538Y-77226500D01*
X118529000Y-77226500D01*
X118529000Y-75005084D01*
X118710424Y-74823660D01*
X118866591Y-74589938D01*
X118974162Y-74330241D01*
X119029000Y-74054547D01*
X119029000Y-73773453D01*
X118974162Y-73497759D01*
X118866591Y-73238062D01*
X118710424Y-73004340D01*
X118511660Y-72805576D01*
X118277938Y-72649409D01*
X118018241Y-72541838D01*
X117742547Y-72487000D01*
X117600870Y-72487000D01*
X119173935Y-70913935D01*
X119227038Y-70849228D01*
X119266497Y-70775406D01*
X119290795Y-70695304D01*
X119299000Y-70612000D01*
X119299000Y-70228235D01*
X119377764Y-70392414D01*
X119558351Y-70633116D01*
X119782427Y-70833962D01*
X120041380Y-70987234D01*
X120325259Y-71087041D01*
X120563000Y-70966992D01*
X120563000Y-69723000D01*
X120817000Y-69723000D01*
X120817000Y-70966992D01*
X121054741Y-71087041D01*
X121338620Y-70987234D01*
X121597573Y-70833962D01*
X121821649Y-70633116D01*
X122002236Y-70392414D01*
X122132394Y-70121107D01*
X122181036Y-69960740D01*
X122060378Y-69723000D01*
X120817000Y-69723000D01*
X120563000Y-69723000D01*
X120543000Y-69723000D01*
X120543000Y-69469000D01*
X120563000Y-69469000D01*
X120563000Y-68225008D01*
X120817000Y-68225008D01*
X120817000Y-69469000D01*
X122060378Y-69469000D01*
X122181036Y-69231260D01*
X122132394Y-69070893D01*
X122002236Y-68799586D01*
X121821649Y-68558884D01*
X121597573Y-68358038D01*
X121338620Y-68204766D01*
X121054741Y-68104959D01*
X120817000Y-68225008D01*
X120563000Y-68225008D01*
X120325259Y-68104959D01*
X120041380Y-68204766D01*
X119782427Y-68358038D01*
X119558351Y-68558884D01*
X119377764Y-68799586D01*
X119299000Y-68963765D01*
X119299000Y-68072000D01*
X119290795Y-67988696D01*
X119266497Y-67908594D01*
X119227038Y-67834772D01*
X119173935Y-67770065D01*
X117361537Y-65957667D01*
X117431304Y-65950795D01*
X117511406Y-65926497D01*
X117585228Y-65887038D01*
X117649935Y-65833935D01*
X118040605Y-65443266D01*
X118144087Y-65546748D01*
X118361430Y-65691972D01*
X118602928Y-65792004D01*
X118859302Y-65843000D01*
X119120698Y-65843000D01*
X119377072Y-65792004D01*
X119618570Y-65691972D01*
X119835913Y-65546748D01*
X120020748Y-65361913D01*
X120165972Y-65144570D01*
X120266004Y-64903072D01*
X120317000Y-64646698D01*
X120317000Y-64385302D01*
X121063000Y-64385302D01*
X121063000Y-64646698D01*
X121113996Y-64903072D01*
X121214028Y-65144570D01*
X121359252Y-65361913D01*
X121544087Y-65546748D01*
X121761430Y-65691972D01*
X122002928Y-65792004D01*
X122259302Y-65843000D01*
X122520698Y-65843000D01*
X122777072Y-65792004D01*
X123018570Y-65691972D01*
X123235913Y-65546748D01*
X123420748Y-65361913D01*
X123565972Y-65144570D01*
X123666004Y-64903072D01*
X123717000Y-64646698D01*
X123717000Y-64385302D01*
X123666004Y-64128928D01*
X123565972Y-63887430D01*
X123420748Y-63670087D01*
X123235913Y-63485252D01*
X123018570Y-63340028D01*
X122777072Y-63239996D01*
X122520698Y-63189000D01*
X122259302Y-63189000D01*
X122002928Y-63239996D01*
X121761430Y-63340028D01*
X121544087Y-63485252D01*
X121359252Y-63670087D01*
X121214028Y-63887430D01*
X121113996Y-64128928D01*
X121063000Y-64385302D01*
X120317000Y-64385302D01*
X120266004Y-64128928D01*
X120165972Y-63887430D01*
X120020748Y-63670087D01*
X119835913Y-63485252D01*
X119618570Y-63340028D01*
X119377072Y-63239996D01*
X119120698Y-63189000D01*
X118859302Y-63189000D01*
X118791000Y-63202586D01*
X118791000Y-60960000D01*
X118782795Y-60876696D01*
X118758497Y-60796594D01*
X118719038Y-60722772D01*
X118665935Y-60658065D01*
X118453870Y-60446000D01*
X132969000Y-60446000D01*
X132969000Y-66112999D01*
X132586539Y-65730538D01*
X132568474Y-65708526D01*
X132480615Y-65636421D01*
X132380376Y-65582843D01*
X132316270Y-65563397D01*
X132271611Y-65549849D01*
X132216545Y-65544426D01*
X132186836Y-65541500D01*
X132186831Y-65541500D01*
X132158500Y-65538710D01*
X132130169Y-65541500D01*
X132101349Y-65541500D01*
X132079676Y-65500953D01*
X131996003Y-65398997D01*
X131894047Y-65315324D01*
X131777726Y-65253149D01*
X131651510Y-65214862D01*
X131520250Y-65201934D01*
X130963436Y-65201934D01*
X129889539Y-64128038D01*
X129871474Y-64106026D01*
X129783615Y-64033921D01*
X129683376Y-63980343D01*
X129619270Y-63960897D01*
X129574611Y-63947349D01*
X129519545Y-63941926D01*
X129489836Y-63939000D01*
X129489831Y-63939000D01*
X129461500Y-63936210D01*
X129433169Y-63939000D01*
X126987333Y-63939000D01*
X126965972Y-63887430D01*
X126820748Y-63670087D01*
X126635913Y-63485252D01*
X126418570Y-63340028D01*
X126177072Y-63239996D01*
X125920698Y-63189000D01*
X125659302Y-63189000D01*
X125402928Y-63239996D01*
X125161430Y-63340028D01*
X124944087Y-63485252D01*
X124759252Y-63670087D01*
X124614028Y-63887430D01*
X124513996Y-64128928D01*
X124463000Y-64385302D01*
X124463000Y-64646698D01*
X124513996Y-64903072D01*
X124614028Y-65144570D01*
X124759252Y-65361913D01*
X124944087Y-65546748D01*
X125161430Y-65691972D01*
X125402928Y-65792004D01*
X125659302Y-65843000D01*
X125920698Y-65843000D01*
X126177072Y-65792004D01*
X126418570Y-65691972D01*
X126635913Y-65546748D01*
X126820748Y-65361913D01*
X126965972Y-65144570D01*
X126987333Y-65093000D01*
X129222499Y-65093000D01*
X129941149Y-65811650D01*
X129934934Y-65874750D01*
X129934934Y-66362250D01*
X129947862Y-66493510D01*
X129986149Y-66619726D01*
X130048324Y-66736047D01*
X130131997Y-66838003D01*
X130233953Y-66921676D01*
X130350274Y-66983851D01*
X130476490Y-67022138D01*
X130607750Y-67035066D01*
X131520250Y-67035066D01*
X131651510Y-67022138D01*
X131777726Y-66983851D01*
X131894047Y-66921676D01*
X131996003Y-66838003D01*
X132025752Y-66801753D01*
X132089501Y-66865502D01*
X132089501Y-67394334D01*
X132079676Y-67375953D01*
X131996003Y-67273997D01*
X131894047Y-67190324D01*
X131777726Y-67128149D01*
X131651510Y-67089862D01*
X131520250Y-67076934D01*
X130607750Y-67076934D01*
X130476490Y-67089862D01*
X130350274Y-67128149D01*
X130233953Y-67190324D01*
X130131997Y-67273997D01*
X130048324Y-67375953D01*
X130026651Y-67416500D01*
X125720828Y-67416500D01*
X125692499Y-67413710D01*
X125664170Y-67416500D01*
X125664164Y-67416500D01*
X125579388Y-67424850D01*
X125470624Y-67457843D01*
X125370385Y-67511421D01*
X125353535Y-67525250D01*
X125304535Y-67565463D01*
X125304533Y-67565465D01*
X125282526Y-67583526D01*
X125264465Y-67605533D01*
X124528642Y-68341357D01*
X124477072Y-68319996D01*
X124220698Y-68269000D01*
X123959302Y-68269000D01*
X123702928Y-68319996D01*
X123461430Y-68420028D01*
X123244087Y-68565252D01*
X123059252Y-68750087D01*
X122914028Y-68967430D01*
X122813996Y-69208928D01*
X122763000Y-69465302D01*
X122763000Y-69726698D01*
X122813996Y-69983072D01*
X122914028Y-70224570D01*
X123059252Y-70441913D01*
X123244087Y-70626748D01*
X123461430Y-70771972D01*
X123513000Y-70793333D01*
X123513001Y-73464652D01*
X123477862Y-73580490D01*
X123464934Y-73711750D01*
X123464934Y-74016524D01*
X123454500Y-74122463D01*
X123454501Y-75646463D01*
X123451612Y-75675799D01*
X123443676Y-75660953D01*
X123433500Y-75648553D01*
X123433500Y-74122462D01*
X123423066Y-74016523D01*
X123423066Y-73711750D01*
X123410138Y-73580490D01*
X123371851Y-73454274D01*
X123309676Y-73337953D01*
X123226003Y-73235997D01*
X123124047Y-73152324D01*
X123007726Y-73090149D01*
X122881510Y-73051862D01*
X122750250Y-73038934D01*
X122262750Y-73038934D01*
X122131490Y-73051862D01*
X122005274Y-73090149D01*
X121888953Y-73152324D01*
X121786997Y-73235997D01*
X121703324Y-73337953D01*
X121641149Y-73454274D01*
X121602862Y-73580490D01*
X121589934Y-73711750D01*
X121589934Y-74016524D01*
X121579500Y-74122463D01*
X121579501Y-75490467D01*
X121495997Y-75558997D01*
X121412324Y-75660953D01*
X121350149Y-75777274D01*
X121311862Y-75903490D01*
X121298934Y-76034750D01*
X121298934Y-76522250D01*
X121311862Y-76653510D01*
X121350149Y-76779726D01*
X121412324Y-76896047D01*
X121495997Y-76998003D01*
X121597953Y-77081676D01*
X121714274Y-77143851D01*
X121840490Y-77182138D01*
X121971750Y-77195066D01*
X122276534Y-77195066D01*
X122428000Y-77209984D01*
X122579466Y-77195066D01*
X122884250Y-77195066D01*
X123015510Y-77182138D01*
X123141726Y-77143851D01*
X123258047Y-77081676D01*
X123360003Y-76998003D01*
X123443676Y-76896047D01*
X123505851Y-76779726D01*
X123544138Y-76653510D01*
X123557066Y-76522250D01*
X123557066Y-76116087D01*
X123606999Y-76209505D01*
X123693812Y-76315287D01*
X123693817Y-76315292D01*
X123722842Y-76350659D01*
X123758209Y-76379684D01*
X123838934Y-76460409D01*
X123838934Y-76522250D01*
X123851862Y-76653510D01*
X123890149Y-76779726D01*
X123952324Y-76896047D01*
X124035997Y-76998003D01*
X124137953Y-77081676D01*
X124254274Y-77143851D01*
X124380490Y-77182138D01*
X124511750Y-77195066D01*
X124816523Y-77195066D01*
X124922462Y-77205500D01*
X124922472Y-77205500D01*
X124967999Y-77209984D01*
X125013526Y-77205500D01*
X127553538Y-77205500D01*
X127659477Y-77195066D01*
X127964250Y-77195066D01*
X128095510Y-77182138D01*
X128221726Y-77143851D01*
X128338047Y-77081676D01*
X128440003Y-76998003D01*
X128523676Y-76896047D01*
X128585851Y-76779726D01*
X128624138Y-76653510D01*
X128637066Y-76522250D01*
X128637066Y-76034750D01*
X128624138Y-75903490D01*
X128585851Y-75777274D01*
X128523676Y-75660953D01*
X128440003Y-75558997D01*
X128338047Y-75475324D01*
X128221726Y-75413149D01*
X128095510Y-75374862D01*
X127964250Y-75361934D01*
X127659477Y-75361934D01*
X127553538Y-75351500D01*
X125351975Y-75351500D01*
X125308500Y-75308025D01*
X125308500Y-74122462D01*
X125298066Y-74016523D01*
X125298066Y-73711750D01*
X125285138Y-73580490D01*
X125246851Y-73454274D01*
X125184676Y-73337953D01*
X125101003Y-73235997D01*
X124999047Y-73152324D01*
X124882726Y-73090149D01*
X124756510Y-73051862D01*
X124667000Y-73043046D01*
X124667000Y-70793333D01*
X124718570Y-70771972D01*
X124935913Y-70626748D01*
X125120748Y-70441913D01*
X125265972Y-70224570D01*
X125366004Y-69983072D01*
X125417000Y-69726698D01*
X125417000Y-69465302D01*
X125366004Y-69208928D01*
X125344643Y-69157358D01*
X125931502Y-68570500D01*
X126638839Y-68570500D01*
X126459252Y-68750087D01*
X126314028Y-68967430D01*
X126213996Y-69208928D01*
X126163000Y-69465302D01*
X126163000Y-69726698D01*
X126213996Y-69983072D01*
X126314028Y-70224570D01*
X126459252Y-70441913D01*
X126644087Y-70626748D01*
X126861430Y-70771972D01*
X127102928Y-70872004D01*
X127359302Y-70923000D01*
X127620698Y-70923000D01*
X127877072Y-70872004D01*
X128118570Y-70771972D01*
X128335913Y-70626748D01*
X128520748Y-70441913D01*
X128665972Y-70224570D01*
X128766004Y-69983072D01*
X128817000Y-69726698D01*
X128817000Y-69465302D01*
X128766004Y-69208928D01*
X128665972Y-68967430D01*
X128520748Y-68750087D01*
X128341161Y-68570500D01*
X130026651Y-68570500D01*
X130048324Y-68611047D01*
X130131997Y-68713003D01*
X130233953Y-68796676D01*
X130350274Y-68858851D01*
X130476490Y-68897138D01*
X130607750Y-68910066D01*
X131520250Y-68910066D01*
X131651510Y-68897138D01*
X131777726Y-68858851D01*
X131894047Y-68796676D01*
X131996003Y-68713003D01*
X132079676Y-68611047D01*
X132089501Y-68592666D01*
X132089500Y-73130651D01*
X132048953Y-73152324D01*
X131946997Y-73235997D01*
X131863324Y-73337953D01*
X131801149Y-73454274D01*
X131762862Y-73580490D01*
X131749934Y-73711750D01*
X131749934Y-74016524D01*
X131739500Y-74122463D01*
X131739501Y-75351500D01*
X130002462Y-75351500D01*
X129896523Y-75361934D01*
X129591750Y-75361934D01*
X129460490Y-75374862D01*
X129334274Y-75413149D01*
X129217953Y-75475324D01*
X129115997Y-75558997D01*
X129032324Y-75660953D01*
X128970149Y-75777274D01*
X128931862Y-75903490D01*
X128918934Y-76034750D01*
X128918934Y-76522250D01*
X128931862Y-76653510D01*
X128970149Y-76779726D01*
X129032324Y-76896047D01*
X129115997Y-76998003D01*
X129217953Y-77081676D01*
X129334274Y-77143851D01*
X129460490Y-77182138D01*
X129591750Y-77195066D01*
X129896523Y-77195066D01*
X130002462Y-77205500D01*
X131448165Y-77205500D01*
X131436815Y-77214815D01*
X131357463Y-77311506D01*
X131298498Y-77421820D01*
X131262188Y-77541518D01*
X131249928Y-77666000D01*
X131253000Y-77867750D01*
X131411750Y-78026500D01*
X132461000Y-78026500D01*
X132461000Y-78006500D01*
X132715000Y-78006500D01*
X132715000Y-78026500D01*
X133764250Y-78026500D01*
X133858000Y-77932750D01*
X133951750Y-78026500D01*
X135001000Y-78026500D01*
X135001000Y-78006500D01*
X135255000Y-78006500D01*
X135255000Y-78026500D01*
X136304250Y-78026500D01*
X136463000Y-77867750D01*
X136466072Y-77666000D01*
X136453812Y-77541518D01*
X136417502Y-77421820D01*
X136358537Y-77311506D01*
X136279185Y-77214815D01*
X136182494Y-77135463D01*
X136072180Y-77076498D01*
X135993455Y-77052617D01*
X136060003Y-76998003D01*
X136143676Y-76896047D01*
X136205851Y-76779726D01*
X136244138Y-76653510D01*
X136257066Y-76522250D01*
X136257066Y-76034750D01*
X136244138Y-75903490D01*
X136205851Y-75777274D01*
X136143676Y-75660953D01*
X136060003Y-75558997D01*
X135958047Y-75475324D01*
X135841726Y-75413149D01*
X135715510Y-75374862D01*
X135584250Y-75361934D01*
X135522409Y-75361934D01*
X135468500Y-75308025D01*
X135468500Y-74122462D01*
X135458066Y-74016523D01*
X135458066Y-73711750D01*
X135445138Y-73580490D01*
X135406851Y-73454274D01*
X135344676Y-73337953D01*
X135261003Y-73235997D01*
X135159047Y-73152324D01*
X135042726Y-73090149D01*
X134916510Y-73051862D01*
X134785250Y-73038934D01*
X134297750Y-73038934D01*
X134166490Y-73051862D01*
X134040274Y-73090149D01*
X133923953Y-73152324D01*
X133821997Y-73235997D01*
X133738324Y-73337953D01*
X133676149Y-73454274D01*
X133637862Y-73580490D01*
X133624934Y-73711750D01*
X133624934Y-74016524D01*
X133614500Y-74122463D01*
X133614501Y-75646463D01*
X133611612Y-75675799D01*
X133603676Y-75660953D01*
X133593500Y-75648553D01*
X133593500Y-74122462D01*
X133583066Y-74016523D01*
X133583066Y-73711750D01*
X133570138Y-73580490D01*
X133531851Y-73454274D01*
X133469676Y-73337953D01*
X133386003Y-73235997D01*
X133284047Y-73152324D01*
X133243500Y-73130651D01*
X133243500Y-70231000D01*
X140722000Y-70231000D01*
X140722001Y-91821000D01*
X135128000Y-91821000D01*
X135103224Y-91823440D01*
X135079399Y-91830667D01*
X135057443Y-91842403D01*
X135038197Y-91858197D01*
X132498197Y-94398197D01*
X132482403Y-94417443D01*
X132470667Y-94439399D01*
X132463440Y-94463224D01*
X132461000Y-94488000D01*
X132461000Y-100082000D01*
X80899000Y-100082000D01*
X80899000Y-94996000D01*
X107791678Y-94996000D01*
X107828884Y-95373758D01*
X107939071Y-95736998D01*
X108118007Y-96071763D01*
X108358813Y-96365187D01*
X108652237Y-96605993D01*
X108987002Y-96784929D01*
X109350242Y-96895116D01*
X109728000Y-96932322D01*
X110105758Y-96895116D01*
X110468998Y-96784929D01*
X110803763Y-96605993D01*
X111023661Y-96425528D01*
X111103964Y-96345224D01*
X113638381Y-96345224D01*
X113770317Y-96640312D01*
X114111045Y-96811159D01*
X114478557Y-96912250D01*
X114858729Y-96939701D01*
X115236951Y-96892457D01*
X115598690Y-96772333D01*
X115845683Y-96640312D01*
X115977619Y-96345224D01*
X114808000Y-95175605D01*
X113638381Y-96345224D01*
X111103964Y-96345224D01*
X111277656Y-96171532D01*
X111351187Y-96111187D01*
X111591994Y-95817763D01*
X111770929Y-95482999D01*
X111881117Y-95119758D01*
X111888309Y-95046729D01*
X112864299Y-95046729D01*
X112911543Y-95424951D01*
X113031667Y-95786690D01*
X113163688Y-96033683D01*
X113458776Y-96165619D01*
X114628395Y-94996000D01*
X114987605Y-94996000D01*
X116157224Y-96165619D01*
X116452312Y-96033683D01*
X116623159Y-95692955D01*
X116724250Y-95325443D01*
X116751701Y-94945271D01*
X116704457Y-94567049D01*
X116584333Y-94205310D01*
X116452312Y-93958317D01*
X116157224Y-93826381D01*
X114987605Y-94996000D01*
X114628395Y-94996000D01*
X113458776Y-93826381D01*
X113163688Y-93958317D01*
X112992841Y-94299045D01*
X112891750Y-94666557D01*
X112864299Y-95046729D01*
X111888309Y-95046729D01*
X111909000Y-94836658D01*
X111909000Y-94836648D01*
X111918322Y-94742001D01*
X111909000Y-94647353D01*
X111909000Y-93646776D01*
X113638381Y-93646776D01*
X114808000Y-94816395D01*
X115977619Y-93646776D01*
X115845683Y-93351688D01*
X115504955Y-93180841D01*
X115137443Y-93079750D01*
X114757271Y-93052299D01*
X114379049Y-93099543D01*
X114017310Y-93219667D01*
X113770317Y-93351688D01*
X113638381Y-93646776D01*
X111909000Y-93646776D01*
X111909000Y-92648000D01*
X122904928Y-92648000D01*
X122917188Y-92772482D01*
X122953498Y-92892180D01*
X123012463Y-93002494D01*
X123091815Y-93099185D01*
X123188506Y-93178537D01*
X123298820Y-93237502D01*
X123418518Y-93273812D01*
X123543000Y-93286072D01*
X123744750Y-93283000D01*
X123903500Y-93124250D01*
X123903500Y-92075000D01*
X123066750Y-92075000D01*
X122908000Y-92233750D01*
X122904928Y-92648000D01*
X111909000Y-92648000D01*
X111909000Y-91248000D01*
X122904928Y-91248000D01*
X122908000Y-91662250D01*
X123066750Y-91821000D01*
X123903500Y-91821000D01*
X123903500Y-90771750D01*
X124157500Y-90771750D01*
X124157500Y-91821000D01*
X124177500Y-91821000D01*
X124177500Y-92075000D01*
X124157500Y-92075000D01*
X124157500Y-93124250D01*
X124316250Y-93283000D01*
X124518000Y-93286072D01*
X124642482Y-93273812D01*
X124762180Y-93237502D01*
X124872494Y-93178537D01*
X124969185Y-93099185D01*
X125048537Y-93002494D01*
X125107502Y-92892180D01*
X125131383Y-92813455D01*
X125185997Y-92880003D01*
X125287953Y-92963676D01*
X125404274Y-93025851D01*
X125530490Y-93064138D01*
X125661750Y-93077066D01*
X126149250Y-93077066D01*
X126280510Y-93064138D01*
X126406726Y-93025851D01*
X126523047Y-92963676D01*
X126625003Y-92880003D01*
X126708676Y-92778047D01*
X126770851Y-92661726D01*
X126809138Y-92535510D01*
X126822066Y-92404250D01*
X126822066Y-92099477D01*
X126832500Y-91993538D01*
X126832500Y-90364066D01*
X127917001Y-90364066D01*
X128049480Y-90351018D01*
X128176868Y-90312375D01*
X128294269Y-90249623D01*
X128397172Y-90165172D01*
X128481623Y-90062269D01*
X128544375Y-89944868D01*
X128583018Y-89817480D01*
X128596066Y-89685001D01*
X128596066Y-88834999D01*
X128583018Y-88702520D01*
X128544375Y-88575132D01*
X128481623Y-88457731D01*
X128397172Y-88354828D01*
X128294269Y-88270377D01*
X128176868Y-88207625D01*
X128049480Y-88168982D01*
X127917001Y-88155934D01*
X125066999Y-88155934D01*
X124934520Y-88168982D01*
X124807132Y-88207625D01*
X124689731Y-88270377D01*
X124586828Y-88354828D01*
X124502377Y-88457731D01*
X124439625Y-88575132D01*
X124400982Y-88702520D01*
X124387934Y-88834999D01*
X124387934Y-89685001D01*
X124400982Y-89817480D01*
X124439625Y-89944868D01*
X124502377Y-90062269D01*
X124586828Y-90165172D01*
X124689731Y-90249623D01*
X124807132Y-90312375D01*
X124934520Y-90351018D01*
X124978501Y-90355350D01*
X124978500Y-90808166D01*
X124969185Y-90796815D01*
X124872494Y-90717463D01*
X124762180Y-90658498D01*
X124642482Y-90622188D01*
X124518000Y-90609928D01*
X124316250Y-90613000D01*
X124157500Y-90771750D01*
X123903500Y-90771750D01*
X123744750Y-90613000D01*
X123543000Y-90609928D01*
X123418518Y-90622188D01*
X123298820Y-90658498D01*
X123188506Y-90717463D01*
X123091815Y-90796815D01*
X123012463Y-90893506D01*
X122953498Y-91003820D01*
X122917188Y-91123518D01*
X122904928Y-91248000D01*
X111909000Y-91248000D01*
X111909000Y-87541000D01*
X113662025Y-87541000D01*
X116004316Y-89883292D01*
X116033341Y-89918659D01*
X116068708Y-89947684D01*
X116068712Y-89947688D01*
X116174494Y-90034501D01*
X116321357Y-90113001D01*
X116335536Y-90120580D01*
X116510276Y-90173587D01*
X116646462Y-90187000D01*
X116646472Y-90187000D01*
X116691999Y-90191484D01*
X116737526Y-90187000D01*
X120041425Y-90187000D01*
X120117731Y-90249623D01*
X120235132Y-90312375D01*
X120362520Y-90351018D01*
X120494999Y-90364066D01*
X123345001Y-90364066D01*
X123477480Y-90351018D01*
X123604868Y-90312375D01*
X123722269Y-90249623D01*
X123825172Y-90165172D01*
X123909623Y-90062269D01*
X123972375Y-89944868D01*
X124011018Y-89817480D01*
X124024066Y-89685001D01*
X124024066Y-88834999D01*
X124011018Y-88702520D01*
X123972375Y-88575132D01*
X123909623Y-88457731D01*
X123825172Y-88354828D01*
X123722269Y-88270377D01*
X123604868Y-88207625D01*
X123477480Y-88168982D01*
X123345001Y-88155934D01*
X120494999Y-88155934D01*
X120362520Y-88168982D01*
X120235132Y-88207625D01*
X120117731Y-88270377D01*
X120041425Y-88333000D01*
X117075976Y-88333000D01*
X114733688Y-85990713D01*
X114704659Y-85955341D01*
X114563505Y-85839499D01*
X114402464Y-85753420D01*
X114227724Y-85700413D01*
X114091538Y-85687000D01*
X114091527Y-85687000D01*
X114046000Y-85682516D01*
X114000473Y-85687000D01*
X111671509Y-85687000D01*
X111591994Y-85538237D01*
X111351187Y-85244813D01*
X111057763Y-85004006D01*
X110722998Y-84825071D01*
X110359757Y-84714883D01*
X109982000Y-84677677D01*
X109604242Y-84714883D01*
X109241001Y-84825071D01*
X108906237Y-85004006D01*
X108612813Y-85244813D01*
X108372006Y-85538237D01*
X108193071Y-85873002D01*
X108082883Y-86236243D01*
X108055000Y-86519343D01*
X108055001Y-94038113D01*
X107939071Y-94255002D01*
X107828884Y-94618242D01*
X107791678Y-94996000D01*
X80899000Y-94996000D01*
X80899000Y-94488000D01*
X80896560Y-94463224D01*
X80889333Y-94439399D01*
X80877597Y-94417443D01*
X80861803Y-94398197D01*
X79181586Y-92717980D01*
X89445626Y-92717980D01*
X89565514Y-93002836D01*
X89889210Y-93163699D01*
X90238069Y-93258322D01*
X90598684Y-93283067D01*
X90957198Y-93236985D01*
X91299833Y-93121846D01*
X91522486Y-93002836D01*
X91642374Y-92717980D01*
X90544000Y-91619605D01*
X89445626Y-92717980D01*
X79181586Y-92717980D01*
X78321803Y-91858197D01*
X78302557Y-91842403D01*
X78280601Y-91830667D01*
X78256776Y-91823440D01*
X78232000Y-91821000D01*
X72638000Y-91821000D01*
X72638000Y-91494684D01*
X88700933Y-91494684D01*
X88747015Y-91853198D01*
X88862154Y-92195833D01*
X88981164Y-92418486D01*
X89266020Y-92538374D01*
X90364395Y-91440000D01*
X90723605Y-91440000D01*
X91821980Y-92538374D01*
X92106836Y-92418486D01*
X92267699Y-92094790D01*
X92362322Y-91745931D01*
X92387067Y-91385316D01*
X92340985Y-91026802D01*
X92225846Y-90684167D01*
X92106836Y-90461514D01*
X91821980Y-90341626D01*
X90723605Y-91440000D01*
X90364395Y-91440000D01*
X89266020Y-90341626D01*
X88981164Y-90461514D01*
X88820301Y-90785210D01*
X88725678Y-91134069D01*
X88700933Y-91494684D01*
X72638000Y-91494684D01*
X72638000Y-89741224D01*
X78586381Y-89741224D01*
X78718317Y-90036312D01*
X79059045Y-90207159D01*
X79426557Y-90308250D01*
X79806729Y-90335701D01*
X80184951Y-90288457D01*
X80546690Y-90168333D01*
X80558500Y-90162020D01*
X89445626Y-90162020D01*
X90544000Y-91260395D01*
X91642374Y-90162020D01*
X91522486Y-89877164D01*
X91198790Y-89716301D01*
X90849931Y-89621678D01*
X90489316Y-89596933D01*
X90130802Y-89643015D01*
X89788167Y-89758154D01*
X89565514Y-89877164D01*
X89445626Y-90162020D01*
X80558500Y-90162020D01*
X80793683Y-90036312D01*
X80925619Y-89741224D01*
X79756000Y-88571605D01*
X78586381Y-89741224D01*
X72638000Y-89741224D01*
X72638000Y-88442729D01*
X77812299Y-88442729D01*
X77859543Y-88820951D01*
X77979667Y-89182690D01*
X78111688Y-89429683D01*
X78406776Y-89561619D01*
X79576395Y-88392000D01*
X79935605Y-88392000D01*
X81105224Y-89561619D01*
X81400312Y-89429683D01*
X81571159Y-89088955D01*
X81672250Y-88721443D01*
X81699701Y-88341271D01*
X81652457Y-87963049D01*
X81532333Y-87601310D01*
X81400312Y-87354317D01*
X81105224Y-87222381D01*
X79935605Y-88392000D01*
X79576395Y-88392000D01*
X78406776Y-87222381D01*
X78111688Y-87354317D01*
X77940841Y-87695045D01*
X77839750Y-88062557D01*
X77812299Y-88442729D01*
X72638000Y-88442729D01*
X72638000Y-70231000D01*
X80264000Y-70231000D01*
X80288776Y-70228560D01*
X80312601Y-70221333D01*
X80334557Y-70209597D01*
X80353803Y-70193803D01*
X80369597Y-70174557D01*
X80381333Y-70152601D01*
X80388560Y-70128776D01*
X80391000Y-70104000D01*
X80391000Y-62192000D01*
X83905928Y-62192000D01*
X83909000Y-62706250D01*
X84067750Y-62865000D01*
X85217000Y-62865000D01*
X85217000Y-61715750D01*
X85471000Y-61715750D01*
X85471000Y-62865000D01*
X86620250Y-62865000D01*
X86779000Y-62706250D01*
X86782072Y-62192000D01*
X86769812Y-62067518D01*
X86733502Y-61947820D01*
X86674537Y-61837506D01*
X86595185Y-61740815D01*
X86498494Y-61661463D01*
X86388180Y-61602498D01*
X86268482Y-61566188D01*
X86144000Y-61553928D01*
X85629750Y-61557000D01*
X85471000Y-61715750D01*
X85217000Y-61715750D01*
X85058250Y-61557000D01*
X84544000Y-61553928D01*
X84419518Y-61566188D01*
X84299820Y-61602498D01*
X84189506Y-61661463D01*
X84092815Y-61740815D01*
X84013463Y-61837506D01*
X83954498Y-61947820D01*
X83918188Y-62067518D01*
X83905928Y-62192000D01*
X80391000Y-62192000D01*
X80391000Y-60446000D01*
X90334130Y-60446000D01*
X86721504Y-64058626D01*
G37*
X86721504Y-64058626D02*
X86733502Y-64036180D01*
X86769812Y-63916482D01*
X86782072Y-63792000D01*
X86779000Y-63277750D01*
X86620250Y-63119000D01*
X85471000Y-63119000D01*
X85471000Y-63139000D01*
X85217000Y-63139000D01*
X85217000Y-63119000D01*
X84067750Y-63119000D01*
X83909000Y-63277750D01*
X83905928Y-63792000D01*
X83918188Y-63916482D01*
X83954498Y-64036180D01*
X84013463Y-64146494D01*
X84092815Y-64243185D01*
X84189506Y-64322537D01*
X84299820Y-64381502D01*
X84351079Y-64397051D01*
X83518065Y-65230065D01*
X83464962Y-65294772D01*
X83425503Y-65368594D01*
X83401205Y-65448696D01*
X83393000Y-65532000D01*
X83393000Y-67564000D01*
X83401205Y-67647304D01*
X83425503Y-67727406D01*
X83464962Y-67801228D01*
X83518065Y-67865935D01*
X84534065Y-68881935D01*
X84598772Y-68935038D01*
X84672594Y-68974497D01*
X84752696Y-68998795D01*
X84836000Y-69007000D01*
X86691130Y-69007000D01*
X87457000Y-69772870D01*
X87457000Y-72467130D01*
X85167130Y-74757000D01*
X76708000Y-74757000D01*
X76624696Y-74765205D01*
X76544594Y-74789503D01*
X76470772Y-74828962D01*
X76406065Y-74882065D01*
X74882065Y-76406065D01*
X74828962Y-76470772D01*
X74789503Y-76544594D01*
X74765205Y-76624696D01*
X74757000Y-76708000D01*
X74757000Y-79248000D01*
X74765205Y-79331304D01*
X74789503Y-79411406D01*
X74828962Y-79485228D01*
X74882065Y-79549935D01*
X76186463Y-80854333D01*
X76116696Y-80861205D01*
X76036594Y-80885503D01*
X75962772Y-80924962D01*
X75898065Y-80978065D01*
X74374065Y-82502065D01*
X74320962Y-82566772D01*
X74281503Y-82640594D01*
X74257205Y-82720696D01*
X74249000Y-82804000D01*
X74249000Y-84836000D01*
X74257205Y-84919304D01*
X74281503Y-84999406D01*
X74320962Y-85073228D01*
X74374065Y-85137935D01*
X75898065Y-86661935D01*
X75962772Y-86715038D01*
X76036594Y-86754497D01*
X76116696Y-86778795D01*
X76200000Y-86787000D01*
X78700740Y-86787000D01*
X78586381Y-87042776D01*
X79756000Y-88212395D01*
X80925619Y-87042776D01*
X80811260Y-86787000D01*
X90755130Y-86787000D01*
X94569000Y-90600870D01*
X94569000Y-92964000D01*
X94577205Y-93047304D01*
X94601503Y-93127406D01*
X94640962Y-93201228D01*
X94694065Y-93265935D01*
X95710065Y-94281935D01*
X95774772Y-94335038D01*
X95848594Y-94374497D01*
X95928696Y-94398795D01*
X96012000Y-94407000D01*
X100076000Y-94407000D01*
X100159304Y-94398795D01*
X100239406Y-94374497D01*
X100313228Y-94335038D01*
X100377935Y-94281935D01*
X101393935Y-93265935D01*
X101447038Y-93201228D01*
X101486497Y-93127406D01*
X101510795Y-93047304D01*
X101519000Y-92964000D01*
X101519000Y-91616870D01*
X112569935Y-80565935D01*
X112623038Y-80501228D01*
X112662497Y-80427406D01*
X112686795Y-80347304D01*
X112695000Y-80264000D01*
X112695000Y-74344870D01*
X113460870Y-73579000D01*
X116213678Y-73579000D01*
X116175000Y-73773453D01*
X116175000Y-74054547D01*
X116229838Y-74330241D01*
X116337409Y-74589938D01*
X116493576Y-74823660D01*
X116675000Y-75005084D01*
X116675001Y-77932453D01*
X116675000Y-77932463D01*
X116675000Y-77932473D01*
X116670516Y-77978000D01*
X116675000Y-78023528D01*
X116675001Y-80472463D01*
X116670516Y-80518000D01*
X116675001Y-80563537D01*
X116675001Y-80563538D01*
X116688414Y-80699724D01*
X116702476Y-80746079D01*
X116741420Y-80874463D01*
X116827499Y-81035505D01*
X116914312Y-81141287D01*
X116914317Y-81141292D01*
X116943342Y-81176659D01*
X116978708Y-81205683D01*
X119845737Y-84072713D01*
X119867625Y-84144868D01*
X119930377Y-84262269D01*
X120014828Y-84365172D01*
X120117731Y-84449623D01*
X120235132Y-84512375D01*
X120362520Y-84551018D01*
X120494999Y-84564066D01*
X123345001Y-84564066D01*
X123477480Y-84551018D01*
X123604868Y-84512375D01*
X123722269Y-84449623D01*
X123798575Y-84387000D01*
X124613425Y-84387000D01*
X124689731Y-84449623D01*
X124807132Y-84512375D01*
X124934520Y-84551018D01*
X125066999Y-84564066D01*
X127917001Y-84564066D01*
X128049480Y-84551018D01*
X128176868Y-84512375D01*
X128294269Y-84449623D01*
X128397172Y-84365172D01*
X128481623Y-84262269D01*
X128544375Y-84144868D01*
X128583018Y-84017480D01*
X128596066Y-83885001D01*
X128596066Y-83034999D01*
X128583018Y-82902520D01*
X128544375Y-82775132D01*
X128481623Y-82657731D01*
X128397172Y-82554828D01*
X128294269Y-82470377D01*
X128176868Y-82407625D01*
X128049480Y-82368982D01*
X127917001Y-82355934D01*
X125066999Y-82355934D01*
X124934520Y-82368982D01*
X124807132Y-82407625D01*
X124689731Y-82470377D01*
X124613425Y-82533000D01*
X123798575Y-82533000D01*
X123722269Y-82470377D01*
X123604868Y-82407625D01*
X123477480Y-82368982D01*
X123345001Y-82355934D01*
X120750910Y-82355934D01*
X118529000Y-80134025D01*
X118529000Y-79080500D01*
X125013538Y-79080500D01*
X125119477Y-79070066D01*
X125424250Y-79070066D01*
X125555510Y-79057138D01*
X125681726Y-79018851D01*
X125798047Y-78956676D01*
X125900003Y-78873003D01*
X125983676Y-78771047D01*
X126045851Y-78654726D01*
X126084138Y-78528510D01*
X126097066Y-78397250D01*
X126097066Y-77909750D01*
X126378934Y-77909750D01*
X126378934Y-78397250D01*
X126391862Y-78528510D01*
X126430149Y-78654726D01*
X126492324Y-78771047D01*
X126575997Y-78873003D01*
X126677953Y-78956676D01*
X126794274Y-79018851D01*
X126920490Y-79057138D01*
X126931001Y-79058173D01*
X126931000Y-80235669D01*
X126928210Y-80264000D01*
X126939349Y-80377111D01*
X126954607Y-80427406D01*
X126972343Y-80485875D01*
X127025921Y-80586114D01*
X127098026Y-80673974D01*
X127120038Y-80692039D01*
X129471001Y-83043002D01*
X129471000Y-85823669D01*
X129468210Y-85852000D01*
X129479349Y-85965111D01*
X129495356Y-86017876D01*
X129512343Y-86073875D01*
X129565921Y-86174114D01*
X129638026Y-86261974D01*
X129660038Y-86280039D01*
X133063961Y-89683962D01*
X133082026Y-89705974D01*
X133169885Y-89778079D01*
X133243600Y-89817480D01*
X133270123Y-89831657D01*
X133378888Y-89864651D01*
X133492000Y-89875791D01*
X133520339Y-89873000D01*
X134113950Y-89873000D01*
X134194172Y-90066673D01*
X134372227Y-90333152D01*
X134598848Y-90559773D01*
X134865327Y-90737828D01*
X135161422Y-90860475D01*
X135475755Y-90923000D01*
X135796245Y-90923000D01*
X136110578Y-90860475D01*
X136406673Y-90737828D01*
X136673152Y-90559773D01*
X136899773Y-90333152D01*
X137077828Y-90066673D01*
X137200475Y-89770578D01*
X137263000Y-89456245D01*
X137263000Y-89135755D01*
X137200475Y-88821422D01*
X137077828Y-88525327D01*
X136899773Y-88258848D01*
X136673152Y-88032227D01*
X136406673Y-87854172D01*
X136110578Y-87731525D01*
X135796245Y-87669000D01*
X135475755Y-87669000D01*
X135161422Y-87731525D01*
X134865327Y-87854172D01*
X134598848Y-88032227D01*
X134372227Y-88258848D01*
X134194172Y-88525327D01*
X134113950Y-88719000D01*
X133731001Y-88719000D01*
X130625000Y-85612999D01*
X130625000Y-82832328D01*
X130627790Y-82803999D01*
X130625000Y-82775670D01*
X130625000Y-82775664D01*
X130616650Y-82690888D01*
X130583657Y-82582124D01*
X130530079Y-82481885D01*
X130457974Y-82394026D01*
X130435962Y-82375961D01*
X128085000Y-80024999D01*
X128085000Y-79058173D01*
X128095510Y-79057138D01*
X128221726Y-79018851D01*
X128338047Y-78956676D01*
X128440003Y-78873003D01*
X128523676Y-78771047D01*
X128585851Y-78654726D01*
X128624138Y-78528510D01*
X128637066Y-78397250D01*
X128637066Y-77909750D01*
X128918934Y-77909750D01*
X128918934Y-78397250D01*
X128931862Y-78528510D01*
X128970149Y-78654726D01*
X129032324Y-78771047D01*
X129115997Y-78873003D01*
X129217953Y-78956676D01*
X129334274Y-79018851D01*
X129460490Y-79057138D01*
X129471001Y-79058173D01*
X129471000Y-80235669D01*
X129468210Y-80264000D01*
X129479349Y-80377111D01*
X129494607Y-80427406D01*
X129512343Y-80485875D01*
X129565921Y-80586114D01*
X129638026Y-80673974D01*
X129660038Y-80692039D01*
X132011001Y-83043002D01*
X132011000Y-84807669D01*
X132008210Y-84836000D01*
X132019349Y-84949111D01*
X132034607Y-84999406D01*
X132052343Y-85057875D01*
X132105921Y-85158114D01*
X132178026Y-85245974D01*
X132200038Y-85264039D01*
X133119965Y-86183967D01*
X133138026Y-86205974D01*
X133160033Y-86224035D01*
X133160035Y-86224037D01*
X133174907Y-86236242D01*
X133225885Y-86278079D01*
X133326124Y-86331657D01*
X133370782Y-86345204D01*
X133434888Y-86364651D01*
X133495971Y-86370666D01*
X133519664Y-86373000D01*
X133519668Y-86373000D01*
X133547999Y-86375790D01*
X133576330Y-86373000D01*
X134113950Y-86373000D01*
X134194172Y-86566673D01*
X134372227Y-86833152D01*
X134598848Y-87059773D01*
X134865327Y-87237828D01*
X135161422Y-87360475D01*
X135475755Y-87423000D01*
X135796245Y-87423000D01*
X136110578Y-87360475D01*
X136406673Y-87237828D01*
X136673152Y-87059773D01*
X136899773Y-86833152D01*
X137077828Y-86566673D01*
X137200475Y-86270578D01*
X137263000Y-85956245D01*
X137263000Y-85635755D01*
X137200475Y-85321422D01*
X137077828Y-85025327D01*
X136899773Y-84758848D01*
X136673152Y-84532227D01*
X136406673Y-84354172D01*
X136110578Y-84231525D01*
X135796245Y-84169000D01*
X135475755Y-84169000D01*
X135161422Y-84231525D01*
X134865327Y-84354172D01*
X134598848Y-84532227D01*
X134372227Y-84758848D01*
X134194172Y-85025327D01*
X134113950Y-85219000D01*
X133787002Y-85219000D01*
X133165000Y-84596999D01*
X133165000Y-83496000D01*
X133797928Y-83496000D01*
X133810188Y-83620482D01*
X133846498Y-83740180D01*
X133905463Y-83850494D01*
X133984815Y-83947185D01*
X134081506Y-84026537D01*
X134191820Y-84085502D01*
X134311518Y-84121812D01*
X134436000Y-84134072D01*
X135350250Y-84131000D01*
X135509000Y-83972250D01*
X135509000Y-82423000D01*
X135763000Y-82423000D01*
X135763000Y-83972250D01*
X135921750Y-84131000D01*
X136836000Y-84134072D01*
X136960482Y-84121812D01*
X137080180Y-84085502D01*
X137190494Y-84026537D01*
X137287185Y-83947185D01*
X137366537Y-83850494D01*
X137425502Y-83740180D01*
X137461812Y-83620482D01*
X137474072Y-83496000D01*
X137471000Y-82581750D01*
X137312250Y-82423000D01*
X135763000Y-82423000D01*
X135509000Y-82423000D01*
X133959750Y-82423000D01*
X133801000Y-82581750D01*
X133797928Y-83496000D01*
X133165000Y-83496000D01*
X133165000Y-82832328D01*
X133167790Y-82803999D01*
X133165000Y-82775670D01*
X133165000Y-82775664D01*
X133156650Y-82690888D01*
X133123657Y-82582124D01*
X133070079Y-82481885D01*
X132997974Y-82394026D01*
X132975962Y-82375961D01*
X131696001Y-81096000D01*
X133797928Y-81096000D01*
X133801000Y-82010250D01*
X133959750Y-82169000D01*
X135509000Y-82169000D01*
X135509000Y-80619750D01*
X135763000Y-80619750D01*
X135763000Y-82169000D01*
X137312250Y-82169000D01*
X137471000Y-82010250D01*
X137474072Y-81096000D01*
X137461812Y-80971518D01*
X137425502Y-80851820D01*
X137366537Y-80741506D01*
X137287185Y-80644815D01*
X137190494Y-80565463D01*
X137080180Y-80506498D01*
X136960482Y-80470188D01*
X136836000Y-80457928D01*
X135921750Y-80461000D01*
X135763000Y-80619750D01*
X135509000Y-80619750D01*
X135350250Y-80461000D01*
X134436000Y-80457928D01*
X134311518Y-80470188D01*
X134191820Y-80506498D01*
X134081506Y-80565463D01*
X133984815Y-80644815D01*
X133905463Y-80741506D01*
X133846498Y-80851820D01*
X133810188Y-80971518D01*
X133797928Y-81096000D01*
X131696001Y-81096000D01*
X130625000Y-80024999D01*
X130625000Y-79058173D01*
X130635510Y-79057138D01*
X130761726Y-79018851D01*
X130878047Y-78956676D01*
X130980003Y-78873003D01*
X131063676Y-78771047D01*
X131125851Y-78654726D01*
X131130014Y-78641000D01*
X131249928Y-78641000D01*
X131262188Y-78765482D01*
X131298498Y-78885180D01*
X131357463Y-78995494D01*
X131436815Y-79092185D01*
X131533506Y-79171537D01*
X131643820Y-79230502D01*
X131763518Y-79266812D01*
X131888000Y-79279072D01*
X132302250Y-79276000D01*
X132461000Y-79117250D01*
X132461000Y-78280500D01*
X132715000Y-78280500D01*
X132715000Y-79117250D01*
X132873750Y-79276000D01*
X133288000Y-79279072D01*
X133412482Y-79266812D01*
X133532180Y-79230502D01*
X133642494Y-79171537D01*
X133739185Y-79092185D01*
X133818537Y-78995494D01*
X133858000Y-78921665D01*
X133897463Y-78995494D01*
X133976815Y-79092185D01*
X134073506Y-79171537D01*
X134183820Y-79230502D01*
X134303518Y-79266812D01*
X134428000Y-79279072D01*
X134842250Y-79276000D01*
X135001000Y-79117250D01*
X135001000Y-78280500D01*
X135255000Y-78280500D01*
X135255000Y-79117250D01*
X135413750Y-79276000D01*
X135828000Y-79279072D01*
X135952482Y-79266812D01*
X136072180Y-79230502D01*
X136182494Y-79171537D01*
X136279185Y-79092185D01*
X136358537Y-78995494D01*
X136417502Y-78885180D01*
X136453812Y-78765482D01*
X136466072Y-78641000D01*
X136463000Y-78439250D01*
X136304250Y-78280500D01*
X135255000Y-78280500D01*
X135001000Y-78280500D01*
X133951750Y-78280500D01*
X133858000Y-78374250D01*
X133764250Y-78280500D01*
X132715000Y-78280500D01*
X132461000Y-78280500D01*
X131411750Y-78280500D01*
X131253000Y-78439250D01*
X131249928Y-78641000D01*
X131130014Y-78641000D01*
X131164138Y-78528510D01*
X131177066Y-78397250D01*
X131177066Y-77909750D01*
X131164138Y-77778490D01*
X131125851Y-77652274D01*
X131063676Y-77535953D01*
X130980003Y-77433997D01*
X130878047Y-77350324D01*
X130761726Y-77288149D01*
X130635510Y-77249862D01*
X130504250Y-77236934D01*
X129591750Y-77236934D01*
X129460490Y-77249862D01*
X129334274Y-77288149D01*
X129217953Y-77350324D01*
X129115997Y-77433997D01*
X129032324Y-77535953D01*
X128970149Y-77652274D01*
X128931862Y-77778490D01*
X128918934Y-77909750D01*
X128637066Y-77909750D01*
X128624138Y-77778490D01*
X128585851Y-77652274D01*
X128523676Y-77535953D01*
X128440003Y-77433997D01*
X128338047Y-77350324D01*
X128221726Y-77288149D01*
X128095510Y-77249862D01*
X127964250Y-77236934D01*
X127051750Y-77236934D01*
X126920490Y-77249862D01*
X126794274Y-77288149D01*
X126677953Y-77350324D01*
X126575997Y-77433997D01*
X126492324Y-77535953D01*
X126430149Y-77652274D01*
X126391862Y-77778490D01*
X126378934Y-77909750D01*
X126097066Y-77909750D01*
X126084138Y-77778490D01*
X126045851Y-77652274D01*
X125983676Y-77535953D01*
X125900003Y-77433997D01*
X125798047Y-77350324D01*
X125681726Y-77288149D01*
X125555510Y-77249862D01*
X125424250Y-77236934D01*
X125119477Y-77236934D01*
X125013538Y-77226500D01*
X118529000Y-77226500D01*
X118529000Y-75005084D01*
X118710424Y-74823660D01*
X118866591Y-74589938D01*
X118974162Y-74330241D01*
X119029000Y-74054547D01*
X119029000Y-73773453D01*
X118974162Y-73497759D01*
X118866591Y-73238062D01*
X118710424Y-73004340D01*
X118511660Y-72805576D01*
X118277938Y-72649409D01*
X118018241Y-72541838D01*
X117742547Y-72487000D01*
X117600870Y-72487000D01*
X119173935Y-70913935D01*
X119227038Y-70849228D01*
X119266497Y-70775406D01*
X119290795Y-70695304D01*
X119299000Y-70612000D01*
X119299000Y-70228235D01*
X119377764Y-70392414D01*
X119558351Y-70633116D01*
X119782427Y-70833962D01*
X120041380Y-70987234D01*
X120325259Y-71087041D01*
X120563000Y-70966992D01*
X120563000Y-69723000D01*
X120817000Y-69723000D01*
X120817000Y-70966992D01*
X121054741Y-71087041D01*
X121338620Y-70987234D01*
X121597573Y-70833962D01*
X121821649Y-70633116D01*
X122002236Y-70392414D01*
X122132394Y-70121107D01*
X122181036Y-69960740D01*
X122060378Y-69723000D01*
X120817000Y-69723000D01*
X120563000Y-69723000D01*
X120543000Y-69723000D01*
X120543000Y-69469000D01*
X120563000Y-69469000D01*
X120563000Y-68225008D01*
X120817000Y-68225008D01*
X120817000Y-69469000D01*
X122060378Y-69469000D01*
X122181036Y-69231260D01*
X122132394Y-69070893D01*
X122002236Y-68799586D01*
X121821649Y-68558884D01*
X121597573Y-68358038D01*
X121338620Y-68204766D01*
X121054741Y-68104959D01*
X120817000Y-68225008D01*
X120563000Y-68225008D01*
X120325259Y-68104959D01*
X120041380Y-68204766D01*
X119782427Y-68358038D01*
X119558351Y-68558884D01*
X119377764Y-68799586D01*
X119299000Y-68963765D01*
X119299000Y-68072000D01*
X119290795Y-67988696D01*
X119266497Y-67908594D01*
X119227038Y-67834772D01*
X119173935Y-67770065D01*
X117361537Y-65957667D01*
X117431304Y-65950795D01*
X117511406Y-65926497D01*
X117585228Y-65887038D01*
X117649935Y-65833935D01*
X118040605Y-65443266D01*
X118144087Y-65546748D01*
X118361430Y-65691972D01*
X118602928Y-65792004D01*
X118859302Y-65843000D01*
X119120698Y-65843000D01*
X119377072Y-65792004D01*
X119618570Y-65691972D01*
X119835913Y-65546748D01*
X120020748Y-65361913D01*
X120165972Y-65144570D01*
X120266004Y-64903072D01*
X120317000Y-64646698D01*
X120317000Y-64385302D01*
X121063000Y-64385302D01*
X121063000Y-64646698D01*
X121113996Y-64903072D01*
X121214028Y-65144570D01*
X121359252Y-65361913D01*
X121544087Y-65546748D01*
X121761430Y-65691972D01*
X122002928Y-65792004D01*
X122259302Y-65843000D01*
X122520698Y-65843000D01*
X122777072Y-65792004D01*
X123018570Y-65691972D01*
X123235913Y-65546748D01*
X123420748Y-65361913D01*
X123565972Y-65144570D01*
X123666004Y-64903072D01*
X123717000Y-64646698D01*
X123717000Y-64385302D01*
X123666004Y-64128928D01*
X123565972Y-63887430D01*
X123420748Y-63670087D01*
X123235913Y-63485252D01*
X123018570Y-63340028D01*
X122777072Y-63239996D01*
X122520698Y-63189000D01*
X122259302Y-63189000D01*
X122002928Y-63239996D01*
X121761430Y-63340028D01*
X121544087Y-63485252D01*
X121359252Y-63670087D01*
X121214028Y-63887430D01*
X121113996Y-64128928D01*
X121063000Y-64385302D01*
X120317000Y-64385302D01*
X120266004Y-64128928D01*
X120165972Y-63887430D01*
X120020748Y-63670087D01*
X119835913Y-63485252D01*
X119618570Y-63340028D01*
X119377072Y-63239996D01*
X119120698Y-63189000D01*
X118859302Y-63189000D01*
X118791000Y-63202586D01*
X118791000Y-60960000D01*
X118782795Y-60876696D01*
X118758497Y-60796594D01*
X118719038Y-60722772D01*
X118665935Y-60658065D01*
X118453870Y-60446000D01*
X132969000Y-60446000D01*
X132969000Y-66112999D01*
X132586539Y-65730538D01*
X132568474Y-65708526D01*
X132480615Y-65636421D01*
X132380376Y-65582843D01*
X132316270Y-65563397D01*
X132271611Y-65549849D01*
X132216545Y-65544426D01*
X132186836Y-65541500D01*
X132186831Y-65541500D01*
X132158500Y-65538710D01*
X132130169Y-65541500D01*
X132101349Y-65541500D01*
X132079676Y-65500953D01*
X131996003Y-65398997D01*
X131894047Y-65315324D01*
X131777726Y-65253149D01*
X131651510Y-65214862D01*
X131520250Y-65201934D01*
X130963436Y-65201934D01*
X129889539Y-64128038D01*
X129871474Y-64106026D01*
X129783615Y-64033921D01*
X129683376Y-63980343D01*
X129619270Y-63960897D01*
X129574611Y-63947349D01*
X129519545Y-63941926D01*
X129489836Y-63939000D01*
X129489831Y-63939000D01*
X129461500Y-63936210D01*
X129433169Y-63939000D01*
X126987333Y-63939000D01*
X126965972Y-63887430D01*
X126820748Y-63670087D01*
X126635913Y-63485252D01*
X126418570Y-63340028D01*
X126177072Y-63239996D01*
X125920698Y-63189000D01*
X125659302Y-63189000D01*
X125402928Y-63239996D01*
X125161430Y-63340028D01*
X124944087Y-63485252D01*
X124759252Y-63670087D01*
X124614028Y-63887430D01*
X124513996Y-64128928D01*
X124463000Y-64385302D01*
X124463000Y-64646698D01*
X124513996Y-64903072D01*
X124614028Y-65144570D01*
X124759252Y-65361913D01*
X124944087Y-65546748D01*
X125161430Y-65691972D01*
X125402928Y-65792004D01*
X125659302Y-65843000D01*
X125920698Y-65843000D01*
X126177072Y-65792004D01*
X126418570Y-65691972D01*
X126635913Y-65546748D01*
X126820748Y-65361913D01*
X126965972Y-65144570D01*
X126987333Y-65093000D01*
X129222499Y-65093000D01*
X129941149Y-65811650D01*
X129934934Y-65874750D01*
X129934934Y-66362250D01*
X129947862Y-66493510D01*
X129986149Y-66619726D01*
X130048324Y-66736047D01*
X130131997Y-66838003D01*
X130233953Y-66921676D01*
X130350274Y-66983851D01*
X130476490Y-67022138D01*
X130607750Y-67035066D01*
X131520250Y-67035066D01*
X131651510Y-67022138D01*
X131777726Y-66983851D01*
X131894047Y-66921676D01*
X131996003Y-66838003D01*
X132025752Y-66801753D01*
X132089501Y-66865502D01*
X132089501Y-67394334D01*
X132079676Y-67375953D01*
X131996003Y-67273997D01*
X131894047Y-67190324D01*
X131777726Y-67128149D01*
X131651510Y-67089862D01*
X131520250Y-67076934D01*
X130607750Y-67076934D01*
X130476490Y-67089862D01*
X130350274Y-67128149D01*
X130233953Y-67190324D01*
X130131997Y-67273997D01*
X130048324Y-67375953D01*
X130026651Y-67416500D01*
X125720828Y-67416500D01*
X125692499Y-67413710D01*
X125664170Y-67416500D01*
X125664164Y-67416500D01*
X125579388Y-67424850D01*
X125470624Y-67457843D01*
X125370385Y-67511421D01*
X125353535Y-67525250D01*
X125304535Y-67565463D01*
X125304533Y-67565465D01*
X125282526Y-67583526D01*
X125264465Y-67605533D01*
X124528642Y-68341357D01*
X124477072Y-68319996D01*
X124220698Y-68269000D01*
X123959302Y-68269000D01*
X123702928Y-68319996D01*
X123461430Y-68420028D01*
X123244087Y-68565252D01*
X123059252Y-68750087D01*
X122914028Y-68967430D01*
X122813996Y-69208928D01*
X122763000Y-69465302D01*
X122763000Y-69726698D01*
X122813996Y-69983072D01*
X122914028Y-70224570D01*
X123059252Y-70441913D01*
X123244087Y-70626748D01*
X123461430Y-70771972D01*
X123513000Y-70793333D01*
X123513001Y-73464652D01*
X123477862Y-73580490D01*
X123464934Y-73711750D01*
X123464934Y-74016524D01*
X123454500Y-74122463D01*
X123454501Y-75646463D01*
X123451612Y-75675799D01*
X123443676Y-75660953D01*
X123433500Y-75648553D01*
X123433500Y-74122462D01*
X123423066Y-74016523D01*
X123423066Y-73711750D01*
X123410138Y-73580490D01*
X123371851Y-73454274D01*
X123309676Y-73337953D01*
X123226003Y-73235997D01*
X123124047Y-73152324D01*
X123007726Y-73090149D01*
X122881510Y-73051862D01*
X122750250Y-73038934D01*
X122262750Y-73038934D01*
X122131490Y-73051862D01*
X122005274Y-73090149D01*
X121888953Y-73152324D01*
X121786997Y-73235997D01*
X121703324Y-73337953D01*
X121641149Y-73454274D01*
X121602862Y-73580490D01*
X121589934Y-73711750D01*
X121589934Y-74016524D01*
X121579500Y-74122463D01*
X121579501Y-75490467D01*
X121495997Y-75558997D01*
X121412324Y-75660953D01*
X121350149Y-75777274D01*
X121311862Y-75903490D01*
X121298934Y-76034750D01*
X121298934Y-76522250D01*
X121311862Y-76653510D01*
X121350149Y-76779726D01*
X121412324Y-76896047D01*
X121495997Y-76998003D01*
X121597953Y-77081676D01*
X121714274Y-77143851D01*
X121840490Y-77182138D01*
X121971750Y-77195066D01*
X122276534Y-77195066D01*
X122428000Y-77209984D01*
X122579466Y-77195066D01*
X122884250Y-77195066D01*
X123015510Y-77182138D01*
X123141726Y-77143851D01*
X123258047Y-77081676D01*
X123360003Y-76998003D01*
X123443676Y-76896047D01*
X123505851Y-76779726D01*
X123544138Y-76653510D01*
X123557066Y-76522250D01*
X123557066Y-76116087D01*
X123606999Y-76209505D01*
X123693812Y-76315287D01*
X123693817Y-76315292D01*
X123722842Y-76350659D01*
X123758209Y-76379684D01*
X123838934Y-76460409D01*
X123838934Y-76522250D01*
X123851862Y-76653510D01*
X123890149Y-76779726D01*
X123952324Y-76896047D01*
X124035997Y-76998003D01*
X124137953Y-77081676D01*
X124254274Y-77143851D01*
X124380490Y-77182138D01*
X124511750Y-77195066D01*
X124816523Y-77195066D01*
X124922462Y-77205500D01*
X124922472Y-77205500D01*
X124967999Y-77209984D01*
X125013526Y-77205500D01*
X127553538Y-77205500D01*
X127659477Y-77195066D01*
X127964250Y-77195066D01*
X128095510Y-77182138D01*
X128221726Y-77143851D01*
X128338047Y-77081676D01*
X128440003Y-76998003D01*
X128523676Y-76896047D01*
X128585851Y-76779726D01*
X128624138Y-76653510D01*
X128637066Y-76522250D01*
X128637066Y-76034750D01*
X128624138Y-75903490D01*
X128585851Y-75777274D01*
X128523676Y-75660953D01*
X128440003Y-75558997D01*
X128338047Y-75475324D01*
X128221726Y-75413149D01*
X128095510Y-75374862D01*
X127964250Y-75361934D01*
X127659477Y-75361934D01*
X127553538Y-75351500D01*
X125351975Y-75351500D01*
X125308500Y-75308025D01*
X125308500Y-74122462D01*
X125298066Y-74016523D01*
X125298066Y-73711750D01*
X125285138Y-73580490D01*
X125246851Y-73454274D01*
X125184676Y-73337953D01*
X125101003Y-73235997D01*
X124999047Y-73152324D01*
X124882726Y-73090149D01*
X124756510Y-73051862D01*
X124667000Y-73043046D01*
X124667000Y-70793333D01*
X124718570Y-70771972D01*
X124935913Y-70626748D01*
X125120748Y-70441913D01*
X125265972Y-70224570D01*
X125366004Y-69983072D01*
X125417000Y-69726698D01*
X125417000Y-69465302D01*
X125366004Y-69208928D01*
X125344643Y-69157358D01*
X125931502Y-68570500D01*
X126638839Y-68570500D01*
X126459252Y-68750087D01*
X126314028Y-68967430D01*
X126213996Y-69208928D01*
X126163000Y-69465302D01*
X126163000Y-69726698D01*
X126213996Y-69983072D01*
X126314028Y-70224570D01*
X126459252Y-70441913D01*
X126644087Y-70626748D01*
X126861430Y-70771972D01*
X127102928Y-70872004D01*
X127359302Y-70923000D01*
X127620698Y-70923000D01*
X127877072Y-70872004D01*
X128118570Y-70771972D01*
X128335913Y-70626748D01*
X128520748Y-70441913D01*
X128665972Y-70224570D01*
X128766004Y-69983072D01*
X128817000Y-69726698D01*
X128817000Y-69465302D01*
X128766004Y-69208928D01*
X128665972Y-68967430D01*
X128520748Y-68750087D01*
X128341161Y-68570500D01*
X130026651Y-68570500D01*
X130048324Y-68611047D01*
X130131997Y-68713003D01*
X130233953Y-68796676D01*
X130350274Y-68858851D01*
X130476490Y-68897138D01*
X130607750Y-68910066D01*
X131520250Y-68910066D01*
X131651510Y-68897138D01*
X131777726Y-68858851D01*
X131894047Y-68796676D01*
X131996003Y-68713003D01*
X132079676Y-68611047D01*
X132089501Y-68592666D01*
X132089500Y-73130651D01*
X132048953Y-73152324D01*
X131946997Y-73235997D01*
X131863324Y-73337953D01*
X131801149Y-73454274D01*
X131762862Y-73580490D01*
X131749934Y-73711750D01*
X131749934Y-74016524D01*
X131739500Y-74122463D01*
X131739501Y-75351500D01*
X130002462Y-75351500D01*
X129896523Y-75361934D01*
X129591750Y-75361934D01*
X129460490Y-75374862D01*
X129334274Y-75413149D01*
X129217953Y-75475324D01*
X129115997Y-75558997D01*
X129032324Y-75660953D01*
X128970149Y-75777274D01*
X128931862Y-75903490D01*
X128918934Y-76034750D01*
X128918934Y-76522250D01*
X128931862Y-76653510D01*
X128970149Y-76779726D01*
X129032324Y-76896047D01*
X129115997Y-76998003D01*
X129217953Y-77081676D01*
X129334274Y-77143851D01*
X129460490Y-77182138D01*
X129591750Y-77195066D01*
X129896523Y-77195066D01*
X130002462Y-77205500D01*
X131448165Y-77205500D01*
X131436815Y-77214815D01*
X131357463Y-77311506D01*
X131298498Y-77421820D01*
X131262188Y-77541518D01*
X131249928Y-77666000D01*
X131253000Y-77867750D01*
X131411750Y-78026500D01*
X132461000Y-78026500D01*
X132461000Y-78006500D01*
X132715000Y-78006500D01*
X132715000Y-78026500D01*
X133764250Y-78026500D01*
X133858000Y-77932750D01*
X133951750Y-78026500D01*
X135001000Y-78026500D01*
X135001000Y-78006500D01*
X135255000Y-78006500D01*
X135255000Y-78026500D01*
X136304250Y-78026500D01*
X136463000Y-77867750D01*
X136466072Y-77666000D01*
X136453812Y-77541518D01*
X136417502Y-77421820D01*
X136358537Y-77311506D01*
X136279185Y-77214815D01*
X136182494Y-77135463D01*
X136072180Y-77076498D01*
X135993455Y-77052617D01*
X136060003Y-76998003D01*
X136143676Y-76896047D01*
X136205851Y-76779726D01*
X136244138Y-76653510D01*
X136257066Y-76522250D01*
X136257066Y-76034750D01*
X136244138Y-75903490D01*
X136205851Y-75777274D01*
X136143676Y-75660953D01*
X136060003Y-75558997D01*
X135958047Y-75475324D01*
X135841726Y-75413149D01*
X135715510Y-75374862D01*
X135584250Y-75361934D01*
X135522409Y-75361934D01*
X135468500Y-75308025D01*
X135468500Y-74122462D01*
X135458066Y-74016523D01*
X135458066Y-73711750D01*
X135445138Y-73580490D01*
X135406851Y-73454274D01*
X135344676Y-73337953D01*
X135261003Y-73235997D01*
X135159047Y-73152324D01*
X135042726Y-73090149D01*
X134916510Y-73051862D01*
X134785250Y-73038934D01*
X134297750Y-73038934D01*
X134166490Y-73051862D01*
X134040274Y-73090149D01*
X133923953Y-73152324D01*
X133821997Y-73235997D01*
X133738324Y-73337953D01*
X133676149Y-73454274D01*
X133637862Y-73580490D01*
X133624934Y-73711750D01*
X133624934Y-74016524D01*
X133614500Y-74122463D01*
X133614501Y-75646463D01*
X133611612Y-75675799D01*
X133603676Y-75660953D01*
X133593500Y-75648553D01*
X133593500Y-74122462D01*
X133583066Y-74016523D01*
X133583066Y-73711750D01*
X133570138Y-73580490D01*
X133531851Y-73454274D01*
X133469676Y-73337953D01*
X133386003Y-73235997D01*
X133284047Y-73152324D01*
X133243500Y-73130651D01*
X133243500Y-70231000D01*
X140722000Y-70231000D01*
X140722001Y-91821000D01*
X135128000Y-91821000D01*
X135103224Y-91823440D01*
X135079399Y-91830667D01*
X135057443Y-91842403D01*
X135038197Y-91858197D01*
X132498197Y-94398197D01*
X132482403Y-94417443D01*
X132470667Y-94439399D01*
X132463440Y-94463224D01*
X132461000Y-94488000D01*
X132461000Y-100082000D01*
X80899000Y-100082000D01*
X80899000Y-94996000D01*
X107791678Y-94996000D01*
X107828884Y-95373758D01*
X107939071Y-95736998D01*
X108118007Y-96071763D01*
X108358813Y-96365187D01*
X108652237Y-96605993D01*
X108987002Y-96784929D01*
X109350242Y-96895116D01*
X109728000Y-96932322D01*
X110105758Y-96895116D01*
X110468998Y-96784929D01*
X110803763Y-96605993D01*
X111023661Y-96425528D01*
X111103964Y-96345224D01*
X113638381Y-96345224D01*
X113770317Y-96640312D01*
X114111045Y-96811159D01*
X114478557Y-96912250D01*
X114858729Y-96939701D01*
X115236951Y-96892457D01*
X115598690Y-96772333D01*
X115845683Y-96640312D01*
X115977619Y-96345224D01*
X114808000Y-95175605D01*
X113638381Y-96345224D01*
X111103964Y-96345224D01*
X111277656Y-96171532D01*
X111351187Y-96111187D01*
X111591994Y-95817763D01*
X111770929Y-95482999D01*
X111881117Y-95119758D01*
X111888309Y-95046729D01*
X112864299Y-95046729D01*
X112911543Y-95424951D01*
X113031667Y-95786690D01*
X113163688Y-96033683D01*
X113458776Y-96165619D01*
X114628395Y-94996000D01*
X114987605Y-94996000D01*
X116157224Y-96165619D01*
X116452312Y-96033683D01*
X116623159Y-95692955D01*
X116724250Y-95325443D01*
X116751701Y-94945271D01*
X116704457Y-94567049D01*
X116584333Y-94205310D01*
X116452312Y-93958317D01*
X116157224Y-93826381D01*
X114987605Y-94996000D01*
X114628395Y-94996000D01*
X113458776Y-93826381D01*
X113163688Y-93958317D01*
X112992841Y-94299045D01*
X112891750Y-94666557D01*
X112864299Y-95046729D01*
X111888309Y-95046729D01*
X111909000Y-94836658D01*
X111909000Y-94836648D01*
X111918322Y-94742001D01*
X111909000Y-94647353D01*
X111909000Y-93646776D01*
X113638381Y-93646776D01*
X114808000Y-94816395D01*
X115977619Y-93646776D01*
X115845683Y-93351688D01*
X115504955Y-93180841D01*
X115137443Y-93079750D01*
X114757271Y-93052299D01*
X114379049Y-93099543D01*
X114017310Y-93219667D01*
X113770317Y-93351688D01*
X113638381Y-93646776D01*
X111909000Y-93646776D01*
X111909000Y-92648000D01*
X122904928Y-92648000D01*
X122917188Y-92772482D01*
X122953498Y-92892180D01*
X123012463Y-93002494D01*
X123091815Y-93099185D01*
X123188506Y-93178537D01*
X123298820Y-93237502D01*
X123418518Y-93273812D01*
X123543000Y-93286072D01*
X123744750Y-93283000D01*
X123903500Y-93124250D01*
X123903500Y-92075000D01*
X123066750Y-92075000D01*
X122908000Y-92233750D01*
X122904928Y-92648000D01*
X111909000Y-92648000D01*
X111909000Y-91248000D01*
X122904928Y-91248000D01*
X122908000Y-91662250D01*
X123066750Y-91821000D01*
X123903500Y-91821000D01*
X123903500Y-90771750D01*
X124157500Y-90771750D01*
X124157500Y-91821000D01*
X124177500Y-91821000D01*
X124177500Y-92075000D01*
X124157500Y-92075000D01*
X124157500Y-93124250D01*
X124316250Y-93283000D01*
X124518000Y-93286072D01*
X124642482Y-93273812D01*
X124762180Y-93237502D01*
X124872494Y-93178537D01*
X124969185Y-93099185D01*
X125048537Y-93002494D01*
X125107502Y-92892180D01*
X125131383Y-92813455D01*
X125185997Y-92880003D01*
X125287953Y-92963676D01*
X125404274Y-93025851D01*
X125530490Y-93064138D01*
X125661750Y-93077066D01*
X126149250Y-93077066D01*
X126280510Y-93064138D01*
X126406726Y-93025851D01*
X126523047Y-92963676D01*
X126625003Y-92880003D01*
X126708676Y-92778047D01*
X126770851Y-92661726D01*
X126809138Y-92535510D01*
X126822066Y-92404250D01*
X126822066Y-92099477D01*
X126832500Y-91993538D01*
X126832500Y-90364066D01*
X127917001Y-90364066D01*
X128049480Y-90351018D01*
X128176868Y-90312375D01*
X128294269Y-90249623D01*
X128397172Y-90165172D01*
X128481623Y-90062269D01*
X128544375Y-89944868D01*
X128583018Y-89817480D01*
X128596066Y-89685001D01*
X128596066Y-88834999D01*
X128583018Y-88702520D01*
X128544375Y-88575132D01*
X128481623Y-88457731D01*
X128397172Y-88354828D01*
X128294269Y-88270377D01*
X128176868Y-88207625D01*
X128049480Y-88168982D01*
X127917001Y-88155934D01*
X125066999Y-88155934D01*
X124934520Y-88168982D01*
X124807132Y-88207625D01*
X124689731Y-88270377D01*
X124586828Y-88354828D01*
X124502377Y-88457731D01*
X124439625Y-88575132D01*
X124400982Y-88702520D01*
X124387934Y-88834999D01*
X124387934Y-89685001D01*
X124400982Y-89817480D01*
X124439625Y-89944868D01*
X124502377Y-90062269D01*
X124586828Y-90165172D01*
X124689731Y-90249623D01*
X124807132Y-90312375D01*
X124934520Y-90351018D01*
X124978501Y-90355350D01*
X124978500Y-90808166D01*
X124969185Y-90796815D01*
X124872494Y-90717463D01*
X124762180Y-90658498D01*
X124642482Y-90622188D01*
X124518000Y-90609928D01*
X124316250Y-90613000D01*
X124157500Y-90771750D01*
X123903500Y-90771750D01*
X123744750Y-90613000D01*
X123543000Y-90609928D01*
X123418518Y-90622188D01*
X123298820Y-90658498D01*
X123188506Y-90717463D01*
X123091815Y-90796815D01*
X123012463Y-90893506D01*
X122953498Y-91003820D01*
X122917188Y-91123518D01*
X122904928Y-91248000D01*
X111909000Y-91248000D01*
X111909000Y-87541000D01*
X113662025Y-87541000D01*
X116004316Y-89883292D01*
X116033341Y-89918659D01*
X116068708Y-89947684D01*
X116068712Y-89947688D01*
X116174494Y-90034501D01*
X116321357Y-90113001D01*
X116335536Y-90120580D01*
X116510276Y-90173587D01*
X116646462Y-90187000D01*
X116646472Y-90187000D01*
X116691999Y-90191484D01*
X116737526Y-90187000D01*
X120041425Y-90187000D01*
X120117731Y-90249623D01*
X120235132Y-90312375D01*
X120362520Y-90351018D01*
X120494999Y-90364066D01*
X123345001Y-90364066D01*
X123477480Y-90351018D01*
X123604868Y-90312375D01*
X123722269Y-90249623D01*
X123825172Y-90165172D01*
X123909623Y-90062269D01*
X123972375Y-89944868D01*
X124011018Y-89817480D01*
X124024066Y-89685001D01*
X124024066Y-88834999D01*
X124011018Y-88702520D01*
X123972375Y-88575132D01*
X123909623Y-88457731D01*
X123825172Y-88354828D01*
X123722269Y-88270377D01*
X123604868Y-88207625D01*
X123477480Y-88168982D01*
X123345001Y-88155934D01*
X120494999Y-88155934D01*
X120362520Y-88168982D01*
X120235132Y-88207625D01*
X120117731Y-88270377D01*
X120041425Y-88333000D01*
X117075976Y-88333000D01*
X114733688Y-85990713D01*
X114704659Y-85955341D01*
X114563505Y-85839499D01*
X114402464Y-85753420D01*
X114227724Y-85700413D01*
X114091538Y-85687000D01*
X114091527Y-85687000D01*
X114046000Y-85682516D01*
X114000473Y-85687000D01*
X111671509Y-85687000D01*
X111591994Y-85538237D01*
X111351187Y-85244813D01*
X111057763Y-85004006D01*
X110722998Y-84825071D01*
X110359757Y-84714883D01*
X109982000Y-84677677D01*
X109604242Y-84714883D01*
X109241001Y-84825071D01*
X108906237Y-85004006D01*
X108612813Y-85244813D01*
X108372006Y-85538237D01*
X108193071Y-85873002D01*
X108082883Y-86236243D01*
X108055000Y-86519343D01*
X108055001Y-94038113D01*
X107939071Y-94255002D01*
X107828884Y-94618242D01*
X107791678Y-94996000D01*
X80899000Y-94996000D01*
X80899000Y-94488000D01*
X80896560Y-94463224D01*
X80889333Y-94439399D01*
X80877597Y-94417443D01*
X80861803Y-94398197D01*
X79181586Y-92717980D01*
X89445626Y-92717980D01*
X89565514Y-93002836D01*
X89889210Y-93163699D01*
X90238069Y-93258322D01*
X90598684Y-93283067D01*
X90957198Y-93236985D01*
X91299833Y-93121846D01*
X91522486Y-93002836D01*
X91642374Y-92717980D01*
X90544000Y-91619605D01*
X89445626Y-92717980D01*
X79181586Y-92717980D01*
X78321803Y-91858197D01*
X78302557Y-91842403D01*
X78280601Y-91830667D01*
X78256776Y-91823440D01*
X78232000Y-91821000D01*
X72638000Y-91821000D01*
X72638000Y-91494684D01*
X88700933Y-91494684D01*
X88747015Y-91853198D01*
X88862154Y-92195833D01*
X88981164Y-92418486D01*
X89266020Y-92538374D01*
X90364395Y-91440000D01*
X90723605Y-91440000D01*
X91821980Y-92538374D01*
X92106836Y-92418486D01*
X92267699Y-92094790D01*
X92362322Y-91745931D01*
X92387067Y-91385316D01*
X92340985Y-91026802D01*
X92225846Y-90684167D01*
X92106836Y-90461514D01*
X91821980Y-90341626D01*
X90723605Y-91440000D01*
X90364395Y-91440000D01*
X89266020Y-90341626D01*
X88981164Y-90461514D01*
X88820301Y-90785210D01*
X88725678Y-91134069D01*
X88700933Y-91494684D01*
X72638000Y-91494684D01*
X72638000Y-89741224D01*
X78586381Y-89741224D01*
X78718317Y-90036312D01*
X79059045Y-90207159D01*
X79426557Y-90308250D01*
X79806729Y-90335701D01*
X80184951Y-90288457D01*
X80546690Y-90168333D01*
X80558500Y-90162020D01*
X89445626Y-90162020D01*
X90544000Y-91260395D01*
X91642374Y-90162020D01*
X91522486Y-89877164D01*
X91198790Y-89716301D01*
X90849931Y-89621678D01*
X90489316Y-89596933D01*
X90130802Y-89643015D01*
X89788167Y-89758154D01*
X89565514Y-89877164D01*
X89445626Y-90162020D01*
X80558500Y-90162020D01*
X80793683Y-90036312D01*
X80925619Y-89741224D01*
X79756000Y-88571605D01*
X78586381Y-89741224D01*
X72638000Y-89741224D01*
X72638000Y-88442729D01*
X77812299Y-88442729D01*
X77859543Y-88820951D01*
X77979667Y-89182690D01*
X78111688Y-89429683D01*
X78406776Y-89561619D01*
X79576395Y-88392000D01*
X79935605Y-88392000D01*
X81105224Y-89561619D01*
X81400312Y-89429683D01*
X81571159Y-89088955D01*
X81672250Y-88721443D01*
X81699701Y-88341271D01*
X81652457Y-87963049D01*
X81532333Y-87601310D01*
X81400312Y-87354317D01*
X81105224Y-87222381D01*
X79935605Y-88392000D01*
X79576395Y-88392000D01*
X78406776Y-87222381D01*
X78111688Y-87354317D01*
X77940841Y-87695045D01*
X77839750Y-88062557D01*
X77812299Y-88442729D01*
X72638000Y-88442729D01*
X72638000Y-70231000D01*
X80264000Y-70231000D01*
X80288776Y-70228560D01*
X80312601Y-70221333D01*
X80334557Y-70209597D01*
X80353803Y-70193803D01*
X80369597Y-70174557D01*
X80381333Y-70152601D01*
X80388560Y-70128776D01*
X80391000Y-70104000D01*
X80391000Y-62192000D01*
X83905928Y-62192000D01*
X83909000Y-62706250D01*
X84067750Y-62865000D01*
X85217000Y-62865000D01*
X85217000Y-61715750D01*
X85471000Y-61715750D01*
X85471000Y-62865000D01*
X86620250Y-62865000D01*
X86779000Y-62706250D01*
X86782072Y-62192000D01*
X86769812Y-62067518D01*
X86733502Y-61947820D01*
X86674537Y-61837506D01*
X86595185Y-61740815D01*
X86498494Y-61661463D01*
X86388180Y-61602498D01*
X86268482Y-61566188D01*
X86144000Y-61553928D01*
X85629750Y-61557000D01*
X85471000Y-61715750D01*
X85217000Y-61715750D01*
X85058250Y-61557000D01*
X84544000Y-61553928D01*
X84419518Y-61566188D01*
X84299820Y-61602498D01*
X84189506Y-61661463D01*
X84092815Y-61740815D01*
X84013463Y-61837506D01*
X83954498Y-61947820D01*
X83918188Y-62067518D01*
X83905928Y-62192000D01*
X80391000Y-62192000D01*
X80391000Y-60446000D01*
X90334130Y-60446000D01*
X86721504Y-64058626D01*
G36*
X105170000Y-66138250D02*
G01*
X105328750Y-66297000D01*
X106553000Y-66297000D01*
X106553000Y-66277000D01*
X106807000Y-66277000D01*
X106807000Y-66297000D01*
X106827000Y-66297000D01*
X106827000Y-66551000D01*
X106807000Y-66551000D01*
X106807000Y-67525250D01*
X106965750Y-67684000D01*
X107269000Y-67685581D01*
X107269000Y-69927130D01*
X106378065Y-70818065D01*
X106370510Y-70827271D01*
X106356185Y-70809815D01*
X106259494Y-70730463D01*
X106149180Y-70671498D01*
X106029482Y-70635188D01*
X105905000Y-70622928D01*
X105565750Y-70626000D01*
X105407000Y-70784750D01*
X105407000Y-72009000D01*
X105427000Y-72009000D01*
X105427000Y-72263000D01*
X105407000Y-72263000D01*
X105407000Y-73487250D01*
X105565750Y-73646000D01*
X105905000Y-73649072D01*
X106029482Y-73636812D01*
X106149180Y-73600502D01*
X106253000Y-73545008D01*
X106253000Y-77547130D01*
X105254788Y-78545342D01*
X105207804Y-78559595D01*
X105133624Y-78599245D01*
X105068605Y-78652605D01*
X105015245Y-78717624D01*
X104975595Y-78791804D01*
X104961342Y-78838788D01*
X104813553Y-78986577D01*
X104664702Y-78942903D01*
X103851605Y-79756000D01*
X103865748Y-79770143D01*
X103686143Y-79949748D01*
X103672000Y-79935605D01*
X102858903Y-80748702D01*
X102902577Y-80897553D01*
X99899130Y-83901000D01*
X97204870Y-83901000D01*
X94281935Y-80978065D01*
X94217228Y-80924962D01*
X94143406Y-80885503D01*
X94063304Y-80861205D01*
X93980000Y-80853000D01*
X90438870Y-80853000D01*
X91465358Y-79826512D01*
X102231783Y-79826512D01*
X102273213Y-80106130D01*
X102368397Y-80372292D01*
X102435329Y-80497514D01*
X102679298Y-80569097D01*
X103492395Y-79756000D01*
X102679298Y-78942903D01*
X102435329Y-79014486D01*
X102314429Y-79269996D01*
X102245700Y-79544184D01*
X102231783Y-79826512D01*
X91465358Y-79826512D01*
X92528572Y-78763298D01*
X102858903Y-78763298D01*
X103672000Y-79576395D01*
X104485097Y-78763298D01*
X104413514Y-78519329D01*
X104158004Y-78398429D01*
X103883816Y-78329700D01*
X103601488Y-78315783D01*
X103321870Y-78357213D01*
X103055708Y-78452397D01*
X102930486Y-78519329D01*
X102858903Y-78763298D01*
X92528572Y-78763298D01*
X95297935Y-75993935D01*
X95351038Y-75929228D01*
X95390497Y-75855406D01*
X95414795Y-75775304D01*
X95423000Y-75692000D01*
X95423000Y-75368000D01*
X96205928Y-75368000D01*
X96218188Y-75492482D01*
X96254498Y-75612180D01*
X96313463Y-75722494D01*
X96392815Y-75819185D01*
X96489506Y-75898537D01*
X96599820Y-75957502D01*
X96719518Y-75993812D01*
X96844000Y-76006072D01*
X97758250Y-76003000D01*
X97917000Y-75844250D01*
X97917000Y-74295000D01*
X98171000Y-74295000D01*
X98171000Y-75844250D01*
X98329750Y-76003000D01*
X99244000Y-76006072D01*
X99368482Y-75993812D01*
X99488180Y-75957502D01*
X99598494Y-75898537D01*
X99695185Y-75819185D01*
X99774537Y-75722494D01*
X99833502Y-75612180D01*
X99869812Y-75492482D01*
X99882072Y-75368000D01*
X99879000Y-74453750D01*
X99720250Y-74295000D01*
X98171000Y-74295000D01*
X97917000Y-74295000D01*
X96367750Y-74295000D01*
X96209000Y-74453750D01*
X96205928Y-75368000D01*
X95423000Y-75368000D01*
X95423000Y-72968000D01*
X96205928Y-72968000D01*
X96209000Y-73882250D01*
X96367750Y-74041000D01*
X97917000Y-74041000D01*
X97917000Y-72491750D01*
X98171000Y-72491750D01*
X98171000Y-74041000D01*
X99720250Y-74041000D01*
X99879000Y-73882250D01*
X99881927Y-73011000D01*
X104016928Y-73011000D01*
X104029188Y-73135482D01*
X104065498Y-73255180D01*
X104124463Y-73365494D01*
X104203815Y-73462185D01*
X104300506Y-73541537D01*
X104410820Y-73600502D01*
X104530518Y-73636812D01*
X104655000Y-73649072D01*
X104994250Y-73646000D01*
X105153000Y-73487250D01*
X105153000Y-72263000D01*
X104178750Y-72263000D01*
X104020000Y-72421750D01*
X104016928Y-73011000D01*
X99881927Y-73011000D01*
X99882072Y-72968000D01*
X99869812Y-72843518D01*
X99833502Y-72723820D01*
X99774537Y-72613506D01*
X99695185Y-72516815D01*
X99598494Y-72437463D01*
X99488180Y-72378498D01*
X99368482Y-72342188D01*
X99244000Y-72329928D01*
X98329750Y-72333000D01*
X98171000Y-72491750D01*
X97917000Y-72491750D01*
X97758250Y-72333000D01*
X96844000Y-72329928D01*
X96719518Y-72342188D01*
X96599820Y-72378498D01*
X96489506Y-72437463D01*
X96392815Y-72516815D01*
X96313463Y-72613506D01*
X96254498Y-72723820D01*
X96218188Y-72843518D01*
X96205928Y-72968000D01*
X95423000Y-72968000D01*
X95423000Y-71261000D01*
X104016928Y-71261000D01*
X104020000Y-71850250D01*
X104178750Y-72009000D01*
X105153000Y-72009000D01*
X105153000Y-70784750D01*
X104994250Y-70626000D01*
X104655000Y-70622928D01*
X104530518Y-70635188D01*
X104410820Y-70671498D01*
X104300506Y-70730463D01*
X104203815Y-70809815D01*
X104124463Y-70906506D01*
X104065498Y-71016820D01*
X104029188Y-71136518D01*
X104016928Y-71261000D01*
X95423000Y-71261000D01*
X95423000Y-70280870D01*
X98863870Y-66840000D01*
X100161928Y-66840000D01*
X100174188Y-66964482D01*
X100210498Y-67084180D01*
X100269463Y-67194494D01*
X100348815Y-67291185D01*
X100445506Y-67370537D01*
X100555820Y-67429502D01*
X100675518Y-67465812D01*
X100800000Y-67478072D01*
X101314250Y-67475000D01*
X101473000Y-67316250D01*
X101473000Y-66167000D01*
X101727000Y-66167000D01*
X101727000Y-67316250D01*
X101885750Y-67475000D01*
X102400000Y-67478072D01*
X102524482Y-67465812D01*
X102644180Y-67429502D01*
X102754494Y-67370537D01*
X102851185Y-67291185D01*
X102930537Y-67194494D01*
X102989502Y-67084180D01*
X103000173Y-67049000D01*
X105166928Y-67049000D01*
X105179188Y-67173482D01*
X105215498Y-67293180D01*
X105274463Y-67403494D01*
X105353815Y-67500185D01*
X105450506Y-67579537D01*
X105560820Y-67638502D01*
X105680518Y-67674812D01*
X105805000Y-67687072D01*
X106394250Y-67684000D01*
X106553000Y-67525250D01*
X106553000Y-66551000D01*
X105328750Y-66551000D01*
X105170000Y-66709750D01*
X105166928Y-67049000D01*
X103000173Y-67049000D01*
X103025812Y-66964482D01*
X103038072Y-66840000D01*
X103035000Y-66325750D01*
X102876250Y-66167000D01*
X101727000Y-66167000D01*
X101473000Y-66167000D01*
X100323750Y-66167000D01*
X100165000Y-66325750D01*
X100161928Y-66840000D01*
X98863870Y-66840000D01*
X99744870Y-65959000D01*
X105168377Y-65959000D01*
X105170000Y-66138250D01*
G37*
X105170000Y-66138250D02*
X105328750Y-66297000D01*
X106553000Y-66297000D01*
X106553000Y-66277000D01*
X106807000Y-66277000D01*
X106807000Y-66297000D01*
X106827000Y-66297000D01*
X106827000Y-66551000D01*
X106807000Y-66551000D01*
X106807000Y-67525250D01*
X106965750Y-67684000D01*
X107269000Y-67685581D01*
X107269000Y-69927130D01*
X106378065Y-70818065D01*
X106370510Y-70827271D01*
X106356185Y-70809815D01*
X106259494Y-70730463D01*
X106149180Y-70671498D01*
X106029482Y-70635188D01*
X105905000Y-70622928D01*
X105565750Y-70626000D01*
X105407000Y-70784750D01*
X105407000Y-72009000D01*
X105427000Y-72009000D01*
X105427000Y-72263000D01*
X105407000Y-72263000D01*
X105407000Y-73487250D01*
X105565750Y-73646000D01*
X105905000Y-73649072D01*
X106029482Y-73636812D01*
X106149180Y-73600502D01*
X106253000Y-73545008D01*
X106253000Y-77547130D01*
X105254788Y-78545342D01*
X105207804Y-78559595D01*
X105133624Y-78599245D01*
X105068605Y-78652605D01*
X105015245Y-78717624D01*
X104975595Y-78791804D01*
X104961342Y-78838788D01*
X104813553Y-78986577D01*
X104664702Y-78942903D01*
X103851605Y-79756000D01*
X103865748Y-79770143D01*
X103686143Y-79949748D01*
X103672000Y-79935605D01*
X102858903Y-80748702D01*
X102902577Y-80897553D01*
X99899130Y-83901000D01*
X97204870Y-83901000D01*
X94281935Y-80978065D01*
X94217228Y-80924962D01*
X94143406Y-80885503D01*
X94063304Y-80861205D01*
X93980000Y-80853000D01*
X90438870Y-80853000D01*
X91465358Y-79826512D01*
X102231783Y-79826512D01*
X102273213Y-80106130D01*
X102368397Y-80372292D01*
X102435329Y-80497514D01*
X102679298Y-80569097D01*
X103492395Y-79756000D01*
X102679298Y-78942903D01*
X102435329Y-79014486D01*
X102314429Y-79269996D01*
X102245700Y-79544184D01*
X102231783Y-79826512D01*
X91465358Y-79826512D01*
X92528572Y-78763298D01*
X102858903Y-78763298D01*
X103672000Y-79576395D01*
X104485097Y-78763298D01*
X104413514Y-78519329D01*
X104158004Y-78398429D01*
X103883816Y-78329700D01*
X103601488Y-78315783D01*
X103321870Y-78357213D01*
X103055708Y-78452397D01*
X102930486Y-78519329D01*
X102858903Y-78763298D01*
X92528572Y-78763298D01*
X95297935Y-75993935D01*
X95351038Y-75929228D01*
X95390497Y-75855406D01*
X95414795Y-75775304D01*
X95423000Y-75692000D01*
X95423000Y-75368000D01*
X96205928Y-75368000D01*
X96218188Y-75492482D01*
X96254498Y-75612180D01*
X96313463Y-75722494D01*
X96392815Y-75819185D01*
X96489506Y-75898537D01*
X96599820Y-75957502D01*
X96719518Y-75993812D01*
X96844000Y-76006072D01*
X97758250Y-76003000D01*
X97917000Y-75844250D01*
X97917000Y-74295000D01*
X98171000Y-74295000D01*
X98171000Y-75844250D01*
X98329750Y-76003000D01*
X99244000Y-76006072D01*
X99368482Y-75993812D01*
X99488180Y-75957502D01*
X99598494Y-75898537D01*
X99695185Y-75819185D01*
X99774537Y-75722494D01*
X99833502Y-75612180D01*
X99869812Y-75492482D01*
X99882072Y-75368000D01*
X99879000Y-74453750D01*
X99720250Y-74295000D01*
X98171000Y-74295000D01*
X97917000Y-74295000D01*
X96367750Y-74295000D01*
X96209000Y-74453750D01*
X96205928Y-75368000D01*
X95423000Y-75368000D01*
X95423000Y-72968000D01*
X96205928Y-72968000D01*
X96209000Y-73882250D01*
X96367750Y-74041000D01*
X97917000Y-74041000D01*
X97917000Y-72491750D01*
X98171000Y-72491750D01*
X98171000Y-74041000D01*
X99720250Y-74041000D01*
X99879000Y-73882250D01*
X99881927Y-73011000D01*
X104016928Y-73011000D01*
X104029188Y-73135482D01*
X104065498Y-73255180D01*
X104124463Y-73365494D01*
X104203815Y-73462185D01*
X104300506Y-73541537D01*
X104410820Y-73600502D01*
X104530518Y-73636812D01*
X104655000Y-73649072D01*
X104994250Y-73646000D01*
X105153000Y-73487250D01*
X105153000Y-72263000D01*
X104178750Y-72263000D01*
X104020000Y-72421750D01*
X104016928Y-73011000D01*
X99881927Y-73011000D01*
X99882072Y-72968000D01*
X99869812Y-72843518D01*
X99833502Y-72723820D01*
X99774537Y-72613506D01*
X99695185Y-72516815D01*
X99598494Y-72437463D01*
X99488180Y-72378498D01*
X99368482Y-72342188D01*
X99244000Y-72329928D01*
X98329750Y-72333000D01*
X98171000Y-72491750D01*
X97917000Y-72491750D01*
X97758250Y-72333000D01*
X96844000Y-72329928D01*
X96719518Y-72342188D01*
X96599820Y-72378498D01*
X96489506Y-72437463D01*
X96392815Y-72516815D01*
X96313463Y-72613506D01*
X96254498Y-72723820D01*
X96218188Y-72843518D01*
X96205928Y-72968000D01*
X95423000Y-72968000D01*
X95423000Y-71261000D01*
X104016928Y-71261000D01*
X104020000Y-71850250D01*
X104178750Y-72009000D01*
X105153000Y-72009000D01*
X105153000Y-70784750D01*
X104994250Y-70626000D01*
X104655000Y-70622928D01*
X104530518Y-70635188D01*
X104410820Y-70671498D01*
X104300506Y-70730463D01*
X104203815Y-70809815D01*
X104124463Y-70906506D01*
X104065498Y-71016820D01*
X104029188Y-71136518D01*
X104016928Y-71261000D01*
X95423000Y-71261000D01*
X95423000Y-70280870D01*
X98863870Y-66840000D01*
X100161928Y-66840000D01*
X100174188Y-66964482D01*
X100210498Y-67084180D01*
X100269463Y-67194494D01*
X100348815Y-67291185D01*
X100445506Y-67370537D01*
X100555820Y-67429502D01*
X100675518Y-67465812D01*
X100800000Y-67478072D01*
X101314250Y-67475000D01*
X101473000Y-67316250D01*
X101473000Y-66167000D01*
X101727000Y-66167000D01*
X101727000Y-67316250D01*
X101885750Y-67475000D01*
X102400000Y-67478072D01*
X102524482Y-67465812D01*
X102644180Y-67429502D01*
X102754494Y-67370537D01*
X102851185Y-67291185D01*
X102930537Y-67194494D01*
X102989502Y-67084180D01*
X103000173Y-67049000D01*
X105166928Y-67049000D01*
X105179188Y-67173482D01*
X105215498Y-67293180D01*
X105274463Y-67403494D01*
X105353815Y-67500185D01*
X105450506Y-67579537D01*
X105560820Y-67638502D01*
X105680518Y-67674812D01*
X105805000Y-67687072D01*
X106394250Y-67684000D01*
X106553000Y-67525250D01*
X106553000Y-66551000D01*
X105328750Y-66551000D01*
X105170000Y-66709750D01*
X105166928Y-67049000D01*
X103000173Y-67049000D01*
X103025812Y-66964482D01*
X103038072Y-66840000D01*
X103035000Y-66325750D01*
X102876250Y-66167000D01*
X101727000Y-66167000D01*
X101473000Y-66167000D01*
X100323750Y-66167000D01*
X100165000Y-66325750D01*
X100161928Y-66840000D01*
X98863870Y-66840000D01*
X99744870Y-65959000D01*
X105168377Y-65959000D01*
X105170000Y-66138250D01*
%TO.N,VEE*%
G36*
X118237000Y-61012606D02*
G01*
X118237000Y-63423169D01*
X118144087Y-63485252D01*
X117959252Y-63670087D01*
X117814028Y-63887430D01*
X117713996Y-64128928D01*
X117663000Y-64385302D01*
X117663000Y-64646698D01*
X117713996Y-64903072D01*
X117738402Y-64961992D01*
X117295394Y-65405000D01*
X116832773Y-65405000D01*
X116902236Y-65312414D01*
X117032394Y-65041107D01*
X117081036Y-64880740D01*
X116960378Y-64643000D01*
X115717000Y-64643000D01*
X115717000Y-64663000D01*
X115463000Y-64663000D01*
X115463000Y-64643000D01*
X114219622Y-64643000D01*
X114098964Y-64880740D01*
X114147606Y-65041107D01*
X114277764Y-65312414D01*
X114347227Y-65405000D01*
X113177661Y-65405000D01*
X113220748Y-65361913D01*
X113365972Y-65144570D01*
X113466004Y-64903072D01*
X113517000Y-64646698D01*
X113517000Y-64385302D01*
X113470447Y-64151260D01*
X114098964Y-64151260D01*
X114219622Y-64389000D01*
X115463000Y-64389000D01*
X115463000Y-63145008D01*
X115717000Y-63145008D01*
X115717000Y-64389000D01*
X116960378Y-64389000D01*
X117081036Y-64151260D01*
X117032394Y-63990893D01*
X116902236Y-63719586D01*
X116721649Y-63478884D01*
X116497573Y-63278038D01*
X116238620Y-63124766D01*
X115954741Y-63024959D01*
X115717000Y-63145008D01*
X115463000Y-63145008D01*
X115225259Y-63024959D01*
X114941380Y-63124766D01*
X114682427Y-63278038D01*
X114458351Y-63478884D01*
X114277764Y-63719586D01*
X114147606Y-63990893D01*
X114098964Y-64151260D01*
X113470447Y-64151260D01*
X113466004Y-64128928D01*
X113365972Y-63887430D01*
X113220748Y-63670087D01*
X113035913Y-63485252D01*
X112818570Y-63340028D01*
X112577072Y-63239996D01*
X112320698Y-63189000D01*
X112059302Y-63189000D01*
X111802928Y-63239996D01*
X111561430Y-63340028D01*
X111344087Y-63485252D01*
X111159252Y-63670087D01*
X111014028Y-63887430D01*
X110913996Y-64128928D01*
X110863000Y-64385302D01*
X110863000Y-64646698D01*
X110913996Y-64903072D01*
X111014028Y-65144570D01*
X111159252Y-65361913D01*
X111202339Y-65405000D01*
X107510062Y-65405000D01*
X107437479Y-65382982D01*
X107305000Y-65369934D01*
X106055000Y-65369934D01*
X105922521Y-65382982D01*
X105849938Y-65405000D01*
X102829066Y-65405000D01*
X102829066Y-65240000D01*
X102820822Y-65156293D01*
X102796405Y-65075804D01*
X102756755Y-65001624D01*
X102703395Y-64936605D01*
X102638376Y-64883245D01*
X102564196Y-64843595D01*
X102483707Y-64819178D01*
X102400000Y-64810934D01*
X102277412Y-64810934D01*
X102341514Y-64776671D01*
X102413097Y-64532702D01*
X101600000Y-63719605D01*
X100786903Y-64532702D01*
X100858486Y-64776671D01*
X100930897Y-64810934D01*
X100800000Y-64810934D01*
X100716293Y-64819178D01*
X100635804Y-64843595D01*
X100561624Y-64883245D01*
X100496605Y-64936605D01*
X100443245Y-65001624D01*
X100403595Y-65075804D01*
X100379178Y-65156293D01*
X100370934Y-65240000D01*
X100370934Y-65405000D01*
X99568000Y-65405000D01*
X99543224Y-65407440D01*
X99519399Y-65414667D01*
X99497443Y-65426403D01*
X99478197Y-65442197D01*
X94906197Y-70014197D01*
X94890403Y-70033443D01*
X94878667Y-70055399D01*
X94871440Y-70079224D01*
X94869000Y-70104000D01*
X94869000Y-75639394D01*
X89863394Y-80645000D01*
X76760606Y-80645000D01*
X75696830Y-79581224D01*
X78586381Y-79581224D01*
X78718317Y-79876312D01*
X79059045Y-80047159D01*
X79426557Y-80148250D01*
X79806729Y-80175701D01*
X80184951Y-80128457D01*
X80546690Y-80008333D01*
X80793683Y-79876312D01*
X80925619Y-79581224D01*
X79756000Y-78411605D01*
X78586381Y-79581224D01*
X75696830Y-79581224D01*
X75311000Y-79195394D01*
X75311000Y-78282729D01*
X77812299Y-78282729D01*
X77859543Y-78660951D01*
X77979667Y-79022690D01*
X78111688Y-79269683D01*
X78406776Y-79401619D01*
X79576395Y-78232000D01*
X79935605Y-78232000D01*
X81105224Y-79401619D01*
X81400312Y-79269683D01*
X81571159Y-78928955D01*
X81672250Y-78561443D01*
X81699701Y-78181271D01*
X81652457Y-77803049D01*
X81532333Y-77441310D01*
X81400312Y-77194317D01*
X81105224Y-77062381D01*
X79935605Y-78232000D01*
X79576395Y-78232000D01*
X78406776Y-77062381D01*
X78111688Y-77194317D01*
X77940841Y-77535045D01*
X77839750Y-77902557D01*
X77812299Y-78282729D01*
X75311000Y-78282729D01*
X75311000Y-76882776D01*
X78586381Y-76882776D01*
X79756000Y-78052395D01*
X80925619Y-76882776D01*
X80793683Y-76587688D01*
X80452955Y-76416841D01*
X80085443Y-76315750D01*
X79705271Y-76288299D01*
X79327049Y-76335543D01*
X78965310Y-76455667D01*
X78718317Y-76587688D01*
X78586381Y-76882776D01*
X75311000Y-76882776D01*
X75311000Y-76760606D01*
X76625626Y-75445980D01*
X89445626Y-75445980D01*
X89565514Y-75730836D01*
X89889210Y-75891699D01*
X90238069Y-75986322D01*
X90598684Y-76011067D01*
X90957198Y-75964985D01*
X91299833Y-75849846D01*
X91522486Y-75730836D01*
X91642374Y-75445980D01*
X90544000Y-74347605D01*
X89445626Y-75445980D01*
X76625626Y-75445980D01*
X76760606Y-75311000D01*
X85344000Y-75311000D01*
X85368776Y-75308560D01*
X85392601Y-75301333D01*
X85414557Y-75289597D01*
X85433803Y-75273803D01*
X86484922Y-74222684D01*
X88700933Y-74222684D01*
X88747015Y-74581198D01*
X88862154Y-74923833D01*
X88981164Y-75146486D01*
X89266020Y-75266374D01*
X90364395Y-74168000D01*
X90723605Y-74168000D01*
X91821980Y-75266374D01*
X92106836Y-75146486D01*
X92267699Y-74822790D01*
X92362322Y-74473931D01*
X92387067Y-74113316D01*
X92340985Y-73754802D01*
X92225846Y-73412167D01*
X92106836Y-73189514D01*
X91821980Y-73069626D01*
X90723605Y-74168000D01*
X90364395Y-74168000D01*
X89266020Y-73069626D01*
X88981164Y-73189514D01*
X88820301Y-73513210D01*
X88725678Y-73862069D01*
X88700933Y-74222684D01*
X86484922Y-74222684D01*
X87817586Y-72890020D01*
X89445626Y-72890020D01*
X90544000Y-73988395D01*
X91642374Y-72890020D01*
X91522486Y-72605164D01*
X91198790Y-72444301D01*
X90849931Y-72349678D01*
X90489316Y-72324933D01*
X90130802Y-72371015D01*
X89788167Y-72486154D01*
X89565514Y-72605164D01*
X89445626Y-72890020D01*
X87817586Y-72890020D01*
X87973803Y-72733803D01*
X87989597Y-72714557D01*
X88001333Y-72692601D01*
X88008560Y-72668776D01*
X88011000Y-72644000D01*
X88011000Y-69596000D01*
X88008560Y-69571224D01*
X88001333Y-69547399D01*
X87989597Y-69525443D01*
X87973803Y-69506197D01*
X86957803Y-68490197D01*
X86938557Y-68474403D01*
X86916601Y-68462667D01*
X86892776Y-68455440D01*
X86868000Y-68453000D01*
X84888606Y-68453000D01*
X83947000Y-67511394D01*
X83947000Y-67484702D01*
X84530903Y-67484702D01*
X84602486Y-67728671D01*
X84857996Y-67849571D01*
X85132184Y-67918300D01*
X85414512Y-67932217D01*
X85694130Y-67890787D01*
X85960292Y-67795603D01*
X86085514Y-67728671D01*
X86157097Y-67484702D01*
X85344000Y-66671605D01*
X84530903Y-67484702D01*
X83947000Y-67484702D01*
X83947000Y-66847127D01*
X84040397Y-67108292D01*
X84107329Y-67233514D01*
X84351298Y-67305097D01*
X85164395Y-66492000D01*
X85523605Y-66492000D01*
X86336702Y-67305097D01*
X86580671Y-67233514D01*
X86701571Y-66978004D01*
X86770300Y-66703816D01*
X86784217Y-66421488D01*
X86742787Y-66141870D01*
X86647603Y-65875708D01*
X86580671Y-65750486D01*
X86336702Y-65678903D01*
X85523605Y-66492000D01*
X85164395Y-66492000D01*
X84351298Y-65678903D01*
X84107329Y-65750486D01*
X83986429Y-66005996D01*
X83947000Y-66163294D01*
X83947000Y-65584606D01*
X84032308Y-65499298D01*
X84530903Y-65499298D01*
X85344000Y-66312395D01*
X86157097Y-65499298D01*
X86085514Y-65255329D01*
X85830004Y-65134429D01*
X85555816Y-65065700D01*
X85273488Y-65051783D01*
X84993870Y-65093213D01*
X84727708Y-65188397D01*
X84602486Y-65255329D01*
X84530903Y-65499298D01*
X84032308Y-65499298D01*
X84888606Y-64643000D01*
X86868000Y-64643000D01*
X86892776Y-64640560D01*
X86916601Y-64633333D01*
X86938557Y-64621597D01*
X86957803Y-64605803D01*
X87654606Y-63909000D01*
X91117928Y-63909000D01*
X91130188Y-64033482D01*
X91166498Y-64153180D01*
X91225463Y-64263494D01*
X91304815Y-64360185D01*
X91401506Y-64439537D01*
X91511820Y-64498502D01*
X91631518Y-64534812D01*
X91756000Y-64547072D01*
X92170250Y-64544000D01*
X92329000Y-64385250D01*
X92329000Y-63548500D01*
X92583000Y-63548500D01*
X92583000Y-64385250D01*
X92741750Y-64544000D01*
X93156000Y-64547072D01*
X93280482Y-64534812D01*
X93400180Y-64498502D01*
X93510494Y-64439537D01*
X93607185Y-64360185D01*
X93686537Y-64263494D01*
X93745502Y-64153180D01*
X93781812Y-64033482D01*
X93794072Y-63909000D01*
X93791000Y-63707250D01*
X93694262Y-63610512D01*
X100159783Y-63610512D01*
X100201213Y-63890130D01*
X100296397Y-64156292D01*
X100363329Y-64281514D01*
X100607298Y-64353097D01*
X101420395Y-63540000D01*
X101779605Y-63540000D01*
X102592702Y-64353097D01*
X102836671Y-64281514D01*
X102852055Y-64249000D01*
X105166928Y-64249000D01*
X105179188Y-64373482D01*
X105215498Y-64493180D01*
X105274463Y-64603494D01*
X105353815Y-64700185D01*
X105450506Y-64779537D01*
X105560820Y-64838502D01*
X105680518Y-64874812D01*
X105805000Y-64887072D01*
X106394250Y-64884000D01*
X106553000Y-64725250D01*
X106553000Y-63751000D01*
X106807000Y-63751000D01*
X106807000Y-64725250D01*
X106965750Y-64884000D01*
X107555000Y-64887072D01*
X107679482Y-64874812D01*
X107799180Y-64838502D01*
X107909494Y-64779537D01*
X108006185Y-64700185D01*
X108085537Y-64603494D01*
X108144502Y-64493180D01*
X108180812Y-64373482D01*
X108193072Y-64249000D01*
X108190000Y-63909750D01*
X108031250Y-63751000D01*
X106807000Y-63751000D01*
X106553000Y-63751000D01*
X105328750Y-63751000D01*
X105170000Y-63909750D01*
X105166928Y-64249000D01*
X102852055Y-64249000D01*
X102957571Y-64026004D01*
X103026300Y-63751816D01*
X103040217Y-63469488D01*
X102998787Y-63189870D01*
X102930529Y-62999000D01*
X105166928Y-62999000D01*
X105170000Y-63338250D01*
X105328750Y-63497000D01*
X106553000Y-63497000D01*
X106553000Y-62522750D01*
X106807000Y-62522750D01*
X106807000Y-63497000D01*
X108031250Y-63497000D01*
X108190000Y-63338250D01*
X108193072Y-62999000D01*
X108180812Y-62874518D01*
X108144502Y-62754820D01*
X108085537Y-62644506D01*
X108006185Y-62547815D01*
X107909494Y-62468463D01*
X107799180Y-62409498D01*
X107679482Y-62373188D01*
X107555000Y-62360928D01*
X106965750Y-62364000D01*
X106807000Y-62522750D01*
X106553000Y-62522750D01*
X106394250Y-62364000D01*
X105805000Y-62360928D01*
X105680518Y-62373188D01*
X105560820Y-62409498D01*
X105450506Y-62468463D01*
X105353815Y-62547815D01*
X105274463Y-62644506D01*
X105215498Y-62754820D01*
X105179188Y-62874518D01*
X105166928Y-62999000D01*
X102930529Y-62999000D01*
X102903603Y-62923708D01*
X102836671Y-62798486D01*
X102592702Y-62726903D01*
X101779605Y-63540000D01*
X101420395Y-63540000D01*
X100607298Y-62726903D01*
X100363329Y-62798486D01*
X100242429Y-63053996D01*
X100173700Y-63328184D01*
X100159783Y-63610512D01*
X93694262Y-63610512D01*
X93632250Y-63548500D01*
X92583000Y-63548500D01*
X92329000Y-63548500D01*
X91279750Y-63548500D01*
X91121000Y-63707250D01*
X91117928Y-63909000D01*
X87654606Y-63909000D01*
X88629606Y-62934000D01*
X91117928Y-62934000D01*
X91121000Y-63135750D01*
X91279750Y-63294500D01*
X92329000Y-63294500D01*
X92329000Y-63274500D01*
X92583000Y-63274500D01*
X92583000Y-63294500D01*
X93632250Y-63294500D01*
X93791000Y-63135750D01*
X93794072Y-62934000D01*
X93781812Y-62809518D01*
X93745502Y-62689820D01*
X93686537Y-62579506D01*
X93660105Y-62547298D01*
X100786903Y-62547298D01*
X101600000Y-63360395D01*
X102413097Y-62547298D01*
X102341514Y-62303329D01*
X102086004Y-62182429D01*
X101811816Y-62113700D01*
X101529488Y-62099783D01*
X101249870Y-62141213D01*
X100983708Y-62236397D01*
X100858486Y-62303329D01*
X100786903Y-62547298D01*
X93660105Y-62547298D01*
X93607185Y-62482815D01*
X93595835Y-62473500D01*
X93855973Y-62473500D01*
X93901500Y-62477984D01*
X93947027Y-62473500D01*
X93947038Y-62473500D01*
X94083224Y-62460087D01*
X94257964Y-62407080D01*
X94419005Y-62321001D01*
X94560159Y-62205159D01*
X94589188Y-62169787D01*
X94667688Y-62091287D01*
X94754502Y-61985505D01*
X94840580Y-61824463D01*
X94893586Y-61649723D01*
X94911484Y-61468000D01*
X94893586Y-61286277D01*
X94840580Y-61111536D01*
X94754502Y-60950495D01*
X94638659Y-60809341D01*
X94497505Y-60693498D01*
X94336464Y-60607420D01*
X94161723Y-60554414D01*
X93980000Y-60536516D01*
X93798277Y-60554414D01*
X93623537Y-60607420D01*
X93600937Y-60619500D01*
X92410462Y-60619500D01*
X92304523Y-60629934D01*
X91999750Y-60629934D01*
X91868490Y-60642862D01*
X91742274Y-60681149D01*
X91625953Y-60743324D01*
X91523997Y-60826997D01*
X91440324Y-60928953D01*
X91378149Y-61045274D01*
X91339862Y-61171490D01*
X91326934Y-61302750D01*
X91326934Y-61790250D01*
X91339862Y-61921510D01*
X91378149Y-62047726D01*
X91440324Y-62164047D01*
X91523997Y-62266003D01*
X91590545Y-62320617D01*
X91511820Y-62344498D01*
X91401506Y-62403463D01*
X91304815Y-62482815D01*
X91225463Y-62579506D01*
X91166498Y-62689820D01*
X91130188Y-62809518D01*
X91117928Y-62934000D01*
X88629606Y-62934000D01*
X91117606Y-60446000D01*
X117670394Y-60446000D01*
X118237000Y-61012606D01*
G37*
X118237000Y-61012606D02*
X118237000Y-63423169D01*
X118144087Y-63485252D01*
X117959252Y-63670087D01*
X117814028Y-63887430D01*
X117713996Y-64128928D01*
X117663000Y-64385302D01*
X117663000Y-64646698D01*
X117713996Y-64903072D01*
X117738402Y-64961992D01*
X117295394Y-65405000D01*
X116832773Y-65405000D01*
X116902236Y-65312414D01*
X117032394Y-65041107D01*
X117081036Y-64880740D01*
X116960378Y-64643000D01*
X115717000Y-64643000D01*
X115717000Y-64663000D01*
X115463000Y-64663000D01*
X115463000Y-64643000D01*
X114219622Y-64643000D01*
X114098964Y-64880740D01*
X114147606Y-65041107D01*
X114277764Y-65312414D01*
X114347227Y-65405000D01*
X113177661Y-65405000D01*
X113220748Y-65361913D01*
X113365972Y-65144570D01*
X113466004Y-64903072D01*
X113517000Y-64646698D01*
X113517000Y-64385302D01*
X113470447Y-64151260D01*
X114098964Y-64151260D01*
X114219622Y-64389000D01*
X115463000Y-64389000D01*
X115463000Y-63145008D01*
X115717000Y-63145008D01*
X115717000Y-64389000D01*
X116960378Y-64389000D01*
X117081036Y-64151260D01*
X117032394Y-63990893D01*
X116902236Y-63719586D01*
X116721649Y-63478884D01*
X116497573Y-63278038D01*
X116238620Y-63124766D01*
X115954741Y-63024959D01*
X115717000Y-63145008D01*
X115463000Y-63145008D01*
X115225259Y-63024959D01*
X114941380Y-63124766D01*
X114682427Y-63278038D01*
X114458351Y-63478884D01*
X114277764Y-63719586D01*
X114147606Y-63990893D01*
X114098964Y-64151260D01*
X113470447Y-64151260D01*
X113466004Y-64128928D01*
X113365972Y-63887430D01*
X113220748Y-63670087D01*
X113035913Y-63485252D01*
X112818570Y-63340028D01*
X112577072Y-63239996D01*
X112320698Y-63189000D01*
X112059302Y-63189000D01*
X111802928Y-63239996D01*
X111561430Y-63340028D01*
X111344087Y-63485252D01*
X111159252Y-63670087D01*
X111014028Y-63887430D01*
X110913996Y-64128928D01*
X110863000Y-64385302D01*
X110863000Y-64646698D01*
X110913996Y-64903072D01*
X111014028Y-65144570D01*
X111159252Y-65361913D01*
X111202339Y-65405000D01*
X107510062Y-65405000D01*
X107437479Y-65382982D01*
X107305000Y-65369934D01*
X106055000Y-65369934D01*
X105922521Y-65382982D01*
X105849938Y-65405000D01*
X102829066Y-65405000D01*
X102829066Y-65240000D01*
X102820822Y-65156293D01*
X102796405Y-65075804D01*
X102756755Y-65001624D01*
X102703395Y-64936605D01*
X102638376Y-64883245D01*
X102564196Y-64843595D01*
X102483707Y-64819178D01*
X102400000Y-64810934D01*
X102277412Y-64810934D01*
X102341514Y-64776671D01*
X102413097Y-64532702D01*
X101600000Y-63719605D01*
X100786903Y-64532702D01*
X100858486Y-64776671D01*
X100930897Y-64810934D01*
X100800000Y-64810934D01*
X100716293Y-64819178D01*
X100635804Y-64843595D01*
X100561624Y-64883245D01*
X100496605Y-64936605D01*
X100443245Y-65001624D01*
X100403595Y-65075804D01*
X100379178Y-65156293D01*
X100370934Y-65240000D01*
X100370934Y-65405000D01*
X99568000Y-65405000D01*
X99543224Y-65407440D01*
X99519399Y-65414667D01*
X99497443Y-65426403D01*
X99478197Y-65442197D01*
X94906197Y-70014197D01*
X94890403Y-70033443D01*
X94878667Y-70055399D01*
X94871440Y-70079224D01*
X94869000Y-70104000D01*
X94869000Y-75639394D01*
X89863394Y-80645000D01*
X76760606Y-80645000D01*
X75696830Y-79581224D01*
X78586381Y-79581224D01*
X78718317Y-79876312D01*
X79059045Y-80047159D01*
X79426557Y-80148250D01*
X79806729Y-80175701D01*
X80184951Y-80128457D01*
X80546690Y-80008333D01*
X80793683Y-79876312D01*
X80925619Y-79581224D01*
X79756000Y-78411605D01*
X78586381Y-79581224D01*
X75696830Y-79581224D01*
X75311000Y-79195394D01*
X75311000Y-78282729D01*
X77812299Y-78282729D01*
X77859543Y-78660951D01*
X77979667Y-79022690D01*
X78111688Y-79269683D01*
X78406776Y-79401619D01*
X79576395Y-78232000D01*
X79935605Y-78232000D01*
X81105224Y-79401619D01*
X81400312Y-79269683D01*
X81571159Y-78928955D01*
X81672250Y-78561443D01*
X81699701Y-78181271D01*
X81652457Y-77803049D01*
X81532333Y-77441310D01*
X81400312Y-77194317D01*
X81105224Y-77062381D01*
X79935605Y-78232000D01*
X79576395Y-78232000D01*
X78406776Y-77062381D01*
X78111688Y-77194317D01*
X77940841Y-77535045D01*
X77839750Y-77902557D01*
X77812299Y-78282729D01*
X75311000Y-78282729D01*
X75311000Y-76882776D01*
X78586381Y-76882776D01*
X79756000Y-78052395D01*
X80925619Y-76882776D01*
X80793683Y-76587688D01*
X80452955Y-76416841D01*
X80085443Y-76315750D01*
X79705271Y-76288299D01*
X79327049Y-76335543D01*
X78965310Y-76455667D01*
X78718317Y-76587688D01*
X78586381Y-76882776D01*
X75311000Y-76882776D01*
X75311000Y-76760606D01*
X76625626Y-75445980D01*
X89445626Y-75445980D01*
X89565514Y-75730836D01*
X89889210Y-75891699D01*
X90238069Y-75986322D01*
X90598684Y-76011067D01*
X90957198Y-75964985D01*
X91299833Y-75849846D01*
X91522486Y-75730836D01*
X91642374Y-75445980D01*
X90544000Y-74347605D01*
X89445626Y-75445980D01*
X76625626Y-75445980D01*
X76760606Y-75311000D01*
X85344000Y-75311000D01*
X85368776Y-75308560D01*
X85392601Y-75301333D01*
X85414557Y-75289597D01*
X85433803Y-75273803D01*
X86484922Y-74222684D01*
X88700933Y-74222684D01*
X88747015Y-74581198D01*
X88862154Y-74923833D01*
X88981164Y-75146486D01*
X89266020Y-75266374D01*
X90364395Y-74168000D01*
X90723605Y-74168000D01*
X91821980Y-75266374D01*
X92106836Y-75146486D01*
X92267699Y-74822790D01*
X92362322Y-74473931D01*
X92387067Y-74113316D01*
X92340985Y-73754802D01*
X92225846Y-73412167D01*
X92106836Y-73189514D01*
X91821980Y-73069626D01*
X90723605Y-74168000D01*
X90364395Y-74168000D01*
X89266020Y-73069626D01*
X88981164Y-73189514D01*
X88820301Y-73513210D01*
X88725678Y-73862069D01*
X88700933Y-74222684D01*
X86484922Y-74222684D01*
X87817586Y-72890020D01*
X89445626Y-72890020D01*
X90544000Y-73988395D01*
X91642374Y-72890020D01*
X91522486Y-72605164D01*
X91198790Y-72444301D01*
X90849931Y-72349678D01*
X90489316Y-72324933D01*
X90130802Y-72371015D01*
X89788167Y-72486154D01*
X89565514Y-72605164D01*
X89445626Y-72890020D01*
X87817586Y-72890020D01*
X87973803Y-72733803D01*
X87989597Y-72714557D01*
X88001333Y-72692601D01*
X88008560Y-72668776D01*
X88011000Y-72644000D01*
X88011000Y-69596000D01*
X88008560Y-69571224D01*
X88001333Y-69547399D01*
X87989597Y-69525443D01*
X87973803Y-69506197D01*
X86957803Y-68490197D01*
X86938557Y-68474403D01*
X86916601Y-68462667D01*
X86892776Y-68455440D01*
X86868000Y-68453000D01*
X84888606Y-68453000D01*
X83947000Y-67511394D01*
X83947000Y-67484702D01*
X84530903Y-67484702D01*
X84602486Y-67728671D01*
X84857996Y-67849571D01*
X85132184Y-67918300D01*
X85414512Y-67932217D01*
X85694130Y-67890787D01*
X85960292Y-67795603D01*
X86085514Y-67728671D01*
X86157097Y-67484702D01*
X85344000Y-66671605D01*
X84530903Y-67484702D01*
X83947000Y-67484702D01*
X83947000Y-66847127D01*
X84040397Y-67108292D01*
X84107329Y-67233514D01*
X84351298Y-67305097D01*
X85164395Y-66492000D01*
X85523605Y-66492000D01*
X86336702Y-67305097D01*
X86580671Y-67233514D01*
X86701571Y-66978004D01*
X86770300Y-66703816D01*
X86784217Y-66421488D01*
X86742787Y-66141870D01*
X86647603Y-65875708D01*
X86580671Y-65750486D01*
X86336702Y-65678903D01*
X85523605Y-66492000D01*
X85164395Y-66492000D01*
X84351298Y-65678903D01*
X84107329Y-65750486D01*
X83986429Y-66005996D01*
X83947000Y-66163294D01*
X83947000Y-65584606D01*
X84032308Y-65499298D01*
X84530903Y-65499298D01*
X85344000Y-66312395D01*
X86157097Y-65499298D01*
X86085514Y-65255329D01*
X85830004Y-65134429D01*
X85555816Y-65065700D01*
X85273488Y-65051783D01*
X84993870Y-65093213D01*
X84727708Y-65188397D01*
X84602486Y-65255329D01*
X84530903Y-65499298D01*
X84032308Y-65499298D01*
X84888606Y-64643000D01*
X86868000Y-64643000D01*
X86892776Y-64640560D01*
X86916601Y-64633333D01*
X86938557Y-64621597D01*
X86957803Y-64605803D01*
X87654606Y-63909000D01*
X91117928Y-63909000D01*
X91130188Y-64033482D01*
X91166498Y-64153180D01*
X91225463Y-64263494D01*
X91304815Y-64360185D01*
X91401506Y-64439537D01*
X91511820Y-64498502D01*
X91631518Y-64534812D01*
X91756000Y-64547072D01*
X92170250Y-64544000D01*
X92329000Y-64385250D01*
X92329000Y-63548500D01*
X92583000Y-63548500D01*
X92583000Y-64385250D01*
X92741750Y-64544000D01*
X93156000Y-64547072D01*
X93280482Y-64534812D01*
X93400180Y-64498502D01*
X93510494Y-64439537D01*
X93607185Y-64360185D01*
X93686537Y-64263494D01*
X93745502Y-64153180D01*
X93781812Y-64033482D01*
X93794072Y-63909000D01*
X93791000Y-63707250D01*
X93694262Y-63610512D01*
X100159783Y-63610512D01*
X100201213Y-63890130D01*
X100296397Y-64156292D01*
X100363329Y-64281514D01*
X100607298Y-64353097D01*
X101420395Y-63540000D01*
X101779605Y-63540000D01*
X102592702Y-64353097D01*
X102836671Y-64281514D01*
X102852055Y-64249000D01*
X105166928Y-64249000D01*
X105179188Y-64373482D01*
X105215498Y-64493180D01*
X105274463Y-64603494D01*
X105353815Y-64700185D01*
X105450506Y-64779537D01*
X105560820Y-64838502D01*
X105680518Y-64874812D01*
X105805000Y-64887072D01*
X106394250Y-64884000D01*
X106553000Y-64725250D01*
X106553000Y-63751000D01*
X106807000Y-63751000D01*
X106807000Y-64725250D01*
X106965750Y-64884000D01*
X107555000Y-64887072D01*
X107679482Y-64874812D01*
X107799180Y-64838502D01*
X107909494Y-64779537D01*
X108006185Y-64700185D01*
X108085537Y-64603494D01*
X108144502Y-64493180D01*
X108180812Y-64373482D01*
X108193072Y-64249000D01*
X108190000Y-63909750D01*
X108031250Y-63751000D01*
X106807000Y-63751000D01*
X106553000Y-63751000D01*
X105328750Y-63751000D01*
X105170000Y-63909750D01*
X105166928Y-64249000D01*
X102852055Y-64249000D01*
X102957571Y-64026004D01*
X103026300Y-63751816D01*
X103040217Y-63469488D01*
X102998787Y-63189870D01*
X102930529Y-62999000D01*
X105166928Y-62999000D01*
X105170000Y-63338250D01*
X105328750Y-63497000D01*
X106553000Y-63497000D01*
X106553000Y-62522750D01*
X106807000Y-62522750D01*
X106807000Y-63497000D01*
X108031250Y-63497000D01*
X108190000Y-63338250D01*
X108193072Y-62999000D01*
X108180812Y-62874518D01*
X108144502Y-62754820D01*
X108085537Y-62644506D01*
X108006185Y-62547815D01*
X107909494Y-62468463D01*
X107799180Y-62409498D01*
X107679482Y-62373188D01*
X107555000Y-62360928D01*
X106965750Y-62364000D01*
X106807000Y-62522750D01*
X106553000Y-62522750D01*
X106394250Y-62364000D01*
X105805000Y-62360928D01*
X105680518Y-62373188D01*
X105560820Y-62409498D01*
X105450506Y-62468463D01*
X105353815Y-62547815D01*
X105274463Y-62644506D01*
X105215498Y-62754820D01*
X105179188Y-62874518D01*
X105166928Y-62999000D01*
X102930529Y-62999000D01*
X102903603Y-62923708D01*
X102836671Y-62798486D01*
X102592702Y-62726903D01*
X101779605Y-63540000D01*
X101420395Y-63540000D01*
X100607298Y-62726903D01*
X100363329Y-62798486D01*
X100242429Y-63053996D01*
X100173700Y-63328184D01*
X100159783Y-63610512D01*
X93694262Y-63610512D01*
X93632250Y-63548500D01*
X92583000Y-63548500D01*
X92329000Y-63548500D01*
X91279750Y-63548500D01*
X91121000Y-63707250D01*
X91117928Y-63909000D01*
X87654606Y-63909000D01*
X88629606Y-62934000D01*
X91117928Y-62934000D01*
X91121000Y-63135750D01*
X91279750Y-63294500D01*
X92329000Y-63294500D01*
X92329000Y-63274500D01*
X92583000Y-63274500D01*
X92583000Y-63294500D01*
X93632250Y-63294500D01*
X93791000Y-63135750D01*
X93794072Y-62934000D01*
X93781812Y-62809518D01*
X93745502Y-62689820D01*
X93686537Y-62579506D01*
X93660105Y-62547298D01*
X100786903Y-62547298D01*
X101600000Y-63360395D01*
X102413097Y-62547298D01*
X102341514Y-62303329D01*
X102086004Y-62182429D01*
X101811816Y-62113700D01*
X101529488Y-62099783D01*
X101249870Y-62141213D01*
X100983708Y-62236397D01*
X100858486Y-62303329D01*
X100786903Y-62547298D01*
X93660105Y-62547298D01*
X93607185Y-62482815D01*
X93595835Y-62473500D01*
X93855973Y-62473500D01*
X93901500Y-62477984D01*
X93947027Y-62473500D01*
X93947038Y-62473500D01*
X94083224Y-62460087D01*
X94257964Y-62407080D01*
X94419005Y-62321001D01*
X94560159Y-62205159D01*
X94589188Y-62169787D01*
X94667688Y-62091287D01*
X94754502Y-61985505D01*
X94840580Y-61824463D01*
X94893586Y-61649723D01*
X94911484Y-61468000D01*
X94893586Y-61286277D01*
X94840580Y-61111536D01*
X94754502Y-60950495D01*
X94638659Y-60809341D01*
X94497505Y-60693498D01*
X94336464Y-60607420D01*
X94161723Y-60554414D01*
X93980000Y-60536516D01*
X93798277Y-60554414D01*
X93623537Y-60607420D01*
X93600937Y-60619500D01*
X92410462Y-60619500D01*
X92304523Y-60629934D01*
X91999750Y-60629934D01*
X91868490Y-60642862D01*
X91742274Y-60681149D01*
X91625953Y-60743324D01*
X91523997Y-60826997D01*
X91440324Y-60928953D01*
X91378149Y-61045274D01*
X91339862Y-61171490D01*
X91326934Y-61302750D01*
X91326934Y-61790250D01*
X91339862Y-61921510D01*
X91378149Y-62047726D01*
X91440324Y-62164047D01*
X91523997Y-62266003D01*
X91590545Y-62320617D01*
X91511820Y-62344498D01*
X91401506Y-62403463D01*
X91304815Y-62482815D01*
X91225463Y-62579506D01*
X91166498Y-62689820D01*
X91130188Y-62809518D01*
X91117928Y-62934000D01*
X88629606Y-62934000D01*
X91117606Y-60446000D01*
X117670394Y-60446000D01*
X118237000Y-61012606D01*
%TO.N,VCC*%
G36*
X118745000Y-68124606D02*
G01*
X118745000Y-69112454D01*
X118732394Y-69070893D01*
X118602236Y-68799586D01*
X118421649Y-68558884D01*
X118197573Y-68358038D01*
X117938620Y-68204766D01*
X117654741Y-68104959D01*
X117417000Y-68225008D01*
X117417000Y-69469000D01*
X117437000Y-69469000D01*
X117437000Y-69723000D01*
X117417000Y-69723000D01*
X117417000Y-70966992D01*
X117654741Y-71087041D01*
X117938620Y-70987234D01*
X118197573Y-70833962D01*
X118421649Y-70633116D01*
X118602236Y-70392414D01*
X118732394Y-70121107D01*
X118745000Y-70079546D01*
X118745000Y-70559394D01*
X116279394Y-73025000D01*
X113284000Y-73025000D01*
X113259224Y-73027440D01*
X113235399Y-73034667D01*
X113213443Y-73046403D01*
X113194197Y-73062197D01*
X112178197Y-74078197D01*
X112162403Y-74097443D01*
X112150667Y-74119399D01*
X112143440Y-74143224D01*
X112141000Y-74168000D01*
X112141000Y-80211394D01*
X101002197Y-91350197D01*
X100986403Y-91369443D01*
X100974667Y-91391399D01*
X100967440Y-91415224D01*
X100965000Y-91440000D01*
X100965000Y-92911394D01*
X100023394Y-93853000D01*
X96064606Y-93853000D01*
X95123000Y-92911394D01*
X95123000Y-92640000D01*
X96205928Y-92640000D01*
X96218188Y-92764482D01*
X96254498Y-92884180D01*
X96313463Y-92994494D01*
X96392815Y-93091185D01*
X96489506Y-93170537D01*
X96599820Y-93229502D01*
X96719518Y-93265812D01*
X96844000Y-93278072D01*
X97758250Y-93275000D01*
X97917000Y-93116250D01*
X97917000Y-91567000D01*
X98171000Y-91567000D01*
X98171000Y-93116250D01*
X98329750Y-93275000D01*
X99244000Y-93278072D01*
X99368482Y-93265812D01*
X99488180Y-93229502D01*
X99598494Y-93170537D01*
X99695185Y-93091185D01*
X99774537Y-92994494D01*
X99833502Y-92884180D01*
X99869812Y-92764482D01*
X99882072Y-92640000D01*
X99879000Y-91725750D01*
X99720250Y-91567000D01*
X98171000Y-91567000D01*
X97917000Y-91567000D01*
X96367750Y-91567000D01*
X96209000Y-91725750D01*
X96205928Y-92640000D01*
X95123000Y-92640000D01*
X95123000Y-90424000D01*
X95120560Y-90399224D01*
X95113333Y-90375399D01*
X95101597Y-90353443D01*
X95085803Y-90334197D01*
X94991606Y-90240000D01*
X96205928Y-90240000D01*
X96209000Y-91154250D01*
X96367750Y-91313000D01*
X97917000Y-91313000D01*
X97917000Y-89763750D01*
X98171000Y-89763750D01*
X98171000Y-91313000D01*
X99720250Y-91313000D01*
X99879000Y-91154250D01*
X99882072Y-90240000D01*
X99869812Y-90115518D01*
X99833502Y-89995820D01*
X99774537Y-89885506D01*
X99695185Y-89788815D01*
X99598494Y-89709463D01*
X99488180Y-89650498D01*
X99368482Y-89614188D01*
X99244000Y-89601928D01*
X98329750Y-89605000D01*
X98171000Y-89763750D01*
X97917000Y-89763750D01*
X97758250Y-89605000D01*
X96844000Y-89601928D01*
X96719518Y-89614188D01*
X96599820Y-89650498D01*
X96489506Y-89709463D01*
X96392815Y-89788815D01*
X96313463Y-89885506D01*
X96254498Y-89995820D01*
X96218188Y-90115518D01*
X96205928Y-90240000D01*
X94991606Y-90240000D01*
X91021803Y-86270197D01*
X91002557Y-86254403D01*
X90980601Y-86242667D01*
X90956776Y-86235440D01*
X90932000Y-86233000D01*
X76252606Y-86233000D01*
X74803000Y-84783394D01*
X74803000Y-84661224D01*
X78586381Y-84661224D01*
X78718317Y-84956312D01*
X79059045Y-85127159D01*
X79426557Y-85228250D01*
X79806729Y-85255701D01*
X80184951Y-85208457D01*
X80546690Y-85088333D01*
X80793683Y-84956312D01*
X80925619Y-84661224D01*
X79756000Y-83491605D01*
X78586381Y-84661224D01*
X74803000Y-84661224D01*
X74803000Y-83362729D01*
X77812299Y-83362729D01*
X77859543Y-83740951D01*
X77979667Y-84102690D01*
X78111688Y-84349683D01*
X78406776Y-84481619D01*
X79576395Y-83312000D01*
X79935605Y-83312000D01*
X81105224Y-84481619D01*
X81400312Y-84349683D01*
X81571159Y-84008955D01*
X81672250Y-83641443D01*
X81699701Y-83261271D01*
X81652457Y-82883049D01*
X81532333Y-82521310D01*
X81400312Y-82274317D01*
X81105224Y-82142381D01*
X79935605Y-83312000D01*
X79576395Y-83312000D01*
X78406776Y-82142381D01*
X78111688Y-82274317D01*
X77940841Y-82615045D01*
X77839750Y-82982557D01*
X77812299Y-83362729D01*
X74803000Y-83362729D01*
X74803000Y-82856606D01*
X76252606Y-81407000D01*
X79395442Y-81407000D01*
X79327049Y-81415543D01*
X78965310Y-81535667D01*
X78718317Y-81667688D01*
X78586381Y-81962776D01*
X79756000Y-83132395D01*
X80925619Y-81962776D01*
X80793683Y-81667688D01*
X80452955Y-81496841D01*
X80126342Y-81407000D01*
X93927394Y-81407000D01*
X96938197Y-84417803D01*
X96957443Y-84433597D01*
X96979399Y-84445333D01*
X97003224Y-84452560D01*
X97028000Y-84455000D01*
X100076000Y-84455000D01*
X100100776Y-84452560D01*
X100124601Y-84445333D01*
X100146557Y-84433597D01*
X100165803Y-84417803D01*
X103600606Y-80983000D01*
X103792849Y-80983000D01*
X104029903Y-80935847D01*
X104253202Y-80843353D01*
X104454167Y-80709073D01*
X104625073Y-80538167D01*
X104735017Y-80373623D01*
X104733928Y-80556000D01*
X104746188Y-80680482D01*
X104782498Y-80800180D01*
X104841463Y-80910494D01*
X104920815Y-81007185D01*
X105017506Y-81086537D01*
X105127820Y-81145502D01*
X105247518Y-81181812D01*
X105372000Y-81194072D01*
X105886250Y-81191000D01*
X106045000Y-81032250D01*
X106045000Y-79883000D01*
X106299000Y-79883000D01*
X106299000Y-81032250D01*
X106457750Y-81191000D01*
X106972000Y-81194072D01*
X107096482Y-81181812D01*
X107216180Y-81145502D01*
X107326494Y-81086537D01*
X107423185Y-81007185D01*
X107502537Y-80910494D01*
X107561502Y-80800180D01*
X107597812Y-80680482D01*
X107610072Y-80556000D01*
X107607000Y-80041750D01*
X107448250Y-79883000D01*
X106299000Y-79883000D01*
X106045000Y-79883000D01*
X106025000Y-79883000D01*
X106025000Y-79629000D01*
X106045000Y-79629000D01*
X106045000Y-79609000D01*
X106299000Y-79609000D01*
X106299000Y-79629000D01*
X107448250Y-79629000D01*
X107607000Y-79470250D01*
X107610072Y-78956000D01*
X107597812Y-78831518D01*
X107561502Y-78711820D01*
X107502537Y-78601506D01*
X107423185Y-78504815D01*
X107326494Y-78425463D01*
X107216180Y-78366498D01*
X107096482Y-78330188D01*
X106972000Y-78317928D01*
X106457750Y-78321000D01*
X106299002Y-78479748D01*
X106299002Y-78321000D01*
X106262606Y-78321000D01*
X106769803Y-77813803D01*
X106785597Y-77794557D01*
X106797333Y-77772601D01*
X106804560Y-77748776D01*
X106807000Y-77724000D01*
X106807000Y-73011000D01*
X106816928Y-73011000D01*
X106829188Y-73135482D01*
X106865498Y-73255180D01*
X106924463Y-73365494D01*
X107003815Y-73462185D01*
X107100506Y-73541537D01*
X107210820Y-73600502D01*
X107330518Y-73636812D01*
X107455000Y-73649072D01*
X107794250Y-73646000D01*
X107953000Y-73487250D01*
X107953000Y-72263000D01*
X108207000Y-72263000D01*
X108207000Y-73487250D01*
X108365750Y-73646000D01*
X108705000Y-73649072D01*
X108829482Y-73636812D01*
X108949180Y-73600502D01*
X109059494Y-73541537D01*
X109156185Y-73462185D01*
X109235537Y-73365494D01*
X109294502Y-73255180D01*
X109330812Y-73135482D01*
X109343072Y-73011000D01*
X109340000Y-72421750D01*
X109181250Y-72263000D01*
X108207000Y-72263000D01*
X107953000Y-72263000D01*
X106978750Y-72263000D01*
X106820000Y-72421750D01*
X106816928Y-73011000D01*
X106807000Y-73011000D01*
X106807000Y-71172606D01*
X106827669Y-71151937D01*
X106816928Y-71261000D01*
X106820000Y-71850250D01*
X106978750Y-72009000D01*
X107953000Y-72009000D01*
X107953000Y-70784750D01*
X108207000Y-70784750D01*
X108207000Y-72009000D01*
X109181250Y-72009000D01*
X109340000Y-71850250D01*
X109343072Y-71261000D01*
X109330812Y-71136518D01*
X109309437Y-71066055D01*
X109345820Y-71085502D01*
X109465518Y-71121812D01*
X109590000Y-71134072D01*
X110204250Y-71131000D01*
X110363000Y-70972250D01*
X110363000Y-69723000D01*
X110617000Y-69723000D01*
X110617000Y-70972250D01*
X110775750Y-71131000D01*
X111390000Y-71134072D01*
X111514482Y-71121812D01*
X111634180Y-71085502D01*
X111744494Y-71026537D01*
X111841185Y-70947185D01*
X111920537Y-70850494D01*
X111979502Y-70740180D01*
X112015812Y-70620482D01*
X112028072Y-70496000D01*
X112025000Y-69881750D01*
X111866250Y-69723000D01*
X110617000Y-69723000D01*
X110363000Y-69723000D01*
X109113750Y-69723000D01*
X108955000Y-69881750D01*
X108951928Y-70496000D01*
X108964188Y-70620482D01*
X108985563Y-70690945D01*
X108949180Y-70671498D01*
X108829482Y-70635188D01*
X108705000Y-70622928D01*
X108365750Y-70626000D01*
X108207000Y-70784750D01*
X107953000Y-70784750D01*
X107794250Y-70626000D01*
X107455000Y-70622928D01*
X107345937Y-70633669D01*
X107785803Y-70193803D01*
X107801597Y-70174557D01*
X107813333Y-70152601D01*
X107820560Y-70128776D01*
X107823000Y-70104000D01*
X107823000Y-68696000D01*
X108951928Y-68696000D01*
X108955000Y-69310250D01*
X109113750Y-69469000D01*
X110363000Y-69469000D01*
X110363000Y-68219750D01*
X110617000Y-68219750D01*
X110617000Y-69469000D01*
X111866250Y-69469000D01*
X111869948Y-69465302D01*
X112563000Y-69465302D01*
X112563000Y-69726698D01*
X112613996Y-69983072D01*
X112714028Y-70224570D01*
X112859252Y-70441913D01*
X113044087Y-70626748D01*
X113261430Y-70771972D01*
X113502928Y-70872004D01*
X113759302Y-70923000D01*
X114020698Y-70923000D01*
X114277072Y-70872004D01*
X114518570Y-70771972D01*
X114735913Y-70626748D01*
X114920748Y-70441913D01*
X115065972Y-70224570D01*
X115166004Y-69983072D01*
X115170446Y-69960740D01*
X115798964Y-69960740D01*
X115847606Y-70121107D01*
X115977764Y-70392414D01*
X116158351Y-70633116D01*
X116382427Y-70833962D01*
X116641380Y-70987234D01*
X116925259Y-71087041D01*
X117163000Y-70966992D01*
X117163000Y-69723000D01*
X115919622Y-69723000D01*
X115798964Y-69960740D01*
X115170446Y-69960740D01*
X115217000Y-69726698D01*
X115217000Y-69465302D01*
X115170447Y-69231260D01*
X115798964Y-69231260D01*
X115919622Y-69469000D01*
X117163000Y-69469000D01*
X117163000Y-68225008D01*
X116925259Y-68104959D01*
X116641380Y-68204766D01*
X116382427Y-68358038D01*
X116158351Y-68558884D01*
X115977764Y-68799586D01*
X115847606Y-69070893D01*
X115798964Y-69231260D01*
X115170447Y-69231260D01*
X115166004Y-69208928D01*
X115065972Y-68967430D01*
X114920748Y-68750087D01*
X114735913Y-68565252D01*
X114518570Y-68420028D01*
X114277072Y-68319996D01*
X114020698Y-68269000D01*
X113759302Y-68269000D01*
X113502928Y-68319996D01*
X113261430Y-68420028D01*
X113044087Y-68565252D01*
X112859252Y-68750087D01*
X112714028Y-68967430D01*
X112613996Y-69208928D01*
X112563000Y-69465302D01*
X111869948Y-69465302D01*
X112025000Y-69310250D01*
X112028072Y-68696000D01*
X112015812Y-68571518D01*
X111979502Y-68451820D01*
X111920537Y-68341506D01*
X111841185Y-68244815D01*
X111744494Y-68165463D01*
X111634180Y-68106498D01*
X111514482Y-68070188D01*
X111390000Y-68057928D01*
X110775750Y-68061000D01*
X110617000Y-68219750D01*
X110363000Y-68219750D01*
X110204250Y-68061000D01*
X109590000Y-68057928D01*
X109465518Y-68070188D01*
X109345820Y-68106498D01*
X109235506Y-68165463D01*
X109138815Y-68244815D01*
X109059463Y-68341506D01*
X109000498Y-68451820D01*
X108964188Y-68571518D01*
X108951928Y-68696000D01*
X107823000Y-68696000D01*
X107823000Y-67233079D01*
X107869623Y-67176269D01*
X107932375Y-67058867D01*
X107958343Y-66973263D01*
X108764606Y-66167000D01*
X116787394Y-66167000D01*
X118745000Y-68124606D01*
G37*
X118745000Y-68124606D02*
X118745000Y-69112454D01*
X118732394Y-69070893D01*
X118602236Y-68799586D01*
X118421649Y-68558884D01*
X118197573Y-68358038D01*
X117938620Y-68204766D01*
X117654741Y-68104959D01*
X117417000Y-68225008D01*
X117417000Y-69469000D01*
X117437000Y-69469000D01*
X117437000Y-69723000D01*
X117417000Y-69723000D01*
X117417000Y-70966992D01*
X117654741Y-71087041D01*
X117938620Y-70987234D01*
X118197573Y-70833962D01*
X118421649Y-70633116D01*
X118602236Y-70392414D01*
X118732394Y-70121107D01*
X118745000Y-70079546D01*
X118745000Y-70559394D01*
X116279394Y-73025000D01*
X113284000Y-73025000D01*
X113259224Y-73027440D01*
X113235399Y-73034667D01*
X113213443Y-73046403D01*
X113194197Y-73062197D01*
X112178197Y-74078197D01*
X112162403Y-74097443D01*
X112150667Y-74119399D01*
X112143440Y-74143224D01*
X112141000Y-74168000D01*
X112141000Y-80211394D01*
X101002197Y-91350197D01*
X100986403Y-91369443D01*
X100974667Y-91391399D01*
X100967440Y-91415224D01*
X100965000Y-91440000D01*
X100965000Y-92911394D01*
X100023394Y-93853000D01*
X96064606Y-93853000D01*
X95123000Y-92911394D01*
X95123000Y-92640000D01*
X96205928Y-92640000D01*
X96218188Y-92764482D01*
X96254498Y-92884180D01*
X96313463Y-92994494D01*
X96392815Y-93091185D01*
X96489506Y-93170537D01*
X96599820Y-93229502D01*
X96719518Y-93265812D01*
X96844000Y-93278072D01*
X97758250Y-93275000D01*
X97917000Y-93116250D01*
X97917000Y-91567000D01*
X98171000Y-91567000D01*
X98171000Y-93116250D01*
X98329750Y-93275000D01*
X99244000Y-93278072D01*
X99368482Y-93265812D01*
X99488180Y-93229502D01*
X99598494Y-93170537D01*
X99695185Y-93091185D01*
X99774537Y-92994494D01*
X99833502Y-92884180D01*
X99869812Y-92764482D01*
X99882072Y-92640000D01*
X99879000Y-91725750D01*
X99720250Y-91567000D01*
X98171000Y-91567000D01*
X97917000Y-91567000D01*
X96367750Y-91567000D01*
X96209000Y-91725750D01*
X96205928Y-92640000D01*
X95123000Y-92640000D01*
X95123000Y-90424000D01*
X95120560Y-90399224D01*
X95113333Y-90375399D01*
X95101597Y-90353443D01*
X95085803Y-90334197D01*
X94991606Y-90240000D01*
X96205928Y-90240000D01*
X96209000Y-91154250D01*
X96367750Y-91313000D01*
X97917000Y-91313000D01*
X97917000Y-89763750D01*
X98171000Y-89763750D01*
X98171000Y-91313000D01*
X99720250Y-91313000D01*
X99879000Y-91154250D01*
X99882072Y-90240000D01*
X99869812Y-90115518D01*
X99833502Y-89995820D01*
X99774537Y-89885506D01*
X99695185Y-89788815D01*
X99598494Y-89709463D01*
X99488180Y-89650498D01*
X99368482Y-89614188D01*
X99244000Y-89601928D01*
X98329750Y-89605000D01*
X98171000Y-89763750D01*
X97917000Y-89763750D01*
X97758250Y-89605000D01*
X96844000Y-89601928D01*
X96719518Y-89614188D01*
X96599820Y-89650498D01*
X96489506Y-89709463D01*
X96392815Y-89788815D01*
X96313463Y-89885506D01*
X96254498Y-89995820D01*
X96218188Y-90115518D01*
X96205928Y-90240000D01*
X94991606Y-90240000D01*
X91021803Y-86270197D01*
X91002557Y-86254403D01*
X90980601Y-86242667D01*
X90956776Y-86235440D01*
X90932000Y-86233000D01*
X76252606Y-86233000D01*
X74803000Y-84783394D01*
X74803000Y-84661224D01*
X78586381Y-84661224D01*
X78718317Y-84956312D01*
X79059045Y-85127159D01*
X79426557Y-85228250D01*
X79806729Y-85255701D01*
X80184951Y-85208457D01*
X80546690Y-85088333D01*
X80793683Y-84956312D01*
X80925619Y-84661224D01*
X79756000Y-83491605D01*
X78586381Y-84661224D01*
X74803000Y-84661224D01*
X74803000Y-83362729D01*
X77812299Y-83362729D01*
X77859543Y-83740951D01*
X77979667Y-84102690D01*
X78111688Y-84349683D01*
X78406776Y-84481619D01*
X79576395Y-83312000D01*
X79935605Y-83312000D01*
X81105224Y-84481619D01*
X81400312Y-84349683D01*
X81571159Y-84008955D01*
X81672250Y-83641443D01*
X81699701Y-83261271D01*
X81652457Y-82883049D01*
X81532333Y-82521310D01*
X81400312Y-82274317D01*
X81105224Y-82142381D01*
X79935605Y-83312000D01*
X79576395Y-83312000D01*
X78406776Y-82142381D01*
X78111688Y-82274317D01*
X77940841Y-82615045D01*
X77839750Y-82982557D01*
X77812299Y-83362729D01*
X74803000Y-83362729D01*
X74803000Y-82856606D01*
X76252606Y-81407000D01*
X79395442Y-81407000D01*
X79327049Y-81415543D01*
X78965310Y-81535667D01*
X78718317Y-81667688D01*
X78586381Y-81962776D01*
X79756000Y-83132395D01*
X80925619Y-81962776D01*
X80793683Y-81667688D01*
X80452955Y-81496841D01*
X80126342Y-81407000D01*
X93927394Y-81407000D01*
X96938197Y-84417803D01*
X96957443Y-84433597D01*
X96979399Y-84445333D01*
X97003224Y-84452560D01*
X97028000Y-84455000D01*
X100076000Y-84455000D01*
X100100776Y-84452560D01*
X100124601Y-84445333D01*
X100146557Y-84433597D01*
X100165803Y-84417803D01*
X103600606Y-80983000D01*
X103792849Y-80983000D01*
X104029903Y-80935847D01*
X104253202Y-80843353D01*
X104454167Y-80709073D01*
X104625073Y-80538167D01*
X104735017Y-80373623D01*
X104733928Y-80556000D01*
X104746188Y-80680482D01*
X104782498Y-80800180D01*
X104841463Y-80910494D01*
X104920815Y-81007185D01*
X105017506Y-81086537D01*
X105127820Y-81145502D01*
X105247518Y-81181812D01*
X105372000Y-81194072D01*
X105886250Y-81191000D01*
X106045000Y-81032250D01*
X106045000Y-79883000D01*
X106299000Y-79883000D01*
X106299000Y-81032250D01*
X106457750Y-81191000D01*
X106972000Y-81194072D01*
X107096482Y-81181812D01*
X107216180Y-81145502D01*
X107326494Y-81086537D01*
X107423185Y-81007185D01*
X107502537Y-80910494D01*
X107561502Y-80800180D01*
X107597812Y-80680482D01*
X107610072Y-80556000D01*
X107607000Y-80041750D01*
X107448250Y-79883000D01*
X106299000Y-79883000D01*
X106045000Y-79883000D01*
X106025000Y-79883000D01*
X106025000Y-79629000D01*
X106045000Y-79629000D01*
X106045000Y-79609000D01*
X106299000Y-79609000D01*
X106299000Y-79629000D01*
X107448250Y-79629000D01*
X107607000Y-79470250D01*
X107610072Y-78956000D01*
X107597812Y-78831518D01*
X107561502Y-78711820D01*
X107502537Y-78601506D01*
X107423185Y-78504815D01*
X107326494Y-78425463D01*
X107216180Y-78366498D01*
X107096482Y-78330188D01*
X106972000Y-78317928D01*
X106457750Y-78321000D01*
X106299002Y-78479748D01*
X106299002Y-78321000D01*
X106262606Y-78321000D01*
X106769803Y-77813803D01*
X106785597Y-77794557D01*
X106797333Y-77772601D01*
X106804560Y-77748776D01*
X106807000Y-77724000D01*
X106807000Y-73011000D01*
X106816928Y-73011000D01*
X106829188Y-73135482D01*
X106865498Y-73255180D01*
X106924463Y-73365494D01*
X107003815Y-73462185D01*
X107100506Y-73541537D01*
X107210820Y-73600502D01*
X107330518Y-73636812D01*
X107455000Y-73649072D01*
X107794250Y-73646000D01*
X107953000Y-73487250D01*
X107953000Y-72263000D01*
X108207000Y-72263000D01*
X108207000Y-73487250D01*
X108365750Y-73646000D01*
X108705000Y-73649072D01*
X108829482Y-73636812D01*
X108949180Y-73600502D01*
X109059494Y-73541537D01*
X109156185Y-73462185D01*
X109235537Y-73365494D01*
X109294502Y-73255180D01*
X109330812Y-73135482D01*
X109343072Y-73011000D01*
X109340000Y-72421750D01*
X109181250Y-72263000D01*
X108207000Y-72263000D01*
X107953000Y-72263000D01*
X106978750Y-72263000D01*
X106820000Y-72421750D01*
X106816928Y-73011000D01*
X106807000Y-73011000D01*
X106807000Y-71172606D01*
X106827669Y-71151937D01*
X106816928Y-71261000D01*
X106820000Y-71850250D01*
X106978750Y-72009000D01*
X107953000Y-72009000D01*
X107953000Y-70784750D01*
X108207000Y-70784750D01*
X108207000Y-72009000D01*
X109181250Y-72009000D01*
X109340000Y-71850250D01*
X109343072Y-71261000D01*
X109330812Y-71136518D01*
X109309437Y-71066055D01*
X109345820Y-71085502D01*
X109465518Y-71121812D01*
X109590000Y-71134072D01*
X110204250Y-71131000D01*
X110363000Y-70972250D01*
X110363000Y-69723000D01*
X110617000Y-69723000D01*
X110617000Y-70972250D01*
X110775750Y-71131000D01*
X111390000Y-71134072D01*
X111514482Y-71121812D01*
X111634180Y-71085502D01*
X111744494Y-71026537D01*
X111841185Y-70947185D01*
X111920537Y-70850494D01*
X111979502Y-70740180D01*
X112015812Y-70620482D01*
X112028072Y-70496000D01*
X112025000Y-69881750D01*
X111866250Y-69723000D01*
X110617000Y-69723000D01*
X110363000Y-69723000D01*
X109113750Y-69723000D01*
X108955000Y-69881750D01*
X108951928Y-70496000D01*
X108964188Y-70620482D01*
X108985563Y-70690945D01*
X108949180Y-70671498D01*
X108829482Y-70635188D01*
X108705000Y-70622928D01*
X108365750Y-70626000D01*
X108207000Y-70784750D01*
X107953000Y-70784750D01*
X107794250Y-70626000D01*
X107455000Y-70622928D01*
X107345937Y-70633669D01*
X107785803Y-70193803D01*
X107801597Y-70174557D01*
X107813333Y-70152601D01*
X107820560Y-70128776D01*
X107823000Y-70104000D01*
X107823000Y-68696000D01*
X108951928Y-68696000D01*
X108955000Y-69310250D01*
X109113750Y-69469000D01*
X110363000Y-69469000D01*
X110363000Y-68219750D01*
X110617000Y-68219750D01*
X110617000Y-69469000D01*
X111866250Y-69469000D01*
X111869948Y-69465302D01*
X112563000Y-69465302D01*
X112563000Y-69726698D01*
X112613996Y-69983072D01*
X112714028Y-70224570D01*
X112859252Y-70441913D01*
X113044087Y-70626748D01*
X113261430Y-70771972D01*
X113502928Y-70872004D01*
X113759302Y-70923000D01*
X114020698Y-70923000D01*
X114277072Y-70872004D01*
X114518570Y-70771972D01*
X114735913Y-70626748D01*
X114920748Y-70441913D01*
X115065972Y-70224570D01*
X115166004Y-69983072D01*
X115170446Y-69960740D01*
X115798964Y-69960740D01*
X115847606Y-70121107D01*
X115977764Y-70392414D01*
X116158351Y-70633116D01*
X116382427Y-70833962D01*
X116641380Y-70987234D01*
X116925259Y-71087041D01*
X117163000Y-70966992D01*
X117163000Y-69723000D01*
X115919622Y-69723000D01*
X115798964Y-69960740D01*
X115170446Y-69960740D01*
X115217000Y-69726698D01*
X115217000Y-69465302D01*
X115170447Y-69231260D01*
X115798964Y-69231260D01*
X115919622Y-69469000D01*
X117163000Y-69469000D01*
X117163000Y-68225008D01*
X116925259Y-68104959D01*
X116641380Y-68204766D01*
X116382427Y-68358038D01*
X116158351Y-68558884D01*
X115977764Y-68799586D01*
X115847606Y-69070893D01*
X115798964Y-69231260D01*
X115170447Y-69231260D01*
X115166004Y-69208928D01*
X115065972Y-68967430D01*
X114920748Y-68750087D01*
X114735913Y-68565252D01*
X114518570Y-68420028D01*
X114277072Y-68319996D01*
X114020698Y-68269000D01*
X113759302Y-68269000D01*
X113502928Y-68319996D01*
X113261430Y-68420028D01*
X113044087Y-68565252D01*
X112859252Y-68750087D01*
X112714028Y-68967430D01*
X112613996Y-69208928D01*
X112563000Y-69465302D01*
X111869948Y-69465302D01*
X112025000Y-69310250D01*
X112028072Y-68696000D01*
X112015812Y-68571518D01*
X111979502Y-68451820D01*
X111920537Y-68341506D01*
X111841185Y-68244815D01*
X111744494Y-68165463D01*
X111634180Y-68106498D01*
X111514482Y-68070188D01*
X111390000Y-68057928D01*
X110775750Y-68061000D01*
X110617000Y-68219750D01*
X110363000Y-68219750D01*
X110204250Y-68061000D01*
X109590000Y-68057928D01*
X109465518Y-68070188D01*
X109345820Y-68106498D01*
X109235506Y-68165463D01*
X109138815Y-68244815D01*
X109059463Y-68341506D01*
X109000498Y-68451820D01*
X108964188Y-68571518D01*
X108951928Y-68696000D01*
X107823000Y-68696000D01*
X107823000Y-67233079D01*
X107869623Y-67176269D01*
X107932375Y-67058867D01*
X107958343Y-66973263D01*
X108764606Y-66167000D01*
X116787394Y-66167000D01*
X118745000Y-68124606D01*
%TD*%
M02*
