%TF.GenerationSoftware,KiCad,Pcbnew,(5.1.6-0)*%
%TF.CreationDate,2023-04-23T15:30:13-07:00*%
%TF.ProjectId,LM3886-bal-no15v-th,4c4d3338-3836-42d6-9261-6c2d6e6f3135,rev?*%
%TF.SameCoordinates,Original*%
%TF.FileFunction,Soldermask,Bot*%
%TF.FilePolarity,Negative*%
%FSLAX46Y46*%
G04 Gerber Fmt 4.6, Leading zero omitted, Abs format (unit mm)*
G04 Created by KiCad (PCBNEW (5.1.6-0)) date 2023-04-23 15:30:13*
%MOMM*%
%LPD*%
G01*
G04 APERTURE LIST*
%ADD10O,2.900000X2.900000*%
%ADD11C,2.900000*%
%ADD12C,1.500000*%
%ADD13O,1.700000X1.700000*%
%ADD14C,1.700000*%
%ADD15C,2.600000*%
%ADD16C,2.700000*%
%ADD17C,2.100000*%
%ADD18C,0.900000*%
%ADD19C,7.100000*%
%ADD20R,1.700000X1.700000*%
%ADD21C,2.500000*%
%ADD22R,2.500000X2.500000*%
%ADD23O,1.900000X1.900000*%
%ADD24R,1.900000X1.900000*%
G04 APERTURE END LIST*
D10*
%TO.C,R9*%
X113500000Y-78510000D03*
D11*
X113500000Y-93750000D03*
%TD*%
D10*
%TO.C,R8*%
X99910000Y-73000000D03*
D11*
X115150000Y-73000000D03*
%TD*%
D12*
%TO.C,C1*%
X132500000Y-58250000D03*
X132500000Y-60750000D03*
%TD*%
D13*
%TO.C,R7*%
X98080000Y-55000000D03*
D14*
X87920000Y-55000000D03*
%TD*%
D13*
%TO.C,R6*%
X118750000Y-68670000D03*
D14*
X118750000Y-78830000D03*
%TD*%
D13*
%TO.C,R5*%
X122000000Y-68670000D03*
D14*
X122000000Y-78830000D03*
%TD*%
D13*
%TO.C,R4*%
X131750000Y-68670000D03*
D14*
X131750000Y-78830000D03*
%TD*%
D13*
%TO.C,R3*%
X135000000Y-68670000D03*
D14*
X135000000Y-78830000D03*
%TD*%
D13*
%TO.C,R2*%
X125250000Y-78830000D03*
D14*
X125250000Y-68670000D03*
%TD*%
D13*
%TO.C,R1*%
X128500000Y-78830000D03*
D14*
X128500000Y-68670000D03*
%TD*%
D12*
%TO.C,C11*%
X115150000Y-68500000D03*
X115150000Y-66000000D03*
%TD*%
%TO.C,C9*%
X108000000Y-57250000D03*
X108000000Y-59750000D03*
%TD*%
%TO.C,C8*%
X108000000Y-63000000D03*
X108000000Y-65500000D03*
%TD*%
%TO.C,C5*%
X122000000Y-65750000D03*
X119500000Y-65750000D03*
%TD*%
%TO.C,C4*%
X135000000Y-65750000D03*
X132500000Y-65750000D03*
%TD*%
D11*
%TO.C,J8*%
X118000000Y-102210000D03*
X118000000Y-107290000D03*
%TD*%
%TO.C,J7*%
X108500000Y-102210000D03*
X108500000Y-107290000D03*
%TD*%
%TO.C,J6*%
X103000000Y-102210000D03*
X103000000Y-107290000D03*
%TD*%
%TO.C,J5*%
X95000000Y-102210000D03*
X95000000Y-107290000D03*
%TD*%
%TO.C,J4*%
X88000000Y-102210000D03*
X88000000Y-107290000D03*
%TD*%
D15*
%TO.C,L1*%
X100940000Y-92600000D03*
X108560000Y-79900000D03*
%TD*%
D16*
%TO.C,J3*%
X100500000Y-104750000D03*
X95500000Y-104750000D03*
X90500000Y-104750000D03*
%TD*%
%TO.C,J2*%
X115750000Y-104750000D03*
X110750000Y-104750000D03*
%TD*%
D17*
%TO.C,J1*%
X131250000Y-104750000D03*
X127750000Y-104750000D03*
X124250000Y-104750000D03*
%TD*%
D18*
%TO.C,H4*%
X140606155Y-104393845D03*
X138750000Y-103625000D03*
X136893845Y-104393845D03*
X136125000Y-106250000D03*
X136893845Y-108106155D03*
X138750000Y-108875000D03*
X140606155Y-108106155D03*
X141375000Y-106250000D03*
D19*
X138750000Y-106250000D03*
%TD*%
D18*
%TO.C,H3*%
X140606155Y-57143845D03*
X138750000Y-56375000D03*
X136893845Y-57143845D03*
X136125000Y-59000000D03*
X136893845Y-60856155D03*
X138750000Y-61625000D03*
X140606155Y-60856155D03*
X141375000Y-59000000D03*
D19*
X138750000Y-59000000D03*
%TD*%
D18*
%TO.C,H2*%
X83106155Y-104393845D03*
X81250000Y-103625000D03*
X79393845Y-104393845D03*
X78625000Y-106250000D03*
X79393845Y-108106155D03*
X81250000Y-108875000D03*
X83106155Y-108106155D03*
X83875000Y-106250000D03*
D19*
X81250000Y-106250000D03*
%TD*%
D18*
%TO.C,H1*%
X83106155Y-57143845D03*
X81250000Y-56375000D03*
X79393845Y-57143845D03*
X78625000Y-59000000D03*
X79393845Y-60856155D03*
X81250000Y-61625000D03*
X83106155Y-60856155D03*
X83875000Y-59000000D03*
D19*
X81250000Y-59000000D03*
%TD*%
D14*
%TO.C,C13*%
X122500000Y-86250000D03*
X122500000Y-91250000D03*
%TD*%
%TO.C,C12*%
X133250000Y-86250000D03*
X133250000Y-91250000D03*
%TD*%
%TO.C,C10*%
X95500000Y-59750000D03*
D20*
X95500000Y-63250000D03*
%TD*%
D14*
%TO.C,C7*%
X102500000Y-56750000D03*
D20*
X102500000Y-59250000D03*
%TD*%
D14*
%TO.C,C6*%
X102500000Y-64000000D03*
D20*
X102500000Y-66500000D03*
%TD*%
D21*
%TO.C,C3*%
X89500000Y-69250000D03*
D22*
X89500000Y-76750000D03*
%TD*%
D21*
%TO.C,C2*%
X89500000Y-86250000D03*
D22*
X89500000Y-93750000D03*
%TD*%
D23*
%TO.C,U1*%
X128750000Y-62250000D03*
X127050000Y-57170000D03*
X125350000Y-62250000D03*
X123650000Y-57170000D03*
X121950000Y-62250000D03*
X120250000Y-57170000D03*
X118550000Y-62250000D03*
X116850000Y-57170000D03*
X115150000Y-62250000D03*
X113450000Y-57170000D03*
D24*
X111750000Y-62250000D03*
%TD*%
M02*
