M48
; DRILL file {KiCad (5.1.6-0)} date Friday, May 05, 2023 at 02:03:52 PM
; FORMAT={-:-/ absolute / inch / decimal}
; #@! TF.CreationDate,2023-05-05T14:03:52-07:00
; #@! TF.GenerationSoftware,Kicad,Pcbnew,(5.1.6-0)
; #@! TF.FileFunction,Plated,1,2,PTH
FMAT,2
INCH
T1C0.0118
T2C0.0197
T3C0.0315
T4C0.0394
T5C0.0472
T6C0.0512
T7C0.0551
T8C0.1378
%
G90
G05
T1
X3.1004Y-2.5197
X3.1181Y-3.9682
X3.4724Y-3.1414
X3.4724Y-3.2989
X3.5511Y-2.9052
X3.5511Y-3.2202
X3.6024Y-2.8445
X3.6122Y-2.9134
X3.6122Y-3.1398
X4.0236Y-3.4843
X4.1023Y-3.417
X4.1811Y-3.2595
X4.1811Y-3.4843
X4.2204Y-3.3777
X4.2992Y-3.4564
X4.3385Y-3.3383
X4.4173Y-3.417
X4.496Y-3.3383
X4.496Y-3.4843
X4.496Y-3.8895
X4.496Y-4.2438
X4.5354Y-4.0076
X4.5748Y-3.417
X4.5748Y-3.8107
X4.5866Y-3.189
X4.6141Y-2.7871
X4.6141Y-2.984
X4.6141Y-3.5351
X4.6141Y-3.6926
X4.6535Y-3.2989
X4.6535Y-3.8583
X4.6535Y-4.1257
X4.6929Y-2.8658
X4.6929Y-3.4564
X4.6929Y-3.6139
X4.6929Y-3.7714
X4.7322Y-3.0233
X4.7322Y-3.1808
X4.7539Y-2.5197
X4.7716Y-2.354
X4.7716Y-2.7871
X4.7716Y-3.6926
X4.7716Y-3.8501
X4.7716Y-4.0076
X4.7716Y-4.1651
X4.811Y-2.9052
X4.811Y-3.2595
X4.811Y-3.4958
X4.811Y-4.2832
X4.8327Y-2.1178
X4.8503Y-3.7714
X4.8524Y-2.3031
X4.8524Y-3.9075
X4.8897Y-2.5903
X4.8897Y-2.8265
X4.8897Y-2.984
X4.8897Y-3.1808
X4.8897Y-4.2044
X4.8917Y-3.6713
X4.8917Y-4.0059
X4.9213Y-3.4449
X4.9213Y-3.5531
X4.9291Y-2.1572
X4.9291Y-2.354
X4.9409Y-3.3366
X4.9606Y-3.7697
X4.9685Y-2.9052
X4.9685Y-4.2832
X4.9803Y-3.6614
X5.0078Y-2.5509
X5.0078Y-2.7871
X5.0078Y-3.0233
X5.0078Y-3.4958
X5.0098Y-3.9764
X5.0472Y-2.1178
X5.0866Y-2.8658
X5.0866Y-3.8895
X5.0866Y-4.0469
X5.0866Y-4.2044
X5.0984Y-3.7205
X5.1083Y-2.2736
X5.1259Y-2.5903
X5.1259Y-2.984
X5.1259Y-3.1808
X5.1259Y-3.4564
X5.128Y-3.5433
X5.1653Y-2.1572
X5.1653Y-2.4721
X5.1653Y-2.7871
X5.1653Y-3.2989
X5.1653Y-3.6532
X5.1653Y-3.8107
X5.1653Y-3.9961
X5.1653Y-4.2832
X5.2047Y-2.9052
X5.2362Y-2.4016
X5.244Y-3.0233
X5.244Y-3.2202
X5.244Y-3.4958
X5.244Y-3.732
X5.244Y-3.8895
X5.244Y-4.0469
X5.244Y-4.2044
X5.2834Y-2.5115
X5.2834Y-2.8265
X5.3228Y-2.9446
X5.3228Y-3.2989
X5.3228Y-3.5745
X5.3228Y-3.8107
X5.3228Y-3.9682
X5.3622Y-3.1808
X5.3622Y-3.417
X5.3622Y-3.6926
X5.4015Y-2.5509
X5.4015Y-2.7084
X5.4015Y-2.8658
X5.4015Y-3.0233
X5.4015Y-3.8895
X5.4409Y-3.2595
X5.4409Y-3.4958
X5.4409Y-3.7714
X5.4803Y-2.6296
X5.4803Y-2.7871
X5.4803Y-2.9446
X5.4803Y-3.1021
X5.4803Y-3.3777
X5.4803Y-3.6139
X5.4803Y-3.9682
X5.5196Y-3.8501
X5.559Y-2.5509
X5.559Y-2.7084
X5.559Y-2.8658
X5.559Y-3.0233
X5.559Y-3.1808
X5.559Y-3.4564
X5.559Y-3.6926
T2
X5.3593Y-4.1831
X5.3895Y-4.11
X5.3895Y-4.2561
X5.4626Y-4.0797
X5.4626Y-4.2864
X5.5357Y-4.11
X5.5357Y-4.2561
X5.5659Y-4.1831
X3.0955Y-2.3228
X3.1257Y-2.2498
X3.1257Y-2.3959
X3.1988Y-2.2195
X3.1988Y-2.4262
X3.2719Y-2.2498
X3.2719Y-2.3959
X3.3022Y-2.3228
X5.3593Y-2.3228
X5.3895Y-2.2498
X5.3895Y-2.3959
X5.4626Y-2.2195
X5.4626Y-2.4262
X5.5357Y-2.2498
X5.5357Y-2.3959
X5.5659Y-2.3228
X3.0955Y-4.1831
X3.1257Y-4.11
X3.1257Y-4.2561
X3.1988Y-4.0797
X3.1988Y-4.2864
X3.2719Y-4.11
X3.2719Y-4.2561
X3.3022Y-4.1831
T3
X4.3602Y-2.7067
X4.5571Y-2.7067
X4.252Y-2.2539
X4.252Y-2.3524
X4.0354Y-2.2343
X4.0354Y-2.3327
X5.0591Y-2.7035
X5.0591Y-3.1035
X4.8228Y-3.3957
X4.8228Y-3.5925
X4.8031Y-2.7035
X4.8031Y-3.1035
X4.9311Y-2.7035
X4.9311Y-3.1035
X3.7598Y-2.3524
X3.7598Y-2.4902
X5.2461Y-3.3957
X5.2461Y-3.5925
X3.4614Y-2.1654
X3.8614Y-2.1654
X4.7047Y-2.5886
X4.8031Y-2.5886
X4.252Y-2.4803
X4.252Y-2.5787
X4.0354Y-2.5197
X4.0354Y-2.6181
X5.187Y-2.7035
X5.187Y-3.1035
X5.315Y-2.7035
X5.315Y-3.1035
X5.2067Y-2.2244
X5.2067Y-2.3228
X5.2165Y-2.5886
X5.315Y-2.5886
X4.6752Y-2.7035
X4.6752Y-3.1035
T4
X4.8917Y-4.124
X5.0295Y-4.124
X5.1673Y-4.124
X4.3996Y-2.4213
X4.4665Y-2.2213
X4.5335Y-2.4213
X4.6004Y-2.2213
X4.6673Y-2.4213
X4.7343Y-2.2213
X4.8012Y-2.4213
X4.8681Y-2.2213
X4.935Y-2.4213
X5.002Y-2.2213
X5.0689Y-2.4213
T5
X3.5236Y-3.3957
X3.5236Y-3.6909
X3.974Y-3.6457
X4.274Y-3.1457
X3.5236Y-2.7264
X3.5236Y-3.0217
T6
X4.3602Y-4.124
X4.5571Y-4.124
X3.563Y-4.124
X3.7598Y-4.124
X3.9567Y-4.124
T7
X3.4646Y-4.024
X3.4646Y-4.224
X3.9335Y-2.8937
X4.5335Y-2.8937
X4.4685Y-3.0909
X4.4685Y-3.6909
X4.2717Y-4.024
X4.2717Y-4.224
X4.6457Y-4.024
X4.6457Y-4.224
X4.0551Y-4.024
X4.0551Y-4.224
X3.7402Y-4.024
X3.7402Y-4.224
T8
X5.4626Y-4.1831
X3.1988Y-2.3228
X5.4626Y-2.3228
X3.1988Y-4.1831
T0
M30
