%TF.GenerationSoftware,KiCad,Pcbnew,(5.1.6-0)*%
%TF.CreationDate,2023-04-23T15:30:13-07:00*%
%TF.ProjectId,LM3886-bal-no15v-th,4c4d3338-3836-42d6-9261-6c2d6e6f3135,rev?*%
%TF.SameCoordinates,Original*%
%TF.FileFunction,Legend,Top*%
%TF.FilePolarity,Positive*%
%FSLAX46Y46*%
G04 Gerber Fmt 4.6, Leading zero omitted, Abs format (unit mm)*
G04 Created by KiCad (PCBNEW (5.1.6-0)) date 2023-04-23 15:30:13*
%MOMM*%
%LPD*%
G01*
G04 APERTURE LIST*
%ADD10C,0.150000*%
%ADD11C,0.120000*%
%ADD12C,0.500000*%
G04 APERTURE END LIST*
D10*
X131488095Y-100000000D02*
X131392857Y-99952380D01*
X131250000Y-99952380D01*
X131107142Y-100000000D01*
X131011904Y-100095238D01*
X130964285Y-100190476D01*
X130916666Y-100380952D01*
X130916666Y-100523809D01*
X130964285Y-100714285D01*
X131011904Y-100809523D01*
X131107142Y-100904761D01*
X131250000Y-100952380D01*
X131345238Y-100952380D01*
X131488095Y-100904761D01*
X131535714Y-100857142D01*
X131535714Y-100523809D01*
X131345238Y-100523809D01*
X131964285Y-100952380D02*
X131964285Y-99952380D01*
X132535714Y-100952380D01*
X132535714Y-99952380D01*
X133011904Y-100952380D02*
X133011904Y-99952380D01*
X133250000Y-99952380D01*
X133392857Y-100000000D01*
X133488095Y-100095238D01*
X133535714Y-100190476D01*
X133583333Y-100380952D01*
X133583333Y-100523809D01*
X133535714Y-100714285D01*
X133488095Y-100809523D01*
X133392857Y-100904761D01*
X133250000Y-100952380D01*
X133011904Y-100952380D01*
X127107142Y-100952380D02*
X127107142Y-99952380D01*
X127583333Y-100952380D02*
X127583333Y-99952380D01*
X128154761Y-100952380D01*
X128154761Y-99952380D01*
X128630952Y-100571428D02*
X129392857Y-100571428D01*
X129011904Y-100952380D02*
X129011904Y-100190476D01*
X122857142Y-100952380D02*
X122857142Y-99952380D01*
X123333333Y-100952380D02*
X123333333Y-99952380D01*
X123904761Y-100952380D01*
X123904761Y-99952380D01*
X124380952Y-100571428D02*
X125142857Y-100571428D01*
X116738095Y-98500000D02*
X116642857Y-98452380D01*
X116500000Y-98452380D01*
X116357142Y-98500000D01*
X116261904Y-98595238D01*
X116214285Y-98690476D01*
X116166666Y-98880952D01*
X116166666Y-99023809D01*
X116214285Y-99214285D01*
X116261904Y-99309523D01*
X116357142Y-99404761D01*
X116500000Y-99452380D01*
X116595238Y-99452380D01*
X116738095Y-99404761D01*
X116785714Y-99357142D01*
X116785714Y-99023809D01*
X116595238Y-99023809D01*
X117214285Y-99452380D02*
X117214285Y-98452380D01*
X117785714Y-99452380D01*
X117785714Y-98452380D01*
X118261904Y-99452380D02*
X118261904Y-98452380D01*
X118500000Y-98452380D01*
X118642857Y-98500000D01*
X118738095Y-98595238D01*
X118785714Y-98690476D01*
X118833333Y-98880952D01*
X118833333Y-99023809D01*
X118785714Y-99214285D01*
X118738095Y-99309523D01*
X118642857Y-99404761D01*
X118500000Y-99452380D01*
X118261904Y-99452380D01*
X107595238Y-99404761D02*
X107738095Y-99452380D01*
X107976190Y-99452380D01*
X108071428Y-99404761D01*
X108119047Y-99357142D01*
X108166666Y-99261904D01*
X108166666Y-99166666D01*
X108119047Y-99071428D01*
X108071428Y-99023809D01*
X107976190Y-98976190D01*
X107785714Y-98928571D01*
X107690476Y-98880952D01*
X107642857Y-98833333D01*
X107595238Y-98738095D01*
X107595238Y-98642857D01*
X107642857Y-98547619D01*
X107690476Y-98500000D01*
X107785714Y-98452380D01*
X108023809Y-98452380D01*
X108166666Y-98500000D01*
X108595238Y-99452380D02*
X108595238Y-98452380D01*
X108976190Y-98452380D01*
X109071428Y-98500000D01*
X109119047Y-98547619D01*
X109166666Y-98642857D01*
X109166666Y-98785714D01*
X109119047Y-98880952D01*
X109071428Y-98928571D01*
X108976190Y-98976190D01*
X108595238Y-98976190D01*
X109595238Y-99452380D02*
X109595238Y-98452380D01*
X110166666Y-99452380D02*
X109738095Y-98880952D01*
X110166666Y-98452380D02*
X109595238Y-99023809D01*
X110595238Y-99071428D02*
X111357142Y-99071428D01*
X110976190Y-99452380D02*
X110976190Y-98690476D01*
X101047619Y-98452380D02*
X101380952Y-99452380D01*
X101714285Y-98452380D01*
X102047619Y-99071428D02*
X102809523Y-99071428D01*
X102428571Y-99452380D02*
X102428571Y-98690476D01*
X88547619Y-98452380D02*
X88880952Y-99452380D01*
X89214285Y-98452380D01*
X89547619Y-99071428D02*
X90309523Y-99071428D01*
X94488095Y-98500000D02*
X94392857Y-98452380D01*
X94250000Y-98452380D01*
X94107142Y-98500000D01*
X94011904Y-98595238D01*
X93964285Y-98690476D01*
X93916666Y-98880952D01*
X93916666Y-99023809D01*
X93964285Y-99214285D01*
X94011904Y-99309523D01*
X94107142Y-99404761D01*
X94250000Y-99452380D01*
X94345238Y-99452380D01*
X94488095Y-99404761D01*
X94535714Y-99357142D01*
X94535714Y-99023809D01*
X94345238Y-99023809D01*
X94964285Y-99452380D02*
X94964285Y-98452380D01*
X95535714Y-99452380D01*
X95535714Y-98452380D01*
X96011904Y-99452380D02*
X96011904Y-98452380D01*
X96250000Y-98452380D01*
X96392857Y-98500000D01*
X96488095Y-98595238D01*
X96535714Y-98690476D01*
X96583333Y-98880952D01*
X96583333Y-99023809D01*
X96535714Y-99214285D01*
X96488095Y-99309523D01*
X96392857Y-99404761D01*
X96250000Y-99452380D01*
X96011904Y-99452380D01*
D11*
%TO.C,R9*%
X116470000Y-78860000D02*
X115140000Y-78860000D01*
X116470000Y-93400000D02*
X116470000Y-78860000D01*
X115140000Y-93400000D02*
X116470000Y-93400000D01*
X110530000Y-78860000D02*
X111860000Y-78860000D01*
X110530000Y-93400000D02*
X110530000Y-78860000D01*
X111860000Y-93400000D02*
X110530000Y-93400000D01*
%TO.C,R8*%
X100260000Y-70030000D02*
X100260000Y-71360000D01*
X114800000Y-70030000D02*
X100260000Y-70030000D01*
X114800000Y-71360000D02*
X114800000Y-70030000D01*
X100260000Y-75970000D02*
X100260000Y-74640000D01*
X114800000Y-75970000D02*
X100260000Y-75970000D01*
X114800000Y-74640000D02*
X114800000Y-75970000D01*
%TO.C,C1*%
X131080000Y-61520000D02*
X131080000Y-57480000D01*
X133920000Y-61520000D02*
X133920000Y-57480000D01*
X131080000Y-61520000D02*
X131705000Y-61520000D01*
X133295000Y-61520000D02*
X133920000Y-61520000D01*
X131080000Y-57480000D02*
X131705000Y-57480000D01*
X133295000Y-57480000D02*
X133920000Y-57480000D01*
%TO.C,R7*%
X97040000Y-55000000D02*
X96270000Y-55000000D01*
X88960000Y-55000000D02*
X89730000Y-55000000D01*
X96270000Y-53630000D02*
X89730000Y-53630000D01*
X96270000Y-56370000D02*
X96270000Y-53630000D01*
X89730000Y-56370000D02*
X96270000Y-56370000D01*
X89730000Y-53630000D02*
X89730000Y-56370000D01*
%TO.C,R6*%
X118750000Y-69710000D02*
X118750000Y-70480000D01*
X118750000Y-77790000D02*
X118750000Y-77020000D01*
X117380000Y-70480000D02*
X117380000Y-77020000D01*
X120120000Y-70480000D02*
X117380000Y-70480000D01*
X120120000Y-77020000D02*
X120120000Y-70480000D01*
X117380000Y-77020000D02*
X120120000Y-77020000D01*
%TO.C,R5*%
X122000000Y-69710000D02*
X122000000Y-70480000D01*
X122000000Y-77790000D02*
X122000000Y-77020000D01*
X120630000Y-70480000D02*
X120630000Y-77020000D01*
X123370000Y-70480000D02*
X120630000Y-70480000D01*
X123370000Y-77020000D02*
X123370000Y-70480000D01*
X120630000Y-77020000D02*
X123370000Y-77020000D01*
%TO.C,R4*%
X131750000Y-69710000D02*
X131750000Y-70480000D01*
X131750000Y-77790000D02*
X131750000Y-77020000D01*
X130380000Y-70480000D02*
X130380000Y-77020000D01*
X133120000Y-70480000D02*
X130380000Y-70480000D01*
X133120000Y-77020000D02*
X133120000Y-70480000D01*
X130380000Y-77020000D02*
X133120000Y-77020000D01*
%TO.C,R3*%
X135000000Y-69710000D02*
X135000000Y-70480000D01*
X135000000Y-77790000D02*
X135000000Y-77020000D01*
X133630000Y-70480000D02*
X133630000Y-77020000D01*
X136370000Y-70480000D02*
X133630000Y-70480000D01*
X136370000Y-77020000D02*
X136370000Y-70480000D01*
X133630000Y-77020000D02*
X136370000Y-77020000D01*
%TO.C,R2*%
X125250000Y-77790000D02*
X125250000Y-77020000D01*
X125250000Y-69710000D02*
X125250000Y-70480000D01*
X126620000Y-77020000D02*
X126620000Y-70480000D01*
X123880000Y-77020000D02*
X126620000Y-77020000D01*
X123880000Y-70480000D02*
X123880000Y-77020000D01*
X126620000Y-70480000D02*
X123880000Y-70480000D01*
%TO.C,R1*%
X128500000Y-77790000D02*
X128500000Y-77020000D01*
X128500000Y-69710000D02*
X128500000Y-70480000D01*
X129870000Y-77020000D02*
X129870000Y-70480000D01*
X127130000Y-77020000D02*
X129870000Y-77020000D01*
X127130000Y-70480000D02*
X127130000Y-77020000D01*
X129870000Y-70480000D02*
X127130000Y-70480000D01*
%TO.C,C11*%
X116570000Y-65230000D02*
X116570000Y-69270000D01*
X113730000Y-65230000D02*
X113730000Y-69270000D01*
X116570000Y-65230000D02*
X115945000Y-65230000D01*
X114355000Y-65230000D02*
X113730000Y-65230000D01*
X116570000Y-69270000D02*
X115945000Y-69270000D01*
X114355000Y-69270000D02*
X113730000Y-69270000D01*
%TO.C,C9*%
X106580000Y-60520000D02*
X106580000Y-56480000D01*
X109420000Y-60520000D02*
X109420000Y-56480000D01*
X106580000Y-60520000D02*
X107205000Y-60520000D01*
X108795000Y-60520000D02*
X109420000Y-60520000D01*
X106580000Y-56480000D02*
X107205000Y-56480000D01*
X108795000Y-56480000D02*
X109420000Y-56480000D01*
%TO.C,C8*%
X106580000Y-66270000D02*
X106580000Y-62230000D01*
X109420000Y-66270000D02*
X109420000Y-62230000D01*
X106580000Y-66270000D02*
X107205000Y-66270000D01*
X108795000Y-66270000D02*
X109420000Y-66270000D01*
X106580000Y-62230000D02*
X107205000Y-62230000D01*
X108795000Y-62230000D02*
X109420000Y-62230000D01*
%TO.C,C5*%
X118730000Y-64330000D02*
X122770000Y-64330000D01*
X118730000Y-67170000D02*
X122770000Y-67170000D01*
X118730000Y-64330000D02*
X118730000Y-64955000D01*
X118730000Y-66545000D02*
X118730000Y-67170000D01*
X122770000Y-64330000D02*
X122770000Y-64955000D01*
X122770000Y-66545000D02*
X122770000Y-67170000D01*
%TO.C,C4*%
X131730000Y-64330000D02*
X135770000Y-64330000D01*
X131730000Y-67170000D02*
X135770000Y-67170000D01*
X131730000Y-64330000D02*
X131730000Y-64955000D01*
X131730000Y-66545000D02*
X131730000Y-67170000D01*
X135770000Y-64330000D02*
X135770000Y-64955000D01*
X135770000Y-66545000D02*
X135770000Y-67170000D01*
%TO.C,J8*%
X119600000Y-107290000D02*
G75*
G03*
X119600000Y-107290000I-1600000J0D01*
G01*
X119600000Y-102210000D02*
G75*
G03*
X119600000Y-102210000I-1600000J0D01*
G01*
%TO.C,J7*%
X110100000Y-107290000D02*
G75*
G03*
X110100000Y-107290000I-1600000J0D01*
G01*
X110100000Y-102210000D02*
G75*
G03*
X110100000Y-102210000I-1600000J0D01*
G01*
%TO.C,J6*%
X104600000Y-107290000D02*
G75*
G03*
X104600000Y-107290000I-1600000J0D01*
G01*
X104600000Y-102210000D02*
G75*
G03*
X104600000Y-102210000I-1600000J0D01*
G01*
%TO.C,J5*%
X96600000Y-107290000D02*
G75*
G03*
X96600000Y-107290000I-1600000J0D01*
G01*
X96600000Y-102210000D02*
G75*
G03*
X96600000Y-102210000I-1600000J0D01*
G01*
%TO.C,J4*%
X89600000Y-107290000D02*
G75*
G03*
X89600000Y-107290000I-1600000J0D01*
G01*
X89600000Y-102210000D02*
G75*
G03*
X89600000Y-102210000I-1600000J0D01*
G01*
%TO.C,L1*%
X107290000Y-79900000D02*
X99670000Y-79900000D01*
X99670000Y-79900000D02*
X99670000Y-92600000D01*
X102210000Y-92600000D02*
X109830000Y-92600000D01*
X109830000Y-92600000D02*
X109830000Y-79900000D01*
D12*
X108560000Y-82440000D02*
X100940000Y-83710000D01*
X108560000Y-83710000D02*
X100940000Y-84980000D01*
X108560000Y-84980000D02*
X100940000Y-86250000D01*
X108560000Y-86250000D02*
X100940000Y-87520000D01*
X108560000Y-87520000D02*
X100940000Y-88790000D01*
X108560000Y-88790000D02*
X100940000Y-90060000D01*
X107750000Y-81300000D02*
X100940000Y-82440000D01*
X108560000Y-90060000D02*
X102000000Y-91250000D01*
D11*
%TO.C,J3*%
X88000000Y-99750000D02*
X103000000Y-99750000D01*
X103000000Y-99750000D02*
X103000000Y-108750000D01*
X88000000Y-99750000D02*
X88000000Y-108750000D01*
X88000000Y-108750000D02*
X103000000Y-108750000D01*
X102177051Y-104750000D02*
G75*
G03*
X102177051Y-104750000I-1677051J0D01*
G01*
X97100781Y-104750000D02*
G75*
G03*
X97100781Y-104750000I-1600781J0D01*
G01*
X92177051Y-104750000D02*
G75*
G03*
X92177051Y-104750000I-1677051J0D01*
G01*
X91059017Y-101000000D02*
G75*
G03*
X91059017Y-101000000I-559017J0D01*
G01*
X96059017Y-101000000D02*
G75*
G03*
X96059017Y-101000000I-559017J0D01*
G01*
X101059017Y-101000000D02*
G75*
G03*
X101059017Y-101000000I-559017J0D01*
G01*
X99500000Y-106750000D02*
X101500000Y-106750000D01*
X101500000Y-106750000D02*
X101500000Y-108750000D01*
X99500000Y-106750000D02*
X99500000Y-108750000D01*
X94500000Y-106750000D02*
X96500000Y-106750000D01*
X89500000Y-106750000D02*
X91500000Y-106750000D01*
X94500000Y-106750000D02*
X94500000Y-108750000D01*
X96500000Y-106750000D02*
X96500000Y-108750000D01*
X91500000Y-106750000D02*
X91500000Y-108750000D01*
X89500000Y-106750000D02*
X89500000Y-108750000D01*
X88000000Y-100250000D02*
X87750000Y-100250000D01*
X87750000Y-100250000D02*
X87750000Y-102250000D01*
X87750000Y-102250000D02*
X88000000Y-102250000D01*
%TO.C,J2*%
X116750000Y-106750000D02*
X116750000Y-108750000D01*
X114750000Y-106750000D02*
X116750000Y-106750000D01*
X114750000Y-106750000D02*
X114750000Y-108750000D01*
X111750000Y-106750000D02*
X111750000Y-108750000D01*
X109750000Y-106750000D02*
X111750000Y-106750000D01*
X109750000Y-108750000D02*
X109750000Y-106750000D01*
X116309017Y-101000000D02*
G75*
G03*
X116309017Y-101000000I-559017J0D01*
G01*
X111309017Y-101000000D02*
G75*
G03*
X111309017Y-101000000I-559017J0D01*
G01*
X112350781Y-104750000D02*
G75*
G03*
X112350781Y-104750000I-1600781J0D01*
G01*
X117350781Y-104750000D02*
G75*
G03*
X117350781Y-104750000I-1600781J0D01*
G01*
X108250000Y-108750000D02*
X108250000Y-99750000D01*
X118250000Y-108750000D02*
X108250000Y-108750000D01*
X118250000Y-99750000D02*
X118250000Y-108750000D01*
X108250000Y-99750000D02*
X118250000Y-99750000D01*
%TO.C,J1*%
X133750000Y-101250000D02*
X133750000Y-108250000D01*
X121750000Y-101250000D02*
X121750000Y-108250000D01*
X133750000Y-108250000D02*
X121750000Y-108250000D01*
X133750000Y-101250000D02*
X121750000Y-101250000D01*
X132500000Y-104750000D02*
G75*
G03*
X132500000Y-104750000I-1250000J0D01*
G01*
X129000000Y-104750000D02*
G75*
G03*
X129000000Y-104750000I-1250000J0D01*
G01*
X125500000Y-104750000D02*
G75*
G03*
X125500000Y-104750000I-1250000J0D01*
G01*
X123750000Y-106500000D02*
X124750000Y-106500000D01*
X124750000Y-106500000D02*
X124750000Y-108250000D01*
X123750000Y-106500000D02*
X123750000Y-108250000D01*
X127250000Y-108250000D02*
X127250000Y-106500000D01*
X127250000Y-106500000D02*
X128250000Y-106500000D01*
X128250000Y-106500000D02*
X128250000Y-108250000D01*
X130750000Y-108250000D02*
X130750000Y-106500000D01*
X130750000Y-106500000D02*
X131750000Y-106500000D01*
X131750000Y-106500000D02*
X131750000Y-108250000D01*
%TO.C,C13*%
X127620000Y-88750000D02*
G75*
G03*
X127620000Y-88750000I-5120000J0D01*
G01*
%TO.C,C12*%
X138370000Y-88750000D02*
G75*
G03*
X138370000Y-88750000I-5120000J0D01*
G01*
%TO.C,C10*%
X99620000Y-61500000D02*
G75*
G03*
X99620000Y-61500000I-4120000J0D01*
G01*
X91420000Y-61500000D02*
X99580000Y-61500000D01*
X91420000Y-61460000D02*
X99580000Y-61460000D01*
X91420000Y-61420000D02*
X99580000Y-61420000D01*
X91421000Y-61380000D02*
X99579000Y-61380000D01*
X91423000Y-61340000D02*
X99577000Y-61340000D01*
X91424000Y-61300000D02*
X99576000Y-61300000D01*
X91426000Y-61260000D02*
X99574000Y-61260000D01*
X91429000Y-61220000D02*
X99571000Y-61220000D01*
X91432000Y-61180000D02*
X99568000Y-61180000D01*
X91435000Y-61140000D02*
X99565000Y-61140000D01*
X91439000Y-61100000D02*
X99561000Y-61100000D01*
X91443000Y-61060000D02*
X99557000Y-61060000D01*
X91448000Y-61020000D02*
X99552000Y-61020000D01*
X91452000Y-60980000D02*
X99548000Y-60980000D01*
X91458000Y-60940000D02*
X99542000Y-60940000D01*
X91463000Y-60900000D02*
X99537000Y-60900000D01*
X91470000Y-60860000D02*
X99530000Y-60860000D01*
X91476000Y-60820000D02*
X99524000Y-60820000D01*
X91483000Y-60779000D02*
X94460000Y-60779000D01*
X96540000Y-60779000D02*
X99517000Y-60779000D01*
X91490000Y-60739000D02*
X94460000Y-60739000D01*
X96540000Y-60739000D02*
X99510000Y-60739000D01*
X91498000Y-60699000D02*
X94460000Y-60699000D01*
X96540000Y-60699000D02*
X99502000Y-60699000D01*
X91506000Y-60659000D02*
X94460000Y-60659000D01*
X96540000Y-60659000D02*
X99494000Y-60659000D01*
X91515000Y-60619000D02*
X94460000Y-60619000D01*
X96540000Y-60619000D02*
X99485000Y-60619000D01*
X91524000Y-60579000D02*
X94460000Y-60579000D01*
X96540000Y-60579000D02*
X99476000Y-60579000D01*
X91533000Y-60539000D02*
X94460000Y-60539000D01*
X96540000Y-60539000D02*
X99467000Y-60539000D01*
X91543000Y-60499000D02*
X94460000Y-60499000D01*
X96540000Y-60499000D02*
X99457000Y-60499000D01*
X91553000Y-60459000D02*
X94460000Y-60459000D01*
X96540000Y-60459000D02*
X99447000Y-60459000D01*
X91564000Y-60419000D02*
X94460000Y-60419000D01*
X96540000Y-60419000D02*
X99436000Y-60419000D01*
X91575000Y-60379000D02*
X94460000Y-60379000D01*
X96540000Y-60379000D02*
X99425000Y-60379000D01*
X91586000Y-60339000D02*
X94460000Y-60339000D01*
X96540000Y-60339000D02*
X99414000Y-60339000D01*
X91598000Y-60299000D02*
X94460000Y-60299000D01*
X96540000Y-60299000D02*
X99402000Y-60299000D01*
X91611000Y-60259000D02*
X94460000Y-60259000D01*
X96540000Y-60259000D02*
X99389000Y-60259000D01*
X91623000Y-60219000D02*
X94460000Y-60219000D01*
X96540000Y-60219000D02*
X99377000Y-60219000D01*
X91637000Y-60179000D02*
X94460000Y-60179000D01*
X96540000Y-60179000D02*
X99363000Y-60179000D01*
X91650000Y-60139000D02*
X94460000Y-60139000D01*
X96540000Y-60139000D02*
X99350000Y-60139000D01*
X91665000Y-60099000D02*
X94460000Y-60099000D01*
X96540000Y-60099000D02*
X99335000Y-60099000D01*
X91679000Y-60059000D02*
X94460000Y-60059000D01*
X96540000Y-60059000D02*
X99321000Y-60059000D01*
X91695000Y-60019000D02*
X94460000Y-60019000D01*
X96540000Y-60019000D02*
X99305000Y-60019000D01*
X91710000Y-59979000D02*
X94460000Y-59979000D01*
X96540000Y-59979000D02*
X99290000Y-59979000D01*
X91726000Y-59939000D02*
X94460000Y-59939000D01*
X96540000Y-59939000D02*
X99274000Y-59939000D01*
X91743000Y-59899000D02*
X94460000Y-59899000D01*
X96540000Y-59899000D02*
X99257000Y-59899000D01*
X91760000Y-59859000D02*
X94460000Y-59859000D01*
X96540000Y-59859000D02*
X99240000Y-59859000D01*
X91778000Y-59819000D02*
X94460000Y-59819000D01*
X96540000Y-59819000D02*
X99222000Y-59819000D01*
X91796000Y-59779000D02*
X94460000Y-59779000D01*
X96540000Y-59779000D02*
X99204000Y-59779000D01*
X91814000Y-59739000D02*
X94460000Y-59739000D01*
X96540000Y-59739000D02*
X99186000Y-59739000D01*
X91834000Y-59699000D02*
X94460000Y-59699000D01*
X96540000Y-59699000D02*
X99166000Y-59699000D01*
X91853000Y-59659000D02*
X94460000Y-59659000D01*
X96540000Y-59659000D02*
X99147000Y-59659000D01*
X91873000Y-59619000D02*
X94460000Y-59619000D01*
X96540000Y-59619000D02*
X99127000Y-59619000D01*
X91894000Y-59579000D02*
X94460000Y-59579000D01*
X96540000Y-59579000D02*
X99106000Y-59579000D01*
X91916000Y-59539000D02*
X94460000Y-59539000D01*
X96540000Y-59539000D02*
X99084000Y-59539000D01*
X91938000Y-59499000D02*
X94460000Y-59499000D01*
X96540000Y-59499000D02*
X99062000Y-59499000D01*
X91960000Y-59459000D02*
X94460000Y-59459000D01*
X96540000Y-59459000D02*
X99040000Y-59459000D01*
X91983000Y-59419000D02*
X94460000Y-59419000D01*
X96540000Y-59419000D02*
X99017000Y-59419000D01*
X92007000Y-59379000D02*
X94460000Y-59379000D01*
X96540000Y-59379000D02*
X98993000Y-59379000D01*
X92031000Y-59339000D02*
X94460000Y-59339000D01*
X96540000Y-59339000D02*
X98969000Y-59339000D01*
X92056000Y-59299000D02*
X94460000Y-59299000D01*
X96540000Y-59299000D02*
X98944000Y-59299000D01*
X92082000Y-59259000D02*
X94460000Y-59259000D01*
X96540000Y-59259000D02*
X98918000Y-59259000D01*
X92108000Y-59219000D02*
X94460000Y-59219000D01*
X96540000Y-59219000D02*
X98892000Y-59219000D01*
X92135000Y-59179000D02*
X94460000Y-59179000D01*
X96540000Y-59179000D02*
X98865000Y-59179000D01*
X92162000Y-59139000D02*
X94460000Y-59139000D01*
X96540000Y-59139000D02*
X98838000Y-59139000D01*
X92191000Y-59099000D02*
X94460000Y-59099000D01*
X96540000Y-59099000D02*
X98809000Y-59099000D01*
X92220000Y-59059000D02*
X94460000Y-59059000D01*
X96540000Y-59059000D02*
X98780000Y-59059000D01*
X92250000Y-59019000D02*
X94460000Y-59019000D01*
X96540000Y-59019000D02*
X98750000Y-59019000D01*
X92280000Y-58979000D02*
X94460000Y-58979000D01*
X96540000Y-58979000D02*
X98720000Y-58979000D01*
X92311000Y-58939000D02*
X94460000Y-58939000D01*
X96540000Y-58939000D02*
X98689000Y-58939000D01*
X92344000Y-58899000D02*
X94460000Y-58899000D01*
X96540000Y-58899000D02*
X98656000Y-58899000D01*
X92376000Y-58859000D02*
X94460000Y-58859000D01*
X96540000Y-58859000D02*
X98624000Y-58859000D01*
X92410000Y-58819000D02*
X94460000Y-58819000D01*
X96540000Y-58819000D02*
X98590000Y-58819000D01*
X92445000Y-58779000D02*
X94460000Y-58779000D01*
X96540000Y-58779000D02*
X98555000Y-58779000D01*
X92481000Y-58739000D02*
X94460000Y-58739000D01*
X96540000Y-58739000D02*
X98519000Y-58739000D01*
X92517000Y-58699000D02*
X98483000Y-58699000D01*
X92555000Y-58659000D02*
X98445000Y-58659000D01*
X92593000Y-58619000D02*
X98407000Y-58619000D01*
X92633000Y-58579000D02*
X98367000Y-58579000D01*
X92674000Y-58539000D02*
X98326000Y-58539000D01*
X92716000Y-58499000D02*
X98284000Y-58499000D01*
X92759000Y-58459000D02*
X98241000Y-58459000D01*
X92803000Y-58419000D02*
X98197000Y-58419000D01*
X92849000Y-58379000D02*
X98151000Y-58379000D01*
X92896000Y-58339000D02*
X98104000Y-58339000D01*
X92944000Y-58299000D02*
X98056000Y-58299000D01*
X92995000Y-58259000D02*
X98005000Y-58259000D01*
X93046000Y-58219000D02*
X97954000Y-58219000D01*
X93100000Y-58179000D02*
X97900000Y-58179000D01*
X93155000Y-58139000D02*
X97845000Y-58139000D01*
X93213000Y-58099000D02*
X97787000Y-58099000D01*
X93272000Y-58059000D02*
X97728000Y-58059000D01*
X93334000Y-58019000D02*
X97666000Y-58019000D01*
X93398000Y-57979000D02*
X97602000Y-57979000D01*
X93466000Y-57939000D02*
X97534000Y-57939000D01*
X93536000Y-57899000D02*
X97464000Y-57899000D01*
X93610000Y-57859000D02*
X97390000Y-57859000D01*
X93687000Y-57819000D02*
X97313000Y-57819000D01*
X93769000Y-57779000D02*
X97231000Y-57779000D01*
X93855000Y-57739000D02*
X97145000Y-57739000D01*
X93948000Y-57699000D02*
X97052000Y-57699000D01*
X94047000Y-57659000D02*
X96953000Y-57659000D01*
X94154000Y-57619000D02*
X96846000Y-57619000D01*
X94271000Y-57579000D02*
X96729000Y-57579000D01*
X94402000Y-57539000D02*
X96598000Y-57539000D01*
X94552000Y-57499000D02*
X96448000Y-57499000D01*
X94732000Y-57459000D02*
X96268000Y-57459000D01*
X94967000Y-57419000D02*
X96033000Y-57419000D01*
X93185000Y-65909698D02*
X93185000Y-65109698D01*
X92785000Y-65509698D02*
X93585000Y-65509698D01*
%TO.C,C7*%
X105770000Y-58000000D02*
G75*
G03*
X105770000Y-58000000I-3270000J0D01*
G01*
X99270000Y-58000000D02*
X105730000Y-58000000D01*
X99270000Y-57960000D02*
X105730000Y-57960000D01*
X99270000Y-57920000D02*
X105730000Y-57920000D01*
X99272000Y-57880000D02*
X105728000Y-57880000D01*
X99273000Y-57840000D02*
X105727000Y-57840000D01*
X99276000Y-57800000D02*
X105724000Y-57800000D01*
X99278000Y-57760000D02*
X101460000Y-57760000D01*
X103540000Y-57760000D02*
X105722000Y-57760000D01*
X99282000Y-57720000D02*
X101460000Y-57720000D01*
X103540000Y-57720000D02*
X105718000Y-57720000D01*
X99285000Y-57680000D02*
X101460000Y-57680000D01*
X103540000Y-57680000D02*
X105715000Y-57680000D01*
X99289000Y-57640000D02*
X101460000Y-57640000D01*
X103540000Y-57640000D02*
X105711000Y-57640000D01*
X99294000Y-57600000D02*
X101460000Y-57600000D01*
X103540000Y-57600000D02*
X105706000Y-57600000D01*
X99299000Y-57560000D02*
X101460000Y-57560000D01*
X103540000Y-57560000D02*
X105701000Y-57560000D01*
X99305000Y-57520000D02*
X101460000Y-57520000D01*
X103540000Y-57520000D02*
X105695000Y-57520000D01*
X99311000Y-57480000D02*
X101460000Y-57480000D01*
X103540000Y-57480000D02*
X105689000Y-57480000D01*
X99318000Y-57440000D02*
X101460000Y-57440000D01*
X103540000Y-57440000D02*
X105682000Y-57440000D01*
X99325000Y-57400000D02*
X101460000Y-57400000D01*
X103540000Y-57400000D02*
X105675000Y-57400000D01*
X99333000Y-57360000D02*
X101460000Y-57360000D01*
X103540000Y-57360000D02*
X105667000Y-57360000D01*
X99341000Y-57320000D02*
X101460000Y-57320000D01*
X103540000Y-57320000D02*
X105659000Y-57320000D01*
X99350000Y-57279000D02*
X101460000Y-57279000D01*
X103540000Y-57279000D02*
X105650000Y-57279000D01*
X99359000Y-57239000D02*
X101460000Y-57239000D01*
X103540000Y-57239000D02*
X105641000Y-57239000D01*
X99369000Y-57199000D02*
X101460000Y-57199000D01*
X103540000Y-57199000D02*
X105631000Y-57199000D01*
X99379000Y-57159000D02*
X101460000Y-57159000D01*
X103540000Y-57159000D02*
X105621000Y-57159000D01*
X99390000Y-57119000D02*
X101460000Y-57119000D01*
X103540000Y-57119000D02*
X105610000Y-57119000D01*
X99402000Y-57079000D02*
X101460000Y-57079000D01*
X103540000Y-57079000D02*
X105598000Y-57079000D01*
X99414000Y-57039000D02*
X101460000Y-57039000D01*
X103540000Y-57039000D02*
X105586000Y-57039000D01*
X99426000Y-56999000D02*
X101460000Y-56999000D01*
X103540000Y-56999000D02*
X105574000Y-56999000D01*
X99439000Y-56959000D02*
X101460000Y-56959000D01*
X103540000Y-56959000D02*
X105561000Y-56959000D01*
X99453000Y-56919000D02*
X101460000Y-56919000D01*
X103540000Y-56919000D02*
X105547000Y-56919000D01*
X99467000Y-56879000D02*
X101460000Y-56879000D01*
X103540000Y-56879000D02*
X105533000Y-56879000D01*
X99482000Y-56839000D02*
X101460000Y-56839000D01*
X103540000Y-56839000D02*
X105518000Y-56839000D01*
X99498000Y-56799000D02*
X101460000Y-56799000D01*
X103540000Y-56799000D02*
X105502000Y-56799000D01*
X99514000Y-56759000D02*
X101460000Y-56759000D01*
X103540000Y-56759000D02*
X105486000Y-56759000D01*
X99530000Y-56719000D02*
X101460000Y-56719000D01*
X103540000Y-56719000D02*
X105470000Y-56719000D01*
X99548000Y-56679000D02*
X101460000Y-56679000D01*
X103540000Y-56679000D02*
X105452000Y-56679000D01*
X99566000Y-56639000D02*
X101460000Y-56639000D01*
X103540000Y-56639000D02*
X105434000Y-56639000D01*
X99584000Y-56599000D02*
X101460000Y-56599000D01*
X103540000Y-56599000D02*
X105416000Y-56599000D01*
X99604000Y-56559000D02*
X101460000Y-56559000D01*
X103540000Y-56559000D02*
X105396000Y-56559000D01*
X99624000Y-56519000D02*
X101460000Y-56519000D01*
X103540000Y-56519000D02*
X105376000Y-56519000D01*
X99644000Y-56479000D02*
X101460000Y-56479000D01*
X103540000Y-56479000D02*
X105356000Y-56479000D01*
X99666000Y-56439000D02*
X101460000Y-56439000D01*
X103540000Y-56439000D02*
X105334000Y-56439000D01*
X99688000Y-56399000D02*
X101460000Y-56399000D01*
X103540000Y-56399000D02*
X105312000Y-56399000D01*
X99710000Y-56359000D02*
X101460000Y-56359000D01*
X103540000Y-56359000D02*
X105290000Y-56359000D01*
X99734000Y-56319000D02*
X101460000Y-56319000D01*
X103540000Y-56319000D02*
X105266000Y-56319000D01*
X99758000Y-56279000D02*
X101460000Y-56279000D01*
X103540000Y-56279000D02*
X105242000Y-56279000D01*
X99784000Y-56239000D02*
X101460000Y-56239000D01*
X103540000Y-56239000D02*
X105216000Y-56239000D01*
X99810000Y-56199000D02*
X101460000Y-56199000D01*
X103540000Y-56199000D02*
X105190000Y-56199000D01*
X99836000Y-56159000D02*
X101460000Y-56159000D01*
X103540000Y-56159000D02*
X105164000Y-56159000D01*
X99864000Y-56119000D02*
X101460000Y-56119000D01*
X103540000Y-56119000D02*
X105136000Y-56119000D01*
X99893000Y-56079000D02*
X101460000Y-56079000D01*
X103540000Y-56079000D02*
X105107000Y-56079000D01*
X99922000Y-56039000D02*
X101460000Y-56039000D01*
X103540000Y-56039000D02*
X105078000Y-56039000D01*
X99952000Y-55999000D02*
X101460000Y-55999000D01*
X103540000Y-55999000D02*
X105048000Y-55999000D01*
X99984000Y-55959000D02*
X101460000Y-55959000D01*
X103540000Y-55959000D02*
X105016000Y-55959000D01*
X100016000Y-55919000D02*
X101460000Y-55919000D01*
X103540000Y-55919000D02*
X104984000Y-55919000D01*
X100050000Y-55879000D02*
X101460000Y-55879000D01*
X103540000Y-55879000D02*
X104950000Y-55879000D01*
X100084000Y-55839000D02*
X101460000Y-55839000D01*
X103540000Y-55839000D02*
X104916000Y-55839000D01*
X100120000Y-55799000D02*
X101460000Y-55799000D01*
X103540000Y-55799000D02*
X104880000Y-55799000D01*
X100157000Y-55759000D02*
X101460000Y-55759000D01*
X103540000Y-55759000D02*
X104843000Y-55759000D01*
X100195000Y-55719000D02*
X101460000Y-55719000D01*
X103540000Y-55719000D02*
X104805000Y-55719000D01*
X100235000Y-55679000D02*
X104765000Y-55679000D01*
X100276000Y-55639000D02*
X104724000Y-55639000D01*
X100318000Y-55599000D02*
X104682000Y-55599000D01*
X100363000Y-55559000D02*
X104637000Y-55559000D01*
X100408000Y-55519000D02*
X104592000Y-55519000D01*
X100456000Y-55479000D02*
X104544000Y-55479000D01*
X100505000Y-55439000D02*
X104495000Y-55439000D01*
X100556000Y-55399000D02*
X104444000Y-55399000D01*
X100610000Y-55359000D02*
X104390000Y-55359000D01*
X100666000Y-55319000D02*
X104334000Y-55319000D01*
X100724000Y-55279000D02*
X104276000Y-55279000D01*
X100786000Y-55239000D02*
X104214000Y-55239000D01*
X100850000Y-55199000D02*
X104150000Y-55199000D01*
X100919000Y-55159000D02*
X104081000Y-55159000D01*
X100991000Y-55119000D02*
X104009000Y-55119000D01*
X101068000Y-55079000D02*
X103932000Y-55079000D01*
X101150000Y-55039000D02*
X103850000Y-55039000D01*
X101238000Y-54999000D02*
X103762000Y-54999000D01*
X101335000Y-54959000D02*
X103665000Y-54959000D01*
X101441000Y-54919000D02*
X103559000Y-54919000D01*
X101560000Y-54879000D02*
X103440000Y-54879000D01*
X101698000Y-54839000D02*
X103302000Y-54839000D01*
X101867000Y-54799000D02*
X103133000Y-54799000D01*
X102098000Y-54759000D02*
X102902000Y-54759000D01*
X100661000Y-61500241D02*
X100661000Y-60870241D01*
X100346000Y-61185241D02*
X100976000Y-61185241D01*
%TO.C,C6*%
X105770000Y-65250000D02*
G75*
G03*
X105770000Y-65250000I-3270000J0D01*
G01*
X99270000Y-65250000D02*
X105730000Y-65250000D01*
X99270000Y-65210000D02*
X105730000Y-65210000D01*
X99270000Y-65170000D02*
X105730000Y-65170000D01*
X99272000Y-65130000D02*
X105728000Y-65130000D01*
X99273000Y-65090000D02*
X105727000Y-65090000D01*
X99276000Y-65050000D02*
X105724000Y-65050000D01*
X99278000Y-65010000D02*
X101460000Y-65010000D01*
X103540000Y-65010000D02*
X105722000Y-65010000D01*
X99282000Y-64970000D02*
X101460000Y-64970000D01*
X103540000Y-64970000D02*
X105718000Y-64970000D01*
X99285000Y-64930000D02*
X101460000Y-64930000D01*
X103540000Y-64930000D02*
X105715000Y-64930000D01*
X99289000Y-64890000D02*
X101460000Y-64890000D01*
X103540000Y-64890000D02*
X105711000Y-64890000D01*
X99294000Y-64850000D02*
X101460000Y-64850000D01*
X103540000Y-64850000D02*
X105706000Y-64850000D01*
X99299000Y-64810000D02*
X101460000Y-64810000D01*
X103540000Y-64810000D02*
X105701000Y-64810000D01*
X99305000Y-64770000D02*
X101460000Y-64770000D01*
X103540000Y-64770000D02*
X105695000Y-64770000D01*
X99311000Y-64730000D02*
X101460000Y-64730000D01*
X103540000Y-64730000D02*
X105689000Y-64730000D01*
X99318000Y-64690000D02*
X101460000Y-64690000D01*
X103540000Y-64690000D02*
X105682000Y-64690000D01*
X99325000Y-64650000D02*
X101460000Y-64650000D01*
X103540000Y-64650000D02*
X105675000Y-64650000D01*
X99333000Y-64610000D02*
X101460000Y-64610000D01*
X103540000Y-64610000D02*
X105667000Y-64610000D01*
X99341000Y-64570000D02*
X101460000Y-64570000D01*
X103540000Y-64570000D02*
X105659000Y-64570000D01*
X99350000Y-64529000D02*
X101460000Y-64529000D01*
X103540000Y-64529000D02*
X105650000Y-64529000D01*
X99359000Y-64489000D02*
X101460000Y-64489000D01*
X103540000Y-64489000D02*
X105641000Y-64489000D01*
X99369000Y-64449000D02*
X101460000Y-64449000D01*
X103540000Y-64449000D02*
X105631000Y-64449000D01*
X99379000Y-64409000D02*
X101460000Y-64409000D01*
X103540000Y-64409000D02*
X105621000Y-64409000D01*
X99390000Y-64369000D02*
X101460000Y-64369000D01*
X103540000Y-64369000D02*
X105610000Y-64369000D01*
X99402000Y-64329000D02*
X101460000Y-64329000D01*
X103540000Y-64329000D02*
X105598000Y-64329000D01*
X99414000Y-64289000D02*
X101460000Y-64289000D01*
X103540000Y-64289000D02*
X105586000Y-64289000D01*
X99426000Y-64249000D02*
X101460000Y-64249000D01*
X103540000Y-64249000D02*
X105574000Y-64249000D01*
X99439000Y-64209000D02*
X101460000Y-64209000D01*
X103540000Y-64209000D02*
X105561000Y-64209000D01*
X99453000Y-64169000D02*
X101460000Y-64169000D01*
X103540000Y-64169000D02*
X105547000Y-64169000D01*
X99467000Y-64129000D02*
X101460000Y-64129000D01*
X103540000Y-64129000D02*
X105533000Y-64129000D01*
X99482000Y-64089000D02*
X101460000Y-64089000D01*
X103540000Y-64089000D02*
X105518000Y-64089000D01*
X99498000Y-64049000D02*
X101460000Y-64049000D01*
X103540000Y-64049000D02*
X105502000Y-64049000D01*
X99514000Y-64009000D02*
X101460000Y-64009000D01*
X103540000Y-64009000D02*
X105486000Y-64009000D01*
X99530000Y-63969000D02*
X101460000Y-63969000D01*
X103540000Y-63969000D02*
X105470000Y-63969000D01*
X99548000Y-63929000D02*
X101460000Y-63929000D01*
X103540000Y-63929000D02*
X105452000Y-63929000D01*
X99566000Y-63889000D02*
X101460000Y-63889000D01*
X103540000Y-63889000D02*
X105434000Y-63889000D01*
X99584000Y-63849000D02*
X101460000Y-63849000D01*
X103540000Y-63849000D02*
X105416000Y-63849000D01*
X99604000Y-63809000D02*
X101460000Y-63809000D01*
X103540000Y-63809000D02*
X105396000Y-63809000D01*
X99624000Y-63769000D02*
X101460000Y-63769000D01*
X103540000Y-63769000D02*
X105376000Y-63769000D01*
X99644000Y-63729000D02*
X101460000Y-63729000D01*
X103540000Y-63729000D02*
X105356000Y-63729000D01*
X99666000Y-63689000D02*
X101460000Y-63689000D01*
X103540000Y-63689000D02*
X105334000Y-63689000D01*
X99688000Y-63649000D02*
X101460000Y-63649000D01*
X103540000Y-63649000D02*
X105312000Y-63649000D01*
X99710000Y-63609000D02*
X101460000Y-63609000D01*
X103540000Y-63609000D02*
X105290000Y-63609000D01*
X99734000Y-63569000D02*
X101460000Y-63569000D01*
X103540000Y-63569000D02*
X105266000Y-63569000D01*
X99758000Y-63529000D02*
X101460000Y-63529000D01*
X103540000Y-63529000D02*
X105242000Y-63529000D01*
X99784000Y-63489000D02*
X101460000Y-63489000D01*
X103540000Y-63489000D02*
X105216000Y-63489000D01*
X99810000Y-63449000D02*
X101460000Y-63449000D01*
X103540000Y-63449000D02*
X105190000Y-63449000D01*
X99836000Y-63409000D02*
X101460000Y-63409000D01*
X103540000Y-63409000D02*
X105164000Y-63409000D01*
X99864000Y-63369000D02*
X101460000Y-63369000D01*
X103540000Y-63369000D02*
X105136000Y-63369000D01*
X99893000Y-63329000D02*
X101460000Y-63329000D01*
X103540000Y-63329000D02*
X105107000Y-63329000D01*
X99922000Y-63289000D02*
X101460000Y-63289000D01*
X103540000Y-63289000D02*
X105078000Y-63289000D01*
X99952000Y-63249000D02*
X101460000Y-63249000D01*
X103540000Y-63249000D02*
X105048000Y-63249000D01*
X99984000Y-63209000D02*
X101460000Y-63209000D01*
X103540000Y-63209000D02*
X105016000Y-63209000D01*
X100016000Y-63169000D02*
X101460000Y-63169000D01*
X103540000Y-63169000D02*
X104984000Y-63169000D01*
X100050000Y-63129000D02*
X101460000Y-63129000D01*
X103540000Y-63129000D02*
X104950000Y-63129000D01*
X100084000Y-63089000D02*
X101460000Y-63089000D01*
X103540000Y-63089000D02*
X104916000Y-63089000D01*
X100120000Y-63049000D02*
X101460000Y-63049000D01*
X103540000Y-63049000D02*
X104880000Y-63049000D01*
X100157000Y-63009000D02*
X101460000Y-63009000D01*
X103540000Y-63009000D02*
X104843000Y-63009000D01*
X100195000Y-62969000D02*
X101460000Y-62969000D01*
X103540000Y-62969000D02*
X104805000Y-62969000D01*
X100235000Y-62929000D02*
X104765000Y-62929000D01*
X100276000Y-62889000D02*
X104724000Y-62889000D01*
X100318000Y-62849000D02*
X104682000Y-62849000D01*
X100363000Y-62809000D02*
X104637000Y-62809000D01*
X100408000Y-62769000D02*
X104592000Y-62769000D01*
X100456000Y-62729000D02*
X104544000Y-62729000D01*
X100505000Y-62689000D02*
X104495000Y-62689000D01*
X100556000Y-62649000D02*
X104444000Y-62649000D01*
X100610000Y-62609000D02*
X104390000Y-62609000D01*
X100666000Y-62569000D02*
X104334000Y-62569000D01*
X100724000Y-62529000D02*
X104276000Y-62529000D01*
X100786000Y-62489000D02*
X104214000Y-62489000D01*
X100850000Y-62449000D02*
X104150000Y-62449000D01*
X100919000Y-62409000D02*
X104081000Y-62409000D01*
X100991000Y-62369000D02*
X104009000Y-62369000D01*
X101068000Y-62329000D02*
X103932000Y-62329000D01*
X101150000Y-62289000D02*
X103850000Y-62289000D01*
X101238000Y-62249000D02*
X103762000Y-62249000D01*
X101335000Y-62209000D02*
X103665000Y-62209000D01*
X101441000Y-62169000D02*
X103559000Y-62169000D01*
X101560000Y-62129000D02*
X103440000Y-62129000D01*
X101698000Y-62089000D02*
X103302000Y-62089000D01*
X101867000Y-62049000D02*
X103133000Y-62049000D01*
X102098000Y-62009000D02*
X102902000Y-62009000D01*
X100661000Y-68750241D02*
X100661000Y-68120241D01*
X100346000Y-68435241D02*
X100976000Y-68435241D01*
%TO.C,C3*%
X97620000Y-73000000D02*
G75*
G03*
X97620000Y-73000000I-8120000J0D01*
G01*
X81419000Y-73000000D02*
X97581000Y-73000000D01*
X81420000Y-72960000D02*
X97580000Y-72960000D01*
X81420000Y-72920000D02*
X97580000Y-72920000D01*
X81420000Y-72880000D02*
X97580000Y-72880000D01*
X81421000Y-72840000D02*
X97579000Y-72840000D01*
X81422000Y-72800000D02*
X97578000Y-72800000D01*
X81423000Y-72760000D02*
X97577000Y-72760000D01*
X81424000Y-72720000D02*
X97576000Y-72720000D01*
X81426000Y-72680000D02*
X97574000Y-72680000D01*
X81427000Y-72640000D02*
X97573000Y-72640000D01*
X81429000Y-72600000D02*
X97571000Y-72600000D01*
X81431000Y-72560000D02*
X97569000Y-72560000D01*
X81434000Y-72520000D02*
X97566000Y-72520000D01*
X81436000Y-72480000D02*
X97564000Y-72480000D01*
X81439000Y-72440000D02*
X97561000Y-72440000D01*
X81442000Y-72400000D02*
X97558000Y-72400000D01*
X81445000Y-72360000D02*
X97555000Y-72360000D01*
X81448000Y-72320000D02*
X97552000Y-72320000D01*
X81451000Y-72279000D02*
X97549000Y-72279000D01*
X81455000Y-72239000D02*
X97545000Y-72239000D01*
X81459000Y-72199000D02*
X97541000Y-72199000D01*
X81463000Y-72159000D02*
X97537000Y-72159000D01*
X81467000Y-72119000D02*
X97533000Y-72119000D01*
X81472000Y-72079000D02*
X97528000Y-72079000D01*
X81476000Y-72039000D02*
X97524000Y-72039000D01*
X81481000Y-71999000D02*
X97519000Y-71999000D01*
X81486000Y-71959000D02*
X97514000Y-71959000D01*
X81492000Y-71919000D02*
X97508000Y-71919000D01*
X81497000Y-71879000D02*
X97503000Y-71879000D01*
X81503000Y-71839000D02*
X97497000Y-71839000D01*
X81509000Y-71799000D02*
X97491000Y-71799000D01*
X81515000Y-71759000D02*
X97485000Y-71759000D01*
X81521000Y-71719000D02*
X97479000Y-71719000D01*
X81528000Y-71679000D02*
X97472000Y-71679000D01*
X81534000Y-71639000D02*
X97466000Y-71639000D01*
X81541000Y-71599000D02*
X97459000Y-71599000D01*
X81548000Y-71559000D02*
X97452000Y-71559000D01*
X81556000Y-71519000D02*
X97444000Y-71519000D01*
X81563000Y-71479000D02*
X97437000Y-71479000D01*
X81571000Y-71439000D02*
X97429000Y-71439000D01*
X81579000Y-71399000D02*
X97421000Y-71399000D01*
X81587000Y-71359000D02*
X97413000Y-71359000D01*
X81595000Y-71319000D02*
X97405000Y-71319000D01*
X81604000Y-71279000D02*
X97396000Y-71279000D01*
X81613000Y-71239000D02*
X97387000Y-71239000D01*
X81622000Y-71199000D02*
X97378000Y-71199000D01*
X81631000Y-71159000D02*
X97369000Y-71159000D01*
X81640000Y-71119000D02*
X97360000Y-71119000D01*
X81650000Y-71079000D02*
X97350000Y-71079000D01*
X81660000Y-71039000D02*
X97340000Y-71039000D01*
X81670000Y-70999000D02*
X97330000Y-70999000D01*
X81680000Y-70959000D02*
X97320000Y-70959000D01*
X81690000Y-70919000D02*
X97310000Y-70919000D01*
X81701000Y-70879000D02*
X97299000Y-70879000D01*
X81712000Y-70839000D02*
X97288000Y-70839000D01*
X81723000Y-70799000D02*
X97277000Y-70799000D01*
X81735000Y-70759000D02*
X97265000Y-70759000D01*
X81746000Y-70719000D02*
X97254000Y-70719000D01*
X81758000Y-70679000D02*
X88060000Y-70679000D01*
X90940000Y-70679000D02*
X97242000Y-70679000D01*
X81770000Y-70639000D02*
X88060000Y-70639000D01*
X90940000Y-70639000D02*
X97230000Y-70639000D01*
X81782000Y-70599000D02*
X88060000Y-70599000D01*
X90940000Y-70599000D02*
X97218000Y-70599000D01*
X81795000Y-70559000D02*
X88060000Y-70559000D01*
X90940000Y-70559000D02*
X97205000Y-70559000D01*
X81807000Y-70519000D02*
X88060000Y-70519000D01*
X90940000Y-70519000D02*
X97193000Y-70519000D01*
X81820000Y-70479000D02*
X88060000Y-70479000D01*
X90940000Y-70479000D02*
X97180000Y-70479000D01*
X81834000Y-70439000D02*
X88060000Y-70439000D01*
X90940000Y-70439000D02*
X97166000Y-70439000D01*
X81847000Y-70399000D02*
X88060000Y-70399000D01*
X90940000Y-70399000D02*
X97153000Y-70399000D01*
X81861000Y-70359000D02*
X88060000Y-70359000D01*
X90940000Y-70359000D02*
X97139000Y-70359000D01*
X81875000Y-70319000D02*
X88060000Y-70319000D01*
X90940000Y-70319000D02*
X97125000Y-70319000D01*
X81889000Y-70279000D02*
X88060000Y-70279000D01*
X90940000Y-70279000D02*
X97111000Y-70279000D01*
X81903000Y-70239000D02*
X88060000Y-70239000D01*
X90940000Y-70239000D02*
X97097000Y-70239000D01*
X81918000Y-70199000D02*
X88060000Y-70199000D01*
X90940000Y-70199000D02*
X97082000Y-70199000D01*
X81932000Y-70159000D02*
X88060000Y-70159000D01*
X90940000Y-70159000D02*
X97068000Y-70159000D01*
X81947000Y-70119000D02*
X88060000Y-70119000D01*
X90940000Y-70119000D02*
X97053000Y-70119000D01*
X81963000Y-70079000D02*
X88060000Y-70079000D01*
X90940000Y-70079000D02*
X97037000Y-70079000D01*
X81978000Y-70039000D02*
X88060000Y-70039000D01*
X90940000Y-70039000D02*
X97022000Y-70039000D01*
X81994000Y-69999000D02*
X88060000Y-69999000D01*
X90940000Y-69999000D02*
X97006000Y-69999000D01*
X82010000Y-69959000D02*
X88060000Y-69959000D01*
X90940000Y-69959000D02*
X96990000Y-69959000D01*
X82026000Y-69919000D02*
X88060000Y-69919000D01*
X90940000Y-69919000D02*
X96974000Y-69919000D01*
X82043000Y-69879000D02*
X88060000Y-69879000D01*
X90940000Y-69879000D02*
X96957000Y-69879000D01*
X82060000Y-69839000D02*
X88060000Y-69839000D01*
X90940000Y-69839000D02*
X96940000Y-69839000D01*
X82077000Y-69799000D02*
X88060000Y-69799000D01*
X90940000Y-69799000D02*
X96923000Y-69799000D01*
X82094000Y-69759000D02*
X88060000Y-69759000D01*
X90940000Y-69759000D02*
X96906000Y-69759000D01*
X82111000Y-69719000D02*
X88060000Y-69719000D01*
X90940000Y-69719000D02*
X96889000Y-69719000D01*
X82129000Y-69679000D02*
X88060000Y-69679000D01*
X90940000Y-69679000D02*
X96871000Y-69679000D01*
X82147000Y-69639000D02*
X88060000Y-69639000D01*
X90940000Y-69639000D02*
X96853000Y-69639000D01*
X82166000Y-69599000D02*
X88060000Y-69599000D01*
X90940000Y-69599000D02*
X96834000Y-69599000D01*
X82184000Y-69559000D02*
X88060000Y-69559000D01*
X90940000Y-69559000D02*
X96816000Y-69559000D01*
X82203000Y-69519000D02*
X88060000Y-69519000D01*
X90940000Y-69519000D02*
X96797000Y-69519000D01*
X82222000Y-69479000D02*
X88060000Y-69479000D01*
X90940000Y-69479000D02*
X96778000Y-69479000D01*
X82242000Y-69439000D02*
X88060000Y-69439000D01*
X90940000Y-69439000D02*
X96758000Y-69439000D01*
X82261000Y-69399000D02*
X88060000Y-69399000D01*
X90940000Y-69399000D02*
X96739000Y-69399000D01*
X82281000Y-69359000D02*
X88060000Y-69359000D01*
X90940000Y-69359000D02*
X96719000Y-69359000D01*
X82301000Y-69319000D02*
X88060000Y-69319000D01*
X90940000Y-69319000D02*
X96699000Y-69319000D01*
X82322000Y-69279000D02*
X88060000Y-69279000D01*
X90940000Y-69279000D02*
X96678000Y-69279000D01*
X82343000Y-69239000D02*
X88060000Y-69239000D01*
X90940000Y-69239000D02*
X96657000Y-69239000D01*
X82364000Y-69199000D02*
X88060000Y-69199000D01*
X90940000Y-69199000D02*
X96636000Y-69199000D01*
X82385000Y-69159000D02*
X88060000Y-69159000D01*
X90940000Y-69159000D02*
X96615000Y-69159000D01*
X82406000Y-69119000D02*
X88060000Y-69119000D01*
X90940000Y-69119000D02*
X96594000Y-69119000D01*
X82428000Y-69079000D02*
X88060000Y-69079000D01*
X90940000Y-69079000D02*
X96572000Y-69079000D01*
X82451000Y-69039000D02*
X88060000Y-69039000D01*
X90940000Y-69039000D02*
X96549000Y-69039000D01*
X82473000Y-68999000D02*
X88060000Y-68999000D01*
X90940000Y-68999000D02*
X96527000Y-68999000D01*
X82496000Y-68959000D02*
X88060000Y-68959000D01*
X90940000Y-68959000D02*
X96504000Y-68959000D01*
X82519000Y-68919000D02*
X88060000Y-68919000D01*
X90940000Y-68919000D02*
X96481000Y-68919000D01*
X82542000Y-68879000D02*
X88060000Y-68879000D01*
X90940000Y-68879000D02*
X96458000Y-68879000D01*
X82566000Y-68839000D02*
X88060000Y-68839000D01*
X90940000Y-68839000D02*
X96434000Y-68839000D01*
X82590000Y-68799000D02*
X88060000Y-68799000D01*
X90940000Y-68799000D02*
X96410000Y-68799000D01*
X82614000Y-68759000D02*
X88060000Y-68759000D01*
X90940000Y-68759000D02*
X96386000Y-68759000D01*
X82639000Y-68719000D02*
X88060000Y-68719000D01*
X90940000Y-68719000D02*
X96361000Y-68719000D01*
X82664000Y-68679000D02*
X88060000Y-68679000D01*
X90940000Y-68679000D02*
X96336000Y-68679000D01*
X82689000Y-68639000D02*
X88060000Y-68639000D01*
X90940000Y-68639000D02*
X96311000Y-68639000D01*
X82715000Y-68599000D02*
X88060000Y-68599000D01*
X90940000Y-68599000D02*
X96285000Y-68599000D01*
X82741000Y-68559000D02*
X88060000Y-68559000D01*
X90940000Y-68559000D02*
X96259000Y-68559000D01*
X82767000Y-68519000D02*
X88060000Y-68519000D01*
X90940000Y-68519000D02*
X96233000Y-68519000D01*
X82794000Y-68479000D02*
X88060000Y-68479000D01*
X90940000Y-68479000D02*
X96206000Y-68479000D01*
X82821000Y-68439000D02*
X88060000Y-68439000D01*
X90940000Y-68439000D02*
X96179000Y-68439000D01*
X82848000Y-68399000D02*
X88060000Y-68399000D01*
X90940000Y-68399000D02*
X96152000Y-68399000D01*
X82876000Y-68359000D02*
X88060000Y-68359000D01*
X90940000Y-68359000D02*
X96124000Y-68359000D01*
X82904000Y-68319000D02*
X88060000Y-68319000D01*
X90940000Y-68319000D02*
X96096000Y-68319000D01*
X82932000Y-68279000D02*
X88060000Y-68279000D01*
X90940000Y-68279000D02*
X96068000Y-68279000D01*
X82961000Y-68239000D02*
X88060000Y-68239000D01*
X90940000Y-68239000D02*
X96039000Y-68239000D01*
X82990000Y-68199000D02*
X88060000Y-68199000D01*
X90940000Y-68199000D02*
X96010000Y-68199000D01*
X83020000Y-68159000D02*
X88060000Y-68159000D01*
X90940000Y-68159000D02*
X95980000Y-68159000D01*
X83050000Y-68119000D02*
X88060000Y-68119000D01*
X90940000Y-68119000D02*
X95950000Y-68119000D01*
X83080000Y-68079000D02*
X88060000Y-68079000D01*
X90940000Y-68079000D02*
X95920000Y-68079000D01*
X83110000Y-68039000D02*
X88060000Y-68039000D01*
X90940000Y-68039000D02*
X95890000Y-68039000D01*
X83142000Y-67999000D02*
X88060000Y-67999000D01*
X90940000Y-67999000D02*
X95858000Y-67999000D01*
X83173000Y-67959000D02*
X88060000Y-67959000D01*
X90940000Y-67959000D02*
X95827000Y-67959000D01*
X83205000Y-67919000D02*
X88060000Y-67919000D01*
X90940000Y-67919000D02*
X95795000Y-67919000D01*
X83237000Y-67879000D02*
X88060000Y-67879000D01*
X90940000Y-67879000D02*
X95763000Y-67879000D01*
X83270000Y-67839000D02*
X88060000Y-67839000D01*
X90940000Y-67839000D02*
X95730000Y-67839000D01*
X83303000Y-67799000D02*
X95697000Y-67799000D01*
X83337000Y-67759000D02*
X95663000Y-67759000D01*
X83371000Y-67719000D02*
X95629000Y-67719000D01*
X83405000Y-67679000D02*
X95595000Y-67679000D01*
X83440000Y-67639000D02*
X95560000Y-67639000D01*
X83475000Y-67599000D02*
X95525000Y-67599000D01*
X83511000Y-67559000D02*
X95489000Y-67559000D01*
X83548000Y-67519000D02*
X95452000Y-67519000D01*
X83584000Y-67479000D02*
X95416000Y-67479000D01*
X83622000Y-67439000D02*
X95378000Y-67439000D01*
X83660000Y-67399000D02*
X95340000Y-67399000D01*
X83698000Y-67359000D02*
X95302000Y-67359000D01*
X83737000Y-67319000D02*
X95263000Y-67319000D01*
X83776000Y-67279000D02*
X95224000Y-67279000D01*
X83816000Y-67239000D02*
X95184000Y-67239000D01*
X83857000Y-67199000D02*
X95143000Y-67199000D01*
X83898000Y-67159000D02*
X95102000Y-67159000D01*
X83940000Y-67119000D02*
X95060000Y-67119000D01*
X83982000Y-67079000D02*
X95018000Y-67079000D01*
X84025000Y-67039000D02*
X94975000Y-67039000D01*
X84068000Y-66999000D02*
X94932000Y-66999000D01*
X84112000Y-66959000D02*
X94888000Y-66959000D01*
X84157000Y-66919000D02*
X94843000Y-66919000D01*
X84203000Y-66879000D02*
X94797000Y-66879000D01*
X84249000Y-66839000D02*
X94751000Y-66839000D01*
X84296000Y-66799000D02*
X94704000Y-66799000D01*
X84344000Y-66759000D02*
X94656000Y-66759000D01*
X84392000Y-66719000D02*
X94608000Y-66719000D01*
X84441000Y-66679000D02*
X94559000Y-66679000D01*
X84491000Y-66639000D02*
X94509000Y-66639000D01*
X84542000Y-66599000D02*
X94458000Y-66599000D01*
X84594000Y-66559000D02*
X94406000Y-66559000D01*
X84646000Y-66519000D02*
X94354000Y-66519000D01*
X84700000Y-66479000D02*
X94300000Y-66479000D01*
X84754000Y-66439000D02*
X94246000Y-66439000D01*
X84809000Y-66399000D02*
X94191000Y-66399000D01*
X84866000Y-66359000D02*
X94134000Y-66359000D01*
X84923000Y-66319000D02*
X94077000Y-66319000D01*
X84981000Y-66279000D02*
X94019000Y-66279000D01*
X85041000Y-66239000D02*
X93959000Y-66239000D01*
X85102000Y-66199000D02*
X93898000Y-66199000D01*
X85164000Y-66159000D02*
X93836000Y-66159000D01*
X85227000Y-66119000D02*
X93773000Y-66119000D01*
X85291000Y-66079000D02*
X93709000Y-66079000D01*
X85357000Y-66039000D02*
X93643000Y-66039000D01*
X85424000Y-65999000D02*
X93576000Y-65999000D01*
X85493000Y-65959000D02*
X93507000Y-65959000D01*
X85564000Y-65919000D02*
X93436000Y-65919000D01*
X85636000Y-65879000D02*
X93364000Y-65879000D01*
X85710000Y-65839000D02*
X93290000Y-65839000D01*
X85785000Y-65799000D02*
X93215000Y-65799000D01*
X85863000Y-65759000D02*
X93137000Y-65759000D01*
X85943000Y-65719000D02*
X93057000Y-65719000D01*
X86025000Y-65679000D02*
X92975000Y-65679000D01*
X86110000Y-65639000D02*
X92890000Y-65639000D01*
X86197000Y-65599000D02*
X92803000Y-65599000D01*
X86287000Y-65559000D02*
X92713000Y-65559000D01*
X86380000Y-65519000D02*
X92620000Y-65519000D01*
X86476000Y-65479000D02*
X92524000Y-65479000D01*
X86576000Y-65439000D02*
X92424000Y-65439000D01*
X86680000Y-65399000D02*
X92320000Y-65399000D01*
X86789000Y-65359000D02*
X92211000Y-65359000D01*
X86903000Y-65319000D02*
X92097000Y-65319000D01*
X87022000Y-65279000D02*
X91978000Y-65279000D01*
X87149000Y-65239000D02*
X91851000Y-65239000D01*
X87282000Y-65199000D02*
X91718000Y-65199000D01*
X87426000Y-65159000D02*
X91574000Y-65159000D01*
X87580000Y-65119000D02*
X91420000Y-65119000D01*
X87748000Y-65079000D02*
X91252000Y-65079000D01*
X87936000Y-65039000D02*
X91064000Y-65039000D01*
X88149000Y-64999000D02*
X90851000Y-64999000D01*
X88402000Y-64959000D02*
X90598000Y-64959000D01*
X88735000Y-64919000D02*
X90265000Y-64919000D01*
X84945000Y-81689491D02*
X84945000Y-80089491D01*
X84145000Y-80889491D02*
X85745000Y-80889491D01*
%TO.C,C2*%
X97620000Y-90000000D02*
G75*
G03*
X97620000Y-90000000I-8120000J0D01*
G01*
X81419000Y-90000000D02*
X97581000Y-90000000D01*
X81420000Y-89960000D02*
X97580000Y-89960000D01*
X81420000Y-89920000D02*
X97580000Y-89920000D01*
X81420000Y-89880000D02*
X97580000Y-89880000D01*
X81421000Y-89840000D02*
X97579000Y-89840000D01*
X81422000Y-89800000D02*
X97578000Y-89800000D01*
X81423000Y-89760000D02*
X97577000Y-89760000D01*
X81424000Y-89720000D02*
X97576000Y-89720000D01*
X81426000Y-89680000D02*
X97574000Y-89680000D01*
X81427000Y-89640000D02*
X97573000Y-89640000D01*
X81429000Y-89600000D02*
X97571000Y-89600000D01*
X81431000Y-89560000D02*
X97569000Y-89560000D01*
X81434000Y-89520000D02*
X97566000Y-89520000D01*
X81436000Y-89480000D02*
X97564000Y-89480000D01*
X81439000Y-89440000D02*
X97561000Y-89440000D01*
X81442000Y-89400000D02*
X97558000Y-89400000D01*
X81445000Y-89360000D02*
X97555000Y-89360000D01*
X81448000Y-89320000D02*
X97552000Y-89320000D01*
X81451000Y-89279000D02*
X97549000Y-89279000D01*
X81455000Y-89239000D02*
X97545000Y-89239000D01*
X81459000Y-89199000D02*
X97541000Y-89199000D01*
X81463000Y-89159000D02*
X97537000Y-89159000D01*
X81467000Y-89119000D02*
X97533000Y-89119000D01*
X81472000Y-89079000D02*
X97528000Y-89079000D01*
X81476000Y-89039000D02*
X97524000Y-89039000D01*
X81481000Y-88999000D02*
X97519000Y-88999000D01*
X81486000Y-88959000D02*
X97514000Y-88959000D01*
X81492000Y-88919000D02*
X97508000Y-88919000D01*
X81497000Y-88879000D02*
X97503000Y-88879000D01*
X81503000Y-88839000D02*
X97497000Y-88839000D01*
X81509000Y-88799000D02*
X97491000Y-88799000D01*
X81515000Y-88759000D02*
X97485000Y-88759000D01*
X81521000Y-88719000D02*
X97479000Y-88719000D01*
X81528000Y-88679000D02*
X97472000Y-88679000D01*
X81534000Y-88639000D02*
X97466000Y-88639000D01*
X81541000Y-88599000D02*
X97459000Y-88599000D01*
X81548000Y-88559000D02*
X97452000Y-88559000D01*
X81556000Y-88519000D02*
X97444000Y-88519000D01*
X81563000Y-88479000D02*
X97437000Y-88479000D01*
X81571000Y-88439000D02*
X97429000Y-88439000D01*
X81579000Y-88399000D02*
X97421000Y-88399000D01*
X81587000Y-88359000D02*
X97413000Y-88359000D01*
X81595000Y-88319000D02*
X97405000Y-88319000D01*
X81604000Y-88279000D02*
X97396000Y-88279000D01*
X81613000Y-88239000D02*
X97387000Y-88239000D01*
X81622000Y-88199000D02*
X97378000Y-88199000D01*
X81631000Y-88159000D02*
X97369000Y-88159000D01*
X81640000Y-88119000D02*
X97360000Y-88119000D01*
X81650000Y-88079000D02*
X97350000Y-88079000D01*
X81660000Y-88039000D02*
X97340000Y-88039000D01*
X81670000Y-87999000D02*
X97330000Y-87999000D01*
X81680000Y-87959000D02*
X97320000Y-87959000D01*
X81690000Y-87919000D02*
X97310000Y-87919000D01*
X81701000Y-87879000D02*
X97299000Y-87879000D01*
X81712000Y-87839000D02*
X97288000Y-87839000D01*
X81723000Y-87799000D02*
X97277000Y-87799000D01*
X81735000Y-87759000D02*
X97265000Y-87759000D01*
X81746000Y-87719000D02*
X97254000Y-87719000D01*
X81758000Y-87679000D02*
X88060000Y-87679000D01*
X90940000Y-87679000D02*
X97242000Y-87679000D01*
X81770000Y-87639000D02*
X88060000Y-87639000D01*
X90940000Y-87639000D02*
X97230000Y-87639000D01*
X81782000Y-87599000D02*
X88060000Y-87599000D01*
X90940000Y-87599000D02*
X97218000Y-87599000D01*
X81795000Y-87559000D02*
X88060000Y-87559000D01*
X90940000Y-87559000D02*
X97205000Y-87559000D01*
X81807000Y-87519000D02*
X88060000Y-87519000D01*
X90940000Y-87519000D02*
X97193000Y-87519000D01*
X81820000Y-87479000D02*
X88060000Y-87479000D01*
X90940000Y-87479000D02*
X97180000Y-87479000D01*
X81834000Y-87439000D02*
X88060000Y-87439000D01*
X90940000Y-87439000D02*
X97166000Y-87439000D01*
X81847000Y-87399000D02*
X88060000Y-87399000D01*
X90940000Y-87399000D02*
X97153000Y-87399000D01*
X81861000Y-87359000D02*
X88060000Y-87359000D01*
X90940000Y-87359000D02*
X97139000Y-87359000D01*
X81875000Y-87319000D02*
X88060000Y-87319000D01*
X90940000Y-87319000D02*
X97125000Y-87319000D01*
X81889000Y-87279000D02*
X88060000Y-87279000D01*
X90940000Y-87279000D02*
X97111000Y-87279000D01*
X81903000Y-87239000D02*
X88060000Y-87239000D01*
X90940000Y-87239000D02*
X97097000Y-87239000D01*
X81918000Y-87199000D02*
X88060000Y-87199000D01*
X90940000Y-87199000D02*
X97082000Y-87199000D01*
X81932000Y-87159000D02*
X88060000Y-87159000D01*
X90940000Y-87159000D02*
X97068000Y-87159000D01*
X81947000Y-87119000D02*
X88060000Y-87119000D01*
X90940000Y-87119000D02*
X97053000Y-87119000D01*
X81963000Y-87079000D02*
X88060000Y-87079000D01*
X90940000Y-87079000D02*
X97037000Y-87079000D01*
X81978000Y-87039000D02*
X88060000Y-87039000D01*
X90940000Y-87039000D02*
X97022000Y-87039000D01*
X81994000Y-86999000D02*
X88060000Y-86999000D01*
X90940000Y-86999000D02*
X97006000Y-86999000D01*
X82010000Y-86959000D02*
X88060000Y-86959000D01*
X90940000Y-86959000D02*
X96990000Y-86959000D01*
X82026000Y-86919000D02*
X88060000Y-86919000D01*
X90940000Y-86919000D02*
X96974000Y-86919000D01*
X82043000Y-86879000D02*
X88060000Y-86879000D01*
X90940000Y-86879000D02*
X96957000Y-86879000D01*
X82060000Y-86839000D02*
X88060000Y-86839000D01*
X90940000Y-86839000D02*
X96940000Y-86839000D01*
X82077000Y-86799000D02*
X88060000Y-86799000D01*
X90940000Y-86799000D02*
X96923000Y-86799000D01*
X82094000Y-86759000D02*
X88060000Y-86759000D01*
X90940000Y-86759000D02*
X96906000Y-86759000D01*
X82111000Y-86719000D02*
X88060000Y-86719000D01*
X90940000Y-86719000D02*
X96889000Y-86719000D01*
X82129000Y-86679000D02*
X88060000Y-86679000D01*
X90940000Y-86679000D02*
X96871000Y-86679000D01*
X82147000Y-86639000D02*
X88060000Y-86639000D01*
X90940000Y-86639000D02*
X96853000Y-86639000D01*
X82166000Y-86599000D02*
X88060000Y-86599000D01*
X90940000Y-86599000D02*
X96834000Y-86599000D01*
X82184000Y-86559000D02*
X88060000Y-86559000D01*
X90940000Y-86559000D02*
X96816000Y-86559000D01*
X82203000Y-86519000D02*
X88060000Y-86519000D01*
X90940000Y-86519000D02*
X96797000Y-86519000D01*
X82222000Y-86479000D02*
X88060000Y-86479000D01*
X90940000Y-86479000D02*
X96778000Y-86479000D01*
X82242000Y-86439000D02*
X88060000Y-86439000D01*
X90940000Y-86439000D02*
X96758000Y-86439000D01*
X82261000Y-86399000D02*
X88060000Y-86399000D01*
X90940000Y-86399000D02*
X96739000Y-86399000D01*
X82281000Y-86359000D02*
X88060000Y-86359000D01*
X90940000Y-86359000D02*
X96719000Y-86359000D01*
X82301000Y-86319000D02*
X88060000Y-86319000D01*
X90940000Y-86319000D02*
X96699000Y-86319000D01*
X82322000Y-86279000D02*
X88060000Y-86279000D01*
X90940000Y-86279000D02*
X96678000Y-86279000D01*
X82343000Y-86239000D02*
X88060000Y-86239000D01*
X90940000Y-86239000D02*
X96657000Y-86239000D01*
X82364000Y-86199000D02*
X88060000Y-86199000D01*
X90940000Y-86199000D02*
X96636000Y-86199000D01*
X82385000Y-86159000D02*
X88060000Y-86159000D01*
X90940000Y-86159000D02*
X96615000Y-86159000D01*
X82406000Y-86119000D02*
X88060000Y-86119000D01*
X90940000Y-86119000D02*
X96594000Y-86119000D01*
X82428000Y-86079000D02*
X88060000Y-86079000D01*
X90940000Y-86079000D02*
X96572000Y-86079000D01*
X82451000Y-86039000D02*
X88060000Y-86039000D01*
X90940000Y-86039000D02*
X96549000Y-86039000D01*
X82473000Y-85999000D02*
X88060000Y-85999000D01*
X90940000Y-85999000D02*
X96527000Y-85999000D01*
X82496000Y-85959000D02*
X88060000Y-85959000D01*
X90940000Y-85959000D02*
X96504000Y-85959000D01*
X82519000Y-85919000D02*
X88060000Y-85919000D01*
X90940000Y-85919000D02*
X96481000Y-85919000D01*
X82542000Y-85879000D02*
X88060000Y-85879000D01*
X90940000Y-85879000D02*
X96458000Y-85879000D01*
X82566000Y-85839000D02*
X88060000Y-85839000D01*
X90940000Y-85839000D02*
X96434000Y-85839000D01*
X82590000Y-85799000D02*
X88060000Y-85799000D01*
X90940000Y-85799000D02*
X96410000Y-85799000D01*
X82614000Y-85759000D02*
X88060000Y-85759000D01*
X90940000Y-85759000D02*
X96386000Y-85759000D01*
X82639000Y-85719000D02*
X88060000Y-85719000D01*
X90940000Y-85719000D02*
X96361000Y-85719000D01*
X82664000Y-85679000D02*
X88060000Y-85679000D01*
X90940000Y-85679000D02*
X96336000Y-85679000D01*
X82689000Y-85639000D02*
X88060000Y-85639000D01*
X90940000Y-85639000D02*
X96311000Y-85639000D01*
X82715000Y-85599000D02*
X88060000Y-85599000D01*
X90940000Y-85599000D02*
X96285000Y-85599000D01*
X82741000Y-85559000D02*
X88060000Y-85559000D01*
X90940000Y-85559000D02*
X96259000Y-85559000D01*
X82767000Y-85519000D02*
X88060000Y-85519000D01*
X90940000Y-85519000D02*
X96233000Y-85519000D01*
X82794000Y-85479000D02*
X88060000Y-85479000D01*
X90940000Y-85479000D02*
X96206000Y-85479000D01*
X82821000Y-85439000D02*
X88060000Y-85439000D01*
X90940000Y-85439000D02*
X96179000Y-85439000D01*
X82848000Y-85399000D02*
X88060000Y-85399000D01*
X90940000Y-85399000D02*
X96152000Y-85399000D01*
X82876000Y-85359000D02*
X88060000Y-85359000D01*
X90940000Y-85359000D02*
X96124000Y-85359000D01*
X82904000Y-85319000D02*
X88060000Y-85319000D01*
X90940000Y-85319000D02*
X96096000Y-85319000D01*
X82932000Y-85279000D02*
X88060000Y-85279000D01*
X90940000Y-85279000D02*
X96068000Y-85279000D01*
X82961000Y-85239000D02*
X88060000Y-85239000D01*
X90940000Y-85239000D02*
X96039000Y-85239000D01*
X82990000Y-85199000D02*
X88060000Y-85199000D01*
X90940000Y-85199000D02*
X96010000Y-85199000D01*
X83020000Y-85159000D02*
X88060000Y-85159000D01*
X90940000Y-85159000D02*
X95980000Y-85159000D01*
X83050000Y-85119000D02*
X88060000Y-85119000D01*
X90940000Y-85119000D02*
X95950000Y-85119000D01*
X83080000Y-85079000D02*
X88060000Y-85079000D01*
X90940000Y-85079000D02*
X95920000Y-85079000D01*
X83110000Y-85039000D02*
X88060000Y-85039000D01*
X90940000Y-85039000D02*
X95890000Y-85039000D01*
X83142000Y-84999000D02*
X88060000Y-84999000D01*
X90940000Y-84999000D02*
X95858000Y-84999000D01*
X83173000Y-84959000D02*
X88060000Y-84959000D01*
X90940000Y-84959000D02*
X95827000Y-84959000D01*
X83205000Y-84919000D02*
X88060000Y-84919000D01*
X90940000Y-84919000D02*
X95795000Y-84919000D01*
X83237000Y-84879000D02*
X88060000Y-84879000D01*
X90940000Y-84879000D02*
X95763000Y-84879000D01*
X83270000Y-84839000D02*
X88060000Y-84839000D01*
X90940000Y-84839000D02*
X95730000Y-84839000D01*
X83303000Y-84799000D02*
X95697000Y-84799000D01*
X83337000Y-84759000D02*
X95663000Y-84759000D01*
X83371000Y-84719000D02*
X95629000Y-84719000D01*
X83405000Y-84679000D02*
X95595000Y-84679000D01*
X83440000Y-84639000D02*
X95560000Y-84639000D01*
X83475000Y-84599000D02*
X95525000Y-84599000D01*
X83511000Y-84559000D02*
X95489000Y-84559000D01*
X83548000Y-84519000D02*
X95452000Y-84519000D01*
X83584000Y-84479000D02*
X95416000Y-84479000D01*
X83622000Y-84439000D02*
X95378000Y-84439000D01*
X83660000Y-84399000D02*
X95340000Y-84399000D01*
X83698000Y-84359000D02*
X95302000Y-84359000D01*
X83737000Y-84319000D02*
X95263000Y-84319000D01*
X83776000Y-84279000D02*
X95224000Y-84279000D01*
X83816000Y-84239000D02*
X95184000Y-84239000D01*
X83857000Y-84199000D02*
X95143000Y-84199000D01*
X83898000Y-84159000D02*
X95102000Y-84159000D01*
X83940000Y-84119000D02*
X95060000Y-84119000D01*
X83982000Y-84079000D02*
X95018000Y-84079000D01*
X84025000Y-84039000D02*
X94975000Y-84039000D01*
X84068000Y-83999000D02*
X94932000Y-83999000D01*
X84112000Y-83959000D02*
X94888000Y-83959000D01*
X84157000Y-83919000D02*
X94843000Y-83919000D01*
X84203000Y-83879000D02*
X94797000Y-83879000D01*
X84249000Y-83839000D02*
X94751000Y-83839000D01*
X84296000Y-83799000D02*
X94704000Y-83799000D01*
X84344000Y-83759000D02*
X94656000Y-83759000D01*
X84392000Y-83719000D02*
X94608000Y-83719000D01*
X84441000Y-83679000D02*
X94559000Y-83679000D01*
X84491000Y-83639000D02*
X94509000Y-83639000D01*
X84542000Y-83599000D02*
X94458000Y-83599000D01*
X84594000Y-83559000D02*
X94406000Y-83559000D01*
X84646000Y-83519000D02*
X94354000Y-83519000D01*
X84700000Y-83479000D02*
X94300000Y-83479000D01*
X84754000Y-83439000D02*
X94246000Y-83439000D01*
X84809000Y-83399000D02*
X94191000Y-83399000D01*
X84866000Y-83359000D02*
X94134000Y-83359000D01*
X84923000Y-83319000D02*
X94077000Y-83319000D01*
X84981000Y-83279000D02*
X94019000Y-83279000D01*
X85041000Y-83239000D02*
X93959000Y-83239000D01*
X85102000Y-83199000D02*
X93898000Y-83199000D01*
X85164000Y-83159000D02*
X93836000Y-83159000D01*
X85227000Y-83119000D02*
X93773000Y-83119000D01*
X85291000Y-83079000D02*
X93709000Y-83079000D01*
X85357000Y-83039000D02*
X93643000Y-83039000D01*
X85424000Y-82999000D02*
X93576000Y-82999000D01*
X85493000Y-82959000D02*
X93507000Y-82959000D01*
X85564000Y-82919000D02*
X93436000Y-82919000D01*
X85636000Y-82879000D02*
X93364000Y-82879000D01*
X85710000Y-82839000D02*
X93290000Y-82839000D01*
X85785000Y-82799000D02*
X93215000Y-82799000D01*
X85863000Y-82759000D02*
X93137000Y-82759000D01*
X85943000Y-82719000D02*
X93057000Y-82719000D01*
X86025000Y-82679000D02*
X92975000Y-82679000D01*
X86110000Y-82639000D02*
X92890000Y-82639000D01*
X86197000Y-82599000D02*
X92803000Y-82599000D01*
X86287000Y-82559000D02*
X92713000Y-82559000D01*
X86380000Y-82519000D02*
X92620000Y-82519000D01*
X86476000Y-82479000D02*
X92524000Y-82479000D01*
X86576000Y-82439000D02*
X92424000Y-82439000D01*
X86680000Y-82399000D02*
X92320000Y-82399000D01*
X86789000Y-82359000D02*
X92211000Y-82359000D01*
X86903000Y-82319000D02*
X92097000Y-82319000D01*
X87022000Y-82279000D02*
X91978000Y-82279000D01*
X87149000Y-82239000D02*
X91851000Y-82239000D01*
X87282000Y-82199000D02*
X91718000Y-82199000D01*
X87426000Y-82159000D02*
X91574000Y-82159000D01*
X87580000Y-82119000D02*
X91420000Y-82119000D01*
X87748000Y-82079000D02*
X91252000Y-82079000D01*
X87936000Y-82039000D02*
X91064000Y-82039000D01*
X88149000Y-81999000D02*
X90851000Y-81999000D01*
X88402000Y-81959000D02*
X90598000Y-81959000D01*
X88735000Y-81919000D02*
X90265000Y-81919000D01*
X84945000Y-98689491D02*
X84945000Y-97089491D01*
X84145000Y-97889491D02*
X85745000Y-97889491D01*
%TO.C,U1*%
X128750000Y-57791000D02*
X128750000Y-61185000D01*
X125350000Y-57791000D02*
X125350000Y-61185000D01*
X121950000Y-57791000D02*
X121950000Y-61185000D01*
X118550000Y-57791000D02*
X118550000Y-61185000D01*
X115150000Y-57791000D02*
X115150000Y-61185000D01*
X111750000Y-57791000D02*
X111750000Y-61200000D01*
X122100000Y-52550000D02*
X122100000Y-54390000D01*
X118400000Y-52550000D02*
X118400000Y-54390000D01*
X110030000Y-54390000D02*
X130470000Y-54390000D01*
X130470000Y-52550000D02*
X130470000Y-57791000D01*
X110030000Y-52550000D02*
X110030000Y-57791000D01*
X127975000Y-57791000D02*
X130470000Y-57791000D01*
X124575000Y-57791000D02*
X126126000Y-57791000D01*
X121175000Y-57791000D02*
X122726000Y-57791000D01*
X117775000Y-57791000D02*
X119326000Y-57791000D01*
X114375000Y-57791000D02*
X115926000Y-57791000D01*
X110030000Y-57791000D02*
X112526000Y-57791000D01*
X110030000Y-52550000D02*
X130470000Y-52550000D01*
%TO.C,R9*%
D10*
X117702380Y-84166666D02*
X117226190Y-84500000D01*
X117702380Y-84738095D02*
X116702380Y-84738095D01*
X116702380Y-84357142D01*
X116750000Y-84261904D01*
X116797619Y-84214285D01*
X116892857Y-84166666D01*
X117035714Y-84166666D01*
X117130952Y-84214285D01*
X117178571Y-84261904D01*
X117226190Y-84357142D01*
X117226190Y-84738095D01*
X117702380Y-83690476D02*
X117702380Y-83500000D01*
X117654761Y-83404761D01*
X117607142Y-83357142D01*
X117464285Y-83261904D01*
X117273809Y-83214285D01*
X116892857Y-83214285D01*
X116797619Y-83261904D01*
X116750000Y-83309523D01*
X116702380Y-83404761D01*
X116702380Y-83595238D01*
X116750000Y-83690476D01*
X116797619Y-83738095D01*
X116892857Y-83785714D01*
X117130952Y-83785714D01*
X117226190Y-83738095D01*
X117273809Y-83690476D01*
X117321428Y-83595238D01*
X117321428Y-83404761D01*
X117273809Y-83309523D01*
X117226190Y-83261904D01*
X117130952Y-83214285D01*
%TO.C,R8*%
X102083333Y-77202380D02*
X101750000Y-76726190D01*
X101511904Y-77202380D02*
X101511904Y-76202380D01*
X101892857Y-76202380D01*
X101988095Y-76250000D01*
X102035714Y-76297619D01*
X102083333Y-76392857D01*
X102083333Y-76535714D01*
X102035714Y-76630952D01*
X101988095Y-76678571D01*
X101892857Y-76726190D01*
X101511904Y-76726190D01*
X102654761Y-76630952D02*
X102559523Y-76583333D01*
X102511904Y-76535714D01*
X102464285Y-76440476D01*
X102464285Y-76392857D01*
X102511904Y-76297619D01*
X102559523Y-76250000D01*
X102654761Y-76202380D01*
X102845238Y-76202380D01*
X102940476Y-76250000D01*
X102988095Y-76297619D01*
X103035714Y-76392857D01*
X103035714Y-76440476D01*
X102988095Y-76535714D01*
X102940476Y-76583333D01*
X102845238Y-76630952D01*
X102654761Y-76630952D01*
X102559523Y-76678571D01*
X102511904Y-76726190D01*
X102464285Y-76821428D01*
X102464285Y-77011904D01*
X102511904Y-77107142D01*
X102559523Y-77154761D01*
X102654761Y-77202380D01*
X102845238Y-77202380D01*
X102940476Y-77154761D01*
X102988095Y-77107142D01*
X103035714Y-77011904D01*
X103035714Y-76821428D01*
X102988095Y-76726190D01*
X102940476Y-76678571D01*
X102845238Y-76630952D01*
%TO.C,C1*%
X132857142Y-62916666D02*
X132904761Y-62964285D01*
X132952380Y-63107142D01*
X132952380Y-63202380D01*
X132904761Y-63345238D01*
X132809523Y-63440476D01*
X132714285Y-63488095D01*
X132523809Y-63535714D01*
X132380952Y-63535714D01*
X132190476Y-63488095D01*
X132095238Y-63440476D01*
X132000000Y-63345238D01*
X131952380Y-63202380D01*
X131952380Y-63107142D01*
X132000000Y-62964285D01*
X132047619Y-62916666D01*
X132952380Y-61964285D02*
X132952380Y-62535714D01*
X132952380Y-62250000D02*
X131952380Y-62250000D01*
X132095238Y-62345238D01*
X132190476Y-62440476D01*
X132238095Y-62535714D01*
%TO.C,R7*%
X90833333Y-57702380D02*
X90500000Y-57226190D01*
X90261904Y-57702380D02*
X90261904Y-56702380D01*
X90642857Y-56702380D01*
X90738095Y-56750000D01*
X90785714Y-56797619D01*
X90833333Y-56892857D01*
X90833333Y-57035714D01*
X90785714Y-57130952D01*
X90738095Y-57178571D01*
X90642857Y-57226190D01*
X90261904Y-57226190D01*
X91166666Y-56702380D02*
X91833333Y-56702380D01*
X91404761Y-57702380D01*
%TO.C,R6*%
X119202380Y-81416666D02*
X118726190Y-81750000D01*
X119202380Y-81988095D02*
X118202380Y-81988095D01*
X118202380Y-81607142D01*
X118250000Y-81511904D01*
X118297619Y-81464285D01*
X118392857Y-81416666D01*
X118535714Y-81416666D01*
X118630952Y-81464285D01*
X118678571Y-81511904D01*
X118726190Y-81607142D01*
X118726190Y-81988095D01*
X118202380Y-80559523D02*
X118202380Y-80750000D01*
X118250000Y-80845238D01*
X118297619Y-80892857D01*
X118440476Y-80988095D01*
X118630952Y-81035714D01*
X119011904Y-81035714D01*
X119107142Y-80988095D01*
X119154761Y-80940476D01*
X119202380Y-80845238D01*
X119202380Y-80654761D01*
X119154761Y-80559523D01*
X119107142Y-80511904D01*
X119011904Y-80464285D01*
X118773809Y-80464285D01*
X118678571Y-80511904D01*
X118630952Y-80559523D01*
X118583333Y-80654761D01*
X118583333Y-80845238D01*
X118630952Y-80940476D01*
X118678571Y-80988095D01*
X118773809Y-81035714D01*
%TO.C,R5*%
X122452380Y-81416666D02*
X121976190Y-81750000D01*
X122452380Y-81988095D02*
X121452380Y-81988095D01*
X121452380Y-81607142D01*
X121500000Y-81511904D01*
X121547619Y-81464285D01*
X121642857Y-81416666D01*
X121785714Y-81416666D01*
X121880952Y-81464285D01*
X121928571Y-81511904D01*
X121976190Y-81607142D01*
X121976190Y-81988095D01*
X121452380Y-80511904D02*
X121452380Y-80988095D01*
X121928571Y-81035714D01*
X121880952Y-80988095D01*
X121833333Y-80892857D01*
X121833333Y-80654761D01*
X121880952Y-80559523D01*
X121928571Y-80511904D01*
X122023809Y-80464285D01*
X122261904Y-80464285D01*
X122357142Y-80511904D01*
X122404761Y-80559523D01*
X122452380Y-80654761D01*
X122452380Y-80892857D01*
X122404761Y-80988095D01*
X122357142Y-81035714D01*
%TO.C,R4*%
X132202380Y-81416666D02*
X131726190Y-81750000D01*
X132202380Y-81988095D02*
X131202380Y-81988095D01*
X131202380Y-81607142D01*
X131250000Y-81511904D01*
X131297619Y-81464285D01*
X131392857Y-81416666D01*
X131535714Y-81416666D01*
X131630952Y-81464285D01*
X131678571Y-81511904D01*
X131726190Y-81607142D01*
X131726190Y-81988095D01*
X131535714Y-80559523D02*
X132202380Y-80559523D01*
X131154761Y-80797619D02*
X131869047Y-81035714D01*
X131869047Y-80416666D01*
%TO.C,R3*%
X135452380Y-81416666D02*
X134976190Y-81750000D01*
X135452380Y-81988095D02*
X134452380Y-81988095D01*
X134452380Y-81607142D01*
X134500000Y-81511904D01*
X134547619Y-81464285D01*
X134642857Y-81416666D01*
X134785714Y-81416666D01*
X134880952Y-81464285D01*
X134928571Y-81511904D01*
X134976190Y-81607142D01*
X134976190Y-81988095D01*
X134452380Y-81083333D02*
X134452380Y-80464285D01*
X134833333Y-80797619D01*
X134833333Y-80654761D01*
X134880952Y-80559523D01*
X134928571Y-80511904D01*
X135023809Y-80464285D01*
X135261904Y-80464285D01*
X135357142Y-80511904D01*
X135404761Y-80559523D01*
X135452380Y-80654761D01*
X135452380Y-80940476D01*
X135404761Y-81035714D01*
X135357142Y-81083333D01*
%TO.C,R2*%
X125702380Y-81416666D02*
X125226190Y-81750000D01*
X125702380Y-81988095D02*
X124702380Y-81988095D01*
X124702380Y-81607142D01*
X124750000Y-81511904D01*
X124797619Y-81464285D01*
X124892857Y-81416666D01*
X125035714Y-81416666D01*
X125130952Y-81464285D01*
X125178571Y-81511904D01*
X125226190Y-81607142D01*
X125226190Y-81988095D01*
X124797619Y-81035714D02*
X124750000Y-80988095D01*
X124702380Y-80892857D01*
X124702380Y-80654761D01*
X124750000Y-80559523D01*
X124797619Y-80511904D01*
X124892857Y-80464285D01*
X124988095Y-80464285D01*
X125130952Y-80511904D01*
X125702380Y-81083333D01*
X125702380Y-80464285D01*
%TO.C,R1*%
X128702380Y-81416666D02*
X128226190Y-81750000D01*
X128702380Y-81988095D02*
X127702380Y-81988095D01*
X127702380Y-81607142D01*
X127750000Y-81511904D01*
X127797619Y-81464285D01*
X127892857Y-81416666D01*
X128035714Y-81416666D01*
X128130952Y-81464285D01*
X128178571Y-81511904D01*
X128226190Y-81607142D01*
X128226190Y-81988095D01*
X128702380Y-80464285D02*
X128702380Y-81035714D01*
X128702380Y-80750000D02*
X127702380Y-80750000D01*
X127845238Y-80845238D01*
X127940476Y-80940476D01*
X127988095Y-81035714D01*
%TO.C,C11*%
X113357142Y-67892857D02*
X113404761Y-67940476D01*
X113452380Y-68083333D01*
X113452380Y-68178571D01*
X113404761Y-68321428D01*
X113309523Y-68416666D01*
X113214285Y-68464285D01*
X113023809Y-68511904D01*
X112880952Y-68511904D01*
X112690476Y-68464285D01*
X112595238Y-68416666D01*
X112500000Y-68321428D01*
X112452380Y-68178571D01*
X112452380Y-68083333D01*
X112500000Y-67940476D01*
X112547619Y-67892857D01*
X113452380Y-66940476D02*
X113452380Y-67511904D01*
X113452380Y-67226190D02*
X112452380Y-67226190D01*
X112595238Y-67321428D01*
X112690476Y-67416666D01*
X112738095Y-67511904D01*
X113452380Y-65988095D02*
X113452380Y-66559523D01*
X113452380Y-66273809D02*
X112452380Y-66273809D01*
X112595238Y-66369047D01*
X112690476Y-66464285D01*
X112738095Y-66559523D01*
%TO.C,C9*%
X108357142Y-55166666D02*
X108404761Y-55214285D01*
X108452380Y-55357142D01*
X108452380Y-55452380D01*
X108404761Y-55595238D01*
X108309523Y-55690476D01*
X108214285Y-55738095D01*
X108023809Y-55785714D01*
X107880952Y-55785714D01*
X107690476Y-55738095D01*
X107595238Y-55690476D01*
X107500000Y-55595238D01*
X107452380Y-55452380D01*
X107452380Y-55357142D01*
X107500000Y-55214285D01*
X107547619Y-55166666D01*
X108452380Y-54690476D02*
X108452380Y-54500000D01*
X108404761Y-54404761D01*
X108357142Y-54357142D01*
X108214285Y-54261904D01*
X108023809Y-54214285D01*
X107642857Y-54214285D01*
X107547619Y-54261904D01*
X107500000Y-54309523D01*
X107452380Y-54404761D01*
X107452380Y-54595238D01*
X107500000Y-54690476D01*
X107547619Y-54738095D01*
X107642857Y-54785714D01*
X107880952Y-54785714D01*
X107976190Y-54738095D01*
X108023809Y-54690476D01*
X108071428Y-54595238D01*
X108071428Y-54404761D01*
X108023809Y-54309523D01*
X107976190Y-54261904D01*
X107880952Y-54214285D01*
%TO.C,C8*%
X108357142Y-67666666D02*
X108404761Y-67714285D01*
X108452380Y-67857142D01*
X108452380Y-67952380D01*
X108404761Y-68095238D01*
X108309523Y-68190476D01*
X108214285Y-68238095D01*
X108023809Y-68285714D01*
X107880952Y-68285714D01*
X107690476Y-68238095D01*
X107595238Y-68190476D01*
X107500000Y-68095238D01*
X107452380Y-67952380D01*
X107452380Y-67857142D01*
X107500000Y-67714285D01*
X107547619Y-67666666D01*
X107880952Y-67095238D02*
X107833333Y-67190476D01*
X107785714Y-67238095D01*
X107690476Y-67285714D01*
X107642857Y-67285714D01*
X107547619Y-67238095D01*
X107500000Y-67190476D01*
X107452380Y-67095238D01*
X107452380Y-66904761D01*
X107500000Y-66809523D01*
X107547619Y-66761904D01*
X107642857Y-66714285D01*
X107690476Y-66714285D01*
X107785714Y-66761904D01*
X107833333Y-66809523D01*
X107880952Y-66904761D01*
X107880952Y-67095238D01*
X107928571Y-67190476D01*
X107976190Y-67238095D01*
X108071428Y-67285714D01*
X108261904Y-67285714D01*
X108357142Y-67238095D01*
X108404761Y-67190476D01*
X108452380Y-67095238D01*
X108452380Y-66904761D01*
X108404761Y-66809523D01*
X108357142Y-66761904D01*
X108261904Y-66714285D01*
X108071428Y-66714285D01*
X107976190Y-66761904D01*
X107928571Y-66809523D01*
X107880952Y-66904761D01*
%TO.C,C5*%
X124083333Y-66107142D02*
X124035714Y-66154761D01*
X123892857Y-66202380D01*
X123797619Y-66202380D01*
X123654761Y-66154761D01*
X123559523Y-66059523D01*
X123511904Y-65964285D01*
X123464285Y-65773809D01*
X123464285Y-65630952D01*
X123511904Y-65440476D01*
X123559523Y-65345238D01*
X123654761Y-65250000D01*
X123797619Y-65202380D01*
X123892857Y-65202380D01*
X124035714Y-65250000D01*
X124083333Y-65297619D01*
X124988095Y-65202380D02*
X124511904Y-65202380D01*
X124464285Y-65678571D01*
X124511904Y-65630952D01*
X124607142Y-65583333D01*
X124845238Y-65583333D01*
X124940476Y-65630952D01*
X124988095Y-65678571D01*
X125035714Y-65773809D01*
X125035714Y-66011904D01*
X124988095Y-66107142D01*
X124940476Y-66154761D01*
X124845238Y-66202380D01*
X124607142Y-66202380D01*
X124511904Y-66154761D01*
X124464285Y-66107142D01*
%TO.C,C4*%
X129833333Y-66107142D02*
X129785714Y-66154761D01*
X129642857Y-66202380D01*
X129547619Y-66202380D01*
X129404761Y-66154761D01*
X129309523Y-66059523D01*
X129261904Y-65964285D01*
X129214285Y-65773809D01*
X129214285Y-65630952D01*
X129261904Y-65440476D01*
X129309523Y-65345238D01*
X129404761Y-65250000D01*
X129547619Y-65202380D01*
X129642857Y-65202380D01*
X129785714Y-65250000D01*
X129833333Y-65297619D01*
X130690476Y-65535714D02*
X130690476Y-66202380D01*
X130452380Y-65154761D02*
X130214285Y-65869047D01*
X130833333Y-65869047D01*
%TO.C,L1*%
X98583333Y-82702380D02*
X98107142Y-82702380D01*
X98107142Y-81702380D01*
X99440476Y-82702380D02*
X98869047Y-82702380D01*
X99154761Y-82702380D02*
X99154761Y-81702380D01*
X99059523Y-81845238D01*
X98964285Y-81940476D01*
X98869047Y-81988095D01*
%TO.C,C13*%
X118357142Y-94392857D02*
X118404761Y-94440476D01*
X118452380Y-94583333D01*
X118452380Y-94678571D01*
X118404761Y-94821428D01*
X118309523Y-94916666D01*
X118214285Y-94964285D01*
X118023809Y-95011904D01*
X117880952Y-95011904D01*
X117690476Y-94964285D01*
X117595238Y-94916666D01*
X117500000Y-94821428D01*
X117452380Y-94678571D01*
X117452380Y-94583333D01*
X117500000Y-94440476D01*
X117547619Y-94392857D01*
X118452380Y-93440476D02*
X118452380Y-94011904D01*
X118452380Y-93726190D02*
X117452380Y-93726190D01*
X117595238Y-93821428D01*
X117690476Y-93916666D01*
X117738095Y-94011904D01*
X117452380Y-93107142D02*
X117452380Y-92488095D01*
X117833333Y-92821428D01*
X117833333Y-92678571D01*
X117880952Y-92583333D01*
X117928571Y-92535714D01*
X118023809Y-92488095D01*
X118261904Y-92488095D01*
X118357142Y-92535714D01*
X118404761Y-92583333D01*
X118452380Y-92678571D01*
X118452380Y-92964285D01*
X118404761Y-93059523D01*
X118357142Y-93107142D01*
%TO.C,C12*%
X128857142Y-94142857D02*
X128904761Y-94190476D01*
X128952380Y-94333333D01*
X128952380Y-94428571D01*
X128904761Y-94571428D01*
X128809523Y-94666666D01*
X128714285Y-94714285D01*
X128523809Y-94761904D01*
X128380952Y-94761904D01*
X128190476Y-94714285D01*
X128095238Y-94666666D01*
X128000000Y-94571428D01*
X127952380Y-94428571D01*
X127952380Y-94333333D01*
X128000000Y-94190476D01*
X128047619Y-94142857D01*
X128952380Y-93190476D02*
X128952380Y-93761904D01*
X128952380Y-93476190D02*
X127952380Y-93476190D01*
X128095238Y-93571428D01*
X128190476Y-93666666D01*
X128238095Y-93761904D01*
X128047619Y-92809523D02*
X128000000Y-92761904D01*
X127952380Y-92666666D01*
X127952380Y-92428571D01*
X128000000Y-92333333D01*
X128047619Y-92285714D01*
X128142857Y-92238095D01*
X128238095Y-92238095D01*
X128380952Y-92285714D01*
X128952380Y-92857142D01*
X128952380Y-92238095D01*
%TO.C,C10*%
X90857142Y-62142857D02*
X90904761Y-62190476D01*
X90952380Y-62333333D01*
X90952380Y-62428571D01*
X90904761Y-62571428D01*
X90809523Y-62666666D01*
X90714285Y-62714285D01*
X90523809Y-62761904D01*
X90380952Y-62761904D01*
X90190476Y-62714285D01*
X90095238Y-62666666D01*
X90000000Y-62571428D01*
X89952380Y-62428571D01*
X89952380Y-62333333D01*
X90000000Y-62190476D01*
X90047619Y-62142857D01*
X90952380Y-61190476D02*
X90952380Y-61761904D01*
X90952380Y-61476190D02*
X89952380Y-61476190D01*
X90095238Y-61571428D01*
X90190476Y-61666666D01*
X90238095Y-61761904D01*
X89952380Y-60571428D02*
X89952380Y-60476190D01*
X90000000Y-60380952D01*
X90047619Y-60333333D01*
X90142857Y-60285714D01*
X90333333Y-60238095D01*
X90571428Y-60238095D01*
X90761904Y-60285714D01*
X90857142Y-60333333D01*
X90904761Y-60380952D01*
X90952380Y-60476190D01*
X90952380Y-60571428D01*
X90904761Y-60666666D01*
X90857142Y-60714285D01*
X90761904Y-60761904D01*
X90571428Y-60809523D01*
X90333333Y-60809523D01*
X90142857Y-60761904D01*
X90047619Y-60714285D01*
X90000000Y-60666666D01*
X89952380Y-60571428D01*
%TO.C,C7*%
X105607142Y-54666666D02*
X105654761Y-54714285D01*
X105702380Y-54857142D01*
X105702380Y-54952380D01*
X105654761Y-55095238D01*
X105559523Y-55190476D01*
X105464285Y-55238095D01*
X105273809Y-55285714D01*
X105130952Y-55285714D01*
X104940476Y-55238095D01*
X104845238Y-55190476D01*
X104750000Y-55095238D01*
X104702380Y-54952380D01*
X104702380Y-54857142D01*
X104750000Y-54714285D01*
X104797619Y-54666666D01*
X104702380Y-54333333D02*
X104702380Y-53666666D01*
X105702380Y-54095238D01*
%TO.C,C6*%
X105607142Y-61916666D02*
X105654761Y-61964285D01*
X105702380Y-62107142D01*
X105702380Y-62202380D01*
X105654761Y-62345238D01*
X105559523Y-62440476D01*
X105464285Y-62488095D01*
X105273809Y-62535714D01*
X105130952Y-62535714D01*
X104940476Y-62488095D01*
X104845238Y-62440476D01*
X104750000Y-62345238D01*
X104702380Y-62202380D01*
X104702380Y-62107142D01*
X104750000Y-61964285D01*
X104797619Y-61916666D01*
X104702380Y-61059523D02*
X104702380Y-61250000D01*
X104750000Y-61345238D01*
X104797619Y-61392857D01*
X104940476Y-61488095D01*
X105130952Y-61535714D01*
X105511904Y-61535714D01*
X105607142Y-61488095D01*
X105654761Y-61440476D01*
X105702380Y-61345238D01*
X105702380Y-61154761D01*
X105654761Y-61059523D01*
X105607142Y-61011904D01*
X105511904Y-60964285D01*
X105273809Y-60964285D01*
X105178571Y-61011904D01*
X105130952Y-61059523D01*
X105083333Y-61154761D01*
X105083333Y-61345238D01*
X105130952Y-61440476D01*
X105178571Y-61488095D01*
X105273809Y-61535714D01*
%TO.C,C3*%
X82237142Y-67264666D02*
X82284761Y-67312285D01*
X82332380Y-67455142D01*
X82332380Y-67550380D01*
X82284761Y-67693238D01*
X82189523Y-67788476D01*
X82094285Y-67836095D01*
X81903809Y-67883714D01*
X81760952Y-67883714D01*
X81570476Y-67836095D01*
X81475238Y-67788476D01*
X81380000Y-67693238D01*
X81332380Y-67550380D01*
X81332380Y-67455142D01*
X81380000Y-67312285D01*
X81427619Y-67264666D01*
X81332380Y-66931333D02*
X81332380Y-66312285D01*
X81713333Y-66645619D01*
X81713333Y-66502761D01*
X81760952Y-66407523D01*
X81808571Y-66359904D01*
X81903809Y-66312285D01*
X82141904Y-66312285D01*
X82237142Y-66359904D01*
X82284761Y-66407523D01*
X82332380Y-66502761D01*
X82332380Y-66788476D01*
X82284761Y-66883714D01*
X82237142Y-66931333D01*
%TO.C,C2*%
X82237142Y-84264666D02*
X82284761Y-84312285D01*
X82332380Y-84455142D01*
X82332380Y-84550380D01*
X82284761Y-84693238D01*
X82189523Y-84788476D01*
X82094285Y-84836095D01*
X81903809Y-84883714D01*
X81760952Y-84883714D01*
X81570476Y-84836095D01*
X81475238Y-84788476D01*
X81380000Y-84693238D01*
X81332380Y-84550380D01*
X81332380Y-84455142D01*
X81380000Y-84312285D01*
X81427619Y-84264666D01*
X81427619Y-83883714D02*
X81380000Y-83836095D01*
X81332380Y-83740857D01*
X81332380Y-83502761D01*
X81380000Y-83407523D01*
X81427619Y-83359904D01*
X81522857Y-83312285D01*
X81618095Y-83312285D01*
X81760952Y-83359904D01*
X82332380Y-83931333D01*
X82332380Y-83312285D01*
%TO.C,U1*%
X131562095Y-53320380D02*
X131562095Y-54129904D01*
X131609714Y-54225142D01*
X131657333Y-54272761D01*
X131752571Y-54320380D01*
X131943047Y-54320380D01*
X132038285Y-54272761D01*
X132085904Y-54225142D01*
X132133523Y-54129904D01*
X132133523Y-53320380D01*
X133133523Y-54320380D02*
X132562095Y-54320380D01*
X132847809Y-54320380D02*
X132847809Y-53320380D01*
X132752571Y-53463238D01*
X132657333Y-53558476D01*
X132562095Y-53606095D01*
%TD*%
M02*
