%TF.GenerationSoftware,KiCad,Pcbnew,(5.1.6-0)*%
%TF.CreationDate,2023-05-05T14:03:50-07:00*%
%TF.ProjectId,LM3886-bal-tht,4c4d3338-3836-42d6-9261-6c2d7468742e,rev?*%
%TF.SameCoordinates,Original*%
%TF.FileFunction,Copper,L2,Bot*%
%TF.FilePolarity,Positive*%
%FSLAX46Y46*%
G04 Gerber Fmt 4.6, Leading zero omitted, Abs format (unit mm)*
G04 Created by KiCad (PCBNEW (5.1.6-0)) date 2023-05-05 14:03:50*
%MOMM*%
%LPD*%
G01*
G04 APERTURE LIST*
%TA.AperFunction,ComponentPad*%
%ADD10C,1.600000*%
%TD*%
%TA.AperFunction,ComponentPad*%
%ADD11O,2.800000X2.800000*%
%TD*%
%TA.AperFunction,ComponentPad*%
%ADD12C,2.800000*%
%TD*%
%TA.AperFunction,ComponentPad*%
%ADD13C,1.400000*%
%TD*%
%TA.AperFunction,ComponentPad*%
%ADD14O,1.600000X1.600000*%
%TD*%
%TA.AperFunction,ComponentPad*%
%ADD15C,2.500000*%
%TD*%
%TA.AperFunction,ComponentPad*%
%ADD16C,2.600000*%
%TD*%
%TA.AperFunction,ComponentPad*%
%ADD17C,2.000000*%
%TD*%
%TA.AperFunction,ComponentPad*%
%ADD18C,0.800000*%
%TD*%
%TA.AperFunction,ComponentPad*%
%ADD19C,7.000000*%
%TD*%
%TA.AperFunction,ComponentPad*%
%ADD20R,1.600000X1.600000*%
%TD*%
%TA.AperFunction,ComponentPad*%
%ADD21C,2.400000*%
%TD*%
%TA.AperFunction,ComponentPad*%
%ADD22R,2.400000X2.400000*%
%TD*%
%TA.AperFunction,ComponentPad*%
%ADD23O,1.800000X1.800000*%
%TD*%
%TA.AperFunction,ComponentPad*%
%ADD24R,1.800000X1.800000*%
%TD*%
%TA.AperFunction,ViaPad*%
%ADD25C,0.700000*%
%TD*%
%TA.AperFunction,Conductor*%
%ADD26C,0.300000*%
%TD*%
G04 APERTURE END LIST*
D10*
%TO.P,C11,2*%
%TO.N,Net-(C11-Pad2)*%
X115750000Y-68750000D03*
%TO.P,C11,1*%
%TO.N,/SIGOUT*%
X110750000Y-68750000D03*
%TD*%
D11*
%TO.P,R9,2*%
%TO.N,/SIGOUT*%
X113500000Y-78510000D03*
D12*
%TO.P,R9,1*%
%TO.N,/SPK+*%
X113500000Y-93750000D03*
%TD*%
D11*
%TO.P,R8,2*%
%TO.N,GND*%
X99910000Y-73500000D03*
D12*
%TO.P,R8,1*%
%TO.N,Net-(C11-Pad2)*%
X115150000Y-73500000D03*
%TD*%
D13*
%TO.P,C1,2*%
%TO.N,/ICIN+*%
X132250000Y-56500000D03*
%TO.P,C1,1*%
%TO.N,/ICIN-*%
X132250000Y-59000000D03*
%TD*%
D14*
%TO.P,R7,2*%
%TO.N,/MUTE*%
X98080000Y-55000000D03*
D10*
%TO.P,R7,1*%
%TO.N,VEE*%
X87920000Y-55000000D03*
%TD*%
D14*
%TO.P,R6,2*%
%TO.N,Net-(C5-Pad1)*%
X118750000Y-68670000D03*
D10*
%TO.P,R6,1*%
%TO.N,/SIGOUT*%
X118750000Y-78830000D03*
%TD*%
D14*
%TO.P,R5,2*%
%TO.N,/ICIN-*%
X122000000Y-68670000D03*
D10*
%TO.P,R5,1*%
%TO.N,/SIGOUT*%
X122000000Y-78830000D03*
%TD*%
D14*
%TO.P,R4,2*%
%TO.N,/ICIN+*%
X131750000Y-68670000D03*
D10*
%TO.P,R4,1*%
%TO.N,GND*%
X131750000Y-78830000D03*
%TD*%
D14*
%TO.P,R3,2*%
%TO.N,Net-(C4-Pad2)*%
X135000000Y-68670000D03*
D10*
%TO.P,R3,1*%
%TO.N,GND*%
X135000000Y-78830000D03*
%TD*%
D14*
%TO.P,R2,2*%
%TO.N,/IN-*%
X125250000Y-78830000D03*
D10*
%TO.P,R2,1*%
%TO.N,/ICIN-*%
X125250000Y-68670000D03*
%TD*%
D14*
%TO.P,R1,2*%
%TO.N,/IN+*%
X128500000Y-78830000D03*
D10*
%TO.P,R1,1*%
%TO.N,/ICIN+*%
X128500000Y-68670000D03*
%TD*%
D13*
%TO.P,C9,2*%
%TO.N,VEE*%
X108000000Y-57250000D03*
%TO.P,C9,1*%
%TO.N,GND*%
X108000000Y-59750000D03*
%TD*%
%TO.P,C8,2*%
%TO.N,GND*%
X108000000Y-63000000D03*
%TO.P,C8,1*%
%TO.N,VCC*%
X108000000Y-65500000D03*
%TD*%
%TO.P,C5,2*%
%TO.N,/ICIN-*%
X122000000Y-65750000D03*
%TO.P,C5,1*%
%TO.N,Net-(C5-Pad1)*%
X119500000Y-65750000D03*
%TD*%
%TO.P,C4,2*%
%TO.N,Net-(C4-Pad2)*%
X135000000Y-65750000D03*
%TO.P,C4,1*%
%TO.N,/ICIN+*%
X132500000Y-65750000D03*
%TD*%
D12*
%TO.P,J8,1*%
%TO.N,GND*%
X118000000Y-102210000D03*
X118000000Y-107290000D03*
%TD*%
%TO.P,J7,1*%
%TO.N,/SPK+*%
X108500000Y-102210000D03*
X108500000Y-107290000D03*
%TD*%
%TO.P,J6,1*%
%TO.N,VCC*%
X103000000Y-102210000D03*
X103000000Y-107290000D03*
%TD*%
%TO.P,J5,1*%
%TO.N,GND*%
X95000000Y-102210000D03*
X95000000Y-107290000D03*
%TD*%
%TO.P,J4,1*%
%TO.N,VEE*%
X88000000Y-102210000D03*
X88000000Y-107290000D03*
%TD*%
D15*
%TO.P,L1,2*%
%TO.N,/SPK+*%
X100940000Y-92600000D03*
%TO.P,L1,1*%
%TO.N,/SIGOUT*%
X108560000Y-79900000D03*
%TD*%
D16*
%TO.P,J3,3*%
%TO.N,VCC*%
X100500000Y-104750000D03*
%TO.P,J3,2*%
%TO.N,GND*%
X95500000Y-104750000D03*
%TO.P,J3,1*%
%TO.N,VEE*%
X90500000Y-104750000D03*
%TD*%
%TO.P,J2,2*%
%TO.N,GND*%
X115750000Y-104750000D03*
%TO.P,J2,1*%
%TO.N,/SPK+*%
X110750000Y-104750000D03*
%TD*%
D17*
%TO.P,J1,3*%
%TO.N,GND*%
X131250000Y-104750000D03*
%TO.P,J1,2*%
%TO.N,Net-(C12-Pad1)*%
X127750000Y-104750000D03*
%TO.P,J1,1*%
%TO.N,Net-(C13-Pad1)*%
X124250000Y-104750000D03*
%TD*%
D18*
%TO.P,H4,1*%
%TO.N,N/C*%
X140606155Y-104393845D03*
X138750000Y-103625000D03*
X136893845Y-104393845D03*
X136125000Y-106250000D03*
X136893845Y-108106155D03*
X138750000Y-108875000D03*
X140606155Y-108106155D03*
X141375000Y-106250000D03*
D19*
X138750000Y-106250000D03*
%TD*%
D18*
%TO.P,H3,1*%
%TO.N,N/C*%
X140606155Y-57143845D03*
X138750000Y-56375000D03*
X136893845Y-57143845D03*
X136125000Y-59000000D03*
X136893845Y-60856155D03*
X138750000Y-61625000D03*
X140606155Y-60856155D03*
X141375000Y-59000000D03*
D19*
X138750000Y-59000000D03*
%TD*%
D18*
%TO.P,H2,1*%
%TO.N,N/C*%
X83106155Y-104393845D03*
X81250000Y-103625000D03*
X79393845Y-104393845D03*
X78625000Y-106250000D03*
X79393845Y-108106155D03*
X81250000Y-108875000D03*
X83106155Y-108106155D03*
X83875000Y-106250000D03*
D19*
X81250000Y-106250000D03*
%TD*%
D18*
%TO.P,H1,1*%
%TO.N,N/C*%
X83106155Y-57143845D03*
X81250000Y-56375000D03*
X79393845Y-57143845D03*
X78625000Y-59000000D03*
X79393845Y-60856155D03*
X81250000Y-61625000D03*
X83106155Y-60856155D03*
X83875000Y-59000000D03*
D19*
X81250000Y-59000000D03*
%TD*%
D10*
%TO.P,C13,2*%
%TO.N,/IN-*%
X122500000Y-86250000D03*
%TO.P,C13,1*%
%TO.N,Net-(C13-Pad1)*%
X122500000Y-91250000D03*
%TD*%
%TO.P,C12,2*%
%TO.N,/IN+*%
X133250000Y-86250000D03*
%TO.P,C12,1*%
%TO.N,Net-(C12-Pad1)*%
X133250000Y-91250000D03*
%TD*%
%TO.P,C10,2*%
%TO.N,/MUTE*%
X95500000Y-59750000D03*
D20*
%TO.P,C10,1*%
%TO.N,GND*%
X95500000Y-63250000D03*
%TD*%
D10*
%TO.P,C7,2*%
%TO.N,VEE*%
X102500000Y-56750000D03*
D20*
%TO.P,C7,1*%
%TO.N,GND*%
X102500000Y-59250000D03*
%TD*%
D10*
%TO.P,C6,2*%
%TO.N,GND*%
X102500000Y-64000000D03*
D20*
%TO.P,C6,1*%
%TO.N,VCC*%
X102500000Y-66500000D03*
%TD*%
D21*
%TO.P,C3,2*%
%TO.N,VEE*%
X89500000Y-69250000D03*
D22*
%TO.P,C3,1*%
%TO.N,GND*%
X89500000Y-76750000D03*
%TD*%
D21*
%TO.P,C2,2*%
%TO.N,GND*%
X89500000Y-86250000D03*
D22*
%TO.P,C2,1*%
%TO.N,VCC*%
X89500000Y-93750000D03*
%TD*%
D23*
%TO.P,U1,11*%
%TO.N,N/C*%
X128750000Y-61500000D03*
%TO.P,U1,10*%
%TO.N,/ICIN+*%
X127050000Y-56420000D03*
%TO.P,U1,9*%
%TO.N,/ICIN-*%
X125350000Y-61500000D03*
%TO.P,U1,8*%
%TO.N,/MUTE*%
X123650000Y-56420000D03*
%TO.P,U1,7*%
%TO.N,GND*%
X121950000Y-61500000D03*
%TO.P,U1,6*%
%TO.N,N/C*%
X120250000Y-56420000D03*
%TO.P,U1,5*%
%TO.N,VCC*%
X118550000Y-61500000D03*
%TO.P,U1,4*%
%TO.N,VEE*%
X116850000Y-56420000D03*
%TO.P,U1,3*%
%TO.N,/SIGOUT*%
X115150000Y-61500000D03*
%TO.P,U1,2*%
%TO.N,N/C*%
X113450000Y-56420000D03*
D24*
%TO.P,U1,1*%
%TO.N,VCC*%
X111750000Y-61500000D03*
%TD*%
D25*
%TO.N,GND*%
X79198810Y-100792500D03*
X88198810Y-79792500D03*
X88198810Y-83792500D03*
X90198810Y-73792500D03*
X90198810Y-81792500D03*
X102198810Y-88500000D03*
X104198810Y-86792500D03*
X106198810Y-82792500D03*
X106198810Y-88500000D03*
X107198810Y-85792500D03*
X109198810Y-87792500D03*
X110198810Y-84792500D03*
X112198810Y-86792500D03*
X114198810Y-84792500D03*
X114198810Y-88500000D03*
X114198810Y-98792500D03*
X114198810Y-107792500D03*
X115198810Y-101792500D03*
X116500000Y-81000000D03*
X116198810Y-86792500D03*
X116198810Y-96792500D03*
X117198810Y-70792500D03*
X117198810Y-75792500D03*
X117198810Y-89792500D03*
X117198810Y-93792500D03*
X118198810Y-83792500D03*
X118198810Y-98000000D03*
X118198810Y-104792500D03*
X119198810Y-72792500D03*
X119198810Y-87792500D03*
X119198810Y-91792500D03*
X119198810Y-95792500D03*
X120198810Y-76792500D03*
X120198810Y-80792500D03*
X121198810Y-59792500D03*
X121198810Y-70792500D03*
X121198810Y-93792500D03*
X121198810Y-97792500D03*
X121198810Y-101792500D03*
X121198810Y-105792500D03*
X122750000Y-53792500D03*
X122198810Y-73792500D03*
X122198810Y-82792500D03*
X122198810Y-88792500D03*
X122198810Y-108792500D03*
X123198810Y-95792500D03*
X123250000Y-99250000D03*
X124198810Y-65792500D03*
X124198810Y-71792500D03*
X124198810Y-75792500D03*
X124198810Y-80792500D03*
X124198810Y-106792500D03*
X125198810Y-54792500D03*
X125198810Y-59792500D03*
X126198810Y-73792500D03*
X126198810Y-108792500D03*
X127198810Y-64792500D03*
X127198810Y-70792500D03*
X127198810Y-76792500D03*
X127198810Y-88792500D03*
X128198810Y-53792500D03*
X129198810Y-72792500D03*
X129198810Y-98792500D03*
X129198810Y-102792500D03*
X129198810Y-106792500D03*
X130198810Y-65792500D03*
X130198810Y-75792500D03*
X130198810Y-80792500D03*
X130198810Y-87792500D03*
X131198810Y-54792500D03*
X131198810Y-62792500D03*
X131198810Y-70792500D03*
X131198810Y-83792500D03*
X131198810Y-92792500D03*
X131198810Y-96792500D03*
X131198810Y-101500000D03*
X131198810Y-108792500D03*
X132198810Y-73792500D03*
X133198810Y-76792500D03*
X133198810Y-81792500D03*
X133198810Y-88792500D03*
X133198810Y-94792500D03*
X133198810Y-98792500D03*
X133198810Y-102792500D03*
X133198810Y-106792500D03*
X134198810Y-63792500D03*
X134198810Y-71792500D03*
X135198810Y-74792500D03*
X135198810Y-83792500D03*
X135198810Y-90792500D03*
X135198810Y-96792500D03*
X135198810Y-100792500D03*
X136198810Y-80792500D03*
X136198810Y-86792500D03*
X136198810Y-93792500D03*
X137198810Y-64792500D03*
X137198810Y-68792500D03*
X137198810Y-72792500D03*
X137198810Y-76792500D03*
X137198810Y-98792500D03*
X138198810Y-82792500D03*
X138198810Y-88792500D03*
X138198810Y-95792500D03*
X139198810Y-66792500D03*
X139198810Y-70792500D03*
X139198810Y-74792500D03*
X139198810Y-78792500D03*
X139198810Y-85792500D03*
X139198810Y-91792500D03*
X139198810Y-100792500D03*
X140198810Y-97792500D03*
X141198810Y-64792500D03*
X141198810Y-68792500D03*
X141198810Y-72792500D03*
X141198810Y-76792500D03*
X141198810Y-80792500D03*
X141198810Y-87792500D03*
X141198810Y-93792500D03*
X125500000Y-84750000D03*
X125000000Y-90250000D03*
X125000000Y-87500000D03*
X130250000Y-90000000D03*
X129500000Y-94500000D03*
X127250000Y-101000000D03*
X124250000Y-101750000D03*
X126000000Y-95750000D03*
X124250000Y-93250000D03*
X126500000Y-93000000D03*
X129750000Y-57750000D03*
X133000000Y-61000000D03*
X123250000Y-58500000D03*
X120750000Y-64000000D03*
X78750000Y-64000000D03*
X91500000Y-72250000D03*
X91750000Y-79750000D03*
X91750000Y-74000000D03*
%TD*%
D26*
%TO.N,/MUTE*%
X95500000Y-57580000D02*
X98080000Y-55000000D01*
X95500000Y-59750000D02*
X95500000Y-57580000D01*
X120230000Y-53000000D02*
X123650000Y-56420000D01*
X100080000Y-53000000D02*
X120230000Y-53000000D01*
X98080000Y-55000000D02*
X100080000Y-53000000D01*
%TD*%
%TO.N,GND*%
G36*
X98435290Y-53796183D02*
G01*
X98203114Y-53750000D01*
X97956886Y-53750000D01*
X97715389Y-53798037D01*
X97487903Y-53892265D01*
X97283172Y-54029062D01*
X97109062Y-54203172D01*
X96972265Y-54407903D01*
X96878037Y-54635389D01*
X96830000Y-54876886D01*
X96830000Y-55123114D01*
X96876183Y-55355289D01*
X95096582Y-57134891D01*
X95073684Y-57153683D01*
X94998705Y-57245045D01*
X94979714Y-57280575D01*
X94942991Y-57349279D01*
X94908682Y-57462380D01*
X94897097Y-57580000D01*
X94900001Y-57609483D01*
X94900001Y-58647545D01*
X94703172Y-58779062D01*
X94529062Y-58953172D01*
X94392265Y-59157903D01*
X94298037Y-59385389D01*
X94250000Y-59626886D01*
X94250000Y-59873114D01*
X94298037Y-60114611D01*
X94392265Y-60342097D01*
X94529062Y-60546828D01*
X94703172Y-60720938D01*
X94907903Y-60857735D01*
X95135389Y-60951963D01*
X95376886Y-61000000D01*
X95623114Y-61000000D01*
X95864611Y-60951963D01*
X96092097Y-60857735D01*
X96296828Y-60720938D01*
X96470938Y-60546828D01*
X96607735Y-60342097D01*
X96701963Y-60114611D01*
X96714814Y-60050000D01*
X101046855Y-60050000D01*
X101059405Y-60177422D01*
X101096573Y-60299948D01*
X101156930Y-60412868D01*
X101238157Y-60511843D01*
X101337132Y-60593070D01*
X101450052Y-60653427D01*
X101572578Y-60690595D01*
X101700000Y-60703145D01*
X102237500Y-60700000D01*
X102400000Y-60537500D01*
X102400000Y-59350000D01*
X102600000Y-59350000D01*
X102600000Y-60537500D01*
X102762500Y-60700000D01*
X103300000Y-60703145D01*
X103427422Y-60690595D01*
X103521515Y-60662052D01*
X107229369Y-60662052D01*
X107285722Y-60903250D01*
X107524435Y-61020440D01*
X107781423Y-61088807D01*
X108046810Y-61105725D01*
X108310399Y-61070542D01*
X108562061Y-60984613D01*
X108714278Y-60903250D01*
X108770631Y-60662052D01*
X108708579Y-60600000D01*
X110397823Y-60600000D01*
X110397823Y-62400000D01*
X110406511Y-62488215D01*
X110432243Y-62573041D01*
X110474029Y-62651216D01*
X110530263Y-62719737D01*
X110598784Y-62775971D01*
X110676959Y-62817757D01*
X110761785Y-62843489D01*
X110850000Y-62852177D01*
X112650000Y-62852177D01*
X112738215Y-62843489D01*
X112823041Y-62817757D01*
X112901216Y-62775971D01*
X112969737Y-62719737D01*
X113025971Y-62651216D01*
X113067757Y-62573041D01*
X113093489Y-62488215D01*
X113102177Y-62400000D01*
X113102177Y-61367037D01*
X113800000Y-61367037D01*
X113800000Y-61632963D01*
X113851880Y-61893780D01*
X113953646Y-62139465D01*
X114101387Y-62360575D01*
X114289425Y-62548613D01*
X114510535Y-62696354D01*
X114756220Y-62798120D01*
X115017037Y-62850000D01*
X115282963Y-62850000D01*
X115543780Y-62798120D01*
X115789465Y-62696354D01*
X116010575Y-62548613D01*
X116198613Y-62360575D01*
X116346354Y-62139465D01*
X116448120Y-61893780D01*
X116500000Y-61632963D01*
X116500000Y-61367037D01*
X117200000Y-61367037D01*
X117200000Y-61632963D01*
X117251880Y-61893780D01*
X117353646Y-62139465D01*
X117501387Y-62360575D01*
X117689425Y-62548613D01*
X117910535Y-62696354D01*
X118156220Y-62798120D01*
X118417037Y-62850000D01*
X118682963Y-62850000D01*
X118943780Y-62798120D01*
X119189465Y-62696354D01*
X119410575Y-62548613D01*
X119598613Y-62360575D01*
X119746354Y-62139465D01*
X119848120Y-61893780D01*
X119858670Y-61840737D01*
X120437916Y-61840737D01*
X120503443Y-62056758D01*
X120639856Y-62328269D01*
X120826617Y-62567951D01*
X121056549Y-62766592D01*
X121320816Y-62916558D01*
X121609262Y-63012087D01*
X121850000Y-62884274D01*
X121850000Y-61600000D01*
X122050000Y-61600000D01*
X122050000Y-62884274D01*
X122290738Y-63012087D01*
X122579184Y-62916558D01*
X122843451Y-62766592D01*
X123073383Y-62567951D01*
X123260144Y-62328269D01*
X123396557Y-62056758D01*
X123462084Y-61840737D01*
X123333892Y-61600000D01*
X122050000Y-61600000D01*
X121850000Y-61600000D01*
X120566108Y-61600000D01*
X120437916Y-61840737D01*
X119858670Y-61840737D01*
X119900000Y-61632963D01*
X119900000Y-61367037D01*
X119858671Y-61159263D01*
X120437916Y-61159263D01*
X120566108Y-61400000D01*
X121850000Y-61400000D01*
X121850000Y-60115726D01*
X122050000Y-60115726D01*
X122050000Y-61400000D01*
X123333892Y-61400000D01*
X123351444Y-61367037D01*
X124000000Y-61367037D01*
X124000000Y-61632963D01*
X124051880Y-61893780D01*
X124153646Y-62139465D01*
X124301387Y-62360575D01*
X124489425Y-62548613D01*
X124710535Y-62696354D01*
X124956220Y-62798120D01*
X125217037Y-62850000D01*
X125482963Y-62850000D01*
X125743780Y-62798120D01*
X125989465Y-62696354D01*
X126210575Y-62548613D01*
X126398613Y-62360575D01*
X126546354Y-62139465D01*
X126648120Y-61893780D01*
X126700000Y-61632963D01*
X126700000Y-61367037D01*
X127400000Y-61367037D01*
X127400000Y-61632963D01*
X127451880Y-61893780D01*
X127553646Y-62139465D01*
X127701387Y-62360575D01*
X127889425Y-62548613D01*
X128110535Y-62696354D01*
X128356220Y-62798120D01*
X128617037Y-62850000D01*
X128882963Y-62850000D01*
X129143780Y-62798120D01*
X129389465Y-62696354D01*
X129610575Y-62548613D01*
X129798613Y-62360575D01*
X129946354Y-62139465D01*
X130048120Y-61893780D01*
X130100000Y-61632963D01*
X130100000Y-61367037D01*
X130048120Y-61106220D01*
X129946354Y-60860535D01*
X129798613Y-60639425D01*
X129610575Y-60451387D01*
X129389465Y-60303646D01*
X129143780Y-60201880D01*
X128882963Y-60150000D01*
X128617037Y-60150000D01*
X128356220Y-60201880D01*
X128110535Y-60303646D01*
X127889425Y-60451387D01*
X127701387Y-60639425D01*
X127553646Y-60860535D01*
X127451880Y-61106220D01*
X127400000Y-61367037D01*
X126700000Y-61367037D01*
X126648120Y-61106220D01*
X126546354Y-60860535D01*
X126398613Y-60639425D01*
X126210575Y-60451387D01*
X125989465Y-60303646D01*
X125743780Y-60201880D01*
X125482963Y-60150000D01*
X125217037Y-60150000D01*
X124956220Y-60201880D01*
X124710535Y-60303646D01*
X124489425Y-60451387D01*
X124301387Y-60639425D01*
X124153646Y-60860535D01*
X124051880Y-61106220D01*
X124000000Y-61367037D01*
X123351444Y-61367037D01*
X123462084Y-61159263D01*
X123396557Y-60943242D01*
X123260144Y-60671731D01*
X123073383Y-60432049D01*
X122843451Y-60233408D01*
X122579184Y-60083442D01*
X122290738Y-59987913D01*
X122050000Y-60115726D01*
X121850000Y-60115726D01*
X121609262Y-59987913D01*
X121320816Y-60083442D01*
X121056549Y-60233408D01*
X120826617Y-60432049D01*
X120639856Y-60671731D01*
X120503443Y-60943242D01*
X120437916Y-61159263D01*
X119858671Y-61159263D01*
X119848120Y-61106220D01*
X119746354Y-60860535D01*
X119598613Y-60639425D01*
X119410575Y-60451387D01*
X119189465Y-60303646D01*
X118943780Y-60201880D01*
X118682963Y-60150000D01*
X118417037Y-60150000D01*
X118156220Y-60201880D01*
X117910535Y-60303646D01*
X117689425Y-60451387D01*
X117501387Y-60639425D01*
X117353646Y-60860535D01*
X117251880Y-61106220D01*
X117200000Y-61367037D01*
X116500000Y-61367037D01*
X116448120Y-61106220D01*
X116346354Y-60860535D01*
X116198613Y-60639425D01*
X116010575Y-60451387D01*
X115789465Y-60303646D01*
X115543780Y-60201880D01*
X115282963Y-60150000D01*
X115017037Y-60150000D01*
X114756220Y-60201880D01*
X114510535Y-60303646D01*
X114289425Y-60451387D01*
X114101387Y-60639425D01*
X113953646Y-60860535D01*
X113851880Y-61106220D01*
X113800000Y-61367037D01*
X113102177Y-61367037D01*
X113102177Y-60600000D01*
X113093489Y-60511785D01*
X113067757Y-60426959D01*
X113025971Y-60348784D01*
X112969737Y-60280263D01*
X112901216Y-60224029D01*
X112823041Y-60182243D01*
X112738215Y-60156511D01*
X112650000Y-60147823D01*
X110850000Y-60147823D01*
X110761785Y-60156511D01*
X110676959Y-60182243D01*
X110598784Y-60224029D01*
X110530263Y-60280263D01*
X110474029Y-60348784D01*
X110432243Y-60426959D01*
X110406511Y-60511785D01*
X110397823Y-60600000D01*
X108708579Y-60600000D01*
X108000000Y-59891421D01*
X107229369Y-60662052D01*
X103521515Y-60662052D01*
X103549948Y-60653427D01*
X103662868Y-60593070D01*
X103761843Y-60511843D01*
X103843070Y-60412868D01*
X103903427Y-60299948D01*
X103940595Y-60177422D01*
X103953145Y-60050000D01*
X103951664Y-59796810D01*
X106644275Y-59796810D01*
X106679458Y-60060399D01*
X106765387Y-60312061D01*
X106846750Y-60464278D01*
X107087948Y-60520631D01*
X107858579Y-59750000D01*
X108141421Y-59750000D01*
X108912052Y-60520631D01*
X109153250Y-60464278D01*
X109270440Y-60225565D01*
X109338807Y-59968577D01*
X109355725Y-59703190D01*
X109320542Y-59439601D01*
X109234613Y-59187939D01*
X109153250Y-59035722D01*
X108912052Y-58979369D01*
X108141421Y-59750000D01*
X107858579Y-59750000D01*
X107087948Y-58979369D01*
X106846750Y-59035722D01*
X106729560Y-59274435D01*
X106661193Y-59531423D01*
X106644275Y-59796810D01*
X103951664Y-59796810D01*
X103950000Y-59512500D01*
X103787500Y-59350000D01*
X102600000Y-59350000D01*
X102400000Y-59350000D01*
X101212500Y-59350000D01*
X101050000Y-59512500D01*
X101046855Y-60050000D01*
X96714814Y-60050000D01*
X96750000Y-59873114D01*
X96750000Y-59626886D01*
X96701963Y-59385389D01*
X96607735Y-59157903D01*
X96470938Y-58953172D01*
X96296828Y-58779062D01*
X96100000Y-58647546D01*
X96100000Y-58450000D01*
X101046855Y-58450000D01*
X101050000Y-58987500D01*
X101212500Y-59150000D01*
X102400000Y-59150000D01*
X102400000Y-59130000D01*
X102600000Y-59130000D01*
X102600000Y-59150000D01*
X103787500Y-59150000D01*
X103950000Y-58987500D01*
X103953145Y-58450000D01*
X103940595Y-58322578D01*
X103903427Y-58200052D01*
X103843070Y-58087132D01*
X103761843Y-57988157D01*
X103662868Y-57906930D01*
X103549948Y-57846573D01*
X103427422Y-57809405D01*
X103300000Y-57796855D01*
X103182179Y-57797544D01*
X103296828Y-57720938D01*
X103470938Y-57546828D01*
X103607735Y-57342097D01*
X103692798Y-57136735D01*
X106850000Y-57136735D01*
X106850000Y-57363265D01*
X106894194Y-57585443D01*
X106980884Y-57794729D01*
X107106737Y-57983082D01*
X107266918Y-58143263D01*
X107455271Y-58269116D01*
X107664557Y-58355806D01*
X107886735Y-58400000D01*
X107910299Y-58400000D01*
X107689601Y-58429458D01*
X107437939Y-58515387D01*
X107285722Y-58596750D01*
X107229369Y-58837948D01*
X108000000Y-59608579D01*
X108721844Y-58886735D01*
X131100000Y-58886735D01*
X131100000Y-59113265D01*
X131144194Y-59335443D01*
X131230884Y-59544729D01*
X131356737Y-59733082D01*
X131516918Y-59893263D01*
X131705271Y-60019116D01*
X131914557Y-60105806D01*
X132136735Y-60150000D01*
X132363265Y-60150000D01*
X132585443Y-60105806D01*
X132794729Y-60019116D01*
X132983082Y-59893263D01*
X133143263Y-59733082D01*
X133269116Y-59544729D01*
X133355806Y-59335443D01*
X133400000Y-59113265D01*
X133400000Y-58886735D01*
X133355806Y-58664557D01*
X133269116Y-58455271D01*
X133143263Y-58266918D01*
X132983082Y-58106737D01*
X132794729Y-57980884D01*
X132585443Y-57894194D01*
X132363265Y-57850000D01*
X132136735Y-57850000D01*
X131914557Y-57894194D01*
X131705271Y-57980884D01*
X131516918Y-58106737D01*
X131356737Y-58266918D01*
X131230884Y-58455271D01*
X131144194Y-58664557D01*
X131100000Y-58886735D01*
X108721844Y-58886735D01*
X108770631Y-58837948D01*
X108714278Y-58596750D01*
X108475565Y-58479560D01*
X108218577Y-58411193D01*
X108042996Y-58400000D01*
X108113265Y-58400000D01*
X108335443Y-58355806D01*
X108544729Y-58269116D01*
X108733082Y-58143263D01*
X108893263Y-57983082D01*
X109019116Y-57794729D01*
X109105806Y-57585443D01*
X109150000Y-57363265D01*
X109150000Y-57136735D01*
X109105806Y-56914557D01*
X109019116Y-56705271D01*
X108893263Y-56516918D01*
X108733082Y-56356737D01*
X108628769Y-56287037D01*
X112100000Y-56287037D01*
X112100000Y-56552963D01*
X112151880Y-56813780D01*
X112253646Y-57059465D01*
X112401387Y-57280575D01*
X112589425Y-57468613D01*
X112810535Y-57616354D01*
X113056220Y-57718120D01*
X113317037Y-57770000D01*
X113582963Y-57770000D01*
X113843780Y-57718120D01*
X114089465Y-57616354D01*
X114310575Y-57468613D01*
X114498613Y-57280575D01*
X114646354Y-57059465D01*
X114748120Y-56813780D01*
X114800000Y-56552963D01*
X114800000Y-56287037D01*
X115500000Y-56287037D01*
X115500000Y-56552963D01*
X115551880Y-56813780D01*
X115653646Y-57059465D01*
X115801387Y-57280575D01*
X115989425Y-57468613D01*
X116210535Y-57616354D01*
X116456220Y-57718120D01*
X116717037Y-57770000D01*
X116982963Y-57770000D01*
X117243780Y-57718120D01*
X117489465Y-57616354D01*
X117710575Y-57468613D01*
X117898613Y-57280575D01*
X118046354Y-57059465D01*
X118148120Y-56813780D01*
X118200000Y-56552963D01*
X118200000Y-56287037D01*
X118900000Y-56287037D01*
X118900000Y-56552963D01*
X118951880Y-56813780D01*
X119053646Y-57059465D01*
X119201387Y-57280575D01*
X119389425Y-57468613D01*
X119610535Y-57616354D01*
X119856220Y-57718120D01*
X120117037Y-57770000D01*
X120382963Y-57770000D01*
X120643780Y-57718120D01*
X120889465Y-57616354D01*
X121110575Y-57468613D01*
X121298613Y-57280575D01*
X121446354Y-57059465D01*
X121548120Y-56813780D01*
X121600000Y-56552963D01*
X121600000Y-56287037D01*
X121548120Y-56026220D01*
X121446354Y-55780535D01*
X121298613Y-55559425D01*
X121110575Y-55371387D01*
X120889465Y-55223646D01*
X120643780Y-55121880D01*
X120382963Y-55070000D01*
X120117037Y-55070000D01*
X119856220Y-55121880D01*
X119610535Y-55223646D01*
X119389425Y-55371387D01*
X119201387Y-55559425D01*
X119053646Y-55780535D01*
X118951880Y-56026220D01*
X118900000Y-56287037D01*
X118200000Y-56287037D01*
X118148120Y-56026220D01*
X118046354Y-55780535D01*
X117898613Y-55559425D01*
X117710575Y-55371387D01*
X117489465Y-55223646D01*
X117243780Y-55121880D01*
X116982963Y-55070000D01*
X116717037Y-55070000D01*
X116456220Y-55121880D01*
X116210535Y-55223646D01*
X115989425Y-55371387D01*
X115801387Y-55559425D01*
X115653646Y-55780535D01*
X115551880Y-56026220D01*
X115500000Y-56287037D01*
X114800000Y-56287037D01*
X114748120Y-56026220D01*
X114646354Y-55780535D01*
X114498613Y-55559425D01*
X114310575Y-55371387D01*
X114089465Y-55223646D01*
X113843780Y-55121880D01*
X113582963Y-55070000D01*
X113317037Y-55070000D01*
X113056220Y-55121880D01*
X112810535Y-55223646D01*
X112589425Y-55371387D01*
X112401387Y-55559425D01*
X112253646Y-55780535D01*
X112151880Y-56026220D01*
X112100000Y-56287037D01*
X108628769Y-56287037D01*
X108544729Y-56230884D01*
X108335443Y-56144194D01*
X108113265Y-56100000D01*
X107886735Y-56100000D01*
X107664557Y-56144194D01*
X107455271Y-56230884D01*
X107266918Y-56356737D01*
X107106737Y-56516918D01*
X106980884Y-56705271D01*
X106894194Y-56914557D01*
X106850000Y-57136735D01*
X103692798Y-57136735D01*
X103701963Y-57114611D01*
X103750000Y-56873114D01*
X103750000Y-56626886D01*
X103701963Y-56385389D01*
X103607735Y-56157903D01*
X103470938Y-55953172D01*
X103296828Y-55779062D01*
X103092097Y-55642265D01*
X102864611Y-55548037D01*
X102623114Y-55500000D01*
X102376886Y-55500000D01*
X102135389Y-55548037D01*
X101907903Y-55642265D01*
X101703172Y-55779062D01*
X101529062Y-55953172D01*
X101392265Y-56157903D01*
X101298037Y-56385389D01*
X101250000Y-56626886D01*
X101250000Y-56873114D01*
X101298037Y-57114611D01*
X101392265Y-57342097D01*
X101529062Y-57546828D01*
X101703172Y-57720938D01*
X101817821Y-57797544D01*
X101700000Y-57796855D01*
X101572578Y-57809405D01*
X101450052Y-57846573D01*
X101337132Y-57906930D01*
X101238157Y-57988157D01*
X101156930Y-58087132D01*
X101096573Y-58200052D01*
X101059405Y-58322578D01*
X101046855Y-58450000D01*
X96100000Y-58450000D01*
X96100000Y-57828527D01*
X97724711Y-56203817D01*
X97956886Y-56250000D01*
X98203114Y-56250000D01*
X98444611Y-56201963D01*
X98672097Y-56107735D01*
X98876828Y-55970938D01*
X99050938Y-55796828D01*
X99187735Y-55592097D01*
X99281963Y-55364611D01*
X99330000Y-55123114D01*
X99330000Y-54876886D01*
X99283817Y-54644710D01*
X100328528Y-53600000D01*
X119981473Y-53600000D01*
X122368227Y-55986755D01*
X122351880Y-56026220D01*
X122300000Y-56287037D01*
X122300000Y-56552963D01*
X122351880Y-56813780D01*
X122453646Y-57059465D01*
X122601387Y-57280575D01*
X122789425Y-57468613D01*
X123010535Y-57616354D01*
X123256220Y-57718120D01*
X123517037Y-57770000D01*
X123782963Y-57770000D01*
X124043780Y-57718120D01*
X124289465Y-57616354D01*
X124510575Y-57468613D01*
X124698613Y-57280575D01*
X124846354Y-57059465D01*
X124948120Y-56813780D01*
X125000000Y-56552963D01*
X125000000Y-56287037D01*
X125700000Y-56287037D01*
X125700000Y-56552963D01*
X125751880Y-56813780D01*
X125853646Y-57059465D01*
X126001387Y-57280575D01*
X126189425Y-57468613D01*
X126410535Y-57616354D01*
X126656220Y-57718120D01*
X126917037Y-57770000D01*
X127182963Y-57770000D01*
X127443780Y-57718120D01*
X127689465Y-57616354D01*
X127910575Y-57468613D01*
X128098613Y-57280575D01*
X128246354Y-57059465D01*
X128348120Y-56813780D01*
X128400000Y-56552963D01*
X128400000Y-56386735D01*
X131100000Y-56386735D01*
X131100000Y-56613265D01*
X131144194Y-56835443D01*
X131230884Y-57044729D01*
X131356737Y-57233082D01*
X131516918Y-57393263D01*
X131705271Y-57519116D01*
X131914557Y-57605806D01*
X132136735Y-57650000D01*
X132363265Y-57650000D01*
X132585443Y-57605806D01*
X132794729Y-57519116D01*
X132983082Y-57393263D01*
X133143263Y-57233082D01*
X133269116Y-57044729D01*
X133355806Y-56835443D01*
X133400000Y-56613265D01*
X133400000Y-56386735D01*
X133355806Y-56164557D01*
X133269116Y-55955271D01*
X133143263Y-55766918D01*
X132983082Y-55606737D01*
X132794729Y-55480884D01*
X132585443Y-55394194D01*
X132363265Y-55350000D01*
X132136735Y-55350000D01*
X131914557Y-55394194D01*
X131705271Y-55480884D01*
X131516918Y-55606737D01*
X131356737Y-55766918D01*
X131230884Y-55955271D01*
X131144194Y-56164557D01*
X131100000Y-56386735D01*
X128400000Y-56386735D01*
X128400000Y-56287037D01*
X128348120Y-56026220D01*
X128246354Y-55780535D01*
X128098613Y-55559425D01*
X127910575Y-55371387D01*
X127689465Y-55223646D01*
X127443780Y-55121880D01*
X127182963Y-55070000D01*
X126917037Y-55070000D01*
X126656220Y-55121880D01*
X126410535Y-55223646D01*
X126189425Y-55371387D01*
X126001387Y-55559425D01*
X125853646Y-55780535D01*
X125751880Y-56026220D01*
X125700000Y-56287037D01*
X125000000Y-56287037D01*
X124948120Y-56026220D01*
X124846354Y-55780535D01*
X124698613Y-55559425D01*
X124510575Y-55371387D01*
X124289465Y-55223646D01*
X124043780Y-55121880D01*
X123782963Y-55070000D01*
X123517037Y-55070000D01*
X123256220Y-55121880D01*
X123216755Y-55138227D01*
X121053527Y-52975000D01*
X134600000Y-52975000D01*
X134600000Y-62500000D01*
X134602882Y-62529264D01*
X134611418Y-62557403D01*
X134625280Y-62583336D01*
X134643934Y-62606066D01*
X135143934Y-63106066D01*
X135166664Y-63124720D01*
X135192597Y-63138582D01*
X135220736Y-63147118D01*
X135250000Y-63150000D01*
X142025001Y-63150000D01*
X142025000Y-104041573D01*
X141818165Y-103732022D01*
X141267978Y-103181835D01*
X140621026Y-102749556D01*
X139902172Y-102451797D01*
X139139041Y-102300000D01*
X138360959Y-102300000D01*
X137597828Y-102451797D01*
X136878974Y-102749556D01*
X136232022Y-103181835D01*
X135681835Y-103732022D01*
X135249556Y-104378974D01*
X134951797Y-105097828D01*
X134800000Y-105860959D01*
X134800000Y-106639041D01*
X134951797Y-107402172D01*
X135249556Y-108121026D01*
X135681835Y-108767978D01*
X136232022Y-109318165D01*
X136541573Y-109525000D01*
X83458427Y-109525000D01*
X83767978Y-109318165D01*
X84318165Y-108767978D01*
X84750444Y-108121026D01*
X85048203Y-107402172D01*
X85200000Y-106639041D01*
X85200000Y-105860959D01*
X85048203Y-105097828D01*
X84750444Y-104378974D01*
X84318165Y-103732022D01*
X83767978Y-103181835D01*
X83121026Y-102749556D01*
X82402172Y-102451797D01*
X81639041Y-102300000D01*
X80860959Y-102300000D01*
X80097828Y-102451797D01*
X79378974Y-102749556D01*
X78732022Y-103181835D01*
X78181835Y-103732022D01*
X77975000Y-104041573D01*
X77975000Y-102027791D01*
X86150000Y-102027791D01*
X86150000Y-102392209D01*
X86221095Y-102749625D01*
X86360552Y-103086303D01*
X86563011Y-103389306D01*
X86820694Y-103646989D01*
X87123697Y-103849448D01*
X87460375Y-103988905D01*
X87817791Y-104060000D01*
X88182209Y-104060000D01*
X88539625Y-103988905D01*
X88876303Y-103849448D01*
X89094389Y-103703728D01*
X88949170Y-103921064D01*
X88817251Y-104239544D01*
X88750000Y-104577640D01*
X88750000Y-104922360D01*
X88817251Y-105260456D01*
X88949170Y-105578936D01*
X89094389Y-105796272D01*
X88876303Y-105650552D01*
X88539625Y-105511095D01*
X88182209Y-105440000D01*
X87817791Y-105440000D01*
X87460375Y-105511095D01*
X87123697Y-105650552D01*
X86820694Y-105853011D01*
X86563011Y-106110694D01*
X86360552Y-106413697D01*
X86221095Y-106750375D01*
X86150000Y-107107791D01*
X86150000Y-107472209D01*
X86221095Y-107829625D01*
X86360552Y-108166303D01*
X86563011Y-108469306D01*
X86820694Y-108726989D01*
X87123697Y-108929448D01*
X87460375Y-109068905D01*
X87817791Y-109140000D01*
X88182209Y-109140000D01*
X88539625Y-109068905D01*
X88876303Y-108929448D01*
X89179306Y-108726989D01*
X89205771Y-108700524D01*
X93730897Y-108700524D01*
X93871540Y-109013322D01*
X94229426Y-109200361D01*
X94616926Y-109313985D01*
X95019146Y-109349829D01*
X95420630Y-109306515D01*
X95805951Y-109185707D01*
X96128460Y-109013322D01*
X96269103Y-108700524D01*
X95000000Y-107431421D01*
X93730897Y-108700524D01*
X89205771Y-108700524D01*
X89436989Y-108469306D01*
X89639448Y-108166303D01*
X89778905Y-107829625D01*
X89850000Y-107472209D01*
X89850000Y-107309146D01*
X92940171Y-107309146D01*
X92983485Y-107710630D01*
X93104293Y-108095951D01*
X93276678Y-108418460D01*
X93589476Y-108559103D01*
X94858579Y-107290000D01*
X93589476Y-106020897D01*
X93276678Y-106161540D01*
X93089639Y-106519426D01*
X92976015Y-106906926D01*
X92940171Y-107309146D01*
X89850000Y-107309146D01*
X89850000Y-107107791D01*
X89778905Y-106750375D01*
X89639448Y-106413697D01*
X89477707Y-106171633D01*
X89671064Y-106300830D01*
X89989544Y-106432749D01*
X90327640Y-106500000D01*
X90672360Y-106500000D01*
X91010456Y-106432749D01*
X91328936Y-106300830D01*
X91615560Y-106109314D01*
X91859314Y-105865560D01*
X92050830Y-105578936D01*
X92182749Y-105260456D01*
X92250000Y-104922360D01*
X92250000Y-104773097D01*
X93540700Y-104773097D01*
X93582854Y-105154894D01*
X93698682Y-105521130D01*
X93803689Y-105717583D01*
X93730897Y-105879476D01*
X95000000Y-107148579D01*
X95445959Y-106702620D01*
X95523097Y-106709300D01*
X95746822Y-106684599D01*
X95141421Y-107290000D01*
X96410524Y-108559103D01*
X96723322Y-108418460D01*
X96910361Y-108060574D01*
X97023985Y-107673074D01*
X97059829Y-107270854D01*
X97016515Y-106869370D01*
X96895707Y-106484049D01*
X96723322Y-106161540D01*
X96676259Y-106140379D01*
X96697945Y-106089366D01*
X95500000Y-104891421D01*
X95485858Y-104905564D01*
X95344437Y-104764143D01*
X95358579Y-104750000D01*
X95641421Y-104750000D01*
X96839366Y-105947945D01*
X97141930Y-105819324D01*
X97318995Y-105478453D01*
X97426158Y-105109587D01*
X97459300Y-104726903D01*
X97442820Y-104577640D01*
X98750000Y-104577640D01*
X98750000Y-104922360D01*
X98817251Y-105260456D01*
X98949170Y-105578936D01*
X99140686Y-105865560D01*
X99384440Y-106109314D01*
X99671064Y-106300830D01*
X99989544Y-106432749D01*
X100327640Y-106500000D01*
X100672360Y-106500000D01*
X101010456Y-106432749D01*
X101328936Y-106300830D01*
X101522293Y-106171633D01*
X101360552Y-106413697D01*
X101221095Y-106750375D01*
X101150000Y-107107791D01*
X101150000Y-107472209D01*
X101221095Y-107829625D01*
X101360552Y-108166303D01*
X101563011Y-108469306D01*
X101820694Y-108726989D01*
X102123697Y-108929448D01*
X102460375Y-109068905D01*
X102817791Y-109140000D01*
X103182209Y-109140000D01*
X103539625Y-109068905D01*
X103876303Y-108929448D01*
X104179306Y-108726989D01*
X104436989Y-108469306D01*
X104639448Y-108166303D01*
X104778905Y-107829625D01*
X104850000Y-107472209D01*
X104850000Y-107107791D01*
X104778905Y-106750375D01*
X104639448Y-106413697D01*
X104436989Y-106110694D01*
X104179306Y-105853011D01*
X103876303Y-105650552D01*
X103539625Y-105511095D01*
X103182209Y-105440000D01*
X102817791Y-105440000D01*
X102460375Y-105511095D01*
X102123697Y-105650552D01*
X101905611Y-105796272D01*
X102050830Y-105578936D01*
X102182749Y-105260456D01*
X102250000Y-104922360D01*
X102250000Y-104577640D01*
X102182749Y-104239544D01*
X102050830Y-103921064D01*
X101905611Y-103703728D01*
X102123697Y-103849448D01*
X102460375Y-103988905D01*
X102817791Y-104060000D01*
X103182209Y-104060000D01*
X103539625Y-103988905D01*
X103876303Y-103849448D01*
X104179306Y-103646989D01*
X104436989Y-103389306D01*
X104639448Y-103086303D01*
X104778905Y-102749625D01*
X104850000Y-102392209D01*
X104850000Y-102027791D01*
X106650000Y-102027791D01*
X106650000Y-102392209D01*
X106721095Y-102749625D01*
X106860552Y-103086303D01*
X107063011Y-103389306D01*
X107320694Y-103646989D01*
X107623697Y-103849448D01*
X107960375Y-103988905D01*
X108317791Y-104060000D01*
X108682209Y-104060000D01*
X109039625Y-103988905D01*
X109198292Y-103923183D01*
X109067251Y-104239544D01*
X109000000Y-104577640D01*
X109000000Y-104922360D01*
X109067251Y-105260456D01*
X109198292Y-105576817D01*
X109039625Y-105511095D01*
X108682209Y-105440000D01*
X108317791Y-105440000D01*
X107960375Y-105511095D01*
X107623697Y-105650552D01*
X107320694Y-105853011D01*
X107063011Y-106110694D01*
X106860552Y-106413697D01*
X106721095Y-106750375D01*
X106650000Y-107107791D01*
X106650000Y-107472209D01*
X106721095Y-107829625D01*
X106860552Y-108166303D01*
X107063011Y-108469306D01*
X107320694Y-108726989D01*
X107623697Y-108929448D01*
X107960375Y-109068905D01*
X108317791Y-109140000D01*
X108682209Y-109140000D01*
X109039625Y-109068905D01*
X109376303Y-108929448D01*
X109679306Y-108726989D01*
X109705771Y-108700524D01*
X116730897Y-108700524D01*
X116871540Y-109013322D01*
X117229426Y-109200361D01*
X117616926Y-109313985D01*
X118019146Y-109349829D01*
X118420630Y-109306515D01*
X118805951Y-109185707D01*
X119128460Y-109013322D01*
X119269103Y-108700524D01*
X118000000Y-107431421D01*
X116730897Y-108700524D01*
X109705771Y-108700524D01*
X109936989Y-108469306D01*
X110139448Y-108166303D01*
X110278905Y-107829625D01*
X110350000Y-107472209D01*
X110350000Y-107107791D01*
X110278905Y-106750375D01*
X110139448Y-106413697D01*
X110118745Y-106382712D01*
X110239544Y-106432749D01*
X110577640Y-106500000D01*
X110922360Y-106500000D01*
X111260456Y-106432749D01*
X111578936Y-106300830D01*
X111865560Y-106109314D01*
X112109314Y-105865560D01*
X112300830Y-105578936D01*
X112432749Y-105260456D01*
X112500000Y-104922360D01*
X112500000Y-104773097D01*
X113790700Y-104773097D01*
X113832854Y-105154894D01*
X113948682Y-105521130D01*
X114108070Y-105819324D01*
X114410634Y-105947945D01*
X115608579Y-104750000D01*
X114410634Y-103552055D01*
X114108070Y-103680676D01*
X113931005Y-104021547D01*
X113823842Y-104390413D01*
X113790700Y-104773097D01*
X112500000Y-104773097D01*
X112500000Y-104577640D01*
X112432749Y-104239544D01*
X112300830Y-103921064D01*
X112109314Y-103634440D01*
X111885508Y-103410634D01*
X114552055Y-103410634D01*
X115750000Y-104608579D01*
X115764143Y-104594437D01*
X115905564Y-104735858D01*
X115891421Y-104750000D01*
X115905564Y-104764143D01*
X115764143Y-104905564D01*
X115750000Y-104891421D01*
X114552055Y-106089366D01*
X114680676Y-106391930D01*
X115021547Y-106568995D01*
X115390413Y-106676158D01*
X115773097Y-106709300D01*
X116042692Y-106679534D01*
X115976015Y-106906926D01*
X115940171Y-107309146D01*
X115983485Y-107710630D01*
X116104293Y-108095951D01*
X116276678Y-108418460D01*
X116589476Y-108559103D01*
X117858579Y-107290000D01*
X118141421Y-107290000D01*
X119410524Y-108559103D01*
X119723322Y-108418460D01*
X119910361Y-108060574D01*
X120023985Y-107673074D01*
X120059829Y-107270854D01*
X120016515Y-106869370D01*
X119895707Y-106484049D01*
X119723322Y-106161540D01*
X119410524Y-106020897D01*
X118141421Y-107290000D01*
X117858579Y-107290000D01*
X117844437Y-107275858D01*
X117985858Y-107134437D01*
X118000000Y-107148579D01*
X119269103Y-105879476D01*
X119128460Y-105566678D01*
X118770574Y-105379639D01*
X118383074Y-105266015D01*
X117980854Y-105230171D01*
X117630133Y-105268008D01*
X117676158Y-105109587D01*
X117709300Y-104726903D01*
X117696083Y-104607187D01*
X122800000Y-104607187D01*
X122800000Y-104892813D01*
X122855723Y-105172949D01*
X122965027Y-105436833D01*
X123123711Y-105674321D01*
X123325679Y-105876289D01*
X123563167Y-106034973D01*
X123827051Y-106144277D01*
X124107187Y-106200000D01*
X124392813Y-106200000D01*
X124672949Y-106144277D01*
X124936833Y-106034973D01*
X125174321Y-105876289D01*
X125376289Y-105674321D01*
X125534973Y-105436833D01*
X125644277Y-105172949D01*
X125700000Y-104892813D01*
X125700000Y-104607187D01*
X126300000Y-104607187D01*
X126300000Y-104892813D01*
X126355723Y-105172949D01*
X126465027Y-105436833D01*
X126623711Y-105674321D01*
X126825679Y-105876289D01*
X127063167Y-106034973D01*
X127327051Y-106144277D01*
X127607187Y-106200000D01*
X127892813Y-106200000D01*
X128172949Y-106144277D01*
X128436833Y-106034973D01*
X128674321Y-105876289D01*
X128674799Y-105875811D01*
X130265610Y-105875811D01*
X130358138Y-106147674D01*
X130647947Y-106294812D01*
X130960892Y-106382584D01*
X131284949Y-106407616D01*
X131607662Y-106368947D01*
X131916631Y-106268063D01*
X132141862Y-106147674D01*
X132234390Y-105875811D01*
X131250000Y-104891421D01*
X130265610Y-105875811D01*
X128674799Y-105875811D01*
X128876289Y-105674321D01*
X129034973Y-105436833D01*
X129144277Y-105172949D01*
X129200000Y-104892813D01*
X129200000Y-104784949D01*
X129592384Y-104784949D01*
X129631053Y-105107662D01*
X129731937Y-105416631D01*
X129852326Y-105641862D01*
X130124189Y-105734390D01*
X131108579Y-104750000D01*
X131391421Y-104750000D01*
X132375811Y-105734390D01*
X132647674Y-105641862D01*
X132794812Y-105352053D01*
X132882584Y-105039108D01*
X132907616Y-104715051D01*
X132868947Y-104392338D01*
X132768063Y-104083369D01*
X132647674Y-103858138D01*
X132375811Y-103765610D01*
X131391421Y-104750000D01*
X131108579Y-104750000D01*
X130124189Y-103765610D01*
X129852326Y-103858138D01*
X129705188Y-104147947D01*
X129617416Y-104460892D01*
X129592384Y-104784949D01*
X129200000Y-104784949D01*
X129200000Y-104607187D01*
X129144277Y-104327051D01*
X129034973Y-104063167D01*
X128876289Y-103825679D01*
X128674799Y-103624189D01*
X130265610Y-103624189D01*
X131250000Y-104608579D01*
X132234390Y-103624189D01*
X132141862Y-103352326D01*
X131852053Y-103205188D01*
X131539108Y-103117416D01*
X131215051Y-103092384D01*
X130892338Y-103131053D01*
X130583369Y-103231937D01*
X130358138Y-103352326D01*
X130265610Y-103624189D01*
X128674799Y-103624189D01*
X128674321Y-103623711D01*
X128436833Y-103465027D01*
X128172949Y-103355723D01*
X127892813Y-103300000D01*
X127607187Y-103300000D01*
X127327051Y-103355723D01*
X127063167Y-103465027D01*
X126825679Y-103623711D01*
X126623711Y-103825679D01*
X126465027Y-104063167D01*
X126355723Y-104327051D01*
X126300000Y-104607187D01*
X125700000Y-104607187D01*
X125644277Y-104327051D01*
X125534973Y-104063167D01*
X125376289Y-103825679D01*
X125174321Y-103623711D01*
X124936833Y-103465027D01*
X124672949Y-103355723D01*
X124392813Y-103300000D01*
X124107187Y-103300000D01*
X123827051Y-103355723D01*
X123563167Y-103465027D01*
X123325679Y-103623711D01*
X123123711Y-103825679D01*
X122965027Y-104063167D01*
X122855723Y-104327051D01*
X122800000Y-104607187D01*
X117696083Y-104607187D01*
X117667146Y-104345106D01*
X117632439Y-104235367D01*
X118019146Y-104269829D01*
X118420630Y-104226515D01*
X118805951Y-104105707D01*
X119128460Y-103933322D01*
X119269103Y-103620524D01*
X118000000Y-102351421D01*
X117985858Y-102365564D01*
X117844437Y-102224143D01*
X117858579Y-102210000D01*
X118141421Y-102210000D01*
X119410524Y-103479103D01*
X119723322Y-103338460D01*
X119910361Y-102980574D01*
X120023985Y-102593074D01*
X120059829Y-102190854D01*
X120016515Y-101789370D01*
X119895707Y-101404049D01*
X119723322Y-101081540D01*
X119410524Y-100940897D01*
X118141421Y-102210000D01*
X117858579Y-102210000D01*
X116589476Y-100940897D01*
X116276678Y-101081540D01*
X116089639Y-101439426D01*
X115976015Y-101826926D01*
X115940171Y-102229146D01*
X115983485Y-102630630D01*
X116042233Y-102818009D01*
X115726903Y-102790700D01*
X115345106Y-102832854D01*
X114978870Y-102948682D01*
X114680676Y-103108070D01*
X114552055Y-103410634D01*
X111885508Y-103410634D01*
X111865560Y-103390686D01*
X111578936Y-103199170D01*
X111260456Y-103067251D01*
X110922360Y-103000000D01*
X110577640Y-103000000D01*
X110239544Y-103067251D01*
X110118745Y-103117288D01*
X110139448Y-103086303D01*
X110278905Y-102749625D01*
X110350000Y-102392209D01*
X110350000Y-102027791D01*
X110278905Y-101670375D01*
X110139448Y-101333697D01*
X109936989Y-101030694D01*
X109705771Y-100799476D01*
X116730897Y-100799476D01*
X118000000Y-102068579D01*
X119269103Y-100799476D01*
X119128460Y-100486678D01*
X118770574Y-100299639D01*
X118383074Y-100186015D01*
X117980854Y-100150171D01*
X117579370Y-100193485D01*
X117194049Y-100314293D01*
X116871540Y-100486678D01*
X116730897Y-100799476D01*
X109705771Y-100799476D01*
X109679306Y-100773011D01*
X109376303Y-100570552D01*
X109039625Y-100431095D01*
X108682209Y-100360000D01*
X108317791Y-100360000D01*
X107960375Y-100431095D01*
X107623697Y-100570552D01*
X107320694Y-100773011D01*
X107063011Y-101030694D01*
X106860552Y-101333697D01*
X106721095Y-101670375D01*
X106650000Y-102027791D01*
X104850000Y-102027791D01*
X104778905Y-101670375D01*
X104639448Y-101333697D01*
X104436989Y-101030694D01*
X104179306Y-100773011D01*
X103876303Y-100570552D01*
X103539625Y-100431095D01*
X103182209Y-100360000D01*
X102817791Y-100360000D01*
X102460375Y-100431095D01*
X102123697Y-100570552D01*
X101820694Y-100773011D01*
X101563011Y-101030694D01*
X101360552Y-101333697D01*
X101221095Y-101670375D01*
X101150000Y-102027791D01*
X101150000Y-102392209D01*
X101221095Y-102749625D01*
X101360552Y-103086303D01*
X101522293Y-103328367D01*
X101328936Y-103199170D01*
X101010456Y-103067251D01*
X100672360Y-103000000D01*
X100327640Y-103000000D01*
X99989544Y-103067251D01*
X99671064Y-103199170D01*
X99384440Y-103390686D01*
X99140686Y-103634440D01*
X98949170Y-103921064D01*
X98817251Y-104239544D01*
X98750000Y-104577640D01*
X97442820Y-104577640D01*
X97417146Y-104345106D01*
X97301318Y-103978870D01*
X97141930Y-103680676D01*
X96839366Y-103552055D01*
X95641421Y-104750000D01*
X95358579Y-104750000D01*
X95344437Y-104735858D01*
X95485858Y-104594437D01*
X95500000Y-104608579D01*
X96697945Y-103410634D01*
X96676259Y-103359621D01*
X96723322Y-103338460D01*
X96910361Y-102980574D01*
X97023985Y-102593074D01*
X97059829Y-102190854D01*
X97016515Y-101789370D01*
X96895707Y-101404049D01*
X96723322Y-101081540D01*
X96410524Y-100940897D01*
X95141421Y-102210000D01*
X95745371Y-102813950D01*
X95476903Y-102790700D01*
X95443020Y-102794441D01*
X95000000Y-102351421D01*
X93730897Y-103620524D01*
X93804400Y-103783998D01*
X93681005Y-104021547D01*
X93573842Y-104390413D01*
X93540700Y-104773097D01*
X92250000Y-104773097D01*
X92250000Y-104577640D01*
X92182749Y-104239544D01*
X92050830Y-103921064D01*
X91859314Y-103634440D01*
X91615560Y-103390686D01*
X91328936Y-103199170D01*
X91010456Y-103067251D01*
X90672360Y-103000000D01*
X90327640Y-103000000D01*
X89989544Y-103067251D01*
X89671064Y-103199170D01*
X89477707Y-103328367D01*
X89639448Y-103086303D01*
X89778905Y-102749625D01*
X89850000Y-102392209D01*
X89850000Y-102229146D01*
X92940171Y-102229146D01*
X92983485Y-102630630D01*
X93104293Y-103015951D01*
X93276678Y-103338460D01*
X93589476Y-103479103D01*
X94858579Y-102210000D01*
X93589476Y-100940897D01*
X93276678Y-101081540D01*
X93089639Y-101439426D01*
X92976015Y-101826926D01*
X92940171Y-102229146D01*
X89850000Y-102229146D01*
X89850000Y-102027791D01*
X89778905Y-101670375D01*
X89639448Y-101333697D01*
X89436989Y-101030694D01*
X89205771Y-100799476D01*
X93730897Y-100799476D01*
X95000000Y-102068579D01*
X96269103Y-100799476D01*
X96128460Y-100486678D01*
X95770574Y-100299639D01*
X95383074Y-100186015D01*
X94980854Y-100150171D01*
X94579370Y-100193485D01*
X94194049Y-100314293D01*
X93871540Y-100486678D01*
X93730897Y-100799476D01*
X89205771Y-100799476D01*
X89179306Y-100773011D01*
X88876303Y-100570552D01*
X88539625Y-100431095D01*
X88182209Y-100360000D01*
X87817791Y-100360000D01*
X87460375Y-100431095D01*
X87123697Y-100570552D01*
X86820694Y-100773011D01*
X86563011Y-101030694D01*
X86360552Y-101333697D01*
X86221095Y-101670375D01*
X86150000Y-102027791D01*
X77975000Y-102027791D01*
X77975000Y-92550000D01*
X87847823Y-92550000D01*
X87847823Y-94950000D01*
X87856511Y-95038215D01*
X87882243Y-95123041D01*
X87924029Y-95201216D01*
X87980263Y-95269737D01*
X88048784Y-95325971D01*
X88126959Y-95367757D01*
X88211785Y-95393489D01*
X88300000Y-95402177D01*
X90700000Y-95402177D01*
X90788215Y-95393489D01*
X90873041Y-95367757D01*
X90951216Y-95325971D01*
X91019737Y-95269737D01*
X91075971Y-95201216D01*
X91117757Y-95123041D01*
X91143489Y-95038215D01*
X91152177Y-94950000D01*
X91152177Y-92550000D01*
X91143489Y-92461785D01*
X91134626Y-92432565D01*
X99240000Y-92432565D01*
X99240000Y-92767435D01*
X99305330Y-93095872D01*
X99433479Y-93405252D01*
X99619523Y-93683687D01*
X99856313Y-93920477D01*
X100134748Y-94106521D01*
X100444128Y-94234670D01*
X100772565Y-94300000D01*
X101107435Y-94300000D01*
X101435872Y-94234670D01*
X101745252Y-94106521D01*
X102023687Y-93920477D01*
X102260477Y-93683687D01*
X102337916Y-93567791D01*
X111650000Y-93567791D01*
X111650000Y-93932209D01*
X111721095Y-94289625D01*
X111860552Y-94626303D01*
X112063011Y-94929306D01*
X112320694Y-95186989D01*
X112623697Y-95389448D01*
X112960375Y-95528905D01*
X113317791Y-95600000D01*
X113682209Y-95600000D01*
X114039625Y-95528905D01*
X114376303Y-95389448D01*
X114679306Y-95186989D01*
X114936989Y-94929306D01*
X115139448Y-94626303D01*
X115278905Y-94289625D01*
X115350000Y-93932209D01*
X115350000Y-93567791D01*
X115278905Y-93210375D01*
X115139448Y-92873697D01*
X114936989Y-92570694D01*
X114679306Y-92313011D01*
X114376303Y-92110552D01*
X114039625Y-91971095D01*
X113682209Y-91900000D01*
X113317791Y-91900000D01*
X112960375Y-91971095D01*
X112623697Y-92110552D01*
X112320694Y-92313011D01*
X112063011Y-92570694D01*
X111860552Y-92873697D01*
X111721095Y-93210375D01*
X111650000Y-93567791D01*
X102337916Y-93567791D01*
X102446521Y-93405252D01*
X102574670Y-93095872D01*
X102640000Y-92767435D01*
X102640000Y-92432565D01*
X102574670Y-92104128D01*
X102446521Y-91794748D01*
X102260477Y-91516313D01*
X102023687Y-91279523D01*
X101795250Y-91126886D01*
X121250000Y-91126886D01*
X121250000Y-91373114D01*
X121298037Y-91614611D01*
X121392265Y-91842097D01*
X121529062Y-92046828D01*
X121703172Y-92220938D01*
X121907903Y-92357735D01*
X122135389Y-92451963D01*
X122376886Y-92500000D01*
X122623114Y-92500000D01*
X122864611Y-92451963D01*
X123092097Y-92357735D01*
X123296828Y-92220938D01*
X123470938Y-92046828D01*
X123607735Y-91842097D01*
X123701963Y-91614611D01*
X123750000Y-91373114D01*
X123750000Y-91126886D01*
X132000000Y-91126886D01*
X132000000Y-91373114D01*
X132048037Y-91614611D01*
X132142265Y-91842097D01*
X132279062Y-92046828D01*
X132453172Y-92220938D01*
X132657903Y-92357735D01*
X132885389Y-92451963D01*
X133126886Y-92500000D01*
X133373114Y-92500000D01*
X133614611Y-92451963D01*
X133842097Y-92357735D01*
X134046828Y-92220938D01*
X134220938Y-92046828D01*
X134357735Y-91842097D01*
X134451963Y-91614611D01*
X134500000Y-91373114D01*
X134500000Y-91126886D01*
X134451963Y-90885389D01*
X134357735Y-90657903D01*
X134220938Y-90453172D01*
X134046828Y-90279062D01*
X133842097Y-90142265D01*
X133614611Y-90048037D01*
X133373114Y-90000000D01*
X133126886Y-90000000D01*
X132885389Y-90048037D01*
X132657903Y-90142265D01*
X132453172Y-90279062D01*
X132279062Y-90453172D01*
X132142265Y-90657903D01*
X132048037Y-90885389D01*
X132000000Y-91126886D01*
X123750000Y-91126886D01*
X123701963Y-90885389D01*
X123607735Y-90657903D01*
X123470938Y-90453172D01*
X123296828Y-90279062D01*
X123092097Y-90142265D01*
X122864611Y-90048037D01*
X122623114Y-90000000D01*
X122376886Y-90000000D01*
X122135389Y-90048037D01*
X121907903Y-90142265D01*
X121703172Y-90279062D01*
X121529062Y-90453172D01*
X121392265Y-90657903D01*
X121298037Y-90885389D01*
X121250000Y-91126886D01*
X101795250Y-91126886D01*
X101745252Y-91093479D01*
X101435872Y-90965330D01*
X101107435Y-90900000D01*
X100772565Y-90900000D01*
X100444128Y-90965330D01*
X100134748Y-91093479D01*
X99856313Y-91279523D01*
X99619523Y-91516313D01*
X99433479Y-91794748D01*
X99305330Y-92104128D01*
X99240000Y-92432565D01*
X91134626Y-92432565D01*
X91117757Y-92376959D01*
X91075971Y-92298784D01*
X91019737Y-92230263D01*
X90951216Y-92174029D01*
X90873041Y-92132243D01*
X90788215Y-92106511D01*
X90700000Y-92097823D01*
X88300000Y-92097823D01*
X88211785Y-92106511D01*
X88126959Y-92132243D01*
X88048784Y-92174029D01*
X87980263Y-92230263D01*
X87924029Y-92298784D01*
X87882243Y-92376959D01*
X87856511Y-92461785D01*
X87847823Y-92550000D01*
X77975000Y-92550000D01*
X77975000Y-87518197D01*
X88373225Y-87518197D01*
X88489820Y-87810524D01*
X88813674Y-87977615D01*
X89163902Y-88078315D01*
X89527047Y-88108755D01*
X89889152Y-88067762D01*
X90236302Y-87956915D01*
X90510180Y-87810524D01*
X90626775Y-87518197D01*
X89500000Y-86391421D01*
X88373225Y-87518197D01*
X77975000Y-87518197D01*
X77975000Y-86277047D01*
X87641245Y-86277047D01*
X87682238Y-86639152D01*
X87793085Y-86986302D01*
X87939476Y-87260180D01*
X88231803Y-87376775D01*
X89358579Y-86250000D01*
X89641421Y-86250000D01*
X90768197Y-87376775D01*
X91060524Y-87260180D01*
X91227615Y-86936326D01*
X91328315Y-86586098D01*
X91358755Y-86222953D01*
X91347880Y-86126886D01*
X121250000Y-86126886D01*
X121250000Y-86373114D01*
X121298037Y-86614611D01*
X121392265Y-86842097D01*
X121529062Y-87046828D01*
X121703172Y-87220938D01*
X121907903Y-87357735D01*
X122135389Y-87451963D01*
X122376886Y-87500000D01*
X122623114Y-87500000D01*
X122864611Y-87451963D01*
X123092097Y-87357735D01*
X123296828Y-87220938D01*
X123470938Y-87046828D01*
X123607735Y-86842097D01*
X123701963Y-86614611D01*
X123750000Y-86373114D01*
X123750000Y-86126886D01*
X132000000Y-86126886D01*
X132000000Y-86373114D01*
X132048037Y-86614611D01*
X132142265Y-86842097D01*
X132279062Y-87046828D01*
X132453172Y-87220938D01*
X132657903Y-87357735D01*
X132885389Y-87451963D01*
X133126886Y-87500000D01*
X133373114Y-87500000D01*
X133614611Y-87451963D01*
X133842097Y-87357735D01*
X134046828Y-87220938D01*
X134220938Y-87046828D01*
X134357735Y-86842097D01*
X134451963Y-86614611D01*
X134500000Y-86373114D01*
X134500000Y-86126886D01*
X134451963Y-85885389D01*
X134357735Y-85657903D01*
X134220938Y-85453172D01*
X134046828Y-85279062D01*
X133842097Y-85142265D01*
X133614611Y-85048037D01*
X133373114Y-85000000D01*
X133126886Y-85000000D01*
X132885389Y-85048037D01*
X132657903Y-85142265D01*
X132453172Y-85279062D01*
X132279062Y-85453172D01*
X132142265Y-85657903D01*
X132048037Y-85885389D01*
X132000000Y-86126886D01*
X123750000Y-86126886D01*
X123701963Y-85885389D01*
X123607735Y-85657903D01*
X123470938Y-85453172D01*
X123296828Y-85279062D01*
X123092097Y-85142265D01*
X122864611Y-85048037D01*
X122623114Y-85000000D01*
X122376886Y-85000000D01*
X122135389Y-85048037D01*
X121907903Y-85142265D01*
X121703172Y-85279062D01*
X121529062Y-85453172D01*
X121392265Y-85657903D01*
X121298037Y-85885389D01*
X121250000Y-86126886D01*
X91347880Y-86126886D01*
X91317762Y-85860848D01*
X91206915Y-85513698D01*
X91060524Y-85239820D01*
X90768197Y-85123225D01*
X89641421Y-86250000D01*
X89358579Y-86250000D01*
X88231803Y-85123225D01*
X87939476Y-85239820D01*
X87772385Y-85563674D01*
X87671685Y-85913902D01*
X87641245Y-86277047D01*
X77975000Y-86277047D01*
X77975000Y-84981803D01*
X88373225Y-84981803D01*
X89500000Y-86108579D01*
X90626775Y-84981803D01*
X90510180Y-84689476D01*
X90186326Y-84522385D01*
X89836098Y-84421685D01*
X89472953Y-84391245D01*
X89110848Y-84432238D01*
X88763698Y-84543085D01*
X88489820Y-84689476D01*
X88373225Y-84981803D01*
X77975000Y-84981803D01*
X77975000Y-79732565D01*
X106860000Y-79732565D01*
X106860000Y-80067435D01*
X106925330Y-80395872D01*
X107053479Y-80705252D01*
X107239523Y-80983687D01*
X107476313Y-81220477D01*
X107754748Y-81406521D01*
X108064128Y-81534670D01*
X108392565Y-81600000D01*
X108727435Y-81600000D01*
X109055872Y-81534670D01*
X109365252Y-81406521D01*
X109643687Y-81220477D01*
X109880477Y-80983687D01*
X110066521Y-80705252D01*
X110194670Y-80395872D01*
X110260000Y-80067435D01*
X110260000Y-79732565D01*
X110194670Y-79404128D01*
X110066521Y-79094748D01*
X109880477Y-78816313D01*
X109643687Y-78579523D01*
X109365252Y-78393479D01*
X109206667Y-78327791D01*
X111650000Y-78327791D01*
X111650000Y-78692209D01*
X111721095Y-79049625D01*
X111860552Y-79386303D01*
X112063011Y-79689306D01*
X112320694Y-79946989D01*
X112623697Y-80149448D01*
X112960375Y-80288905D01*
X113317791Y-80360000D01*
X113682209Y-80360000D01*
X114039625Y-80288905D01*
X114376303Y-80149448D01*
X114679306Y-79946989D01*
X114936989Y-79689306D01*
X115139448Y-79386303D01*
X115278905Y-79049625D01*
X115347080Y-78706886D01*
X117500000Y-78706886D01*
X117500000Y-78953114D01*
X117548037Y-79194611D01*
X117642265Y-79422097D01*
X117779062Y-79626828D01*
X117953172Y-79800938D01*
X118157903Y-79937735D01*
X118385389Y-80031963D01*
X118626886Y-80080000D01*
X118873114Y-80080000D01*
X119114611Y-80031963D01*
X119342097Y-79937735D01*
X119546828Y-79800938D01*
X119720938Y-79626828D01*
X119857735Y-79422097D01*
X119951963Y-79194611D01*
X120000000Y-78953114D01*
X120000000Y-78706886D01*
X120750000Y-78706886D01*
X120750000Y-78953114D01*
X120798037Y-79194611D01*
X120892265Y-79422097D01*
X121029062Y-79626828D01*
X121203172Y-79800938D01*
X121407903Y-79937735D01*
X121635389Y-80031963D01*
X121876886Y-80080000D01*
X122123114Y-80080000D01*
X122364611Y-80031963D01*
X122592097Y-79937735D01*
X122796828Y-79800938D01*
X122970938Y-79626828D01*
X123107735Y-79422097D01*
X123201963Y-79194611D01*
X123250000Y-78953114D01*
X123250000Y-78706886D01*
X124000000Y-78706886D01*
X124000000Y-78953114D01*
X124048037Y-79194611D01*
X124142265Y-79422097D01*
X124279062Y-79626828D01*
X124453172Y-79800938D01*
X124657903Y-79937735D01*
X124885389Y-80031963D01*
X125126886Y-80080000D01*
X125373114Y-80080000D01*
X125614611Y-80031963D01*
X125842097Y-79937735D01*
X126046828Y-79800938D01*
X126220938Y-79626828D01*
X126357735Y-79422097D01*
X126451963Y-79194611D01*
X126500000Y-78953114D01*
X126500000Y-78706886D01*
X127250000Y-78706886D01*
X127250000Y-78953114D01*
X127298037Y-79194611D01*
X127392265Y-79422097D01*
X127529062Y-79626828D01*
X127703172Y-79800938D01*
X127907903Y-79937735D01*
X128135389Y-80031963D01*
X128376886Y-80080000D01*
X128623114Y-80080000D01*
X128864611Y-80031963D01*
X129092097Y-79937735D01*
X129278271Y-79813337D01*
X130908085Y-79813337D01*
X130976509Y-80064750D01*
X131232259Y-80191925D01*
X131507906Y-80266762D01*
X131792856Y-80286386D01*
X132076159Y-80250042D01*
X132346928Y-80159125D01*
X132523491Y-80064750D01*
X132591915Y-79813337D01*
X134158085Y-79813337D01*
X134226509Y-80064750D01*
X134482259Y-80191925D01*
X134757906Y-80266762D01*
X135042856Y-80286386D01*
X135326159Y-80250042D01*
X135596928Y-80159125D01*
X135773491Y-80064750D01*
X135841915Y-79813337D01*
X135000000Y-78971421D01*
X134158085Y-79813337D01*
X132591915Y-79813337D01*
X131750000Y-78971421D01*
X130908085Y-79813337D01*
X129278271Y-79813337D01*
X129296828Y-79800938D01*
X129470938Y-79626828D01*
X129607735Y-79422097D01*
X129701963Y-79194611D01*
X129750000Y-78953114D01*
X129750000Y-78872856D01*
X130293614Y-78872856D01*
X130329958Y-79156159D01*
X130420875Y-79426928D01*
X130515250Y-79603491D01*
X130766663Y-79671915D01*
X131608579Y-78830000D01*
X131891421Y-78830000D01*
X132733337Y-79671915D01*
X132984750Y-79603491D01*
X133111925Y-79347741D01*
X133186762Y-79072094D01*
X133200483Y-78872856D01*
X133543614Y-78872856D01*
X133579958Y-79156159D01*
X133670875Y-79426928D01*
X133765250Y-79603491D01*
X134016663Y-79671915D01*
X134858579Y-78830000D01*
X135141421Y-78830000D01*
X135983337Y-79671915D01*
X136234750Y-79603491D01*
X136361925Y-79347741D01*
X136436762Y-79072094D01*
X136456386Y-78787144D01*
X136420042Y-78503841D01*
X136329125Y-78233072D01*
X136234750Y-78056509D01*
X135983337Y-77988085D01*
X135141421Y-78830000D01*
X134858579Y-78830000D01*
X134016663Y-77988085D01*
X133765250Y-78056509D01*
X133638075Y-78312259D01*
X133563238Y-78587906D01*
X133543614Y-78872856D01*
X133200483Y-78872856D01*
X133206386Y-78787144D01*
X133170042Y-78503841D01*
X133079125Y-78233072D01*
X132984750Y-78056509D01*
X132733337Y-77988085D01*
X131891421Y-78830000D01*
X131608579Y-78830000D01*
X130766663Y-77988085D01*
X130515250Y-78056509D01*
X130388075Y-78312259D01*
X130313238Y-78587906D01*
X130293614Y-78872856D01*
X129750000Y-78872856D01*
X129750000Y-78706886D01*
X129701963Y-78465389D01*
X129607735Y-78237903D01*
X129470938Y-78033172D01*
X129296828Y-77859062D01*
X129278272Y-77846663D01*
X130908085Y-77846663D01*
X131750000Y-78688579D01*
X132591915Y-77846663D01*
X134158085Y-77846663D01*
X135000000Y-78688579D01*
X135841915Y-77846663D01*
X135773491Y-77595250D01*
X135517741Y-77468075D01*
X135242094Y-77393238D01*
X134957144Y-77373614D01*
X134673841Y-77409958D01*
X134403072Y-77500875D01*
X134226509Y-77595250D01*
X134158085Y-77846663D01*
X132591915Y-77846663D01*
X132523491Y-77595250D01*
X132267741Y-77468075D01*
X131992094Y-77393238D01*
X131707144Y-77373614D01*
X131423841Y-77409958D01*
X131153072Y-77500875D01*
X130976509Y-77595250D01*
X130908085Y-77846663D01*
X129278272Y-77846663D01*
X129092097Y-77722265D01*
X128864611Y-77628037D01*
X128623114Y-77580000D01*
X128376886Y-77580000D01*
X128135389Y-77628037D01*
X127907903Y-77722265D01*
X127703172Y-77859062D01*
X127529062Y-78033172D01*
X127392265Y-78237903D01*
X127298037Y-78465389D01*
X127250000Y-78706886D01*
X126500000Y-78706886D01*
X126451963Y-78465389D01*
X126357735Y-78237903D01*
X126220938Y-78033172D01*
X126046828Y-77859062D01*
X125842097Y-77722265D01*
X125614611Y-77628037D01*
X125373114Y-77580000D01*
X125126886Y-77580000D01*
X124885389Y-77628037D01*
X124657903Y-77722265D01*
X124453172Y-77859062D01*
X124279062Y-78033172D01*
X124142265Y-78237903D01*
X124048037Y-78465389D01*
X124000000Y-78706886D01*
X123250000Y-78706886D01*
X123201963Y-78465389D01*
X123107735Y-78237903D01*
X122970938Y-78033172D01*
X122796828Y-77859062D01*
X122592097Y-77722265D01*
X122364611Y-77628037D01*
X122123114Y-77580000D01*
X121876886Y-77580000D01*
X121635389Y-77628037D01*
X121407903Y-77722265D01*
X121203172Y-77859062D01*
X121029062Y-78033172D01*
X120892265Y-78237903D01*
X120798037Y-78465389D01*
X120750000Y-78706886D01*
X120000000Y-78706886D01*
X119951963Y-78465389D01*
X119857735Y-78237903D01*
X119720938Y-78033172D01*
X119546828Y-77859062D01*
X119342097Y-77722265D01*
X119114611Y-77628037D01*
X118873114Y-77580000D01*
X118626886Y-77580000D01*
X118385389Y-77628037D01*
X118157903Y-77722265D01*
X117953172Y-77859062D01*
X117779062Y-78033172D01*
X117642265Y-78237903D01*
X117548037Y-78465389D01*
X117500000Y-78706886D01*
X115347080Y-78706886D01*
X115350000Y-78692209D01*
X115350000Y-78327791D01*
X115278905Y-77970375D01*
X115139448Y-77633697D01*
X114936989Y-77330694D01*
X114679306Y-77073011D01*
X114376303Y-76870552D01*
X114039625Y-76731095D01*
X113682209Y-76660000D01*
X113317791Y-76660000D01*
X112960375Y-76731095D01*
X112623697Y-76870552D01*
X112320694Y-77073011D01*
X112063011Y-77330694D01*
X111860552Y-77633697D01*
X111721095Y-77970375D01*
X111650000Y-78327791D01*
X109206667Y-78327791D01*
X109055872Y-78265330D01*
X108727435Y-78200000D01*
X108392565Y-78200000D01*
X108064128Y-78265330D01*
X107754748Y-78393479D01*
X107476313Y-78579523D01*
X107239523Y-78816313D01*
X107053479Y-79094748D01*
X106925330Y-79404128D01*
X106860000Y-79732565D01*
X77975000Y-79732565D01*
X77975000Y-77950000D01*
X87646855Y-77950000D01*
X87659405Y-78077422D01*
X87696573Y-78199948D01*
X87756930Y-78312868D01*
X87838157Y-78411843D01*
X87937132Y-78493070D01*
X88050052Y-78553427D01*
X88172578Y-78590595D01*
X88300000Y-78603145D01*
X89237500Y-78600000D01*
X89400000Y-78437500D01*
X89400000Y-76850000D01*
X89600000Y-76850000D01*
X89600000Y-78437500D01*
X89762500Y-78600000D01*
X90700000Y-78603145D01*
X90827422Y-78590595D01*
X90949948Y-78553427D01*
X91062868Y-78493070D01*
X91161843Y-78411843D01*
X91243070Y-78312868D01*
X91303427Y-78199948D01*
X91340595Y-78077422D01*
X91353145Y-77950000D01*
X91350000Y-77012500D01*
X91187500Y-76850000D01*
X89600000Y-76850000D01*
X89400000Y-76850000D01*
X87812500Y-76850000D01*
X87650000Y-77012500D01*
X87646855Y-77950000D01*
X77975000Y-77950000D01*
X77975000Y-75550000D01*
X87646855Y-75550000D01*
X87650000Y-76487500D01*
X87812500Y-76650000D01*
X89400000Y-76650000D01*
X89400000Y-75062500D01*
X89600000Y-75062500D01*
X89600000Y-76650000D01*
X91187500Y-76650000D01*
X91350000Y-76487500D01*
X91353145Y-75550000D01*
X91340595Y-75422578D01*
X91303427Y-75300052D01*
X91243070Y-75187132D01*
X91161843Y-75088157D01*
X91062868Y-75006930D01*
X90949948Y-74946573D01*
X90827422Y-74909405D01*
X90700000Y-74896855D01*
X89762500Y-74900000D01*
X89600000Y-75062500D01*
X89400000Y-75062500D01*
X89237500Y-74900000D01*
X88300000Y-74896855D01*
X88172578Y-74909405D01*
X88050052Y-74946573D01*
X87937132Y-75006930D01*
X87838157Y-75088157D01*
X87756930Y-75187132D01*
X87696573Y-75300052D01*
X87659405Y-75422578D01*
X87646855Y-75550000D01*
X77975000Y-75550000D01*
X77975000Y-73919078D01*
X97903292Y-73919078D01*
X98008654Y-74266418D01*
X98194709Y-74622626D01*
X98446681Y-74935692D01*
X98754888Y-75193585D01*
X99107485Y-75386394D01*
X99490922Y-75506710D01*
X99810000Y-75385062D01*
X99810000Y-73600000D01*
X100010000Y-73600000D01*
X100010000Y-75385062D01*
X100329078Y-75506710D01*
X100712515Y-75386394D01*
X101065112Y-75193585D01*
X101373319Y-74935692D01*
X101625291Y-74622626D01*
X101811346Y-74266418D01*
X101916708Y-73919078D01*
X101794849Y-73600000D01*
X100010000Y-73600000D01*
X99810000Y-73600000D01*
X98025151Y-73600000D01*
X97903292Y-73919078D01*
X77975000Y-73919078D01*
X77975000Y-73080922D01*
X97903292Y-73080922D01*
X98025151Y-73400000D01*
X99810000Y-73400000D01*
X99810000Y-71614938D01*
X100010000Y-71614938D01*
X100010000Y-73400000D01*
X101794849Y-73400000D01*
X101826245Y-73317791D01*
X113300000Y-73317791D01*
X113300000Y-73682209D01*
X113371095Y-74039625D01*
X113510552Y-74376303D01*
X113713011Y-74679306D01*
X113970694Y-74936989D01*
X114273697Y-75139448D01*
X114610375Y-75278905D01*
X114967791Y-75350000D01*
X115332209Y-75350000D01*
X115689625Y-75278905D01*
X116026303Y-75139448D01*
X116329306Y-74936989D01*
X116586989Y-74679306D01*
X116789448Y-74376303D01*
X116928905Y-74039625D01*
X117000000Y-73682209D01*
X117000000Y-73317791D01*
X116928905Y-72960375D01*
X116789448Y-72623697D01*
X116586989Y-72320694D01*
X116329306Y-72063011D01*
X116026303Y-71860552D01*
X115689625Y-71721095D01*
X115332209Y-71650000D01*
X114967791Y-71650000D01*
X114610375Y-71721095D01*
X114273697Y-71860552D01*
X113970694Y-72063011D01*
X113713011Y-72320694D01*
X113510552Y-72623697D01*
X113371095Y-72960375D01*
X113300000Y-73317791D01*
X101826245Y-73317791D01*
X101916708Y-73080922D01*
X101811346Y-72733582D01*
X101625291Y-72377374D01*
X101373319Y-72064308D01*
X101065112Y-71806415D01*
X100712515Y-71613606D01*
X100329078Y-71493290D01*
X100010000Y-71614938D01*
X99810000Y-71614938D01*
X99490922Y-71493290D01*
X99107485Y-71613606D01*
X98754888Y-71806415D01*
X98446681Y-72064308D01*
X98194709Y-72377374D01*
X98008654Y-72733582D01*
X97903292Y-73080922D01*
X77975000Y-73080922D01*
X77975000Y-69087489D01*
X87850000Y-69087489D01*
X87850000Y-69412511D01*
X87913408Y-69731287D01*
X88037789Y-70031568D01*
X88218361Y-70301814D01*
X88448186Y-70531639D01*
X88718432Y-70712211D01*
X89018713Y-70836592D01*
X89337489Y-70900000D01*
X89662511Y-70900000D01*
X89981287Y-70836592D01*
X90281568Y-70712211D01*
X90551814Y-70531639D01*
X90781639Y-70301814D01*
X90962211Y-70031568D01*
X91086592Y-69731287D01*
X91150000Y-69412511D01*
X91150000Y-69087489D01*
X91086592Y-68768713D01*
X91027846Y-68626886D01*
X109500000Y-68626886D01*
X109500000Y-68873114D01*
X109548037Y-69114611D01*
X109642265Y-69342097D01*
X109779062Y-69546828D01*
X109953172Y-69720938D01*
X110157903Y-69857735D01*
X110385389Y-69951963D01*
X110626886Y-70000000D01*
X110873114Y-70000000D01*
X111114611Y-69951963D01*
X111342097Y-69857735D01*
X111546828Y-69720938D01*
X111720938Y-69546828D01*
X111857735Y-69342097D01*
X111951963Y-69114611D01*
X112000000Y-68873114D01*
X112000000Y-68626886D01*
X114500000Y-68626886D01*
X114500000Y-68873114D01*
X114548037Y-69114611D01*
X114642265Y-69342097D01*
X114779062Y-69546828D01*
X114953172Y-69720938D01*
X115157903Y-69857735D01*
X115385389Y-69951963D01*
X115626886Y-70000000D01*
X115873114Y-70000000D01*
X116114611Y-69951963D01*
X116342097Y-69857735D01*
X116546828Y-69720938D01*
X116720938Y-69546828D01*
X116857735Y-69342097D01*
X116951963Y-69114611D01*
X117000000Y-68873114D01*
X117000000Y-68626886D01*
X116984087Y-68546886D01*
X117500000Y-68546886D01*
X117500000Y-68793114D01*
X117548037Y-69034611D01*
X117642265Y-69262097D01*
X117779062Y-69466828D01*
X117953172Y-69640938D01*
X118157903Y-69777735D01*
X118385389Y-69871963D01*
X118626886Y-69920000D01*
X118873114Y-69920000D01*
X119114611Y-69871963D01*
X119342097Y-69777735D01*
X119546828Y-69640938D01*
X119720938Y-69466828D01*
X119857735Y-69262097D01*
X119951963Y-69034611D01*
X120000000Y-68793114D01*
X120000000Y-68546886D01*
X120750000Y-68546886D01*
X120750000Y-68793114D01*
X120798037Y-69034611D01*
X120892265Y-69262097D01*
X121029062Y-69466828D01*
X121203172Y-69640938D01*
X121407903Y-69777735D01*
X121635389Y-69871963D01*
X121876886Y-69920000D01*
X122123114Y-69920000D01*
X122364611Y-69871963D01*
X122592097Y-69777735D01*
X122796828Y-69640938D01*
X122970938Y-69466828D01*
X123107735Y-69262097D01*
X123201963Y-69034611D01*
X123250000Y-68793114D01*
X123250000Y-68546886D01*
X124000000Y-68546886D01*
X124000000Y-68793114D01*
X124048037Y-69034611D01*
X124142265Y-69262097D01*
X124279062Y-69466828D01*
X124453172Y-69640938D01*
X124657903Y-69777735D01*
X124885389Y-69871963D01*
X125126886Y-69920000D01*
X125373114Y-69920000D01*
X125614611Y-69871963D01*
X125842097Y-69777735D01*
X126046828Y-69640938D01*
X126220938Y-69466828D01*
X126357735Y-69262097D01*
X126451963Y-69034611D01*
X126500000Y-68793114D01*
X126500000Y-68546886D01*
X127250000Y-68546886D01*
X127250000Y-68793114D01*
X127298037Y-69034611D01*
X127392265Y-69262097D01*
X127529062Y-69466828D01*
X127703172Y-69640938D01*
X127907903Y-69777735D01*
X128135389Y-69871963D01*
X128376886Y-69920000D01*
X128623114Y-69920000D01*
X128864611Y-69871963D01*
X129092097Y-69777735D01*
X129296828Y-69640938D01*
X129470938Y-69466828D01*
X129607735Y-69262097D01*
X129701963Y-69034611D01*
X129750000Y-68793114D01*
X129750000Y-68546886D01*
X130500000Y-68546886D01*
X130500000Y-68793114D01*
X130548037Y-69034611D01*
X130642265Y-69262097D01*
X130779062Y-69466828D01*
X130953172Y-69640938D01*
X131157903Y-69777735D01*
X131385389Y-69871963D01*
X131626886Y-69920000D01*
X131873114Y-69920000D01*
X132114611Y-69871963D01*
X132342097Y-69777735D01*
X132546828Y-69640938D01*
X132720938Y-69466828D01*
X132857735Y-69262097D01*
X132951963Y-69034611D01*
X133000000Y-68793114D01*
X133000000Y-68546886D01*
X133750000Y-68546886D01*
X133750000Y-68793114D01*
X133798037Y-69034611D01*
X133892265Y-69262097D01*
X134029062Y-69466828D01*
X134203172Y-69640938D01*
X134407903Y-69777735D01*
X134635389Y-69871963D01*
X134876886Y-69920000D01*
X135123114Y-69920000D01*
X135364611Y-69871963D01*
X135592097Y-69777735D01*
X135796828Y-69640938D01*
X135970938Y-69466828D01*
X136107735Y-69262097D01*
X136201963Y-69034611D01*
X136250000Y-68793114D01*
X136250000Y-68546886D01*
X136201963Y-68305389D01*
X136107735Y-68077903D01*
X135970938Y-67873172D01*
X135796828Y-67699062D01*
X135592097Y-67562265D01*
X135364611Y-67468037D01*
X135123114Y-67420000D01*
X134876886Y-67420000D01*
X134635389Y-67468037D01*
X134407903Y-67562265D01*
X134203172Y-67699062D01*
X134029062Y-67873172D01*
X133892265Y-68077903D01*
X133798037Y-68305389D01*
X133750000Y-68546886D01*
X133000000Y-68546886D01*
X132951963Y-68305389D01*
X132857735Y-68077903D01*
X132720938Y-67873172D01*
X132546828Y-67699062D01*
X132342097Y-67562265D01*
X132114611Y-67468037D01*
X131873114Y-67420000D01*
X131626886Y-67420000D01*
X131385389Y-67468037D01*
X131157903Y-67562265D01*
X130953172Y-67699062D01*
X130779062Y-67873172D01*
X130642265Y-68077903D01*
X130548037Y-68305389D01*
X130500000Y-68546886D01*
X129750000Y-68546886D01*
X129701963Y-68305389D01*
X129607735Y-68077903D01*
X129470938Y-67873172D01*
X129296828Y-67699062D01*
X129092097Y-67562265D01*
X128864611Y-67468037D01*
X128623114Y-67420000D01*
X128376886Y-67420000D01*
X128135389Y-67468037D01*
X127907903Y-67562265D01*
X127703172Y-67699062D01*
X127529062Y-67873172D01*
X127392265Y-68077903D01*
X127298037Y-68305389D01*
X127250000Y-68546886D01*
X126500000Y-68546886D01*
X126451963Y-68305389D01*
X126357735Y-68077903D01*
X126220938Y-67873172D01*
X126046828Y-67699062D01*
X125842097Y-67562265D01*
X125614611Y-67468037D01*
X125373114Y-67420000D01*
X125126886Y-67420000D01*
X124885389Y-67468037D01*
X124657903Y-67562265D01*
X124453172Y-67699062D01*
X124279062Y-67873172D01*
X124142265Y-68077903D01*
X124048037Y-68305389D01*
X124000000Y-68546886D01*
X123250000Y-68546886D01*
X123201963Y-68305389D01*
X123107735Y-68077903D01*
X122970938Y-67873172D01*
X122796828Y-67699062D01*
X122592097Y-67562265D01*
X122364611Y-67468037D01*
X122123114Y-67420000D01*
X121876886Y-67420000D01*
X121635389Y-67468037D01*
X121407903Y-67562265D01*
X121203172Y-67699062D01*
X121029062Y-67873172D01*
X120892265Y-68077903D01*
X120798037Y-68305389D01*
X120750000Y-68546886D01*
X120000000Y-68546886D01*
X119951963Y-68305389D01*
X119857735Y-68077903D01*
X119720938Y-67873172D01*
X119546828Y-67699062D01*
X119342097Y-67562265D01*
X119114611Y-67468037D01*
X118873114Y-67420000D01*
X118626886Y-67420000D01*
X118385389Y-67468037D01*
X118157903Y-67562265D01*
X117953172Y-67699062D01*
X117779062Y-67873172D01*
X117642265Y-68077903D01*
X117548037Y-68305389D01*
X117500000Y-68546886D01*
X116984087Y-68546886D01*
X116951963Y-68385389D01*
X116857735Y-68157903D01*
X116720938Y-67953172D01*
X116546828Y-67779062D01*
X116342097Y-67642265D01*
X116114611Y-67548037D01*
X115873114Y-67500000D01*
X115626886Y-67500000D01*
X115385389Y-67548037D01*
X115157903Y-67642265D01*
X114953172Y-67779062D01*
X114779062Y-67953172D01*
X114642265Y-68157903D01*
X114548037Y-68385389D01*
X114500000Y-68626886D01*
X112000000Y-68626886D01*
X111951963Y-68385389D01*
X111857735Y-68157903D01*
X111720938Y-67953172D01*
X111546828Y-67779062D01*
X111342097Y-67642265D01*
X111114611Y-67548037D01*
X110873114Y-67500000D01*
X110626886Y-67500000D01*
X110385389Y-67548037D01*
X110157903Y-67642265D01*
X109953172Y-67779062D01*
X109779062Y-67953172D01*
X109642265Y-68157903D01*
X109548037Y-68385389D01*
X109500000Y-68626886D01*
X91027846Y-68626886D01*
X90962211Y-68468432D01*
X90781639Y-68198186D01*
X90551814Y-67968361D01*
X90281568Y-67787789D01*
X89981287Y-67663408D01*
X89662511Y-67600000D01*
X89337489Y-67600000D01*
X89018713Y-67663408D01*
X88718432Y-67787789D01*
X88448186Y-67968361D01*
X88218361Y-68198186D01*
X88037789Y-68468432D01*
X87913408Y-68768713D01*
X87850000Y-69087489D01*
X77975000Y-69087489D01*
X77975000Y-65700000D01*
X101247823Y-65700000D01*
X101247823Y-67300000D01*
X101256511Y-67388215D01*
X101282243Y-67473041D01*
X101324029Y-67551216D01*
X101380263Y-67619737D01*
X101448784Y-67675971D01*
X101526959Y-67717757D01*
X101611785Y-67743489D01*
X101700000Y-67752177D01*
X103300000Y-67752177D01*
X103388215Y-67743489D01*
X103473041Y-67717757D01*
X103551216Y-67675971D01*
X103619737Y-67619737D01*
X103675971Y-67551216D01*
X103717757Y-67473041D01*
X103743489Y-67388215D01*
X103752177Y-67300000D01*
X103752177Y-65700000D01*
X103743489Y-65611785D01*
X103717757Y-65526959D01*
X103675971Y-65448784D01*
X103625049Y-65386735D01*
X106850000Y-65386735D01*
X106850000Y-65613265D01*
X106894194Y-65835443D01*
X106980884Y-66044729D01*
X107106737Y-66233082D01*
X107266918Y-66393263D01*
X107455271Y-66519116D01*
X107664557Y-66605806D01*
X107886735Y-66650000D01*
X108113265Y-66650000D01*
X108335443Y-66605806D01*
X108544729Y-66519116D01*
X108733082Y-66393263D01*
X108893263Y-66233082D01*
X109019116Y-66044729D01*
X109105806Y-65835443D01*
X109145331Y-65636735D01*
X118350000Y-65636735D01*
X118350000Y-65863265D01*
X118394194Y-66085443D01*
X118480884Y-66294729D01*
X118606737Y-66483082D01*
X118766918Y-66643263D01*
X118955271Y-66769116D01*
X119164557Y-66855806D01*
X119386735Y-66900000D01*
X119613265Y-66900000D01*
X119835443Y-66855806D01*
X120044729Y-66769116D01*
X120233082Y-66643263D01*
X120393263Y-66483082D01*
X120519116Y-66294729D01*
X120605806Y-66085443D01*
X120650000Y-65863265D01*
X120650000Y-65636735D01*
X120850000Y-65636735D01*
X120850000Y-65863265D01*
X120894194Y-66085443D01*
X120980884Y-66294729D01*
X121106737Y-66483082D01*
X121266918Y-66643263D01*
X121455271Y-66769116D01*
X121664557Y-66855806D01*
X121886735Y-66900000D01*
X122113265Y-66900000D01*
X122335443Y-66855806D01*
X122544729Y-66769116D01*
X122733082Y-66643263D01*
X122893263Y-66483082D01*
X123019116Y-66294729D01*
X123105806Y-66085443D01*
X123150000Y-65863265D01*
X123150000Y-65636735D01*
X131350000Y-65636735D01*
X131350000Y-65863265D01*
X131394194Y-66085443D01*
X131480884Y-66294729D01*
X131606737Y-66483082D01*
X131766918Y-66643263D01*
X131955271Y-66769116D01*
X132164557Y-66855806D01*
X132386735Y-66900000D01*
X132613265Y-66900000D01*
X132835443Y-66855806D01*
X133044729Y-66769116D01*
X133233082Y-66643263D01*
X133393263Y-66483082D01*
X133519116Y-66294729D01*
X133605806Y-66085443D01*
X133650000Y-65863265D01*
X133650000Y-65636735D01*
X133850000Y-65636735D01*
X133850000Y-65863265D01*
X133894194Y-66085443D01*
X133980884Y-66294729D01*
X134106737Y-66483082D01*
X134266918Y-66643263D01*
X134455271Y-66769116D01*
X134664557Y-66855806D01*
X134886735Y-66900000D01*
X135113265Y-66900000D01*
X135335443Y-66855806D01*
X135544729Y-66769116D01*
X135733082Y-66643263D01*
X135893263Y-66483082D01*
X136019116Y-66294729D01*
X136105806Y-66085443D01*
X136150000Y-65863265D01*
X136150000Y-65636735D01*
X136105806Y-65414557D01*
X136019116Y-65205271D01*
X135893263Y-65016918D01*
X135733082Y-64856737D01*
X135544729Y-64730884D01*
X135335443Y-64644194D01*
X135113265Y-64600000D01*
X134886735Y-64600000D01*
X134664557Y-64644194D01*
X134455271Y-64730884D01*
X134266918Y-64856737D01*
X134106737Y-65016918D01*
X133980884Y-65205271D01*
X133894194Y-65414557D01*
X133850000Y-65636735D01*
X133650000Y-65636735D01*
X133605806Y-65414557D01*
X133519116Y-65205271D01*
X133393263Y-65016918D01*
X133233082Y-64856737D01*
X133044729Y-64730884D01*
X132835443Y-64644194D01*
X132613265Y-64600000D01*
X132386735Y-64600000D01*
X132164557Y-64644194D01*
X131955271Y-64730884D01*
X131766918Y-64856737D01*
X131606737Y-65016918D01*
X131480884Y-65205271D01*
X131394194Y-65414557D01*
X131350000Y-65636735D01*
X123150000Y-65636735D01*
X123105806Y-65414557D01*
X123019116Y-65205271D01*
X122893263Y-65016918D01*
X122733082Y-64856737D01*
X122544729Y-64730884D01*
X122335443Y-64644194D01*
X122113265Y-64600000D01*
X121886735Y-64600000D01*
X121664557Y-64644194D01*
X121455271Y-64730884D01*
X121266918Y-64856737D01*
X121106737Y-65016918D01*
X120980884Y-65205271D01*
X120894194Y-65414557D01*
X120850000Y-65636735D01*
X120650000Y-65636735D01*
X120605806Y-65414557D01*
X120519116Y-65205271D01*
X120393263Y-65016918D01*
X120233082Y-64856737D01*
X120044729Y-64730884D01*
X119835443Y-64644194D01*
X119613265Y-64600000D01*
X119386735Y-64600000D01*
X119164557Y-64644194D01*
X118955271Y-64730884D01*
X118766918Y-64856737D01*
X118606737Y-65016918D01*
X118480884Y-65205271D01*
X118394194Y-65414557D01*
X118350000Y-65636735D01*
X109145331Y-65636735D01*
X109150000Y-65613265D01*
X109150000Y-65386735D01*
X109105806Y-65164557D01*
X109019116Y-64955271D01*
X108893263Y-64766918D01*
X108733082Y-64606737D01*
X108544729Y-64480884D01*
X108335443Y-64394194D01*
X108113265Y-64350000D01*
X108089701Y-64350000D01*
X108310399Y-64320542D01*
X108562061Y-64234613D01*
X108714278Y-64153250D01*
X108770631Y-63912052D01*
X108000000Y-63141421D01*
X107229369Y-63912052D01*
X107285722Y-64153250D01*
X107524435Y-64270440D01*
X107781423Y-64338807D01*
X107957004Y-64350000D01*
X107886735Y-64350000D01*
X107664557Y-64394194D01*
X107455271Y-64480884D01*
X107266918Y-64606737D01*
X107106737Y-64766918D01*
X106980884Y-64955271D01*
X106894194Y-65164557D01*
X106850000Y-65386735D01*
X103625049Y-65386735D01*
X103619737Y-65380263D01*
X103551216Y-65324029D01*
X103473041Y-65282243D01*
X103388215Y-65256511D01*
X103300000Y-65247823D01*
X103249033Y-65247823D01*
X103273491Y-65234750D01*
X103341915Y-64983337D01*
X102500000Y-64141421D01*
X101658085Y-64983337D01*
X101726509Y-65234750D01*
X101752799Y-65247823D01*
X101700000Y-65247823D01*
X101611785Y-65256511D01*
X101526959Y-65282243D01*
X101448784Y-65324029D01*
X101380263Y-65380263D01*
X101324029Y-65448784D01*
X101282243Y-65526959D01*
X101256511Y-65611785D01*
X101247823Y-65700000D01*
X77975000Y-65700000D01*
X77975000Y-64050000D01*
X94046855Y-64050000D01*
X94059405Y-64177422D01*
X94096573Y-64299948D01*
X94156930Y-64412868D01*
X94238157Y-64511843D01*
X94337132Y-64593070D01*
X94450052Y-64653427D01*
X94572578Y-64690595D01*
X94700000Y-64703145D01*
X95237500Y-64700000D01*
X95400000Y-64537500D01*
X95400000Y-63350000D01*
X95600000Y-63350000D01*
X95600000Y-64537500D01*
X95762500Y-64700000D01*
X96300000Y-64703145D01*
X96427422Y-64690595D01*
X96549948Y-64653427D01*
X96662868Y-64593070D01*
X96761843Y-64511843D01*
X96843070Y-64412868D01*
X96903427Y-64299948D01*
X96940595Y-64177422D01*
X96953145Y-64050000D01*
X96953104Y-64042856D01*
X101043614Y-64042856D01*
X101079958Y-64326159D01*
X101170875Y-64596928D01*
X101265250Y-64773491D01*
X101516663Y-64841915D01*
X102358579Y-64000000D01*
X102641421Y-64000000D01*
X103483337Y-64841915D01*
X103734750Y-64773491D01*
X103861925Y-64517741D01*
X103936762Y-64242094D01*
X103956386Y-63957144D01*
X103920042Y-63673841D01*
X103829125Y-63403072D01*
X103734750Y-63226509D01*
X103483337Y-63158085D01*
X102641421Y-64000000D01*
X102358579Y-64000000D01*
X101516663Y-63158085D01*
X101265250Y-63226509D01*
X101138075Y-63482259D01*
X101063238Y-63757906D01*
X101043614Y-64042856D01*
X96953104Y-64042856D01*
X96950000Y-63512500D01*
X96787500Y-63350000D01*
X95600000Y-63350000D01*
X95400000Y-63350000D01*
X94212500Y-63350000D01*
X94050000Y-63512500D01*
X94046855Y-64050000D01*
X77975000Y-64050000D01*
X77975000Y-63150000D01*
X84750000Y-63150000D01*
X84779264Y-63147118D01*
X84807403Y-63138582D01*
X84833336Y-63124720D01*
X84856066Y-63106066D01*
X85356066Y-62606066D01*
X85374720Y-62583336D01*
X85388582Y-62557403D01*
X85397118Y-62529264D01*
X85400000Y-62500000D01*
X85400000Y-62450000D01*
X94046855Y-62450000D01*
X94050000Y-62987500D01*
X94212500Y-63150000D01*
X95400000Y-63150000D01*
X95400000Y-61962500D01*
X95600000Y-61962500D01*
X95600000Y-63150000D01*
X96787500Y-63150000D01*
X96920837Y-63016663D01*
X101658085Y-63016663D01*
X102500000Y-63858579D01*
X103311768Y-63046810D01*
X106644275Y-63046810D01*
X106679458Y-63310399D01*
X106765387Y-63562061D01*
X106846750Y-63714278D01*
X107087948Y-63770631D01*
X107858579Y-63000000D01*
X108141421Y-63000000D01*
X108912052Y-63770631D01*
X109153250Y-63714278D01*
X109270440Y-63475565D01*
X109338807Y-63218577D01*
X109355725Y-62953190D01*
X109320542Y-62689601D01*
X109234613Y-62437939D01*
X109153250Y-62285722D01*
X108912052Y-62229369D01*
X108141421Y-63000000D01*
X107858579Y-63000000D01*
X107087948Y-62229369D01*
X106846750Y-62285722D01*
X106729560Y-62524435D01*
X106661193Y-62781423D01*
X106644275Y-63046810D01*
X103311768Y-63046810D01*
X103341915Y-63016663D01*
X103273491Y-62765250D01*
X103017741Y-62638075D01*
X102742094Y-62563238D01*
X102457144Y-62543614D01*
X102173841Y-62579958D01*
X101903072Y-62670875D01*
X101726509Y-62765250D01*
X101658085Y-63016663D01*
X96920837Y-63016663D01*
X96950000Y-62987500D01*
X96953145Y-62450000D01*
X96940595Y-62322578D01*
X96903427Y-62200052D01*
X96843507Y-62087948D01*
X107229369Y-62087948D01*
X108000000Y-62858579D01*
X108770631Y-62087948D01*
X108714278Y-61846750D01*
X108475565Y-61729560D01*
X108218577Y-61661193D01*
X107953190Y-61644275D01*
X107689601Y-61679458D01*
X107437939Y-61765387D01*
X107285722Y-61846750D01*
X107229369Y-62087948D01*
X96843507Y-62087948D01*
X96843070Y-62087132D01*
X96761843Y-61988157D01*
X96662868Y-61906930D01*
X96549948Y-61846573D01*
X96427422Y-61809405D01*
X96300000Y-61796855D01*
X95762500Y-61800000D01*
X95600000Y-61962500D01*
X95400000Y-61962500D01*
X95237500Y-61800000D01*
X94700000Y-61796855D01*
X94572578Y-61809405D01*
X94450052Y-61846573D01*
X94337132Y-61906930D01*
X94238157Y-61988157D01*
X94156930Y-62087132D01*
X94096573Y-62200052D01*
X94059405Y-62322578D01*
X94046855Y-62450000D01*
X85400000Y-62450000D01*
X85400000Y-54876886D01*
X86670000Y-54876886D01*
X86670000Y-55123114D01*
X86718037Y-55364611D01*
X86812265Y-55592097D01*
X86949062Y-55796828D01*
X87123172Y-55970938D01*
X87327903Y-56107735D01*
X87555389Y-56201963D01*
X87796886Y-56250000D01*
X88043114Y-56250000D01*
X88284611Y-56201963D01*
X88512097Y-56107735D01*
X88716828Y-55970938D01*
X88890938Y-55796828D01*
X89027735Y-55592097D01*
X89121963Y-55364611D01*
X89170000Y-55123114D01*
X89170000Y-54876886D01*
X89121963Y-54635389D01*
X89027735Y-54407903D01*
X88890938Y-54203172D01*
X88716828Y-54029062D01*
X88512097Y-53892265D01*
X88284611Y-53798037D01*
X88043114Y-53750000D01*
X87796886Y-53750000D01*
X87555389Y-53798037D01*
X87327903Y-53892265D01*
X87123172Y-54029062D01*
X86949062Y-54203172D01*
X86812265Y-54407903D01*
X86718037Y-54635389D01*
X86670000Y-54876886D01*
X85400000Y-54876886D01*
X85400000Y-52975000D01*
X99256472Y-52975000D01*
X98435290Y-53796183D01*
G37*
X98435290Y-53796183D02*
X98203114Y-53750000D01*
X97956886Y-53750000D01*
X97715389Y-53798037D01*
X97487903Y-53892265D01*
X97283172Y-54029062D01*
X97109062Y-54203172D01*
X96972265Y-54407903D01*
X96878037Y-54635389D01*
X96830000Y-54876886D01*
X96830000Y-55123114D01*
X96876183Y-55355289D01*
X95096582Y-57134891D01*
X95073684Y-57153683D01*
X94998705Y-57245045D01*
X94979714Y-57280575D01*
X94942991Y-57349279D01*
X94908682Y-57462380D01*
X94897097Y-57580000D01*
X94900001Y-57609483D01*
X94900001Y-58647545D01*
X94703172Y-58779062D01*
X94529062Y-58953172D01*
X94392265Y-59157903D01*
X94298037Y-59385389D01*
X94250000Y-59626886D01*
X94250000Y-59873114D01*
X94298037Y-60114611D01*
X94392265Y-60342097D01*
X94529062Y-60546828D01*
X94703172Y-60720938D01*
X94907903Y-60857735D01*
X95135389Y-60951963D01*
X95376886Y-61000000D01*
X95623114Y-61000000D01*
X95864611Y-60951963D01*
X96092097Y-60857735D01*
X96296828Y-60720938D01*
X96470938Y-60546828D01*
X96607735Y-60342097D01*
X96701963Y-60114611D01*
X96714814Y-60050000D01*
X101046855Y-60050000D01*
X101059405Y-60177422D01*
X101096573Y-60299948D01*
X101156930Y-60412868D01*
X101238157Y-60511843D01*
X101337132Y-60593070D01*
X101450052Y-60653427D01*
X101572578Y-60690595D01*
X101700000Y-60703145D01*
X102237500Y-60700000D01*
X102400000Y-60537500D01*
X102400000Y-59350000D01*
X102600000Y-59350000D01*
X102600000Y-60537500D01*
X102762500Y-60700000D01*
X103300000Y-60703145D01*
X103427422Y-60690595D01*
X103521515Y-60662052D01*
X107229369Y-60662052D01*
X107285722Y-60903250D01*
X107524435Y-61020440D01*
X107781423Y-61088807D01*
X108046810Y-61105725D01*
X108310399Y-61070542D01*
X108562061Y-60984613D01*
X108714278Y-60903250D01*
X108770631Y-60662052D01*
X108708579Y-60600000D01*
X110397823Y-60600000D01*
X110397823Y-62400000D01*
X110406511Y-62488215D01*
X110432243Y-62573041D01*
X110474029Y-62651216D01*
X110530263Y-62719737D01*
X110598784Y-62775971D01*
X110676959Y-62817757D01*
X110761785Y-62843489D01*
X110850000Y-62852177D01*
X112650000Y-62852177D01*
X112738215Y-62843489D01*
X112823041Y-62817757D01*
X112901216Y-62775971D01*
X112969737Y-62719737D01*
X113025971Y-62651216D01*
X113067757Y-62573041D01*
X113093489Y-62488215D01*
X113102177Y-62400000D01*
X113102177Y-61367037D01*
X113800000Y-61367037D01*
X113800000Y-61632963D01*
X113851880Y-61893780D01*
X113953646Y-62139465D01*
X114101387Y-62360575D01*
X114289425Y-62548613D01*
X114510535Y-62696354D01*
X114756220Y-62798120D01*
X115017037Y-62850000D01*
X115282963Y-62850000D01*
X115543780Y-62798120D01*
X115789465Y-62696354D01*
X116010575Y-62548613D01*
X116198613Y-62360575D01*
X116346354Y-62139465D01*
X116448120Y-61893780D01*
X116500000Y-61632963D01*
X116500000Y-61367037D01*
X117200000Y-61367037D01*
X117200000Y-61632963D01*
X117251880Y-61893780D01*
X117353646Y-62139465D01*
X117501387Y-62360575D01*
X117689425Y-62548613D01*
X117910535Y-62696354D01*
X118156220Y-62798120D01*
X118417037Y-62850000D01*
X118682963Y-62850000D01*
X118943780Y-62798120D01*
X119189465Y-62696354D01*
X119410575Y-62548613D01*
X119598613Y-62360575D01*
X119746354Y-62139465D01*
X119848120Y-61893780D01*
X119858670Y-61840737D01*
X120437916Y-61840737D01*
X120503443Y-62056758D01*
X120639856Y-62328269D01*
X120826617Y-62567951D01*
X121056549Y-62766592D01*
X121320816Y-62916558D01*
X121609262Y-63012087D01*
X121850000Y-62884274D01*
X121850000Y-61600000D01*
X122050000Y-61600000D01*
X122050000Y-62884274D01*
X122290738Y-63012087D01*
X122579184Y-62916558D01*
X122843451Y-62766592D01*
X123073383Y-62567951D01*
X123260144Y-62328269D01*
X123396557Y-62056758D01*
X123462084Y-61840737D01*
X123333892Y-61600000D01*
X122050000Y-61600000D01*
X121850000Y-61600000D01*
X120566108Y-61600000D01*
X120437916Y-61840737D01*
X119858670Y-61840737D01*
X119900000Y-61632963D01*
X119900000Y-61367037D01*
X119858671Y-61159263D01*
X120437916Y-61159263D01*
X120566108Y-61400000D01*
X121850000Y-61400000D01*
X121850000Y-60115726D01*
X122050000Y-60115726D01*
X122050000Y-61400000D01*
X123333892Y-61400000D01*
X123351444Y-61367037D01*
X124000000Y-61367037D01*
X124000000Y-61632963D01*
X124051880Y-61893780D01*
X124153646Y-62139465D01*
X124301387Y-62360575D01*
X124489425Y-62548613D01*
X124710535Y-62696354D01*
X124956220Y-62798120D01*
X125217037Y-62850000D01*
X125482963Y-62850000D01*
X125743780Y-62798120D01*
X125989465Y-62696354D01*
X126210575Y-62548613D01*
X126398613Y-62360575D01*
X126546354Y-62139465D01*
X126648120Y-61893780D01*
X126700000Y-61632963D01*
X126700000Y-61367037D01*
X127400000Y-61367037D01*
X127400000Y-61632963D01*
X127451880Y-61893780D01*
X127553646Y-62139465D01*
X127701387Y-62360575D01*
X127889425Y-62548613D01*
X128110535Y-62696354D01*
X128356220Y-62798120D01*
X128617037Y-62850000D01*
X128882963Y-62850000D01*
X129143780Y-62798120D01*
X129389465Y-62696354D01*
X129610575Y-62548613D01*
X129798613Y-62360575D01*
X129946354Y-62139465D01*
X130048120Y-61893780D01*
X130100000Y-61632963D01*
X130100000Y-61367037D01*
X130048120Y-61106220D01*
X129946354Y-60860535D01*
X129798613Y-60639425D01*
X129610575Y-60451387D01*
X129389465Y-60303646D01*
X129143780Y-60201880D01*
X128882963Y-60150000D01*
X128617037Y-60150000D01*
X128356220Y-60201880D01*
X128110535Y-60303646D01*
X127889425Y-60451387D01*
X127701387Y-60639425D01*
X127553646Y-60860535D01*
X127451880Y-61106220D01*
X127400000Y-61367037D01*
X126700000Y-61367037D01*
X126648120Y-61106220D01*
X126546354Y-60860535D01*
X126398613Y-60639425D01*
X126210575Y-60451387D01*
X125989465Y-60303646D01*
X125743780Y-60201880D01*
X125482963Y-60150000D01*
X125217037Y-60150000D01*
X124956220Y-60201880D01*
X124710535Y-60303646D01*
X124489425Y-60451387D01*
X124301387Y-60639425D01*
X124153646Y-60860535D01*
X124051880Y-61106220D01*
X124000000Y-61367037D01*
X123351444Y-61367037D01*
X123462084Y-61159263D01*
X123396557Y-60943242D01*
X123260144Y-60671731D01*
X123073383Y-60432049D01*
X122843451Y-60233408D01*
X122579184Y-60083442D01*
X122290738Y-59987913D01*
X122050000Y-60115726D01*
X121850000Y-60115726D01*
X121609262Y-59987913D01*
X121320816Y-60083442D01*
X121056549Y-60233408D01*
X120826617Y-60432049D01*
X120639856Y-60671731D01*
X120503443Y-60943242D01*
X120437916Y-61159263D01*
X119858671Y-61159263D01*
X119848120Y-61106220D01*
X119746354Y-60860535D01*
X119598613Y-60639425D01*
X119410575Y-60451387D01*
X119189465Y-60303646D01*
X118943780Y-60201880D01*
X118682963Y-60150000D01*
X118417037Y-60150000D01*
X118156220Y-60201880D01*
X117910535Y-60303646D01*
X117689425Y-60451387D01*
X117501387Y-60639425D01*
X117353646Y-60860535D01*
X117251880Y-61106220D01*
X117200000Y-61367037D01*
X116500000Y-61367037D01*
X116448120Y-61106220D01*
X116346354Y-60860535D01*
X116198613Y-60639425D01*
X116010575Y-60451387D01*
X115789465Y-60303646D01*
X115543780Y-60201880D01*
X115282963Y-60150000D01*
X115017037Y-60150000D01*
X114756220Y-60201880D01*
X114510535Y-60303646D01*
X114289425Y-60451387D01*
X114101387Y-60639425D01*
X113953646Y-60860535D01*
X113851880Y-61106220D01*
X113800000Y-61367037D01*
X113102177Y-61367037D01*
X113102177Y-60600000D01*
X113093489Y-60511785D01*
X113067757Y-60426959D01*
X113025971Y-60348784D01*
X112969737Y-60280263D01*
X112901216Y-60224029D01*
X112823041Y-60182243D01*
X112738215Y-60156511D01*
X112650000Y-60147823D01*
X110850000Y-60147823D01*
X110761785Y-60156511D01*
X110676959Y-60182243D01*
X110598784Y-60224029D01*
X110530263Y-60280263D01*
X110474029Y-60348784D01*
X110432243Y-60426959D01*
X110406511Y-60511785D01*
X110397823Y-60600000D01*
X108708579Y-60600000D01*
X108000000Y-59891421D01*
X107229369Y-60662052D01*
X103521515Y-60662052D01*
X103549948Y-60653427D01*
X103662868Y-60593070D01*
X103761843Y-60511843D01*
X103843070Y-60412868D01*
X103903427Y-60299948D01*
X103940595Y-60177422D01*
X103953145Y-60050000D01*
X103951664Y-59796810D01*
X106644275Y-59796810D01*
X106679458Y-60060399D01*
X106765387Y-60312061D01*
X106846750Y-60464278D01*
X107087948Y-60520631D01*
X107858579Y-59750000D01*
X108141421Y-59750000D01*
X108912052Y-60520631D01*
X109153250Y-60464278D01*
X109270440Y-60225565D01*
X109338807Y-59968577D01*
X109355725Y-59703190D01*
X109320542Y-59439601D01*
X109234613Y-59187939D01*
X109153250Y-59035722D01*
X108912052Y-58979369D01*
X108141421Y-59750000D01*
X107858579Y-59750000D01*
X107087948Y-58979369D01*
X106846750Y-59035722D01*
X106729560Y-59274435D01*
X106661193Y-59531423D01*
X106644275Y-59796810D01*
X103951664Y-59796810D01*
X103950000Y-59512500D01*
X103787500Y-59350000D01*
X102600000Y-59350000D01*
X102400000Y-59350000D01*
X101212500Y-59350000D01*
X101050000Y-59512500D01*
X101046855Y-60050000D01*
X96714814Y-60050000D01*
X96750000Y-59873114D01*
X96750000Y-59626886D01*
X96701963Y-59385389D01*
X96607735Y-59157903D01*
X96470938Y-58953172D01*
X96296828Y-58779062D01*
X96100000Y-58647546D01*
X96100000Y-58450000D01*
X101046855Y-58450000D01*
X101050000Y-58987500D01*
X101212500Y-59150000D01*
X102400000Y-59150000D01*
X102400000Y-59130000D01*
X102600000Y-59130000D01*
X102600000Y-59150000D01*
X103787500Y-59150000D01*
X103950000Y-58987500D01*
X103953145Y-58450000D01*
X103940595Y-58322578D01*
X103903427Y-58200052D01*
X103843070Y-58087132D01*
X103761843Y-57988157D01*
X103662868Y-57906930D01*
X103549948Y-57846573D01*
X103427422Y-57809405D01*
X103300000Y-57796855D01*
X103182179Y-57797544D01*
X103296828Y-57720938D01*
X103470938Y-57546828D01*
X103607735Y-57342097D01*
X103692798Y-57136735D01*
X106850000Y-57136735D01*
X106850000Y-57363265D01*
X106894194Y-57585443D01*
X106980884Y-57794729D01*
X107106737Y-57983082D01*
X107266918Y-58143263D01*
X107455271Y-58269116D01*
X107664557Y-58355806D01*
X107886735Y-58400000D01*
X107910299Y-58400000D01*
X107689601Y-58429458D01*
X107437939Y-58515387D01*
X107285722Y-58596750D01*
X107229369Y-58837948D01*
X108000000Y-59608579D01*
X108721844Y-58886735D01*
X131100000Y-58886735D01*
X131100000Y-59113265D01*
X131144194Y-59335443D01*
X131230884Y-59544729D01*
X131356737Y-59733082D01*
X131516918Y-59893263D01*
X131705271Y-60019116D01*
X131914557Y-60105806D01*
X132136735Y-60150000D01*
X132363265Y-60150000D01*
X132585443Y-60105806D01*
X132794729Y-60019116D01*
X132983082Y-59893263D01*
X133143263Y-59733082D01*
X133269116Y-59544729D01*
X133355806Y-59335443D01*
X133400000Y-59113265D01*
X133400000Y-58886735D01*
X133355806Y-58664557D01*
X133269116Y-58455271D01*
X133143263Y-58266918D01*
X132983082Y-58106737D01*
X132794729Y-57980884D01*
X132585443Y-57894194D01*
X132363265Y-57850000D01*
X132136735Y-57850000D01*
X131914557Y-57894194D01*
X131705271Y-57980884D01*
X131516918Y-58106737D01*
X131356737Y-58266918D01*
X131230884Y-58455271D01*
X131144194Y-58664557D01*
X131100000Y-58886735D01*
X108721844Y-58886735D01*
X108770631Y-58837948D01*
X108714278Y-58596750D01*
X108475565Y-58479560D01*
X108218577Y-58411193D01*
X108042996Y-58400000D01*
X108113265Y-58400000D01*
X108335443Y-58355806D01*
X108544729Y-58269116D01*
X108733082Y-58143263D01*
X108893263Y-57983082D01*
X109019116Y-57794729D01*
X109105806Y-57585443D01*
X109150000Y-57363265D01*
X109150000Y-57136735D01*
X109105806Y-56914557D01*
X109019116Y-56705271D01*
X108893263Y-56516918D01*
X108733082Y-56356737D01*
X108628769Y-56287037D01*
X112100000Y-56287037D01*
X112100000Y-56552963D01*
X112151880Y-56813780D01*
X112253646Y-57059465D01*
X112401387Y-57280575D01*
X112589425Y-57468613D01*
X112810535Y-57616354D01*
X113056220Y-57718120D01*
X113317037Y-57770000D01*
X113582963Y-57770000D01*
X113843780Y-57718120D01*
X114089465Y-57616354D01*
X114310575Y-57468613D01*
X114498613Y-57280575D01*
X114646354Y-57059465D01*
X114748120Y-56813780D01*
X114800000Y-56552963D01*
X114800000Y-56287037D01*
X115500000Y-56287037D01*
X115500000Y-56552963D01*
X115551880Y-56813780D01*
X115653646Y-57059465D01*
X115801387Y-57280575D01*
X115989425Y-57468613D01*
X116210535Y-57616354D01*
X116456220Y-57718120D01*
X116717037Y-57770000D01*
X116982963Y-57770000D01*
X117243780Y-57718120D01*
X117489465Y-57616354D01*
X117710575Y-57468613D01*
X117898613Y-57280575D01*
X118046354Y-57059465D01*
X118148120Y-56813780D01*
X118200000Y-56552963D01*
X118200000Y-56287037D01*
X118900000Y-56287037D01*
X118900000Y-56552963D01*
X118951880Y-56813780D01*
X119053646Y-57059465D01*
X119201387Y-57280575D01*
X119389425Y-57468613D01*
X119610535Y-57616354D01*
X119856220Y-57718120D01*
X120117037Y-57770000D01*
X120382963Y-57770000D01*
X120643780Y-57718120D01*
X120889465Y-57616354D01*
X121110575Y-57468613D01*
X121298613Y-57280575D01*
X121446354Y-57059465D01*
X121548120Y-56813780D01*
X121600000Y-56552963D01*
X121600000Y-56287037D01*
X121548120Y-56026220D01*
X121446354Y-55780535D01*
X121298613Y-55559425D01*
X121110575Y-55371387D01*
X120889465Y-55223646D01*
X120643780Y-55121880D01*
X120382963Y-55070000D01*
X120117037Y-55070000D01*
X119856220Y-55121880D01*
X119610535Y-55223646D01*
X119389425Y-55371387D01*
X119201387Y-55559425D01*
X119053646Y-55780535D01*
X118951880Y-56026220D01*
X118900000Y-56287037D01*
X118200000Y-56287037D01*
X118148120Y-56026220D01*
X118046354Y-55780535D01*
X117898613Y-55559425D01*
X117710575Y-55371387D01*
X117489465Y-55223646D01*
X117243780Y-55121880D01*
X116982963Y-55070000D01*
X116717037Y-55070000D01*
X116456220Y-55121880D01*
X116210535Y-55223646D01*
X115989425Y-55371387D01*
X115801387Y-55559425D01*
X115653646Y-55780535D01*
X115551880Y-56026220D01*
X115500000Y-56287037D01*
X114800000Y-56287037D01*
X114748120Y-56026220D01*
X114646354Y-55780535D01*
X114498613Y-55559425D01*
X114310575Y-55371387D01*
X114089465Y-55223646D01*
X113843780Y-55121880D01*
X113582963Y-55070000D01*
X113317037Y-55070000D01*
X113056220Y-55121880D01*
X112810535Y-55223646D01*
X112589425Y-55371387D01*
X112401387Y-55559425D01*
X112253646Y-55780535D01*
X112151880Y-56026220D01*
X112100000Y-56287037D01*
X108628769Y-56287037D01*
X108544729Y-56230884D01*
X108335443Y-56144194D01*
X108113265Y-56100000D01*
X107886735Y-56100000D01*
X107664557Y-56144194D01*
X107455271Y-56230884D01*
X107266918Y-56356737D01*
X107106737Y-56516918D01*
X106980884Y-56705271D01*
X106894194Y-56914557D01*
X106850000Y-57136735D01*
X103692798Y-57136735D01*
X103701963Y-57114611D01*
X103750000Y-56873114D01*
X103750000Y-56626886D01*
X103701963Y-56385389D01*
X103607735Y-56157903D01*
X103470938Y-55953172D01*
X103296828Y-55779062D01*
X103092097Y-55642265D01*
X102864611Y-55548037D01*
X102623114Y-55500000D01*
X102376886Y-55500000D01*
X102135389Y-55548037D01*
X101907903Y-55642265D01*
X101703172Y-55779062D01*
X101529062Y-55953172D01*
X101392265Y-56157903D01*
X101298037Y-56385389D01*
X101250000Y-56626886D01*
X101250000Y-56873114D01*
X101298037Y-57114611D01*
X101392265Y-57342097D01*
X101529062Y-57546828D01*
X101703172Y-57720938D01*
X101817821Y-57797544D01*
X101700000Y-57796855D01*
X101572578Y-57809405D01*
X101450052Y-57846573D01*
X101337132Y-57906930D01*
X101238157Y-57988157D01*
X101156930Y-58087132D01*
X101096573Y-58200052D01*
X101059405Y-58322578D01*
X101046855Y-58450000D01*
X96100000Y-58450000D01*
X96100000Y-57828527D01*
X97724711Y-56203817D01*
X97956886Y-56250000D01*
X98203114Y-56250000D01*
X98444611Y-56201963D01*
X98672097Y-56107735D01*
X98876828Y-55970938D01*
X99050938Y-55796828D01*
X99187735Y-55592097D01*
X99281963Y-55364611D01*
X99330000Y-55123114D01*
X99330000Y-54876886D01*
X99283817Y-54644710D01*
X100328528Y-53600000D01*
X119981473Y-53600000D01*
X122368227Y-55986755D01*
X122351880Y-56026220D01*
X122300000Y-56287037D01*
X122300000Y-56552963D01*
X122351880Y-56813780D01*
X122453646Y-57059465D01*
X122601387Y-57280575D01*
X122789425Y-57468613D01*
X123010535Y-57616354D01*
X123256220Y-57718120D01*
X123517037Y-57770000D01*
X123782963Y-57770000D01*
X124043780Y-57718120D01*
X124289465Y-57616354D01*
X124510575Y-57468613D01*
X124698613Y-57280575D01*
X124846354Y-57059465D01*
X124948120Y-56813780D01*
X125000000Y-56552963D01*
X125000000Y-56287037D01*
X125700000Y-56287037D01*
X125700000Y-56552963D01*
X125751880Y-56813780D01*
X125853646Y-57059465D01*
X126001387Y-57280575D01*
X126189425Y-57468613D01*
X126410535Y-57616354D01*
X126656220Y-57718120D01*
X126917037Y-57770000D01*
X127182963Y-57770000D01*
X127443780Y-57718120D01*
X127689465Y-57616354D01*
X127910575Y-57468613D01*
X128098613Y-57280575D01*
X128246354Y-57059465D01*
X128348120Y-56813780D01*
X128400000Y-56552963D01*
X128400000Y-56386735D01*
X131100000Y-56386735D01*
X131100000Y-56613265D01*
X131144194Y-56835443D01*
X131230884Y-57044729D01*
X131356737Y-57233082D01*
X131516918Y-57393263D01*
X131705271Y-57519116D01*
X131914557Y-57605806D01*
X132136735Y-57650000D01*
X132363265Y-57650000D01*
X132585443Y-57605806D01*
X132794729Y-57519116D01*
X132983082Y-57393263D01*
X133143263Y-57233082D01*
X133269116Y-57044729D01*
X133355806Y-56835443D01*
X133400000Y-56613265D01*
X133400000Y-56386735D01*
X133355806Y-56164557D01*
X133269116Y-55955271D01*
X133143263Y-55766918D01*
X132983082Y-55606737D01*
X132794729Y-55480884D01*
X132585443Y-55394194D01*
X132363265Y-55350000D01*
X132136735Y-55350000D01*
X131914557Y-55394194D01*
X131705271Y-55480884D01*
X131516918Y-55606737D01*
X131356737Y-55766918D01*
X131230884Y-55955271D01*
X131144194Y-56164557D01*
X131100000Y-56386735D01*
X128400000Y-56386735D01*
X128400000Y-56287037D01*
X128348120Y-56026220D01*
X128246354Y-55780535D01*
X128098613Y-55559425D01*
X127910575Y-55371387D01*
X127689465Y-55223646D01*
X127443780Y-55121880D01*
X127182963Y-55070000D01*
X126917037Y-55070000D01*
X126656220Y-55121880D01*
X126410535Y-55223646D01*
X126189425Y-55371387D01*
X126001387Y-55559425D01*
X125853646Y-55780535D01*
X125751880Y-56026220D01*
X125700000Y-56287037D01*
X125000000Y-56287037D01*
X124948120Y-56026220D01*
X124846354Y-55780535D01*
X124698613Y-55559425D01*
X124510575Y-55371387D01*
X124289465Y-55223646D01*
X124043780Y-55121880D01*
X123782963Y-55070000D01*
X123517037Y-55070000D01*
X123256220Y-55121880D01*
X123216755Y-55138227D01*
X121053527Y-52975000D01*
X134600000Y-52975000D01*
X134600000Y-62500000D01*
X134602882Y-62529264D01*
X134611418Y-62557403D01*
X134625280Y-62583336D01*
X134643934Y-62606066D01*
X135143934Y-63106066D01*
X135166664Y-63124720D01*
X135192597Y-63138582D01*
X135220736Y-63147118D01*
X135250000Y-63150000D01*
X142025001Y-63150000D01*
X142025000Y-104041573D01*
X141818165Y-103732022D01*
X141267978Y-103181835D01*
X140621026Y-102749556D01*
X139902172Y-102451797D01*
X139139041Y-102300000D01*
X138360959Y-102300000D01*
X137597828Y-102451797D01*
X136878974Y-102749556D01*
X136232022Y-103181835D01*
X135681835Y-103732022D01*
X135249556Y-104378974D01*
X134951797Y-105097828D01*
X134800000Y-105860959D01*
X134800000Y-106639041D01*
X134951797Y-107402172D01*
X135249556Y-108121026D01*
X135681835Y-108767978D01*
X136232022Y-109318165D01*
X136541573Y-109525000D01*
X83458427Y-109525000D01*
X83767978Y-109318165D01*
X84318165Y-108767978D01*
X84750444Y-108121026D01*
X85048203Y-107402172D01*
X85200000Y-106639041D01*
X85200000Y-105860959D01*
X85048203Y-105097828D01*
X84750444Y-104378974D01*
X84318165Y-103732022D01*
X83767978Y-103181835D01*
X83121026Y-102749556D01*
X82402172Y-102451797D01*
X81639041Y-102300000D01*
X80860959Y-102300000D01*
X80097828Y-102451797D01*
X79378974Y-102749556D01*
X78732022Y-103181835D01*
X78181835Y-103732022D01*
X77975000Y-104041573D01*
X77975000Y-102027791D01*
X86150000Y-102027791D01*
X86150000Y-102392209D01*
X86221095Y-102749625D01*
X86360552Y-103086303D01*
X86563011Y-103389306D01*
X86820694Y-103646989D01*
X87123697Y-103849448D01*
X87460375Y-103988905D01*
X87817791Y-104060000D01*
X88182209Y-104060000D01*
X88539625Y-103988905D01*
X88876303Y-103849448D01*
X89094389Y-103703728D01*
X88949170Y-103921064D01*
X88817251Y-104239544D01*
X88750000Y-104577640D01*
X88750000Y-104922360D01*
X88817251Y-105260456D01*
X88949170Y-105578936D01*
X89094389Y-105796272D01*
X88876303Y-105650552D01*
X88539625Y-105511095D01*
X88182209Y-105440000D01*
X87817791Y-105440000D01*
X87460375Y-105511095D01*
X87123697Y-105650552D01*
X86820694Y-105853011D01*
X86563011Y-106110694D01*
X86360552Y-106413697D01*
X86221095Y-106750375D01*
X86150000Y-107107791D01*
X86150000Y-107472209D01*
X86221095Y-107829625D01*
X86360552Y-108166303D01*
X86563011Y-108469306D01*
X86820694Y-108726989D01*
X87123697Y-108929448D01*
X87460375Y-109068905D01*
X87817791Y-109140000D01*
X88182209Y-109140000D01*
X88539625Y-109068905D01*
X88876303Y-108929448D01*
X89179306Y-108726989D01*
X89205771Y-108700524D01*
X93730897Y-108700524D01*
X93871540Y-109013322D01*
X94229426Y-109200361D01*
X94616926Y-109313985D01*
X95019146Y-109349829D01*
X95420630Y-109306515D01*
X95805951Y-109185707D01*
X96128460Y-109013322D01*
X96269103Y-108700524D01*
X95000000Y-107431421D01*
X93730897Y-108700524D01*
X89205771Y-108700524D01*
X89436989Y-108469306D01*
X89639448Y-108166303D01*
X89778905Y-107829625D01*
X89850000Y-107472209D01*
X89850000Y-107309146D01*
X92940171Y-107309146D01*
X92983485Y-107710630D01*
X93104293Y-108095951D01*
X93276678Y-108418460D01*
X93589476Y-108559103D01*
X94858579Y-107290000D01*
X93589476Y-106020897D01*
X93276678Y-106161540D01*
X93089639Y-106519426D01*
X92976015Y-106906926D01*
X92940171Y-107309146D01*
X89850000Y-107309146D01*
X89850000Y-107107791D01*
X89778905Y-106750375D01*
X89639448Y-106413697D01*
X89477707Y-106171633D01*
X89671064Y-106300830D01*
X89989544Y-106432749D01*
X90327640Y-106500000D01*
X90672360Y-106500000D01*
X91010456Y-106432749D01*
X91328936Y-106300830D01*
X91615560Y-106109314D01*
X91859314Y-105865560D01*
X92050830Y-105578936D01*
X92182749Y-105260456D01*
X92250000Y-104922360D01*
X92250000Y-104773097D01*
X93540700Y-104773097D01*
X93582854Y-105154894D01*
X93698682Y-105521130D01*
X93803689Y-105717583D01*
X93730897Y-105879476D01*
X95000000Y-107148579D01*
X95445959Y-106702620D01*
X95523097Y-106709300D01*
X95746822Y-106684599D01*
X95141421Y-107290000D01*
X96410524Y-108559103D01*
X96723322Y-108418460D01*
X96910361Y-108060574D01*
X97023985Y-107673074D01*
X97059829Y-107270854D01*
X97016515Y-106869370D01*
X96895707Y-106484049D01*
X96723322Y-106161540D01*
X96676259Y-106140379D01*
X96697945Y-106089366D01*
X95500000Y-104891421D01*
X95485858Y-104905564D01*
X95344437Y-104764143D01*
X95358579Y-104750000D01*
X95641421Y-104750000D01*
X96839366Y-105947945D01*
X97141930Y-105819324D01*
X97318995Y-105478453D01*
X97426158Y-105109587D01*
X97459300Y-104726903D01*
X97442820Y-104577640D01*
X98750000Y-104577640D01*
X98750000Y-104922360D01*
X98817251Y-105260456D01*
X98949170Y-105578936D01*
X99140686Y-105865560D01*
X99384440Y-106109314D01*
X99671064Y-106300830D01*
X99989544Y-106432749D01*
X100327640Y-106500000D01*
X100672360Y-106500000D01*
X101010456Y-106432749D01*
X101328936Y-106300830D01*
X101522293Y-106171633D01*
X101360552Y-106413697D01*
X101221095Y-106750375D01*
X101150000Y-107107791D01*
X101150000Y-107472209D01*
X101221095Y-107829625D01*
X101360552Y-108166303D01*
X101563011Y-108469306D01*
X101820694Y-108726989D01*
X102123697Y-108929448D01*
X102460375Y-109068905D01*
X102817791Y-109140000D01*
X103182209Y-109140000D01*
X103539625Y-109068905D01*
X103876303Y-108929448D01*
X104179306Y-108726989D01*
X104436989Y-108469306D01*
X104639448Y-108166303D01*
X104778905Y-107829625D01*
X104850000Y-107472209D01*
X104850000Y-107107791D01*
X104778905Y-106750375D01*
X104639448Y-106413697D01*
X104436989Y-106110694D01*
X104179306Y-105853011D01*
X103876303Y-105650552D01*
X103539625Y-105511095D01*
X103182209Y-105440000D01*
X102817791Y-105440000D01*
X102460375Y-105511095D01*
X102123697Y-105650552D01*
X101905611Y-105796272D01*
X102050830Y-105578936D01*
X102182749Y-105260456D01*
X102250000Y-104922360D01*
X102250000Y-104577640D01*
X102182749Y-104239544D01*
X102050830Y-103921064D01*
X101905611Y-103703728D01*
X102123697Y-103849448D01*
X102460375Y-103988905D01*
X102817791Y-104060000D01*
X103182209Y-104060000D01*
X103539625Y-103988905D01*
X103876303Y-103849448D01*
X104179306Y-103646989D01*
X104436989Y-103389306D01*
X104639448Y-103086303D01*
X104778905Y-102749625D01*
X104850000Y-102392209D01*
X104850000Y-102027791D01*
X106650000Y-102027791D01*
X106650000Y-102392209D01*
X106721095Y-102749625D01*
X106860552Y-103086303D01*
X107063011Y-103389306D01*
X107320694Y-103646989D01*
X107623697Y-103849448D01*
X107960375Y-103988905D01*
X108317791Y-104060000D01*
X108682209Y-104060000D01*
X109039625Y-103988905D01*
X109198292Y-103923183D01*
X109067251Y-104239544D01*
X109000000Y-104577640D01*
X109000000Y-104922360D01*
X109067251Y-105260456D01*
X109198292Y-105576817D01*
X109039625Y-105511095D01*
X108682209Y-105440000D01*
X108317791Y-105440000D01*
X107960375Y-105511095D01*
X107623697Y-105650552D01*
X107320694Y-105853011D01*
X107063011Y-106110694D01*
X106860552Y-106413697D01*
X106721095Y-106750375D01*
X106650000Y-107107791D01*
X106650000Y-107472209D01*
X106721095Y-107829625D01*
X106860552Y-108166303D01*
X107063011Y-108469306D01*
X107320694Y-108726989D01*
X107623697Y-108929448D01*
X107960375Y-109068905D01*
X108317791Y-109140000D01*
X108682209Y-109140000D01*
X109039625Y-109068905D01*
X109376303Y-108929448D01*
X109679306Y-108726989D01*
X109705771Y-108700524D01*
X116730897Y-108700524D01*
X116871540Y-109013322D01*
X117229426Y-109200361D01*
X117616926Y-109313985D01*
X118019146Y-109349829D01*
X118420630Y-109306515D01*
X118805951Y-109185707D01*
X119128460Y-109013322D01*
X119269103Y-108700524D01*
X118000000Y-107431421D01*
X116730897Y-108700524D01*
X109705771Y-108700524D01*
X109936989Y-108469306D01*
X110139448Y-108166303D01*
X110278905Y-107829625D01*
X110350000Y-107472209D01*
X110350000Y-107107791D01*
X110278905Y-106750375D01*
X110139448Y-106413697D01*
X110118745Y-106382712D01*
X110239544Y-106432749D01*
X110577640Y-106500000D01*
X110922360Y-106500000D01*
X111260456Y-106432749D01*
X111578936Y-106300830D01*
X111865560Y-106109314D01*
X112109314Y-105865560D01*
X112300830Y-105578936D01*
X112432749Y-105260456D01*
X112500000Y-104922360D01*
X112500000Y-104773097D01*
X113790700Y-104773097D01*
X113832854Y-105154894D01*
X113948682Y-105521130D01*
X114108070Y-105819324D01*
X114410634Y-105947945D01*
X115608579Y-104750000D01*
X114410634Y-103552055D01*
X114108070Y-103680676D01*
X113931005Y-104021547D01*
X113823842Y-104390413D01*
X113790700Y-104773097D01*
X112500000Y-104773097D01*
X112500000Y-104577640D01*
X112432749Y-104239544D01*
X112300830Y-103921064D01*
X112109314Y-103634440D01*
X111885508Y-103410634D01*
X114552055Y-103410634D01*
X115750000Y-104608579D01*
X115764143Y-104594437D01*
X115905564Y-104735858D01*
X115891421Y-104750000D01*
X115905564Y-104764143D01*
X115764143Y-104905564D01*
X115750000Y-104891421D01*
X114552055Y-106089366D01*
X114680676Y-106391930D01*
X115021547Y-106568995D01*
X115390413Y-106676158D01*
X115773097Y-106709300D01*
X116042692Y-106679534D01*
X115976015Y-106906926D01*
X115940171Y-107309146D01*
X115983485Y-107710630D01*
X116104293Y-108095951D01*
X116276678Y-108418460D01*
X116589476Y-108559103D01*
X117858579Y-107290000D01*
X118141421Y-107290000D01*
X119410524Y-108559103D01*
X119723322Y-108418460D01*
X119910361Y-108060574D01*
X120023985Y-107673074D01*
X120059829Y-107270854D01*
X120016515Y-106869370D01*
X119895707Y-106484049D01*
X119723322Y-106161540D01*
X119410524Y-106020897D01*
X118141421Y-107290000D01*
X117858579Y-107290000D01*
X117844437Y-107275858D01*
X117985858Y-107134437D01*
X118000000Y-107148579D01*
X119269103Y-105879476D01*
X119128460Y-105566678D01*
X118770574Y-105379639D01*
X118383074Y-105266015D01*
X117980854Y-105230171D01*
X117630133Y-105268008D01*
X117676158Y-105109587D01*
X117709300Y-104726903D01*
X117696083Y-104607187D01*
X122800000Y-104607187D01*
X122800000Y-104892813D01*
X122855723Y-105172949D01*
X122965027Y-105436833D01*
X123123711Y-105674321D01*
X123325679Y-105876289D01*
X123563167Y-106034973D01*
X123827051Y-106144277D01*
X124107187Y-106200000D01*
X124392813Y-106200000D01*
X124672949Y-106144277D01*
X124936833Y-106034973D01*
X125174321Y-105876289D01*
X125376289Y-105674321D01*
X125534973Y-105436833D01*
X125644277Y-105172949D01*
X125700000Y-104892813D01*
X125700000Y-104607187D01*
X126300000Y-104607187D01*
X126300000Y-104892813D01*
X126355723Y-105172949D01*
X126465027Y-105436833D01*
X126623711Y-105674321D01*
X126825679Y-105876289D01*
X127063167Y-106034973D01*
X127327051Y-106144277D01*
X127607187Y-106200000D01*
X127892813Y-106200000D01*
X128172949Y-106144277D01*
X128436833Y-106034973D01*
X128674321Y-105876289D01*
X128674799Y-105875811D01*
X130265610Y-105875811D01*
X130358138Y-106147674D01*
X130647947Y-106294812D01*
X130960892Y-106382584D01*
X131284949Y-106407616D01*
X131607662Y-106368947D01*
X131916631Y-106268063D01*
X132141862Y-106147674D01*
X132234390Y-105875811D01*
X131250000Y-104891421D01*
X130265610Y-105875811D01*
X128674799Y-105875811D01*
X128876289Y-105674321D01*
X129034973Y-105436833D01*
X129144277Y-105172949D01*
X129200000Y-104892813D01*
X129200000Y-104784949D01*
X129592384Y-104784949D01*
X129631053Y-105107662D01*
X129731937Y-105416631D01*
X129852326Y-105641862D01*
X130124189Y-105734390D01*
X131108579Y-104750000D01*
X131391421Y-104750000D01*
X132375811Y-105734390D01*
X132647674Y-105641862D01*
X132794812Y-105352053D01*
X132882584Y-105039108D01*
X132907616Y-104715051D01*
X132868947Y-104392338D01*
X132768063Y-104083369D01*
X132647674Y-103858138D01*
X132375811Y-103765610D01*
X131391421Y-104750000D01*
X131108579Y-104750000D01*
X130124189Y-103765610D01*
X129852326Y-103858138D01*
X129705188Y-104147947D01*
X129617416Y-104460892D01*
X129592384Y-104784949D01*
X129200000Y-104784949D01*
X129200000Y-104607187D01*
X129144277Y-104327051D01*
X129034973Y-104063167D01*
X128876289Y-103825679D01*
X128674799Y-103624189D01*
X130265610Y-103624189D01*
X131250000Y-104608579D01*
X132234390Y-103624189D01*
X132141862Y-103352326D01*
X131852053Y-103205188D01*
X131539108Y-103117416D01*
X131215051Y-103092384D01*
X130892338Y-103131053D01*
X130583369Y-103231937D01*
X130358138Y-103352326D01*
X130265610Y-103624189D01*
X128674799Y-103624189D01*
X128674321Y-103623711D01*
X128436833Y-103465027D01*
X128172949Y-103355723D01*
X127892813Y-103300000D01*
X127607187Y-103300000D01*
X127327051Y-103355723D01*
X127063167Y-103465027D01*
X126825679Y-103623711D01*
X126623711Y-103825679D01*
X126465027Y-104063167D01*
X126355723Y-104327051D01*
X126300000Y-104607187D01*
X125700000Y-104607187D01*
X125644277Y-104327051D01*
X125534973Y-104063167D01*
X125376289Y-103825679D01*
X125174321Y-103623711D01*
X124936833Y-103465027D01*
X124672949Y-103355723D01*
X124392813Y-103300000D01*
X124107187Y-103300000D01*
X123827051Y-103355723D01*
X123563167Y-103465027D01*
X123325679Y-103623711D01*
X123123711Y-103825679D01*
X122965027Y-104063167D01*
X122855723Y-104327051D01*
X122800000Y-104607187D01*
X117696083Y-104607187D01*
X117667146Y-104345106D01*
X117632439Y-104235367D01*
X118019146Y-104269829D01*
X118420630Y-104226515D01*
X118805951Y-104105707D01*
X119128460Y-103933322D01*
X119269103Y-103620524D01*
X118000000Y-102351421D01*
X117985858Y-102365564D01*
X117844437Y-102224143D01*
X117858579Y-102210000D01*
X118141421Y-102210000D01*
X119410524Y-103479103D01*
X119723322Y-103338460D01*
X119910361Y-102980574D01*
X120023985Y-102593074D01*
X120059829Y-102190854D01*
X120016515Y-101789370D01*
X119895707Y-101404049D01*
X119723322Y-101081540D01*
X119410524Y-100940897D01*
X118141421Y-102210000D01*
X117858579Y-102210000D01*
X116589476Y-100940897D01*
X116276678Y-101081540D01*
X116089639Y-101439426D01*
X115976015Y-101826926D01*
X115940171Y-102229146D01*
X115983485Y-102630630D01*
X116042233Y-102818009D01*
X115726903Y-102790700D01*
X115345106Y-102832854D01*
X114978870Y-102948682D01*
X114680676Y-103108070D01*
X114552055Y-103410634D01*
X111885508Y-103410634D01*
X111865560Y-103390686D01*
X111578936Y-103199170D01*
X111260456Y-103067251D01*
X110922360Y-103000000D01*
X110577640Y-103000000D01*
X110239544Y-103067251D01*
X110118745Y-103117288D01*
X110139448Y-103086303D01*
X110278905Y-102749625D01*
X110350000Y-102392209D01*
X110350000Y-102027791D01*
X110278905Y-101670375D01*
X110139448Y-101333697D01*
X109936989Y-101030694D01*
X109705771Y-100799476D01*
X116730897Y-100799476D01*
X118000000Y-102068579D01*
X119269103Y-100799476D01*
X119128460Y-100486678D01*
X118770574Y-100299639D01*
X118383074Y-100186015D01*
X117980854Y-100150171D01*
X117579370Y-100193485D01*
X117194049Y-100314293D01*
X116871540Y-100486678D01*
X116730897Y-100799476D01*
X109705771Y-100799476D01*
X109679306Y-100773011D01*
X109376303Y-100570552D01*
X109039625Y-100431095D01*
X108682209Y-100360000D01*
X108317791Y-100360000D01*
X107960375Y-100431095D01*
X107623697Y-100570552D01*
X107320694Y-100773011D01*
X107063011Y-101030694D01*
X106860552Y-101333697D01*
X106721095Y-101670375D01*
X106650000Y-102027791D01*
X104850000Y-102027791D01*
X104778905Y-101670375D01*
X104639448Y-101333697D01*
X104436989Y-101030694D01*
X104179306Y-100773011D01*
X103876303Y-100570552D01*
X103539625Y-100431095D01*
X103182209Y-100360000D01*
X102817791Y-100360000D01*
X102460375Y-100431095D01*
X102123697Y-100570552D01*
X101820694Y-100773011D01*
X101563011Y-101030694D01*
X101360552Y-101333697D01*
X101221095Y-101670375D01*
X101150000Y-102027791D01*
X101150000Y-102392209D01*
X101221095Y-102749625D01*
X101360552Y-103086303D01*
X101522293Y-103328367D01*
X101328936Y-103199170D01*
X101010456Y-103067251D01*
X100672360Y-103000000D01*
X100327640Y-103000000D01*
X99989544Y-103067251D01*
X99671064Y-103199170D01*
X99384440Y-103390686D01*
X99140686Y-103634440D01*
X98949170Y-103921064D01*
X98817251Y-104239544D01*
X98750000Y-104577640D01*
X97442820Y-104577640D01*
X97417146Y-104345106D01*
X97301318Y-103978870D01*
X97141930Y-103680676D01*
X96839366Y-103552055D01*
X95641421Y-104750000D01*
X95358579Y-104750000D01*
X95344437Y-104735858D01*
X95485858Y-104594437D01*
X95500000Y-104608579D01*
X96697945Y-103410634D01*
X96676259Y-103359621D01*
X96723322Y-103338460D01*
X96910361Y-102980574D01*
X97023985Y-102593074D01*
X97059829Y-102190854D01*
X97016515Y-101789370D01*
X96895707Y-101404049D01*
X96723322Y-101081540D01*
X96410524Y-100940897D01*
X95141421Y-102210000D01*
X95745371Y-102813950D01*
X95476903Y-102790700D01*
X95443020Y-102794441D01*
X95000000Y-102351421D01*
X93730897Y-103620524D01*
X93804400Y-103783998D01*
X93681005Y-104021547D01*
X93573842Y-104390413D01*
X93540700Y-104773097D01*
X92250000Y-104773097D01*
X92250000Y-104577640D01*
X92182749Y-104239544D01*
X92050830Y-103921064D01*
X91859314Y-103634440D01*
X91615560Y-103390686D01*
X91328936Y-103199170D01*
X91010456Y-103067251D01*
X90672360Y-103000000D01*
X90327640Y-103000000D01*
X89989544Y-103067251D01*
X89671064Y-103199170D01*
X89477707Y-103328367D01*
X89639448Y-103086303D01*
X89778905Y-102749625D01*
X89850000Y-102392209D01*
X89850000Y-102229146D01*
X92940171Y-102229146D01*
X92983485Y-102630630D01*
X93104293Y-103015951D01*
X93276678Y-103338460D01*
X93589476Y-103479103D01*
X94858579Y-102210000D01*
X93589476Y-100940897D01*
X93276678Y-101081540D01*
X93089639Y-101439426D01*
X92976015Y-101826926D01*
X92940171Y-102229146D01*
X89850000Y-102229146D01*
X89850000Y-102027791D01*
X89778905Y-101670375D01*
X89639448Y-101333697D01*
X89436989Y-101030694D01*
X89205771Y-100799476D01*
X93730897Y-100799476D01*
X95000000Y-102068579D01*
X96269103Y-100799476D01*
X96128460Y-100486678D01*
X95770574Y-100299639D01*
X95383074Y-100186015D01*
X94980854Y-100150171D01*
X94579370Y-100193485D01*
X94194049Y-100314293D01*
X93871540Y-100486678D01*
X93730897Y-100799476D01*
X89205771Y-100799476D01*
X89179306Y-100773011D01*
X88876303Y-100570552D01*
X88539625Y-100431095D01*
X88182209Y-100360000D01*
X87817791Y-100360000D01*
X87460375Y-100431095D01*
X87123697Y-100570552D01*
X86820694Y-100773011D01*
X86563011Y-101030694D01*
X86360552Y-101333697D01*
X86221095Y-101670375D01*
X86150000Y-102027791D01*
X77975000Y-102027791D01*
X77975000Y-92550000D01*
X87847823Y-92550000D01*
X87847823Y-94950000D01*
X87856511Y-95038215D01*
X87882243Y-95123041D01*
X87924029Y-95201216D01*
X87980263Y-95269737D01*
X88048784Y-95325971D01*
X88126959Y-95367757D01*
X88211785Y-95393489D01*
X88300000Y-95402177D01*
X90700000Y-95402177D01*
X90788215Y-95393489D01*
X90873041Y-95367757D01*
X90951216Y-95325971D01*
X91019737Y-95269737D01*
X91075971Y-95201216D01*
X91117757Y-95123041D01*
X91143489Y-95038215D01*
X91152177Y-94950000D01*
X91152177Y-92550000D01*
X91143489Y-92461785D01*
X91134626Y-92432565D01*
X99240000Y-92432565D01*
X99240000Y-92767435D01*
X99305330Y-93095872D01*
X99433479Y-93405252D01*
X99619523Y-93683687D01*
X99856313Y-93920477D01*
X100134748Y-94106521D01*
X100444128Y-94234670D01*
X100772565Y-94300000D01*
X101107435Y-94300000D01*
X101435872Y-94234670D01*
X101745252Y-94106521D01*
X102023687Y-93920477D01*
X102260477Y-93683687D01*
X102337916Y-93567791D01*
X111650000Y-93567791D01*
X111650000Y-93932209D01*
X111721095Y-94289625D01*
X111860552Y-94626303D01*
X112063011Y-94929306D01*
X112320694Y-95186989D01*
X112623697Y-95389448D01*
X112960375Y-95528905D01*
X113317791Y-95600000D01*
X113682209Y-95600000D01*
X114039625Y-95528905D01*
X114376303Y-95389448D01*
X114679306Y-95186989D01*
X114936989Y-94929306D01*
X115139448Y-94626303D01*
X115278905Y-94289625D01*
X115350000Y-93932209D01*
X115350000Y-93567791D01*
X115278905Y-93210375D01*
X115139448Y-92873697D01*
X114936989Y-92570694D01*
X114679306Y-92313011D01*
X114376303Y-92110552D01*
X114039625Y-91971095D01*
X113682209Y-91900000D01*
X113317791Y-91900000D01*
X112960375Y-91971095D01*
X112623697Y-92110552D01*
X112320694Y-92313011D01*
X112063011Y-92570694D01*
X111860552Y-92873697D01*
X111721095Y-93210375D01*
X111650000Y-93567791D01*
X102337916Y-93567791D01*
X102446521Y-93405252D01*
X102574670Y-93095872D01*
X102640000Y-92767435D01*
X102640000Y-92432565D01*
X102574670Y-92104128D01*
X102446521Y-91794748D01*
X102260477Y-91516313D01*
X102023687Y-91279523D01*
X101795250Y-91126886D01*
X121250000Y-91126886D01*
X121250000Y-91373114D01*
X121298037Y-91614611D01*
X121392265Y-91842097D01*
X121529062Y-92046828D01*
X121703172Y-92220938D01*
X121907903Y-92357735D01*
X122135389Y-92451963D01*
X122376886Y-92500000D01*
X122623114Y-92500000D01*
X122864611Y-92451963D01*
X123092097Y-92357735D01*
X123296828Y-92220938D01*
X123470938Y-92046828D01*
X123607735Y-91842097D01*
X123701963Y-91614611D01*
X123750000Y-91373114D01*
X123750000Y-91126886D01*
X132000000Y-91126886D01*
X132000000Y-91373114D01*
X132048037Y-91614611D01*
X132142265Y-91842097D01*
X132279062Y-92046828D01*
X132453172Y-92220938D01*
X132657903Y-92357735D01*
X132885389Y-92451963D01*
X133126886Y-92500000D01*
X133373114Y-92500000D01*
X133614611Y-92451963D01*
X133842097Y-92357735D01*
X134046828Y-92220938D01*
X134220938Y-92046828D01*
X134357735Y-91842097D01*
X134451963Y-91614611D01*
X134500000Y-91373114D01*
X134500000Y-91126886D01*
X134451963Y-90885389D01*
X134357735Y-90657903D01*
X134220938Y-90453172D01*
X134046828Y-90279062D01*
X133842097Y-90142265D01*
X133614611Y-90048037D01*
X133373114Y-90000000D01*
X133126886Y-90000000D01*
X132885389Y-90048037D01*
X132657903Y-90142265D01*
X132453172Y-90279062D01*
X132279062Y-90453172D01*
X132142265Y-90657903D01*
X132048037Y-90885389D01*
X132000000Y-91126886D01*
X123750000Y-91126886D01*
X123701963Y-90885389D01*
X123607735Y-90657903D01*
X123470938Y-90453172D01*
X123296828Y-90279062D01*
X123092097Y-90142265D01*
X122864611Y-90048037D01*
X122623114Y-90000000D01*
X122376886Y-90000000D01*
X122135389Y-90048037D01*
X121907903Y-90142265D01*
X121703172Y-90279062D01*
X121529062Y-90453172D01*
X121392265Y-90657903D01*
X121298037Y-90885389D01*
X121250000Y-91126886D01*
X101795250Y-91126886D01*
X101745252Y-91093479D01*
X101435872Y-90965330D01*
X101107435Y-90900000D01*
X100772565Y-90900000D01*
X100444128Y-90965330D01*
X100134748Y-91093479D01*
X99856313Y-91279523D01*
X99619523Y-91516313D01*
X99433479Y-91794748D01*
X99305330Y-92104128D01*
X99240000Y-92432565D01*
X91134626Y-92432565D01*
X91117757Y-92376959D01*
X91075971Y-92298784D01*
X91019737Y-92230263D01*
X90951216Y-92174029D01*
X90873041Y-92132243D01*
X90788215Y-92106511D01*
X90700000Y-92097823D01*
X88300000Y-92097823D01*
X88211785Y-92106511D01*
X88126959Y-92132243D01*
X88048784Y-92174029D01*
X87980263Y-92230263D01*
X87924029Y-92298784D01*
X87882243Y-92376959D01*
X87856511Y-92461785D01*
X87847823Y-92550000D01*
X77975000Y-92550000D01*
X77975000Y-87518197D01*
X88373225Y-87518197D01*
X88489820Y-87810524D01*
X88813674Y-87977615D01*
X89163902Y-88078315D01*
X89527047Y-88108755D01*
X89889152Y-88067762D01*
X90236302Y-87956915D01*
X90510180Y-87810524D01*
X90626775Y-87518197D01*
X89500000Y-86391421D01*
X88373225Y-87518197D01*
X77975000Y-87518197D01*
X77975000Y-86277047D01*
X87641245Y-86277047D01*
X87682238Y-86639152D01*
X87793085Y-86986302D01*
X87939476Y-87260180D01*
X88231803Y-87376775D01*
X89358579Y-86250000D01*
X89641421Y-86250000D01*
X90768197Y-87376775D01*
X91060524Y-87260180D01*
X91227615Y-86936326D01*
X91328315Y-86586098D01*
X91358755Y-86222953D01*
X91347880Y-86126886D01*
X121250000Y-86126886D01*
X121250000Y-86373114D01*
X121298037Y-86614611D01*
X121392265Y-86842097D01*
X121529062Y-87046828D01*
X121703172Y-87220938D01*
X121907903Y-87357735D01*
X122135389Y-87451963D01*
X122376886Y-87500000D01*
X122623114Y-87500000D01*
X122864611Y-87451963D01*
X123092097Y-87357735D01*
X123296828Y-87220938D01*
X123470938Y-87046828D01*
X123607735Y-86842097D01*
X123701963Y-86614611D01*
X123750000Y-86373114D01*
X123750000Y-86126886D01*
X132000000Y-86126886D01*
X132000000Y-86373114D01*
X132048037Y-86614611D01*
X132142265Y-86842097D01*
X132279062Y-87046828D01*
X132453172Y-87220938D01*
X132657903Y-87357735D01*
X132885389Y-87451963D01*
X133126886Y-87500000D01*
X133373114Y-87500000D01*
X133614611Y-87451963D01*
X133842097Y-87357735D01*
X134046828Y-87220938D01*
X134220938Y-87046828D01*
X134357735Y-86842097D01*
X134451963Y-86614611D01*
X134500000Y-86373114D01*
X134500000Y-86126886D01*
X134451963Y-85885389D01*
X134357735Y-85657903D01*
X134220938Y-85453172D01*
X134046828Y-85279062D01*
X133842097Y-85142265D01*
X133614611Y-85048037D01*
X133373114Y-85000000D01*
X133126886Y-85000000D01*
X132885389Y-85048037D01*
X132657903Y-85142265D01*
X132453172Y-85279062D01*
X132279062Y-85453172D01*
X132142265Y-85657903D01*
X132048037Y-85885389D01*
X132000000Y-86126886D01*
X123750000Y-86126886D01*
X123701963Y-85885389D01*
X123607735Y-85657903D01*
X123470938Y-85453172D01*
X123296828Y-85279062D01*
X123092097Y-85142265D01*
X122864611Y-85048037D01*
X122623114Y-85000000D01*
X122376886Y-85000000D01*
X122135389Y-85048037D01*
X121907903Y-85142265D01*
X121703172Y-85279062D01*
X121529062Y-85453172D01*
X121392265Y-85657903D01*
X121298037Y-85885389D01*
X121250000Y-86126886D01*
X91347880Y-86126886D01*
X91317762Y-85860848D01*
X91206915Y-85513698D01*
X91060524Y-85239820D01*
X90768197Y-85123225D01*
X89641421Y-86250000D01*
X89358579Y-86250000D01*
X88231803Y-85123225D01*
X87939476Y-85239820D01*
X87772385Y-85563674D01*
X87671685Y-85913902D01*
X87641245Y-86277047D01*
X77975000Y-86277047D01*
X77975000Y-84981803D01*
X88373225Y-84981803D01*
X89500000Y-86108579D01*
X90626775Y-84981803D01*
X90510180Y-84689476D01*
X90186326Y-84522385D01*
X89836098Y-84421685D01*
X89472953Y-84391245D01*
X89110848Y-84432238D01*
X88763698Y-84543085D01*
X88489820Y-84689476D01*
X88373225Y-84981803D01*
X77975000Y-84981803D01*
X77975000Y-79732565D01*
X106860000Y-79732565D01*
X106860000Y-80067435D01*
X106925330Y-80395872D01*
X107053479Y-80705252D01*
X107239523Y-80983687D01*
X107476313Y-81220477D01*
X107754748Y-81406521D01*
X108064128Y-81534670D01*
X108392565Y-81600000D01*
X108727435Y-81600000D01*
X109055872Y-81534670D01*
X109365252Y-81406521D01*
X109643687Y-81220477D01*
X109880477Y-80983687D01*
X110066521Y-80705252D01*
X110194670Y-80395872D01*
X110260000Y-80067435D01*
X110260000Y-79732565D01*
X110194670Y-79404128D01*
X110066521Y-79094748D01*
X109880477Y-78816313D01*
X109643687Y-78579523D01*
X109365252Y-78393479D01*
X109206667Y-78327791D01*
X111650000Y-78327791D01*
X111650000Y-78692209D01*
X111721095Y-79049625D01*
X111860552Y-79386303D01*
X112063011Y-79689306D01*
X112320694Y-79946989D01*
X112623697Y-80149448D01*
X112960375Y-80288905D01*
X113317791Y-80360000D01*
X113682209Y-80360000D01*
X114039625Y-80288905D01*
X114376303Y-80149448D01*
X114679306Y-79946989D01*
X114936989Y-79689306D01*
X115139448Y-79386303D01*
X115278905Y-79049625D01*
X115347080Y-78706886D01*
X117500000Y-78706886D01*
X117500000Y-78953114D01*
X117548037Y-79194611D01*
X117642265Y-79422097D01*
X117779062Y-79626828D01*
X117953172Y-79800938D01*
X118157903Y-79937735D01*
X118385389Y-80031963D01*
X118626886Y-80080000D01*
X118873114Y-80080000D01*
X119114611Y-80031963D01*
X119342097Y-79937735D01*
X119546828Y-79800938D01*
X119720938Y-79626828D01*
X119857735Y-79422097D01*
X119951963Y-79194611D01*
X120000000Y-78953114D01*
X120000000Y-78706886D01*
X120750000Y-78706886D01*
X120750000Y-78953114D01*
X120798037Y-79194611D01*
X120892265Y-79422097D01*
X121029062Y-79626828D01*
X121203172Y-79800938D01*
X121407903Y-79937735D01*
X121635389Y-80031963D01*
X121876886Y-80080000D01*
X122123114Y-80080000D01*
X122364611Y-80031963D01*
X122592097Y-79937735D01*
X122796828Y-79800938D01*
X122970938Y-79626828D01*
X123107735Y-79422097D01*
X123201963Y-79194611D01*
X123250000Y-78953114D01*
X123250000Y-78706886D01*
X124000000Y-78706886D01*
X124000000Y-78953114D01*
X124048037Y-79194611D01*
X124142265Y-79422097D01*
X124279062Y-79626828D01*
X124453172Y-79800938D01*
X124657903Y-79937735D01*
X124885389Y-80031963D01*
X125126886Y-80080000D01*
X125373114Y-80080000D01*
X125614611Y-80031963D01*
X125842097Y-79937735D01*
X126046828Y-79800938D01*
X126220938Y-79626828D01*
X126357735Y-79422097D01*
X126451963Y-79194611D01*
X126500000Y-78953114D01*
X126500000Y-78706886D01*
X127250000Y-78706886D01*
X127250000Y-78953114D01*
X127298037Y-79194611D01*
X127392265Y-79422097D01*
X127529062Y-79626828D01*
X127703172Y-79800938D01*
X127907903Y-79937735D01*
X128135389Y-80031963D01*
X128376886Y-80080000D01*
X128623114Y-80080000D01*
X128864611Y-80031963D01*
X129092097Y-79937735D01*
X129278271Y-79813337D01*
X130908085Y-79813337D01*
X130976509Y-80064750D01*
X131232259Y-80191925D01*
X131507906Y-80266762D01*
X131792856Y-80286386D01*
X132076159Y-80250042D01*
X132346928Y-80159125D01*
X132523491Y-80064750D01*
X132591915Y-79813337D01*
X134158085Y-79813337D01*
X134226509Y-80064750D01*
X134482259Y-80191925D01*
X134757906Y-80266762D01*
X135042856Y-80286386D01*
X135326159Y-80250042D01*
X135596928Y-80159125D01*
X135773491Y-80064750D01*
X135841915Y-79813337D01*
X135000000Y-78971421D01*
X134158085Y-79813337D01*
X132591915Y-79813337D01*
X131750000Y-78971421D01*
X130908085Y-79813337D01*
X129278271Y-79813337D01*
X129296828Y-79800938D01*
X129470938Y-79626828D01*
X129607735Y-79422097D01*
X129701963Y-79194611D01*
X129750000Y-78953114D01*
X129750000Y-78872856D01*
X130293614Y-78872856D01*
X130329958Y-79156159D01*
X130420875Y-79426928D01*
X130515250Y-79603491D01*
X130766663Y-79671915D01*
X131608579Y-78830000D01*
X131891421Y-78830000D01*
X132733337Y-79671915D01*
X132984750Y-79603491D01*
X133111925Y-79347741D01*
X133186762Y-79072094D01*
X133200483Y-78872856D01*
X133543614Y-78872856D01*
X133579958Y-79156159D01*
X133670875Y-79426928D01*
X133765250Y-79603491D01*
X134016663Y-79671915D01*
X134858579Y-78830000D01*
X135141421Y-78830000D01*
X135983337Y-79671915D01*
X136234750Y-79603491D01*
X136361925Y-79347741D01*
X136436762Y-79072094D01*
X136456386Y-78787144D01*
X136420042Y-78503841D01*
X136329125Y-78233072D01*
X136234750Y-78056509D01*
X135983337Y-77988085D01*
X135141421Y-78830000D01*
X134858579Y-78830000D01*
X134016663Y-77988085D01*
X133765250Y-78056509D01*
X133638075Y-78312259D01*
X133563238Y-78587906D01*
X133543614Y-78872856D01*
X133200483Y-78872856D01*
X133206386Y-78787144D01*
X133170042Y-78503841D01*
X133079125Y-78233072D01*
X132984750Y-78056509D01*
X132733337Y-77988085D01*
X131891421Y-78830000D01*
X131608579Y-78830000D01*
X130766663Y-77988085D01*
X130515250Y-78056509D01*
X130388075Y-78312259D01*
X130313238Y-78587906D01*
X130293614Y-78872856D01*
X129750000Y-78872856D01*
X129750000Y-78706886D01*
X129701963Y-78465389D01*
X129607735Y-78237903D01*
X129470938Y-78033172D01*
X129296828Y-77859062D01*
X129278272Y-77846663D01*
X130908085Y-77846663D01*
X131750000Y-78688579D01*
X132591915Y-77846663D01*
X134158085Y-77846663D01*
X135000000Y-78688579D01*
X135841915Y-77846663D01*
X135773491Y-77595250D01*
X135517741Y-77468075D01*
X135242094Y-77393238D01*
X134957144Y-77373614D01*
X134673841Y-77409958D01*
X134403072Y-77500875D01*
X134226509Y-77595250D01*
X134158085Y-77846663D01*
X132591915Y-77846663D01*
X132523491Y-77595250D01*
X132267741Y-77468075D01*
X131992094Y-77393238D01*
X131707144Y-77373614D01*
X131423841Y-77409958D01*
X131153072Y-77500875D01*
X130976509Y-77595250D01*
X130908085Y-77846663D01*
X129278272Y-77846663D01*
X129092097Y-77722265D01*
X128864611Y-77628037D01*
X128623114Y-77580000D01*
X128376886Y-77580000D01*
X128135389Y-77628037D01*
X127907903Y-77722265D01*
X127703172Y-77859062D01*
X127529062Y-78033172D01*
X127392265Y-78237903D01*
X127298037Y-78465389D01*
X127250000Y-78706886D01*
X126500000Y-78706886D01*
X126451963Y-78465389D01*
X126357735Y-78237903D01*
X126220938Y-78033172D01*
X126046828Y-77859062D01*
X125842097Y-77722265D01*
X125614611Y-77628037D01*
X125373114Y-77580000D01*
X125126886Y-77580000D01*
X124885389Y-77628037D01*
X124657903Y-77722265D01*
X124453172Y-77859062D01*
X124279062Y-78033172D01*
X124142265Y-78237903D01*
X124048037Y-78465389D01*
X124000000Y-78706886D01*
X123250000Y-78706886D01*
X123201963Y-78465389D01*
X123107735Y-78237903D01*
X122970938Y-78033172D01*
X122796828Y-77859062D01*
X122592097Y-77722265D01*
X122364611Y-77628037D01*
X122123114Y-77580000D01*
X121876886Y-77580000D01*
X121635389Y-77628037D01*
X121407903Y-77722265D01*
X121203172Y-77859062D01*
X121029062Y-78033172D01*
X120892265Y-78237903D01*
X120798037Y-78465389D01*
X120750000Y-78706886D01*
X120000000Y-78706886D01*
X119951963Y-78465389D01*
X119857735Y-78237903D01*
X119720938Y-78033172D01*
X119546828Y-77859062D01*
X119342097Y-77722265D01*
X119114611Y-77628037D01*
X118873114Y-77580000D01*
X118626886Y-77580000D01*
X118385389Y-77628037D01*
X118157903Y-77722265D01*
X117953172Y-77859062D01*
X117779062Y-78033172D01*
X117642265Y-78237903D01*
X117548037Y-78465389D01*
X117500000Y-78706886D01*
X115347080Y-78706886D01*
X115350000Y-78692209D01*
X115350000Y-78327791D01*
X115278905Y-77970375D01*
X115139448Y-77633697D01*
X114936989Y-77330694D01*
X114679306Y-77073011D01*
X114376303Y-76870552D01*
X114039625Y-76731095D01*
X113682209Y-76660000D01*
X113317791Y-76660000D01*
X112960375Y-76731095D01*
X112623697Y-76870552D01*
X112320694Y-77073011D01*
X112063011Y-77330694D01*
X111860552Y-77633697D01*
X111721095Y-77970375D01*
X111650000Y-78327791D01*
X109206667Y-78327791D01*
X109055872Y-78265330D01*
X108727435Y-78200000D01*
X108392565Y-78200000D01*
X108064128Y-78265330D01*
X107754748Y-78393479D01*
X107476313Y-78579523D01*
X107239523Y-78816313D01*
X107053479Y-79094748D01*
X106925330Y-79404128D01*
X106860000Y-79732565D01*
X77975000Y-79732565D01*
X77975000Y-77950000D01*
X87646855Y-77950000D01*
X87659405Y-78077422D01*
X87696573Y-78199948D01*
X87756930Y-78312868D01*
X87838157Y-78411843D01*
X87937132Y-78493070D01*
X88050052Y-78553427D01*
X88172578Y-78590595D01*
X88300000Y-78603145D01*
X89237500Y-78600000D01*
X89400000Y-78437500D01*
X89400000Y-76850000D01*
X89600000Y-76850000D01*
X89600000Y-78437500D01*
X89762500Y-78600000D01*
X90700000Y-78603145D01*
X90827422Y-78590595D01*
X90949948Y-78553427D01*
X91062868Y-78493070D01*
X91161843Y-78411843D01*
X91243070Y-78312868D01*
X91303427Y-78199948D01*
X91340595Y-78077422D01*
X91353145Y-77950000D01*
X91350000Y-77012500D01*
X91187500Y-76850000D01*
X89600000Y-76850000D01*
X89400000Y-76850000D01*
X87812500Y-76850000D01*
X87650000Y-77012500D01*
X87646855Y-77950000D01*
X77975000Y-77950000D01*
X77975000Y-75550000D01*
X87646855Y-75550000D01*
X87650000Y-76487500D01*
X87812500Y-76650000D01*
X89400000Y-76650000D01*
X89400000Y-75062500D01*
X89600000Y-75062500D01*
X89600000Y-76650000D01*
X91187500Y-76650000D01*
X91350000Y-76487500D01*
X91353145Y-75550000D01*
X91340595Y-75422578D01*
X91303427Y-75300052D01*
X91243070Y-75187132D01*
X91161843Y-75088157D01*
X91062868Y-75006930D01*
X90949948Y-74946573D01*
X90827422Y-74909405D01*
X90700000Y-74896855D01*
X89762500Y-74900000D01*
X89600000Y-75062500D01*
X89400000Y-75062500D01*
X89237500Y-74900000D01*
X88300000Y-74896855D01*
X88172578Y-74909405D01*
X88050052Y-74946573D01*
X87937132Y-75006930D01*
X87838157Y-75088157D01*
X87756930Y-75187132D01*
X87696573Y-75300052D01*
X87659405Y-75422578D01*
X87646855Y-75550000D01*
X77975000Y-75550000D01*
X77975000Y-73919078D01*
X97903292Y-73919078D01*
X98008654Y-74266418D01*
X98194709Y-74622626D01*
X98446681Y-74935692D01*
X98754888Y-75193585D01*
X99107485Y-75386394D01*
X99490922Y-75506710D01*
X99810000Y-75385062D01*
X99810000Y-73600000D01*
X100010000Y-73600000D01*
X100010000Y-75385062D01*
X100329078Y-75506710D01*
X100712515Y-75386394D01*
X101065112Y-75193585D01*
X101373319Y-74935692D01*
X101625291Y-74622626D01*
X101811346Y-74266418D01*
X101916708Y-73919078D01*
X101794849Y-73600000D01*
X100010000Y-73600000D01*
X99810000Y-73600000D01*
X98025151Y-73600000D01*
X97903292Y-73919078D01*
X77975000Y-73919078D01*
X77975000Y-73080922D01*
X97903292Y-73080922D01*
X98025151Y-73400000D01*
X99810000Y-73400000D01*
X99810000Y-71614938D01*
X100010000Y-71614938D01*
X100010000Y-73400000D01*
X101794849Y-73400000D01*
X101826245Y-73317791D01*
X113300000Y-73317791D01*
X113300000Y-73682209D01*
X113371095Y-74039625D01*
X113510552Y-74376303D01*
X113713011Y-74679306D01*
X113970694Y-74936989D01*
X114273697Y-75139448D01*
X114610375Y-75278905D01*
X114967791Y-75350000D01*
X115332209Y-75350000D01*
X115689625Y-75278905D01*
X116026303Y-75139448D01*
X116329306Y-74936989D01*
X116586989Y-74679306D01*
X116789448Y-74376303D01*
X116928905Y-74039625D01*
X117000000Y-73682209D01*
X117000000Y-73317791D01*
X116928905Y-72960375D01*
X116789448Y-72623697D01*
X116586989Y-72320694D01*
X116329306Y-72063011D01*
X116026303Y-71860552D01*
X115689625Y-71721095D01*
X115332209Y-71650000D01*
X114967791Y-71650000D01*
X114610375Y-71721095D01*
X114273697Y-71860552D01*
X113970694Y-72063011D01*
X113713011Y-72320694D01*
X113510552Y-72623697D01*
X113371095Y-72960375D01*
X113300000Y-73317791D01*
X101826245Y-73317791D01*
X101916708Y-73080922D01*
X101811346Y-72733582D01*
X101625291Y-72377374D01*
X101373319Y-72064308D01*
X101065112Y-71806415D01*
X100712515Y-71613606D01*
X100329078Y-71493290D01*
X100010000Y-71614938D01*
X99810000Y-71614938D01*
X99490922Y-71493290D01*
X99107485Y-71613606D01*
X98754888Y-71806415D01*
X98446681Y-72064308D01*
X98194709Y-72377374D01*
X98008654Y-72733582D01*
X97903292Y-73080922D01*
X77975000Y-73080922D01*
X77975000Y-69087489D01*
X87850000Y-69087489D01*
X87850000Y-69412511D01*
X87913408Y-69731287D01*
X88037789Y-70031568D01*
X88218361Y-70301814D01*
X88448186Y-70531639D01*
X88718432Y-70712211D01*
X89018713Y-70836592D01*
X89337489Y-70900000D01*
X89662511Y-70900000D01*
X89981287Y-70836592D01*
X90281568Y-70712211D01*
X90551814Y-70531639D01*
X90781639Y-70301814D01*
X90962211Y-70031568D01*
X91086592Y-69731287D01*
X91150000Y-69412511D01*
X91150000Y-69087489D01*
X91086592Y-68768713D01*
X91027846Y-68626886D01*
X109500000Y-68626886D01*
X109500000Y-68873114D01*
X109548037Y-69114611D01*
X109642265Y-69342097D01*
X109779062Y-69546828D01*
X109953172Y-69720938D01*
X110157903Y-69857735D01*
X110385389Y-69951963D01*
X110626886Y-70000000D01*
X110873114Y-70000000D01*
X111114611Y-69951963D01*
X111342097Y-69857735D01*
X111546828Y-69720938D01*
X111720938Y-69546828D01*
X111857735Y-69342097D01*
X111951963Y-69114611D01*
X112000000Y-68873114D01*
X112000000Y-68626886D01*
X114500000Y-68626886D01*
X114500000Y-68873114D01*
X114548037Y-69114611D01*
X114642265Y-69342097D01*
X114779062Y-69546828D01*
X114953172Y-69720938D01*
X115157903Y-69857735D01*
X115385389Y-69951963D01*
X115626886Y-70000000D01*
X115873114Y-70000000D01*
X116114611Y-69951963D01*
X116342097Y-69857735D01*
X116546828Y-69720938D01*
X116720938Y-69546828D01*
X116857735Y-69342097D01*
X116951963Y-69114611D01*
X117000000Y-68873114D01*
X117000000Y-68626886D01*
X116984087Y-68546886D01*
X117500000Y-68546886D01*
X117500000Y-68793114D01*
X117548037Y-69034611D01*
X117642265Y-69262097D01*
X117779062Y-69466828D01*
X117953172Y-69640938D01*
X118157903Y-69777735D01*
X118385389Y-69871963D01*
X118626886Y-69920000D01*
X118873114Y-69920000D01*
X119114611Y-69871963D01*
X119342097Y-69777735D01*
X119546828Y-69640938D01*
X119720938Y-69466828D01*
X119857735Y-69262097D01*
X119951963Y-69034611D01*
X120000000Y-68793114D01*
X120000000Y-68546886D01*
X120750000Y-68546886D01*
X120750000Y-68793114D01*
X120798037Y-69034611D01*
X120892265Y-69262097D01*
X121029062Y-69466828D01*
X121203172Y-69640938D01*
X121407903Y-69777735D01*
X121635389Y-69871963D01*
X121876886Y-69920000D01*
X122123114Y-69920000D01*
X122364611Y-69871963D01*
X122592097Y-69777735D01*
X122796828Y-69640938D01*
X122970938Y-69466828D01*
X123107735Y-69262097D01*
X123201963Y-69034611D01*
X123250000Y-68793114D01*
X123250000Y-68546886D01*
X124000000Y-68546886D01*
X124000000Y-68793114D01*
X124048037Y-69034611D01*
X124142265Y-69262097D01*
X124279062Y-69466828D01*
X124453172Y-69640938D01*
X124657903Y-69777735D01*
X124885389Y-69871963D01*
X125126886Y-69920000D01*
X125373114Y-69920000D01*
X125614611Y-69871963D01*
X125842097Y-69777735D01*
X126046828Y-69640938D01*
X126220938Y-69466828D01*
X126357735Y-69262097D01*
X126451963Y-69034611D01*
X126500000Y-68793114D01*
X126500000Y-68546886D01*
X127250000Y-68546886D01*
X127250000Y-68793114D01*
X127298037Y-69034611D01*
X127392265Y-69262097D01*
X127529062Y-69466828D01*
X127703172Y-69640938D01*
X127907903Y-69777735D01*
X128135389Y-69871963D01*
X128376886Y-69920000D01*
X128623114Y-69920000D01*
X128864611Y-69871963D01*
X129092097Y-69777735D01*
X129296828Y-69640938D01*
X129470938Y-69466828D01*
X129607735Y-69262097D01*
X129701963Y-69034611D01*
X129750000Y-68793114D01*
X129750000Y-68546886D01*
X130500000Y-68546886D01*
X130500000Y-68793114D01*
X130548037Y-69034611D01*
X130642265Y-69262097D01*
X130779062Y-69466828D01*
X130953172Y-69640938D01*
X131157903Y-69777735D01*
X131385389Y-69871963D01*
X131626886Y-69920000D01*
X131873114Y-69920000D01*
X132114611Y-69871963D01*
X132342097Y-69777735D01*
X132546828Y-69640938D01*
X132720938Y-69466828D01*
X132857735Y-69262097D01*
X132951963Y-69034611D01*
X133000000Y-68793114D01*
X133000000Y-68546886D01*
X133750000Y-68546886D01*
X133750000Y-68793114D01*
X133798037Y-69034611D01*
X133892265Y-69262097D01*
X134029062Y-69466828D01*
X134203172Y-69640938D01*
X134407903Y-69777735D01*
X134635389Y-69871963D01*
X134876886Y-69920000D01*
X135123114Y-69920000D01*
X135364611Y-69871963D01*
X135592097Y-69777735D01*
X135796828Y-69640938D01*
X135970938Y-69466828D01*
X136107735Y-69262097D01*
X136201963Y-69034611D01*
X136250000Y-68793114D01*
X136250000Y-68546886D01*
X136201963Y-68305389D01*
X136107735Y-68077903D01*
X135970938Y-67873172D01*
X135796828Y-67699062D01*
X135592097Y-67562265D01*
X135364611Y-67468037D01*
X135123114Y-67420000D01*
X134876886Y-67420000D01*
X134635389Y-67468037D01*
X134407903Y-67562265D01*
X134203172Y-67699062D01*
X134029062Y-67873172D01*
X133892265Y-68077903D01*
X133798037Y-68305389D01*
X133750000Y-68546886D01*
X133000000Y-68546886D01*
X132951963Y-68305389D01*
X132857735Y-68077903D01*
X132720938Y-67873172D01*
X132546828Y-67699062D01*
X132342097Y-67562265D01*
X132114611Y-67468037D01*
X131873114Y-67420000D01*
X131626886Y-67420000D01*
X131385389Y-67468037D01*
X131157903Y-67562265D01*
X130953172Y-67699062D01*
X130779062Y-67873172D01*
X130642265Y-68077903D01*
X130548037Y-68305389D01*
X130500000Y-68546886D01*
X129750000Y-68546886D01*
X129701963Y-68305389D01*
X129607735Y-68077903D01*
X129470938Y-67873172D01*
X129296828Y-67699062D01*
X129092097Y-67562265D01*
X128864611Y-67468037D01*
X128623114Y-67420000D01*
X128376886Y-67420000D01*
X128135389Y-67468037D01*
X127907903Y-67562265D01*
X127703172Y-67699062D01*
X127529062Y-67873172D01*
X127392265Y-68077903D01*
X127298037Y-68305389D01*
X127250000Y-68546886D01*
X126500000Y-68546886D01*
X126451963Y-68305389D01*
X126357735Y-68077903D01*
X126220938Y-67873172D01*
X126046828Y-67699062D01*
X125842097Y-67562265D01*
X125614611Y-67468037D01*
X125373114Y-67420000D01*
X125126886Y-67420000D01*
X124885389Y-67468037D01*
X124657903Y-67562265D01*
X124453172Y-67699062D01*
X124279062Y-67873172D01*
X124142265Y-68077903D01*
X124048037Y-68305389D01*
X124000000Y-68546886D01*
X123250000Y-68546886D01*
X123201963Y-68305389D01*
X123107735Y-68077903D01*
X122970938Y-67873172D01*
X122796828Y-67699062D01*
X122592097Y-67562265D01*
X122364611Y-67468037D01*
X122123114Y-67420000D01*
X121876886Y-67420000D01*
X121635389Y-67468037D01*
X121407903Y-67562265D01*
X121203172Y-67699062D01*
X121029062Y-67873172D01*
X120892265Y-68077903D01*
X120798037Y-68305389D01*
X120750000Y-68546886D01*
X120000000Y-68546886D01*
X119951963Y-68305389D01*
X119857735Y-68077903D01*
X119720938Y-67873172D01*
X119546828Y-67699062D01*
X119342097Y-67562265D01*
X119114611Y-67468037D01*
X118873114Y-67420000D01*
X118626886Y-67420000D01*
X118385389Y-67468037D01*
X118157903Y-67562265D01*
X117953172Y-67699062D01*
X117779062Y-67873172D01*
X117642265Y-68077903D01*
X117548037Y-68305389D01*
X117500000Y-68546886D01*
X116984087Y-68546886D01*
X116951963Y-68385389D01*
X116857735Y-68157903D01*
X116720938Y-67953172D01*
X116546828Y-67779062D01*
X116342097Y-67642265D01*
X116114611Y-67548037D01*
X115873114Y-67500000D01*
X115626886Y-67500000D01*
X115385389Y-67548037D01*
X115157903Y-67642265D01*
X114953172Y-67779062D01*
X114779062Y-67953172D01*
X114642265Y-68157903D01*
X114548037Y-68385389D01*
X114500000Y-68626886D01*
X112000000Y-68626886D01*
X111951963Y-68385389D01*
X111857735Y-68157903D01*
X111720938Y-67953172D01*
X111546828Y-67779062D01*
X111342097Y-67642265D01*
X111114611Y-67548037D01*
X110873114Y-67500000D01*
X110626886Y-67500000D01*
X110385389Y-67548037D01*
X110157903Y-67642265D01*
X109953172Y-67779062D01*
X109779062Y-67953172D01*
X109642265Y-68157903D01*
X109548037Y-68385389D01*
X109500000Y-68626886D01*
X91027846Y-68626886D01*
X90962211Y-68468432D01*
X90781639Y-68198186D01*
X90551814Y-67968361D01*
X90281568Y-67787789D01*
X89981287Y-67663408D01*
X89662511Y-67600000D01*
X89337489Y-67600000D01*
X89018713Y-67663408D01*
X88718432Y-67787789D01*
X88448186Y-67968361D01*
X88218361Y-68198186D01*
X88037789Y-68468432D01*
X87913408Y-68768713D01*
X87850000Y-69087489D01*
X77975000Y-69087489D01*
X77975000Y-65700000D01*
X101247823Y-65700000D01*
X101247823Y-67300000D01*
X101256511Y-67388215D01*
X101282243Y-67473041D01*
X101324029Y-67551216D01*
X101380263Y-67619737D01*
X101448784Y-67675971D01*
X101526959Y-67717757D01*
X101611785Y-67743489D01*
X101700000Y-67752177D01*
X103300000Y-67752177D01*
X103388215Y-67743489D01*
X103473041Y-67717757D01*
X103551216Y-67675971D01*
X103619737Y-67619737D01*
X103675971Y-67551216D01*
X103717757Y-67473041D01*
X103743489Y-67388215D01*
X103752177Y-67300000D01*
X103752177Y-65700000D01*
X103743489Y-65611785D01*
X103717757Y-65526959D01*
X103675971Y-65448784D01*
X103625049Y-65386735D01*
X106850000Y-65386735D01*
X106850000Y-65613265D01*
X106894194Y-65835443D01*
X106980884Y-66044729D01*
X107106737Y-66233082D01*
X107266918Y-66393263D01*
X107455271Y-66519116D01*
X107664557Y-66605806D01*
X107886735Y-66650000D01*
X108113265Y-66650000D01*
X108335443Y-66605806D01*
X108544729Y-66519116D01*
X108733082Y-66393263D01*
X108893263Y-66233082D01*
X109019116Y-66044729D01*
X109105806Y-65835443D01*
X109145331Y-65636735D01*
X118350000Y-65636735D01*
X118350000Y-65863265D01*
X118394194Y-66085443D01*
X118480884Y-66294729D01*
X118606737Y-66483082D01*
X118766918Y-66643263D01*
X118955271Y-66769116D01*
X119164557Y-66855806D01*
X119386735Y-66900000D01*
X119613265Y-66900000D01*
X119835443Y-66855806D01*
X120044729Y-66769116D01*
X120233082Y-66643263D01*
X120393263Y-66483082D01*
X120519116Y-66294729D01*
X120605806Y-66085443D01*
X120650000Y-65863265D01*
X120650000Y-65636735D01*
X120850000Y-65636735D01*
X120850000Y-65863265D01*
X120894194Y-66085443D01*
X120980884Y-66294729D01*
X121106737Y-66483082D01*
X121266918Y-66643263D01*
X121455271Y-66769116D01*
X121664557Y-66855806D01*
X121886735Y-66900000D01*
X122113265Y-66900000D01*
X122335443Y-66855806D01*
X122544729Y-66769116D01*
X122733082Y-66643263D01*
X122893263Y-66483082D01*
X123019116Y-66294729D01*
X123105806Y-66085443D01*
X123150000Y-65863265D01*
X123150000Y-65636735D01*
X131350000Y-65636735D01*
X131350000Y-65863265D01*
X131394194Y-66085443D01*
X131480884Y-66294729D01*
X131606737Y-66483082D01*
X131766918Y-66643263D01*
X131955271Y-66769116D01*
X132164557Y-66855806D01*
X132386735Y-66900000D01*
X132613265Y-66900000D01*
X132835443Y-66855806D01*
X133044729Y-66769116D01*
X133233082Y-66643263D01*
X133393263Y-66483082D01*
X133519116Y-66294729D01*
X133605806Y-66085443D01*
X133650000Y-65863265D01*
X133650000Y-65636735D01*
X133850000Y-65636735D01*
X133850000Y-65863265D01*
X133894194Y-66085443D01*
X133980884Y-66294729D01*
X134106737Y-66483082D01*
X134266918Y-66643263D01*
X134455271Y-66769116D01*
X134664557Y-66855806D01*
X134886735Y-66900000D01*
X135113265Y-66900000D01*
X135335443Y-66855806D01*
X135544729Y-66769116D01*
X135733082Y-66643263D01*
X135893263Y-66483082D01*
X136019116Y-66294729D01*
X136105806Y-66085443D01*
X136150000Y-65863265D01*
X136150000Y-65636735D01*
X136105806Y-65414557D01*
X136019116Y-65205271D01*
X135893263Y-65016918D01*
X135733082Y-64856737D01*
X135544729Y-64730884D01*
X135335443Y-64644194D01*
X135113265Y-64600000D01*
X134886735Y-64600000D01*
X134664557Y-64644194D01*
X134455271Y-64730884D01*
X134266918Y-64856737D01*
X134106737Y-65016918D01*
X133980884Y-65205271D01*
X133894194Y-65414557D01*
X133850000Y-65636735D01*
X133650000Y-65636735D01*
X133605806Y-65414557D01*
X133519116Y-65205271D01*
X133393263Y-65016918D01*
X133233082Y-64856737D01*
X133044729Y-64730884D01*
X132835443Y-64644194D01*
X132613265Y-64600000D01*
X132386735Y-64600000D01*
X132164557Y-64644194D01*
X131955271Y-64730884D01*
X131766918Y-64856737D01*
X131606737Y-65016918D01*
X131480884Y-65205271D01*
X131394194Y-65414557D01*
X131350000Y-65636735D01*
X123150000Y-65636735D01*
X123105806Y-65414557D01*
X123019116Y-65205271D01*
X122893263Y-65016918D01*
X122733082Y-64856737D01*
X122544729Y-64730884D01*
X122335443Y-64644194D01*
X122113265Y-64600000D01*
X121886735Y-64600000D01*
X121664557Y-64644194D01*
X121455271Y-64730884D01*
X121266918Y-64856737D01*
X121106737Y-65016918D01*
X120980884Y-65205271D01*
X120894194Y-65414557D01*
X120850000Y-65636735D01*
X120650000Y-65636735D01*
X120605806Y-65414557D01*
X120519116Y-65205271D01*
X120393263Y-65016918D01*
X120233082Y-64856737D01*
X120044729Y-64730884D01*
X119835443Y-64644194D01*
X119613265Y-64600000D01*
X119386735Y-64600000D01*
X119164557Y-64644194D01*
X118955271Y-64730884D01*
X118766918Y-64856737D01*
X118606737Y-65016918D01*
X118480884Y-65205271D01*
X118394194Y-65414557D01*
X118350000Y-65636735D01*
X109145331Y-65636735D01*
X109150000Y-65613265D01*
X109150000Y-65386735D01*
X109105806Y-65164557D01*
X109019116Y-64955271D01*
X108893263Y-64766918D01*
X108733082Y-64606737D01*
X108544729Y-64480884D01*
X108335443Y-64394194D01*
X108113265Y-64350000D01*
X108089701Y-64350000D01*
X108310399Y-64320542D01*
X108562061Y-64234613D01*
X108714278Y-64153250D01*
X108770631Y-63912052D01*
X108000000Y-63141421D01*
X107229369Y-63912052D01*
X107285722Y-64153250D01*
X107524435Y-64270440D01*
X107781423Y-64338807D01*
X107957004Y-64350000D01*
X107886735Y-64350000D01*
X107664557Y-64394194D01*
X107455271Y-64480884D01*
X107266918Y-64606737D01*
X107106737Y-64766918D01*
X106980884Y-64955271D01*
X106894194Y-65164557D01*
X106850000Y-65386735D01*
X103625049Y-65386735D01*
X103619737Y-65380263D01*
X103551216Y-65324029D01*
X103473041Y-65282243D01*
X103388215Y-65256511D01*
X103300000Y-65247823D01*
X103249033Y-65247823D01*
X103273491Y-65234750D01*
X103341915Y-64983337D01*
X102500000Y-64141421D01*
X101658085Y-64983337D01*
X101726509Y-65234750D01*
X101752799Y-65247823D01*
X101700000Y-65247823D01*
X101611785Y-65256511D01*
X101526959Y-65282243D01*
X101448784Y-65324029D01*
X101380263Y-65380263D01*
X101324029Y-65448784D01*
X101282243Y-65526959D01*
X101256511Y-65611785D01*
X101247823Y-65700000D01*
X77975000Y-65700000D01*
X77975000Y-64050000D01*
X94046855Y-64050000D01*
X94059405Y-64177422D01*
X94096573Y-64299948D01*
X94156930Y-64412868D01*
X94238157Y-64511843D01*
X94337132Y-64593070D01*
X94450052Y-64653427D01*
X94572578Y-64690595D01*
X94700000Y-64703145D01*
X95237500Y-64700000D01*
X95400000Y-64537500D01*
X95400000Y-63350000D01*
X95600000Y-63350000D01*
X95600000Y-64537500D01*
X95762500Y-64700000D01*
X96300000Y-64703145D01*
X96427422Y-64690595D01*
X96549948Y-64653427D01*
X96662868Y-64593070D01*
X96761843Y-64511843D01*
X96843070Y-64412868D01*
X96903427Y-64299948D01*
X96940595Y-64177422D01*
X96953145Y-64050000D01*
X96953104Y-64042856D01*
X101043614Y-64042856D01*
X101079958Y-64326159D01*
X101170875Y-64596928D01*
X101265250Y-64773491D01*
X101516663Y-64841915D01*
X102358579Y-64000000D01*
X102641421Y-64000000D01*
X103483337Y-64841915D01*
X103734750Y-64773491D01*
X103861925Y-64517741D01*
X103936762Y-64242094D01*
X103956386Y-63957144D01*
X103920042Y-63673841D01*
X103829125Y-63403072D01*
X103734750Y-63226509D01*
X103483337Y-63158085D01*
X102641421Y-64000000D01*
X102358579Y-64000000D01*
X101516663Y-63158085D01*
X101265250Y-63226509D01*
X101138075Y-63482259D01*
X101063238Y-63757906D01*
X101043614Y-64042856D01*
X96953104Y-64042856D01*
X96950000Y-63512500D01*
X96787500Y-63350000D01*
X95600000Y-63350000D01*
X95400000Y-63350000D01*
X94212500Y-63350000D01*
X94050000Y-63512500D01*
X94046855Y-64050000D01*
X77975000Y-64050000D01*
X77975000Y-63150000D01*
X84750000Y-63150000D01*
X84779264Y-63147118D01*
X84807403Y-63138582D01*
X84833336Y-63124720D01*
X84856066Y-63106066D01*
X85356066Y-62606066D01*
X85374720Y-62583336D01*
X85388582Y-62557403D01*
X85397118Y-62529264D01*
X85400000Y-62500000D01*
X85400000Y-62450000D01*
X94046855Y-62450000D01*
X94050000Y-62987500D01*
X94212500Y-63150000D01*
X95400000Y-63150000D01*
X95400000Y-61962500D01*
X95600000Y-61962500D01*
X95600000Y-63150000D01*
X96787500Y-63150000D01*
X96920837Y-63016663D01*
X101658085Y-63016663D01*
X102500000Y-63858579D01*
X103311768Y-63046810D01*
X106644275Y-63046810D01*
X106679458Y-63310399D01*
X106765387Y-63562061D01*
X106846750Y-63714278D01*
X107087948Y-63770631D01*
X107858579Y-63000000D01*
X108141421Y-63000000D01*
X108912052Y-63770631D01*
X109153250Y-63714278D01*
X109270440Y-63475565D01*
X109338807Y-63218577D01*
X109355725Y-62953190D01*
X109320542Y-62689601D01*
X109234613Y-62437939D01*
X109153250Y-62285722D01*
X108912052Y-62229369D01*
X108141421Y-63000000D01*
X107858579Y-63000000D01*
X107087948Y-62229369D01*
X106846750Y-62285722D01*
X106729560Y-62524435D01*
X106661193Y-62781423D01*
X106644275Y-63046810D01*
X103311768Y-63046810D01*
X103341915Y-63016663D01*
X103273491Y-62765250D01*
X103017741Y-62638075D01*
X102742094Y-62563238D01*
X102457144Y-62543614D01*
X102173841Y-62579958D01*
X101903072Y-62670875D01*
X101726509Y-62765250D01*
X101658085Y-63016663D01*
X96920837Y-63016663D01*
X96950000Y-62987500D01*
X96953145Y-62450000D01*
X96940595Y-62322578D01*
X96903427Y-62200052D01*
X96843507Y-62087948D01*
X107229369Y-62087948D01*
X108000000Y-62858579D01*
X108770631Y-62087948D01*
X108714278Y-61846750D01*
X108475565Y-61729560D01*
X108218577Y-61661193D01*
X107953190Y-61644275D01*
X107689601Y-61679458D01*
X107437939Y-61765387D01*
X107285722Y-61846750D01*
X107229369Y-62087948D01*
X96843507Y-62087948D01*
X96843070Y-62087132D01*
X96761843Y-61988157D01*
X96662868Y-61906930D01*
X96549948Y-61846573D01*
X96427422Y-61809405D01*
X96300000Y-61796855D01*
X95762500Y-61800000D01*
X95600000Y-61962500D01*
X95400000Y-61962500D01*
X95237500Y-61800000D01*
X94700000Y-61796855D01*
X94572578Y-61809405D01*
X94450052Y-61846573D01*
X94337132Y-61906930D01*
X94238157Y-61988157D01*
X94156930Y-62087132D01*
X94096573Y-62200052D01*
X94059405Y-62322578D01*
X94046855Y-62450000D01*
X85400000Y-62450000D01*
X85400000Y-54876886D01*
X86670000Y-54876886D01*
X86670000Y-55123114D01*
X86718037Y-55364611D01*
X86812265Y-55592097D01*
X86949062Y-55796828D01*
X87123172Y-55970938D01*
X87327903Y-56107735D01*
X87555389Y-56201963D01*
X87796886Y-56250000D01*
X88043114Y-56250000D01*
X88284611Y-56201963D01*
X88512097Y-56107735D01*
X88716828Y-55970938D01*
X88890938Y-55796828D01*
X89027735Y-55592097D01*
X89121963Y-55364611D01*
X89170000Y-55123114D01*
X89170000Y-54876886D01*
X89121963Y-54635389D01*
X89027735Y-54407903D01*
X88890938Y-54203172D01*
X88716828Y-54029062D01*
X88512097Y-53892265D01*
X88284611Y-53798037D01*
X88043114Y-53750000D01*
X87796886Y-53750000D01*
X87555389Y-53798037D01*
X87327903Y-53892265D01*
X87123172Y-54029062D01*
X86949062Y-54203172D01*
X86812265Y-54407903D01*
X86718037Y-54635389D01*
X86670000Y-54876886D01*
X85400000Y-54876886D01*
X85400000Y-52975000D01*
X99256472Y-52975000D01*
X98435290Y-53796183D01*
%TD*%
M02*
