%TF.GenerationSoftware,KiCad,Pcbnew,(5.1.6-0)*%
%TF.CreationDate,2023-05-05T14:03:50-07:00*%
%TF.ProjectId,LM3886-bal-tht,4c4d3338-3836-42d6-9261-6c2d7468742e,rev?*%
%TF.SameCoordinates,Original*%
%TF.FileFunction,Copper,L1,Top*%
%TF.FilePolarity,Positive*%
%FSLAX46Y46*%
G04 Gerber Fmt 4.6, Leading zero omitted, Abs format (unit mm)*
G04 Created by KiCad (PCBNEW (5.1.6-0)) date 2023-05-05 14:03:50*
%MOMM*%
%LPD*%
G01*
G04 APERTURE LIST*
%TA.AperFunction,ComponentPad*%
%ADD10C,1.600000*%
%TD*%
%TA.AperFunction,ComponentPad*%
%ADD11O,2.800000X2.800000*%
%TD*%
%TA.AperFunction,ComponentPad*%
%ADD12C,2.800000*%
%TD*%
%TA.AperFunction,ComponentPad*%
%ADD13C,1.400000*%
%TD*%
%TA.AperFunction,ComponentPad*%
%ADD14O,1.600000X1.600000*%
%TD*%
%TA.AperFunction,ComponentPad*%
%ADD15C,2.500000*%
%TD*%
%TA.AperFunction,ComponentPad*%
%ADD16C,2.600000*%
%TD*%
%TA.AperFunction,ComponentPad*%
%ADD17C,2.000000*%
%TD*%
%TA.AperFunction,ComponentPad*%
%ADD18C,0.800000*%
%TD*%
%TA.AperFunction,ComponentPad*%
%ADD19C,7.000000*%
%TD*%
%TA.AperFunction,ComponentPad*%
%ADD20R,1.600000X1.600000*%
%TD*%
%TA.AperFunction,ComponentPad*%
%ADD21C,2.400000*%
%TD*%
%TA.AperFunction,ComponentPad*%
%ADD22R,2.400000X2.400000*%
%TD*%
%TA.AperFunction,ComponentPad*%
%ADD23O,1.800000X1.800000*%
%TD*%
%TA.AperFunction,ComponentPad*%
%ADD24R,1.800000X1.800000*%
%TD*%
%TA.AperFunction,ViaPad*%
%ADD25C,0.700000*%
%TD*%
%TA.AperFunction,Conductor*%
%ADD26C,0.300000*%
%TD*%
%TA.AperFunction,Conductor*%
%ADD27C,2.000000*%
%TD*%
%TA.AperFunction,Conductor*%
%ADD28C,1.000000*%
%TD*%
G04 APERTURE END LIST*
D10*
%TO.P,C11,2*%
%TO.N,Net-(C11-Pad2)*%
X115750000Y-68750000D03*
%TO.P,C11,1*%
%TO.N,/SIGOUT*%
X110750000Y-68750000D03*
%TD*%
D11*
%TO.P,R9,2*%
%TO.N,/SIGOUT*%
X113500000Y-78510000D03*
D12*
%TO.P,R9,1*%
%TO.N,/SPK+*%
X113500000Y-93750000D03*
%TD*%
D11*
%TO.P,R8,2*%
%TO.N,GND*%
X99910000Y-73500000D03*
D12*
%TO.P,R8,1*%
%TO.N,Net-(C11-Pad2)*%
X115150000Y-73500000D03*
%TD*%
D13*
%TO.P,C1,2*%
%TO.N,/ICIN+*%
X132250000Y-56500000D03*
%TO.P,C1,1*%
%TO.N,/ICIN-*%
X132250000Y-59000000D03*
%TD*%
D14*
%TO.P,R7,2*%
%TO.N,/MUTE*%
X98080000Y-55000000D03*
D10*
%TO.P,R7,1*%
%TO.N,VEE*%
X87920000Y-55000000D03*
%TD*%
D14*
%TO.P,R6,2*%
%TO.N,Net-(C5-Pad1)*%
X118750000Y-68670000D03*
D10*
%TO.P,R6,1*%
%TO.N,/SIGOUT*%
X118750000Y-78830000D03*
%TD*%
D14*
%TO.P,R5,2*%
%TO.N,/ICIN-*%
X122000000Y-68670000D03*
D10*
%TO.P,R5,1*%
%TO.N,/SIGOUT*%
X122000000Y-78830000D03*
%TD*%
D14*
%TO.P,R4,2*%
%TO.N,/ICIN+*%
X131750000Y-68670000D03*
D10*
%TO.P,R4,1*%
%TO.N,GND*%
X131750000Y-78830000D03*
%TD*%
D14*
%TO.P,R3,2*%
%TO.N,Net-(C4-Pad2)*%
X135000000Y-68670000D03*
D10*
%TO.P,R3,1*%
%TO.N,GND*%
X135000000Y-78830000D03*
%TD*%
D14*
%TO.P,R2,2*%
%TO.N,/IN-*%
X125250000Y-78830000D03*
D10*
%TO.P,R2,1*%
%TO.N,/ICIN-*%
X125250000Y-68670000D03*
%TD*%
D14*
%TO.P,R1,2*%
%TO.N,/IN+*%
X128500000Y-78830000D03*
D10*
%TO.P,R1,1*%
%TO.N,/ICIN+*%
X128500000Y-68670000D03*
%TD*%
D13*
%TO.P,C9,2*%
%TO.N,VEE*%
X108000000Y-57250000D03*
%TO.P,C9,1*%
%TO.N,GND*%
X108000000Y-59750000D03*
%TD*%
%TO.P,C8,2*%
%TO.N,GND*%
X108000000Y-63000000D03*
%TO.P,C8,1*%
%TO.N,VCC*%
X108000000Y-65500000D03*
%TD*%
%TO.P,C5,2*%
%TO.N,/ICIN-*%
X122000000Y-65750000D03*
%TO.P,C5,1*%
%TO.N,Net-(C5-Pad1)*%
X119500000Y-65750000D03*
%TD*%
%TO.P,C4,2*%
%TO.N,Net-(C4-Pad2)*%
X135000000Y-65750000D03*
%TO.P,C4,1*%
%TO.N,/ICIN+*%
X132500000Y-65750000D03*
%TD*%
D12*
%TO.P,J8,1*%
%TO.N,GND*%
X118000000Y-102210000D03*
X118000000Y-107290000D03*
%TD*%
%TO.P,J7,1*%
%TO.N,/SPK+*%
X108500000Y-102210000D03*
X108500000Y-107290000D03*
%TD*%
%TO.P,J6,1*%
%TO.N,VCC*%
X103000000Y-102210000D03*
X103000000Y-107290000D03*
%TD*%
%TO.P,J5,1*%
%TO.N,GND*%
X95000000Y-102210000D03*
X95000000Y-107290000D03*
%TD*%
%TO.P,J4,1*%
%TO.N,VEE*%
X88000000Y-102210000D03*
X88000000Y-107290000D03*
%TD*%
D15*
%TO.P,L1,2*%
%TO.N,/SPK+*%
X100940000Y-92600000D03*
%TO.P,L1,1*%
%TO.N,/SIGOUT*%
X108560000Y-79900000D03*
%TD*%
D16*
%TO.P,J3,3*%
%TO.N,VCC*%
X100500000Y-104750000D03*
%TO.P,J3,2*%
%TO.N,GND*%
X95500000Y-104750000D03*
%TO.P,J3,1*%
%TO.N,VEE*%
X90500000Y-104750000D03*
%TD*%
%TO.P,J2,2*%
%TO.N,GND*%
X115750000Y-104750000D03*
%TO.P,J2,1*%
%TO.N,/SPK+*%
X110750000Y-104750000D03*
%TD*%
D17*
%TO.P,J1,3*%
%TO.N,GND*%
X131250000Y-104750000D03*
%TO.P,J1,2*%
%TO.N,Net-(C12-Pad1)*%
X127750000Y-104750000D03*
%TO.P,J1,1*%
%TO.N,Net-(C13-Pad1)*%
X124250000Y-104750000D03*
%TD*%
D18*
%TO.P,H4,1*%
%TO.N,N/C*%
X140606155Y-104393845D03*
X138750000Y-103625000D03*
X136893845Y-104393845D03*
X136125000Y-106250000D03*
X136893845Y-108106155D03*
X138750000Y-108875000D03*
X140606155Y-108106155D03*
X141375000Y-106250000D03*
D19*
X138750000Y-106250000D03*
%TD*%
D18*
%TO.P,H3,1*%
%TO.N,N/C*%
X140606155Y-57143845D03*
X138750000Y-56375000D03*
X136893845Y-57143845D03*
X136125000Y-59000000D03*
X136893845Y-60856155D03*
X138750000Y-61625000D03*
X140606155Y-60856155D03*
X141375000Y-59000000D03*
D19*
X138750000Y-59000000D03*
%TD*%
D18*
%TO.P,H2,1*%
%TO.N,N/C*%
X83106155Y-104393845D03*
X81250000Y-103625000D03*
X79393845Y-104393845D03*
X78625000Y-106250000D03*
X79393845Y-108106155D03*
X81250000Y-108875000D03*
X83106155Y-108106155D03*
X83875000Y-106250000D03*
D19*
X81250000Y-106250000D03*
%TD*%
D18*
%TO.P,H1,1*%
%TO.N,N/C*%
X83106155Y-57143845D03*
X81250000Y-56375000D03*
X79393845Y-57143845D03*
X78625000Y-59000000D03*
X79393845Y-60856155D03*
X81250000Y-61625000D03*
X83106155Y-60856155D03*
X83875000Y-59000000D03*
D19*
X81250000Y-59000000D03*
%TD*%
D10*
%TO.P,C13,2*%
%TO.N,/IN-*%
X122500000Y-86250000D03*
%TO.P,C13,1*%
%TO.N,Net-(C13-Pad1)*%
X122500000Y-91250000D03*
%TD*%
%TO.P,C12,2*%
%TO.N,/IN+*%
X133250000Y-86250000D03*
%TO.P,C12,1*%
%TO.N,Net-(C12-Pad1)*%
X133250000Y-91250000D03*
%TD*%
%TO.P,C10,2*%
%TO.N,/MUTE*%
X95500000Y-59750000D03*
D20*
%TO.P,C10,1*%
%TO.N,GND*%
X95500000Y-63250000D03*
%TD*%
D10*
%TO.P,C7,2*%
%TO.N,VEE*%
X102500000Y-56750000D03*
D20*
%TO.P,C7,1*%
%TO.N,GND*%
X102500000Y-59250000D03*
%TD*%
D10*
%TO.P,C6,2*%
%TO.N,GND*%
X102500000Y-64000000D03*
D20*
%TO.P,C6,1*%
%TO.N,VCC*%
X102500000Y-66500000D03*
%TD*%
D21*
%TO.P,C3,2*%
%TO.N,VEE*%
X89500000Y-69250000D03*
D22*
%TO.P,C3,1*%
%TO.N,GND*%
X89500000Y-76750000D03*
%TD*%
D21*
%TO.P,C2,2*%
%TO.N,GND*%
X89500000Y-86250000D03*
D22*
%TO.P,C2,1*%
%TO.N,VCC*%
X89500000Y-93750000D03*
%TD*%
D23*
%TO.P,U1,11*%
%TO.N,N/C*%
X128750000Y-61500000D03*
%TO.P,U1,10*%
%TO.N,/ICIN+*%
X127050000Y-56420000D03*
%TO.P,U1,9*%
%TO.N,/ICIN-*%
X125350000Y-61500000D03*
%TO.P,U1,8*%
%TO.N,/MUTE*%
X123650000Y-56420000D03*
%TO.P,U1,7*%
%TO.N,GND*%
X121950000Y-61500000D03*
%TO.P,U1,6*%
%TO.N,N/C*%
X120250000Y-56420000D03*
%TO.P,U1,5*%
%TO.N,VCC*%
X118550000Y-61500000D03*
%TO.P,U1,4*%
%TO.N,VEE*%
X116850000Y-56420000D03*
%TO.P,U1,3*%
%TO.N,/SIGOUT*%
X115150000Y-61500000D03*
%TO.P,U1,2*%
%TO.N,N/C*%
X113450000Y-56420000D03*
D24*
%TO.P,U1,1*%
%TO.N,VCC*%
X111750000Y-61500000D03*
%TD*%
D25*
%TO.N,GND*%
X79198810Y-100792500D03*
X88198810Y-79792500D03*
X88198810Y-83792500D03*
X90198810Y-73792500D03*
X90198810Y-81792500D03*
X102198810Y-88500000D03*
X104198810Y-86792500D03*
X106198810Y-82792500D03*
X106198810Y-88500000D03*
X107198810Y-85792500D03*
X109198810Y-87792500D03*
X110198810Y-84792500D03*
X112198810Y-86792500D03*
X114198810Y-84792500D03*
X114198810Y-88500000D03*
X114198810Y-98792500D03*
X114198810Y-107792500D03*
X115198810Y-101792500D03*
X116500000Y-81000000D03*
X116198810Y-86792500D03*
X116198810Y-96792500D03*
X117198810Y-70792500D03*
X117198810Y-75792500D03*
X117198810Y-89792500D03*
X117198810Y-93792500D03*
X118198810Y-83792500D03*
X118198810Y-98000000D03*
X118198810Y-104792500D03*
X119198810Y-72792500D03*
X119198810Y-87792500D03*
X119198810Y-91792500D03*
X119198810Y-95792500D03*
X120198810Y-76792500D03*
X120198810Y-80792500D03*
X121198810Y-59792500D03*
X121198810Y-70792500D03*
X121198810Y-93792500D03*
X121198810Y-97792500D03*
X121198810Y-101792500D03*
X121198810Y-105792500D03*
X122750000Y-53792500D03*
X122198810Y-73792500D03*
X122198810Y-82792500D03*
X122198810Y-88792500D03*
X122198810Y-108792500D03*
X123198810Y-95792500D03*
X123250000Y-99250000D03*
X124198810Y-65792500D03*
X124198810Y-71792500D03*
X124198810Y-75792500D03*
X124198810Y-80792500D03*
X124198810Y-106792500D03*
X125198810Y-54792500D03*
X125198810Y-59792500D03*
X126198810Y-73792500D03*
X126198810Y-108792500D03*
X127198810Y-64792500D03*
X127198810Y-70792500D03*
X127198810Y-76792500D03*
X127198810Y-88792500D03*
X128198810Y-53792500D03*
X129198810Y-72792500D03*
X129198810Y-98792500D03*
X129198810Y-102792500D03*
X129198810Y-106792500D03*
X130198810Y-65792500D03*
X130198810Y-75792500D03*
X130198810Y-80792500D03*
X130198810Y-87792500D03*
X131198810Y-54792500D03*
X131198810Y-62792500D03*
X131198810Y-70792500D03*
X131198810Y-83792500D03*
X131198810Y-92792500D03*
X131198810Y-96792500D03*
X131198810Y-101500000D03*
X131198810Y-108792500D03*
X132198810Y-73792500D03*
X133198810Y-76792500D03*
X133198810Y-81792500D03*
X133198810Y-88792500D03*
X133198810Y-94792500D03*
X133198810Y-98792500D03*
X133198810Y-102792500D03*
X133198810Y-106792500D03*
X134198810Y-63792500D03*
X134198810Y-71792500D03*
X135198810Y-74792500D03*
X135198810Y-83792500D03*
X135198810Y-90792500D03*
X135198810Y-96792500D03*
X135198810Y-100792500D03*
X136198810Y-80792500D03*
X136198810Y-86792500D03*
X136198810Y-93792500D03*
X137198810Y-64792500D03*
X137198810Y-68792500D03*
X137198810Y-72792500D03*
X137198810Y-76792500D03*
X137198810Y-98792500D03*
X138198810Y-82792500D03*
X138198810Y-88792500D03*
X138198810Y-95792500D03*
X139198810Y-66792500D03*
X139198810Y-70792500D03*
X139198810Y-74792500D03*
X139198810Y-78792500D03*
X139198810Y-85792500D03*
X139198810Y-91792500D03*
X139198810Y-100792500D03*
X140198810Y-97792500D03*
X141198810Y-64792500D03*
X141198810Y-68792500D03*
X141198810Y-72792500D03*
X141198810Y-76792500D03*
X141198810Y-80792500D03*
X141198810Y-87792500D03*
X141198810Y-93792500D03*
X125500000Y-84750000D03*
X125000000Y-90250000D03*
X125000000Y-87500000D03*
X130250000Y-90000000D03*
X129500000Y-94500000D03*
X127250000Y-101000000D03*
X124250000Y-101750000D03*
X126000000Y-95750000D03*
X124250000Y-93250000D03*
X126500000Y-93000000D03*
X129750000Y-57750000D03*
X133000000Y-61000000D03*
X123250000Y-58500000D03*
X120750000Y-64000000D03*
X78750000Y-64000000D03*
X91500000Y-72250000D03*
X91750000Y-79750000D03*
X91750000Y-74000000D03*
%TD*%
D26*
%TO.N,Net-(C4-Pad2)*%
X135000000Y-65750000D02*
X135000000Y-68670000D01*
%TO.N,Net-(C5-Pad1)*%
X118750000Y-66500000D02*
X119500000Y-65750000D01*
X118750000Y-68670000D02*
X118750000Y-66500000D01*
%TO.N,/ICIN+*%
X131750000Y-67250000D02*
X131750000Y-68670000D01*
X131750000Y-66500000D02*
X131750000Y-67250000D01*
X132500000Y-65750000D02*
X131750000Y-66500000D01*
X132500000Y-65750000D02*
X132500000Y-63750000D01*
X131750000Y-68670000D02*
X128500000Y-68670000D01*
X132500000Y-63750000D02*
X134250000Y-62000000D01*
X132170000Y-56420000D02*
X132250000Y-56500000D01*
X127050000Y-56420000D02*
X132170000Y-56420000D01*
X132250000Y-56500000D02*
X133750000Y-56500000D01*
X134250000Y-57000000D02*
X134250000Y-62000000D01*
X133750000Y-56500000D02*
X134250000Y-57000000D01*
%TO.N,/ICIN-*%
X122000000Y-65750000D02*
X122000000Y-68670000D01*
X122000000Y-68670000D02*
X125250000Y-68670000D01*
X123600000Y-63250000D02*
X125350000Y-61500000D01*
X127850000Y-59000000D02*
X132250000Y-59000000D01*
X125350000Y-61500000D02*
X127850000Y-59000000D01*
X123600000Y-64150000D02*
X123600000Y-63250000D01*
X122000000Y-65750000D02*
X123600000Y-64150000D01*
%TO.N,/IN+*%
X133250000Y-86250000D02*
X128750000Y-86250000D01*
X128750000Y-86250000D02*
X128250000Y-85750000D01*
X128250000Y-85750000D02*
X128250000Y-82750000D01*
X128250000Y-82750000D02*
X127000000Y-81500000D01*
X127000000Y-80330000D02*
X128500000Y-78830000D01*
X127000000Y-81500000D02*
X127000000Y-80330000D01*
%TO.N,/IN-*%
X126399990Y-79979990D02*
X125250000Y-78830000D01*
X127649990Y-82998532D02*
X126399990Y-81748532D01*
X127649990Y-85850010D02*
X127649990Y-82998532D01*
X127250000Y-86250000D02*
X127649990Y-85850010D01*
X126399990Y-81748532D02*
X126399990Y-79979990D01*
X122500000Y-86250000D02*
X127250000Y-86250000D01*
%TO.N,/SIGOUT*%
X118750000Y-78830000D02*
X122000000Y-78830000D01*
D27*
X115150000Y-61500000D02*
X115150000Y-63150000D01*
D26*
X116750000Y-83000000D02*
X118750000Y-81000000D01*
X109500000Y-83000000D02*
X116750000Y-83000000D01*
X108560000Y-82060000D02*
X109500000Y-83000000D01*
X118750000Y-81000000D02*
X118750000Y-78830000D01*
X108560000Y-79900000D02*
X108560000Y-82060000D01*
%TO.N,Net-(C12-Pad1)*%
X128750000Y-91250000D02*
X133250000Y-91250000D01*
X128350010Y-91649990D02*
X128750000Y-91250000D01*
X128350010Y-96498532D02*
X128350010Y-91649990D01*
X126250000Y-98598542D02*
X128350010Y-96498532D01*
X126250000Y-103250000D02*
X126250000Y-98598542D01*
X127750000Y-104750000D02*
X126250000Y-103250000D01*
%TO.N,Net-(C13-Pad1)*%
X127250000Y-91250000D02*
X122500000Y-91250000D01*
X127750000Y-96250000D02*
X127750000Y-91750000D01*
X125649990Y-98350010D02*
X127750000Y-96250000D01*
X127750000Y-91750000D02*
X127250000Y-91250000D01*
X125649990Y-103350010D02*
X125649990Y-98350010D01*
X124250000Y-104750000D02*
X125649990Y-103350010D01*
D28*
%TO.N,Net-(C11-Pad2)*%
X115150000Y-73500000D02*
X115150000Y-71350000D01*
X115750000Y-70750000D02*
X115750000Y-68750000D01*
X115150000Y-71350000D02*
X115750000Y-70750000D01*
%TD*%
D26*
%TO.N,/SIGOUT*%
G36*
X115250000Y-62733795D02*
G01*
X115459376Y-62814076D01*
X115709795Y-62728470D01*
X115938701Y-62595655D01*
X116137298Y-62420734D01*
X116153137Y-62400000D01*
X116187868Y-62400000D01*
X117350000Y-63562132D01*
X117350000Y-65937868D01*
X116143934Y-67143934D01*
X116125280Y-67166664D01*
X116111418Y-67192597D01*
X116102882Y-67220736D01*
X116100000Y-67250000D01*
X116100000Y-67545131D01*
X115873114Y-67500000D01*
X115626886Y-67500000D01*
X115385389Y-67548037D01*
X115157903Y-67642265D01*
X114953172Y-67779062D01*
X114779062Y-67953172D01*
X114642265Y-68157903D01*
X114548037Y-68385389D01*
X114500000Y-68626886D01*
X114500000Y-68873114D01*
X114548037Y-69114611D01*
X114642265Y-69342097D01*
X114779062Y-69546828D01*
X114800001Y-69567767D01*
X114800000Y-70356498D01*
X114511243Y-70645255D01*
X114475000Y-70674999D01*
X114445256Y-70711242D01*
X114445252Y-70711246D01*
X114356283Y-70819655D01*
X114268069Y-70984692D01*
X114213747Y-71163768D01*
X114195405Y-71350000D01*
X114200001Y-71396664D01*
X114200001Y-71909794D01*
X113970694Y-72063011D01*
X113713011Y-72320694D01*
X113510552Y-72623697D01*
X113371095Y-72960375D01*
X113300000Y-73317791D01*
X113300000Y-73682209D01*
X113371095Y-74039625D01*
X113510552Y-74376303D01*
X113713011Y-74679306D01*
X113970694Y-74936989D01*
X114273697Y-75139448D01*
X114610375Y-75278905D01*
X114967791Y-75350000D01*
X115332209Y-75350000D01*
X115689625Y-75278905D01*
X116026303Y-75139448D01*
X116100000Y-75090206D01*
X116100000Y-79187868D01*
X113937868Y-81350000D01*
X109459729Y-81350000D01*
X109481446Y-81338392D01*
X109615421Y-81096842D01*
X108560000Y-80041421D01*
X107504579Y-81096842D01*
X107638554Y-81338392D01*
X107661317Y-81350000D01*
X107312132Y-81350000D01*
X105895105Y-79932973D01*
X106852092Y-79932973D01*
X106891341Y-80265536D01*
X106994717Y-80584052D01*
X107121608Y-80821446D01*
X107363158Y-80955421D01*
X108418579Y-79900000D01*
X108701421Y-79900000D01*
X109756842Y-80955421D01*
X109998392Y-80821446D01*
X110150519Y-80523125D01*
X110241524Y-80200857D01*
X110267908Y-79867027D01*
X110228659Y-79534464D01*
X110125283Y-79215948D01*
X109998392Y-78978554D01*
X109852707Y-78897750D01*
X111691089Y-78897750D01*
X111801493Y-79243201D01*
X111977170Y-79560475D01*
X112211368Y-79837380D01*
X112495088Y-80063274D01*
X112817426Y-80229477D01*
X113112251Y-80318908D01*
X113400000Y-80244620D01*
X113400000Y-78610000D01*
X113600000Y-78610000D01*
X113600000Y-80244620D01*
X113887749Y-80318908D01*
X114182574Y-80229477D01*
X114504912Y-80063274D01*
X114788632Y-79837380D01*
X115022830Y-79560475D01*
X115198507Y-79243201D01*
X115308911Y-78897750D01*
X115234798Y-78610000D01*
X113600000Y-78610000D01*
X113400000Y-78610000D01*
X111765202Y-78610000D01*
X111691089Y-78897750D01*
X109852707Y-78897750D01*
X109756842Y-78844579D01*
X108701421Y-79900000D01*
X108418579Y-79900000D01*
X107363158Y-78844579D01*
X107121608Y-78978554D01*
X106969481Y-79276875D01*
X106878476Y-79599143D01*
X106852092Y-79932973D01*
X105895105Y-79932973D01*
X105650000Y-79687868D01*
X105650000Y-78703158D01*
X107504579Y-78703158D01*
X108560000Y-79758579D01*
X109615421Y-78703158D01*
X109481446Y-78461608D01*
X109183125Y-78309481D01*
X108860857Y-78218476D01*
X108527027Y-78192092D01*
X108194464Y-78231341D01*
X107875948Y-78334717D01*
X107638554Y-78461608D01*
X107504579Y-78703158D01*
X105650000Y-78703158D01*
X105650000Y-78122250D01*
X111691089Y-78122250D01*
X111765202Y-78410000D01*
X113400000Y-78410000D01*
X113400000Y-76775380D01*
X113600000Y-76775380D01*
X113600000Y-78410000D01*
X115234798Y-78410000D01*
X115308911Y-78122250D01*
X115198507Y-77776799D01*
X115022830Y-77459525D01*
X114788632Y-77182620D01*
X114504912Y-76956726D01*
X114182574Y-76790523D01*
X113887749Y-76701092D01*
X113600000Y-76775380D01*
X113400000Y-76775380D01*
X113112251Y-76701092D01*
X112817426Y-76790523D01*
X112495088Y-76956726D01*
X112211368Y-77182620D01*
X111977170Y-77459525D01*
X111801493Y-77776799D01*
X111691089Y-78122250D01*
X105650000Y-78122250D01*
X105650000Y-72562132D01*
X108585909Y-69626223D01*
X110015198Y-69626223D01*
X110094958Y-69821717D01*
X110316626Y-69928917D01*
X110554948Y-69990812D01*
X110800766Y-70005023D01*
X111044633Y-69971004D01*
X111277178Y-69890063D01*
X111405042Y-69821717D01*
X111484802Y-69626223D01*
X110750000Y-68891421D01*
X110015198Y-69626223D01*
X108585909Y-69626223D01*
X109500107Y-68712025D01*
X109494977Y-68800766D01*
X109528996Y-69044633D01*
X109609937Y-69277178D01*
X109678283Y-69405042D01*
X109873777Y-69484802D01*
X110608579Y-68750000D01*
X110891421Y-68750000D01*
X111626223Y-69484802D01*
X111821717Y-69405042D01*
X111928917Y-69183374D01*
X111990812Y-68945052D01*
X112005023Y-68699234D01*
X111971004Y-68455367D01*
X111890063Y-68222822D01*
X111821717Y-68094958D01*
X111626223Y-68015198D01*
X110891421Y-68750000D01*
X110608579Y-68750000D01*
X110594437Y-68735858D01*
X110735858Y-68594437D01*
X110750000Y-68608579D01*
X111484802Y-67873777D01*
X111405042Y-67678283D01*
X111183374Y-67571083D01*
X110945052Y-67509188D01*
X110716176Y-67495956D01*
X111106066Y-67106066D01*
X111124720Y-67083336D01*
X111138582Y-67057403D01*
X111147118Y-67029264D01*
X111150000Y-67000000D01*
X111150000Y-65812132D01*
X114364576Y-62597556D01*
X114590205Y-62728470D01*
X114840624Y-62814076D01*
X115050000Y-62733795D01*
X115050000Y-62400000D01*
X115250000Y-62400000D01*
X115250000Y-62733795D01*
G37*
X115250000Y-62733795D02*
X115459376Y-62814076D01*
X115709795Y-62728470D01*
X115938701Y-62595655D01*
X116137298Y-62420734D01*
X116153137Y-62400000D01*
X116187868Y-62400000D01*
X117350000Y-63562132D01*
X117350000Y-65937868D01*
X116143934Y-67143934D01*
X116125280Y-67166664D01*
X116111418Y-67192597D01*
X116102882Y-67220736D01*
X116100000Y-67250000D01*
X116100000Y-67545131D01*
X115873114Y-67500000D01*
X115626886Y-67500000D01*
X115385389Y-67548037D01*
X115157903Y-67642265D01*
X114953172Y-67779062D01*
X114779062Y-67953172D01*
X114642265Y-68157903D01*
X114548037Y-68385389D01*
X114500000Y-68626886D01*
X114500000Y-68873114D01*
X114548037Y-69114611D01*
X114642265Y-69342097D01*
X114779062Y-69546828D01*
X114800001Y-69567767D01*
X114800000Y-70356498D01*
X114511243Y-70645255D01*
X114475000Y-70674999D01*
X114445256Y-70711242D01*
X114445252Y-70711246D01*
X114356283Y-70819655D01*
X114268069Y-70984692D01*
X114213747Y-71163768D01*
X114195405Y-71350000D01*
X114200001Y-71396664D01*
X114200001Y-71909794D01*
X113970694Y-72063011D01*
X113713011Y-72320694D01*
X113510552Y-72623697D01*
X113371095Y-72960375D01*
X113300000Y-73317791D01*
X113300000Y-73682209D01*
X113371095Y-74039625D01*
X113510552Y-74376303D01*
X113713011Y-74679306D01*
X113970694Y-74936989D01*
X114273697Y-75139448D01*
X114610375Y-75278905D01*
X114967791Y-75350000D01*
X115332209Y-75350000D01*
X115689625Y-75278905D01*
X116026303Y-75139448D01*
X116100000Y-75090206D01*
X116100000Y-79187868D01*
X113937868Y-81350000D01*
X109459729Y-81350000D01*
X109481446Y-81338392D01*
X109615421Y-81096842D01*
X108560000Y-80041421D01*
X107504579Y-81096842D01*
X107638554Y-81338392D01*
X107661317Y-81350000D01*
X107312132Y-81350000D01*
X105895105Y-79932973D01*
X106852092Y-79932973D01*
X106891341Y-80265536D01*
X106994717Y-80584052D01*
X107121608Y-80821446D01*
X107363158Y-80955421D01*
X108418579Y-79900000D01*
X108701421Y-79900000D01*
X109756842Y-80955421D01*
X109998392Y-80821446D01*
X110150519Y-80523125D01*
X110241524Y-80200857D01*
X110267908Y-79867027D01*
X110228659Y-79534464D01*
X110125283Y-79215948D01*
X109998392Y-78978554D01*
X109852707Y-78897750D01*
X111691089Y-78897750D01*
X111801493Y-79243201D01*
X111977170Y-79560475D01*
X112211368Y-79837380D01*
X112495088Y-80063274D01*
X112817426Y-80229477D01*
X113112251Y-80318908D01*
X113400000Y-80244620D01*
X113400000Y-78610000D01*
X113600000Y-78610000D01*
X113600000Y-80244620D01*
X113887749Y-80318908D01*
X114182574Y-80229477D01*
X114504912Y-80063274D01*
X114788632Y-79837380D01*
X115022830Y-79560475D01*
X115198507Y-79243201D01*
X115308911Y-78897750D01*
X115234798Y-78610000D01*
X113600000Y-78610000D01*
X113400000Y-78610000D01*
X111765202Y-78610000D01*
X111691089Y-78897750D01*
X109852707Y-78897750D01*
X109756842Y-78844579D01*
X108701421Y-79900000D01*
X108418579Y-79900000D01*
X107363158Y-78844579D01*
X107121608Y-78978554D01*
X106969481Y-79276875D01*
X106878476Y-79599143D01*
X106852092Y-79932973D01*
X105895105Y-79932973D01*
X105650000Y-79687868D01*
X105650000Y-78703158D01*
X107504579Y-78703158D01*
X108560000Y-79758579D01*
X109615421Y-78703158D01*
X109481446Y-78461608D01*
X109183125Y-78309481D01*
X108860857Y-78218476D01*
X108527027Y-78192092D01*
X108194464Y-78231341D01*
X107875948Y-78334717D01*
X107638554Y-78461608D01*
X107504579Y-78703158D01*
X105650000Y-78703158D01*
X105650000Y-78122250D01*
X111691089Y-78122250D01*
X111765202Y-78410000D01*
X113400000Y-78410000D01*
X113400000Y-76775380D01*
X113600000Y-76775380D01*
X113600000Y-78410000D01*
X115234798Y-78410000D01*
X115308911Y-78122250D01*
X115198507Y-77776799D01*
X115022830Y-77459525D01*
X114788632Y-77182620D01*
X114504912Y-76956726D01*
X114182574Y-76790523D01*
X113887749Y-76701092D01*
X113600000Y-76775380D01*
X113400000Y-76775380D01*
X113112251Y-76701092D01*
X112817426Y-76790523D01*
X112495088Y-76956726D01*
X112211368Y-77182620D01*
X111977170Y-77459525D01*
X111801493Y-77776799D01*
X111691089Y-78122250D01*
X105650000Y-78122250D01*
X105650000Y-72562132D01*
X108585909Y-69626223D01*
X110015198Y-69626223D01*
X110094958Y-69821717D01*
X110316626Y-69928917D01*
X110554948Y-69990812D01*
X110800766Y-70005023D01*
X111044633Y-69971004D01*
X111277178Y-69890063D01*
X111405042Y-69821717D01*
X111484802Y-69626223D01*
X110750000Y-68891421D01*
X110015198Y-69626223D01*
X108585909Y-69626223D01*
X109500107Y-68712025D01*
X109494977Y-68800766D01*
X109528996Y-69044633D01*
X109609937Y-69277178D01*
X109678283Y-69405042D01*
X109873777Y-69484802D01*
X110608579Y-68750000D01*
X110891421Y-68750000D01*
X111626223Y-69484802D01*
X111821717Y-69405042D01*
X111928917Y-69183374D01*
X111990812Y-68945052D01*
X112005023Y-68699234D01*
X111971004Y-68455367D01*
X111890063Y-68222822D01*
X111821717Y-68094958D01*
X111626223Y-68015198D01*
X110891421Y-68750000D01*
X110608579Y-68750000D01*
X110594437Y-68735858D01*
X110735858Y-68594437D01*
X110750000Y-68608579D01*
X111484802Y-67873777D01*
X111405042Y-67678283D01*
X111183374Y-67571083D01*
X110945052Y-67509188D01*
X110716176Y-67495956D01*
X111106066Y-67106066D01*
X111124720Y-67083336D01*
X111138582Y-67057403D01*
X111147118Y-67029264D01*
X111150000Y-67000000D01*
X111150000Y-65812132D01*
X114364576Y-62597556D01*
X114590205Y-62728470D01*
X114840624Y-62814076D01*
X115050000Y-62733795D01*
X115050000Y-62400000D01*
X115250000Y-62400000D01*
X115250000Y-62733795D01*
%TO.N,VEE*%
G36*
X118600000Y-54062132D02*
G01*
X118600000Y-57187868D01*
X117687868Y-58100000D01*
X109250000Y-58100000D01*
X109220736Y-58102882D01*
X109192597Y-58111418D01*
X109166664Y-58125280D01*
X109143934Y-58143934D01*
X108552075Y-58735793D01*
X108544729Y-58730884D01*
X108335443Y-58644194D01*
X108113265Y-58600000D01*
X107886735Y-58600000D01*
X107664557Y-58644194D01*
X107455271Y-58730884D01*
X107266918Y-58856737D01*
X107106737Y-59016918D01*
X106980884Y-59205271D01*
X106894194Y-59414557D01*
X106857307Y-59600000D01*
X106500000Y-59600000D01*
X106470736Y-59602882D01*
X106442597Y-59611418D01*
X106416664Y-59625280D01*
X106393934Y-59643934D01*
X103937868Y-62100000D01*
X99500000Y-62100000D01*
X99470736Y-62102882D01*
X99442597Y-62111418D01*
X99416664Y-62125280D01*
X99393934Y-62143934D01*
X86643934Y-74893934D01*
X86625280Y-74916664D01*
X86611418Y-74942597D01*
X86602882Y-74970736D01*
X86600000Y-75000000D01*
X86600000Y-95000000D01*
X86602882Y-95029264D01*
X86611418Y-95057403D01*
X86625280Y-95083336D01*
X86643934Y-95106066D01*
X93100000Y-101562132D01*
X93100000Y-109350000D01*
X85650000Y-109350000D01*
X85650000Y-108593612D01*
X86837809Y-108593612D01*
X86989820Y-108850524D01*
X87313674Y-109017615D01*
X87663902Y-109118315D01*
X88027047Y-109148755D01*
X88389152Y-109107762D01*
X88736302Y-108996915D01*
X89010180Y-108850524D01*
X89162191Y-108593612D01*
X88000000Y-107431421D01*
X86837809Y-108593612D01*
X85650000Y-108593612D01*
X85650000Y-107317047D01*
X86141245Y-107317047D01*
X86182238Y-107679152D01*
X86293085Y-108026302D01*
X86439476Y-108300180D01*
X86696388Y-108452191D01*
X87858579Y-107290000D01*
X88141421Y-107290000D01*
X89303612Y-108452191D01*
X89560524Y-108300180D01*
X89727615Y-107976326D01*
X89828315Y-107626098D01*
X89858755Y-107262953D01*
X89817762Y-106900848D01*
X89706915Y-106553698D01*
X89560524Y-106279820D01*
X89303612Y-106127809D01*
X88141421Y-107290000D01*
X87858579Y-107290000D01*
X86696388Y-106127809D01*
X86439476Y-106279820D01*
X86272385Y-106603674D01*
X86171685Y-106953902D01*
X86141245Y-107317047D01*
X85650000Y-107317047D01*
X85650000Y-105986388D01*
X86837809Y-105986388D01*
X88000000Y-107148579D01*
X89162191Y-105986388D01*
X89159853Y-105982436D01*
X89408986Y-105982436D01*
X89548973Y-106229107D01*
X89855806Y-106386222D01*
X90187395Y-106480459D01*
X90530997Y-106508195D01*
X90873409Y-106468364D01*
X91201470Y-106362498D01*
X91451027Y-106229107D01*
X91591014Y-105982436D01*
X90500000Y-104891421D01*
X89408986Y-105982436D01*
X89159853Y-105982436D01*
X89010180Y-105729476D01*
X88686326Y-105562385D01*
X88336098Y-105461685D01*
X87972953Y-105431245D01*
X87610848Y-105472238D01*
X87263698Y-105583085D01*
X86989820Y-105729476D01*
X86837809Y-105986388D01*
X85650000Y-105986388D01*
X85650000Y-105000000D01*
X85647118Y-104970736D01*
X85638582Y-104942597D01*
X85624720Y-104916664D01*
X85606066Y-104893934D01*
X85493129Y-104780997D01*
X88741805Y-104780997D01*
X88781636Y-105123409D01*
X88887502Y-105451470D01*
X89020893Y-105701027D01*
X89267564Y-105841014D01*
X90358579Y-104750000D01*
X90641421Y-104750000D01*
X91732436Y-105841014D01*
X91979107Y-105701027D01*
X92136222Y-105394194D01*
X92230459Y-105062605D01*
X92258195Y-104719003D01*
X92218364Y-104376591D01*
X92112498Y-104048530D01*
X91979107Y-103798973D01*
X91732436Y-103658986D01*
X90641421Y-104750000D01*
X90358579Y-104750000D01*
X89267564Y-103658986D01*
X89020893Y-103798973D01*
X88863778Y-104105806D01*
X88769541Y-104437395D01*
X88741805Y-104780997D01*
X85493129Y-104780997D01*
X84225744Y-103513612D01*
X86837809Y-103513612D01*
X86989820Y-103770524D01*
X87313674Y-103937615D01*
X87663902Y-104038315D01*
X88027047Y-104068755D01*
X88389152Y-104027762D01*
X88736302Y-103916915D01*
X89010180Y-103770524D01*
X89159852Y-103517564D01*
X89408986Y-103517564D01*
X90500000Y-104608579D01*
X91591014Y-103517564D01*
X91451027Y-103270893D01*
X91144194Y-103113778D01*
X90812605Y-103019541D01*
X90469003Y-102991805D01*
X90126591Y-103031636D01*
X89798530Y-103137502D01*
X89548973Y-103270893D01*
X89408986Y-103517564D01*
X89159852Y-103517564D01*
X89162191Y-103513612D01*
X88000000Y-102351421D01*
X86837809Y-103513612D01*
X84225744Y-103513612D01*
X82949179Y-102237047D01*
X86141245Y-102237047D01*
X86182238Y-102599152D01*
X86293085Y-102946302D01*
X86439476Y-103220180D01*
X86696388Y-103372191D01*
X87858579Y-102210000D01*
X88141421Y-102210000D01*
X89303612Y-103372191D01*
X89560524Y-103220180D01*
X89727615Y-102896326D01*
X89828315Y-102546098D01*
X89858755Y-102182953D01*
X89817762Y-101820848D01*
X89706915Y-101473698D01*
X89560524Y-101199820D01*
X89303612Y-101047809D01*
X88141421Y-102210000D01*
X87858579Y-102210000D01*
X86696388Y-101047809D01*
X86439476Y-101199820D01*
X86272385Y-101523674D01*
X86171685Y-101873902D01*
X86141245Y-102237047D01*
X82949179Y-102237047D01*
X81618520Y-100906388D01*
X86837809Y-100906388D01*
X88000000Y-102068579D01*
X89162191Y-100906388D01*
X89010180Y-100649476D01*
X88686326Y-100482385D01*
X88336098Y-100381685D01*
X87972953Y-100351245D01*
X87610848Y-100392238D01*
X87263698Y-100503085D01*
X86989820Y-100649476D01*
X86837809Y-100906388D01*
X81618520Y-100906388D01*
X78150000Y-97437868D01*
X78150000Y-70411243D01*
X88480179Y-70411243D01*
X88608138Y-70647674D01*
X88897947Y-70794812D01*
X89210892Y-70882584D01*
X89534949Y-70907616D01*
X89857662Y-70868947D01*
X90166631Y-70768063D01*
X90391862Y-70647674D01*
X90519821Y-70411243D01*
X89500000Y-69391421D01*
X88480179Y-70411243D01*
X78150000Y-70411243D01*
X78150000Y-69284949D01*
X87842384Y-69284949D01*
X87881053Y-69607662D01*
X87981937Y-69916631D01*
X88102326Y-70141862D01*
X88338757Y-70269821D01*
X89358579Y-69250000D01*
X89641421Y-69250000D01*
X90661243Y-70269821D01*
X90897674Y-70141862D01*
X91044812Y-69852053D01*
X91132584Y-69539108D01*
X91157616Y-69215051D01*
X91118947Y-68892338D01*
X91018063Y-68583369D01*
X90897674Y-68358138D01*
X90661243Y-68230179D01*
X89641421Y-69250000D01*
X89358579Y-69250000D01*
X88338757Y-68230179D01*
X88102326Y-68358138D01*
X87955188Y-68647947D01*
X87867416Y-68960892D01*
X87842384Y-69284949D01*
X78150000Y-69284949D01*
X78150000Y-68088757D01*
X88480179Y-68088757D01*
X89500000Y-69108579D01*
X90519821Y-68088757D01*
X90391862Y-67852326D01*
X90102053Y-67705188D01*
X89789108Y-67617416D01*
X89465051Y-67592384D01*
X89142338Y-67631053D01*
X88833369Y-67731937D01*
X88608138Y-67852326D01*
X88480179Y-68088757D01*
X78150000Y-68088757D01*
X78150000Y-66312132D01*
X81062132Y-63400000D01*
X84750000Y-63400000D01*
X84779264Y-63397118D01*
X84807403Y-63388582D01*
X84833336Y-63374720D01*
X84856066Y-63356066D01*
X85606066Y-62606066D01*
X85624720Y-62583336D01*
X85638582Y-62557403D01*
X85647118Y-62529264D01*
X85650000Y-62500000D01*
X85650000Y-62450000D01*
X94247823Y-62450000D01*
X94247823Y-64050000D01*
X94256511Y-64138215D01*
X94282243Y-64223041D01*
X94324029Y-64301216D01*
X94380263Y-64369737D01*
X94448784Y-64425971D01*
X94526959Y-64467757D01*
X94611785Y-64493489D01*
X94700000Y-64502177D01*
X96300000Y-64502177D01*
X96388215Y-64493489D01*
X96473041Y-64467757D01*
X96551216Y-64425971D01*
X96619737Y-64369737D01*
X96675971Y-64301216D01*
X96717757Y-64223041D01*
X96743489Y-64138215D01*
X96752177Y-64050000D01*
X96752177Y-62450000D01*
X96743489Y-62361785D01*
X96717757Y-62276959D01*
X96675971Y-62198784D01*
X96619737Y-62130263D01*
X96551216Y-62074029D01*
X96473041Y-62032243D01*
X96388215Y-62006511D01*
X96300000Y-61997823D01*
X94700000Y-61997823D01*
X94611785Y-62006511D01*
X94526959Y-62032243D01*
X94448784Y-62074029D01*
X94380263Y-62130263D01*
X94324029Y-62198784D01*
X94282243Y-62276959D01*
X94256511Y-62361785D01*
X94247823Y-62450000D01*
X85650000Y-62450000D01*
X85650000Y-59626886D01*
X94250000Y-59626886D01*
X94250000Y-59873114D01*
X94298037Y-60114611D01*
X94392265Y-60342097D01*
X94529062Y-60546828D01*
X94703172Y-60720938D01*
X94907903Y-60857735D01*
X95135389Y-60951963D01*
X95376886Y-61000000D01*
X95623114Y-61000000D01*
X95864611Y-60951963D01*
X96092097Y-60857735D01*
X96296828Y-60720938D01*
X96470938Y-60546828D01*
X96607735Y-60342097D01*
X96701963Y-60114611D01*
X96750000Y-59873114D01*
X96750000Y-59626886D01*
X96701963Y-59385389D01*
X96607735Y-59157903D01*
X96470938Y-58953172D01*
X96296828Y-58779062D01*
X96092097Y-58642265D01*
X95864611Y-58548037D01*
X95623114Y-58500000D01*
X95376886Y-58500000D01*
X95135389Y-58548037D01*
X94907903Y-58642265D01*
X94703172Y-58779062D01*
X94529062Y-58953172D01*
X94392265Y-59157903D01*
X94298037Y-59385389D01*
X94250000Y-59626886D01*
X85650000Y-59626886D01*
X85650000Y-58450000D01*
X101247823Y-58450000D01*
X101247823Y-60050000D01*
X101256511Y-60138215D01*
X101282243Y-60223041D01*
X101324029Y-60301216D01*
X101380263Y-60369737D01*
X101448784Y-60425971D01*
X101526959Y-60467757D01*
X101611785Y-60493489D01*
X101700000Y-60502177D01*
X103300000Y-60502177D01*
X103388215Y-60493489D01*
X103473041Y-60467757D01*
X103551216Y-60425971D01*
X103619737Y-60369737D01*
X103675971Y-60301216D01*
X103717757Y-60223041D01*
X103743489Y-60138215D01*
X103752177Y-60050000D01*
X103752177Y-58450000D01*
X103743489Y-58361785D01*
X103717757Y-58276959D01*
X103675971Y-58198784D01*
X103619737Y-58130263D01*
X103551216Y-58074029D01*
X103515375Y-58054871D01*
X107336551Y-58054871D01*
X107404226Y-58240143D01*
X107608841Y-58337346D01*
X107828488Y-58392764D01*
X108054726Y-58404267D01*
X108278860Y-58371412D01*
X108492279Y-58295461D01*
X108595774Y-58240143D01*
X108663449Y-58054871D01*
X108000000Y-57391421D01*
X107336551Y-58054871D01*
X103515375Y-58054871D01*
X103473041Y-58032243D01*
X103388215Y-58006511D01*
X103300000Y-57997823D01*
X102602380Y-57997823D01*
X102794633Y-57971004D01*
X103027178Y-57890063D01*
X103155042Y-57821717D01*
X103234802Y-57626223D01*
X102500000Y-56891421D01*
X101765198Y-57626223D01*
X101844958Y-57821717D01*
X102066626Y-57928917D01*
X102304948Y-57990812D01*
X102426222Y-57997823D01*
X101700000Y-57997823D01*
X101611785Y-58006511D01*
X101526959Y-58032243D01*
X101448784Y-58074029D01*
X101380263Y-58130263D01*
X101324029Y-58198784D01*
X101282243Y-58276959D01*
X101256511Y-58361785D01*
X101247823Y-58450000D01*
X85650000Y-58450000D01*
X85650000Y-56800766D01*
X101244977Y-56800766D01*
X101278996Y-57044633D01*
X101359937Y-57277178D01*
X101428283Y-57405042D01*
X101623777Y-57484802D01*
X102358579Y-56750000D01*
X102641421Y-56750000D01*
X103376223Y-57484802D01*
X103571717Y-57405042D01*
X103620230Y-57304726D01*
X106845733Y-57304726D01*
X106878588Y-57528860D01*
X106954539Y-57742279D01*
X107009857Y-57845774D01*
X107195129Y-57913449D01*
X107858579Y-57250000D01*
X108141421Y-57250000D01*
X108804871Y-57913449D01*
X108990143Y-57845774D01*
X109087346Y-57641159D01*
X109142764Y-57421512D01*
X109154267Y-57195274D01*
X109121412Y-56971140D01*
X109045461Y-56757721D01*
X108990143Y-56654226D01*
X108804871Y-56586551D01*
X108141421Y-57250000D01*
X107858579Y-57250000D01*
X107195129Y-56586551D01*
X107009857Y-56654226D01*
X106912654Y-56858841D01*
X106857236Y-57078488D01*
X106845733Y-57304726D01*
X103620230Y-57304726D01*
X103678917Y-57183374D01*
X103740812Y-56945052D01*
X103755023Y-56699234D01*
X103721004Y-56455367D01*
X103717441Y-56445129D01*
X107336551Y-56445129D01*
X108000000Y-57108579D01*
X108663449Y-56445129D01*
X108605703Y-56287037D01*
X112100000Y-56287037D01*
X112100000Y-56552963D01*
X112151880Y-56813780D01*
X112253646Y-57059465D01*
X112401387Y-57280575D01*
X112589425Y-57468613D01*
X112810535Y-57616354D01*
X113056220Y-57718120D01*
X113317037Y-57770000D01*
X113582963Y-57770000D01*
X113843780Y-57718120D01*
X114089465Y-57616354D01*
X114310575Y-57468613D01*
X114498613Y-57280575D01*
X114646354Y-57059465D01*
X114748120Y-56813780D01*
X114764909Y-56729375D01*
X115535928Y-56729375D01*
X115585506Y-56892825D01*
X115702046Y-57130430D01*
X115862702Y-57340734D01*
X116061299Y-57515655D01*
X116290205Y-57648470D01*
X116540624Y-57734076D01*
X116750000Y-57653795D01*
X116750000Y-56520000D01*
X116950000Y-56520000D01*
X116950000Y-57653795D01*
X117159376Y-57734076D01*
X117409795Y-57648470D01*
X117638701Y-57515655D01*
X117837298Y-57340734D01*
X117997954Y-57130430D01*
X118114494Y-56892825D01*
X118164072Y-56729375D01*
X118083453Y-56520000D01*
X116950000Y-56520000D01*
X116750000Y-56520000D01*
X115616547Y-56520000D01*
X115535928Y-56729375D01*
X114764909Y-56729375D01*
X114800000Y-56552963D01*
X114800000Y-56287037D01*
X114764910Y-56110625D01*
X115535928Y-56110625D01*
X115616547Y-56320000D01*
X116750000Y-56320000D01*
X116750000Y-55186205D01*
X116950000Y-55186205D01*
X116950000Y-56320000D01*
X118083453Y-56320000D01*
X118164072Y-56110625D01*
X118114494Y-55947175D01*
X117997954Y-55709570D01*
X117837298Y-55499266D01*
X117638701Y-55324345D01*
X117409795Y-55191530D01*
X117159376Y-55105924D01*
X116950000Y-55186205D01*
X116750000Y-55186205D01*
X116540624Y-55105924D01*
X116290205Y-55191530D01*
X116061299Y-55324345D01*
X115862702Y-55499266D01*
X115702046Y-55709570D01*
X115585506Y-55947175D01*
X115535928Y-56110625D01*
X114764910Y-56110625D01*
X114748120Y-56026220D01*
X114646354Y-55780535D01*
X114498613Y-55559425D01*
X114310575Y-55371387D01*
X114089465Y-55223646D01*
X113843780Y-55121880D01*
X113582963Y-55070000D01*
X113317037Y-55070000D01*
X113056220Y-55121880D01*
X112810535Y-55223646D01*
X112589425Y-55371387D01*
X112401387Y-55559425D01*
X112253646Y-55780535D01*
X112151880Y-56026220D01*
X112100000Y-56287037D01*
X108605703Y-56287037D01*
X108595774Y-56259857D01*
X108391159Y-56162654D01*
X108171512Y-56107236D01*
X107945274Y-56095733D01*
X107721140Y-56128588D01*
X107507721Y-56204539D01*
X107404226Y-56259857D01*
X107336551Y-56445129D01*
X103717441Y-56445129D01*
X103640063Y-56222822D01*
X103571717Y-56094958D01*
X103376223Y-56015198D01*
X102641421Y-56750000D01*
X102358579Y-56750000D01*
X101623777Y-56015198D01*
X101428283Y-56094958D01*
X101321083Y-56316626D01*
X101259188Y-56554948D01*
X101244977Y-56800766D01*
X85650000Y-56800766D01*
X85650000Y-55876223D01*
X87185198Y-55876223D01*
X87264958Y-56071717D01*
X87486626Y-56178917D01*
X87724948Y-56240812D01*
X87970766Y-56255023D01*
X88214633Y-56221004D01*
X88447178Y-56140063D01*
X88575042Y-56071717D01*
X88654802Y-55876223D01*
X87920000Y-55141421D01*
X87185198Y-55876223D01*
X85650000Y-55876223D01*
X85650000Y-55050766D01*
X86664977Y-55050766D01*
X86698996Y-55294633D01*
X86779937Y-55527178D01*
X86848283Y-55655042D01*
X87043777Y-55734802D01*
X87778579Y-55000000D01*
X88061421Y-55000000D01*
X88796223Y-55734802D01*
X88991717Y-55655042D01*
X89098917Y-55433374D01*
X89160812Y-55195052D01*
X89175023Y-54949234D01*
X89164931Y-54876886D01*
X96830000Y-54876886D01*
X96830000Y-55123114D01*
X96878037Y-55364611D01*
X96972265Y-55592097D01*
X97109062Y-55796828D01*
X97283172Y-55970938D01*
X97487903Y-56107735D01*
X97715389Y-56201963D01*
X97956886Y-56250000D01*
X98203114Y-56250000D01*
X98444611Y-56201963D01*
X98672097Y-56107735D01*
X98876828Y-55970938D01*
X98973989Y-55873777D01*
X101765198Y-55873777D01*
X102500000Y-56608579D01*
X103234802Y-55873777D01*
X103155042Y-55678283D01*
X102933374Y-55571083D01*
X102695052Y-55509188D01*
X102449234Y-55494977D01*
X102205367Y-55528996D01*
X101972822Y-55609937D01*
X101844958Y-55678283D01*
X101765198Y-55873777D01*
X98973989Y-55873777D01*
X99050938Y-55796828D01*
X99187735Y-55592097D01*
X99281963Y-55364611D01*
X99330000Y-55123114D01*
X99330000Y-54876886D01*
X99281963Y-54635389D01*
X99187735Y-54407903D01*
X99050938Y-54203172D01*
X98876828Y-54029062D01*
X98672097Y-53892265D01*
X98444611Y-53798037D01*
X98203114Y-53750000D01*
X97956886Y-53750000D01*
X97715389Y-53798037D01*
X97487903Y-53892265D01*
X97283172Y-54029062D01*
X97109062Y-54203172D01*
X96972265Y-54407903D01*
X96878037Y-54635389D01*
X96830000Y-54876886D01*
X89164931Y-54876886D01*
X89141004Y-54705367D01*
X89060063Y-54472822D01*
X88991717Y-54344958D01*
X88796223Y-54265198D01*
X88061421Y-55000000D01*
X87778579Y-55000000D01*
X87043777Y-54265198D01*
X86848283Y-54344958D01*
X86741083Y-54566626D01*
X86679188Y-54804948D01*
X86664977Y-55050766D01*
X85650000Y-55050766D01*
X85650000Y-54123777D01*
X87185198Y-54123777D01*
X87920000Y-54858579D01*
X88654802Y-54123777D01*
X88575042Y-53928283D01*
X88353374Y-53821083D01*
X88115052Y-53759188D01*
X87869234Y-53744977D01*
X87625367Y-53778996D01*
X87392822Y-53859937D01*
X87264958Y-53928283D01*
X87185198Y-54123777D01*
X85650000Y-54123777D01*
X85650000Y-53812132D01*
X86487132Y-52975000D01*
X117512868Y-52975000D01*
X118600000Y-54062132D01*
G37*
X118600000Y-54062132D02*
X118600000Y-57187868D01*
X117687868Y-58100000D01*
X109250000Y-58100000D01*
X109220736Y-58102882D01*
X109192597Y-58111418D01*
X109166664Y-58125280D01*
X109143934Y-58143934D01*
X108552075Y-58735793D01*
X108544729Y-58730884D01*
X108335443Y-58644194D01*
X108113265Y-58600000D01*
X107886735Y-58600000D01*
X107664557Y-58644194D01*
X107455271Y-58730884D01*
X107266918Y-58856737D01*
X107106737Y-59016918D01*
X106980884Y-59205271D01*
X106894194Y-59414557D01*
X106857307Y-59600000D01*
X106500000Y-59600000D01*
X106470736Y-59602882D01*
X106442597Y-59611418D01*
X106416664Y-59625280D01*
X106393934Y-59643934D01*
X103937868Y-62100000D01*
X99500000Y-62100000D01*
X99470736Y-62102882D01*
X99442597Y-62111418D01*
X99416664Y-62125280D01*
X99393934Y-62143934D01*
X86643934Y-74893934D01*
X86625280Y-74916664D01*
X86611418Y-74942597D01*
X86602882Y-74970736D01*
X86600000Y-75000000D01*
X86600000Y-95000000D01*
X86602882Y-95029264D01*
X86611418Y-95057403D01*
X86625280Y-95083336D01*
X86643934Y-95106066D01*
X93100000Y-101562132D01*
X93100000Y-109350000D01*
X85650000Y-109350000D01*
X85650000Y-108593612D01*
X86837809Y-108593612D01*
X86989820Y-108850524D01*
X87313674Y-109017615D01*
X87663902Y-109118315D01*
X88027047Y-109148755D01*
X88389152Y-109107762D01*
X88736302Y-108996915D01*
X89010180Y-108850524D01*
X89162191Y-108593612D01*
X88000000Y-107431421D01*
X86837809Y-108593612D01*
X85650000Y-108593612D01*
X85650000Y-107317047D01*
X86141245Y-107317047D01*
X86182238Y-107679152D01*
X86293085Y-108026302D01*
X86439476Y-108300180D01*
X86696388Y-108452191D01*
X87858579Y-107290000D01*
X88141421Y-107290000D01*
X89303612Y-108452191D01*
X89560524Y-108300180D01*
X89727615Y-107976326D01*
X89828315Y-107626098D01*
X89858755Y-107262953D01*
X89817762Y-106900848D01*
X89706915Y-106553698D01*
X89560524Y-106279820D01*
X89303612Y-106127809D01*
X88141421Y-107290000D01*
X87858579Y-107290000D01*
X86696388Y-106127809D01*
X86439476Y-106279820D01*
X86272385Y-106603674D01*
X86171685Y-106953902D01*
X86141245Y-107317047D01*
X85650000Y-107317047D01*
X85650000Y-105986388D01*
X86837809Y-105986388D01*
X88000000Y-107148579D01*
X89162191Y-105986388D01*
X89159853Y-105982436D01*
X89408986Y-105982436D01*
X89548973Y-106229107D01*
X89855806Y-106386222D01*
X90187395Y-106480459D01*
X90530997Y-106508195D01*
X90873409Y-106468364D01*
X91201470Y-106362498D01*
X91451027Y-106229107D01*
X91591014Y-105982436D01*
X90500000Y-104891421D01*
X89408986Y-105982436D01*
X89159853Y-105982436D01*
X89010180Y-105729476D01*
X88686326Y-105562385D01*
X88336098Y-105461685D01*
X87972953Y-105431245D01*
X87610848Y-105472238D01*
X87263698Y-105583085D01*
X86989820Y-105729476D01*
X86837809Y-105986388D01*
X85650000Y-105986388D01*
X85650000Y-105000000D01*
X85647118Y-104970736D01*
X85638582Y-104942597D01*
X85624720Y-104916664D01*
X85606066Y-104893934D01*
X85493129Y-104780997D01*
X88741805Y-104780997D01*
X88781636Y-105123409D01*
X88887502Y-105451470D01*
X89020893Y-105701027D01*
X89267564Y-105841014D01*
X90358579Y-104750000D01*
X90641421Y-104750000D01*
X91732436Y-105841014D01*
X91979107Y-105701027D01*
X92136222Y-105394194D01*
X92230459Y-105062605D01*
X92258195Y-104719003D01*
X92218364Y-104376591D01*
X92112498Y-104048530D01*
X91979107Y-103798973D01*
X91732436Y-103658986D01*
X90641421Y-104750000D01*
X90358579Y-104750000D01*
X89267564Y-103658986D01*
X89020893Y-103798973D01*
X88863778Y-104105806D01*
X88769541Y-104437395D01*
X88741805Y-104780997D01*
X85493129Y-104780997D01*
X84225744Y-103513612D01*
X86837809Y-103513612D01*
X86989820Y-103770524D01*
X87313674Y-103937615D01*
X87663902Y-104038315D01*
X88027047Y-104068755D01*
X88389152Y-104027762D01*
X88736302Y-103916915D01*
X89010180Y-103770524D01*
X89159852Y-103517564D01*
X89408986Y-103517564D01*
X90500000Y-104608579D01*
X91591014Y-103517564D01*
X91451027Y-103270893D01*
X91144194Y-103113778D01*
X90812605Y-103019541D01*
X90469003Y-102991805D01*
X90126591Y-103031636D01*
X89798530Y-103137502D01*
X89548973Y-103270893D01*
X89408986Y-103517564D01*
X89159852Y-103517564D01*
X89162191Y-103513612D01*
X88000000Y-102351421D01*
X86837809Y-103513612D01*
X84225744Y-103513612D01*
X82949179Y-102237047D01*
X86141245Y-102237047D01*
X86182238Y-102599152D01*
X86293085Y-102946302D01*
X86439476Y-103220180D01*
X86696388Y-103372191D01*
X87858579Y-102210000D01*
X88141421Y-102210000D01*
X89303612Y-103372191D01*
X89560524Y-103220180D01*
X89727615Y-102896326D01*
X89828315Y-102546098D01*
X89858755Y-102182953D01*
X89817762Y-101820848D01*
X89706915Y-101473698D01*
X89560524Y-101199820D01*
X89303612Y-101047809D01*
X88141421Y-102210000D01*
X87858579Y-102210000D01*
X86696388Y-101047809D01*
X86439476Y-101199820D01*
X86272385Y-101523674D01*
X86171685Y-101873902D01*
X86141245Y-102237047D01*
X82949179Y-102237047D01*
X81618520Y-100906388D01*
X86837809Y-100906388D01*
X88000000Y-102068579D01*
X89162191Y-100906388D01*
X89010180Y-100649476D01*
X88686326Y-100482385D01*
X88336098Y-100381685D01*
X87972953Y-100351245D01*
X87610848Y-100392238D01*
X87263698Y-100503085D01*
X86989820Y-100649476D01*
X86837809Y-100906388D01*
X81618520Y-100906388D01*
X78150000Y-97437868D01*
X78150000Y-70411243D01*
X88480179Y-70411243D01*
X88608138Y-70647674D01*
X88897947Y-70794812D01*
X89210892Y-70882584D01*
X89534949Y-70907616D01*
X89857662Y-70868947D01*
X90166631Y-70768063D01*
X90391862Y-70647674D01*
X90519821Y-70411243D01*
X89500000Y-69391421D01*
X88480179Y-70411243D01*
X78150000Y-70411243D01*
X78150000Y-69284949D01*
X87842384Y-69284949D01*
X87881053Y-69607662D01*
X87981937Y-69916631D01*
X88102326Y-70141862D01*
X88338757Y-70269821D01*
X89358579Y-69250000D01*
X89641421Y-69250000D01*
X90661243Y-70269821D01*
X90897674Y-70141862D01*
X91044812Y-69852053D01*
X91132584Y-69539108D01*
X91157616Y-69215051D01*
X91118947Y-68892338D01*
X91018063Y-68583369D01*
X90897674Y-68358138D01*
X90661243Y-68230179D01*
X89641421Y-69250000D01*
X89358579Y-69250000D01*
X88338757Y-68230179D01*
X88102326Y-68358138D01*
X87955188Y-68647947D01*
X87867416Y-68960892D01*
X87842384Y-69284949D01*
X78150000Y-69284949D01*
X78150000Y-68088757D01*
X88480179Y-68088757D01*
X89500000Y-69108579D01*
X90519821Y-68088757D01*
X90391862Y-67852326D01*
X90102053Y-67705188D01*
X89789108Y-67617416D01*
X89465051Y-67592384D01*
X89142338Y-67631053D01*
X88833369Y-67731937D01*
X88608138Y-67852326D01*
X88480179Y-68088757D01*
X78150000Y-68088757D01*
X78150000Y-66312132D01*
X81062132Y-63400000D01*
X84750000Y-63400000D01*
X84779264Y-63397118D01*
X84807403Y-63388582D01*
X84833336Y-63374720D01*
X84856066Y-63356066D01*
X85606066Y-62606066D01*
X85624720Y-62583336D01*
X85638582Y-62557403D01*
X85647118Y-62529264D01*
X85650000Y-62500000D01*
X85650000Y-62450000D01*
X94247823Y-62450000D01*
X94247823Y-64050000D01*
X94256511Y-64138215D01*
X94282243Y-64223041D01*
X94324029Y-64301216D01*
X94380263Y-64369737D01*
X94448784Y-64425971D01*
X94526959Y-64467757D01*
X94611785Y-64493489D01*
X94700000Y-64502177D01*
X96300000Y-64502177D01*
X96388215Y-64493489D01*
X96473041Y-64467757D01*
X96551216Y-64425971D01*
X96619737Y-64369737D01*
X96675971Y-64301216D01*
X96717757Y-64223041D01*
X96743489Y-64138215D01*
X96752177Y-64050000D01*
X96752177Y-62450000D01*
X96743489Y-62361785D01*
X96717757Y-62276959D01*
X96675971Y-62198784D01*
X96619737Y-62130263D01*
X96551216Y-62074029D01*
X96473041Y-62032243D01*
X96388215Y-62006511D01*
X96300000Y-61997823D01*
X94700000Y-61997823D01*
X94611785Y-62006511D01*
X94526959Y-62032243D01*
X94448784Y-62074029D01*
X94380263Y-62130263D01*
X94324029Y-62198784D01*
X94282243Y-62276959D01*
X94256511Y-62361785D01*
X94247823Y-62450000D01*
X85650000Y-62450000D01*
X85650000Y-59626886D01*
X94250000Y-59626886D01*
X94250000Y-59873114D01*
X94298037Y-60114611D01*
X94392265Y-60342097D01*
X94529062Y-60546828D01*
X94703172Y-60720938D01*
X94907903Y-60857735D01*
X95135389Y-60951963D01*
X95376886Y-61000000D01*
X95623114Y-61000000D01*
X95864611Y-60951963D01*
X96092097Y-60857735D01*
X96296828Y-60720938D01*
X96470938Y-60546828D01*
X96607735Y-60342097D01*
X96701963Y-60114611D01*
X96750000Y-59873114D01*
X96750000Y-59626886D01*
X96701963Y-59385389D01*
X96607735Y-59157903D01*
X96470938Y-58953172D01*
X96296828Y-58779062D01*
X96092097Y-58642265D01*
X95864611Y-58548037D01*
X95623114Y-58500000D01*
X95376886Y-58500000D01*
X95135389Y-58548037D01*
X94907903Y-58642265D01*
X94703172Y-58779062D01*
X94529062Y-58953172D01*
X94392265Y-59157903D01*
X94298037Y-59385389D01*
X94250000Y-59626886D01*
X85650000Y-59626886D01*
X85650000Y-58450000D01*
X101247823Y-58450000D01*
X101247823Y-60050000D01*
X101256511Y-60138215D01*
X101282243Y-60223041D01*
X101324029Y-60301216D01*
X101380263Y-60369737D01*
X101448784Y-60425971D01*
X101526959Y-60467757D01*
X101611785Y-60493489D01*
X101700000Y-60502177D01*
X103300000Y-60502177D01*
X103388215Y-60493489D01*
X103473041Y-60467757D01*
X103551216Y-60425971D01*
X103619737Y-60369737D01*
X103675971Y-60301216D01*
X103717757Y-60223041D01*
X103743489Y-60138215D01*
X103752177Y-60050000D01*
X103752177Y-58450000D01*
X103743489Y-58361785D01*
X103717757Y-58276959D01*
X103675971Y-58198784D01*
X103619737Y-58130263D01*
X103551216Y-58074029D01*
X103515375Y-58054871D01*
X107336551Y-58054871D01*
X107404226Y-58240143D01*
X107608841Y-58337346D01*
X107828488Y-58392764D01*
X108054726Y-58404267D01*
X108278860Y-58371412D01*
X108492279Y-58295461D01*
X108595774Y-58240143D01*
X108663449Y-58054871D01*
X108000000Y-57391421D01*
X107336551Y-58054871D01*
X103515375Y-58054871D01*
X103473041Y-58032243D01*
X103388215Y-58006511D01*
X103300000Y-57997823D01*
X102602380Y-57997823D01*
X102794633Y-57971004D01*
X103027178Y-57890063D01*
X103155042Y-57821717D01*
X103234802Y-57626223D01*
X102500000Y-56891421D01*
X101765198Y-57626223D01*
X101844958Y-57821717D01*
X102066626Y-57928917D01*
X102304948Y-57990812D01*
X102426222Y-57997823D01*
X101700000Y-57997823D01*
X101611785Y-58006511D01*
X101526959Y-58032243D01*
X101448784Y-58074029D01*
X101380263Y-58130263D01*
X101324029Y-58198784D01*
X101282243Y-58276959D01*
X101256511Y-58361785D01*
X101247823Y-58450000D01*
X85650000Y-58450000D01*
X85650000Y-56800766D01*
X101244977Y-56800766D01*
X101278996Y-57044633D01*
X101359937Y-57277178D01*
X101428283Y-57405042D01*
X101623777Y-57484802D01*
X102358579Y-56750000D01*
X102641421Y-56750000D01*
X103376223Y-57484802D01*
X103571717Y-57405042D01*
X103620230Y-57304726D01*
X106845733Y-57304726D01*
X106878588Y-57528860D01*
X106954539Y-57742279D01*
X107009857Y-57845774D01*
X107195129Y-57913449D01*
X107858579Y-57250000D01*
X108141421Y-57250000D01*
X108804871Y-57913449D01*
X108990143Y-57845774D01*
X109087346Y-57641159D01*
X109142764Y-57421512D01*
X109154267Y-57195274D01*
X109121412Y-56971140D01*
X109045461Y-56757721D01*
X108990143Y-56654226D01*
X108804871Y-56586551D01*
X108141421Y-57250000D01*
X107858579Y-57250000D01*
X107195129Y-56586551D01*
X107009857Y-56654226D01*
X106912654Y-56858841D01*
X106857236Y-57078488D01*
X106845733Y-57304726D01*
X103620230Y-57304726D01*
X103678917Y-57183374D01*
X103740812Y-56945052D01*
X103755023Y-56699234D01*
X103721004Y-56455367D01*
X103717441Y-56445129D01*
X107336551Y-56445129D01*
X108000000Y-57108579D01*
X108663449Y-56445129D01*
X108605703Y-56287037D01*
X112100000Y-56287037D01*
X112100000Y-56552963D01*
X112151880Y-56813780D01*
X112253646Y-57059465D01*
X112401387Y-57280575D01*
X112589425Y-57468613D01*
X112810535Y-57616354D01*
X113056220Y-57718120D01*
X113317037Y-57770000D01*
X113582963Y-57770000D01*
X113843780Y-57718120D01*
X114089465Y-57616354D01*
X114310575Y-57468613D01*
X114498613Y-57280575D01*
X114646354Y-57059465D01*
X114748120Y-56813780D01*
X114764909Y-56729375D01*
X115535928Y-56729375D01*
X115585506Y-56892825D01*
X115702046Y-57130430D01*
X115862702Y-57340734D01*
X116061299Y-57515655D01*
X116290205Y-57648470D01*
X116540624Y-57734076D01*
X116750000Y-57653795D01*
X116750000Y-56520000D01*
X116950000Y-56520000D01*
X116950000Y-57653795D01*
X117159376Y-57734076D01*
X117409795Y-57648470D01*
X117638701Y-57515655D01*
X117837298Y-57340734D01*
X117997954Y-57130430D01*
X118114494Y-56892825D01*
X118164072Y-56729375D01*
X118083453Y-56520000D01*
X116950000Y-56520000D01*
X116750000Y-56520000D01*
X115616547Y-56520000D01*
X115535928Y-56729375D01*
X114764909Y-56729375D01*
X114800000Y-56552963D01*
X114800000Y-56287037D01*
X114764910Y-56110625D01*
X115535928Y-56110625D01*
X115616547Y-56320000D01*
X116750000Y-56320000D01*
X116750000Y-55186205D01*
X116950000Y-55186205D01*
X116950000Y-56320000D01*
X118083453Y-56320000D01*
X118164072Y-56110625D01*
X118114494Y-55947175D01*
X117997954Y-55709570D01*
X117837298Y-55499266D01*
X117638701Y-55324345D01*
X117409795Y-55191530D01*
X117159376Y-55105924D01*
X116950000Y-55186205D01*
X116750000Y-55186205D01*
X116540624Y-55105924D01*
X116290205Y-55191530D01*
X116061299Y-55324345D01*
X115862702Y-55499266D01*
X115702046Y-55709570D01*
X115585506Y-55947175D01*
X115535928Y-56110625D01*
X114764910Y-56110625D01*
X114748120Y-56026220D01*
X114646354Y-55780535D01*
X114498613Y-55559425D01*
X114310575Y-55371387D01*
X114089465Y-55223646D01*
X113843780Y-55121880D01*
X113582963Y-55070000D01*
X113317037Y-55070000D01*
X113056220Y-55121880D01*
X112810535Y-55223646D01*
X112589425Y-55371387D01*
X112401387Y-55559425D01*
X112253646Y-55780535D01*
X112151880Y-56026220D01*
X112100000Y-56287037D01*
X108605703Y-56287037D01*
X108595774Y-56259857D01*
X108391159Y-56162654D01*
X108171512Y-56107236D01*
X107945274Y-56095733D01*
X107721140Y-56128588D01*
X107507721Y-56204539D01*
X107404226Y-56259857D01*
X107336551Y-56445129D01*
X103717441Y-56445129D01*
X103640063Y-56222822D01*
X103571717Y-56094958D01*
X103376223Y-56015198D01*
X102641421Y-56750000D01*
X102358579Y-56750000D01*
X101623777Y-56015198D01*
X101428283Y-56094958D01*
X101321083Y-56316626D01*
X101259188Y-56554948D01*
X101244977Y-56800766D01*
X85650000Y-56800766D01*
X85650000Y-55876223D01*
X87185198Y-55876223D01*
X87264958Y-56071717D01*
X87486626Y-56178917D01*
X87724948Y-56240812D01*
X87970766Y-56255023D01*
X88214633Y-56221004D01*
X88447178Y-56140063D01*
X88575042Y-56071717D01*
X88654802Y-55876223D01*
X87920000Y-55141421D01*
X87185198Y-55876223D01*
X85650000Y-55876223D01*
X85650000Y-55050766D01*
X86664977Y-55050766D01*
X86698996Y-55294633D01*
X86779937Y-55527178D01*
X86848283Y-55655042D01*
X87043777Y-55734802D01*
X87778579Y-55000000D01*
X88061421Y-55000000D01*
X88796223Y-55734802D01*
X88991717Y-55655042D01*
X89098917Y-55433374D01*
X89160812Y-55195052D01*
X89175023Y-54949234D01*
X89164931Y-54876886D01*
X96830000Y-54876886D01*
X96830000Y-55123114D01*
X96878037Y-55364611D01*
X96972265Y-55592097D01*
X97109062Y-55796828D01*
X97283172Y-55970938D01*
X97487903Y-56107735D01*
X97715389Y-56201963D01*
X97956886Y-56250000D01*
X98203114Y-56250000D01*
X98444611Y-56201963D01*
X98672097Y-56107735D01*
X98876828Y-55970938D01*
X98973989Y-55873777D01*
X101765198Y-55873777D01*
X102500000Y-56608579D01*
X103234802Y-55873777D01*
X103155042Y-55678283D01*
X102933374Y-55571083D01*
X102695052Y-55509188D01*
X102449234Y-55494977D01*
X102205367Y-55528996D01*
X101972822Y-55609937D01*
X101844958Y-55678283D01*
X101765198Y-55873777D01*
X98973989Y-55873777D01*
X99050938Y-55796828D01*
X99187735Y-55592097D01*
X99281963Y-55364611D01*
X99330000Y-55123114D01*
X99330000Y-54876886D01*
X99281963Y-54635389D01*
X99187735Y-54407903D01*
X99050938Y-54203172D01*
X98876828Y-54029062D01*
X98672097Y-53892265D01*
X98444611Y-53798037D01*
X98203114Y-53750000D01*
X97956886Y-53750000D01*
X97715389Y-53798037D01*
X97487903Y-53892265D01*
X97283172Y-54029062D01*
X97109062Y-54203172D01*
X96972265Y-54407903D01*
X96878037Y-54635389D01*
X96830000Y-54876886D01*
X89164931Y-54876886D01*
X89141004Y-54705367D01*
X89060063Y-54472822D01*
X88991717Y-54344958D01*
X88796223Y-54265198D01*
X88061421Y-55000000D01*
X87778579Y-55000000D01*
X87043777Y-54265198D01*
X86848283Y-54344958D01*
X86741083Y-54566626D01*
X86679188Y-54804948D01*
X86664977Y-55050766D01*
X85650000Y-55050766D01*
X85650000Y-54123777D01*
X87185198Y-54123777D01*
X87920000Y-54858579D01*
X88654802Y-54123777D01*
X88575042Y-53928283D01*
X88353374Y-53821083D01*
X88115052Y-53759188D01*
X87869234Y-53744977D01*
X87625367Y-53778996D01*
X87392822Y-53859937D01*
X87264958Y-53928283D01*
X87185198Y-54123777D01*
X85650000Y-54123777D01*
X85650000Y-53812132D01*
X86487132Y-52975000D01*
X117512868Y-52975000D01*
X118600000Y-54062132D01*
%TO.N,/SPK+*%
G36*
X116100000Y-91812132D02*
G01*
X116100000Y-94937868D01*
X113143934Y-97893934D01*
X113125280Y-97916664D01*
X113111418Y-97942597D01*
X113102882Y-97970736D01*
X113100000Y-98000000D01*
X113100000Y-109350000D01*
X106650000Y-109350000D01*
X106650000Y-108593612D01*
X107337809Y-108593612D01*
X107489820Y-108850524D01*
X107813674Y-109017615D01*
X108163902Y-109118315D01*
X108527047Y-109148755D01*
X108889152Y-109107762D01*
X109236302Y-108996915D01*
X109510180Y-108850524D01*
X109662191Y-108593612D01*
X108500000Y-107431421D01*
X107337809Y-108593612D01*
X106650000Y-108593612D01*
X106650000Y-107394383D01*
X106682238Y-107679152D01*
X106793085Y-108026302D01*
X106939476Y-108300180D01*
X107196388Y-108452191D01*
X108358579Y-107290000D01*
X107196388Y-106127809D01*
X106939476Y-106279820D01*
X106772385Y-106603674D01*
X106671685Y-106953902D01*
X106650000Y-107212601D01*
X106650000Y-103513612D01*
X107337809Y-103513612D01*
X107489820Y-103770524D01*
X107813674Y-103937615D01*
X108163902Y-104038315D01*
X108527047Y-104068755D01*
X108889152Y-104027762D01*
X109205457Y-103926764D01*
X109113778Y-104105806D01*
X109019541Y-104437395D01*
X108991805Y-104780997D01*
X109031636Y-105123409D01*
X109137502Y-105451470D01*
X109200771Y-105569838D01*
X109186326Y-105562385D01*
X108836098Y-105461685D01*
X108472953Y-105431245D01*
X108110848Y-105472238D01*
X107763698Y-105583085D01*
X107489820Y-105729476D01*
X107337809Y-105986388D01*
X108500000Y-107148579D01*
X108514143Y-107134437D01*
X108655564Y-107275858D01*
X108641421Y-107290000D01*
X109803612Y-108452191D01*
X110060524Y-108300180D01*
X110227615Y-107976326D01*
X110328315Y-107626098D01*
X110358755Y-107262953D01*
X110317762Y-106900848D01*
X110206915Y-106553698D01*
X110119473Y-106390106D01*
X110437395Y-106480459D01*
X110780997Y-106508195D01*
X111123409Y-106468364D01*
X111451470Y-106362498D01*
X111701027Y-106229107D01*
X111841014Y-105982436D01*
X110750000Y-104891421D01*
X110735858Y-104905564D01*
X110594436Y-104764142D01*
X110608579Y-104750000D01*
X110891421Y-104750000D01*
X111982436Y-105841014D01*
X112229107Y-105701027D01*
X112386222Y-105394194D01*
X112480459Y-105062605D01*
X112508195Y-104719003D01*
X112468364Y-104376591D01*
X112362498Y-104048530D01*
X112229107Y-103798973D01*
X111982436Y-103658986D01*
X110891421Y-104750000D01*
X110608579Y-104750000D01*
X110594436Y-104735858D01*
X110735858Y-104594436D01*
X110750000Y-104608579D01*
X111841014Y-103517564D01*
X111701027Y-103270893D01*
X111394194Y-103113778D01*
X111062605Y-103019541D01*
X110719003Y-102991805D01*
X110376591Y-103031636D01*
X110114098Y-103116343D01*
X110227615Y-102896326D01*
X110328315Y-102546098D01*
X110358755Y-102182953D01*
X110317762Y-101820848D01*
X110206915Y-101473698D01*
X110060524Y-101199820D01*
X109803612Y-101047809D01*
X108641421Y-102210000D01*
X108655564Y-102224143D01*
X108514143Y-102365564D01*
X108500000Y-102351421D01*
X107337809Y-103513612D01*
X106650000Y-103513612D01*
X106650000Y-102314383D01*
X106682238Y-102599152D01*
X106793085Y-102946302D01*
X106939476Y-103220180D01*
X107196388Y-103372191D01*
X108358579Y-102210000D01*
X107196388Y-101047809D01*
X106939476Y-101199820D01*
X106772385Y-101523674D01*
X106671685Y-101873902D01*
X106650000Y-102132601D01*
X106650000Y-101500000D01*
X106647118Y-101470736D01*
X106638582Y-101442597D01*
X106624720Y-101416664D01*
X106606066Y-101393934D01*
X106118520Y-100906388D01*
X107337809Y-100906388D01*
X108500000Y-102068579D01*
X109662191Y-100906388D01*
X109510180Y-100649476D01*
X109186326Y-100482385D01*
X108836098Y-100381685D01*
X108472953Y-100351245D01*
X108110848Y-100392238D01*
X107763698Y-100503085D01*
X107489820Y-100649476D01*
X107337809Y-100906388D01*
X106118520Y-100906388D01*
X100265744Y-95053612D01*
X112337809Y-95053612D01*
X112489820Y-95310524D01*
X112813674Y-95477615D01*
X113163902Y-95578315D01*
X113527047Y-95608755D01*
X113889152Y-95567762D01*
X114236302Y-95456915D01*
X114510180Y-95310524D01*
X114662191Y-95053612D01*
X113500000Y-93891421D01*
X112337809Y-95053612D01*
X100265744Y-95053612D01*
X99150000Y-93937868D01*
X99150000Y-93796842D01*
X99884579Y-93796842D01*
X100018554Y-94038392D01*
X100316875Y-94190519D01*
X100639143Y-94281524D01*
X100972973Y-94307908D01*
X101305536Y-94268659D01*
X101624052Y-94165283D01*
X101861446Y-94038392D01*
X101995421Y-93796842D01*
X101975626Y-93777047D01*
X111641245Y-93777047D01*
X111682238Y-94139152D01*
X111793085Y-94486302D01*
X111939476Y-94760180D01*
X112196388Y-94912191D01*
X113358579Y-93750000D01*
X113641421Y-93750000D01*
X114803612Y-94912191D01*
X115060524Y-94760180D01*
X115227615Y-94436326D01*
X115328315Y-94086098D01*
X115358755Y-93722953D01*
X115317762Y-93360848D01*
X115206915Y-93013698D01*
X115060524Y-92739820D01*
X114803612Y-92587809D01*
X113641421Y-93750000D01*
X113358579Y-93750000D01*
X112196388Y-92587809D01*
X111939476Y-92739820D01*
X111772385Y-93063674D01*
X111671685Y-93413902D01*
X111641245Y-93777047D01*
X101975626Y-93777047D01*
X100940000Y-92741421D01*
X99884579Y-93796842D01*
X99150000Y-93796842D01*
X99150000Y-92632973D01*
X99232092Y-92632973D01*
X99271341Y-92965536D01*
X99374717Y-93284052D01*
X99501608Y-93521446D01*
X99743158Y-93655421D01*
X100798579Y-92600000D01*
X101081421Y-92600000D01*
X102136842Y-93655421D01*
X102378392Y-93521446D01*
X102530519Y-93223125D01*
X102621524Y-92900857D01*
X102647908Y-92567027D01*
X102633671Y-92446388D01*
X112337809Y-92446388D01*
X113500000Y-93608579D01*
X114662191Y-92446388D01*
X114510180Y-92189476D01*
X114186326Y-92022385D01*
X113836098Y-91921685D01*
X113472953Y-91891245D01*
X113110848Y-91932238D01*
X112763698Y-92043085D01*
X112489820Y-92189476D01*
X112337809Y-92446388D01*
X102633671Y-92446388D01*
X102608659Y-92234464D01*
X102505283Y-91915948D01*
X102378392Y-91678554D01*
X102136842Y-91544579D01*
X101081421Y-92600000D01*
X100798579Y-92600000D01*
X99743158Y-91544579D01*
X99501608Y-91678554D01*
X99349481Y-91976875D01*
X99258476Y-92299143D01*
X99232092Y-92632973D01*
X99150000Y-92632973D01*
X99150000Y-91403158D01*
X99884579Y-91403158D01*
X100940000Y-92458579D01*
X101995421Y-91403158D01*
X101861446Y-91161608D01*
X101563125Y-91009481D01*
X101240857Y-90918476D01*
X100907027Y-90892092D01*
X100574464Y-90931341D01*
X100255948Y-91034717D01*
X100018554Y-91161608D01*
X99884579Y-91403158D01*
X99150000Y-91403158D01*
X99150000Y-90812132D01*
X100312132Y-89650000D01*
X113937868Y-89650000D01*
X116100000Y-91812132D01*
G37*
X116100000Y-91812132D02*
X116100000Y-94937868D01*
X113143934Y-97893934D01*
X113125280Y-97916664D01*
X113111418Y-97942597D01*
X113102882Y-97970736D01*
X113100000Y-98000000D01*
X113100000Y-109350000D01*
X106650000Y-109350000D01*
X106650000Y-108593612D01*
X107337809Y-108593612D01*
X107489820Y-108850524D01*
X107813674Y-109017615D01*
X108163902Y-109118315D01*
X108527047Y-109148755D01*
X108889152Y-109107762D01*
X109236302Y-108996915D01*
X109510180Y-108850524D01*
X109662191Y-108593612D01*
X108500000Y-107431421D01*
X107337809Y-108593612D01*
X106650000Y-108593612D01*
X106650000Y-107394383D01*
X106682238Y-107679152D01*
X106793085Y-108026302D01*
X106939476Y-108300180D01*
X107196388Y-108452191D01*
X108358579Y-107290000D01*
X107196388Y-106127809D01*
X106939476Y-106279820D01*
X106772385Y-106603674D01*
X106671685Y-106953902D01*
X106650000Y-107212601D01*
X106650000Y-103513612D01*
X107337809Y-103513612D01*
X107489820Y-103770524D01*
X107813674Y-103937615D01*
X108163902Y-104038315D01*
X108527047Y-104068755D01*
X108889152Y-104027762D01*
X109205457Y-103926764D01*
X109113778Y-104105806D01*
X109019541Y-104437395D01*
X108991805Y-104780997D01*
X109031636Y-105123409D01*
X109137502Y-105451470D01*
X109200771Y-105569838D01*
X109186326Y-105562385D01*
X108836098Y-105461685D01*
X108472953Y-105431245D01*
X108110848Y-105472238D01*
X107763698Y-105583085D01*
X107489820Y-105729476D01*
X107337809Y-105986388D01*
X108500000Y-107148579D01*
X108514143Y-107134437D01*
X108655564Y-107275858D01*
X108641421Y-107290000D01*
X109803612Y-108452191D01*
X110060524Y-108300180D01*
X110227615Y-107976326D01*
X110328315Y-107626098D01*
X110358755Y-107262953D01*
X110317762Y-106900848D01*
X110206915Y-106553698D01*
X110119473Y-106390106D01*
X110437395Y-106480459D01*
X110780997Y-106508195D01*
X111123409Y-106468364D01*
X111451470Y-106362498D01*
X111701027Y-106229107D01*
X111841014Y-105982436D01*
X110750000Y-104891421D01*
X110735858Y-104905564D01*
X110594436Y-104764142D01*
X110608579Y-104750000D01*
X110891421Y-104750000D01*
X111982436Y-105841014D01*
X112229107Y-105701027D01*
X112386222Y-105394194D01*
X112480459Y-105062605D01*
X112508195Y-104719003D01*
X112468364Y-104376591D01*
X112362498Y-104048530D01*
X112229107Y-103798973D01*
X111982436Y-103658986D01*
X110891421Y-104750000D01*
X110608579Y-104750000D01*
X110594436Y-104735858D01*
X110735858Y-104594436D01*
X110750000Y-104608579D01*
X111841014Y-103517564D01*
X111701027Y-103270893D01*
X111394194Y-103113778D01*
X111062605Y-103019541D01*
X110719003Y-102991805D01*
X110376591Y-103031636D01*
X110114098Y-103116343D01*
X110227615Y-102896326D01*
X110328315Y-102546098D01*
X110358755Y-102182953D01*
X110317762Y-101820848D01*
X110206915Y-101473698D01*
X110060524Y-101199820D01*
X109803612Y-101047809D01*
X108641421Y-102210000D01*
X108655564Y-102224143D01*
X108514143Y-102365564D01*
X108500000Y-102351421D01*
X107337809Y-103513612D01*
X106650000Y-103513612D01*
X106650000Y-102314383D01*
X106682238Y-102599152D01*
X106793085Y-102946302D01*
X106939476Y-103220180D01*
X107196388Y-103372191D01*
X108358579Y-102210000D01*
X107196388Y-101047809D01*
X106939476Y-101199820D01*
X106772385Y-101523674D01*
X106671685Y-101873902D01*
X106650000Y-102132601D01*
X106650000Y-101500000D01*
X106647118Y-101470736D01*
X106638582Y-101442597D01*
X106624720Y-101416664D01*
X106606066Y-101393934D01*
X106118520Y-100906388D01*
X107337809Y-100906388D01*
X108500000Y-102068579D01*
X109662191Y-100906388D01*
X109510180Y-100649476D01*
X109186326Y-100482385D01*
X108836098Y-100381685D01*
X108472953Y-100351245D01*
X108110848Y-100392238D01*
X107763698Y-100503085D01*
X107489820Y-100649476D01*
X107337809Y-100906388D01*
X106118520Y-100906388D01*
X100265744Y-95053612D01*
X112337809Y-95053612D01*
X112489820Y-95310524D01*
X112813674Y-95477615D01*
X113163902Y-95578315D01*
X113527047Y-95608755D01*
X113889152Y-95567762D01*
X114236302Y-95456915D01*
X114510180Y-95310524D01*
X114662191Y-95053612D01*
X113500000Y-93891421D01*
X112337809Y-95053612D01*
X100265744Y-95053612D01*
X99150000Y-93937868D01*
X99150000Y-93796842D01*
X99884579Y-93796842D01*
X100018554Y-94038392D01*
X100316875Y-94190519D01*
X100639143Y-94281524D01*
X100972973Y-94307908D01*
X101305536Y-94268659D01*
X101624052Y-94165283D01*
X101861446Y-94038392D01*
X101995421Y-93796842D01*
X101975626Y-93777047D01*
X111641245Y-93777047D01*
X111682238Y-94139152D01*
X111793085Y-94486302D01*
X111939476Y-94760180D01*
X112196388Y-94912191D01*
X113358579Y-93750000D01*
X113641421Y-93750000D01*
X114803612Y-94912191D01*
X115060524Y-94760180D01*
X115227615Y-94436326D01*
X115328315Y-94086098D01*
X115358755Y-93722953D01*
X115317762Y-93360848D01*
X115206915Y-93013698D01*
X115060524Y-92739820D01*
X114803612Y-92587809D01*
X113641421Y-93750000D01*
X113358579Y-93750000D01*
X112196388Y-92587809D01*
X111939476Y-92739820D01*
X111772385Y-93063674D01*
X111671685Y-93413902D01*
X111641245Y-93777047D01*
X101975626Y-93777047D01*
X100940000Y-92741421D01*
X99884579Y-93796842D01*
X99150000Y-93796842D01*
X99150000Y-92632973D01*
X99232092Y-92632973D01*
X99271341Y-92965536D01*
X99374717Y-93284052D01*
X99501608Y-93521446D01*
X99743158Y-93655421D01*
X100798579Y-92600000D01*
X101081421Y-92600000D01*
X102136842Y-93655421D01*
X102378392Y-93521446D01*
X102530519Y-93223125D01*
X102621524Y-92900857D01*
X102647908Y-92567027D01*
X102633671Y-92446388D01*
X112337809Y-92446388D01*
X113500000Y-93608579D01*
X114662191Y-92446388D01*
X114510180Y-92189476D01*
X114186326Y-92022385D01*
X113836098Y-91921685D01*
X113472953Y-91891245D01*
X113110848Y-91932238D01*
X112763698Y-92043085D01*
X112489820Y-92189476D01*
X112337809Y-92446388D01*
X102633671Y-92446388D01*
X102608659Y-92234464D01*
X102505283Y-91915948D01*
X102378392Y-91678554D01*
X102136842Y-91544579D01*
X101081421Y-92600000D01*
X100798579Y-92600000D01*
X99743158Y-91544579D01*
X99501608Y-91678554D01*
X99349481Y-91976875D01*
X99258476Y-92299143D01*
X99232092Y-92632973D01*
X99150000Y-92632973D01*
X99150000Y-91403158D01*
X99884579Y-91403158D01*
X100940000Y-92458579D01*
X101995421Y-91403158D01*
X101861446Y-91161608D01*
X101563125Y-91009481D01*
X101240857Y-90918476D01*
X100907027Y-90892092D01*
X100574464Y-90931341D01*
X100255948Y-91034717D01*
X100018554Y-91161608D01*
X99884579Y-91403158D01*
X99150000Y-91403158D01*
X99150000Y-90812132D01*
X100312132Y-89650000D01*
X113937868Y-89650000D01*
X116100000Y-91812132D01*
%TO.N,VCC*%
G36*
X120350000Y-60312132D02*
G01*
X120350000Y-62187868D01*
X119437868Y-63100000D01*
X117812132Y-63100000D01*
X116650000Y-61937868D01*
X116650000Y-61809375D01*
X117235928Y-61809375D01*
X117285506Y-61972825D01*
X117402046Y-62210430D01*
X117562702Y-62420734D01*
X117761299Y-62595655D01*
X117990205Y-62728470D01*
X118240624Y-62814076D01*
X118450000Y-62733795D01*
X118450000Y-61600000D01*
X118650000Y-61600000D01*
X118650000Y-62733795D01*
X118859376Y-62814076D01*
X119109795Y-62728470D01*
X119338701Y-62595655D01*
X119537298Y-62420734D01*
X119697954Y-62210430D01*
X119814494Y-61972825D01*
X119864072Y-61809375D01*
X119783453Y-61600000D01*
X118650000Y-61600000D01*
X118450000Y-61600000D01*
X117316547Y-61600000D01*
X117235928Y-61809375D01*
X116650000Y-61809375D01*
X116650000Y-61250000D01*
X116647118Y-61220736D01*
X116638582Y-61192597D01*
X116637528Y-61190625D01*
X117235928Y-61190625D01*
X117316547Y-61400000D01*
X118450000Y-61400000D01*
X118450000Y-60266205D01*
X118650000Y-60266205D01*
X118650000Y-61400000D01*
X119783453Y-61400000D01*
X119864072Y-61190625D01*
X119814494Y-61027175D01*
X119697954Y-60789570D01*
X119537298Y-60579266D01*
X119338701Y-60404345D01*
X119109795Y-60271530D01*
X118859376Y-60185924D01*
X118650000Y-60266205D01*
X118450000Y-60266205D01*
X118240624Y-60185924D01*
X117990205Y-60271530D01*
X117761299Y-60404345D01*
X117562702Y-60579266D01*
X117402046Y-60789570D01*
X117285506Y-61027175D01*
X117235928Y-61190625D01*
X116637528Y-61190625D01*
X116624720Y-61166664D01*
X116606066Y-61143934D01*
X116535970Y-61073838D01*
X116496106Y-60942424D01*
X116361464Y-60690526D01*
X116180264Y-60469735D01*
X115959473Y-60288536D01*
X115707575Y-60153894D01*
X115434249Y-60070981D01*
X115150000Y-60042985D01*
X114865750Y-60070981D01*
X114592424Y-60153894D01*
X114340526Y-60288536D01*
X114119735Y-60469736D01*
X113938536Y-60690527D01*
X113803894Y-60942425D01*
X113720981Y-61215751D01*
X113700000Y-61428776D01*
X113700000Y-62337868D01*
X110393934Y-65643934D01*
X110375280Y-65666664D01*
X110361418Y-65692597D01*
X110352882Y-65720736D01*
X110350000Y-65750000D01*
X110350000Y-66937868D01*
X104893934Y-72393934D01*
X104875280Y-72416664D01*
X104861418Y-72442597D01*
X104852882Y-72470736D01*
X104850000Y-72500000D01*
X104850000Y-84187868D01*
X98393934Y-90643934D01*
X98375280Y-90666664D01*
X98361418Y-90692597D01*
X98352882Y-90720736D01*
X98350000Y-90750000D01*
X98350000Y-94000000D01*
X98352882Y-94029264D01*
X98361418Y-94057403D01*
X98375280Y-94083336D01*
X98393934Y-94106066D01*
X105850000Y-101562132D01*
X105850000Y-109350000D01*
X97650000Y-109350000D01*
X97650000Y-108593612D01*
X101837809Y-108593612D01*
X101989820Y-108850524D01*
X102313674Y-109017615D01*
X102663902Y-109118315D01*
X103027047Y-109148755D01*
X103389152Y-109107762D01*
X103736302Y-108996915D01*
X104010180Y-108850524D01*
X104162191Y-108593612D01*
X103000000Y-107431421D01*
X101837809Y-108593612D01*
X97650000Y-108593612D01*
X97650000Y-107317047D01*
X101141245Y-107317047D01*
X101182238Y-107679152D01*
X101293085Y-108026302D01*
X101439476Y-108300180D01*
X101696388Y-108452191D01*
X102858579Y-107290000D01*
X103141421Y-107290000D01*
X104303612Y-108452191D01*
X104560524Y-108300180D01*
X104727615Y-107976326D01*
X104828315Y-107626098D01*
X104858755Y-107262953D01*
X104817762Y-106900848D01*
X104706915Y-106553698D01*
X104560524Y-106279820D01*
X104303612Y-106127809D01*
X103141421Y-107290000D01*
X102858579Y-107290000D01*
X101696388Y-106127809D01*
X101439476Y-106279820D01*
X101272385Y-106603674D01*
X101171685Y-106953902D01*
X101141245Y-107317047D01*
X97650000Y-107317047D01*
X97650000Y-105982436D01*
X99408986Y-105982436D01*
X99548973Y-106229107D01*
X99855806Y-106386222D01*
X100187395Y-106480459D01*
X100530997Y-106508195D01*
X100873409Y-106468364D01*
X101201470Y-106362498D01*
X101451027Y-106229107D01*
X101588771Y-105986388D01*
X101837809Y-105986388D01*
X103000000Y-107148579D01*
X104162191Y-105986388D01*
X104010180Y-105729476D01*
X103686326Y-105562385D01*
X103336098Y-105461685D01*
X102972953Y-105431245D01*
X102610848Y-105472238D01*
X102263698Y-105583085D01*
X101989820Y-105729476D01*
X101837809Y-105986388D01*
X101588771Y-105986388D01*
X101591014Y-105982436D01*
X100500000Y-104891421D01*
X99408986Y-105982436D01*
X97650000Y-105982436D01*
X97650000Y-104780997D01*
X98741805Y-104780997D01*
X98781636Y-105123409D01*
X98887502Y-105451470D01*
X99020893Y-105701027D01*
X99267564Y-105841014D01*
X100358579Y-104750000D01*
X100641421Y-104750000D01*
X101732436Y-105841014D01*
X101979107Y-105701027D01*
X102136222Y-105394194D01*
X102230459Y-105062605D01*
X102258195Y-104719003D01*
X102218364Y-104376591D01*
X102112498Y-104048530D01*
X101979107Y-103798973D01*
X101732436Y-103658986D01*
X100641421Y-104750000D01*
X100358579Y-104750000D01*
X99267564Y-103658986D01*
X99020893Y-103798973D01*
X98863778Y-104105806D01*
X98769541Y-104437395D01*
X98741805Y-104780997D01*
X97650000Y-104780997D01*
X97650000Y-103517564D01*
X99408986Y-103517564D01*
X100500000Y-104608579D01*
X101591014Y-103517564D01*
X101588772Y-103513612D01*
X101837809Y-103513612D01*
X101989820Y-103770524D01*
X102313674Y-103937615D01*
X102663902Y-104038315D01*
X103027047Y-104068755D01*
X103389152Y-104027762D01*
X103736302Y-103916915D01*
X104010180Y-103770524D01*
X104162191Y-103513612D01*
X103000000Y-102351421D01*
X101837809Y-103513612D01*
X101588772Y-103513612D01*
X101451027Y-103270893D01*
X101144194Y-103113778D01*
X100812605Y-103019541D01*
X100469003Y-102991805D01*
X100126591Y-103031636D01*
X99798530Y-103137502D01*
X99548973Y-103270893D01*
X99408986Y-103517564D01*
X97650000Y-103517564D01*
X97650000Y-102250000D01*
X97648725Y-102237047D01*
X101141245Y-102237047D01*
X101182238Y-102599152D01*
X101293085Y-102946302D01*
X101439476Y-103220180D01*
X101696388Y-103372191D01*
X102858579Y-102210000D01*
X103141421Y-102210000D01*
X104303612Y-103372191D01*
X104560524Y-103220180D01*
X104727615Y-102896326D01*
X104828315Y-102546098D01*
X104858755Y-102182953D01*
X104817762Y-101820848D01*
X104706915Y-101473698D01*
X104560524Y-101199820D01*
X104303612Y-101047809D01*
X103141421Y-102210000D01*
X102858579Y-102210000D01*
X101696388Y-101047809D01*
X101439476Y-101199820D01*
X101272385Y-101523674D01*
X101171685Y-101873902D01*
X101141245Y-102237047D01*
X97648725Y-102237047D01*
X97647118Y-102220736D01*
X97638582Y-102192597D01*
X97624720Y-102166664D01*
X97606066Y-102143934D01*
X96368520Y-100906388D01*
X101837809Y-100906388D01*
X103000000Y-102068579D01*
X104162191Y-100906388D01*
X104010180Y-100649476D01*
X103686326Y-100482385D01*
X103336098Y-100381685D01*
X102972953Y-100351245D01*
X102610848Y-100392238D01*
X102263698Y-100503085D01*
X101989820Y-100649476D01*
X101837809Y-100906388D01*
X96368520Y-100906388D01*
X95856066Y-100393934D01*
X95833336Y-100375280D01*
X95807403Y-100361418D01*
X95779264Y-100352882D01*
X95750000Y-100350000D01*
X93062132Y-100350000D01*
X87989219Y-95277087D01*
X88048784Y-95325971D01*
X88126959Y-95367757D01*
X88211785Y-95393489D01*
X88300000Y-95402177D01*
X89287500Y-95400000D01*
X89400000Y-95287500D01*
X89400000Y-93850000D01*
X89600000Y-93850000D01*
X89600000Y-95287500D01*
X89712500Y-95400000D01*
X90700000Y-95402177D01*
X90788215Y-95393489D01*
X90873041Y-95367757D01*
X90951216Y-95325971D01*
X91019737Y-95269737D01*
X91075971Y-95201216D01*
X91117757Y-95123041D01*
X91143489Y-95038215D01*
X91152177Y-94950000D01*
X91150000Y-93962500D01*
X91037500Y-93850000D01*
X89600000Y-93850000D01*
X89400000Y-93850000D01*
X87962500Y-93850000D01*
X87850000Y-93962500D01*
X87847823Y-94950000D01*
X87856511Y-95038215D01*
X87882243Y-95123041D01*
X87924029Y-95201216D01*
X87972913Y-95260781D01*
X87400000Y-94687868D01*
X87400000Y-92550000D01*
X87847823Y-92550000D01*
X87850000Y-93537500D01*
X87962500Y-93650000D01*
X89400000Y-93650000D01*
X89400000Y-92212500D01*
X89600000Y-92212500D01*
X89600000Y-93650000D01*
X91037500Y-93650000D01*
X91150000Y-93537500D01*
X91152177Y-92550000D01*
X91143489Y-92461785D01*
X91117757Y-92376959D01*
X91075971Y-92298784D01*
X91019737Y-92230263D01*
X90951216Y-92174029D01*
X90873041Y-92132243D01*
X90788215Y-92106511D01*
X90700000Y-92097823D01*
X89712500Y-92100000D01*
X89600000Y-92212500D01*
X89400000Y-92212500D01*
X89287500Y-92100000D01*
X88300000Y-92097823D01*
X88211785Y-92106511D01*
X88126959Y-92132243D01*
X88048784Y-92174029D01*
X87980263Y-92230263D01*
X87924029Y-92298784D01*
X87882243Y-92376959D01*
X87856511Y-92461785D01*
X87847823Y-92550000D01*
X87400000Y-92550000D01*
X87400000Y-89562132D01*
X89107816Y-87854316D01*
X89337489Y-87900000D01*
X89662511Y-87900000D01*
X89981287Y-87836592D01*
X90281568Y-87712211D01*
X90551814Y-87531639D01*
X90781639Y-87301814D01*
X90962211Y-87031568D01*
X91086592Y-86731287D01*
X91150000Y-86412511D01*
X91150000Y-86087489D01*
X91104316Y-85857816D01*
X92856066Y-84106066D01*
X92874720Y-84083336D01*
X92888582Y-84057403D01*
X92897118Y-84029264D01*
X92900000Y-84000000D01*
X92900000Y-73317791D01*
X98060000Y-73317791D01*
X98060000Y-73682209D01*
X98131095Y-74039625D01*
X98270552Y-74376303D01*
X98473011Y-74679306D01*
X98730694Y-74936989D01*
X99033697Y-75139448D01*
X99370375Y-75278905D01*
X99727791Y-75350000D01*
X100092209Y-75350000D01*
X100449625Y-75278905D01*
X100786303Y-75139448D01*
X101089306Y-74936989D01*
X101346989Y-74679306D01*
X101549448Y-74376303D01*
X101688905Y-74039625D01*
X101760000Y-73682209D01*
X101760000Y-73317791D01*
X101688905Y-72960375D01*
X101549448Y-72623697D01*
X101346989Y-72320694D01*
X101089306Y-72063011D01*
X100786303Y-71860552D01*
X100449625Y-71721095D01*
X100092209Y-71650000D01*
X99727791Y-71650000D01*
X99370375Y-71721095D01*
X99033697Y-71860552D01*
X98730694Y-72063011D01*
X98473011Y-72320694D01*
X98270552Y-72623697D01*
X98131095Y-72960375D01*
X98060000Y-73317791D01*
X92900000Y-73317791D01*
X92900000Y-69812132D01*
X95412132Y-67300000D01*
X101247823Y-67300000D01*
X101256511Y-67388215D01*
X101282243Y-67473041D01*
X101324029Y-67551216D01*
X101380263Y-67619737D01*
X101448784Y-67675971D01*
X101526959Y-67717757D01*
X101611785Y-67743489D01*
X101700000Y-67752177D01*
X102287500Y-67750000D01*
X102400000Y-67637500D01*
X102400000Y-66600000D01*
X102600000Y-66600000D01*
X102600000Y-67637500D01*
X102712500Y-67750000D01*
X103300000Y-67752177D01*
X103388215Y-67743489D01*
X103473041Y-67717757D01*
X103551216Y-67675971D01*
X103619737Y-67619737D01*
X103675971Y-67551216D01*
X103717757Y-67473041D01*
X103743489Y-67388215D01*
X103752177Y-67300000D01*
X103750000Y-66712500D01*
X103637500Y-66600000D01*
X102600000Y-66600000D01*
X102400000Y-66600000D01*
X101362500Y-66600000D01*
X101250000Y-66712500D01*
X101247823Y-67300000D01*
X95412132Y-67300000D01*
X99812132Y-62900000D01*
X101896327Y-62900000D01*
X101703172Y-63029062D01*
X101529062Y-63203172D01*
X101392265Y-63407903D01*
X101298037Y-63635389D01*
X101250000Y-63876886D01*
X101250000Y-64123114D01*
X101298037Y-64364611D01*
X101392265Y-64592097D01*
X101529062Y-64796828D01*
X101703172Y-64970938D01*
X101907903Y-65107735D01*
X102135389Y-65201963D01*
X102376886Y-65250000D01*
X102399998Y-65250000D01*
X102399998Y-65362498D01*
X102287500Y-65250000D01*
X101700000Y-65247823D01*
X101611785Y-65256511D01*
X101526959Y-65282243D01*
X101448784Y-65324029D01*
X101380263Y-65380263D01*
X101324029Y-65448784D01*
X101282243Y-65526959D01*
X101256511Y-65611785D01*
X101247823Y-65700000D01*
X101250000Y-66287500D01*
X101362500Y-66400000D01*
X102400000Y-66400000D01*
X102400000Y-66380000D01*
X102600000Y-66380000D01*
X102600000Y-66400000D01*
X103637500Y-66400000D01*
X103732629Y-66304871D01*
X107336551Y-66304871D01*
X107404226Y-66490143D01*
X107608841Y-66587346D01*
X107828488Y-66642764D01*
X108054726Y-66654267D01*
X108278860Y-66621412D01*
X108492279Y-66545461D01*
X108595774Y-66490143D01*
X108663449Y-66304871D01*
X108000000Y-65641421D01*
X107336551Y-66304871D01*
X103732629Y-66304871D01*
X103750000Y-66287500D01*
X103752177Y-65700000D01*
X103743489Y-65611785D01*
X103726181Y-65554726D01*
X106845733Y-65554726D01*
X106878588Y-65778860D01*
X106954539Y-65992279D01*
X107009857Y-66095774D01*
X107195129Y-66163449D01*
X107858579Y-65500000D01*
X108141421Y-65500000D01*
X108804871Y-66163449D01*
X108990143Y-66095774D01*
X109087346Y-65891159D01*
X109142764Y-65671512D01*
X109154267Y-65445274D01*
X109121412Y-65221140D01*
X109045461Y-65007721D01*
X108990143Y-64904226D01*
X108804871Y-64836551D01*
X108141421Y-65500000D01*
X107858579Y-65500000D01*
X107195129Y-64836551D01*
X107009857Y-64904226D01*
X106912654Y-65108841D01*
X106857236Y-65328488D01*
X106845733Y-65554726D01*
X103726181Y-65554726D01*
X103717757Y-65526959D01*
X103675971Y-65448784D01*
X103619737Y-65380263D01*
X103551216Y-65324029D01*
X103473041Y-65282243D01*
X103388215Y-65256511D01*
X103300000Y-65247823D01*
X102712500Y-65250000D01*
X102600002Y-65362498D01*
X102600002Y-65250000D01*
X102623114Y-65250000D01*
X102864611Y-65201963D01*
X103092097Y-65107735D01*
X103296828Y-64970938D01*
X103470938Y-64796828D01*
X103538891Y-64695129D01*
X107336551Y-64695129D01*
X108000000Y-65358579D01*
X108663449Y-64695129D01*
X108595774Y-64509857D01*
X108391159Y-64412654D01*
X108171512Y-64357236D01*
X107945274Y-64345733D01*
X107721140Y-64378588D01*
X107507721Y-64454539D01*
X107404226Y-64509857D01*
X107336551Y-64695129D01*
X103538891Y-64695129D01*
X103607735Y-64592097D01*
X103701963Y-64364611D01*
X103750000Y-64123114D01*
X103750000Y-63876886D01*
X103701963Y-63635389D01*
X103607735Y-63407903D01*
X103470938Y-63203172D01*
X103296828Y-63029062D01*
X103103673Y-62900000D01*
X104000000Y-62900000D01*
X104029264Y-62897118D01*
X104057403Y-62888582D01*
X104060858Y-62886735D01*
X106850000Y-62886735D01*
X106850000Y-63113265D01*
X106894194Y-63335443D01*
X106980884Y-63544729D01*
X107106737Y-63733082D01*
X107266918Y-63893263D01*
X107455271Y-64019116D01*
X107664557Y-64105806D01*
X107886735Y-64150000D01*
X108113265Y-64150000D01*
X108335443Y-64105806D01*
X108544729Y-64019116D01*
X108733082Y-63893263D01*
X108893263Y-63733082D01*
X109019116Y-63544729D01*
X109105806Y-63335443D01*
X109150000Y-63113265D01*
X109150000Y-62886735D01*
X109105806Y-62664557D01*
X109019116Y-62455271D01*
X108982186Y-62400000D01*
X110397823Y-62400000D01*
X110406511Y-62488215D01*
X110432243Y-62573041D01*
X110474029Y-62651216D01*
X110530263Y-62719737D01*
X110598784Y-62775971D01*
X110676959Y-62817757D01*
X110761785Y-62843489D01*
X110850000Y-62852177D01*
X111537500Y-62850000D01*
X111650000Y-62737500D01*
X111650000Y-61600000D01*
X111850000Y-61600000D01*
X111850000Y-62737500D01*
X111962500Y-62850000D01*
X112650000Y-62852177D01*
X112738215Y-62843489D01*
X112823041Y-62817757D01*
X112901216Y-62775971D01*
X112969737Y-62719737D01*
X113025971Y-62651216D01*
X113067757Y-62573041D01*
X113093489Y-62488215D01*
X113102177Y-62400000D01*
X113100000Y-61712500D01*
X112987500Y-61600000D01*
X111850000Y-61600000D01*
X111650000Y-61600000D01*
X110512500Y-61600000D01*
X110400000Y-61712500D01*
X110397823Y-62400000D01*
X108982186Y-62400000D01*
X108893263Y-62266918D01*
X108733082Y-62106737D01*
X108544729Y-61980884D01*
X108335443Y-61894194D01*
X108113265Y-61850000D01*
X107886735Y-61850000D01*
X107664557Y-61894194D01*
X107455271Y-61980884D01*
X107266918Y-62106737D01*
X107106737Y-62266918D01*
X106980884Y-62455271D01*
X106894194Y-62664557D01*
X106850000Y-62886735D01*
X104060858Y-62886735D01*
X104083336Y-62874720D01*
X104106066Y-62856066D01*
X106562132Y-60400000D01*
X107051224Y-60400000D01*
X107106737Y-60483082D01*
X107266918Y-60643263D01*
X107455271Y-60769116D01*
X107664557Y-60855806D01*
X107886735Y-60900000D01*
X108113265Y-60900000D01*
X108335443Y-60855806D01*
X108544729Y-60769116D01*
X108733082Y-60643263D01*
X108776345Y-60600000D01*
X110397823Y-60600000D01*
X110400000Y-61287500D01*
X110512500Y-61400000D01*
X111650000Y-61400000D01*
X111650000Y-60262500D01*
X111850000Y-60262500D01*
X111850000Y-61400000D01*
X112987500Y-61400000D01*
X113100000Y-61287500D01*
X113102177Y-60600000D01*
X113093489Y-60511785D01*
X113067757Y-60426959D01*
X113025971Y-60348784D01*
X112969737Y-60280263D01*
X112901216Y-60224029D01*
X112823041Y-60182243D01*
X112738215Y-60156511D01*
X112650000Y-60147823D01*
X111962500Y-60150000D01*
X111850000Y-60262500D01*
X111650000Y-60262500D01*
X111537500Y-60150000D01*
X110850000Y-60147823D01*
X110761785Y-60156511D01*
X110676959Y-60182243D01*
X110598784Y-60224029D01*
X110530263Y-60280263D01*
X110474029Y-60348784D01*
X110432243Y-60426959D01*
X110406511Y-60511785D01*
X110397823Y-60600000D01*
X108776345Y-60600000D01*
X108893263Y-60483082D01*
X109019116Y-60294729D01*
X109105806Y-60085443D01*
X109150000Y-59863265D01*
X109150000Y-59636735D01*
X109105806Y-59414557D01*
X109019116Y-59205271D01*
X109014207Y-59197925D01*
X109312132Y-58900000D01*
X118937868Y-58900000D01*
X120350000Y-60312132D01*
G37*
X120350000Y-60312132D02*
X120350000Y-62187868D01*
X119437868Y-63100000D01*
X117812132Y-63100000D01*
X116650000Y-61937868D01*
X116650000Y-61809375D01*
X117235928Y-61809375D01*
X117285506Y-61972825D01*
X117402046Y-62210430D01*
X117562702Y-62420734D01*
X117761299Y-62595655D01*
X117990205Y-62728470D01*
X118240624Y-62814076D01*
X118450000Y-62733795D01*
X118450000Y-61600000D01*
X118650000Y-61600000D01*
X118650000Y-62733795D01*
X118859376Y-62814076D01*
X119109795Y-62728470D01*
X119338701Y-62595655D01*
X119537298Y-62420734D01*
X119697954Y-62210430D01*
X119814494Y-61972825D01*
X119864072Y-61809375D01*
X119783453Y-61600000D01*
X118650000Y-61600000D01*
X118450000Y-61600000D01*
X117316547Y-61600000D01*
X117235928Y-61809375D01*
X116650000Y-61809375D01*
X116650000Y-61250000D01*
X116647118Y-61220736D01*
X116638582Y-61192597D01*
X116637528Y-61190625D01*
X117235928Y-61190625D01*
X117316547Y-61400000D01*
X118450000Y-61400000D01*
X118450000Y-60266205D01*
X118650000Y-60266205D01*
X118650000Y-61400000D01*
X119783453Y-61400000D01*
X119864072Y-61190625D01*
X119814494Y-61027175D01*
X119697954Y-60789570D01*
X119537298Y-60579266D01*
X119338701Y-60404345D01*
X119109795Y-60271530D01*
X118859376Y-60185924D01*
X118650000Y-60266205D01*
X118450000Y-60266205D01*
X118240624Y-60185924D01*
X117990205Y-60271530D01*
X117761299Y-60404345D01*
X117562702Y-60579266D01*
X117402046Y-60789570D01*
X117285506Y-61027175D01*
X117235928Y-61190625D01*
X116637528Y-61190625D01*
X116624720Y-61166664D01*
X116606066Y-61143934D01*
X116535970Y-61073838D01*
X116496106Y-60942424D01*
X116361464Y-60690526D01*
X116180264Y-60469735D01*
X115959473Y-60288536D01*
X115707575Y-60153894D01*
X115434249Y-60070981D01*
X115150000Y-60042985D01*
X114865750Y-60070981D01*
X114592424Y-60153894D01*
X114340526Y-60288536D01*
X114119735Y-60469736D01*
X113938536Y-60690527D01*
X113803894Y-60942425D01*
X113720981Y-61215751D01*
X113700000Y-61428776D01*
X113700000Y-62337868D01*
X110393934Y-65643934D01*
X110375280Y-65666664D01*
X110361418Y-65692597D01*
X110352882Y-65720736D01*
X110350000Y-65750000D01*
X110350000Y-66937868D01*
X104893934Y-72393934D01*
X104875280Y-72416664D01*
X104861418Y-72442597D01*
X104852882Y-72470736D01*
X104850000Y-72500000D01*
X104850000Y-84187868D01*
X98393934Y-90643934D01*
X98375280Y-90666664D01*
X98361418Y-90692597D01*
X98352882Y-90720736D01*
X98350000Y-90750000D01*
X98350000Y-94000000D01*
X98352882Y-94029264D01*
X98361418Y-94057403D01*
X98375280Y-94083336D01*
X98393934Y-94106066D01*
X105850000Y-101562132D01*
X105850000Y-109350000D01*
X97650000Y-109350000D01*
X97650000Y-108593612D01*
X101837809Y-108593612D01*
X101989820Y-108850524D01*
X102313674Y-109017615D01*
X102663902Y-109118315D01*
X103027047Y-109148755D01*
X103389152Y-109107762D01*
X103736302Y-108996915D01*
X104010180Y-108850524D01*
X104162191Y-108593612D01*
X103000000Y-107431421D01*
X101837809Y-108593612D01*
X97650000Y-108593612D01*
X97650000Y-107317047D01*
X101141245Y-107317047D01*
X101182238Y-107679152D01*
X101293085Y-108026302D01*
X101439476Y-108300180D01*
X101696388Y-108452191D01*
X102858579Y-107290000D01*
X103141421Y-107290000D01*
X104303612Y-108452191D01*
X104560524Y-108300180D01*
X104727615Y-107976326D01*
X104828315Y-107626098D01*
X104858755Y-107262953D01*
X104817762Y-106900848D01*
X104706915Y-106553698D01*
X104560524Y-106279820D01*
X104303612Y-106127809D01*
X103141421Y-107290000D01*
X102858579Y-107290000D01*
X101696388Y-106127809D01*
X101439476Y-106279820D01*
X101272385Y-106603674D01*
X101171685Y-106953902D01*
X101141245Y-107317047D01*
X97650000Y-107317047D01*
X97650000Y-105982436D01*
X99408986Y-105982436D01*
X99548973Y-106229107D01*
X99855806Y-106386222D01*
X100187395Y-106480459D01*
X100530997Y-106508195D01*
X100873409Y-106468364D01*
X101201470Y-106362498D01*
X101451027Y-106229107D01*
X101588771Y-105986388D01*
X101837809Y-105986388D01*
X103000000Y-107148579D01*
X104162191Y-105986388D01*
X104010180Y-105729476D01*
X103686326Y-105562385D01*
X103336098Y-105461685D01*
X102972953Y-105431245D01*
X102610848Y-105472238D01*
X102263698Y-105583085D01*
X101989820Y-105729476D01*
X101837809Y-105986388D01*
X101588771Y-105986388D01*
X101591014Y-105982436D01*
X100500000Y-104891421D01*
X99408986Y-105982436D01*
X97650000Y-105982436D01*
X97650000Y-104780997D01*
X98741805Y-104780997D01*
X98781636Y-105123409D01*
X98887502Y-105451470D01*
X99020893Y-105701027D01*
X99267564Y-105841014D01*
X100358579Y-104750000D01*
X100641421Y-104750000D01*
X101732436Y-105841014D01*
X101979107Y-105701027D01*
X102136222Y-105394194D01*
X102230459Y-105062605D01*
X102258195Y-104719003D01*
X102218364Y-104376591D01*
X102112498Y-104048530D01*
X101979107Y-103798973D01*
X101732436Y-103658986D01*
X100641421Y-104750000D01*
X100358579Y-104750000D01*
X99267564Y-103658986D01*
X99020893Y-103798973D01*
X98863778Y-104105806D01*
X98769541Y-104437395D01*
X98741805Y-104780997D01*
X97650000Y-104780997D01*
X97650000Y-103517564D01*
X99408986Y-103517564D01*
X100500000Y-104608579D01*
X101591014Y-103517564D01*
X101588772Y-103513612D01*
X101837809Y-103513612D01*
X101989820Y-103770524D01*
X102313674Y-103937615D01*
X102663902Y-104038315D01*
X103027047Y-104068755D01*
X103389152Y-104027762D01*
X103736302Y-103916915D01*
X104010180Y-103770524D01*
X104162191Y-103513612D01*
X103000000Y-102351421D01*
X101837809Y-103513612D01*
X101588772Y-103513612D01*
X101451027Y-103270893D01*
X101144194Y-103113778D01*
X100812605Y-103019541D01*
X100469003Y-102991805D01*
X100126591Y-103031636D01*
X99798530Y-103137502D01*
X99548973Y-103270893D01*
X99408986Y-103517564D01*
X97650000Y-103517564D01*
X97650000Y-102250000D01*
X97648725Y-102237047D01*
X101141245Y-102237047D01*
X101182238Y-102599152D01*
X101293085Y-102946302D01*
X101439476Y-103220180D01*
X101696388Y-103372191D01*
X102858579Y-102210000D01*
X103141421Y-102210000D01*
X104303612Y-103372191D01*
X104560524Y-103220180D01*
X104727615Y-102896326D01*
X104828315Y-102546098D01*
X104858755Y-102182953D01*
X104817762Y-101820848D01*
X104706915Y-101473698D01*
X104560524Y-101199820D01*
X104303612Y-101047809D01*
X103141421Y-102210000D01*
X102858579Y-102210000D01*
X101696388Y-101047809D01*
X101439476Y-101199820D01*
X101272385Y-101523674D01*
X101171685Y-101873902D01*
X101141245Y-102237047D01*
X97648725Y-102237047D01*
X97647118Y-102220736D01*
X97638582Y-102192597D01*
X97624720Y-102166664D01*
X97606066Y-102143934D01*
X96368520Y-100906388D01*
X101837809Y-100906388D01*
X103000000Y-102068579D01*
X104162191Y-100906388D01*
X104010180Y-100649476D01*
X103686326Y-100482385D01*
X103336098Y-100381685D01*
X102972953Y-100351245D01*
X102610848Y-100392238D01*
X102263698Y-100503085D01*
X101989820Y-100649476D01*
X101837809Y-100906388D01*
X96368520Y-100906388D01*
X95856066Y-100393934D01*
X95833336Y-100375280D01*
X95807403Y-100361418D01*
X95779264Y-100352882D01*
X95750000Y-100350000D01*
X93062132Y-100350000D01*
X87989219Y-95277087D01*
X88048784Y-95325971D01*
X88126959Y-95367757D01*
X88211785Y-95393489D01*
X88300000Y-95402177D01*
X89287500Y-95400000D01*
X89400000Y-95287500D01*
X89400000Y-93850000D01*
X89600000Y-93850000D01*
X89600000Y-95287500D01*
X89712500Y-95400000D01*
X90700000Y-95402177D01*
X90788215Y-95393489D01*
X90873041Y-95367757D01*
X90951216Y-95325971D01*
X91019737Y-95269737D01*
X91075971Y-95201216D01*
X91117757Y-95123041D01*
X91143489Y-95038215D01*
X91152177Y-94950000D01*
X91150000Y-93962500D01*
X91037500Y-93850000D01*
X89600000Y-93850000D01*
X89400000Y-93850000D01*
X87962500Y-93850000D01*
X87850000Y-93962500D01*
X87847823Y-94950000D01*
X87856511Y-95038215D01*
X87882243Y-95123041D01*
X87924029Y-95201216D01*
X87972913Y-95260781D01*
X87400000Y-94687868D01*
X87400000Y-92550000D01*
X87847823Y-92550000D01*
X87850000Y-93537500D01*
X87962500Y-93650000D01*
X89400000Y-93650000D01*
X89400000Y-92212500D01*
X89600000Y-92212500D01*
X89600000Y-93650000D01*
X91037500Y-93650000D01*
X91150000Y-93537500D01*
X91152177Y-92550000D01*
X91143489Y-92461785D01*
X91117757Y-92376959D01*
X91075971Y-92298784D01*
X91019737Y-92230263D01*
X90951216Y-92174029D01*
X90873041Y-92132243D01*
X90788215Y-92106511D01*
X90700000Y-92097823D01*
X89712500Y-92100000D01*
X89600000Y-92212500D01*
X89400000Y-92212500D01*
X89287500Y-92100000D01*
X88300000Y-92097823D01*
X88211785Y-92106511D01*
X88126959Y-92132243D01*
X88048784Y-92174029D01*
X87980263Y-92230263D01*
X87924029Y-92298784D01*
X87882243Y-92376959D01*
X87856511Y-92461785D01*
X87847823Y-92550000D01*
X87400000Y-92550000D01*
X87400000Y-89562132D01*
X89107816Y-87854316D01*
X89337489Y-87900000D01*
X89662511Y-87900000D01*
X89981287Y-87836592D01*
X90281568Y-87712211D01*
X90551814Y-87531639D01*
X90781639Y-87301814D01*
X90962211Y-87031568D01*
X91086592Y-86731287D01*
X91150000Y-86412511D01*
X91150000Y-86087489D01*
X91104316Y-85857816D01*
X92856066Y-84106066D01*
X92874720Y-84083336D01*
X92888582Y-84057403D01*
X92897118Y-84029264D01*
X92900000Y-84000000D01*
X92900000Y-73317791D01*
X98060000Y-73317791D01*
X98060000Y-73682209D01*
X98131095Y-74039625D01*
X98270552Y-74376303D01*
X98473011Y-74679306D01*
X98730694Y-74936989D01*
X99033697Y-75139448D01*
X99370375Y-75278905D01*
X99727791Y-75350000D01*
X100092209Y-75350000D01*
X100449625Y-75278905D01*
X100786303Y-75139448D01*
X101089306Y-74936989D01*
X101346989Y-74679306D01*
X101549448Y-74376303D01*
X101688905Y-74039625D01*
X101760000Y-73682209D01*
X101760000Y-73317791D01*
X101688905Y-72960375D01*
X101549448Y-72623697D01*
X101346989Y-72320694D01*
X101089306Y-72063011D01*
X100786303Y-71860552D01*
X100449625Y-71721095D01*
X100092209Y-71650000D01*
X99727791Y-71650000D01*
X99370375Y-71721095D01*
X99033697Y-71860552D01*
X98730694Y-72063011D01*
X98473011Y-72320694D01*
X98270552Y-72623697D01*
X98131095Y-72960375D01*
X98060000Y-73317791D01*
X92900000Y-73317791D01*
X92900000Y-69812132D01*
X95412132Y-67300000D01*
X101247823Y-67300000D01*
X101256511Y-67388215D01*
X101282243Y-67473041D01*
X101324029Y-67551216D01*
X101380263Y-67619737D01*
X101448784Y-67675971D01*
X101526959Y-67717757D01*
X101611785Y-67743489D01*
X101700000Y-67752177D01*
X102287500Y-67750000D01*
X102400000Y-67637500D01*
X102400000Y-66600000D01*
X102600000Y-66600000D01*
X102600000Y-67637500D01*
X102712500Y-67750000D01*
X103300000Y-67752177D01*
X103388215Y-67743489D01*
X103473041Y-67717757D01*
X103551216Y-67675971D01*
X103619737Y-67619737D01*
X103675971Y-67551216D01*
X103717757Y-67473041D01*
X103743489Y-67388215D01*
X103752177Y-67300000D01*
X103750000Y-66712500D01*
X103637500Y-66600000D01*
X102600000Y-66600000D01*
X102400000Y-66600000D01*
X101362500Y-66600000D01*
X101250000Y-66712500D01*
X101247823Y-67300000D01*
X95412132Y-67300000D01*
X99812132Y-62900000D01*
X101896327Y-62900000D01*
X101703172Y-63029062D01*
X101529062Y-63203172D01*
X101392265Y-63407903D01*
X101298037Y-63635389D01*
X101250000Y-63876886D01*
X101250000Y-64123114D01*
X101298037Y-64364611D01*
X101392265Y-64592097D01*
X101529062Y-64796828D01*
X101703172Y-64970938D01*
X101907903Y-65107735D01*
X102135389Y-65201963D01*
X102376886Y-65250000D01*
X102399998Y-65250000D01*
X102399998Y-65362498D01*
X102287500Y-65250000D01*
X101700000Y-65247823D01*
X101611785Y-65256511D01*
X101526959Y-65282243D01*
X101448784Y-65324029D01*
X101380263Y-65380263D01*
X101324029Y-65448784D01*
X101282243Y-65526959D01*
X101256511Y-65611785D01*
X101247823Y-65700000D01*
X101250000Y-66287500D01*
X101362500Y-66400000D01*
X102400000Y-66400000D01*
X102400000Y-66380000D01*
X102600000Y-66380000D01*
X102600000Y-66400000D01*
X103637500Y-66400000D01*
X103732629Y-66304871D01*
X107336551Y-66304871D01*
X107404226Y-66490143D01*
X107608841Y-66587346D01*
X107828488Y-66642764D01*
X108054726Y-66654267D01*
X108278860Y-66621412D01*
X108492279Y-66545461D01*
X108595774Y-66490143D01*
X108663449Y-66304871D01*
X108000000Y-65641421D01*
X107336551Y-66304871D01*
X103732629Y-66304871D01*
X103750000Y-66287500D01*
X103752177Y-65700000D01*
X103743489Y-65611785D01*
X103726181Y-65554726D01*
X106845733Y-65554726D01*
X106878588Y-65778860D01*
X106954539Y-65992279D01*
X107009857Y-66095774D01*
X107195129Y-66163449D01*
X107858579Y-65500000D01*
X108141421Y-65500000D01*
X108804871Y-66163449D01*
X108990143Y-66095774D01*
X109087346Y-65891159D01*
X109142764Y-65671512D01*
X109154267Y-65445274D01*
X109121412Y-65221140D01*
X109045461Y-65007721D01*
X108990143Y-64904226D01*
X108804871Y-64836551D01*
X108141421Y-65500000D01*
X107858579Y-65500000D01*
X107195129Y-64836551D01*
X107009857Y-64904226D01*
X106912654Y-65108841D01*
X106857236Y-65328488D01*
X106845733Y-65554726D01*
X103726181Y-65554726D01*
X103717757Y-65526959D01*
X103675971Y-65448784D01*
X103619737Y-65380263D01*
X103551216Y-65324029D01*
X103473041Y-65282243D01*
X103388215Y-65256511D01*
X103300000Y-65247823D01*
X102712500Y-65250000D01*
X102600002Y-65362498D01*
X102600002Y-65250000D01*
X102623114Y-65250000D01*
X102864611Y-65201963D01*
X103092097Y-65107735D01*
X103296828Y-64970938D01*
X103470938Y-64796828D01*
X103538891Y-64695129D01*
X107336551Y-64695129D01*
X108000000Y-65358579D01*
X108663449Y-64695129D01*
X108595774Y-64509857D01*
X108391159Y-64412654D01*
X108171512Y-64357236D01*
X107945274Y-64345733D01*
X107721140Y-64378588D01*
X107507721Y-64454539D01*
X107404226Y-64509857D01*
X107336551Y-64695129D01*
X103538891Y-64695129D01*
X103607735Y-64592097D01*
X103701963Y-64364611D01*
X103750000Y-64123114D01*
X103750000Y-63876886D01*
X103701963Y-63635389D01*
X103607735Y-63407903D01*
X103470938Y-63203172D01*
X103296828Y-63029062D01*
X103103673Y-62900000D01*
X104000000Y-62900000D01*
X104029264Y-62897118D01*
X104057403Y-62888582D01*
X104060858Y-62886735D01*
X106850000Y-62886735D01*
X106850000Y-63113265D01*
X106894194Y-63335443D01*
X106980884Y-63544729D01*
X107106737Y-63733082D01*
X107266918Y-63893263D01*
X107455271Y-64019116D01*
X107664557Y-64105806D01*
X107886735Y-64150000D01*
X108113265Y-64150000D01*
X108335443Y-64105806D01*
X108544729Y-64019116D01*
X108733082Y-63893263D01*
X108893263Y-63733082D01*
X109019116Y-63544729D01*
X109105806Y-63335443D01*
X109150000Y-63113265D01*
X109150000Y-62886735D01*
X109105806Y-62664557D01*
X109019116Y-62455271D01*
X108982186Y-62400000D01*
X110397823Y-62400000D01*
X110406511Y-62488215D01*
X110432243Y-62573041D01*
X110474029Y-62651216D01*
X110530263Y-62719737D01*
X110598784Y-62775971D01*
X110676959Y-62817757D01*
X110761785Y-62843489D01*
X110850000Y-62852177D01*
X111537500Y-62850000D01*
X111650000Y-62737500D01*
X111650000Y-61600000D01*
X111850000Y-61600000D01*
X111850000Y-62737500D01*
X111962500Y-62850000D01*
X112650000Y-62852177D01*
X112738215Y-62843489D01*
X112823041Y-62817757D01*
X112901216Y-62775971D01*
X112969737Y-62719737D01*
X113025971Y-62651216D01*
X113067757Y-62573041D01*
X113093489Y-62488215D01*
X113102177Y-62400000D01*
X113100000Y-61712500D01*
X112987500Y-61600000D01*
X111850000Y-61600000D01*
X111650000Y-61600000D01*
X110512500Y-61600000D01*
X110400000Y-61712500D01*
X110397823Y-62400000D01*
X108982186Y-62400000D01*
X108893263Y-62266918D01*
X108733082Y-62106737D01*
X108544729Y-61980884D01*
X108335443Y-61894194D01*
X108113265Y-61850000D01*
X107886735Y-61850000D01*
X107664557Y-61894194D01*
X107455271Y-61980884D01*
X107266918Y-62106737D01*
X107106737Y-62266918D01*
X106980884Y-62455271D01*
X106894194Y-62664557D01*
X106850000Y-62886735D01*
X104060858Y-62886735D01*
X104083336Y-62874720D01*
X104106066Y-62856066D01*
X106562132Y-60400000D01*
X107051224Y-60400000D01*
X107106737Y-60483082D01*
X107266918Y-60643263D01*
X107455271Y-60769116D01*
X107664557Y-60855806D01*
X107886735Y-60900000D01*
X108113265Y-60900000D01*
X108335443Y-60855806D01*
X108544729Y-60769116D01*
X108733082Y-60643263D01*
X108776345Y-60600000D01*
X110397823Y-60600000D01*
X110400000Y-61287500D01*
X110512500Y-61400000D01*
X111650000Y-61400000D01*
X111650000Y-60262500D01*
X111850000Y-60262500D01*
X111850000Y-61400000D01*
X112987500Y-61400000D01*
X113100000Y-61287500D01*
X113102177Y-60600000D01*
X113093489Y-60511785D01*
X113067757Y-60426959D01*
X113025971Y-60348784D01*
X112969737Y-60280263D01*
X112901216Y-60224029D01*
X112823041Y-60182243D01*
X112738215Y-60156511D01*
X112650000Y-60147823D01*
X111962500Y-60150000D01*
X111850000Y-60262500D01*
X111650000Y-60262500D01*
X111537500Y-60150000D01*
X110850000Y-60147823D01*
X110761785Y-60156511D01*
X110676959Y-60182243D01*
X110598784Y-60224029D01*
X110530263Y-60280263D01*
X110474029Y-60348784D01*
X110432243Y-60426959D01*
X110406511Y-60511785D01*
X110397823Y-60600000D01*
X108776345Y-60600000D01*
X108893263Y-60483082D01*
X109019116Y-60294729D01*
X109105806Y-60085443D01*
X109150000Y-59863265D01*
X109150000Y-59636735D01*
X109105806Y-59414557D01*
X109019116Y-59205271D01*
X109014207Y-59197925D01*
X109312132Y-58900000D01*
X118937868Y-58900000D01*
X120350000Y-60312132D01*
%TO.N,GND*%
G36*
X97050000Y-102436396D02*
G01*
X97050000Y-103931604D01*
X96979107Y-103798973D01*
X96732436Y-103658986D01*
X95641421Y-104750000D01*
X96732436Y-105841014D01*
X96979107Y-105701027D01*
X97050000Y-105562579D01*
X97050000Y-109500000D01*
X97052462Y-109525000D01*
X93697538Y-109525000D01*
X93700000Y-109500000D01*
X93700000Y-108617928D01*
X93756748Y-108674676D01*
X93837810Y-108593614D01*
X93989820Y-108850524D01*
X94313674Y-109017615D01*
X94663902Y-109118315D01*
X95027047Y-109148755D01*
X95389152Y-109107762D01*
X95736302Y-108996915D01*
X96010180Y-108850524D01*
X96162191Y-108593612D01*
X95000000Y-107431421D01*
X94985858Y-107445564D01*
X94844437Y-107304143D01*
X94858579Y-107290000D01*
X94844437Y-107275858D01*
X94985858Y-107134437D01*
X95000000Y-107148579D01*
X95014143Y-107134437D01*
X95155564Y-107275858D01*
X95141421Y-107290000D01*
X96303612Y-108452191D01*
X96560524Y-108300180D01*
X96727615Y-107976326D01*
X96828315Y-107626098D01*
X96858755Y-107262953D01*
X96817762Y-106900848D01*
X96706915Y-106553698D01*
X96560524Y-106279820D01*
X96457007Y-106218570D01*
X96591014Y-105982436D01*
X95500000Y-104891421D01*
X95485858Y-104905564D01*
X95344437Y-104764143D01*
X95358579Y-104750000D01*
X95344436Y-104735858D01*
X95485858Y-104594437D01*
X95500000Y-104608579D01*
X96591014Y-103517564D01*
X96457007Y-103281430D01*
X96560524Y-103220180D01*
X96727615Y-102896326D01*
X96828315Y-102546098D01*
X96853945Y-102240341D01*
X97050000Y-102436396D01*
G37*
X97050000Y-102436396D02*
X97050000Y-103931604D01*
X96979107Y-103798973D01*
X96732436Y-103658986D01*
X95641421Y-104750000D01*
X96732436Y-105841014D01*
X96979107Y-105701027D01*
X97050000Y-105562579D01*
X97050000Y-109500000D01*
X97052462Y-109525000D01*
X93697538Y-109525000D01*
X93700000Y-109500000D01*
X93700000Y-108617928D01*
X93756748Y-108674676D01*
X93837810Y-108593614D01*
X93989820Y-108850524D01*
X94313674Y-109017615D01*
X94663902Y-109118315D01*
X95027047Y-109148755D01*
X95389152Y-109107762D01*
X95736302Y-108996915D01*
X96010180Y-108850524D01*
X96162191Y-108593612D01*
X95000000Y-107431421D01*
X94985858Y-107445564D01*
X94844437Y-107304143D01*
X94858579Y-107290000D01*
X94844437Y-107275858D01*
X94985858Y-107134437D01*
X95000000Y-107148579D01*
X95014143Y-107134437D01*
X95155564Y-107275858D01*
X95141421Y-107290000D01*
X96303612Y-108452191D01*
X96560524Y-108300180D01*
X96727615Y-107976326D01*
X96828315Y-107626098D01*
X96858755Y-107262953D01*
X96817762Y-106900848D01*
X96706915Y-106553698D01*
X96560524Y-106279820D01*
X96457007Y-106218570D01*
X96591014Y-105982436D01*
X95500000Y-104891421D01*
X95485858Y-104905564D01*
X95344437Y-104764143D01*
X95358579Y-104750000D01*
X95344436Y-104735858D01*
X95485858Y-104594437D01*
X95500000Y-104608579D01*
X96591014Y-103517564D01*
X96457007Y-103281430D01*
X96560524Y-103220180D01*
X96727615Y-102896326D01*
X96828315Y-102546098D01*
X96853945Y-102240341D01*
X97050000Y-102436396D01*
G36*
X134600000Y-56501472D02*
G01*
X134195113Y-56096586D01*
X134176317Y-56073683D01*
X134084955Y-55998704D01*
X133980721Y-55942990D01*
X133867621Y-55908682D01*
X133779474Y-55900000D01*
X133750000Y-55897097D01*
X133720526Y-55900000D01*
X133232185Y-55900000D01*
X133143263Y-55766918D01*
X132983082Y-55606737D01*
X132794729Y-55480884D01*
X132585443Y-55394194D01*
X132363265Y-55350000D01*
X132136735Y-55350000D01*
X131914557Y-55394194D01*
X131705271Y-55480884D01*
X131516918Y-55606737D01*
X131356737Y-55766918D01*
X131321269Y-55820000D01*
X128262701Y-55820000D01*
X128246354Y-55780535D01*
X128098613Y-55559425D01*
X127910575Y-55371387D01*
X127689465Y-55223646D01*
X127443780Y-55121880D01*
X127182963Y-55070000D01*
X126917037Y-55070000D01*
X126656220Y-55121880D01*
X126410535Y-55223646D01*
X126189425Y-55371387D01*
X126001387Y-55559425D01*
X125853646Y-55780535D01*
X125751880Y-56026220D01*
X125700000Y-56287037D01*
X125700000Y-56552963D01*
X125751880Y-56813780D01*
X125853646Y-57059465D01*
X126001387Y-57280575D01*
X126189425Y-57468613D01*
X126410535Y-57616354D01*
X126656220Y-57718120D01*
X126917037Y-57770000D01*
X127182963Y-57770000D01*
X127443780Y-57718120D01*
X127689465Y-57616354D01*
X127910575Y-57468613D01*
X128098613Y-57280575D01*
X128246354Y-57059465D01*
X128262701Y-57020000D01*
X131220641Y-57020000D01*
X131230884Y-57044729D01*
X131356737Y-57233082D01*
X131516918Y-57393263D01*
X131705271Y-57519116D01*
X131914557Y-57605806D01*
X132136735Y-57650000D01*
X132363265Y-57650000D01*
X132585443Y-57605806D01*
X132794729Y-57519116D01*
X132983082Y-57393263D01*
X133143263Y-57233082D01*
X133232185Y-57100000D01*
X133501473Y-57100000D01*
X133650000Y-57248528D01*
X133650001Y-61751471D01*
X132096582Y-63304891D01*
X132073684Y-63323683D01*
X131998705Y-63415045D01*
X131988440Y-63434250D01*
X131942991Y-63519279D01*
X131908682Y-63632380D01*
X131897097Y-63750000D01*
X131900001Y-63779483D01*
X131900000Y-64767814D01*
X131766918Y-64856737D01*
X131606737Y-65016918D01*
X131480884Y-65205271D01*
X131394194Y-65414557D01*
X131350000Y-65636735D01*
X131350000Y-65863265D01*
X131381226Y-66020247D01*
X131346586Y-66054887D01*
X131323683Y-66073683D01*
X131248704Y-66165046D01*
X131192990Y-66269280D01*
X131171138Y-66341318D01*
X131158682Y-66382380D01*
X131147097Y-66500000D01*
X131150000Y-66529474D01*
X131150000Y-67567545D01*
X130953172Y-67699062D01*
X130779062Y-67873172D01*
X130647546Y-68070000D01*
X129602454Y-68070000D01*
X129470938Y-67873172D01*
X129296828Y-67699062D01*
X129092097Y-67562265D01*
X128864611Y-67468037D01*
X128623114Y-67420000D01*
X128376886Y-67420000D01*
X128135389Y-67468037D01*
X127907903Y-67562265D01*
X127703172Y-67699062D01*
X127529062Y-67873172D01*
X127392265Y-68077903D01*
X127298037Y-68305389D01*
X127250000Y-68546886D01*
X127250000Y-68793114D01*
X127298037Y-69034611D01*
X127392265Y-69262097D01*
X127529062Y-69466828D01*
X127703172Y-69640938D01*
X127907903Y-69777735D01*
X128135389Y-69871963D01*
X128376886Y-69920000D01*
X128623114Y-69920000D01*
X128864611Y-69871963D01*
X129092097Y-69777735D01*
X129296828Y-69640938D01*
X129470938Y-69466828D01*
X129602454Y-69270000D01*
X130647546Y-69270000D01*
X130779062Y-69466828D01*
X130953172Y-69640938D01*
X131157903Y-69777735D01*
X131385389Y-69871963D01*
X131626886Y-69920000D01*
X131873114Y-69920000D01*
X132114611Y-69871963D01*
X132342097Y-69777735D01*
X132546828Y-69640938D01*
X132720938Y-69466828D01*
X132857735Y-69262097D01*
X132951963Y-69034611D01*
X133000000Y-68793114D01*
X133000000Y-68546886D01*
X133750000Y-68546886D01*
X133750000Y-68793114D01*
X133798037Y-69034611D01*
X133892265Y-69262097D01*
X134029062Y-69466828D01*
X134203172Y-69640938D01*
X134407903Y-69777735D01*
X134635389Y-69871963D01*
X134876886Y-69920000D01*
X135123114Y-69920000D01*
X135364611Y-69871963D01*
X135592097Y-69777735D01*
X135796828Y-69640938D01*
X135970938Y-69466828D01*
X136107735Y-69262097D01*
X136201963Y-69034611D01*
X136250000Y-68793114D01*
X136250000Y-68546886D01*
X136201963Y-68305389D01*
X136107735Y-68077903D01*
X135970938Y-67873172D01*
X135796828Y-67699062D01*
X135600000Y-67567546D01*
X135600000Y-66732185D01*
X135733082Y-66643263D01*
X135893263Y-66483082D01*
X136019116Y-66294729D01*
X136105806Y-66085443D01*
X136150000Y-65863265D01*
X136150000Y-65636735D01*
X136105806Y-65414557D01*
X136019116Y-65205271D01*
X135893263Y-65016918D01*
X135733082Y-64856737D01*
X135544729Y-64730884D01*
X135335443Y-64644194D01*
X135113265Y-64600000D01*
X134886735Y-64600000D01*
X134664557Y-64644194D01*
X134455271Y-64730884D01*
X134266918Y-64856737D01*
X134106737Y-65016918D01*
X133980884Y-65205271D01*
X133894194Y-65414557D01*
X133850000Y-65636735D01*
X133850000Y-65863265D01*
X133894194Y-66085443D01*
X133980884Y-66294729D01*
X134106737Y-66483082D01*
X134266918Y-66643263D01*
X134400000Y-66732185D01*
X134400001Y-67567545D01*
X134203172Y-67699062D01*
X134029062Y-67873172D01*
X133892265Y-68077903D01*
X133798037Y-68305389D01*
X133750000Y-68546886D01*
X133000000Y-68546886D01*
X132951963Y-68305389D01*
X132857735Y-68077903D01*
X132720938Y-67873172D01*
X132546828Y-67699062D01*
X132350000Y-67567546D01*
X132350000Y-66892693D01*
X132386735Y-66900000D01*
X132613265Y-66900000D01*
X132835443Y-66855806D01*
X133044729Y-66769116D01*
X133233082Y-66643263D01*
X133393263Y-66483082D01*
X133519116Y-66294729D01*
X133605806Y-66085443D01*
X133650000Y-65863265D01*
X133650000Y-65636735D01*
X133605806Y-65414557D01*
X133519116Y-65205271D01*
X133393263Y-65016918D01*
X133233082Y-64856737D01*
X133100000Y-64767815D01*
X133100000Y-63998527D01*
X134600000Y-62498528D01*
X134600000Y-62500000D01*
X134602882Y-62529264D01*
X134611418Y-62557403D01*
X134625280Y-62583336D01*
X134643934Y-62606066D01*
X135143934Y-63106066D01*
X135166664Y-63124720D01*
X135192597Y-63138582D01*
X135220736Y-63147118D01*
X135250000Y-63150000D01*
X142025001Y-63150000D01*
X142025000Y-104041573D01*
X141818165Y-103732022D01*
X141267978Y-103181835D01*
X140621026Y-102749556D01*
X139902172Y-102451797D01*
X139139041Y-102300000D01*
X138360959Y-102300000D01*
X137597828Y-102451797D01*
X136878974Y-102749556D01*
X136232022Y-103181835D01*
X135681835Y-103732022D01*
X135249556Y-104378974D01*
X134951797Y-105097828D01*
X134800000Y-105860959D01*
X134800000Y-106639041D01*
X134951797Y-107402172D01*
X135249556Y-108121026D01*
X135681835Y-108767978D01*
X136232022Y-109318165D01*
X136541573Y-109525000D01*
X113697538Y-109525000D01*
X113700000Y-109500000D01*
X113700000Y-108593612D01*
X116837809Y-108593612D01*
X116989820Y-108850524D01*
X117313674Y-109017615D01*
X117663902Y-109118315D01*
X118027047Y-109148755D01*
X118389152Y-109107762D01*
X118736302Y-108996915D01*
X119010180Y-108850524D01*
X119162191Y-108593612D01*
X118000000Y-107431421D01*
X116837809Y-108593612D01*
X113700000Y-108593612D01*
X113700000Y-104780997D01*
X113991805Y-104780997D01*
X114031636Y-105123409D01*
X114137502Y-105451470D01*
X114270893Y-105701027D01*
X114517564Y-105841014D01*
X115608579Y-104750000D01*
X114517564Y-103658986D01*
X114270893Y-103798973D01*
X114113778Y-104105806D01*
X114019541Y-104437395D01*
X113991805Y-104780997D01*
X113700000Y-104780997D01*
X113700000Y-103517564D01*
X114658986Y-103517564D01*
X115750000Y-104608579D01*
X115764142Y-104594436D01*
X115905564Y-104735858D01*
X115891421Y-104750000D01*
X115905564Y-104764142D01*
X115764142Y-104905564D01*
X115750000Y-104891421D01*
X114658986Y-105982436D01*
X114798973Y-106229107D01*
X115105806Y-106386222D01*
X115437395Y-106480459D01*
X115780997Y-106508195D01*
X116123409Y-106468364D01*
X116385902Y-106383657D01*
X116272385Y-106603674D01*
X116171685Y-106953902D01*
X116141245Y-107317047D01*
X116182238Y-107679152D01*
X116293085Y-108026302D01*
X116439476Y-108300180D01*
X116696388Y-108452191D01*
X117858579Y-107290000D01*
X118141421Y-107290000D01*
X119303612Y-108452191D01*
X119560524Y-108300180D01*
X119727615Y-107976326D01*
X119828315Y-107626098D01*
X119858755Y-107262953D01*
X119817762Y-106900848D01*
X119706915Y-106553698D01*
X119560524Y-106279820D01*
X119303612Y-106127809D01*
X118141421Y-107290000D01*
X117858579Y-107290000D01*
X117844437Y-107275858D01*
X117985858Y-107134437D01*
X118000000Y-107148579D01*
X119162191Y-105986388D01*
X119010180Y-105729476D01*
X118686326Y-105562385D01*
X118336098Y-105461685D01*
X117972953Y-105431245D01*
X117610848Y-105472238D01*
X117294543Y-105573236D01*
X117386222Y-105394194D01*
X117480459Y-105062605D01*
X117508195Y-104719003D01*
X117468364Y-104376591D01*
X117362498Y-104048530D01*
X117299229Y-103930162D01*
X117313674Y-103937615D01*
X117663902Y-104038315D01*
X118027047Y-104068755D01*
X118389152Y-104027762D01*
X118736302Y-103916915D01*
X119010180Y-103770524D01*
X119162191Y-103513612D01*
X118000000Y-102351421D01*
X117985858Y-102365564D01*
X117844437Y-102224143D01*
X117858579Y-102210000D01*
X118141421Y-102210000D01*
X119303612Y-103372191D01*
X119560524Y-103220180D01*
X119727615Y-102896326D01*
X119828315Y-102546098D01*
X119858755Y-102182953D01*
X119817762Y-101820848D01*
X119706915Y-101473698D01*
X119560524Y-101199820D01*
X119303612Y-101047809D01*
X118141421Y-102210000D01*
X117858579Y-102210000D01*
X116696388Y-101047809D01*
X116439476Y-101199820D01*
X116272385Y-101523674D01*
X116171685Y-101873902D01*
X116141245Y-102237047D01*
X116182238Y-102599152D01*
X116293085Y-102946302D01*
X116380527Y-103109894D01*
X116062605Y-103019541D01*
X115719003Y-102991805D01*
X115376591Y-103031636D01*
X115048530Y-103137502D01*
X114798973Y-103270893D01*
X114658986Y-103517564D01*
X113700000Y-103517564D01*
X113700000Y-100906388D01*
X116837809Y-100906388D01*
X118000000Y-102068579D01*
X119162191Y-100906388D01*
X119010180Y-100649476D01*
X118686326Y-100482385D01*
X118336098Y-100381685D01*
X117972953Y-100351245D01*
X117610848Y-100392238D01*
X117263698Y-100503085D01*
X116989820Y-100649476D01*
X116837809Y-100906388D01*
X113700000Y-100906388D01*
X113700000Y-98186396D01*
X116568198Y-95318198D01*
X116624161Y-95250007D01*
X116665746Y-95172208D01*
X116691353Y-95087791D01*
X116700000Y-95000000D01*
X116700000Y-91750000D01*
X116691353Y-91662209D01*
X116665746Y-91577792D01*
X116624161Y-91499993D01*
X116568198Y-91431802D01*
X116263282Y-91126886D01*
X121250000Y-91126886D01*
X121250000Y-91373114D01*
X121298037Y-91614611D01*
X121392265Y-91842097D01*
X121529062Y-92046828D01*
X121703172Y-92220938D01*
X121907903Y-92357735D01*
X122135389Y-92451963D01*
X122376886Y-92500000D01*
X122623114Y-92500000D01*
X122864611Y-92451963D01*
X123092097Y-92357735D01*
X123296828Y-92220938D01*
X123470938Y-92046828D01*
X123602454Y-91850000D01*
X127001473Y-91850000D01*
X127150001Y-91998529D01*
X127150000Y-96001472D01*
X125246572Y-97904901D01*
X125223674Y-97923693D01*
X125148695Y-98015055D01*
X125134543Y-98041532D01*
X125092981Y-98119289D01*
X125058672Y-98232390D01*
X125047087Y-98350010D01*
X125049991Y-98379494D01*
X125049990Y-103101482D01*
X124759782Y-103391690D01*
X124672949Y-103355723D01*
X124392813Y-103300000D01*
X124107187Y-103300000D01*
X123827051Y-103355723D01*
X123563167Y-103465027D01*
X123325679Y-103623711D01*
X123123711Y-103825679D01*
X122965027Y-104063167D01*
X122855723Y-104327051D01*
X122800000Y-104607187D01*
X122800000Y-104892813D01*
X122855723Y-105172949D01*
X122965027Y-105436833D01*
X123123711Y-105674321D01*
X123325679Y-105876289D01*
X123563167Y-106034973D01*
X123827051Y-106144277D01*
X124107187Y-106200000D01*
X124392813Y-106200000D01*
X124672949Y-106144277D01*
X124936833Y-106034973D01*
X125174321Y-105876289D01*
X125376289Y-105674321D01*
X125534973Y-105436833D01*
X125644277Y-105172949D01*
X125700000Y-104892813D01*
X125700000Y-104607187D01*
X125644277Y-104327051D01*
X125608310Y-104240218D01*
X126000000Y-103848528D01*
X126391690Y-104240218D01*
X126355723Y-104327051D01*
X126300000Y-104607187D01*
X126300000Y-104892813D01*
X126355723Y-105172949D01*
X126465027Y-105436833D01*
X126623711Y-105674321D01*
X126825679Y-105876289D01*
X127063167Y-106034973D01*
X127327051Y-106144277D01*
X127607187Y-106200000D01*
X127892813Y-106200000D01*
X128172949Y-106144277D01*
X128436833Y-106034973D01*
X128674321Y-105876289D01*
X128781816Y-105768794D01*
X130372628Y-105768794D01*
X130476509Y-105984750D01*
X130732259Y-106111925D01*
X131007906Y-106186762D01*
X131292856Y-106206386D01*
X131576159Y-106170042D01*
X131846928Y-106079125D01*
X132023491Y-105984750D01*
X132127372Y-105768794D01*
X131250000Y-104891421D01*
X130372628Y-105768794D01*
X128781816Y-105768794D01*
X128876289Y-105674321D01*
X129034973Y-105436833D01*
X129144277Y-105172949D01*
X129200000Y-104892813D01*
X129200000Y-104792856D01*
X129793614Y-104792856D01*
X129829958Y-105076159D01*
X129920875Y-105346928D01*
X130015250Y-105523491D01*
X130231206Y-105627372D01*
X131108579Y-104750000D01*
X131391421Y-104750000D01*
X132268794Y-105627372D01*
X132484750Y-105523491D01*
X132611925Y-105267741D01*
X132686762Y-104992094D01*
X132706386Y-104707144D01*
X132670042Y-104423841D01*
X132579125Y-104153072D01*
X132484750Y-103976509D01*
X132268794Y-103872628D01*
X131391421Y-104750000D01*
X131108579Y-104750000D01*
X130231206Y-103872628D01*
X130015250Y-103976509D01*
X129888075Y-104232259D01*
X129813238Y-104507906D01*
X129793614Y-104792856D01*
X129200000Y-104792856D01*
X129200000Y-104607187D01*
X129144277Y-104327051D01*
X129034973Y-104063167D01*
X128876289Y-103825679D01*
X128781816Y-103731206D01*
X130372628Y-103731206D01*
X131250000Y-104608579D01*
X132127372Y-103731206D01*
X132023491Y-103515250D01*
X131767741Y-103388075D01*
X131492094Y-103313238D01*
X131207144Y-103293614D01*
X130923841Y-103329958D01*
X130653072Y-103420875D01*
X130476509Y-103515250D01*
X130372628Y-103731206D01*
X128781816Y-103731206D01*
X128674321Y-103623711D01*
X128436833Y-103465027D01*
X128172949Y-103355723D01*
X127892813Y-103300000D01*
X127607187Y-103300000D01*
X127327051Y-103355723D01*
X127240218Y-103391690D01*
X126850000Y-103001473D01*
X126850000Y-98847069D01*
X128753430Y-96943640D01*
X128776327Y-96924849D01*
X128851306Y-96833487D01*
X128907020Y-96729253D01*
X128923078Y-96676317D01*
X128941329Y-96616153D01*
X128952913Y-96498532D01*
X128950010Y-96469056D01*
X128950010Y-91898517D01*
X128998528Y-91850000D01*
X132147546Y-91850000D01*
X132279062Y-92046828D01*
X132453172Y-92220938D01*
X132657903Y-92357735D01*
X132885389Y-92451963D01*
X133126886Y-92500000D01*
X133373114Y-92500000D01*
X133614611Y-92451963D01*
X133842097Y-92357735D01*
X134046828Y-92220938D01*
X134220938Y-92046828D01*
X134357735Y-91842097D01*
X134451963Y-91614611D01*
X134500000Y-91373114D01*
X134500000Y-91126886D01*
X134451963Y-90885389D01*
X134357735Y-90657903D01*
X134220938Y-90453172D01*
X134046828Y-90279062D01*
X133842097Y-90142265D01*
X133614611Y-90048037D01*
X133373114Y-90000000D01*
X133126886Y-90000000D01*
X132885389Y-90048037D01*
X132657903Y-90142265D01*
X132453172Y-90279062D01*
X132279062Y-90453172D01*
X132147546Y-90650000D01*
X128779473Y-90650000D01*
X128749999Y-90647097D01*
X128632378Y-90658682D01*
X128598070Y-90669089D01*
X128519279Y-90692990D01*
X128415045Y-90748704D01*
X128323683Y-90823683D01*
X128304891Y-90846581D01*
X128000000Y-91151473D01*
X127695113Y-90846586D01*
X127676317Y-90823683D01*
X127584955Y-90748704D01*
X127480721Y-90692990D01*
X127367621Y-90658682D01*
X127279474Y-90650000D01*
X127250000Y-90647097D01*
X127220526Y-90650000D01*
X123602454Y-90650000D01*
X123470938Y-90453172D01*
X123296828Y-90279062D01*
X123092097Y-90142265D01*
X122864611Y-90048037D01*
X122623114Y-90000000D01*
X122376886Y-90000000D01*
X122135389Y-90048037D01*
X121907903Y-90142265D01*
X121703172Y-90279062D01*
X121529062Y-90453172D01*
X121392265Y-90657903D01*
X121298037Y-90885389D01*
X121250000Y-91126886D01*
X116263282Y-91126886D01*
X114318198Y-89181802D01*
X114250007Y-89125839D01*
X114172208Y-89084254D01*
X114087791Y-89058647D01*
X114000000Y-89050000D01*
X100836396Y-89050000D01*
X103759510Y-86126886D01*
X121250000Y-86126886D01*
X121250000Y-86373114D01*
X121298037Y-86614611D01*
X121392265Y-86842097D01*
X121529062Y-87046828D01*
X121703172Y-87220938D01*
X121907903Y-87357735D01*
X122135389Y-87451963D01*
X122376886Y-87500000D01*
X122623114Y-87500000D01*
X122864611Y-87451963D01*
X123092097Y-87357735D01*
X123296828Y-87220938D01*
X123470938Y-87046828D01*
X123602454Y-86850000D01*
X127220526Y-86850000D01*
X127250000Y-86852903D01*
X127279474Y-86850000D01*
X127367621Y-86841318D01*
X127480721Y-86807010D01*
X127584955Y-86751296D01*
X127676317Y-86676317D01*
X127695113Y-86653414D01*
X128000000Y-86348528D01*
X128304891Y-86653419D01*
X128323683Y-86676317D01*
X128415045Y-86751296D01*
X128482971Y-86787603D01*
X128519278Y-86807010D01*
X128632379Y-86841318D01*
X128750000Y-86852903D01*
X128779474Y-86850000D01*
X132147546Y-86850000D01*
X132279062Y-87046828D01*
X132453172Y-87220938D01*
X132657903Y-87357735D01*
X132885389Y-87451963D01*
X133126886Y-87500000D01*
X133373114Y-87500000D01*
X133614611Y-87451963D01*
X133842097Y-87357735D01*
X134046828Y-87220938D01*
X134220938Y-87046828D01*
X134357735Y-86842097D01*
X134451963Y-86614611D01*
X134500000Y-86373114D01*
X134500000Y-86126886D01*
X134451963Y-85885389D01*
X134357735Y-85657903D01*
X134220938Y-85453172D01*
X134046828Y-85279062D01*
X133842097Y-85142265D01*
X133614611Y-85048037D01*
X133373114Y-85000000D01*
X133126886Y-85000000D01*
X132885389Y-85048037D01*
X132657903Y-85142265D01*
X132453172Y-85279062D01*
X132279062Y-85453172D01*
X132147546Y-85650000D01*
X128998528Y-85650000D01*
X128850000Y-85501473D01*
X128850000Y-82779474D01*
X128852903Y-82750000D01*
X128841318Y-82632379D01*
X128823513Y-82573683D01*
X128807010Y-82519279D01*
X128751296Y-82415045D01*
X128676317Y-82323683D01*
X128653419Y-82304891D01*
X127600000Y-81251473D01*
X127600000Y-80578527D01*
X128144711Y-80033817D01*
X128376886Y-80080000D01*
X128623114Y-80080000D01*
X128864611Y-80031963D01*
X129092097Y-79937735D01*
X129296828Y-79800938D01*
X129391543Y-79706223D01*
X131015198Y-79706223D01*
X131094958Y-79901717D01*
X131316626Y-80008917D01*
X131554948Y-80070812D01*
X131800766Y-80085023D01*
X132044633Y-80051004D01*
X132277178Y-79970063D01*
X132405042Y-79901717D01*
X132484802Y-79706223D01*
X134265198Y-79706223D01*
X134344958Y-79901717D01*
X134566626Y-80008917D01*
X134804948Y-80070812D01*
X135050766Y-80085023D01*
X135294633Y-80051004D01*
X135527178Y-79970063D01*
X135655042Y-79901717D01*
X135734802Y-79706223D01*
X135000000Y-78971421D01*
X134265198Y-79706223D01*
X132484802Y-79706223D01*
X131750000Y-78971421D01*
X131015198Y-79706223D01*
X129391543Y-79706223D01*
X129470938Y-79626828D01*
X129607735Y-79422097D01*
X129701963Y-79194611D01*
X129750000Y-78953114D01*
X129750000Y-78880766D01*
X130494977Y-78880766D01*
X130528996Y-79124633D01*
X130609937Y-79357178D01*
X130678283Y-79485042D01*
X130873777Y-79564802D01*
X131608579Y-78830000D01*
X131891421Y-78830000D01*
X132626223Y-79564802D01*
X132821717Y-79485042D01*
X132928917Y-79263374D01*
X132990812Y-79025052D01*
X132999153Y-78880766D01*
X133744977Y-78880766D01*
X133778996Y-79124633D01*
X133859937Y-79357178D01*
X133928283Y-79485042D01*
X134123777Y-79564802D01*
X134858579Y-78830000D01*
X135141421Y-78830000D01*
X135876223Y-79564802D01*
X136071717Y-79485042D01*
X136178917Y-79263374D01*
X136240812Y-79025052D01*
X136255023Y-78779234D01*
X136221004Y-78535367D01*
X136140063Y-78302822D01*
X136071717Y-78174958D01*
X135876223Y-78095198D01*
X135141421Y-78830000D01*
X134858579Y-78830000D01*
X134123777Y-78095198D01*
X133928283Y-78174958D01*
X133821083Y-78396626D01*
X133759188Y-78634948D01*
X133744977Y-78880766D01*
X132999153Y-78880766D01*
X133005023Y-78779234D01*
X132971004Y-78535367D01*
X132890063Y-78302822D01*
X132821717Y-78174958D01*
X132626223Y-78095198D01*
X131891421Y-78830000D01*
X131608579Y-78830000D01*
X130873777Y-78095198D01*
X130678283Y-78174958D01*
X130571083Y-78396626D01*
X130509188Y-78634948D01*
X130494977Y-78880766D01*
X129750000Y-78880766D01*
X129750000Y-78706886D01*
X129701963Y-78465389D01*
X129607735Y-78237903D01*
X129470938Y-78033172D01*
X129391543Y-77953777D01*
X131015198Y-77953777D01*
X131750000Y-78688579D01*
X132484802Y-77953777D01*
X134265198Y-77953777D01*
X135000000Y-78688579D01*
X135734802Y-77953777D01*
X135655042Y-77758283D01*
X135433374Y-77651083D01*
X135195052Y-77589188D01*
X134949234Y-77574977D01*
X134705367Y-77608996D01*
X134472822Y-77689937D01*
X134344958Y-77758283D01*
X134265198Y-77953777D01*
X132484802Y-77953777D01*
X132405042Y-77758283D01*
X132183374Y-77651083D01*
X131945052Y-77589188D01*
X131699234Y-77574977D01*
X131455367Y-77608996D01*
X131222822Y-77689937D01*
X131094958Y-77758283D01*
X131015198Y-77953777D01*
X129391543Y-77953777D01*
X129296828Y-77859062D01*
X129092097Y-77722265D01*
X128864611Y-77628037D01*
X128623114Y-77580000D01*
X128376886Y-77580000D01*
X128135389Y-77628037D01*
X127907903Y-77722265D01*
X127703172Y-77859062D01*
X127529062Y-78033172D01*
X127392265Y-78237903D01*
X127298037Y-78465389D01*
X127250000Y-78706886D01*
X127250000Y-78953114D01*
X127296183Y-79185289D01*
X126872055Y-79609417D01*
X126826307Y-79553673D01*
X126803415Y-79534886D01*
X126453817Y-79185289D01*
X126500000Y-78953114D01*
X126500000Y-78706886D01*
X126451963Y-78465389D01*
X126357735Y-78237903D01*
X126220938Y-78033172D01*
X126046828Y-77859062D01*
X125842097Y-77722265D01*
X125614611Y-77628037D01*
X125373114Y-77580000D01*
X125126886Y-77580000D01*
X124885389Y-77628037D01*
X124657903Y-77722265D01*
X124453172Y-77859062D01*
X124279062Y-78033172D01*
X124142265Y-78237903D01*
X124048037Y-78465389D01*
X124000000Y-78706886D01*
X124000000Y-78953114D01*
X124048037Y-79194611D01*
X124142265Y-79422097D01*
X124279062Y-79626828D01*
X124453172Y-79800938D01*
X124657903Y-79937735D01*
X124885389Y-80031963D01*
X125126886Y-80080000D01*
X125373114Y-80080000D01*
X125605289Y-80033817D01*
X125799991Y-80228520D01*
X125799990Y-81719058D01*
X125797087Y-81748532D01*
X125799990Y-81778005D01*
X125808672Y-81866152D01*
X125842980Y-81979252D01*
X125898694Y-82083486D01*
X125973673Y-82174849D01*
X125996576Y-82193645D01*
X127049991Y-83247061D01*
X127049990Y-85601482D01*
X127001473Y-85650000D01*
X123602454Y-85650000D01*
X123470938Y-85453172D01*
X123296828Y-85279062D01*
X123092097Y-85142265D01*
X122864611Y-85048037D01*
X122623114Y-85000000D01*
X122376886Y-85000000D01*
X122135389Y-85048037D01*
X121907903Y-85142265D01*
X121703172Y-85279062D01*
X121529062Y-85453172D01*
X121392265Y-85657903D01*
X121298037Y-85885389D01*
X121250000Y-86126886D01*
X103759510Y-86126886D01*
X105318198Y-84568198D01*
X105374161Y-84500007D01*
X105415746Y-84422208D01*
X105441353Y-84337791D01*
X105450000Y-84250000D01*
X105450000Y-80336396D01*
X106931802Y-81818198D01*
X106999993Y-81874161D01*
X107077792Y-81915746D01*
X107162209Y-81941353D01*
X107250000Y-81950000D01*
X107960001Y-81950000D01*
X107960001Y-82030517D01*
X107957097Y-82060000D01*
X107968682Y-82177620D01*
X107990245Y-82248704D01*
X108002991Y-82290721D01*
X108058705Y-82394955D01*
X108133684Y-82486317D01*
X108156581Y-82505108D01*
X109054891Y-83403419D01*
X109073683Y-83426317D01*
X109165045Y-83501296D01*
X109266531Y-83555541D01*
X109269279Y-83557010D01*
X109382379Y-83591318D01*
X109500000Y-83602903D01*
X109529474Y-83600000D01*
X116720526Y-83600000D01*
X116750000Y-83602903D01*
X116779474Y-83600000D01*
X116867621Y-83591318D01*
X116980721Y-83557010D01*
X117084955Y-83501296D01*
X117176317Y-83426317D01*
X117195113Y-83403414D01*
X119153420Y-81445108D01*
X119176317Y-81426317D01*
X119251296Y-81334955D01*
X119307010Y-81230721D01*
X119341318Y-81117621D01*
X119350000Y-81029474D01*
X119350000Y-81029473D01*
X119352903Y-81000001D01*
X119350000Y-80970527D01*
X119350000Y-79932454D01*
X119546828Y-79800938D01*
X119720938Y-79626828D01*
X119852454Y-79430000D01*
X120897546Y-79430000D01*
X121029062Y-79626828D01*
X121203172Y-79800938D01*
X121407903Y-79937735D01*
X121635389Y-80031963D01*
X121876886Y-80080000D01*
X122123114Y-80080000D01*
X122364611Y-80031963D01*
X122592097Y-79937735D01*
X122796828Y-79800938D01*
X122970938Y-79626828D01*
X123107735Y-79422097D01*
X123201963Y-79194611D01*
X123250000Y-78953114D01*
X123250000Y-78706886D01*
X123201963Y-78465389D01*
X123107735Y-78237903D01*
X122970938Y-78033172D01*
X122796828Y-77859062D01*
X122592097Y-77722265D01*
X122364611Y-77628037D01*
X122123114Y-77580000D01*
X121876886Y-77580000D01*
X121635389Y-77628037D01*
X121407903Y-77722265D01*
X121203172Y-77859062D01*
X121029062Y-78033172D01*
X120897546Y-78230000D01*
X119852454Y-78230000D01*
X119720938Y-78033172D01*
X119546828Y-77859062D01*
X119342097Y-77722265D01*
X119114611Y-77628037D01*
X118873114Y-77580000D01*
X118626886Y-77580000D01*
X118385389Y-77628037D01*
X118157903Y-77722265D01*
X117953172Y-77859062D01*
X117779062Y-78033172D01*
X117642265Y-78237903D01*
X117548037Y-78465389D01*
X117500000Y-78706886D01*
X117500000Y-78953114D01*
X117548037Y-79194611D01*
X117642265Y-79422097D01*
X117779062Y-79626828D01*
X117953172Y-79800938D01*
X118150000Y-79932455D01*
X118150000Y-80751472D01*
X116501473Y-82400000D01*
X109748528Y-82400000D01*
X109298527Y-81950000D01*
X114000000Y-81950000D01*
X114087791Y-81941353D01*
X114172208Y-81915746D01*
X114250007Y-81874161D01*
X114318198Y-81818198D01*
X116568198Y-79568198D01*
X116624161Y-79500007D01*
X116665746Y-79422208D01*
X116691353Y-79337791D01*
X116700000Y-79250000D01*
X116700000Y-74510172D01*
X116789448Y-74376303D01*
X116928905Y-74039625D01*
X117000000Y-73682209D01*
X117000000Y-73317791D01*
X116928905Y-72960375D01*
X116789448Y-72623697D01*
X116700000Y-72489828D01*
X116700000Y-70796655D01*
X116704595Y-70750001D01*
X116700000Y-70703346D01*
X116700000Y-69567766D01*
X116720938Y-69546828D01*
X116857735Y-69342097D01*
X116951963Y-69114611D01*
X117000000Y-68873114D01*
X117000000Y-68626886D01*
X116984087Y-68546886D01*
X117500000Y-68546886D01*
X117500000Y-68793114D01*
X117548037Y-69034611D01*
X117642265Y-69262097D01*
X117779062Y-69466828D01*
X117953172Y-69640938D01*
X118157903Y-69777735D01*
X118385389Y-69871963D01*
X118626886Y-69920000D01*
X118873114Y-69920000D01*
X119114611Y-69871963D01*
X119342097Y-69777735D01*
X119546828Y-69640938D01*
X119720938Y-69466828D01*
X119857735Y-69262097D01*
X119951963Y-69034611D01*
X120000000Y-68793114D01*
X120000000Y-68546886D01*
X120750000Y-68546886D01*
X120750000Y-68793114D01*
X120798037Y-69034611D01*
X120892265Y-69262097D01*
X121029062Y-69466828D01*
X121203172Y-69640938D01*
X121407903Y-69777735D01*
X121635389Y-69871963D01*
X121876886Y-69920000D01*
X122123114Y-69920000D01*
X122364611Y-69871963D01*
X122592097Y-69777735D01*
X122796828Y-69640938D01*
X122970938Y-69466828D01*
X123102454Y-69270000D01*
X124147546Y-69270000D01*
X124279062Y-69466828D01*
X124453172Y-69640938D01*
X124657903Y-69777735D01*
X124885389Y-69871963D01*
X125126886Y-69920000D01*
X125373114Y-69920000D01*
X125614611Y-69871963D01*
X125842097Y-69777735D01*
X126046828Y-69640938D01*
X126220938Y-69466828D01*
X126357735Y-69262097D01*
X126451963Y-69034611D01*
X126500000Y-68793114D01*
X126500000Y-68546886D01*
X126451963Y-68305389D01*
X126357735Y-68077903D01*
X126220938Y-67873172D01*
X126046828Y-67699062D01*
X125842097Y-67562265D01*
X125614611Y-67468037D01*
X125373114Y-67420000D01*
X125126886Y-67420000D01*
X124885389Y-67468037D01*
X124657903Y-67562265D01*
X124453172Y-67699062D01*
X124279062Y-67873172D01*
X124147546Y-68070000D01*
X123102454Y-68070000D01*
X122970938Y-67873172D01*
X122796828Y-67699062D01*
X122600000Y-67567546D01*
X122600000Y-66732185D01*
X122733082Y-66643263D01*
X122893263Y-66483082D01*
X123019116Y-66294729D01*
X123105806Y-66085443D01*
X123150000Y-65863265D01*
X123150000Y-65636735D01*
X123118774Y-65479753D01*
X124003420Y-64595108D01*
X124026317Y-64576317D01*
X124101296Y-64484955D01*
X124157010Y-64380721D01*
X124191318Y-64267621D01*
X124200000Y-64179474D01*
X124200000Y-64179473D01*
X124202903Y-64150000D01*
X124200000Y-64120526D01*
X124200000Y-63498527D01*
X124916755Y-62781773D01*
X124956220Y-62798120D01*
X125217037Y-62850000D01*
X125482963Y-62850000D01*
X125743780Y-62798120D01*
X125989465Y-62696354D01*
X126210575Y-62548613D01*
X126398613Y-62360575D01*
X126546354Y-62139465D01*
X126648120Y-61893780D01*
X126700000Y-61632963D01*
X126700000Y-61367037D01*
X127400000Y-61367037D01*
X127400000Y-61632963D01*
X127451880Y-61893780D01*
X127553646Y-62139465D01*
X127701387Y-62360575D01*
X127889425Y-62548613D01*
X128110535Y-62696354D01*
X128356220Y-62798120D01*
X128617037Y-62850000D01*
X128882963Y-62850000D01*
X129143780Y-62798120D01*
X129389465Y-62696354D01*
X129610575Y-62548613D01*
X129798613Y-62360575D01*
X129946354Y-62139465D01*
X130048120Y-61893780D01*
X130100000Y-61632963D01*
X130100000Y-61367037D01*
X130048120Y-61106220D01*
X129946354Y-60860535D01*
X129798613Y-60639425D01*
X129610575Y-60451387D01*
X129389465Y-60303646D01*
X129143780Y-60201880D01*
X128882963Y-60150000D01*
X128617037Y-60150000D01*
X128356220Y-60201880D01*
X128110535Y-60303646D01*
X127889425Y-60451387D01*
X127701387Y-60639425D01*
X127553646Y-60860535D01*
X127451880Y-61106220D01*
X127400000Y-61367037D01*
X126700000Y-61367037D01*
X126648120Y-61106220D01*
X126631773Y-61066754D01*
X128098528Y-59600000D01*
X131267815Y-59600000D01*
X131356737Y-59733082D01*
X131516918Y-59893263D01*
X131705271Y-60019116D01*
X131914557Y-60105806D01*
X132136735Y-60150000D01*
X132363265Y-60150000D01*
X132585443Y-60105806D01*
X132794729Y-60019116D01*
X132983082Y-59893263D01*
X133143263Y-59733082D01*
X133269116Y-59544729D01*
X133355806Y-59335443D01*
X133400000Y-59113265D01*
X133400000Y-58886735D01*
X133355806Y-58664557D01*
X133269116Y-58455271D01*
X133143263Y-58266918D01*
X132983082Y-58106737D01*
X132794729Y-57980884D01*
X132585443Y-57894194D01*
X132363265Y-57850000D01*
X132136735Y-57850000D01*
X131914557Y-57894194D01*
X131705271Y-57980884D01*
X131516918Y-58106737D01*
X131356737Y-58266918D01*
X131267815Y-58400000D01*
X127879474Y-58400000D01*
X127850000Y-58397097D01*
X127820526Y-58400000D01*
X127732379Y-58408682D01*
X127619279Y-58442990D01*
X127515045Y-58498704D01*
X127423683Y-58573683D01*
X127404891Y-58596581D01*
X125783246Y-60218227D01*
X125743780Y-60201880D01*
X125482963Y-60150000D01*
X125217037Y-60150000D01*
X124956220Y-60201880D01*
X124710535Y-60303646D01*
X124489425Y-60451387D01*
X124301387Y-60639425D01*
X124153646Y-60860535D01*
X124051880Y-61106220D01*
X124000000Y-61367037D01*
X124000000Y-61632963D01*
X124051880Y-61893780D01*
X124068227Y-61933245D01*
X123196582Y-62804891D01*
X123173684Y-62823683D01*
X123098705Y-62915045D01*
X123053296Y-63000000D01*
X123042991Y-63019279D01*
X123008682Y-63132380D01*
X122997097Y-63250000D01*
X123000000Y-63279474D01*
X123000000Y-63901472D01*
X122270247Y-64631226D01*
X122113265Y-64600000D01*
X121886735Y-64600000D01*
X121664557Y-64644194D01*
X121455271Y-64730884D01*
X121266918Y-64856737D01*
X121106737Y-65016918D01*
X120980884Y-65205271D01*
X120894194Y-65414557D01*
X120850000Y-65636735D01*
X120850000Y-65863265D01*
X120894194Y-66085443D01*
X120980884Y-66294729D01*
X121106737Y-66483082D01*
X121266918Y-66643263D01*
X121400000Y-66732185D01*
X121400001Y-67567545D01*
X121203172Y-67699062D01*
X121029062Y-67873172D01*
X120892265Y-68077903D01*
X120798037Y-68305389D01*
X120750000Y-68546886D01*
X120000000Y-68546886D01*
X119951963Y-68305389D01*
X119857735Y-68077903D01*
X119720938Y-67873172D01*
X119546828Y-67699062D01*
X119350000Y-67567546D01*
X119350000Y-66892693D01*
X119386735Y-66900000D01*
X119613265Y-66900000D01*
X119835443Y-66855806D01*
X120044729Y-66769116D01*
X120233082Y-66643263D01*
X120393263Y-66483082D01*
X120519116Y-66294729D01*
X120605806Y-66085443D01*
X120650000Y-65863265D01*
X120650000Y-65636735D01*
X120605806Y-65414557D01*
X120519116Y-65205271D01*
X120393263Y-65016918D01*
X120233082Y-64856737D01*
X120044729Y-64730884D01*
X119835443Y-64644194D01*
X119613265Y-64600000D01*
X119386735Y-64600000D01*
X119164557Y-64644194D01*
X118955271Y-64730884D01*
X118766918Y-64856737D01*
X118606737Y-65016918D01*
X118480884Y-65205271D01*
X118394194Y-65414557D01*
X118350000Y-65636735D01*
X118350000Y-65863265D01*
X118381226Y-66020247D01*
X118346581Y-66054892D01*
X118323684Y-66073683D01*
X118248705Y-66165045D01*
X118242681Y-66176316D01*
X118192991Y-66269279D01*
X118158682Y-66382380D01*
X118147097Y-66500000D01*
X118150001Y-66529483D01*
X118150001Y-67567545D01*
X117953172Y-67699062D01*
X117779062Y-67873172D01*
X117642265Y-68077903D01*
X117548037Y-68305389D01*
X117500000Y-68546886D01*
X116984087Y-68546886D01*
X116951963Y-68385389D01*
X116857735Y-68157903D01*
X116720938Y-67953172D01*
X116700000Y-67932234D01*
X116700000Y-67436396D01*
X117818198Y-66318198D01*
X117874161Y-66250007D01*
X117915746Y-66172208D01*
X117941353Y-66087791D01*
X117950000Y-66000000D01*
X117950000Y-63700000D01*
X119500000Y-63700000D01*
X119587791Y-63691353D01*
X119672208Y-63665746D01*
X119750007Y-63624161D01*
X119818198Y-63568198D01*
X120818198Y-62568198D01*
X120874161Y-62500007D01*
X120915746Y-62422208D01*
X120929412Y-62377156D01*
X120962702Y-62420734D01*
X121161299Y-62595655D01*
X121390205Y-62728470D01*
X121640624Y-62814076D01*
X121850000Y-62733795D01*
X121850000Y-61600000D01*
X122050000Y-61600000D01*
X122050000Y-62733795D01*
X122259376Y-62814076D01*
X122509795Y-62728470D01*
X122738701Y-62595655D01*
X122937298Y-62420734D01*
X123097954Y-62210430D01*
X123214494Y-61972825D01*
X123264072Y-61809375D01*
X123183453Y-61600000D01*
X122050000Y-61600000D01*
X121850000Y-61600000D01*
X121830000Y-61600000D01*
X121830000Y-61400000D01*
X121850000Y-61400000D01*
X121850000Y-60266205D01*
X122050000Y-60266205D01*
X122050000Y-61400000D01*
X123183453Y-61400000D01*
X123264072Y-61190625D01*
X123214494Y-61027175D01*
X123097954Y-60789570D01*
X122937298Y-60579266D01*
X122738701Y-60404345D01*
X122509795Y-60271530D01*
X122259376Y-60185924D01*
X122050000Y-60266205D01*
X121850000Y-60266205D01*
X121640624Y-60185924D01*
X121390205Y-60271530D01*
X121161299Y-60404345D01*
X120962702Y-60579266D01*
X120950000Y-60595893D01*
X120950000Y-60250000D01*
X120941353Y-60162209D01*
X120915746Y-60077792D01*
X120874161Y-59999993D01*
X120818198Y-59931802D01*
X119318198Y-58431802D01*
X119250007Y-58375839D01*
X119172208Y-58334254D01*
X119087791Y-58308647D01*
X119000000Y-58300000D01*
X118336396Y-58300000D01*
X119068198Y-57568198D01*
X119124161Y-57500007D01*
X119165746Y-57422208D01*
X119191353Y-57337791D01*
X119197554Y-57274838D01*
X119201387Y-57280575D01*
X119389425Y-57468613D01*
X119610535Y-57616354D01*
X119856220Y-57718120D01*
X120117037Y-57770000D01*
X120382963Y-57770000D01*
X120643780Y-57718120D01*
X120889465Y-57616354D01*
X121110575Y-57468613D01*
X121298613Y-57280575D01*
X121446354Y-57059465D01*
X121548120Y-56813780D01*
X121600000Y-56552963D01*
X121600000Y-56287037D01*
X122300000Y-56287037D01*
X122300000Y-56552963D01*
X122351880Y-56813780D01*
X122453646Y-57059465D01*
X122601387Y-57280575D01*
X122789425Y-57468613D01*
X123010535Y-57616354D01*
X123256220Y-57718120D01*
X123517037Y-57770000D01*
X123782963Y-57770000D01*
X124043780Y-57718120D01*
X124289465Y-57616354D01*
X124510575Y-57468613D01*
X124698613Y-57280575D01*
X124846354Y-57059465D01*
X124948120Y-56813780D01*
X125000000Y-56552963D01*
X125000000Y-56287037D01*
X124948120Y-56026220D01*
X124846354Y-55780535D01*
X124698613Y-55559425D01*
X124510575Y-55371387D01*
X124289465Y-55223646D01*
X124043780Y-55121880D01*
X123782963Y-55070000D01*
X123517037Y-55070000D01*
X123256220Y-55121880D01*
X123010535Y-55223646D01*
X122789425Y-55371387D01*
X122601387Y-55559425D01*
X122453646Y-55780535D01*
X122351880Y-56026220D01*
X122300000Y-56287037D01*
X121600000Y-56287037D01*
X121548120Y-56026220D01*
X121446354Y-55780535D01*
X121298613Y-55559425D01*
X121110575Y-55371387D01*
X120889465Y-55223646D01*
X120643780Y-55121880D01*
X120382963Y-55070000D01*
X120117037Y-55070000D01*
X119856220Y-55121880D01*
X119610535Y-55223646D01*
X119389425Y-55371387D01*
X119201387Y-55559425D01*
X119200000Y-55561501D01*
X119200000Y-54000000D01*
X119191353Y-53912209D01*
X119165746Y-53827792D01*
X119124161Y-53749993D01*
X119068198Y-53681802D01*
X118361396Y-52975000D01*
X134600000Y-52975000D01*
X134600000Y-56501472D01*
G37*
X134600000Y-56501472D02*
X134195113Y-56096586D01*
X134176317Y-56073683D01*
X134084955Y-55998704D01*
X133980721Y-55942990D01*
X133867621Y-55908682D01*
X133779474Y-55900000D01*
X133750000Y-55897097D01*
X133720526Y-55900000D01*
X133232185Y-55900000D01*
X133143263Y-55766918D01*
X132983082Y-55606737D01*
X132794729Y-55480884D01*
X132585443Y-55394194D01*
X132363265Y-55350000D01*
X132136735Y-55350000D01*
X131914557Y-55394194D01*
X131705271Y-55480884D01*
X131516918Y-55606737D01*
X131356737Y-55766918D01*
X131321269Y-55820000D01*
X128262701Y-55820000D01*
X128246354Y-55780535D01*
X128098613Y-55559425D01*
X127910575Y-55371387D01*
X127689465Y-55223646D01*
X127443780Y-55121880D01*
X127182963Y-55070000D01*
X126917037Y-55070000D01*
X126656220Y-55121880D01*
X126410535Y-55223646D01*
X126189425Y-55371387D01*
X126001387Y-55559425D01*
X125853646Y-55780535D01*
X125751880Y-56026220D01*
X125700000Y-56287037D01*
X125700000Y-56552963D01*
X125751880Y-56813780D01*
X125853646Y-57059465D01*
X126001387Y-57280575D01*
X126189425Y-57468613D01*
X126410535Y-57616354D01*
X126656220Y-57718120D01*
X126917037Y-57770000D01*
X127182963Y-57770000D01*
X127443780Y-57718120D01*
X127689465Y-57616354D01*
X127910575Y-57468613D01*
X128098613Y-57280575D01*
X128246354Y-57059465D01*
X128262701Y-57020000D01*
X131220641Y-57020000D01*
X131230884Y-57044729D01*
X131356737Y-57233082D01*
X131516918Y-57393263D01*
X131705271Y-57519116D01*
X131914557Y-57605806D01*
X132136735Y-57650000D01*
X132363265Y-57650000D01*
X132585443Y-57605806D01*
X132794729Y-57519116D01*
X132983082Y-57393263D01*
X133143263Y-57233082D01*
X133232185Y-57100000D01*
X133501473Y-57100000D01*
X133650000Y-57248528D01*
X133650001Y-61751471D01*
X132096582Y-63304891D01*
X132073684Y-63323683D01*
X131998705Y-63415045D01*
X131988440Y-63434250D01*
X131942991Y-63519279D01*
X131908682Y-63632380D01*
X131897097Y-63750000D01*
X131900001Y-63779483D01*
X131900000Y-64767814D01*
X131766918Y-64856737D01*
X131606737Y-65016918D01*
X131480884Y-65205271D01*
X131394194Y-65414557D01*
X131350000Y-65636735D01*
X131350000Y-65863265D01*
X131381226Y-66020247D01*
X131346586Y-66054887D01*
X131323683Y-66073683D01*
X131248704Y-66165046D01*
X131192990Y-66269280D01*
X131171138Y-66341318D01*
X131158682Y-66382380D01*
X131147097Y-66500000D01*
X131150000Y-66529474D01*
X131150000Y-67567545D01*
X130953172Y-67699062D01*
X130779062Y-67873172D01*
X130647546Y-68070000D01*
X129602454Y-68070000D01*
X129470938Y-67873172D01*
X129296828Y-67699062D01*
X129092097Y-67562265D01*
X128864611Y-67468037D01*
X128623114Y-67420000D01*
X128376886Y-67420000D01*
X128135389Y-67468037D01*
X127907903Y-67562265D01*
X127703172Y-67699062D01*
X127529062Y-67873172D01*
X127392265Y-68077903D01*
X127298037Y-68305389D01*
X127250000Y-68546886D01*
X127250000Y-68793114D01*
X127298037Y-69034611D01*
X127392265Y-69262097D01*
X127529062Y-69466828D01*
X127703172Y-69640938D01*
X127907903Y-69777735D01*
X128135389Y-69871963D01*
X128376886Y-69920000D01*
X128623114Y-69920000D01*
X128864611Y-69871963D01*
X129092097Y-69777735D01*
X129296828Y-69640938D01*
X129470938Y-69466828D01*
X129602454Y-69270000D01*
X130647546Y-69270000D01*
X130779062Y-69466828D01*
X130953172Y-69640938D01*
X131157903Y-69777735D01*
X131385389Y-69871963D01*
X131626886Y-69920000D01*
X131873114Y-69920000D01*
X132114611Y-69871963D01*
X132342097Y-69777735D01*
X132546828Y-69640938D01*
X132720938Y-69466828D01*
X132857735Y-69262097D01*
X132951963Y-69034611D01*
X133000000Y-68793114D01*
X133000000Y-68546886D01*
X133750000Y-68546886D01*
X133750000Y-68793114D01*
X133798037Y-69034611D01*
X133892265Y-69262097D01*
X134029062Y-69466828D01*
X134203172Y-69640938D01*
X134407903Y-69777735D01*
X134635389Y-69871963D01*
X134876886Y-69920000D01*
X135123114Y-69920000D01*
X135364611Y-69871963D01*
X135592097Y-69777735D01*
X135796828Y-69640938D01*
X135970938Y-69466828D01*
X136107735Y-69262097D01*
X136201963Y-69034611D01*
X136250000Y-68793114D01*
X136250000Y-68546886D01*
X136201963Y-68305389D01*
X136107735Y-68077903D01*
X135970938Y-67873172D01*
X135796828Y-67699062D01*
X135600000Y-67567546D01*
X135600000Y-66732185D01*
X135733082Y-66643263D01*
X135893263Y-66483082D01*
X136019116Y-66294729D01*
X136105806Y-66085443D01*
X136150000Y-65863265D01*
X136150000Y-65636735D01*
X136105806Y-65414557D01*
X136019116Y-65205271D01*
X135893263Y-65016918D01*
X135733082Y-64856737D01*
X135544729Y-64730884D01*
X135335443Y-64644194D01*
X135113265Y-64600000D01*
X134886735Y-64600000D01*
X134664557Y-64644194D01*
X134455271Y-64730884D01*
X134266918Y-64856737D01*
X134106737Y-65016918D01*
X133980884Y-65205271D01*
X133894194Y-65414557D01*
X133850000Y-65636735D01*
X133850000Y-65863265D01*
X133894194Y-66085443D01*
X133980884Y-66294729D01*
X134106737Y-66483082D01*
X134266918Y-66643263D01*
X134400000Y-66732185D01*
X134400001Y-67567545D01*
X134203172Y-67699062D01*
X134029062Y-67873172D01*
X133892265Y-68077903D01*
X133798037Y-68305389D01*
X133750000Y-68546886D01*
X133000000Y-68546886D01*
X132951963Y-68305389D01*
X132857735Y-68077903D01*
X132720938Y-67873172D01*
X132546828Y-67699062D01*
X132350000Y-67567546D01*
X132350000Y-66892693D01*
X132386735Y-66900000D01*
X132613265Y-66900000D01*
X132835443Y-66855806D01*
X133044729Y-66769116D01*
X133233082Y-66643263D01*
X133393263Y-66483082D01*
X133519116Y-66294729D01*
X133605806Y-66085443D01*
X133650000Y-65863265D01*
X133650000Y-65636735D01*
X133605806Y-65414557D01*
X133519116Y-65205271D01*
X133393263Y-65016918D01*
X133233082Y-64856737D01*
X133100000Y-64767815D01*
X133100000Y-63998527D01*
X134600000Y-62498528D01*
X134600000Y-62500000D01*
X134602882Y-62529264D01*
X134611418Y-62557403D01*
X134625280Y-62583336D01*
X134643934Y-62606066D01*
X135143934Y-63106066D01*
X135166664Y-63124720D01*
X135192597Y-63138582D01*
X135220736Y-63147118D01*
X135250000Y-63150000D01*
X142025001Y-63150000D01*
X142025000Y-104041573D01*
X141818165Y-103732022D01*
X141267978Y-103181835D01*
X140621026Y-102749556D01*
X139902172Y-102451797D01*
X139139041Y-102300000D01*
X138360959Y-102300000D01*
X137597828Y-102451797D01*
X136878974Y-102749556D01*
X136232022Y-103181835D01*
X135681835Y-103732022D01*
X135249556Y-104378974D01*
X134951797Y-105097828D01*
X134800000Y-105860959D01*
X134800000Y-106639041D01*
X134951797Y-107402172D01*
X135249556Y-108121026D01*
X135681835Y-108767978D01*
X136232022Y-109318165D01*
X136541573Y-109525000D01*
X113697538Y-109525000D01*
X113700000Y-109500000D01*
X113700000Y-108593612D01*
X116837809Y-108593612D01*
X116989820Y-108850524D01*
X117313674Y-109017615D01*
X117663902Y-109118315D01*
X118027047Y-109148755D01*
X118389152Y-109107762D01*
X118736302Y-108996915D01*
X119010180Y-108850524D01*
X119162191Y-108593612D01*
X118000000Y-107431421D01*
X116837809Y-108593612D01*
X113700000Y-108593612D01*
X113700000Y-104780997D01*
X113991805Y-104780997D01*
X114031636Y-105123409D01*
X114137502Y-105451470D01*
X114270893Y-105701027D01*
X114517564Y-105841014D01*
X115608579Y-104750000D01*
X114517564Y-103658986D01*
X114270893Y-103798973D01*
X114113778Y-104105806D01*
X114019541Y-104437395D01*
X113991805Y-104780997D01*
X113700000Y-104780997D01*
X113700000Y-103517564D01*
X114658986Y-103517564D01*
X115750000Y-104608579D01*
X115764142Y-104594436D01*
X115905564Y-104735858D01*
X115891421Y-104750000D01*
X115905564Y-104764142D01*
X115764142Y-104905564D01*
X115750000Y-104891421D01*
X114658986Y-105982436D01*
X114798973Y-106229107D01*
X115105806Y-106386222D01*
X115437395Y-106480459D01*
X115780997Y-106508195D01*
X116123409Y-106468364D01*
X116385902Y-106383657D01*
X116272385Y-106603674D01*
X116171685Y-106953902D01*
X116141245Y-107317047D01*
X116182238Y-107679152D01*
X116293085Y-108026302D01*
X116439476Y-108300180D01*
X116696388Y-108452191D01*
X117858579Y-107290000D01*
X118141421Y-107290000D01*
X119303612Y-108452191D01*
X119560524Y-108300180D01*
X119727615Y-107976326D01*
X119828315Y-107626098D01*
X119858755Y-107262953D01*
X119817762Y-106900848D01*
X119706915Y-106553698D01*
X119560524Y-106279820D01*
X119303612Y-106127809D01*
X118141421Y-107290000D01*
X117858579Y-107290000D01*
X117844437Y-107275858D01*
X117985858Y-107134437D01*
X118000000Y-107148579D01*
X119162191Y-105986388D01*
X119010180Y-105729476D01*
X118686326Y-105562385D01*
X118336098Y-105461685D01*
X117972953Y-105431245D01*
X117610848Y-105472238D01*
X117294543Y-105573236D01*
X117386222Y-105394194D01*
X117480459Y-105062605D01*
X117508195Y-104719003D01*
X117468364Y-104376591D01*
X117362498Y-104048530D01*
X117299229Y-103930162D01*
X117313674Y-103937615D01*
X117663902Y-104038315D01*
X118027047Y-104068755D01*
X118389152Y-104027762D01*
X118736302Y-103916915D01*
X119010180Y-103770524D01*
X119162191Y-103513612D01*
X118000000Y-102351421D01*
X117985858Y-102365564D01*
X117844437Y-102224143D01*
X117858579Y-102210000D01*
X118141421Y-102210000D01*
X119303612Y-103372191D01*
X119560524Y-103220180D01*
X119727615Y-102896326D01*
X119828315Y-102546098D01*
X119858755Y-102182953D01*
X119817762Y-101820848D01*
X119706915Y-101473698D01*
X119560524Y-101199820D01*
X119303612Y-101047809D01*
X118141421Y-102210000D01*
X117858579Y-102210000D01*
X116696388Y-101047809D01*
X116439476Y-101199820D01*
X116272385Y-101523674D01*
X116171685Y-101873902D01*
X116141245Y-102237047D01*
X116182238Y-102599152D01*
X116293085Y-102946302D01*
X116380527Y-103109894D01*
X116062605Y-103019541D01*
X115719003Y-102991805D01*
X115376591Y-103031636D01*
X115048530Y-103137502D01*
X114798973Y-103270893D01*
X114658986Y-103517564D01*
X113700000Y-103517564D01*
X113700000Y-100906388D01*
X116837809Y-100906388D01*
X118000000Y-102068579D01*
X119162191Y-100906388D01*
X119010180Y-100649476D01*
X118686326Y-100482385D01*
X118336098Y-100381685D01*
X117972953Y-100351245D01*
X117610848Y-100392238D01*
X117263698Y-100503085D01*
X116989820Y-100649476D01*
X116837809Y-100906388D01*
X113700000Y-100906388D01*
X113700000Y-98186396D01*
X116568198Y-95318198D01*
X116624161Y-95250007D01*
X116665746Y-95172208D01*
X116691353Y-95087791D01*
X116700000Y-95000000D01*
X116700000Y-91750000D01*
X116691353Y-91662209D01*
X116665746Y-91577792D01*
X116624161Y-91499993D01*
X116568198Y-91431802D01*
X116263282Y-91126886D01*
X121250000Y-91126886D01*
X121250000Y-91373114D01*
X121298037Y-91614611D01*
X121392265Y-91842097D01*
X121529062Y-92046828D01*
X121703172Y-92220938D01*
X121907903Y-92357735D01*
X122135389Y-92451963D01*
X122376886Y-92500000D01*
X122623114Y-92500000D01*
X122864611Y-92451963D01*
X123092097Y-92357735D01*
X123296828Y-92220938D01*
X123470938Y-92046828D01*
X123602454Y-91850000D01*
X127001473Y-91850000D01*
X127150001Y-91998529D01*
X127150000Y-96001472D01*
X125246572Y-97904901D01*
X125223674Y-97923693D01*
X125148695Y-98015055D01*
X125134543Y-98041532D01*
X125092981Y-98119289D01*
X125058672Y-98232390D01*
X125047087Y-98350010D01*
X125049991Y-98379494D01*
X125049990Y-103101482D01*
X124759782Y-103391690D01*
X124672949Y-103355723D01*
X124392813Y-103300000D01*
X124107187Y-103300000D01*
X123827051Y-103355723D01*
X123563167Y-103465027D01*
X123325679Y-103623711D01*
X123123711Y-103825679D01*
X122965027Y-104063167D01*
X122855723Y-104327051D01*
X122800000Y-104607187D01*
X122800000Y-104892813D01*
X122855723Y-105172949D01*
X122965027Y-105436833D01*
X123123711Y-105674321D01*
X123325679Y-105876289D01*
X123563167Y-106034973D01*
X123827051Y-106144277D01*
X124107187Y-106200000D01*
X124392813Y-106200000D01*
X124672949Y-106144277D01*
X124936833Y-106034973D01*
X125174321Y-105876289D01*
X125376289Y-105674321D01*
X125534973Y-105436833D01*
X125644277Y-105172949D01*
X125700000Y-104892813D01*
X125700000Y-104607187D01*
X125644277Y-104327051D01*
X125608310Y-104240218D01*
X126000000Y-103848528D01*
X126391690Y-104240218D01*
X126355723Y-104327051D01*
X126300000Y-104607187D01*
X126300000Y-104892813D01*
X126355723Y-105172949D01*
X126465027Y-105436833D01*
X126623711Y-105674321D01*
X126825679Y-105876289D01*
X127063167Y-106034973D01*
X127327051Y-106144277D01*
X127607187Y-106200000D01*
X127892813Y-106200000D01*
X128172949Y-106144277D01*
X128436833Y-106034973D01*
X128674321Y-105876289D01*
X128781816Y-105768794D01*
X130372628Y-105768794D01*
X130476509Y-105984750D01*
X130732259Y-106111925D01*
X131007906Y-106186762D01*
X131292856Y-106206386D01*
X131576159Y-106170042D01*
X131846928Y-106079125D01*
X132023491Y-105984750D01*
X132127372Y-105768794D01*
X131250000Y-104891421D01*
X130372628Y-105768794D01*
X128781816Y-105768794D01*
X128876289Y-105674321D01*
X129034973Y-105436833D01*
X129144277Y-105172949D01*
X129200000Y-104892813D01*
X129200000Y-104792856D01*
X129793614Y-104792856D01*
X129829958Y-105076159D01*
X129920875Y-105346928D01*
X130015250Y-105523491D01*
X130231206Y-105627372D01*
X131108579Y-104750000D01*
X131391421Y-104750000D01*
X132268794Y-105627372D01*
X132484750Y-105523491D01*
X132611925Y-105267741D01*
X132686762Y-104992094D01*
X132706386Y-104707144D01*
X132670042Y-104423841D01*
X132579125Y-104153072D01*
X132484750Y-103976509D01*
X132268794Y-103872628D01*
X131391421Y-104750000D01*
X131108579Y-104750000D01*
X130231206Y-103872628D01*
X130015250Y-103976509D01*
X129888075Y-104232259D01*
X129813238Y-104507906D01*
X129793614Y-104792856D01*
X129200000Y-104792856D01*
X129200000Y-104607187D01*
X129144277Y-104327051D01*
X129034973Y-104063167D01*
X128876289Y-103825679D01*
X128781816Y-103731206D01*
X130372628Y-103731206D01*
X131250000Y-104608579D01*
X132127372Y-103731206D01*
X132023491Y-103515250D01*
X131767741Y-103388075D01*
X131492094Y-103313238D01*
X131207144Y-103293614D01*
X130923841Y-103329958D01*
X130653072Y-103420875D01*
X130476509Y-103515250D01*
X130372628Y-103731206D01*
X128781816Y-103731206D01*
X128674321Y-103623711D01*
X128436833Y-103465027D01*
X128172949Y-103355723D01*
X127892813Y-103300000D01*
X127607187Y-103300000D01*
X127327051Y-103355723D01*
X127240218Y-103391690D01*
X126850000Y-103001473D01*
X126850000Y-98847069D01*
X128753430Y-96943640D01*
X128776327Y-96924849D01*
X128851306Y-96833487D01*
X128907020Y-96729253D01*
X128923078Y-96676317D01*
X128941329Y-96616153D01*
X128952913Y-96498532D01*
X128950010Y-96469056D01*
X128950010Y-91898517D01*
X128998528Y-91850000D01*
X132147546Y-91850000D01*
X132279062Y-92046828D01*
X132453172Y-92220938D01*
X132657903Y-92357735D01*
X132885389Y-92451963D01*
X133126886Y-92500000D01*
X133373114Y-92500000D01*
X133614611Y-92451963D01*
X133842097Y-92357735D01*
X134046828Y-92220938D01*
X134220938Y-92046828D01*
X134357735Y-91842097D01*
X134451963Y-91614611D01*
X134500000Y-91373114D01*
X134500000Y-91126886D01*
X134451963Y-90885389D01*
X134357735Y-90657903D01*
X134220938Y-90453172D01*
X134046828Y-90279062D01*
X133842097Y-90142265D01*
X133614611Y-90048037D01*
X133373114Y-90000000D01*
X133126886Y-90000000D01*
X132885389Y-90048037D01*
X132657903Y-90142265D01*
X132453172Y-90279062D01*
X132279062Y-90453172D01*
X132147546Y-90650000D01*
X128779473Y-90650000D01*
X128749999Y-90647097D01*
X128632378Y-90658682D01*
X128598070Y-90669089D01*
X128519279Y-90692990D01*
X128415045Y-90748704D01*
X128323683Y-90823683D01*
X128304891Y-90846581D01*
X128000000Y-91151473D01*
X127695113Y-90846586D01*
X127676317Y-90823683D01*
X127584955Y-90748704D01*
X127480721Y-90692990D01*
X127367621Y-90658682D01*
X127279474Y-90650000D01*
X127250000Y-90647097D01*
X127220526Y-90650000D01*
X123602454Y-90650000D01*
X123470938Y-90453172D01*
X123296828Y-90279062D01*
X123092097Y-90142265D01*
X122864611Y-90048037D01*
X122623114Y-90000000D01*
X122376886Y-90000000D01*
X122135389Y-90048037D01*
X121907903Y-90142265D01*
X121703172Y-90279062D01*
X121529062Y-90453172D01*
X121392265Y-90657903D01*
X121298037Y-90885389D01*
X121250000Y-91126886D01*
X116263282Y-91126886D01*
X114318198Y-89181802D01*
X114250007Y-89125839D01*
X114172208Y-89084254D01*
X114087791Y-89058647D01*
X114000000Y-89050000D01*
X100836396Y-89050000D01*
X103759510Y-86126886D01*
X121250000Y-86126886D01*
X121250000Y-86373114D01*
X121298037Y-86614611D01*
X121392265Y-86842097D01*
X121529062Y-87046828D01*
X121703172Y-87220938D01*
X121907903Y-87357735D01*
X122135389Y-87451963D01*
X122376886Y-87500000D01*
X122623114Y-87500000D01*
X122864611Y-87451963D01*
X123092097Y-87357735D01*
X123296828Y-87220938D01*
X123470938Y-87046828D01*
X123602454Y-86850000D01*
X127220526Y-86850000D01*
X127250000Y-86852903D01*
X127279474Y-86850000D01*
X127367621Y-86841318D01*
X127480721Y-86807010D01*
X127584955Y-86751296D01*
X127676317Y-86676317D01*
X127695113Y-86653414D01*
X128000000Y-86348528D01*
X128304891Y-86653419D01*
X128323683Y-86676317D01*
X128415045Y-86751296D01*
X128482971Y-86787603D01*
X128519278Y-86807010D01*
X128632379Y-86841318D01*
X128750000Y-86852903D01*
X128779474Y-86850000D01*
X132147546Y-86850000D01*
X132279062Y-87046828D01*
X132453172Y-87220938D01*
X132657903Y-87357735D01*
X132885389Y-87451963D01*
X133126886Y-87500000D01*
X133373114Y-87500000D01*
X133614611Y-87451963D01*
X133842097Y-87357735D01*
X134046828Y-87220938D01*
X134220938Y-87046828D01*
X134357735Y-86842097D01*
X134451963Y-86614611D01*
X134500000Y-86373114D01*
X134500000Y-86126886D01*
X134451963Y-85885389D01*
X134357735Y-85657903D01*
X134220938Y-85453172D01*
X134046828Y-85279062D01*
X133842097Y-85142265D01*
X133614611Y-85048037D01*
X133373114Y-85000000D01*
X133126886Y-85000000D01*
X132885389Y-85048037D01*
X132657903Y-85142265D01*
X132453172Y-85279062D01*
X132279062Y-85453172D01*
X132147546Y-85650000D01*
X128998528Y-85650000D01*
X128850000Y-85501473D01*
X128850000Y-82779474D01*
X128852903Y-82750000D01*
X128841318Y-82632379D01*
X128823513Y-82573683D01*
X128807010Y-82519279D01*
X128751296Y-82415045D01*
X128676317Y-82323683D01*
X128653419Y-82304891D01*
X127600000Y-81251473D01*
X127600000Y-80578527D01*
X128144711Y-80033817D01*
X128376886Y-80080000D01*
X128623114Y-80080000D01*
X128864611Y-80031963D01*
X129092097Y-79937735D01*
X129296828Y-79800938D01*
X129391543Y-79706223D01*
X131015198Y-79706223D01*
X131094958Y-79901717D01*
X131316626Y-80008917D01*
X131554948Y-80070812D01*
X131800766Y-80085023D01*
X132044633Y-80051004D01*
X132277178Y-79970063D01*
X132405042Y-79901717D01*
X132484802Y-79706223D01*
X134265198Y-79706223D01*
X134344958Y-79901717D01*
X134566626Y-80008917D01*
X134804948Y-80070812D01*
X135050766Y-80085023D01*
X135294633Y-80051004D01*
X135527178Y-79970063D01*
X135655042Y-79901717D01*
X135734802Y-79706223D01*
X135000000Y-78971421D01*
X134265198Y-79706223D01*
X132484802Y-79706223D01*
X131750000Y-78971421D01*
X131015198Y-79706223D01*
X129391543Y-79706223D01*
X129470938Y-79626828D01*
X129607735Y-79422097D01*
X129701963Y-79194611D01*
X129750000Y-78953114D01*
X129750000Y-78880766D01*
X130494977Y-78880766D01*
X130528996Y-79124633D01*
X130609937Y-79357178D01*
X130678283Y-79485042D01*
X130873777Y-79564802D01*
X131608579Y-78830000D01*
X131891421Y-78830000D01*
X132626223Y-79564802D01*
X132821717Y-79485042D01*
X132928917Y-79263374D01*
X132990812Y-79025052D01*
X132999153Y-78880766D01*
X133744977Y-78880766D01*
X133778996Y-79124633D01*
X133859937Y-79357178D01*
X133928283Y-79485042D01*
X134123777Y-79564802D01*
X134858579Y-78830000D01*
X135141421Y-78830000D01*
X135876223Y-79564802D01*
X136071717Y-79485042D01*
X136178917Y-79263374D01*
X136240812Y-79025052D01*
X136255023Y-78779234D01*
X136221004Y-78535367D01*
X136140063Y-78302822D01*
X136071717Y-78174958D01*
X135876223Y-78095198D01*
X135141421Y-78830000D01*
X134858579Y-78830000D01*
X134123777Y-78095198D01*
X133928283Y-78174958D01*
X133821083Y-78396626D01*
X133759188Y-78634948D01*
X133744977Y-78880766D01*
X132999153Y-78880766D01*
X133005023Y-78779234D01*
X132971004Y-78535367D01*
X132890063Y-78302822D01*
X132821717Y-78174958D01*
X132626223Y-78095198D01*
X131891421Y-78830000D01*
X131608579Y-78830000D01*
X130873777Y-78095198D01*
X130678283Y-78174958D01*
X130571083Y-78396626D01*
X130509188Y-78634948D01*
X130494977Y-78880766D01*
X129750000Y-78880766D01*
X129750000Y-78706886D01*
X129701963Y-78465389D01*
X129607735Y-78237903D01*
X129470938Y-78033172D01*
X129391543Y-77953777D01*
X131015198Y-77953777D01*
X131750000Y-78688579D01*
X132484802Y-77953777D01*
X134265198Y-77953777D01*
X135000000Y-78688579D01*
X135734802Y-77953777D01*
X135655042Y-77758283D01*
X135433374Y-77651083D01*
X135195052Y-77589188D01*
X134949234Y-77574977D01*
X134705367Y-77608996D01*
X134472822Y-77689937D01*
X134344958Y-77758283D01*
X134265198Y-77953777D01*
X132484802Y-77953777D01*
X132405042Y-77758283D01*
X132183374Y-77651083D01*
X131945052Y-77589188D01*
X131699234Y-77574977D01*
X131455367Y-77608996D01*
X131222822Y-77689937D01*
X131094958Y-77758283D01*
X131015198Y-77953777D01*
X129391543Y-77953777D01*
X129296828Y-77859062D01*
X129092097Y-77722265D01*
X128864611Y-77628037D01*
X128623114Y-77580000D01*
X128376886Y-77580000D01*
X128135389Y-77628037D01*
X127907903Y-77722265D01*
X127703172Y-77859062D01*
X127529062Y-78033172D01*
X127392265Y-78237903D01*
X127298037Y-78465389D01*
X127250000Y-78706886D01*
X127250000Y-78953114D01*
X127296183Y-79185289D01*
X126872055Y-79609417D01*
X126826307Y-79553673D01*
X126803415Y-79534886D01*
X126453817Y-79185289D01*
X126500000Y-78953114D01*
X126500000Y-78706886D01*
X126451963Y-78465389D01*
X126357735Y-78237903D01*
X126220938Y-78033172D01*
X126046828Y-77859062D01*
X125842097Y-77722265D01*
X125614611Y-77628037D01*
X125373114Y-77580000D01*
X125126886Y-77580000D01*
X124885389Y-77628037D01*
X124657903Y-77722265D01*
X124453172Y-77859062D01*
X124279062Y-78033172D01*
X124142265Y-78237903D01*
X124048037Y-78465389D01*
X124000000Y-78706886D01*
X124000000Y-78953114D01*
X124048037Y-79194611D01*
X124142265Y-79422097D01*
X124279062Y-79626828D01*
X124453172Y-79800938D01*
X124657903Y-79937735D01*
X124885389Y-80031963D01*
X125126886Y-80080000D01*
X125373114Y-80080000D01*
X125605289Y-80033817D01*
X125799991Y-80228520D01*
X125799990Y-81719058D01*
X125797087Y-81748532D01*
X125799990Y-81778005D01*
X125808672Y-81866152D01*
X125842980Y-81979252D01*
X125898694Y-82083486D01*
X125973673Y-82174849D01*
X125996576Y-82193645D01*
X127049991Y-83247061D01*
X127049990Y-85601482D01*
X127001473Y-85650000D01*
X123602454Y-85650000D01*
X123470938Y-85453172D01*
X123296828Y-85279062D01*
X123092097Y-85142265D01*
X122864611Y-85048037D01*
X122623114Y-85000000D01*
X122376886Y-85000000D01*
X122135389Y-85048037D01*
X121907903Y-85142265D01*
X121703172Y-85279062D01*
X121529062Y-85453172D01*
X121392265Y-85657903D01*
X121298037Y-85885389D01*
X121250000Y-86126886D01*
X103759510Y-86126886D01*
X105318198Y-84568198D01*
X105374161Y-84500007D01*
X105415746Y-84422208D01*
X105441353Y-84337791D01*
X105450000Y-84250000D01*
X105450000Y-80336396D01*
X106931802Y-81818198D01*
X106999993Y-81874161D01*
X107077792Y-81915746D01*
X107162209Y-81941353D01*
X107250000Y-81950000D01*
X107960001Y-81950000D01*
X107960001Y-82030517D01*
X107957097Y-82060000D01*
X107968682Y-82177620D01*
X107990245Y-82248704D01*
X108002991Y-82290721D01*
X108058705Y-82394955D01*
X108133684Y-82486317D01*
X108156581Y-82505108D01*
X109054891Y-83403419D01*
X109073683Y-83426317D01*
X109165045Y-83501296D01*
X109266531Y-83555541D01*
X109269279Y-83557010D01*
X109382379Y-83591318D01*
X109500000Y-83602903D01*
X109529474Y-83600000D01*
X116720526Y-83600000D01*
X116750000Y-83602903D01*
X116779474Y-83600000D01*
X116867621Y-83591318D01*
X116980721Y-83557010D01*
X117084955Y-83501296D01*
X117176317Y-83426317D01*
X117195113Y-83403414D01*
X119153420Y-81445108D01*
X119176317Y-81426317D01*
X119251296Y-81334955D01*
X119307010Y-81230721D01*
X119341318Y-81117621D01*
X119350000Y-81029474D01*
X119350000Y-81029473D01*
X119352903Y-81000001D01*
X119350000Y-80970527D01*
X119350000Y-79932454D01*
X119546828Y-79800938D01*
X119720938Y-79626828D01*
X119852454Y-79430000D01*
X120897546Y-79430000D01*
X121029062Y-79626828D01*
X121203172Y-79800938D01*
X121407903Y-79937735D01*
X121635389Y-80031963D01*
X121876886Y-80080000D01*
X122123114Y-80080000D01*
X122364611Y-80031963D01*
X122592097Y-79937735D01*
X122796828Y-79800938D01*
X122970938Y-79626828D01*
X123107735Y-79422097D01*
X123201963Y-79194611D01*
X123250000Y-78953114D01*
X123250000Y-78706886D01*
X123201963Y-78465389D01*
X123107735Y-78237903D01*
X122970938Y-78033172D01*
X122796828Y-77859062D01*
X122592097Y-77722265D01*
X122364611Y-77628037D01*
X122123114Y-77580000D01*
X121876886Y-77580000D01*
X121635389Y-77628037D01*
X121407903Y-77722265D01*
X121203172Y-77859062D01*
X121029062Y-78033172D01*
X120897546Y-78230000D01*
X119852454Y-78230000D01*
X119720938Y-78033172D01*
X119546828Y-77859062D01*
X119342097Y-77722265D01*
X119114611Y-77628037D01*
X118873114Y-77580000D01*
X118626886Y-77580000D01*
X118385389Y-77628037D01*
X118157903Y-77722265D01*
X117953172Y-77859062D01*
X117779062Y-78033172D01*
X117642265Y-78237903D01*
X117548037Y-78465389D01*
X117500000Y-78706886D01*
X117500000Y-78953114D01*
X117548037Y-79194611D01*
X117642265Y-79422097D01*
X117779062Y-79626828D01*
X117953172Y-79800938D01*
X118150000Y-79932455D01*
X118150000Y-80751472D01*
X116501473Y-82400000D01*
X109748528Y-82400000D01*
X109298527Y-81950000D01*
X114000000Y-81950000D01*
X114087791Y-81941353D01*
X114172208Y-81915746D01*
X114250007Y-81874161D01*
X114318198Y-81818198D01*
X116568198Y-79568198D01*
X116624161Y-79500007D01*
X116665746Y-79422208D01*
X116691353Y-79337791D01*
X116700000Y-79250000D01*
X116700000Y-74510172D01*
X116789448Y-74376303D01*
X116928905Y-74039625D01*
X117000000Y-73682209D01*
X117000000Y-73317791D01*
X116928905Y-72960375D01*
X116789448Y-72623697D01*
X116700000Y-72489828D01*
X116700000Y-70796655D01*
X116704595Y-70750001D01*
X116700000Y-70703346D01*
X116700000Y-69567766D01*
X116720938Y-69546828D01*
X116857735Y-69342097D01*
X116951963Y-69114611D01*
X117000000Y-68873114D01*
X117000000Y-68626886D01*
X116984087Y-68546886D01*
X117500000Y-68546886D01*
X117500000Y-68793114D01*
X117548037Y-69034611D01*
X117642265Y-69262097D01*
X117779062Y-69466828D01*
X117953172Y-69640938D01*
X118157903Y-69777735D01*
X118385389Y-69871963D01*
X118626886Y-69920000D01*
X118873114Y-69920000D01*
X119114611Y-69871963D01*
X119342097Y-69777735D01*
X119546828Y-69640938D01*
X119720938Y-69466828D01*
X119857735Y-69262097D01*
X119951963Y-69034611D01*
X120000000Y-68793114D01*
X120000000Y-68546886D01*
X120750000Y-68546886D01*
X120750000Y-68793114D01*
X120798037Y-69034611D01*
X120892265Y-69262097D01*
X121029062Y-69466828D01*
X121203172Y-69640938D01*
X121407903Y-69777735D01*
X121635389Y-69871963D01*
X121876886Y-69920000D01*
X122123114Y-69920000D01*
X122364611Y-69871963D01*
X122592097Y-69777735D01*
X122796828Y-69640938D01*
X122970938Y-69466828D01*
X123102454Y-69270000D01*
X124147546Y-69270000D01*
X124279062Y-69466828D01*
X124453172Y-69640938D01*
X124657903Y-69777735D01*
X124885389Y-69871963D01*
X125126886Y-69920000D01*
X125373114Y-69920000D01*
X125614611Y-69871963D01*
X125842097Y-69777735D01*
X126046828Y-69640938D01*
X126220938Y-69466828D01*
X126357735Y-69262097D01*
X126451963Y-69034611D01*
X126500000Y-68793114D01*
X126500000Y-68546886D01*
X126451963Y-68305389D01*
X126357735Y-68077903D01*
X126220938Y-67873172D01*
X126046828Y-67699062D01*
X125842097Y-67562265D01*
X125614611Y-67468037D01*
X125373114Y-67420000D01*
X125126886Y-67420000D01*
X124885389Y-67468037D01*
X124657903Y-67562265D01*
X124453172Y-67699062D01*
X124279062Y-67873172D01*
X124147546Y-68070000D01*
X123102454Y-68070000D01*
X122970938Y-67873172D01*
X122796828Y-67699062D01*
X122600000Y-67567546D01*
X122600000Y-66732185D01*
X122733082Y-66643263D01*
X122893263Y-66483082D01*
X123019116Y-66294729D01*
X123105806Y-66085443D01*
X123150000Y-65863265D01*
X123150000Y-65636735D01*
X123118774Y-65479753D01*
X124003420Y-64595108D01*
X124026317Y-64576317D01*
X124101296Y-64484955D01*
X124157010Y-64380721D01*
X124191318Y-64267621D01*
X124200000Y-64179474D01*
X124200000Y-64179473D01*
X124202903Y-64150000D01*
X124200000Y-64120526D01*
X124200000Y-63498527D01*
X124916755Y-62781773D01*
X124956220Y-62798120D01*
X125217037Y-62850000D01*
X125482963Y-62850000D01*
X125743780Y-62798120D01*
X125989465Y-62696354D01*
X126210575Y-62548613D01*
X126398613Y-62360575D01*
X126546354Y-62139465D01*
X126648120Y-61893780D01*
X126700000Y-61632963D01*
X126700000Y-61367037D01*
X127400000Y-61367037D01*
X127400000Y-61632963D01*
X127451880Y-61893780D01*
X127553646Y-62139465D01*
X127701387Y-62360575D01*
X127889425Y-62548613D01*
X128110535Y-62696354D01*
X128356220Y-62798120D01*
X128617037Y-62850000D01*
X128882963Y-62850000D01*
X129143780Y-62798120D01*
X129389465Y-62696354D01*
X129610575Y-62548613D01*
X129798613Y-62360575D01*
X129946354Y-62139465D01*
X130048120Y-61893780D01*
X130100000Y-61632963D01*
X130100000Y-61367037D01*
X130048120Y-61106220D01*
X129946354Y-60860535D01*
X129798613Y-60639425D01*
X129610575Y-60451387D01*
X129389465Y-60303646D01*
X129143780Y-60201880D01*
X128882963Y-60150000D01*
X128617037Y-60150000D01*
X128356220Y-60201880D01*
X128110535Y-60303646D01*
X127889425Y-60451387D01*
X127701387Y-60639425D01*
X127553646Y-60860535D01*
X127451880Y-61106220D01*
X127400000Y-61367037D01*
X126700000Y-61367037D01*
X126648120Y-61106220D01*
X126631773Y-61066754D01*
X128098528Y-59600000D01*
X131267815Y-59600000D01*
X131356737Y-59733082D01*
X131516918Y-59893263D01*
X131705271Y-60019116D01*
X131914557Y-60105806D01*
X132136735Y-60150000D01*
X132363265Y-60150000D01*
X132585443Y-60105806D01*
X132794729Y-60019116D01*
X132983082Y-59893263D01*
X133143263Y-59733082D01*
X133269116Y-59544729D01*
X133355806Y-59335443D01*
X133400000Y-59113265D01*
X133400000Y-58886735D01*
X133355806Y-58664557D01*
X133269116Y-58455271D01*
X133143263Y-58266918D01*
X132983082Y-58106737D01*
X132794729Y-57980884D01*
X132585443Y-57894194D01*
X132363265Y-57850000D01*
X132136735Y-57850000D01*
X131914557Y-57894194D01*
X131705271Y-57980884D01*
X131516918Y-58106737D01*
X131356737Y-58266918D01*
X131267815Y-58400000D01*
X127879474Y-58400000D01*
X127850000Y-58397097D01*
X127820526Y-58400000D01*
X127732379Y-58408682D01*
X127619279Y-58442990D01*
X127515045Y-58498704D01*
X127423683Y-58573683D01*
X127404891Y-58596581D01*
X125783246Y-60218227D01*
X125743780Y-60201880D01*
X125482963Y-60150000D01*
X125217037Y-60150000D01*
X124956220Y-60201880D01*
X124710535Y-60303646D01*
X124489425Y-60451387D01*
X124301387Y-60639425D01*
X124153646Y-60860535D01*
X124051880Y-61106220D01*
X124000000Y-61367037D01*
X124000000Y-61632963D01*
X124051880Y-61893780D01*
X124068227Y-61933245D01*
X123196582Y-62804891D01*
X123173684Y-62823683D01*
X123098705Y-62915045D01*
X123053296Y-63000000D01*
X123042991Y-63019279D01*
X123008682Y-63132380D01*
X122997097Y-63250000D01*
X123000000Y-63279474D01*
X123000000Y-63901472D01*
X122270247Y-64631226D01*
X122113265Y-64600000D01*
X121886735Y-64600000D01*
X121664557Y-64644194D01*
X121455271Y-64730884D01*
X121266918Y-64856737D01*
X121106737Y-65016918D01*
X120980884Y-65205271D01*
X120894194Y-65414557D01*
X120850000Y-65636735D01*
X120850000Y-65863265D01*
X120894194Y-66085443D01*
X120980884Y-66294729D01*
X121106737Y-66483082D01*
X121266918Y-66643263D01*
X121400000Y-66732185D01*
X121400001Y-67567545D01*
X121203172Y-67699062D01*
X121029062Y-67873172D01*
X120892265Y-68077903D01*
X120798037Y-68305389D01*
X120750000Y-68546886D01*
X120000000Y-68546886D01*
X119951963Y-68305389D01*
X119857735Y-68077903D01*
X119720938Y-67873172D01*
X119546828Y-67699062D01*
X119350000Y-67567546D01*
X119350000Y-66892693D01*
X119386735Y-66900000D01*
X119613265Y-66900000D01*
X119835443Y-66855806D01*
X120044729Y-66769116D01*
X120233082Y-66643263D01*
X120393263Y-66483082D01*
X120519116Y-66294729D01*
X120605806Y-66085443D01*
X120650000Y-65863265D01*
X120650000Y-65636735D01*
X120605806Y-65414557D01*
X120519116Y-65205271D01*
X120393263Y-65016918D01*
X120233082Y-64856737D01*
X120044729Y-64730884D01*
X119835443Y-64644194D01*
X119613265Y-64600000D01*
X119386735Y-64600000D01*
X119164557Y-64644194D01*
X118955271Y-64730884D01*
X118766918Y-64856737D01*
X118606737Y-65016918D01*
X118480884Y-65205271D01*
X118394194Y-65414557D01*
X118350000Y-65636735D01*
X118350000Y-65863265D01*
X118381226Y-66020247D01*
X118346581Y-66054892D01*
X118323684Y-66073683D01*
X118248705Y-66165045D01*
X118242681Y-66176316D01*
X118192991Y-66269279D01*
X118158682Y-66382380D01*
X118147097Y-66500000D01*
X118150001Y-66529483D01*
X118150001Y-67567545D01*
X117953172Y-67699062D01*
X117779062Y-67873172D01*
X117642265Y-68077903D01*
X117548037Y-68305389D01*
X117500000Y-68546886D01*
X116984087Y-68546886D01*
X116951963Y-68385389D01*
X116857735Y-68157903D01*
X116720938Y-67953172D01*
X116700000Y-67932234D01*
X116700000Y-67436396D01*
X117818198Y-66318198D01*
X117874161Y-66250007D01*
X117915746Y-66172208D01*
X117941353Y-66087791D01*
X117950000Y-66000000D01*
X117950000Y-63700000D01*
X119500000Y-63700000D01*
X119587791Y-63691353D01*
X119672208Y-63665746D01*
X119750007Y-63624161D01*
X119818198Y-63568198D01*
X120818198Y-62568198D01*
X120874161Y-62500007D01*
X120915746Y-62422208D01*
X120929412Y-62377156D01*
X120962702Y-62420734D01*
X121161299Y-62595655D01*
X121390205Y-62728470D01*
X121640624Y-62814076D01*
X121850000Y-62733795D01*
X121850000Y-61600000D01*
X122050000Y-61600000D01*
X122050000Y-62733795D01*
X122259376Y-62814076D01*
X122509795Y-62728470D01*
X122738701Y-62595655D01*
X122937298Y-62420734D01*
X123097954Y-62210430D01*
X123214494Y-61972825D01*
X123264072Y-61809375D01*
X123183453Y-61600000D01*
X122050000Y-61600000D01*
X121850000Y-61600000D01*
X121830000Y-61600000D01*
X121830000Y-61400000D01*
X121850000Y-61400000D01*
X121850000Y-60266205D01*
X122050000Y-60266205D01*
X122050000Y-61400000D01*
X123183453Y-61400000D01*
X123264072Y-61190625D01*
X123214494Y-61027175D01*
X123097954Y-60789570D01*
X122937298Y-60579266D01*
X122738701Y-60404345D01*
X122509795Y-60271530D01*
X122259376Y-60185924D01*
X122050000Y-60266205D01*
X121850000Y-60266205D01*
X121640624Y-60185924D01*
X121390205Y-60271530D01*
X121161299Y-60404345D01*
X120962702Y-60579266D01*
X120950000Y-60595893D01*
X120950000Y-60250000D01*
X120941353Y-60162209D01*
X120915746Y-60077792D01*
X120874161Y-59999993D01*
X120818198Y-59931802D01*
X119318198Y-58431802D01*
X119250007Y-58375839D01*
X119172208Y-58334254D01*
X119087791Y-58308647D01*
X119000000Y-58300000D01*
X118336396Y-58300000D01*
X119068198Y-57568198D01*
X119124161Y-57500007D01*
X119165746Y-57422208D01*
X119191353Y-57337791D01*
X119197554Y-57274838D01*
X119201387Y-57280575D01*
X119389425Y-57468613D01*
X119610535Y-57616354D01*
X119856220Y-57718120D01*
X120117037Y-57770000D01*
X120382963Y-57770000D01*
X120643780Y-57718120D01*
X120889465Y-57616354D01*
X121110575Y-57468613D01*
X121298613Y-57280575D01*
X121446354Y-57059465D01*
X121548120Y-56813780D01*
X121600000Y-56552963D01*
X121600000Y-56287037D01*
X122300000Y-56287037D01*
X122300000Y-56552963D01*
X122351880Y-56813780D01*
X122453646Y-57059465D01*
X122601387Y-57280575D01*
X122789425Y-57468613D01*
X123010535Y-57616354D01*
X123256220Y-57718120D01*
X123517037Y-57770000D01*
X123782963Y-57770000D01*
X124043780Y-57718120D01*
X124289465Y-57616354D01*
X124510575Y-57468613D01*
X124698613Y-57280575D01*
X124846354Y-57059465D01*
X124948120Y-56813780D01*
X125000000Y-56552963D01*
X125000000Y-56287037D01*
X124948120Y-56026220D01*
X124846354Y-55780535D01*
X124698613Y-55559425D01*
X124510575Y-55371387D01*
X124289465Y-55223646D01*
X124043780Y-55121880D01*
X123782963Y-55070000D01*
X123517037Y-55070000D01*
X123256220Y-55121880D01*
X123010535Y-55223646D01*
X122789425Y-55371387D01*
X122601387Y-55559425D01*
X122453646Y-55780535D01*
X122351880Y-56026220D01*
X122300000Y-56287037D01*
X121600000Y-56287037D01*
X121548120Y-56026220D01*
X121446354Y-55780535D01*
X121298613Y-55559425D01*
X121110575Y-55371387D01*
X120889465Y-55223646D01*
X120643780Y-55121880D01*
X120382963Y-55070000D01*
X120117037Y-55070000D01*
X119856220Y-55121880D01*
X119610535Y-55223646D01*
X119389425Y-55371387D01*
X119201387Y-55559425D01*
X119200000Y-55561501D01*
X119200000Y-54000000D01*
X119191353Y-53912209D01*
X119165746Y-53827792D01*
X119124161Y-53749993D01*
X119068198Y-53681802D01*
X118361396Y-52975000D01*
X134600000Y-52975000D01*
X134600000Y-56501472D01*
G36*
X82293855Y-102430251D02*
G01*
X81639041Y-102300000D01*
X80860959Y-102300000D01*
X80097828Y-102451797D01*
X79378974Y-102749556D01*
X78732022Y-103181835D01*
X78181835Y-103732022D01*
X77975000Y-104041573D01*
X77975000Y-98111396D01*
X82293855Y-102430251D01*
G37*
X82293855Y-102430251D02*
X81639041Y-102300000D01*
X80860959Y-102300000D01*
X80097828Y-102451797D01*
X79378974Y-102749556D01*
X78732022Y-103181835D01*
X78181835Y-103732022D01*
X77975000Y-104041573D01*
X77975000Y-98111396D01*
X82293855Y-102430251D01*
G36*
X95155564Y-102195858D02*
G01*
X95141421Y-102210000D01*
X95155564Y-102224143D01*
X95014143Y-102365564D01*
X95000000Y-102351421D01*
X94985858Y-102365564D01*
X94844437Y-102224143D01*
X94858579Y-102210000D01*
X94844437Y-102195858D01*
X94985858Y-102054437D01*
X95000000Y-102068579D01*
X95014143Y-102054437D01*
X95155564Y-102195858D01*
G37*
X95155564Y-102195858D02*
X95141421Y-102210000D01*
X95155564Y-102224143D01*
X95014143Y-102365564D01*
X95000000Y-102351421D01*
X94985858Y-102365564D01*
X94844437Y-102224143D01*
X94858579Y-102210000D01*
X94844437Y-102195858D01*
X94985858Y-102054437D01*
X95000000Y-102068579D01*
X95014143Y-102054437D01*
X95155564Y-102195858D01*
G36*
X92300000Y-83813604D02*
G01*
X90805404Y-85308200D01*
X90661243Y-85230179D01*
X89641421Y-86250000D01*
X89655564Y-86264142D01*
X89514142Y-86405564D01*
X89500000Y-86391421D01*
X88480179Y-87411243D01*
X88558200Y-87555404D01*
X87200000Y-88913604D01*
X87200000Y-86284949D01*
X87842384Y-86284949D01*
X87881053Y-86607662D01*
X87981937Y-86916631D01*
X88102326Y-87141862D01*
X88338757Y-87269821D01*
X89358579Y-86250000D01*
X88338757Y-85230179D01*
X88102326Y-85358138D01*
X87955188Y-85647947D01*
X87867416Y-85960892D01*
X87842384Y-86284949D01*
X87200000Y-86284949D01*
X87200000Y-85088757D01*
X88480179Y-85088757D01*
X89500000Y-86108579D01*
X90519821Y-85088757D01*
X90391862Y-84852326D01*
X90102053Y-84705188D01*
X89789108Y-84617416D01*
X89465051Y-84592384D01*
X89142338Y-84631053D01*
X88833369Y-84731937D01*
X88608138Y-84852326D01*
X88480179Y-85088757D01*
X87200000Y-85088757D01*
X87200000Y-77950000D01*
X87847823Y-77950000D01*
X87856511Y-78038215D01*
X87882243Y-78123041D01*
X87924029Y-78201216D01*
X87980263Y-78269737D01*
X88048784Y-78325971D01*
X88126959Y-78367757D01*
X88211785Y-78393489D01*
X88300000Y-78402177D01*
X89287500Y-78400000D01*
X89400000Y-78287500D01*
X89400000Y-76850000D01*
X89600000Y-76850000D01*
X89600000Y-78287500D01*
X89712500Y-78400000D01*
X90700000Y-78402177D01*
X90788215Y-78393489D01*
X90873041Y-78367757D01*
X90951216Y-78325971D01*
X91019737Y-78269737D01*
X91075971Y-78201216D01*
X91117757Y-78123041D01*
X91143489Y-78038215D01*
X91152177Y-77950000D01*
X91150000Y-76962500D01*
X91037500Y-76850000D01*
X89600000Y-76850000D01*
X89400000Y-76850000D01*
X87962500Y-76850000D01*
X87850000Y-76962500D01*
X87847823Y-77950000D01*
X87200000Y-77950000D01*
X87200000Y-75550000D01*
X87847823Y-75550000D01*
X87850000Y-76537500D01*
X87962500Y-76650000D01*
X89400000Y-76650000D01*
X89400000Y-75212500D01*
X89600000Y-75212500D01*
X89600000Y-76650000D01*
X91037500Y-76650000D01*
X91150000Y-76537500D01*
X91152177Y-75550000D01*
X91143489Y-75461785D01*
X91117757Y-75376959D01*
X91075971Y-75298784D01*
X91019737Y-75230263D01*
X90951216Y-75174029D01*
X90873041Y-75132243D01*
X90788215Y-75106511D01*
X90700000Y-75097823D01*
X89712500Y-75100000D01*
X89600000Y-75212500D01*
X89400000Y-75212500D01*
X89287500Y-75100000D01*
X88300000Y-75097823D01*
X88211785Y-75106511D01*
X88126959Y-75132243D01*
X88048784Y-75174029D01*
X87980263Y-75230263D01*
X87924029Y-75298784D01*
X87882243Y-75376959D01*
X87856511Y-75461785D01*
X87847823Y-75550000D01*
X87200000Y-75550000D01*
X87200000Y-75186396D01*
X92300000Y-70086396D01*
X92300000Y-83813604D01*
G37*
X92300000Y-83813604D02*
X90805404Y-85308200D01*
X90661243Y-85230179D01*
X89641421Y-86250000D01*
X89655564Y-86264142D01*
X89514142Y-86405564D01*
X89500000Y-86391421D01*
X88480179Y-87411243D01*
X88558200Y-87555404D01*
X87200000Y-88913604D01*
X87200000Y-86284949D01*
X87842384Y-86284949D01*
X87881053Y-86607662D01*
X87981937Y-86916631D01*
X88102326Y-87141862D01*
X88338757Y-87269821D01*
X89358579Y-86250000D01*
X88338757Y-85230179D01*
X88102326Y-85358138D01*
X87955188Y-85647947D01*
X87867416Y-85960892D01*
X87842384Y-86284949D01*
X87200000Y-86284949D01*
X87200000Y-85088757D01*
X88480179Y-85088757D01*
X89500000Y-86108579D01*
X90519821Y-85088757D01*
X90391862Y-84852326D01*
X90102053Y-84705188D01*
X89789108Y-84617416D01*
X89465051Y-84592384D01*
X89142338Y-84631053D01*
X88833369Y-84731937D01*
X88608138Y-84852326D01*
X88480179Y-85088757D01*
X87200000Y-85088757D01*
X87200000Y-77950000D01*
X87847823Y-77950000D01*
X87856511Y-78038215D01*
X87882243Y-78123041D01*
X87924029Y-78201216D01*
X87980263Y-78269737D01*
X88048784Y-78325971D01*
X88126959Y-78367757D01*
X88211785Y-78393489D01*
X88300000Y-78402177D01*
X89287500Y-78400000D01*
X89400000Y-78287500D01*
X89400000Y-76850000D01*
X89600000Y-76850000D01*
X89600000Y-78287500D01*
X89712500Y-78400000D01*
X90700000Y-78402177D01*
X90788215Y-78393489D01*
X90873041Y-78367757D01*
X90951216Y-78325971D01*
X91019737Y-78269737D01*
X91075971Y-78201216D01*
X91117757Y-78123041D01*
X91143489Y-78038215D01*
X91152177Y-77950000D01*
X91150000Y-76962500D01*
X91037500Y-76850000D01*
X89600000Y-76850000D01*
X89400000Y-76850000D01*
X87962500Y-76850000D01*
X87850000Y-76962500D01*
X87847823Y-77950000D01*
X87200000Y-77950000D01*
X87200000Y-75550000D01*
X87847823Y-75550000D01*
X87850000Y-76537500D01*
X87962500Y-76650000D01*
X89400000Y-76650000D01*
X89400000Y-75212500D01*
X89600000Y-75212500D01*
X89600000Y-76650000D01*
X91037500Y-76650000D01*
X91150000Y-76537500D01*
X91152177Y-75550000D01*
X91143489Y-75461785D01*
X91117757Y-75376959D01*
X91075971Y-75298784D01*
X91019737Y-75230263D01*
X90951216Y-75174029D01*
X90873041Y-75132243D01*
X90788215Y-75106511D01*
X90700000Y-75097823D01*
X89712500Y-75100000D01*
X89600000Y-75212500D01*
X89400000Y-75212500D01*
X89287500Y-75100000D01*
X88300000Y-75097823D01*
X88211785Y-75106511D01*
X88126959Y-75132243D01*
X88048784Y-75174029D01*
X87980263Y-75230263D01*
X87924029Y-75298784D01*
X87882243Y-75376959D01*
X87856511Y-75461785D01*
X87847823Y-75550000D01*
X87200000Y-75550000D01*
X87200000Y-75186396D01*
X92300000Y-70086396D01*
X92300000Y-83813604D01*
G36*
X77975000Y-65638604D02*
G01*
X77975000Y-63150000D01*
X80463604Y-63150000D01*
X77975000Y-65638604D01*
G37*
X77975000Y-65638604D02*
X77975000Y-63150000D01*
X80463604Y-63150000D01*
X77975000Y-65638604D01*
%TD*%
M02*
