%TF.GenerationSoftware,KiCad,Pcbnew,(5.1.6-0)*%
%TF.CreationDate,2023-04-23T15:30:13-07:00*%
%TF.ProjectId,LM3886-bal-no15v-th,4c4d3338-3836-42d6-9261-6c2d6e6f3135,rev?*%
%TF.SameCoordinates,Original*%
%TF.FileFunction,Copper,L1,Top*%
%TF.FilePolarity,Positive*%
%FSLAX46Y46*%
G04 Gerber Fmt 4.6, Leading zero omitted, Abs format (unit mm)*
G04 Created by KiCad (PCBNEW (5.1.6-0)) date 2023-04-23 15:30:13*
%MOMM*%
%LPD*%
G01*
G04 APERTURE LIST*
%TA.AperFunction,ComponentPad*%
%ADD10O,2.800000X2.800000*%
%TD*%
%TA.AperFunction,ComponentPad*%
%ADD11C,2.800000*%
%TD*%
%TA.AperFunction,ComponentPad*%
%ADD12C,1.400000*%
%TD*%
%TA.AperFunction,ComponentPad*%
%ADD13O,1.600000X1.600000*%
%TD*%
%TA.AperFunction,ComponentPad*%
%ADD14C,1.600000*%
%TD*%
%TA.AperFunction,ComponentPad*%
%ADD15C,2.500000*%
%TD*%
%TA.AperFunction,ComponentPad*%
%ADD16C,2.600000*%
%TD*%
%TA.AperFunction,ComponentPad*%
%ADD17C,2.000000*%
%TD*%
%TA.AperFunction,ComponentPad*%
%ADD18C,0.800000*%
%TD*%
%TA.AperFunction,ComponentPad*%
%ADD19C,7.000000*%
%TD*%
%TA.AperFunction,ComponentPad*%
%ADD20R,1.600000X1.600000*%
%TD*%
%TA.AperFunction,ComponentPad*%
%ADD21C,2.400000*%
%TD*%
%TA.AperFunction,ComponentPad*%
%ADD22R,2.400000X2.400000*%
%TD*%
%TA.AperFunction,ComponentPad*%
%ADD23O,1.800000X1.800000*%
%TD*%
%TA.AperFunction,ComponentPad*%
%ADD24R,1.800000X1.800000*%
%TD*%
%TA.AperFunction,ViaPad*%
%ADD25C,0.700000*%
%TD*%
%TA.AperFunction,Conductor*%
%ADD26C,0.300000*%
%TD*%
%TA.AperFunction,Conductor*%
%ADD27C,2.000000*%
%TD*%
%TA.AperFunction,Conductor*%
%ADD28C,1.000000*%
%TD*%
G04 APERTURE END LIST*
D10*
%TO.P,R9,2*%
%TO.N,/SIGOUT*%
X113500000Y-78510000D03*
D11*
%TO.P,R9,1*%
%TO.N,/SPK+*%
X113500000Y-93750000D03*
%TD*%
D10*
%TO.P,R8,2*%
%TO.N,GND*%
X99910000Y-73000000D03*
D11*
%TO.P,R8,1*%
%TO.N,Net-(C11-Pad2)*%
X115150000Y-73000000D03*
%TD*%
D12*
%TO.P,C1,2*%
%TO.N,/ICIN+*%
X132500000Y-58250000D03*
%TO.P,C1,1*%
%TO.N,/ICIN-*%
X132500000Y-60750000D03*
%TD*%
D13*
%TO.P,R7,2*%
%TO.N,/MUTE*%
X98080000Y-55000000D03*
D14*
%TO.P,R7,1*%
%TO.N,VEE*%
X87920000Y-55000000D03*
%TD*%
D13*
%TO.P,R6,2*%
%TO.N,Net-(C5-Pad1)*%
X118750000Y-68670000D03*
D14*
%TO.P,R6,1*%
%TO.N,/SIGOUT*%
X118750000Y-78830000D03*
%TD*%
D13*
%TO.P,R5,2*%
%TO.N,/ICIN-*%
X122000000Y-68670000D03*
D14*
%TO.P,R5,1*%
%TO.N,/SIGOUT*%
X122000000Y-78830000D03*
%TD*%
D13*
%TO.P,R4,2*%
%TO.N,/ICIN+*%
X131750000Y-68670000D03*
D14*
%TO.P,R4,1*%
%TO.N,GND*%
X131750000Y-78830000D03*
%TD*%
D13*
%TO.P,R3,2*%
%TO.N,Net-(C4-Pad2)*%
X135000000Y-68670000D03*
D14*
%TO.P,R3,1*%
%TO.N,GND*%
X135000000Y-78830000D03*
%TD*%
D13*
%TO.P,R2,2*%
%TO.N,/IN-*%
X125250000Y-78830000D03*
D14*
%TO.P,R2,1*%
%TO.N,/ICIN-*%
X125250000Y-68670000D03*
%TD*%
D13*
%TO.P,R1,2*%
%TO.N,/IN+*%
X128500000Y-78830000D03*
D14*
%TO.P,R1,1*%
%TO.N,/ICIN+*%
X128500000Y-68670000D03*
%TD*%
D12*
%TO.P,C11,2*%
%TO.N,Net-(C11-Pad2)*%
X115150000Y-68500000D03*
%TO.P,C11,1*%
%TO.N,/SIGOUT*%
X115150000Y-66000000D03*
%TD*%
%TO.P,C9,2*%
%TO.N,VEE*%
X108000000Y-57250000D03*
%TO.P,C9,1*%
%TO.N,GND*%
X108000000Y-59750000D03*
%TD*%
%TO.P,C8,2*%
%TO.N,GND*%
X108000000Y-63000000D03*
%TO.P,C8,1*%
%TO.N,VCC*%
X108000000Y-65500000D03*
%TD*%
%TO.P,C5,2*%
%TO.N,/ICIN-*%
X122000000Y-65750000D03*
%TO.P,C5,1*%
%TO.N,Net-(C5-Pad1)*%
X119500000Y-65750000D03*
%TD*%
%TO.P,C4,2*%
%TO.N,Net-(C4-Pad2)*%
X135000000Y-65750000D03*
%TO.P,C4,1*%
%TO.N,/ICIN+*%
X132500000Y-65750000D03*
%TD*%
D11*
%TO.P,J8,1*%
%TO.N,GND*%
X118000000Y-102210000D03*
X118000000Y-107290000D03*
%TD*%
%TO.P,J7,1*%
%TO.N,/SPK+*%
X108500000Y-102210000D03*
X108500000Y-107290000D03*
%TD*%
%TO.P,J6,1*%
%TO.N,VCC*%
X103000000Y-102210000D03*
X103000000Y-107290000D03*
%TD*%
%TO.P,J5,1*%
%TO.N,GND*%
X95000000Y-102210000D03*
X95000000Y-107290000D03*
%TD*%
%TO.P,J4,1*%
%TO.N,VEE*%
X88000000Y-102210000D03*
X88000000Y-107290000D03*
%TD*%
D15*
%TO.P,L1,2*%
%TO.N,/SPK+*%
X100940000Y-92600000D03*
%TO.P,L1,1*%
%TO.N,/SIGOUT*%
X108560000Y-79900000D03*
%TD*%
D16*
%TO.P,J3,3*%
%TO.N,VCC*%
X100500000Y-104750000D03*
%TO.P,J3,2*%
%TO.N,GND*%
X95500000Y-104750000D03*
%TO.P,J3,1*%
%TO.N,VEE*%
X90500000Y-104750000D03*
%TD*%
%TO.P,J2,2*%
%TO.N,GND*%
X115750000Y-104750000D03*
%TO.P,J2,1*%
%TO.N,/SPK+*%
X110750000Y-104750000D03*
%TD*%
D17*
%TO.P,J1,3*%
%TO.N,GND*%
X131250000Y-104750000D03*
%TO.P,J1,2*%
%TO.N,Net-(C12-Pad1)*%
X127750000Y-104750000D03*
%TO.P,J1,1*%
%TO.N,Net-(C13-Pad1)*%
X124250000Y-104750000D03*
%TD*%
D18*
%TO.P,H4,1*%
%TO.N,N/C*%
X140606155Y-104393845D03*
X138750000Y-103625000D03*
X136893845Y-104393845D03*
X136125000Y-106250000D03*
X136893845Y-108106155D03*
X138750000Y-108875000D03*
X140606155Y-108106155D03*
X141375000Y-106250000D03*
D19*
X138750000Y-106250000D03*
%TD*%
D18*
%TO.P,H3,1*%
%TO.N,N/C*%
X140606155Y-57143845D03*
X138750000Y-56375000D03*
X136893845Y-57143845D03*
X136125000Y-59000000D03*
X136893845Y-60856155D03*
X138750000Y-61625000D03*
X140606155Y-60856155D03*
X141375000Y-59000000D03*
D19*
X138750000Y-59000000D03*
%TD*%
D18*
%TO.P,H2,1*%
%TO.N,N/C*%
X83106155Y-104393845D03*
X81250000Y-103625000D03*
X79393845Y-104393845D03*
X78625000Y-106250000D03*
X79393845Y-108106155D03*
X81250000Y-108875000D03*
X83106155Y-108106155D03*
X83875000Y-106250000D03*
D19*
X81250000Y-106250000D03*
%TD*%
D18*
%TO.P,H1,1*%
%TO.N,N/C*%
X83106155Y-57143845D03*
X81250000Y-56375000D03*
X79393845Y-57143845D03*
X78625000Y-59000000D03*
X79393845Y-60856155D03*
X81250000Y-61625000D03*
X83106155Y-60856155D03*
X83875000Y-59000000D03*
D19*
X81250000Y-59000000D03*
%TD*%
D14*
%TO.P,C13,2*%
%TO.N,/IN-*%
X122500000Y-86250000D03*
%TO.P,C13,1*%
%TO.N,Net-(C13-Pad1)*%
X122500000Y-91250000D03*
%TD*%
%TO.P,C12,2*%
%TO.N,/IN+*%
X133250000Y-86250000D03*
%TO.P,C12,1*%
%TO.N,Net-(C12-Pad1)*%
X133250000Y-91250000D03*
%TD*%
%TO.P,C10,2*%
%TO.N,/MUTE*%
X95500000Y-59750000D03*
D20*
%TO.P,C10,1*%
%TO.N,GND*%
X95500000Y-63250000D03*
%TD*%
D14*
%TO.P,C7,2*%
%TO.N,VEE*%
X102500000Y-56750000D03*
D20*
%TO.P,C7,1*%
%TO.N,GND*%
X102500000Y-59250000D03*
%TD*%
D14*
%TO.P,C6,2*%
%TO.N,GND*%
X102500000Y-64000000D03*
D20*
%TO.P,C6,1*%
%TO.N,VCC*%
X102500000Y-66500000D03*
%TD*%
D21*
%TO.P,C3,2*%
%TO.N,VEE*%
X89500000Y-69250000D03*
D22*
%TO.P,C3,1*%
%TO.N,GND*%
X89500000Y-76750000D03*
%TD*%
D21*
%TO.P,C2,2*%
%TO.N,GND*%
X89500000Y-86250000D03*
D22*
%TO.P,C2,1*%
%TO.N,VCC*%
X89500000Y-93750000D03*
%TD*%
D23*
%TO.P,U1,11*%
%TO.N,N/C*%
X128750000Y-62250000D03*
%TO.P,U1,10*%
%TO.N,/ICIN+*%
X127050000Y-57170000D03*
%TO.P,U1,9*%
%TO.N,/ICIN-*%
X125350000Y-62250000D03*
%TO.P,U1,8*%
%TO.N,/MUTE*%
X123650000Y-57170000D03*
%TO.P,U1,7*%
%TO.N,GND*%
X121950000Y-62250000D03*
%TO.P,U1,6*%
%TO.N,N/C*%
X120250000Y-57170000D03*
%TO.P,U1,5*%
%TO.N,VCC*%
X118550000Y-62250000D03*
%TO.P,U1,4*%
%TO.N,VEE*%
X116850000Y-57170000D03*
%TO.P,U1,3*%
%TO.N,/SIGOUT*%
X115150000Y-62250000D03*
%TO.P,U1,2*%
%TO.N,N/C*%
X113450000Y-57170000D03*
D24*
%TO.P,U1,1*%
%TO.N,VCC*%
X111750000Y-62250000D03*
%TD*%
D25*
%TO.N,GND*%
X79198810Y-100792500D03*
X88198810Y-79792500D03*
X88198810Y-83792500D03*
X90198810Y-73792500D03*
X90198810Y-81792500D03*
X102198810Y-88792500D03*
X104198810Y-86792500D03*
X106198810Y-82792500D03*
X106198810Y-88792500D03*
X107198810Y-85792500D03*
X109198810Y-87792500D03*
X110198810Y-84792500D03*
X112198810Y-86792500D03*
X114198810Y-84792500D03*
X114198810Y-88792500D03*
X114198810Y-98792500D03*
X114198810Y-107792500D03*
X115198810Y-101792500D03*
X116198810Y-81792500D03*
X116198810Y-86792500D03*
X116198810Y-96792500D03*
X117198810Y-70792500D03*
X117198810Y-75792500D03*
X117198810Y-89792500D03*
X117198810Y-93792500D03*
X118198810Y-83792500D03*
X118198810Y-98000000D03*
X118198810Y-104792500D03*
X119198810Y-72792500D03*
X119198810Y-87792500D03*
X119198810Y-91792500D03*
X119198810Y-95792500D03*
X120198810Y-76792500D03*
X120198810Y-80792500D03*
X121198810Y-59792500D03*
X121198810Y-70792500D03*
X121198810Y-93792500D03*
X121198810Y-97792500D03*
X121198810Y-101792500D03*
X121198810Y-105792500D03*
X122198810Y-53792500D03*
X122198810Y-73792500D03*
X122198810Y-82792500D03*
X122198810Y-88792500D03*
X122198810Y-108792500D03*
X123198810Y-95792500D03*
X123250000Y-99250000D03*
X124198810Y-65792500D03*
X124198810Y-71792500D03*
X124198810Y-75792500D03*
X124198810Y-80792500D03*
X124198810Y-106792500D03*
X125198810Y-54792500D03*
X125198810Y-59792500D03*
X125198810Y-86792500D03*
X125198810Y-90792500D03*
X125198810Y-97792500D03*
X125198810Y-101792500D03*
X126198810Y-73792500D03*
X126198810Y-82792500D03*
X126198810Y-93792500D03*
X126198810Y-108792500D03*
X127198810Y-64792500D03*
X127198810Y-70792500D03*
X127198810Y-76792500D03*
X127198810Y-88792500D03*
X128198810Y-53792500D03*
X128198810Y-85792500D03*
X128198810Y-91792500D03*
X129198810Y-56792500D03*
X129198810Y-72792500D03*
X129198810Y-94792500D03*
X129198810Y-98792500D03*
X129198810Y-102792500D03*
X129198810Y-106792500D03*
X130198810Y-59792500D03*
X130198810Y-65792500D03*
X130198810Y-75792500D03*
X130198810Y-80792500D03*
X130198810Y-87792500D03*
X131198810Y-54792500D03*
X131198810Y-62792500D03*
X131198810Y-70792500D03*
X131198810Y-83792500D03*
X131198810Y-92792500D03*
X131198810Y-96792500D03*
X131198810Y-101500000D03*
X131198810Y-108792500D03*
X132198810Y-73792500D03*
X133198810Y-76792500D03*
X133198810Y-81792500D03*
X133198810Y-88792500D03*
X133198810Y-94792500D03*
X133198810Y-98792500D03*
X133198810Y-102792500D03*
X133198810Y-106792500D03*
X134198810Y-63792500D03*
X134198810Y-71792500D03*
X135198810Y-74792500D03*
X135198810Y-83792500D03*
X135198810Y-90792500D03*
X135198810Y-96792500D03*
X135198810Y-100792500D03*
X136198810Y-80792500D03*
X136198810Y-86792500D03*
X136198810Y-93792500D03*
X137198810Y-64792500D03*
X137198810Y-68792500D03*
X137198810Y-72792500D03*
X137198810Y-76792500D03*
X137198810Y-98792500D03*
X138198810Y-82792500D03*
X138198810Y-88792500D03*
X138198810Y-95792500D03*
X139198810Y-66792500D03*
X139198810Y-70792500D03*
X139198810Y-74792500D03*
X139198810Y-78792500D03*
X139198810Y-85792500D03*
X139198810Y-91792500D03*
X139198810Y-100792500D03*
X140198810Y-97792500D03*
X141198810Y-64792500D03*
X141198810Y-68792500D03*
X141198810Y-72792500D03*
X141198810Y-76792500D03*
X141198810Y-80792500D03*
X141198810Y-87792500D03*
X141198810Y-93792500D03*
%TD*%
D26*
%TO.N,Net-(C4-Pad2)*%
X135000000Y-65750000D02*
X135000000Y-68670000D01*
%TO.N,Net-(C5-Pad1)*%
X118750000Y-66500000D02*
X119500000Y-65750000D01*
X118750000Y-68670000D02*
X118750000Y-66500000D01*
%TO.N,/ICIN+*%
X131750000Y-67250000D02*
X131750000Y-68670000D01*
X128130000Y-58250000D02*
X127050000Y-57170000D01*
X132500000Y-58250000D02*
X128130000Y-58250000D01*
X131750000Y-66500000D02*
X131750000Y-67250000D01*
X132500000Y-65750000D02*
X131750000Y-66500000D01*
X132500000Y-65750000D02*
X132500000Y-63750000D01*
X131750000Y-68670000D02*
X128500000Y-68670000D01*
X134250000Y-60500000D02*
X134250000Y-62000000D01*
X134250000Y-60000000D02*
X134250000Y-60500000D01*
X132500000Y-63750000D02*
X134250000Y-62000000D01*
X134250000Y-60000000D02*
X132500000Y-58250000D01*
%TO.N,/ICIN-*%
X126850000Y-60750000D02*
X132500000Y-60750000D01*
X125350000Y-62250000D02*
X126850000Y-60750000D01*
X125350000Y-62400000D02*
X125350000Y-62250000D01*
X122000000Y-65750000D02*
X125350000Y-62400000D01*
X122000000Y-65750000D02*
X122000000Y-68670000D01*
X122000000Y-68670000D02*
X125250000Y-68670000D01*
%TO.N,/IN+*%
X128500000Y-78830000D02*
X128500000Y-83750000D01*
X131000000Y-86250000D02*
X128500000Y-83750000D01*
X131000000Y-86250000D02*
X133250000Y-86250000D01*
%TO.N,/IN-*%
X125250000Y-85000000D02*
X125250000Y-78830000D01*
X124000000Y-86250000D02*
X125250000Y-85000000D01*
X122500000Y-86250000D02*
X124000000Y-86250000D01*
%TO.N,/SIGOUT*%
X118750000Y-78830000D02*
X122000000Y-78830000D01*
D27*
X115150000Y-62250000D02*
X115150000Y-63900000D01*
D26*
X116750000Y-83000000D02*
X118750000Y-81000000D01*
X109500000Y-83000000D02*
X116750000Y-83000000D01*
X108560000Y-82060000D02*
X109500000Y-83000000D01*
X118750000Y-81000000D02*
X118750000Y-78830000D01*
X108560000Y-79900000D02*
X108560000Y-82060000D01*
%TO.N,Net-(C12-Pad1)*%
X131000000Y-91250000D02*
X133250000Y-91250000D01*
X127750000Y-94500000D02*
X131000000Y-91250000D01*
X127750000Y-104750000D02*
X127750000Y-94500000D01*
%TO.N,Net-(C13-Pad1)*%
X123750000Y-91250000D02*
X124250000Y-91750000D01*
X124250000Y-92000000D02*
X124250000Y-104750000D01*
X124250000Y-91750000D02*
X124250000Y-92000000D01*
X122500000Y-91250000D02*
X123750000Y-91250000D01*
D28*
%TO.N,Net-(C11-Pad2)*%
X115150000Y-68500000D02*
X115150000Y-73000000D01*
%TD*%
D26*
%TO.N,/SIGOUT*%
G36*
X114590205Y-63478470D02*
G01*
X114840624Y-63564076D01*
X115050000Y-63483795D01*
X115050000Y-63400000D01*
X115250000Y-63400000D01*
X115250000Y-63483795D01*
X115459376Y-63564076D01*
X115709795Y-63478470D01*
X115845038Y-63400000D01*
X116187868Y-63400000D01*
X117350000Y-64562132D01*
X117350000Y-66937868D01*
X116216999Y-68070869D01*
X116169116Y-67955271D01*
X116043263Y-67766918D01*
X115883082Y-67606737D01*
X115694729Y-67480884D01*
X115485443Y-67394194D01*
X115263265Y-67350000D01*
X115036735Y-67350000D01*
X114814557Y-67394194D01*
X114605271Y-67480884D01*
X114416918Y-67606737D01*
X114256737Y-67766918D01*
X114130884Y-67955271D01*
X114044194Y-68164557D01*
X114000000Y-68386735D01*
X114000000Y-68613265D01*
X114044194Y-68835443D01*
X114130884Y-69044729D01*
X114200000Y-69148169D01*
X114200001Y-71409794D01*
X113970694Y-71563011D01*
X113713011Y-71820694D01*
X113510552Y-72123697D01*
X113371095Y-72460375D01*
X113300000Y-72817791D01*
X113300000Y-73182209D01*
X113371095Y-73539625D01*
X113510552Y-73876303D01*
X113713011Y-74179306D01*
X113970694Y-74436989D01*
X114273697Y-74639448D01*
X114610375Y-74778905D01*
X114967791Y-74850000D01*
X115332209Y-74850000D01*
X115689625Y-74778905D01*
X116026303Y-74639448D01*
X116100000Y-74590206D01*
X116100000Y-80187868D01*
X114687868Y-81600000D01*
X108659979Y-81600000D01*
X108925536Y-81568659D01*
X109244052Y-81465283D01*
X109481446Y-81338392D01*
X109615421Y-81096842D01*
X108560000Y-80041421D01*
X107504579Y-81096842D01*
X107638554Y-81338392D01*
X107936875Y-81490519D01*
X108259143Y-81581524D01*
X108492915Y-81600000D01*
X106562132Y-81600000D01*
X105650000Y-80687868D01*
X105650000Y-79932973D01*
X106852092Y-79932973D01*
X106891341Y-80265536D01*
X106994717Y-80584052D01*
X107121608Y-80821446D01*
X107363158Y-80955421D01*
X108418579Y-79900000D01*
X108701421Y-79900000D01*
X109756842Y-80955421D01*
X109998392Y-80821446D01*
X110150519Y-80523125D01*
X110241524Y-80200857D01*
X110267908Y-79867027D01*
X110228659Y-79534464D01*
X110125283Y-79215948D01*
X109998392Y-78978554D01*
X109852707Y-78897750D01*
X111691089Y-78897750D01*
X111801493Y-79243201D01*
X111977170Y-79560475D01*
X112211368Y-79837380D01*
X112495088Y-80063274D01*
X112817426Y-80229477D01*
X113112251Y-80318908D01*
X113400000Y-80244620D01*
X113400000Y-78610000D01*
X113600000Y-78610000D01*
X113600000Y-80244620D01*
X113887749Y-80318908D01*
X114182574Y-80229477D01*
X114504912Y-80063274D01*
X114788632Y-79837380D01*
X115022830Y-79560475D01*
X115198507Y-79243201D01*
X115308911Y-78897750D01*
X115234798Y-78610000D01*
X113600000Y-78610000D01*
X113400000Y-78610000D01*
X111765202Y-78610000D01*
X111691089Y-78897750D01*
X109852707Y-78897750D01*
X109756842Y-78844579D01*
X108701421Y-79900000D01*
X108418579Y-79900000D01*
X107363158Y-78844579D01*
X107121608Y-78978554D01*
X106969481Y-79276875D01*
X106878476Y-79599143D01*
X106852092Y-79932973D01*
X105650000Y-79932973D01*
X105650000Y-78703158D01*
X107504579Y-78703158D01*
X108560000Y-79758579D01*
X109615421Y-78703158D01*
X109481446Y-78461608D01*
X109183125Y-78309481D01*
X108860857Y-78218476D01*
X108527027Y-78192092D01*
X108194464Y-78231341D01*
X107875948Y-78334717D01*
X107638554Y-78461608D01*
X107504579Y-78703158D01*
X105650000Y-78703158D01*
X105650000Y-78122250D01*
X111691089Y-78122250D01*
X111765202Y-78410000D01*
X113400000Y-78410000D01*
X113400000Y-76775380D01*
X113600000Y-76775380D01*
X113600000Y-78410000D01*
X115234798Y-78410000D01*
X115308911Y-78122250D01*
X115198507Y-77776799D01*
X115022830Y-77459525D01*
X114788632Y-77182620D01*
X114504912Y-76956726D01*
X114182574Y-76790523D01*
X113887749Y-76701092D01*
X113600000Y-76775380D01*
X113400000Y-76775380D01*
X113112251Y-76701092D01*
X112817426Y-76790523D01*
X112495088Y-76956726D01*
X112211368Y-77182620D01*
X111977170Y-77459525D01*
X111801493Y-77776799D01*
X111691089Y-78122250D01*
X105650000Y-78122250D01*
X105650000Y-73312132D01*
X111106066Y-67856066D01*
X111124720Y-67833336D01*
X111138582Y-67807403D01*
X111147118Y-67779264D01*
X111150000Y-67750000D01*
X111150000Y-66804871D01*
X114486551Y-66804871D01*
X114554226Y-66990143D01*
X114758841Y-67087346D01*
X114978488Y-67142764D01*
X115204726Y-67154267D01*
X115428860Y-67121412D01*
X115642279Y-67045461D01*
X115745774Y-66990143D01*
X115813449Y-66804871D01*
X115150000Y-66141421D01*
X114486551Y-66804871D01*
X111150000Y-66804871D01*
X111150000Y-66562132D01*
X111657406Y-66054726D01*
X113995733Y-66054726D01*
X114028588Y-66278860D01*
X114104539Y-66492279D01*
X114159857Y-66595774D01*
X114345129Y-66663449D01*
X115008579Y-66000000D01*
X115291421Y-66000000D01*
X115954871Y-66663449D01*
X116140143Y-66595774D01*
X116237346Y-66391159D01*
X116292764Y-66171512D01*
X116304267Y-65945274D01*
X116271412Y-65721140D01*
X116195461Y-65507721D01*
X116140143Y-65404226D01*
X115954871Y-65336551D01*
X115291421Y-66000000D01*
X115008579Y-66000000D01*
X114345129Y-65336551D01*
X114159857Y-65404226D01*
X114062654Y-65608841D01*
X114007236Y-65828488D01*
X113995733Y-66054726D01*
X111657406Y-66054726D01*
X112517003Y-65195129D01*
X114486551Y-65195129D01*
X115150000Y-65858579D01*
X115813449Y-65195129D01*
X115745774Y-65009857D01*
X115541159Y-64912654D01*
X115321512Y-64857236D01*
X115095274Y-64845733D01*
X114871140Y-64878588D01*
X114657721Y-64954539D01*
X114554226Y-65009857D01*
X114486551Y-65195129D01*
X112517003Y-65195129D01*
X114312132Y-63400000D01*
X114454962Y-63400000D01*
X114590205Y-63478470D01*
G37*
X114590205Y-63478470D02*
X114840624Y-63564076D01*
X115050000Y-63483795D01*
X115050000Y-63400000D01*
X115250000Y-63400000D01*
X115250000Y-63483795D01*
X115459376Y-63564076D01*
X115709795Y-63478470D01*
X115845038Y-63400000D01*
X116187868Y-63400000D01*
X117350000Y-64562132D01*
X117350000Y-66937868D01*
X116216999Y-68070869D01*
X116169116Y-67955271D01*
X116043263Y-67766918D01*
X115883082Y-67606737D01*
X115694729Y-67480884D01*
X115485443Y-67394194D01*
X115263265Y-67350000D01*
X115036735Y-67350000D01*
X114814557Y-67394194D01*
X114605271Y-67480884D01*
X114416918Y-67606737D01*
X114256737Y-67766918D01*
X114130884Y-67955271D01*
X114044194Y-68164557D01*
X114000000Y-68386735D01*
X114000000Y-68613265D01*
X114044194Y-68835443D01*
X114130884Y-69044729D01*
X114200000Y-69148169D01*
X114200001Y-71409794D01*
X113970694Y-71563011D01*
X113713011Y-71820694D01*
X113510552Y-72123697D01*
X113371095Y-72460375D01*
X113300000Y-72817791D01*
X113300000Y-73182209D01*
X113371095Y-73539625D01*
X113510552Y-73876303D01*
X113713011Y-74179306D01*
X113970694Y-74436989D01*
X114273697Y-74639448D01*
X114610375Y-74778905D01*
X114967791Y-74850000D01*
X115332209Y-74850000D01*
X115689625Y-74778905D01*
X116026303Y-74639448D01*
X116100000Y-74590206D01*
X116100000Y-80187868D01*
X114687868Y-81600000D01*
X108659979Y-81600000D01*
X108925536Y-81568659D01*
X109244052Y-81465283D01*
X109481446Y-81338392D01*
X109615421Y-81096842D01*
X108560000Y-80041421D01*
X107504579Y-81096842D01*
X107638554Y-81338392D01*
X107936875Y-81490519D01*
X108259143Y-81581524D01*
X108492915Y-81600000D01*
X106562132Y-81600000D01*
X105650000Y-80687868D01*
X105650000Y-79932973D01*
X106852092Y-79932973D01*
X106891341Y-80265536D01*
X106994717Y-80584052D01*
X107121608Y-80821446D01*
X107363158Y-80955421D01*
X108418579Y-79900000D01*
X108701421Y-79900000D01*
X109756842Y-80955421D01*
X109998392Y-80821446D01*
X110150519Y-80523125D01*
X110241524Y-80200857D01*
X110267908Y-79867027D01*
X110228659Y-79534464D01*
X110125283Y-79215948D01*
X109998392Y-78978554D01*
X109852707Y-78897750D01*
X111691089Y-78897750D01*
X111801493Y-79243201D01*
X111977170Y-79560475D01*
X112211368Y-79837380D01*
X112495088Y-80063274D01*
X112817426Y-80229477D01*
X113112251Y-80318908D01*
X113400000Y-80244620D01*
X113400000Y-78610000D01*
X113600000Y-78610000D01*
X113600000Y-80244620D01*
X113887749Y-80318908D01*
X114182574Y-80229477D01*
X114504912Y-80063274D01*
X114788632Y-79837380D01*
X115022830Y-79560475D01*
X115198507Y-79243201D01*
X115308911Y-78897750D01*
X115234798Y-78610000D01*
X113600000Y-78610000D01*
X113400000Y-78610000D01*
X111765202Y-78610000D01*
X111691089Y-78897750D01*
X109852707Y-78897750D01*
X109756842Y-78844579D01*
X108701421Y-79900000D01*
X108418579Y-79900000D01*
X107363158Y-78844579D01*
X107121608Y-78978554D01*
X106969481Y-79276875D01*
X106878476Y-79599143D01*
X106852092Y-79932973D01*
X105650000Y-79932973D01*
X105650000Y-78703158D01*
X107504579Y-78703158D01*
X108560000Y-79758579D01*
X109615421Y-78703158D01*
X109481446Y-78461608D01*
X109183125Y-78309481D01*
X108860857Y-78218476D01*
X108527027Y-78192092D01*
X108194464Y-78231341D01*
X107875948Y-78334717D01*
X107638554Y-78461608D01*
X107504579Y-78703158D01*
X105650000Y-78703158D01*
X105650000Y-78122250D01*
X111691089Y-78122250D01*
X111765202Y-78410000D01*
X113400000Y-78410000D01*
X113400000Y-76775380D01*
X113600000Y-76775380D01*
X113600000Y-78410000D01*
X115234798Y-78410000D01*
X115308911Y-78122250D01*
X115198507Y-77776799D01*
X115022830Y-77459525D01*
X114788632Y-77182620D01*
X114504912Y-76956726D01*
X114182574Y-76790523D01*
X113887749Y-76701092D01*
X113600000Y-76775380D01*
X113400000Y-76775380D01*
X113112251Y-76701092D01*
X112817426Y-76790523D01*
X112495088Y-76956726D01*
X112211368Y-77182620D01*
X111977170Y-77459525D01*
X111801493Y-77776799D01*
X111691089Y-78122250D01*
X105650000Y-78122250D01*
X105650000Y-73312132D01*
X111106066Y-67856066D01*
X111124720Y-67833336D01*
X111138582Y-67807403D01*
X111147118Y-67779264D01*
X111150000Y-67750000D01*
X111150000Y-66804871D01*
X114486551Y-66804871D01*
X114554226Y-66990143D01*
X114758841Y-67087346D01*
X114978488Y-67142764D01*
X115204726Y-67154267D01*
X115428860Y-67121412D01*
X115642279Y-67045461D01*
X115745774Y-66990143D01*
X115813449Y-66804871D01*
X115150000Y-66141421D01*
X114486551Y-66804871D01*
X111150000Y-66804871D01*
X111150000Y-66562132D01*
X111657406Y-66054726D01*
X113995733Y-66054726D01*
X114028588Y-66278860D01*
X114104539Y-66492279D01*
X114159857Y-66595774D01*
X114345129Y-66663449D01*
X115008579Y-66000000D01*
X115291421Y-66000000D01*
X115954871Y-66663449D01*
X116140143Y-66595774D01*
X116237346Y-66391159D01*
X116292764Y-66171512D01*
X116304267Y-65945274D01*
X116271412Y-65721140D01*
X116195461Y-65507721D01*
X116140143Y-65404226D01*
X115954871Y-65336551D01*
X115291421Y-66000000D01*
X115008579Y-66000000D01*
X114345129Y-65336551D01*
X114159857Y-65404226D01*
X114062654Y-65608841D01*
X114007236Y-65828488D01*
X113995733Y-66054726D01*
X111657406Y-66054726D01*
X112517003Y-65195129D01*
X114486551Y-65195129D01*
X115150000Y-65858579D01*
X115813449Y-65195129D01*
X115745774Y-65009857D01*
X115541159Y-64912654D01*
X115321512Y-64857236D01*
X115095274Y-64845733D01*
X114871140Y-64878588D01*
X114657721Y-64954539D01*
X114554226Y-65009857D01*
X114486551Y-65195129D01*
X112517003Y-65195129D01*
X114312132Y-63400000D01*
X114454962Y-63400000D01*
X114590205Y-63478470D01*
%TO.N,VEE*%
G36*
X118600000Y-54062132D02*
G01*
X118600000Y-57937868D01*
X117687868Y-58850000D01*
X108750000Y-58850000D01*
X108726468Y-58852318D01*
X108544729Y-58730884D01*
X108335443Y-58644194D01*
X108113265Y-58600000D01*
X107886735Y-58600000D01*
X107664557Y-58644194D01*
X107455271Y-58730884D01*
X107266918Y-58856737D01*
X107106737Y-59016918D01*
X106980884Y-59205271D01*
X106894194Y-59414557D01*
X106850000Y-59636735D01*
X106850000Y-59863265D01*
X106862377Y-59925491D01*
X103937868Y-62850000D01*
X102990060Y-62850000D01*
X102864611Y-62798037D01*
X102623114Y-62750000D01*
X102376886Y-62750000D01*
X102135389Y-62798037D01*
X102009940Y-62850000D01*
X99500000Y-62850000D01*
X99470736Y-62852882D01*
X99442597Y-62861418D01*
X99416664Y-62875280D01*
X99393934Y-62893934D01*
X86643934Y-75643934D01*
X86625280Y-75666664D01*
X86611418Y-75692597D01*
X86602882Y-75720736D01*
X86600000Y-75750000D01*
X86600000Y-95000000D01*
X86602882Y-95029264D01*
X86611418Y-95057403D01*
X86625280Y-95083336D01*
X86643934Y-95106066D01*
X93100000Y-101562132D01*
X93100000Y-109525000D01*
X85650000Y-109525000D01*
X85650000Y-108593612D01*
X86837809Y-108593612D01*
X86989820Y-108850524D01*
X87313674Y-109017615D01*
X87663902Y-109118315D01*
X88027047Y-109148755D01*
X88389152Y-109107762D01*
X88736302Y-108996915D01*
X89010180Y-108850524D01*
X89162191Y-108593612D01*
X88000000Y-107431421D01*
X86837809Y-108593612D01*
X85650000Y-108593612D01*
X85650000Y-107317047D01*
X86141245Y-107317047D01*
X86182238Y-107679152D01*
X86293085Y-108026302D01*
X86439476Y-108300180D01*
X86696388Y-108452191D01*
X87858579Y-107290000D01*
X88141421Y-107290000D01*
X89303612Y-108452191D01*
X89560524Y-108300180D01*
X89727615Y-107976326D01*
X89828315Y-107626098D01*
X89858755Y-107262953D01*
X89817762Y-106900848D01*
X89706915Y-106553698D01*
X89560524Y-106279820D01*
X89303612Y-106127809D01*
X88141421Y-107290000D01*
X87858579Y-107290000D01*
X86696388Y-106127809D01*
X86439476Y-106279820D01*
X86272385Y-106603674D01*
X86171685Y-106953902D01*
X86141245Y-107317047D01*
X85650000Y-107317047D01*
X85650000Y-105986388D01*
X86837809Y-105986388D01*
X88000000Y-107148579D01*
X89162191Y-105986388D01*
X89159853Y-105982436D01*
X89408986Y-105982436D01*
X89548973Y-106229107D01*
X89855806Y-106386222D01*
X90187395Y-106480459D01*
X90530997Y-106508195D01*
X90873409Y-106468364D01*
X91201470Y-106362498D01*
X91451027Y-106229107D01*
X91591014Y-105982436D01*
X90500000Y-104891421D01*
X89408986Y-105982436D01*
X89159853Y-105982436D01*
X89010180Y-105729476D01*
X88686326Y-105562385D01*
X88336098Y-105461685D01*
X87972953Y-105431245D01*
X87610848Y-105472238D01*
X87263698Y-105583085D01*
X86989820Y-105729476D01*
X86837809Y-105986388D01*
X85650000Y-105986388D01*
X85650000Y-105000000D01*
X85647118Y-104970736D01*
X85638582Y-104942597D01*
X85624720Y-104916664D01*
X85606066Y-104893934D01*
X85493129Y-104780997D01*
X88741805Y-104780997D01*
X88781636Y-105123409D01*
X88887502Y-105451470D01*
X89020893Y-105701027D01*
X89267564Y-105841014D01*
X90358579Y-104750000D01*
X90641421Y-104750000D01*
X91732436Y-105841014D01*
X91979107Y-105701027D01*
X92136222Y-105394194D01*
X92230459Y-105062605D01*
X92258195Y-104719003D01*
X92218364Y-104376591D01*
X92112498Y-104048530D01*
X91979107Y-103798973D01*
X91732436Y-103658986D01*
X90641421Y-104750000D01*
X90358579Y-104750000D01*
X89267564Y-103658986D01*
X89020893Y-103798973D01*
X88863778Y-104105806D01*
X88769541Y-104437395D01*
X88741805Y-104780997D01*
X85493129Y-104780997D01*
X84225744Y-103513612D01*
X86837809Y-103513612D01*
X86989820Y-103770524D01*
X87313674Y-103937615D01*
X87663902Y-104038315D01*
X88027047Y-104068755D01*
X88389152Y-104027762D01*
X88736302Y-103916915D01*
X89010180Y-103770524D01*
X89159852Y-103517564D01*
X89408986Y-103517564D01*
X90500000Y-104608579D01*
X91591014Y-103517564D01*
X91451027Y-103270893D01*
X91144194Y-103113778D01*
X90812605Y-103019541D01*
X90469003Y-102991805D01*
X90126591Y-103031636D01*
X89798530Y-103137502D01*
X89548973Y-103270893D01*
X89408986Y-103517564D01*
X89159852Y-103517564D01*
X89162191Y-103513612D01*
X88000000Y-102351421D01*
X86837809Y-103513612D01*
X84225744Y-103513612D01*
X82949179Y-102237047D01*
X86141245Y-102237047D01*
X86182238Y-102599152D01*
X86293085Y-102946302D01*
X86439476Y-103220180D01*
X86696388Y-103372191D01*
X87858579Y-102210000D01*
X88141421Y-102210000D01*
X89303612Y-103372191D01*
X89560524Y-103220180D01*
X89727615Y-102896326D01*
X89828315Y-102546098D01*
X89858755Y-102182953D01*
X89817762Y-101820848D01*
X89706915Y-101473698D01*
X89560524Y-101199820D01*
X89303612Y-101047809D01*
X88141421Y-102210000D01*
X87858579Y-102210000D01*
X86696388Y-101047809D01*
X86439476Y-101199820D01*
X86272385Y-101523674D01*
X86171685Y-101873902D01*
X86141245Y-102237047D01*
X82949179Y-102237047D01*
X81618520Y-100906388D01*
X86837809Y-100906388D01*
X88000000Y-102068579D01*
X89162191Y-100906388D01*
X89010180Y-100649476D01*
X88686326Y-100482385D01*
X88336098Y-100381685D01*
X87972953Y-100351245D01*
X87610848Y-100392238D01*
X87263698Y-100503085D01*
X86989820Y-100649476D01*
X86837809Y-100906388D01*
X81618520Y-100906388D01*
X78150000Y-97437868D01*
X78150000Y-70411243D01*
X88480179Y-70411243D01*
X88608138Y-70647674D01*
X88897947Y-70794812D01*
X89210892Y-70882584D01*
X89534949Y-70907616D01*
X89857662Y-70868947D01*
X90166631Y-70768063D01*
X90391862Y-70647674D01*
X90519821Y-70411243D01*
X89500000Y-69391421D01*
X88480179Y-70411243D01*
X78150000Y-70411243D01*
X78150000Y-69284949D01*
X87842384Y-69284949D01*
X87881053Y-69607662D01*
X87981937Y-69916631D01*
X88102326Y-70141862D01*
X88338757Y-70269821D01*
X89358579Y-69250000D01*
X89641421Y-69250000D01*
X90661243Y-70269821D01*
X90897674Y-70141862D01*
X91044812Y-69852053D01*
X91132584Y-69539108D01*
X91157616Y-69215051D01*
X91118947Y-68892338D01*
X91018063Y-68583369D01*
X90897674Y-68358138D01*
X90661243Y-68230179D01*
X89641421Y-69250000D01*
X89358579Y-69250000D01*
X88338757Y-68230179D01*
X88102326Y-68358138D01*
X87955188Y-68647947D01*
X87867416Y-68960892D01*
X87842384Y-69284949D01*
X78150000Y-69284949D01*
X78150000Y-68088757D01*
X88480179Y-68088757D01*
X89500000Y-69108579D01*
X90519821Y-68088757D01*
X90391862Y-67852326D01*
X90102053Y-67705188D01*
X89789108Y-67617416D01*
X89465051Y-67592384D01*
X89142338Y-67631053D01*
X88833369Y-67731937D01*
X88608138Y-67852326D01*
X88480179Y-68088757D01*
X78150000Y-68088757D01*
X78150000Y-63400000D01*
X84750000Y-63400000D01*
X84779264Y-63397118D01*
X84807403Y-63388582D01*
X84833336Y-63374720D01*
X84856066Y-63356066D01*
X85606066Y-62606066D01*
X85624720Y-62583336D01*
X85638582Y-62557403D01*
X85647118Y-62529264D01*
X85650000Y-62500000D01*
X85650000Y-62450000D01*
X94247823Y-62450000D01*
X94247823Y-64050000D01*
X94256511Y-64138215D01*
X94282243Y-64223041D01*
X94324029Y-64301216D01*
X94380263Y-64369737D01*
X94448784Y-64425971D01*
X94526959Y-64467757D01*
X94611785Y-64493489D01*
X94700000Y-64502177D01*
X96300000Y-64502177D01*
X96388215Y-64493489D01*
X96473041Y-64467757D01*
X96551216Y-64425971D01*
X96619737Y-64369737D01*
X96675971Y-64301216D01*
X96717757Y-64223041D01*
X96743489Y-64138215D01*
X96752177Y-64050000D01*
X96752177Y-62450000D01*
X96743489Y-62361785D01*
X96717757Y-62276959D01*
X96675971Y-62198784D01*
X96619737Y-62130263D01*
X96551216Y-62074029D01*
X96473041Y-62032243D01*
X96388215Y-62006511D01*
X96300000Y-61997823D01*
X94700000Y-61997823D01*
X94611785Y-62006511D01*
X94526959Y-62032243D01*
X94448784Y-62074029D01*
X94380263Y-62130263D01*
X94324029Y-62198784D01*
X94282243Y-62276959D01*
X94256511Y-62361785D01*
X94247823Y-62450000D01*
X85650000Y-62450000D01*
X85650000Y-59626886D01*
X94250000Y-59626886D01*
X94250000Y-59873114D01*
X94298037Y-60114611D01*
X94392265Y-60342097D01*
X94529062Y-60546828D01*
X94703172Y-60720938D01*
X94907903Y-60857735D01*
X95135389Y-60951963D01*
X95376886Y-61000000D01*
X95623114Y-61000000D01*
X95864611Y-60951963D01*
X96092097Y-60857735D01*
X96296828Y-60720938D01*
X96470938Y-60546828D01*
X96607735Y-60342097D01*
X96701963Y-60114611D01*
X96750000Y-59873114D01*
X96750000Y-59626886D01*
X96701963Y-59385389D01*
X96607735Y-59157903D01*
X96470938Y-58953172D01*
X96296828Y-58779062D01*
X96092097Y-58642265D01*
X95864611Y-58548037D01*
X95623114Y-58500000D01*
X95376886Y-58500000D01*
X95135389Y-58548037D01*
X94907903Y-58642265D01*
X94703172Y-58779062D01*
X94529062Y-58953172D01*
X94392265Y-59157903D01*
X94298037Y-59385389D01*
X94250000Y-59626886D01*
X85650000Y-59626886D01*
X85650000Y-58450000D01*
X101247823Y-58450000D01*
X101247823Y-60050000D01*
X101256511Y-60138215D01*
X101282243Y-60223041D01*
X101324029Y-60301216D01*
X101380263Y-60369737D01*
X101448784Y-60425971D01*
X101526959Y-60467757D01*
X101611785Y-60493489D01*
X101700000Y-60502177D01*
X103300000Y-60502177D01*
X103388215Y-60493489D01*
X103473041Y-60467757D01*
X103551216Y-60425971D01*
X103619737Y-60369737D01*
X103675971Y-60301216D01*
X103717757Y-60223041D01*
X103743489Y-60138215D01*
X103752177Y-60050000D01*
X103752177Y-58450000D01*
X103743489Y-58361785D01*
X103717757Y-58276959D01*
X103675971Y-58198784D01*
X103619737Y-58130263D01*
X103551216Y-58074029D01*
X103515375Y-58054871D01*
X107336551Y-58054871D01*
X107404226Y-58240143D01*
X107608841Y-58337346D01*
X107828488Y-58392764D01*
X108054726Y-58404267D01*
X108278860Y-58371412D01*
X108492279Y-58295461D01*
X108595774Y-58240143D01*
X108663449Y-58054871D01*
X108000000Y-57391421D01*
X107336551Y-58054871D01*
X103515375Y-58054871D01*
X103473041Y-58032243D01*
X103388215Y-58006511D01*
X103300000Y-57997823D01*
X102602380Y-57997823D01*
X102794633Y-57971004D01*
X103027178Y-57890063D01*
X103155042Y-57821717D01*
X103234802Y-57626223D01*
X102500000Y-56891421D01*
X101765198Y-57626223D01*
X101844958Y-57821717D01*
X102066626Y-57928917D01*
X102304948Y-57990812D01*
X102426222Y-57997823D01*
X101700000Y-57997823D01*
X101611785Y-58006511D01*
X101526959Y-58032243D01*
X101448784Y-58074029D01*
X101380263Y-58130263D01*
X101324029Y-58198784D01*
X101282243Y-58276959D01*
X101256511Y-58361785D01*
X101247823Y-58450000D01*
X85650000Y-58450000D01*
X85650000Y-56800766D01*
X101244977Y-56800766D01*
X101278996Y-57044633D01*
X101359937Y-57277178D01*
X101428283Y-57405042D01*
X101623777Y-57484802D01*
X102358579Y-56750000D01*
X102641421Y-56750000D01*
X103376223Y-57484802D01*
X103571717Y-57405042D01*
X103620230Y-57304726D01*
X106845733Y-57304726D01*
X106878588Y-57528860D01*
X106954539Y-57742279D01*
X107009857Y-57845774D01*
X107195129Y-57913449D01*
X107858579Y-57250000D01*
X108141421Y-57250000D01*
X108804871Y-57913449D01*
X108990143Y-57845774D01*
X109087346Y-57641159D01*
X109142764Y-57421512D01*
X109154267Y-57195274D01*
X109131072Y-57037037D01*
X112100000Y-57037037D01*
X112100000Y-57302963D01*
X112151880Y-57563780D01*
X112253646Y-57809465D01*
X112401387Y-58030575D01*
X112589425Y-58218613D01*
X112810535Y-58366354D01*
X113056220Y-58468120D01*
X113317037Y-58520000D01*
X113582963Y-58520000D01*
X113843780Y-58468120D01*
X114089465Y-58366354D01*
X114310575Y-58218613D01*
X114498613Y-58030575D01*
X114646354Y-57809465D01*
X114748120Y-57563780D01*
X114764909Y-57479375D01*
X115535928Y-57479375D01*
X115585506Y-57642825D01*
X115702046Y-57880430D01*
X115862702Y-58090734D01*
X116061299Y-58265655D01*
X116290205Y-58398470D01*
X116540624Y-58484076D01*
X116750000Y-58403795D01*
X116750000Y-57270000D01*
X116950000Y-57270000D01*
X116950000Y-58403795D01*
X117159376Y-58484076D01*
X117409795Y-58398470D01*
X117638701Y-58265655D01*
X117837298Y-58090734D01*
X117997954Y-57880430D01*
X118114494Y-57642825D01*
X118164072Y-57479375D01*
X118083453Y-57270000D01*
X116950000Y-57270000D01*
X116750000Y-57270000D01*
X115616547Y-57270000D01*
X115535928Y-57479375D01*
X114764909Y-57479375D01*
X114800000Y-57302963D01*
X114800000Y-57037037D01*
X114764910Y-56860625D01*
X115535928Y-56860625D01*
X115616547Y-57070000D01*
X116750000Y-57070000D01*
X116750000Y-55936205D01*
X116950000Y-55936205D01*
X116950000Y-57070000D01*
X118083453Y-57070000D01*
X118164072Y-56860625D01*
X118114494Y-56697175D01*
X117997954Y-56459570D01*
X117837298Y-56249266D01*
X117638701Y-56074345D01*
X117409795Y-55941530D01*
X117159376Y-55855924D01*
X116950000Y-55936205D01*
X116750000Y-55936205D01*
X116540624Y-55855924D01*
X116290205Y-55941530D01*
X116061299Y-56074345D01*
X115862702Y-56249266D01*
X115702046Y-56459570D01*
X115585506Y-56697175D01*
X115535928Y-56860625D01*
X114764910Y-56860625D01*
X114748120Y-56776220D01*
X114646354Y-56530535D01*
X114498613Y-56309425D01*
X114310575Y-56121387D01*
X114089465Y-55973646D01*
X113843780Y-55871880D01*
X113582963Y-55820000D01*
X113317037Y-55820000D01*
X113056220Y-55871880D01*
X112810535Y-55973646D01*
X112589425Y-56121387D01*
X112401387Y-56309425D01*
X112253646Y-56530535D01*
X112151880Y-56776220D01*
X112100000Y-57037037D01*
X109131072Y-57037037D01*
X109121412Y-56971140D01*
X109045461Y-56757721D01*
X108990143Y-56654226D01*
X108804871Y-56586551D01*
X108141421Y-57250000D01*
X107858579Y-57250000D01*
X107195129Y-56586551D01*
X107009857Y-56654226D01*
X106912654Y-56858841D01*
X106857236Y-57078488D01*
X106845733Y-57304726D01*
X103620230Y-57304726D01*
X103678917Y-57183374D01*
X103740812Y-56945052D01*
X103755023Y-56699234D01*
X103721004Y-56455367D01*
X103717441Y-56445129D01*
X107336551Y-56445129D01*
X108000000Y-57108579D01*
X108663449Y-56445129D01*
X108595774Y-56259857D01*
X108391159Y-56162654D01*
X108171512Y-56107236D01*
X107945274Y-56095733D01*
X107721140Y-56128588D01*
X107507721Y-56204539D01*
X107404226Y-56259857D01*
X107336551Y-56445129D01*
X103717441Y-56445129D01*
X103640063Y-56222822D01*
X103571717Y-56094958D01*
X103376223Y-56015198D01*
X102641421Y-56750000D01*
X102358579Y-56750000D01*
X101623777Y-56015198D01*
X101428283Y-56094958D01*
X101321083Y-56316626D01*
X101259188Y-56554948D01*
X101244977Y-56800766D01*
X85650000Y-56800766D01*
X85650000Y-55876223D01*
X87185198Y-55876223D01*
X87264958Y-56071717D01*
X87486626Y-56178917D01*
X87724948Y-56240812D01*
X87970766Y-56255023D01*
X88214633Y-56221004D01*
X88447178Y-56140063D01*
X88575042Y-56071717D01*
X88654802Y-55876223D01*
X87920000Y-55141421D01*
X87185198Y-55876223D01*
X85650000Y-55876223D01*
X85650000Y-55050766D01*
X86664977Y-55050766D01*
X86698996Y-55294633D01*
X86779937Y-55527178D01*
X86848283Y-55655042D01*
X87043777Y-55734802D01*
X87778579Y-55000000D01*
X88061421Y-55000000D01*
X88796223Y-55734802D01*
X88991717Y-55655042D01*
X89098917Y-55433374D01*
X89160812Y-55195052D01*
X89175023Y-54949234D01*
X89164931Y-54876886D01*
X96830000Y-54876886D01*
X96830000Y-55123114D01*
X96878037Y-55364611D01*
X96972265Y-55592097D01*
X97109062Y-55796828D01*
X97283172Y-55970938D01*
X97487903Y-56107735D01*
X97715389Y-56201963D01*
X97956886Y-56250000D01*
X98203114Y-56250000D01*
X98444611Y-56201963D01*
X98672097Y-56107735D01*
X98876828Y-55970938D01*
X98973989Y-55873777D01*
X101765198Y-55873777D01*
X102500000Y-56608579D01*
X103234802Y-55873777D01*
X103155042Y-55678283D01*
X102933374Y-55571083D01*
X102695052Y-55509188D01*
X102449234Y-55494977D01*
X102205367Y-55528996D01*
X101972822Y-55609937D01*
X101844958Y-55678283D01*
X101765198Y-55873777D01*
X98973989Y-55873777D01*
X99050938Y-55796828D01*
X99187735Y-55592097D01*
X99281963Y-55364611D01*
X99330000Y-55123114D01*
X99330000Y-54876886D01*
X99281963Y-54635389D01*
X99187735Y-54407903D01*
X99050938Y-54203172D01*
X98876828Y-54029062D01*
X98672097Y-53892265D01*
X98444611Y-53798037D01*
X98203114Y-53750000D01*
X97956886Y-53750000D01*
X97715389Y-53798037D01*
X97487903Y-53892265D01*
X97283172Y-54029062D01*
X97109062Y-54203172D01*
X96972265Y-54407903D01*
X96878037Y-54635389D01*
X96830000Y-54876886D01*
X89164931Y-54876886D01*
X89141004Y-54705367D01*
X89060063Y-54472822D01*
X88991717Y-54344958D01*
X88796223Y-54265198D01*
X88061421Y-55000000D01*
X87778579Y-55000000D01*
X87043777Y-54265198D01*
X86848283Y-54344958D01*
X86741083Y-54566626D01*
X86679188Y-54804948D01*
X86664977Y-55050766D01*
X85650000Y-55050766D01*
X85650000Y-54123777D01*
X87185198Y-54123777D01*
X87920000Y-54858579D01*
X88654802Y-54123777D01*
X88575042Y-53928283D01*
X88353374Y-53821083D01*
X88115052Y-53759188D01*
X87869234Y-53744977D01*
X87625367Y-53778996D01*
X87392822Y-53859937D01*
X87264958Y-53928283D01*
X87185198Y-54123777D01*
X85650000Y-54123777D01*
X85650000Y-53812132D01*
X86487132Y-52975000D01*
X117512868Y-52975000D01*
X118600000Y-54062132D01*
G37*
X118600000Y-54062132D02*
X118600000Y-57937868D01*
X117687868Y-58850000D01*
X108750000Y-58850000D01*
X108726468Y-58852318D01*
X108544729Y-58730884D01*
X108335443Y-58644194D01*
X108113265Y-58600000D01*
X107886735Y-58600000D01*
X107664557Y-58644194D01*
X107455271Y-58730884D01*
X107266918Y-58856737D01*
X107106737Y-59016918D01*
X106980884Y-59205271D01*
X106894194Y-59414557D01*
X106850000Y-59636735D01*
X106850000Y-59863265D01*
X106862377Y-59925491D01*
X103937868Y-62850000D01*
X102990060Y-62850000D01*
X102864611Y-62798037D01*
X102623114Y-62750000D01*
X102376886Y-62750000D01*
X102135389Y-62798037D01*
X102009940Y-62850000D01*
X99500000Y-62850000D01*
X99470736Y-62852882D01*
X99442597Y-62861418D01*
X99416664Y-62875280D01*
X99393934Y-62893934D01*
X86643934Y-75643934D01*
X86625280Y-75666664D01*
X86611418Y-75692597D01*
X86602882Y-75720736D01*
X86600000Y-75750000D01*
X86600000Y-95000000D01*
X86602882Y-95029264D01*
X86611418Y-95057403D01*
X86625280Y-95083336D01*
X86643934Y-95106066D01*
X93100000Y-101562132D01*
X93100000Y-109525000D01*
X85650000Y-109525000D01*
X85650000Y-108593612D01*
X86837809Y-108593612D01*
X86989820Y-108850524D01*
X87313674Y-109017615D01*
X87663902Y-109118315D01*
X88027047Y-109148755D01*
X88389152Y-109107762D01*
X88736302Y-108996915D01*
X89010180Y-108850524D01*
X89162191Y-108593612D01*
X88000000Y-107431421D01*
X86837809Y-108593612D01*
X85650000Y-108593612D01*
X85650000Y-107317047D01*
X86141245Y-107317047D01*
X86182238Y-107679152D01*
X86293085Y-108026302D01*
X86439476Y-108300180D01*
X86696388Y-108452191D01*
X87858579Y-107290000D01*
X88141421Y-107290000D01*
X89303612Y-108452191D01*
X89560524Y-108300180D01*
X89727615Y-107976326D01*
X89828315Y-107626098D01*
X89858755Y-107262953D01*
X89817762Y-106900848D01*
X89706915Y-106553698D01*
X89560524Y-106279820D01*
X89303612Y-106127809D01*
X88141421Y-107290000D01*
X87858579Y-107290000D01*
X86696388Y-106127809D01*
X86439476Y-106279820D01*
X86272385Y-106603674D01*
X86171685Y-106953902D01*
X86141245Y-107317047D01*
X85650000Y-107317047D01*
X85650000Y-105986388D01*
X86837809Y-105986388D01*
X88000000Y-107148579D01*
X89162191Y-105986388D01*
X89159853Y-105982436D01*
X89408986Y-105982436D01*
X89548973Y-106229107D01*
X89855806Y-106386222D01*
X90187395Y-106480459D01*
X90530997Y-106508195D01*
X90873409Y-106468364D01*
X91201470Y-106362498D01*
X91451027Y-106229107D01*
X91591014Y-105982436D01*
X90500000Y-104891421D01*
X89408986Y-105982436D01*
X89159853Y-105982436D01*
X89010180Y-105729476D01*
X88686326Y-105562385D01*
X88336098Y-105461685D01*
X87972953Y-105431245D01*
X87610848Y-105472238D01*
X87263698Y-105583085D01*
X86989820Y-105729476D01*
X86837809Y-105986388D01*
X85650000Y-105986388D01*
X85650000Y-105000000D01*
X85647118Y-104970736D01*
X85638582Y-104942597D01*
X85624720Y-104916664D01*
X85606066Y-104893934D01*
X85493129Y-104780997D01*
X88741805Y-104780997D01*
X88781636Y-105123409D01*
X88887502Y-105451470D01*
X89020893Y-105701027D01*
X89267564Y-105841014D01*
X90358579Y-104750000D01*
X90641421Y-104750000D01*
X91732436Y-105841014D01*
X91979107Y-105701027D01*
X92136222Y-105394194D01*
X92230459Y-105062605D01*
X92258195Y-104719003D01*
X92218364Y-104376591D01*
X92112498Y-104048530D01*
X91979107Y-103798973D01*
X91732436Y-103658986D01*
X90641421Y-104750000D01*
X90358579Y-104750000D01*
X89267564Y-103658986D01*
X89020893Y-103798973D01*
X88863778Y-104105806D01*
X88769541Y-104437395D01*
X88741805Y-104780997D01*
X85493129Y-104780997D01*
X84225744Y-103513612D01*
X86837809Y-103513612D01*
X86989820Y-103770524D01*
X87313674Y-103937615D01*
X87663902Y-104038315D01*
X88027047Y-104068755D01*
X88389152Y-104027762D01*
X88736302Y-103916915D01*
X89010180Y-103770524D01*
X89159852Y-103517564D01*
X89408986Y-103517564D01*
X90500000Y-104608579D01*
X91591014Y-103517564D01*
X91451027Y-103270893D01*
X91144194Y-103113778D01*
X90812605Y-103019541D01*
X90469003Y-102991805D01*
X90126591Y-103031636D01*
X89798530Y-103137502D01*
X89548973Y-103270893D01*
X89408986Y-103517564D01*
X89159852Y-103517564D01*
X89162191Y-103513612D01*
X88000000Y-102351421D01*
X86837809Y-103513612D01*
X84225744Y-103513612D01*
X82949179Y-102237047D01*
X86141245Y-102237047D01*
X86182238Y-102599152D01*
X86293085Y-102946302D01*
X86439476Y-103220180D01*
X86696388Y-103372191D01*
X87858579Y-102210000D01*
X88141421Y-102210000D01*
X89303612Y-103372191D01*
X89560524Y-103220180D01*
X89727615Y-102896326D01*
X89828315Y-102546098D01*
X89858755Y-102182953D01*
X89817762Y-101820848D01*
X89706915Y-101473698D01*
X89560524Y-101199820D01*
X89303612Y-101047809D01*
X88141421Y-102210000D01*
X87858579Y-102210000D01*
X86696388Y-101047809D01*
X86439476Y-101199820D01*
X86272385Y-101523674D01*
X86171685Y-101873902D01*
X86141245Y-102237047D01*
X82949179Y-102237047D01*
X81618520Y-100906388D01*
X86837809Y-100906388D01*
X88000000Y-102068579D01*
X89162191Y-100906388D01*
X89010180Y-100649476D01*
X88686326Y-100482385D01*
X88336098Y-100381685D01*
X87972953Y-100351245D01*
X87610848Y-100392238D01*
X87263698Y-100503085D01*
X86989820Y-100649476D01*
X86837809Y-100906388D01*
X81618520Y-100906388D01*
X78150000Y-97437868D01*
X78150000Y-70411243D01*
X88480179Y-70411243D01*
X88608138Y-70647674D01*
X88897947Y-70794812D01*
X89210892Y-70882584D01*
X89534949Y-70907616D01*
X89857662Y-70868947D01*
X90166631Y-70768063D01*
X90391862Y-70647674D01*
X90519821Y-70411243D01*
X89500000Y-69391421D01*
X88480179Y-70411243D01*
X78150000Y-70411243D01*
X78150000Y-69284949D01*
X87842384Y-69284949D01*
X87881053Y-69607662D01*
X87981937Y-69916631D01*
X88102326Y-70141862D01*
X88338757Y-70269821D01*
X89358579Y-69250000D01*
X89641421Y-69250000D01*
X90661243Y-70269821D01*
X90897674Y-70141862D01*
X91044812Y-69852053D01*
X91132584Y-69539108D01*
X91157616Y-69215051D01*
X91118947Y-68892338D01*
X91018063Y-68583369D01*
X90897674Y-68358138D01*
X90661243Y-68230179D01*
X89641421Y-69250000D01*
X89358579Y-69250000D01*
X88338757Y-68230179D01*
X88102326Y-68358138D01*
X87955188Y-68647947D01*
X87867416Y-68960892D01*
X87842384Y-69284949D01*
X78150000Y-69284949D01*
X78150000Y-68088757D01*
X88480179Y-68088757D01*
X89500000Y-69108579D01*
X90519821Y-68088757D01*
X90391862Y-67852326D01*
X90102053Y-67705188D01*
X89789108Y-67617416D01*
X89465051Y-67592384D01*
X89142338Y-67631053D01*
X88833369Y-67731937D01*
X88608138Y-67852326D01*
X88480179Y-68088757D01*
X78150000Y-68088757D01*
X78150000Y-63400000D01*
X84750000Y-63400000D01*
X84779264Y-63397118D01*
X84807403Y-63388582D01*
X84833336Y-63374720D01*
X84856066Y-63356066D01*
X85606066Y-62606066D01*
X85624720Y-62583336D01*
X85638582Y-62557403D01*
X85647118Y-62529264D01*
X85650000Y-62500000D01*
X85650000Y-62450000D01*
X94247823Y-62450000D01*
X94247823Y-64050000D01*
X94256511Y-64138215D01*
X94282243Y-64223041D01*
X94324029Y-64301216D01*
X94380263Y-64369737D01*
X94448784Y-64425971D01*
X94526959Y-64467757D01*
X94611785Y-64493489D01*
X94700000Y-64502177D01*
X96300000Y-64502177D01*
X96388215Y-64493489D01*
X96473041Y-64467757D01*
X96551216Y-64425971D01*
X96619737Y-64369737D01*
X96675971Y-64301216D01*
X96717757Y-64223041D01*
X96743489Y-64138215D01*
X96752177Y-64050000D01*
X96752177Y-62450000D01*
X96743489Y-62361785D01*
X96717757Y-62276959D01*
X96675971Y-62198784D01*
X96619737Y-62130263D01*
X96551216Y-62074029D01*
X96473041Y-62032243D01*
X96388215Y-62006511D01*
X96300000Y-61997823D01*
X94700000Y-61997823D01*
X94611785Y-62006511D01*
X94526959Y-62032243D01*
X94448784Y-62074029D01*
X94380263Y-62130263D01*
X94324029Y-62198784D01*
X94282243Y-62276959D01*
X94256511Y-62361785D01*
X94247823Y-62450000D01*
X85650000Y-62450000D01*
X85650000Y-59626886D01*
X94250000Y-59626886D01*
X94250000Y-59873114D01*
X94298037Y-60114611D01*
X94392265Y-60342097D01*
X94529062Y-60546828D01*
X94703172Y-60720938D01*
X94907903Y-60857735D01*
X95135389Y-60951963D01*
X95376886Y-61000000D01*
X95623114Y-61000000D01*
X95864611Y-60951963D01*
X96092097Y-60857735D01*
X96296828Y-60720938D01*
X96470938Y-60546828D01*
X96607735Y-60342097D01*
X96701963Y-60114611D01*
X96750000Y-59873114D01*
X96750000Y-59626886D01*
X96701963Y-59385389D01*
X96607735Y-59157903D01*
X96470938Y-58953172D01*
X96296828Y-58779062D01*
X96092097Y-58642265D01*
X95864611Y-58548037D01*
X95623114Y-58500000D01*
X95376886Y-58500000D01*
X95135389Y-58548037D01*
X94907903Y-58642265D01*
X94703172Y-58779062D01*
X94529062Y-58953172D01*
X94392265Y-59157903D01*
X94298037Y-59385389D01*
X94250000Y-59626886D01*
X85650000Y-59626886D01*
X85650000Y-58450000D01*
X101247823Y-58450000D01*
X101247823Y-60050000D01*
X101256511Y-60138215D01*
X101282243Y-60223041D01*
X101324029Y-60301216D01*
X101380263Y-60369737D01*
X101448784Y-60425971D01*
X101526959Y-60467757D01*
X101611785Y-60493489D01*
X101700000Y-60502177D01*
X103300000Y-60502177D01*
X103388215Y-60493489D01*
X103473041Y-60467757D01*
X103551216Y-60425971D01*
X103619737Y-60369737D01*
X103675971Y-60301216D01*
X103717757Y-60223041D01*
X103743489Y-60138215D01*
X103752177Y-60050000D01*
X103752177Y-58450000D01*
X103743489Y-58361785D01*
X103717757Y-58276959D01*
X103675971Y-58198784D01*
X103619737Y-58130263D01*
X103551216Y-58074029D01*
X103515375Y-58054871D01*
X107336551Y-58054871D01*
X107404226Y-58240143D01*
X107608841Y-58337346D01*
X107828488Y-58392764D01*
X108054726Y-58404267D01*
X108278860Y-58371412D01*
X108492279Y-58295461D01*
X108595774Y-58240143D01*
X108663449Y-58054871D01*
X108000000Y-57391421D01*
X107336551Y-58054871D01*
X103515375Y-58054871D01*
X103473041Y-58032243D01*
X103388215Y-58006511D01*
X103300000Y-57997823D01*
X102602380Y-57997823D01*
X102794633Y-57971004D01*
X103027178Y-57890063D01*
X103155042Y-57821717D01*
X103234802Y-57626223D01*
X102500000Y-56891421D01*
X101765198Y-57626223D01*
X101844958Y-57821717D01*
X102066626Y-57928917D01*
X102304948Y-57990812D01*
X102426222Y-57997823D01*
X101700000Y-57997823D01*
X101611785Y-58006511D01*
X101526959Y-58032243D01*
X101448784Y-58074029D01*
X101380263Y-58130263D01*
X101324029Y-58198784D01*
X101282243Y-58276959D01*
X101256511Y-58361785D01*
X101247823Y-58450000D01*
X85650000Y-58450000D01*
X85650000Y-56800766D01*
X101244977Y-56800766D01*
X101278996Y-57044633D01*
X101359937Y-57277178D01*
X101428283Y-57405042D01*
X101623777Y-57484802D01*
X102358579Y-56750000D01*
X102641421Y-56750000D01*
X103376223Y-57484802D01*
X103571717Y-57405042D01*
X103620230Y-57304726D01*
X106845733Y-57304726D01*
X106878588Y-57528860D01*
X106954539Y-57742279D01*
X107009857Y-57845774D01*
X107195129Y-57913449D01*
X107858579Y-57250000D01*
X108141421Y-57250000D01*
X108804871Y-57913449D01*
X108990143Y-57845774D01*
X109087346Y-57641159D01*
X109142764Y-57421512D01*
X109154267Y-57195274D01*
X109131072Y-57037037D01*
X112100000Y-57037037D01*
X112100000Y-57302963D01*
X112151880Y-57563780D01*
X112253646Y-57809465D01*
X112401387Y-58030575D01*
X112589425Y-58218613D01*
X112810535Y-58366354D01*
X113056220Y-58468120D01*
X113317037Y-58520000D01*
X113582963Y-58520000D01*
X113843780Y-58468120D01*
X114089465Y-58366354D01*
X114310575Y-58218613D01*
X114498613Y-58030575D01*
X114646354Y-57809465D01*
X114748120Y-57563780D01*
X114764909Y-57479375D01*
X115535928Y-57479375D01*
X115585506Y-57642825D01*
X115702046Y-57880430D01*
X115862702Y-58090734D01*
X116061299Y-58265655D01*
X116290205Y-58398470D01*
X116540624Y-58484076D01*
X116750000Y-58403795D01*
X116750000Y-57270000D01*
X116950000Y-57270000D01*
X116950000Y-58403795D01*
X117159376Y-58484076D01*
X117409795Y-58398470D01*
X117638701Y-58265655D01*
X117837298Y-58090734D01*
X117997954Y-57880430D01*
X118114494Y-57642825D01*
X118164072Y-57479375D01*
X118083453Y-57270000D01*
X116950000Y-57270000D01*
X116750000Y-57270000D01*
X115616547Y-57270000D01*
X115535928Y-57479375D01*
X114764909Y-57479375D01*
X114800000Y-57302963D01*
X114800000Y-57037037D01*
X114764910Y-56860625D01*
X115535928Y-56860625D01*
X115616547Y-57070000D01*
X116750000Y-57070000D01*
X116750000Y-55936205D01*
X116950000Y-55936205D01*
X116950000Y-57070000D01*
X118083453Y-57070000D01*
X118164072Y-56860625D01*
X118114494Y-56697175D01*
X117997954Y-56459570D01*
X117837298Y-56249266D01*
X117638701Y-56074345D01*
X117409795Y-55941530D01*
X117159376Y-55855924D01*
X116950000Y-55936205D01*
X116750000Y-55936205D01*
X116540624Y-55855924D01*
X116290205Y-55941530D01*
X116061299Y-56074345D01*
X115862702Y-56249266D01*
X115702046Y-56459570D01*
X115585506Y-56697175D01*
X115535928Y-56860625D01*
X114764910Y-56860625D01*
X114748120Y-56776220D01*
X114646354Y-56530535D01*
X114498613Y-56309425D01*
X114310575Y-56121387D01*
X114089465Y-55973646D01*
X113843780Y-55871880D01*
X113582963Y-55820000D01*
X113317037Y-55820000D01*
X113056220Y-55871880D01*
X112810535Y-55973646D01*
X112589425Y-56121387D01*
X112401387Y-56309425D01*
X112253646Y-56530535D01*
X112151880Y-56776220D01*
X112100000Y-57037037D01*
X109131072Y-57037037D01*
X109121412Y-56971140D01*
X109045461Y-56757721D01*
X108990143Y-56654226D01*
X108804871Y-56586551D01*
X108141421Y-57250000D01*
X107858579Y-57250000D01*
X107195129Y-56586551D01*
X107009857Y-56654226D01*
X106912654Y-56858841D01*
X106857236Y-57078488D01*
X106845733Y-57304726D01*
X103620230Y-57304726D01*
X103678917Y-57183374D01*
X103740812Y-56945052D01*
X103755023Y-56699234D01*
X103721004Y-56455367D01*
X103717441Y-56445129D01*
X107336551Y-56445129D01*
X108000000Y-57108579D01*
X108663449Y-56445129D01*
X108595774Y-56259857D01*
X108391159Y-56162654D01*
X108171512Y-56107236D01*
X107945274Y-56095733D01*
X107721140Y-56128588D01*
X107507721Y-56204539D01*
X107404226Y-56259857D01*
X107336551Y-56445129D01*
X103717441Y-56445129D01*
X103640063Y-56222822D01*
X103571717Y-56094958D01*
X103376223Y-56015198D01*
X102641421Y-56750000D01*
X102358579Y-56750000D01*
X101623777Y-56015198D01*
X101428283Y-56094958D01*
X101321083Y-56316626D01*
X101259188Y-56554948D01*
X101244977Y-56800766D01*
X85650000Y-56800766D01*
X85650000Y-55876223D01*
X87185198Y-55876223D01*
X87264958Y-56071717D01*
X87486626Y-56178917D01*
X87724948Y-56240812D01*
X87970766Y-56255023D01*
X88214633Y-56221004D01*
X88447178Y-56140063D01*
X88575042Y-56071717D01*
X88654802Y-55876223D01*
X87920000Y-55141421D01*
X87185198Y-55876223D01*
X85650000Y-55876223D01*
X85650000Y-55050766D01*
X86664977Y-55050766D01*
X86698996Y-55294633D01*
X86779937Y-55527178D01*
X86848283Y-55655042D01*
X87043777Y-55734802D01*
X87778579Y-55000000D01*
X88061421Y-55000000D01*
X88796223Y-55734802D01*
X88991717Y-55655042D01*
X89098917Y-55433374D01*
X89160812Y-55195052D01*
X89175023Y-54949234D01*
X89164931Y-54876886D01*
X96830000Y-54876886D01*
X96830000Y-55123114D01*
X96878037Y-55364611D01*
X96972265Y-55592097D01*
X97109062Y-55796828D01*
X97283172Y-55970938D01*
X97487903Y-56107735D01*
X97715389Y-56201963D01*
X97956886Y-56250000D01*
X98203114Y-56250000D01*
X98444611Y-56201963D01*
X98672097Y-56107735D01*
X98876828Y-55970938D01*
X98973989Y-55873777D01*
X101765198Y-55873777D01*
X102500000Y-56608579D01*
X103234802Y-55873777D01*
X103155042Y-55678283D01*
X102933374Y-55571083D01*
X102695052Y-55509188D01*
X102449234Y-55494977D01*
X102205367Y-55528996D01*
X101972822Y-55609937D01*
X101844958Y-55678283D01*
X101765198Y-55873777D01*
X98973989Y-55873777D01*
X99050938Y-55796828D01*
X99187735Y-55592097D01*
X99281963Y-55364611D01*
X99330000Y-55123114D01*
X99330000Y-54876886D01*
X99281963Y-54635389D01*
X99187735Y-54407903D01*
X99050938Y-54203172D01*
X98876828Y-54029062D01*
X98672097Y-53892265D01*
X98444611Y-53798037D01*
X98203114Y-53750000D01*
X97956886Y-53750000D01*
X97715389Y-53798037D01*
X97487903Y-53892265D01*
X97283172Y-54029062D01*
X97109062Y-54203172D01*
X96972265Y-54407903D01*
X96878037Y-54635389D01*
X96830000Y-54876886D01*
X89164931Y-54876886D01*
X89141004Y-54705367D01*
X89060063Y-54472822D01*
X88991717Y-54344958D01*
X88796223Y-54265198D01*
X88061421Y-55000000D01*
X87778579Y-55000000D01*
X87043777Y-54265198D01*
X86848283Y-54344958D01*
X86741083Y-54566626D01*
X86679188Y-54804948D01*
X86664977Y-55050766D01*
X85650000Y-55050766D01*
X85650000Y-54123777D01*
X87185198Y-54123777D01*
X87920000Y-54858579D01*
X88654802Y-54123777D01*
X88575042Y-53928283D01*
X88353374Y-53821083D01*
X88115052Y-53759188D01*
X87869234Y-53744977D01*
X87625367Y-53778996D01*
X87392822Y-53859937D01*
X87264958Y-53928283D01*
X87185198Y-54123777D01*
X85650000Y-54123777D01*
X85650000Y-53812132D01*
X86487132Y-52975000D01*
X117512868Y-52975000D01*
X118600000Y-54062132D01*
%TO.N,/SPK+*%
G36*
X116100000Y-91812132D02*
G01*
X116100000Y-94937868D01*
X113143934Y-97893934D01*
X113125280Y-97916664D01*
X113111418Y-97942597D01*
X113102882Y-97970736D01*
X113100000Y-98000000D01*
X113100000Y-109350000D01*
X106650000Y-109350000D01*
X106650000Y-108593612D01*
X107337809Y-108593612D01*
X107489820Y-108850524D01*
X107813674Y-109017615D01*
X108163902Y-109118315D01*
X108527047Y-109148755D01*
X108889152Y-109107762D01*
X109236302Y-108996915D01*
X109510180Y-108850524D01*
X109662191Y-108593612D01*
X108500000Y-107431421D01*
X107337809Y-108593612D01*
X106650000Y-108593612D01*
X106650000Y-107394383D01*
X106682238Y-107679152D01*
X106793085Y-108026302D01*
X106939476Y-108300180D01*
X107196388Y-108452191D01*
X108358579Y-107290000D01*
X107196388Y-106127809D01*
X106939476Y-106279820D01*
X106772385Y-106603674D01*
X106671685Y-106953902D01*
X106650000Y-107212601D01*
X106650000Y-103513612D01*
X107337809Y-103513612D01*
X107489820Y-103770524D01*
X107813674Y-103937615D01*
X108163902Y-104038315D01*
X108527047Y-104068755D01*
X108889152Y-104027762D01*
X109205457Y-103926764D01*
X109113778Y-104105806D01*
X109019541Y-104437395D01*
X108991805Y-104780997D01*
X109031636Y-105123409D01*
X109137502Y-105451470D01*
X109200771Y-105569838D01*
X109186326Y-105562385D01*
X108836098Y-105461685D01*
X108472953Y-105431245D01*
X108110848Y-105472238D01*
X107763698Y-105583085D01*
X107489820Y-105729476D01*
X107337809Y-105986388D01*
X108500000Y-107148579D01*
X108514143Y-107134437D01*
X108655564Y-107275858D01*
X108641421Y-107290000D01*
X109803612Y-108452191D01*
X110060524Y-108300180D01*
X110227615Y-107976326D01*
X110328315Y-107626098D01*
X110358755Y-107262953D01*
X110317762Y-106900848D01*
X110206915Y-106553698D01*
X110119473Y-106390106D01*
X110437395Y-106480459D01*
X110780997Y-106508195D01*
X111123409Y-106468364D01*
X111451470Y-106362498D01*
X111701027Y-106229107D01*
X111841014Y-105982436D01*
X110750000Y-104891421D01*
X110735858Y-104905564D01*
X110594436Y-104764142D01*
X110608579Y-104750000D01*
X110891421Y-104750000D01*
X111982436Y-105841014D01*
X112229107Y-105701027D01*
X112386222Y-105394194D01*
X112480459Y-105062605D01*
X112508195Y-104719003D01*
X112468364Y-104376591D01*
X112362498Y-104048530D01*
X112229107Y-103798973D01*
X111982436Y-103658986D01*
X110891421Y-104750000D01*
X110608579Y-104750000D01*
X110594436Y-104735858D01*
X110735858Y-104594436D01*
X110750000Y-104608579D01*
X111841014Y-103517564D01*
X111701027Y-103270893D01*
X111394194Y-103113778D01*
X111062605Y-103019541D01*
X110719003Y-102991805D01*
X110376591Y-103031636D01*
X110114098Y-103116343D01*
X110227615Y-102896326D01*
X110328315Y-102546098D01*
X110358755Y-102182953D01*
X110317762Y-101820848D01*
X110206915Y-101473698D01*
X110060524Y-101199820D01*
X109803612Y-101047809D01*
X108641421Y-102210000D01*
X108655564Y-102224143D01*
X108514143Y-102365564D01*
X108500000Y-102351421D01*
X107337809Y-103513612D01*
X106650000Y-103513612D01*
X106650000Y-102314383D01*
X106682238Y-102599152D01*
X106793085Y-102946302D01*
X106939476Y-103220180D01*
X107196388Y-103372191D01*
X108358579Y-102210000D01*
X107196388Y-101047809D01*
X106939476Y-101199820D01*
X106772385Y-101523674D01*
X106671685Y-101873902D01*
X106650000Y-102132601D01*
X106650000Y-101500000D01*
X106647118Y-101470736D01*
X106638582Y-101442597D01*
X106624720Y-101416664D01*
X106606066Y-101393934D01*
X106118520Y-100906388D01*
X107337809Y-100906388D01*
X108500000Y-102068579D01*
X109662191Y-100906388D01*
X109510180Y-100649476D01*
X109186326Y-100482385D01*
X108836098Y-100381685D01*
X108472953Y-100351245D01*
X108110848Y-100392238D01*
X107763698Y-100503085D01*
X107489820Y-100649476D01*
X107337809Y-100906388D01*
X106118520Y-100906388D01*
X100265744Y-95053612D01*
X112337809Y-95053612D01*
X112489820Y-95310524D01*
X112813674Y-95477615D01*
X113163902Y-95578315D01*
X113527047Y-95608755D01*
X113889152Y-95567762D01*
X114236302Y-95456915D01*
X114510180Y-95310524D01*
X114662191Y-95053612D01*
X113500000Y-93891421D01*
X112337809Y-95053612D01*
X100265744Y-95053612D01*
X99150000Y-93937868D01*
X99150000Y-93796842D01*
X99884579Y-93796842D01*
X100018554Y-94038392D01*
X100316875Y-94190519D01*
X100639143Y-94281524D01*
X100972973Y-94307908D01*
X101305536Y-94268659D01*
X101624052Y-94165283D01*
X101861446Y-94038392D01*
X101995421Y-93796842D01*
X101975626Y-93777047D01*
X111641245Y-93777047D01*
X111682238Y-94139152D01*
X111793085Y-94486302D01*
X111939476Y-94760180D01*
X112196388Y-94912191D01*
X113358579Y-93750000D01*
X113641421Y-93750000D01*
X114803612Y-94912191D01*
X115060524Y-94760180D01*
X115227615Y-94436326D01*
X115328315Y-94086098D01*
X115358755Y-93722953D01*
X115317762Y-93360848D01*
X115206915Y-93013698D01*
X115060524Y-92739820D01*
X114803612Y-92587809D01*
X113641421Y-93750000D01*
X113358579Y-93750000D01*
X112196388Y-92587809D01*
X111939476Y-92739820D01*
X111772385Y-93063674D01*
X111671685Y-93413902D01*
X111641245Y-93777047D01*
X101975626Y-93777047D01*
X100940000Y-92741421D01*
X99884579Y-93796842D01*
X99150000Y-93796842D01*
X99150000Y-92632973D01*
X99232092Y-92632973D01*
X99271341Y-92965536D01*
X99374717Y-93284052D01*
X99501608Y-93521446D01*
X99743158Y-93655421D01*
X100798579Y-92600000D01*
X101081421Y-92600000D01*
X102136842Y-93655421D01*
X102378392Y-93521446D01*
X102530519Y-93223125D01*
X102621524Y-92900857D01*
X102647908Y-92567027D01*
X102633671Y-92446388D01*
X112337809Y-92446388D01*
X113500000Y-93608579D01*
X114662191Y-92446388D01*
X114510180Y-92189476D01*
X114186326Y-92022385D01*
X113836098Y-91921685D01*
X113472953Y-91891245D01*
X113110848Y-91932238D01*
X112763698Y-92043085D01*
X112489820Y-92189476D01*
X112337809Y-92446388D01*
X102633671Y-92446388D01*
X102608659Y-92234464D01*
X102505283Y-91915948D01*
X102378392Y-91678554D01*
X102136842Y-91544579D01*
X101081421Y-92600000D01*
X100798579Y-92600000D01*
X99743158Y-91544579D01*
X99501608Y-91678554D01*
X99349481Y-91976875D01*
X99258476Y-92299143D01*
X99232092Y-92632973D01*
X99150000Y-92632973D01*
X99150000Y-91403158D01*
X99884579Y-91403158D01*
X100940000Y-92458579D01*
X101995421Y-91403158D01*
X101861446Y-91161608D01*
X101563125Y-91009481D01*
X101240857Y-90918476D01*
X100907027Y-90892092D01*
X100574464Y-90931341D01*
X100255948Y-91034717D01*
X100018554Y-91161608D01*
X99884579Y-91403158D01*
X99150000Y-91403158D01*
X99150000Y-90812132D01*
X100312132Y-89650000D01*
X113937868Y-89650000D01*
X116100000Y-91812132D01*
G37*
X116100000Y-91812132D02*
X116100000Y-94937868D01*
X113143934Y-97893934D01*
X113125280Y-97916664D01*
X113111418Y-97942597D01*
X113102882Y-97970736D01*
X113100000Y-98000000D01*
X113100000Y-109350000D01*
X106650000Y-109350000D01*
X106650000Y-108593612D01*
X107337809Y-108593612D01*
X107489820Y-108850524D01*
X107813674Y-109017615D01*
X108163902Y-109118315D01*
X108527047Y-109148755D01*
X108889152Y-109107762D01*
X109236302Y-108996915D01*
X109510180Y-108850524D01*
X109662191Y-108593612D01*
X108500000Y-107431421D01*
X107337809Y-108593612D01*
X106650000Y-108593612D01*
X106650000Y-107394383D01*
X106682238Y-107679152D01*
X106793085Y-108026302D01*
X106939476Y-108300180D01*
X107196388Y-108452191D01*
X108358579Y-107290000D01*
X107196388Y-106127809D01*
X106939476Y-106279820D01*
X106772385Y-106603674D01*
X106671685Y-106953902D01*
X106650000Y-107212601D01*
X106650000Y-103513612D01*
X107337809Y-103513612D01*
X107489820Y-103770524D01*
X107813674Y-103937615D01*
X108163902Y-104038315D01*
X108527047Y-104068755D01*
X108889152Y-104027762D01*
X109205457Y-103926764D01*
X109113778Y-104105806D01*
X109019541Y-104437395D01*
X108991805Y-104780997D01*
X109031636Y-105123409D01*
X109137502Y-105451470D01*
X109200771Y-105569838D01*
X109186326Y-105562385D01*
X108836098Y-105461685D01*
X108472953Y-105431245D01*
X108110848Y-105472238D01*
X107763698Y-105583085D01*
X107489820Y-105729476D01*
X107337809Y-105986388D01*
X108500000Y-107148579D01*
X108514143Y-107134437D01*
X108655564Y-107275858D01*
X108641421Y-107290000D01*
X109803612Y-108452191D01*
X110060524Y-108300180D01*
X110227615Y-107976326D01*
X110328315Y-107626098D01*
X110358755Y-107262953D01*
X110317762Y-106900848D01*
X110206915Y-106553698D01*
X110119473Y-106390106D01*
X110437395Y-106480459D01*
X110780997Y-106508195D01*
X111123409Y-106468364D01*
X111451470Y-106362498D01*
X111701027Y-106229107D01*
X111841014Y-105982436D01*
X110750000Y-104891421D01*
X110735858Y-104905564D01*
X110594436Y-104764142D01*
X110608579Y-104750000D01*
X110891421Y-104750000D01*
X111982436Y-105841014D01*
X112229107Y-105701027D01*
X112386222Y-105394194D01*
X112480459Y-105062605D01*
X112508195Y-104719003D01*
X112468364Y-104376591D01*
X112362498Y-104048530D01*
X112229107Y-103798973D01*
X111982436Y-103658986D01*
X110891421Y-104750000D01*
X110608579Y-104750000D01*
X110594436Y-104735858D01*
X110735858Y-104594436D01*
X110750000Y-104608579D01*
X111841014Y-103517564D01*
X111701027Y-103270893D01*
X111394194Y-103113778D01*
X111062605Y-103019541D01*
X110719003Y-102991805D01*
X110376591Y-103031636D01*
X110114098Y-103116343D01*
X110227615Y-102896326D01*
X110328315Y-102546098D01*
X110358755Y-102182953D01*
X110317762Y-101820848D01*
X110206915Y-101473698D01*
X110060524Y-101199820D01*
X109803612Y-101047809D01*
X108641421Y-102210000D01*
X108655564Y-102224143D01*
X108514143Y-102365564D01*
X108500000Y-102351421D01*
X107337809Y-103513612D01*
X106650000Y-103513612D01*
X106650000Y-102314383D01*
X106682238Y-102599152D01*
X106793085Y-102946302D01*
X106939476Y-103220180D01*
X107196388Y-103372191D01*
X108358579Y-102210000D01*
X107196388Y-101047809D01*
X106939476Y-101199820D01*
X106772385Y-101523674D01*
X106671685Y-101873902D01*
X106650000Y-102132601D01*
X106650000Y-101500000D01*
X106647118Y-101470736D01*
X106638582Y-101442597D01*
X106624720Y-101416664D01*
X106606066Y-101393934D01*
X106118520Y-100906388D01*
X107337809Y-100906388D01*
X108500000Y-102068579D01*
X109662191Y-100906388D01*
X109510180Y-100649476D01*
X109186326Y-100482385D01*
X108836098Y-100381685D01*
X108472953Y-100351245D01*
X108110848Y-100392238D01*
X107763698Y-100503085D01*
X107489820Y-100649476D01*
X107337809Y-100906388D01*
X106118520Y-100906388D01*
X100265744Y-95053612D01*
X112337809Y-95053612D01*
X112489820Y-95310524D01*
X112813674Y-95477615D01*
X113163902Y-95578315D01*
X113527047Y-95608755D01*
X113889152Y-95567762D01*
X114236302Y-95456915D01*
X114510180Y-95310524D01*
X114662191Y-95053612D01*
X113500000Y-93891421D01*
X112337809Y-95053612D01*
X100265744Y-95053612D01*
X99150000Y-93937868D01*
X99150000Y-93796842D01*
X99884579Y-93796842D01*
X100018554Y-94038392D01*
X100316875Y-94190519D01*
X100639143Y-94281524D01*
X100972973Y-94307908D01*
X101305536Y-94268659D01*
X101624052Y-94165283D01*
X101861446Y-94038392D01*
X101995421Y-93796842D01*
X101975626Y-93777047D01*
X111641245Y-93777047D01*
X111682238Y-94139152D01*
X111793085Y-94486302D01*
X111939476Y-94760180D01*
X112196388Y-94912191D01*
X113358579Y-93750000D01*
X113641421Y-93750000D01*
X114803612Y-94912191D01*
X115060524Y-94760180D01*
X115227615Y-94436326D01*
X115328315Y-94086098D01*
X115358755Y-93722953D01*
X115317762Y-93360848D01*
X115206915Y-93013698D01*
X115060524Y-92739820D01*
X114803612Y-92587809D01*
X113641421Y-93750000D01*
X113358579Y-93750000D01*
X112196388Y-92587809D01*
X111939476Y-92739820D01*
X111772385Y-93063674D01*
X111671685Y-93413902D01*
X111641245Y-93777047D01*
X101975626Y-93777047D01*
X100940000Y-92741421D01*
X99884579Y-93796842D01*
X99150000Y-93796842D01*
X99150000Y-92632973D01*
X99232092Y-92632973D01*
X99271341Y-92965536D01*
X99374717Y-93284052D01*
X99501608Y-93521446D01*
X99743158Y-93655421D01*
X100798579Y-92600000D01*
X101081421Y-92600000D01*
X102136842Y-93655421D01*
X102378392Y-93521446D01*
X102530519Y-93223125D01*
X102621524Y-92900857D01*
X102647908Y-92567027D01*
X102633671Y-92446388D01*
X112337809Y-92446388D01*
X113500000Y-93608579D01*
X114662191Y-92446388D01*
X114510180Y-92189476D01*
X114186326Y-92022385D01*
X113836098Y-91921685D01*
X113472953Y-91891245D01*
X113110848Y-91932238D01*
X112763698Y-92043085D01*
X112489820Y-92189476D01*
X112337809Y-92446388D01*
X102633671Y-92446388D01*
X102608659Y-92234464D01*
X102505283Y-91915948D01*
X102378392Y-91678554D01*
X102136842Y-91544579D01*
X101081421Y-92600000D01*
X100798579Y-92600000D01*
X99743158Y-91544579D01*
X99501608Y-91678554D01*
X99349481Y-91976875D01*
X99258476Y-92299143D01*
X99232092Y-92632973D01*
X99150000Y-92632973D01*
X99150000Y-91403158D01*
X99884579Y-91403158D01*
X100940000Y-92458579D01*
X101995421Y-91403158D01*
X101861446Y-91161608D01*
X101563125Y-91009481D01*
X101240857Y-90918476D01*
X100907027Y-90892092D01*
X100574464Y-90931341D01*
X100255948Y-91034717D01*
X100018554Y-91161608D01*
X99884579Y-91403158D01*
X99150000Y-91403158D01*
X99150000Y-90812132D01*
X100312132Y-89650000D01*
X113937868Y-89650000D01*
X116100000Y-91812132D01*
%TO.N,VCC*%
G36*
X120350000Y-61062132D02*
G01*
X120350000Y-62937868D01*
X119437868Y-63850000D01*
X117812132Y-63850000D01*
X116650000Y-62687868D01*
X116650000Y-62559375D01*
X117235928Y-62559375D01*
X117285506Y-62722825D01*
X117402046Y-62960430D01*
X117562702Y-63170734D01*
X117761299Y-63345655D01*
X117990205Y-63478470D01*
X118240624Y-63564076D01*
X118450000Y-63483795D01*
X118450000Y-62350000D01*
X118650000Y-62350000D01*
X118650000Y-63483795D01*
X118859376Y-63564076D01*
X119109795Y-63478470D01*
X119338701Y-63345655D01*
X119537298Y-63170734D01*
X119697954Y-62960430D01*
X119814494Y-62722825D01*
X119864072Y-62559375D01*
X119783453Y-62350000D01*
X118650000Y-62350000D01*
X118450000Y-62350000D01*
X117316547Y-62350000D01*
X117235928Y-62559375D01*
X116650000Y-62559375D01*
X116650000Y-62000000D01*
X116647118Y-61970736D01*
X116638582Y-61942597D01*
X116637528Y-61940625D01*
X117235928Y-61940625D01*
X117316547Y-62150000D01*
X118450000Y-62150000D01*
X118450000Y-61016205D01*
X118650000Y-61016205D01*
X118650000Y-62150000D01*
X119783453Y-62150000D01*
X119864072Y-61940625D01*
X119814494Y-61777175D01*
X119697954Y-61539570D01*
X119537298Y-61329266D01*
X119338701Y-61154345D01*
X119109795Y-61021530D01*
X118859376Y-60935924D01*
X118650000Y-61016205D01*
X118450000Y-61016205D01*
X118240624Y-60935924D01*
X117990205Y-61021530D01*
X117761299Y-61154345D01*
X117562702Y-61329266D01*
X117402046Y-61539570D01*
X117285506Y-61777175D01*
X117235928Y-61940625D01*
X116637528Y-61940625D01*
X116624720Y-61916664D01*
X116606066Y-61893934D01*
X116535970Y-61823838D01*
X116496106Y-61692424D01*
X116361464Y-61440526D01*
X116180264Y-61219735D01*
X115959473Y-61038536D01*
X115707575Y-60903894D01*
X115434249Y-60820981D01*
X115150000Y-60792985D01*
X114865750Y-60820981D01*
X114592424Y-60903894D01*
X114340526Y-61038536D01*
X114119735Y-61219736D01*
X113938536Y-61440527D01*
X113803894Y-61692425D01*
X113720981Y-61965751D01*
X113700000Y-62178776D01*
X113700000Y-63087868D01*
X110393934Y-66393934D01*
X110375280Y-66416664D01*
X110361418Y-66442597D01*
X110352882Y-66470736D01*
X110350000Y-66500000D01*
X110350000Y-67687868D01*
X104893934Y-73143934D01*
X104875280Y-73166664D01*
X104861418Y-73192597D01*
X104852882Y-73220736D01*
X104850000Y-73250000D01*
X104850000Y-84187868D01*
X98393934Y-90643934D01*
X98375280Y-90666664D01*
X98361418Y-90692597D01*
X98352882Y-90720736D01*
X98350000Y-90750000D01*
X98350000Y-94000000D01*
X98352882Y-94029264D01*
X98361418Y-94057403D01*
X98375280Y-94083336D01*
X98393934Y-94106066D01*
X105850000Y-101562132D01*
X105850000Y-109350000D01*
X96900000Y-109350000D01*
X96900000Y-108593612D01*
X101837809Y-108593612D01*
X101989820Y-108850524D01*
X102313674Y-109017615D01*
X102663902Y-109118315D01*
X103027047Y-109148755D01*
X103389152Y-109107762D01*
X103736302Y-108996915D01*
X104010180Y-108850524D01*
X104162191Y-108593612D01*
X103000000Y-107431421D01*
X101837809Y-108593612D01*
X96900000Y-108593612D01*
X96900000Y-107317047D01*
X101141245Y-107317047D01*
X101182238Y-107679152D01*
X101293085Y-108026302D01*
X101439476Y-108300180D01*
X101696388Y-108452191D01*
X102858579Y-107290000D01*
X103141421Y-107290000D01*
X104303612Y-108452191D01*
X104560524Y-108300180D01*
X104727615Y-107976326D01*
X104828315Y-107626098D01*
X104858755Y-107262953D01*
X104817762Y-106900848D01*
X104706915Y-106553698D01*
X104560524Y-106279820D01*
X104303612Y-106127809D01*
X103141421Y-107290000D01*
X102858579Y-107290000D01*
X101696388Y-106127809D01*
X101439476Y-106279820D01*
X101272385Y-106603674D01*
X101171685Y-106953902D01*
X101141245Y-107317047D01*
X96900000Y-107317047D01*
X96900000Y-105982436D01*
X99408986Y-105982436D01*
X99548973Y-106229107D01*
X99855806Y-106386222D01*
X100187395Y-106480459D01*
X100530997Y-106508195D01*
X100873409Y-106468364D01*
X101201470Y-106362498D01*
X101451027Y-106229107D01*
X101588771Y-105986388D01*
X101837809Y-105986388D01*
X103000000Y-107148579D01*
X104162191Y-105986388D01*
X104010180Y-105729476D01*
X103686326Y-105562385D01*
X103336098Y-105461685D01*
X102972953Y-105431245D01*
X102610848Y-105472238D01*
X102263698Y-105583085D01*
X101989820Y-105729476D01*
X101837809Y-105986388D01*
X101588771Y-105986388D01*
X101591014Y-105982436D01*
X100500000Y-104891421D01*
X99408986Y-105982436D01*
X96900000Y-105982436D01*
X96900000Y-105804669D01*
X97050830Y-105578936D01*
X97182749Y-105260456D01*
X97250000Y-104922360D01*
X97250000Y-104780997D01*
X98741805Y-104780997D01*
X98781636Y-105123409D01*
X98887502Y-105451470D01*
X99020893Y-105701027D01*
X99267564Y-105841014D01*
X100358579Y-104750000D01*
X100641421Y-104750000D01*
X101732436Y-105841014D01*
X101979107Y-105701027D01*
X102136222Y-105394194D01*
X102230459Y-105062605D01*
X102258195Y-104719003D01*
X102218364Y-104376591D01*
X102112498Y-104048530D01*
X101979107Y-103798973D01*
X101732436Y-103658986D01*
X100641421Y-104750000D01*
X100358579Y-104750000D01*
X99267564Y-103658986D01*
X99020893Y-103798973D01*
X98863778Y-104105806D01*
X98769541Y-104437395D01*
X98741805Y-104780997D01*
X97250000Y-104780997D01*
X97250000Y-104577640D01*
X97182749Y-104239544D01*
X97050830Y-103921064D01*
X96900000Y-103695331D01*
X96900000Y-103517564D01*
X99408986Y-103517564D01*
X100500000Y-104608579D01*
X101591014Y-103517564D01*
X101588772Y-103513612D01*
X101837809Y-103513612D01*
X101989820Y-103770524D01*
X102313674Y-103937615D01*
X102663902Y-104038315D01*
X103027047Y-104068755D01*
X103389152Y-104027762D01*
X103736302Y-103916915D01*
X104010180Y-103770524D01*
X104162191Y-103513612D01*
X103000000Y-102351421D01*
X101837809Y-103513612D01*
X101588772Y-103513612D01*
X101451027Y-103270893D01*
X101144194Y-103113778D01*
X100812605Y-103019541D01*
X100469003Y-102991805D01*
X100126591Y-103031636D01*
X99798530Y-103137502D01*
X99548973Y-103270893D01*
X99408986Y-103517564D01*
X96900000Y-103517564D01*
X96900000Y-102237047D01*
X101141245Y-102237047D01*
X101182238Y-102599152D01*
X101293085Y-102946302D01*
X101439476Y-103220180D01*
X101696388Y-103372191D01*
X102858579Y-102210000D01*
X103141421Y-102210000D01*
X104303612Y-103372191D01*
X104560524Y-103220180D01*
X104727615Y-102896326D01*
X104828315Y-102546098D01*
X104858755Y-102182953D01*
X104817762Y-101820848D01*
X104706915Y-101473698D01*
X104560524Y-101199820D01*
X104303612Y-101047809D01*
X103141421Y-102210000D01*
X102858579Y-102210000D01*
X101696388Y-101047809D01*
X101439476Y-101199820D01*
X101272385Y-101523674D01*
X101171685Y-101873902D01*
X101141245Y-102237047D01*
X96900000Y-102237047D01*
X96900000Y-101500000D01*
X96897118Y-101470736D01*
X96888582Y-101442597D01*
X96874720Y-101416664D01*
X96856066Y-101393934D01*
X96368520Y-100906388D01*
X101837809Y-100906388D01*
X103000000Y-102068579D01*
X104162191Y-100906388D01*
X104010180Y-100649476D01*
X103686326Y-100482385D01*
X103336098Y-100381685D01*
X102972953Y-100351245D01*
X102610848Y-100392238D01*
X102263698Y-100503085D01*
X101989820Y-100649476D01*
X101837809Y-100906388D01*
X96368520Y-100906388D01*
X95856066Y-100393934D01*
X95833336Y-100375280D01*
X95807403Y-100361418D01*
X95779264Y-100352882D01*
X95750000Y-100350000D01*
X92812132Y-100350000D01*
X87412132Y-94950000D01*
X87847823Y-94950000D01*
X87856511Y-95038215D01*
X87882243Y-95123041D01*
X87924029Y-95201216D01*
X87980263Y-95269737D01*
X88048784Y-95325971D01*
X88126959Y-95367757D01*
X88211785Y-95393489D01*
X88300000Y-95402177D01*
X89287500Y-95400000D01*
X89400000Y-95287500D01*
X89400000Y-93850000D01*
X89600000Y-93850000D01*
X89600000Y-95287500D01*
X89712500Y-95400000D01*
X90700000Y-95402177D01*
X90788215Y-95393489D01*
X90873041Y-95367757D01*
X90951216Y-95325971D01*
X91019737Y-95269737D01*
X91075971Y-95201216D01*
X91117757Y-95123041D01*
X91143489Y-95038215D01*
X91152177Y-94950000D01*
X91150000Y-93962500D01*
X91037500Y-93850000D01*
X89600000Y-93850000D01*
X89400000Y-93850000D01*
X87962500Y-93850000D01*
X87850000Y-93962500D01*
X87847823Y-94950000D01*
X87412132Y-94950000D01*
X87400000Y-94937868D01*
X87400000Y-92550000D01*
X87847823Y-92550000D01*
X87850000Y-93537500D01*
X87962500Y-93650000D01*
X89400000Y-93650000D01*
X89400000Y-92212500D01*
X89600000Y-92212500D01*
X89600000Y-93650000D01*
X91037500Y-93650000D01*
X91150000Y-93537500D01*
X91152177Y-92550000D01*
X91143489Y-92461785D01*
X91117757Y-92376959D01*
X91075971Y-92298784D01*
X91019737Y-92230263D01*
X90951216Y-92174029D01*
X90873041Y-92132243D01*
X90788215Y-92106511D01*
X90700000Y-92097823D01*
X89712500Y-92100000D01*
X89600000Y-92212500D01*
X89400000Y-92212500D01*
X89287500Y-92100000D01*
X88300000Y-92097823D01*
X88211785Y-92106511D01*
X88126959Y-92132243D01*
X88048784Y-92174029D01*
X87980263Y-92230263D01*
X87924029Y-92298784D01*
X87882243Y-92376959D01*
X87856511Y-92461785D01*
X87847823Y-92550000D01*
X87400000Y-92550000D01*
X87400000Y-90312132D01*
X89849283Y-87862849D01*
X89981287Y-87836592D01*
X90281568Y-87712211D01*
X90551814Y-87531639D01*
X90781639Y-87301814D01*
X90962211Y-87031568D01*
X91086592Y-86731287D01*
X91112849Y-86599283D01*
X92856066Y-84856066D01*
X92874720Y-84833336D01*
X92888582Y-84807403D01*
X92897118Y-84779264D01*
X92900000Y-84750000D01*
X92900000Y-72817791D01*
X98060000Y-72817791D01*
X98060000Y-73182209D01*
X98131095Y-73539625D01*
X98270552Y-73876303D01*
X98473011Y-74179306D01*
X98730694Y-74436989D01*
X99033697Y-74639448D01*
X99370375Y-74778905D01*
X99727791Y-74850000D01*
X100092209Y-74850000D01*
X100449625Y-74778905D01*
X100786303Y-74639448D01*
X101089306Y-74436989D01*
X101346989Y-74179306D01*
X101549448Y-73876303D01*
X101688905Y-73539625D01*
X101760000Y-73182209D01*
X101760000Y-72817791D01*
X101688905Y-72460375D01*
X101549448Y-72123697D01*
X101346989Y-71820694D01*
X101089306Y-71563011D01*
X100786303Y-71360552D01*
X100449625Y-71221095D01*
X100092209Y-71150000D01*
X99727791Y-71150000D01*
X99370375Y-71221095D01*
X99033697Y-71360552D01*
X98730694Y-71563011D01*
X98473011Y-71820694D01*
X98270552Y-72123697D01*
X98131095Y-72460375D01*
X98060000Y-72817791D01*
X92900000Y-72817791D01*
X92900000Y-70562132D01*
X96162132Y-67300000D01*
X101247823Y-67300000D01*
X101256511Y-67388215D01*
X101282243Y-67473041D01*
X101324029Y-67551216D01*
X101380263Y-67619737D01*
X101448784Y-67675971D01*
X101526959Y-67717757D01*
X101611785Y-67743489D01*
X101700000Y-67752177D01*
X102287500Y-67750000D01*
X102400000Y-67637500D01*
X102400000Y-66600000D01*
X102600000Y-66600000D01*
X102600000Y-67637500D01*
X102712500Y-67750000D01*
X103300000Y-67752177D01*
X103388215Y-67743489D01*
X103473041Y-67717757D01*
X103551216Y-67675971D01*
X103619737Y-67619737D01*
X103675971Y-67551216D01*
X103717757Y-67473041D01*
X103743489Y-67388215D01*
X103752177Y-67300000D01*
X103750000Y-66712500D01*
X103637500Y-66600000D01*
X102600000Y-66600000D01*
X102400000Y-66600000D01*
X101362500Y-66600000D01*
X101250000Y-66712500D01*
X101247823Y-67300000D01*
X96162132Y-67300000D01*
X99812132Y-63650000D01*
X101295131Y-63650000D01*
X101250000Y-63876886D01*
X101250000Y-64123114D01*
X101298037Y-64364611D01*
X101392265Y-64592097D01*
X101529062Y-64796828D01*
X101703172Y-64970938D01*
X101907903Y-65107735D01*
X102135389Y-65201963D01*
X102376886Y-65250000D01*
X102399998Y-65250000D01*
X102399998Y-65362498D01*
X102287500Y-65250000D01*
X101700000Y-65247823D01*
X101611785Y-65256511D01*
X101526959Y-65282243D01*
X101448784Y-65324029D01*
X101380263Y-65380263D01*
X101324029Y-65448784D01*
X101282243Y-65526959D01*
X101256511Y-65611785D01*
X101247823Y-65700000D01*
X101250000Y-66287500D01*
X101362500Y-66400000D01*
X102400000Y-66400000D01*
X102400000Y-66380000D01*
X102600000Y-66380000D01*
X102600000Y-66400000D01*
X103637500Y-66400000D01*
X103732629Y-66304871D01*
X107336551Y-66304871D01*
X107404226Y-66490143D01*
X107608841Y-66587346D01*
X107828488Y-66642764D01*
X108054726Y-66654267D01*
X108278860Y-66621412D01*
X108492279Y-66545461D01*
X108595774Y-66490143D01*
X108663449Y-66304871D01*
X108000000Y-65641421D01*
X107336551Y-66304871D01*
X103732629Y-66304871D01*
X103750000Y-66287500D01*
X103752177Y-65700000D01*
X103743489Y-65611785D01*
X103726181Y-65554726D01*
X106845733Y-65554726D01*
X106878588Y-65778860D01*
X106954539Y-65992279D01*
X107009857Y-66095774D01*
X107195129Y-66163449D01*
X107858579Y-65500000D01*
X108141421Y-65500000D01*
X108804871Y-66163449D01*
X108990143Y-66095774D01*
X109087346Y-65891159D01*
X109142764Y-65671512D01*
X109154267Y-65445274D01*
X109121412Y-65221140D01*
X109045461Y-65007721D01*
X108990143Y-64904226D01*
X108804871Y-64836551D01*
X108141421Y-65500000D01*
X107858579Y-65500000D01*
X107195129Y-64836551D01*
X107009857Y-64904226D01*
X106912654Y-65108841D01*
X106857236Y-65328488D01*
X106845733Y-65554726D01*
X103726181Y-65554726D01*
X103717757Y-65526959D01*
X103675971Y-65448784D01*
X103619737Y-65380263D01*
X103551216Y-65324029D01*
X103473041Y-65282243D01*
X103388215Y-65256511D01*
X103300000Y-65247823D01*
X102712500Y-65250000D01*
X102600002Y-65362498D01*
X102600002Y-65250000D01*
X102623114Y-65250000D01*
X102864611Y-65201963D01*
X103092097Y-65107735D01*
X103296828Y-64970938D01*
X103470938Y-64796828D01*
X103538891Y-64695129D01*
X107336551Y-64695129D01*
X108000000Y-65358579D01*
X108663449Y-64695129D01*
X108595774Y-64509857D01*
X108391159Y-64412654D01*
X108171512Y-64357236D01*
X107945274Y-64345733D01*
X107721140Y-64378588D01*
X107507721Y-64454539D01*
X107404226Y-64509857D01*
X107336551Y-64695129D01*
X103538891Y-64695129D01*
X103607735Y-64592097D01*
X103701963Y-64364611D01*
X103750000Y-64123114D01*
X103750000Y-63876886D01*
X103704869Y-63650000D01*
X104000000Y-63650000D01*
X104029264Y-63647118D01*
X104057403Y-63638582D01*
X104083336Y-63624720D01*
X104106066Y-63606066D01*
X104825397Y-62886735D01*
X106850000Y-62886735D01*
X106850000Y-63113265D01*
X106894194Y-63335443D01*
X106980884Y-63544729D01*
X107106737Y-63733082D01*
X107266918Y-63893263D01*
X107455271Y-64019116D01*
X107664557Y-64105806D01*
X107886735Y-64150000D01*
X108113265Y-64150000D01*
X108335443Y-64105806D01*
X108544729Y-64019116D01*
X108733082Y-63893263D01*
X108893263Y-63733082D01*
X109019116Y-63544729D01*
X109105806Y-63335443D01*
X109142692Y-63150000D01*
X110397823Y-63150000D01*
X110406511Y-63238215D01*
X110432243Y-63323041D01*
X110474029Y-63401216D01*
X110530263Y-63469737D01*
X110598784Y-63525971D01*
X110676959Y-63567757D01*
X110761785Y-63593489D01*
X110850000Y-63602177D01*
X111537500Y-63600000D01*
X111650000Y-63487500D01*
X111650000Y-62350000D01*
X111850000Y-62350000D01*
X111850000Y-63487500D01*
X111962500Y-63600000D01*
X112650000Y-63602177D01*
X112738215Y-63593489D01*
X112823041Y-63567757D01*
X112901216Y-63525971D01*
X112969737Y-63469737D01*
X113025971Y-63401216D01*
X113067757Y-63323041D01*
X113093489Y-63238215D01*
X113102177Y-63150000D01*
X113100000Y-62462500D01*
X112987500Y-62350000D01*
X111850000Y-62350000D01*
X111650000Y-62350000D01*
X110512500Y-62350000D01*
X110400000Y-62462500D01*
X110397823Y-63150000D01*
X109142692Y-63150000D01*
X109150000Y-63113265D01*
X109150000Y-62886735D01*
X109105806Y-62664557D01*
X109019116Y-62455271D01*
X108893263Y-62266918D01*
X108733082Y-62106737D01*
X108544729Y-61980884D01*
X108335443Y-61894194D01*
X108113265Y-61850000D01*
X107886735Y-61850000D01*
X107664557Y-61894194D01*
X107455271Y-61980884D01*
X107266918Y-62106737D01*
X107106737Y-62266918D01*
X106980884Y-62455271D01*
X106894194Y-62664557D01*
X106850000Y-62886735D01*
X104825397Y-62886735D01*
X106362132Y-61350000D01*
X110397823Y-61350000D01*
X110400000Y-62037500D01*
X110512500Y-62150000D01*
X111650000Y-62150000D01*
X111650000Y-61012500D01*
X111850000Y-61012500D01*
X111850000Y-62150000D01*
X112987500Y-62150000D01*
X113100000Y-62037500D01*
X113102177Y-61350000D01*
X113093489Y-61261785D01*
X113067757Y-61176959D01*
X113025971Y-61098784D01*
X112969737Y-61030263D01*
X112901216Y-60974029D01*
X112823041Y-60932243D01*
X112738215Y-60906511D01*
X112650000Y-60897823D01*
X111962500Y-60900000D01*
X111850000Y-61012500D01*
X111650000Y-61012500D01*
X111537500Y-60900000D01*
X110850000Y-60897823D01*
X110761785Y-60906511D01*
X110676959Y-60932243D01*
X110598784Y-60974029D01*
X110530263Y-61030263D01*
X110474029Y-61098784D01*
X110432243Y-61176959D01*
X110406511Y-61261785D01*
X110397823Y-61350000D01*
X106362132Y-61350000D01*
X106562132Y-61150000D01*
X108500000Y-61150000D01*
X108529264Y-61147118D01*
X108557403Y-61138582D01*
X108583336Y-61124720D01*
X108606066Y-61106066D01*
X110062132Y-59650000D01*
X118937868Y-59650000D01*
X120350000Y-61062132D01*
G37*
X120350000Y-61062132D02*
X120350000Y-62937868D01*
X119437868Y-63850000D01*
X117812132Y-63850000D01*
X116650000Y-62687868D01*
X116650000Y-62559375D01*
X117235928Y-62559375D01*
X117285506Y-62722825D01*
X117402046Y-62960430D01*
X117562702Y-63170734D01*
X117761299Y-63345655D01*
X117990205Y-63478470D01*
X118240624Y-63564076D01*
X118450000Y-63483795D01*
X118450000Y-62350000D01*
X118650000Y-62350000D01*
X118650000Y-63483795D01*
X118859376Y-63564076D01*
X119109795Y-63478470D01*
X119338701Y-63345655D01*
X119537298Y-63170734D01*
X119697954Y-62960430D01*
X119814494Y-62722825D01*
X119864072Y-62559375D01*
X119783453Y-62350000D01*
X118650000Y-62350000D01*
X118450000Y-62350000D01*
X117316547Y-62350000D01*
X117235928Y-62559375D01*
X116650000Y-62559375D01*
X116650000Y-62000000D01*
X116647118Y-61970736D01*
X116638582Y-61942597D01*
X116637528Y-61940625D01*
X117235928Y-61940625D01*
X117316547Y-62150000D01*
X118450000Y-62150000D01*
X118450000Y-61016205D01*
X118650000Y-61016205D01*
X118650000Y-62150000D01*
X119783453Y-62150000D01*
X119864072Y-61940625D01*
X119814494Y-61777175D01*
X119697954Y-61539570D01*
X119537298Y-61329266D01*
X119338701Y-61154345D01*
X119109795Y-61021530D01*
X118859376Y-60935924D01*
X118650000Y-61016205D01*
X118450000Y-61016205D01*
X118240624Y-60935924D01*
X117990205Y-61021530D01*
X117761299Y-61154345D01*
X117562702Y-61329266D01*
X117402046Y-61539570D01*
X117285506Y-61777175D01*
X117235928Y-61940625D01*
X116637528Y-61940625D01*
X116624720Y-61916664D01*
X116606066Y-61893934D01*
X116535970Y-61823838D01*
X116496106Y-61692424D01*
X116361464Y-61440526D01*
X116180264Y-61219735D01*
X115959473Y-61038536D01*
X115707575Y-60903894D01*
X115434249Y-60820981D01*
X115150000Y-60792985D01*
X114865750Y-60820981D01*
X114592424Y-60903894D01*
X114340526Y-61038536D01*
X114119735Y-61219736D01*
X113938536Y-61440527D01*
X113803894Y-61692425D01*
X113720981Y-61965751D01*
X113700000Y-62178776D01*
X113700000Y-63087868D01*
X110393934Y-66393934D01*
X110375280Y-66416664D01*
X110361418Y-66442597D01*
X110352882Y-66470736D01*
X110350000Y-66500000D01*
X110350000Y-67687868D01*
X104893934Y-73143934D01*
X104875280Y-73166664D01*
X104861418Y-73192597D01*
X104852882Y-73220736D01*
X104850000Y-73250000D01*
X104850000Y-84187868D01*
X98393934Y-90643934D01*
X98375280Y-90666664D01*
X98361418Y-90692597D01*
X98352882Y-90720736D01*
X98350000Y-90750000D01*
X98350000Y-94000000D01*
X98352882Y-94029264D01*
X98361418Y-94057403D01*
X98375280Y-94083336D01*
X98393934Y-94106066D01*
X105850000Y-101562132D01*
X105850000Y-109350000D01*
X96900000Y-109350000D01*
X96900000Y-108593612D01*
X101837809Y-108593612D01*
X101989820Y-108850524D01*
X102313674Y-109017615D01*
X102663902Y-109118315D01*
X103027047Y-109148755D01*
X103389152Y-109107762D01*
X103736302Y-108996915D01*
X104010180Y-108850524D01*
X104162191Y-108593612D01*
X103000000Y-107431421D01*
X101837809Y-108593612D01*
X96900000Y-108593612D01*
X96900000Y-107317047D01*
X101141245Y-107317047D01*
X101182238Y-107679152D01*
X101293085Y-108026302D01*
X101439476Y-108300180D01*
X101696388Y-108452191D01*
X102858579Y-107290000D01*
X103141421Y-107290000D01*
X104303612Y-108452191D01*
X104560524Y-108300180D01*
X104727615Y-107976326D01*
X104828315Y-107626098D01*
X104858755Y-107262953D01*
X104817762Y-106900848D01*
X104706915Y-106553698D01*
X104560524Y-106279820D01*
X104303612Y-106127809D01*
X103141421Y-107290000D01*
X102858579Y-107290000D01*
X101696388Y-106127809D01*
X101439476Y-106279820D01*
X101272385Y-106603674D01*
X101171685Y-106953902D01*
X101141245Y-107317047D01*
X96900000Y-107317047D01*
X96900000Y-105982436D01*
X99408986Y-105982436D01*
X99548973Y-106229107D01*
X99855806Y-106386222D01*
X100187395Y-106480459D01*
X100530997Y-106508195D01*
X100873409Y-106468364D01*
X101201470Y-106362498D01*
X101451027Y-106229107D01*
X101588771Y-105986388D01*
X101837809Y-105986388D01*
X103000000Y-107148579D01*
X104162191Y-105986388D01*
X104010180Y-105729476D01*
X103686326Y-105562385D01*
X103336098Y-105461685D01*
X102972953Y-105431245D01*
X102610848Y-105472238D01*
X102263698Y-105583085D01*
X101989820Y-105729476D01*
X101837809Y-105986388D01*
X101588771Y-105986388D01*
X101591014Y-105982436D01*
X100500000Y-104891421D01*
X99408986Y-105982436D01*
X96900000Y-105982436D01*
X96900000Y-105804669D01*
X97050830Y-105578936D01*
X97182749Y-105260456D01*
X97250000Y-104922360D01*
X97250000Y-104780997D01*
X98741805Y-104780997D01*
X98781636Y-105123409D01*
X98887502Y-105451470D01*
X99020893Y-105701027D01*
X99267564Y-105841014D01*
X100358579Y-104750000D01*
X100641421Y-104750000D01*
X101732436Y-105841014D01*
X101979107Y-105701027D01*
X102136222Y-105394194D01*
X102230459Y-105062605D01*
X102258195Y-104719003D01*
X102218364Y-104376591D01*
X102112498Y-104048530D01*
X101979107Y-103798973D01*
X101732436Y-103658986D01*
X100641421Y-104750000D01*
X100358579Y-104750000D01*
X99267564Y-103658986D01*
X99020893Y-103798973D01*
X98863778Y-104105806D01*
X98769541Y-104437395D01*
X98741805Y-104780997D01*
X97250000Y-104780997D01*
X97250000Y-104577640D01*
X97182749Y-104239544D01*
X97050830Y-103921064D01*
X96900000Y-103695331D01*
X96900000Y-103517564D01*
X99408986Y-103517564D01*
X100500000Y-104608579D01*
X101591014Y-103517564D01*
X101588772Y-103513612D01*
X101837809Y-103513612D01*
X101989820Y-103770524D01*
X102313674Y-103937615D01*
X102663902Y-104038315D01*
X103027047Y-104068755D01*
X103389152Y-104027762D01*
X103736302Y-103916915D01*
X104010180Y-103770524D01*
X104162191Y-103513612D01*
X103000000Y-102351421D01*
X101837809Y-103513612D01*
X101588772Y-103513612D01*
X101451027Y-103270893D01*
X101144194Y-103113778D01*
X100812605Y-103019541D01*
X100469003Y-102991805D01*
X100126591Y-103031636D01*
X99798530Y-103137502D01*
X99548973Y-103270893D01*
X99408986Y-103517564D01*
X96900000Y-103517564D01*
X96900000Y-102237047D01*
X101141245Y-102237047D01*
X101182238Y-102599152D01*
X101293085Y-102946302D01*
X101439476Y-103220180D01*
X101696388Y-103372191D01*
X102858579Y-102210000D01*
X103141421Y-102210000D01*
X104303612Y-103372191D01*
X104560524Y-103220180D01*
X104727615Y-102896326D01*
X104828315Y-102546098D01*
X104858755Y-102182953D01*
X104817762Y-101820848D01*
X104706915Y-101473698D01*
X104560524Y-101199820D01*
X104303612Y-101047809D01*
X103141421Y-102210000D01*
X102858579Y-102210000D01*
X101696388Y-101047809D01*
X101439476Y-101199820D01*
X101272385Y-101523674D01*
X101171685Y-101873902D01*
X101141245Y-102237047D01*
X96900000Y-102237047D01*
X96900000Y-101500000D01*
X96897118Y-101470736D01*
X96888582Y-101442597D01*
X96874720Y-101416664D01*
X96856066Y-101393934D01*
X96368520Y-100906388D01*
X101837809Y-100906388D01*
X103000000Y-102068579D01*
X104162191Y-100906388D01*
X104010180Y-100649476D01*
X103686326Y-100482385D01*
X103336098Y-100381685D01*
X102972953Y-100351245D01*
X102610848Y-100392238D01*
X102263698Y-100503085D01*
X101989820Y-100649476D01*
X101837809Y-100906388D01*
X96368520Y-100906388D01*
X95856066Y-100393934D01*
X95833336Y-100375280D01*
X95807403Y-100361418D01*
X95779264Y-100352882D01*
X95750000Y-100350000D01*
X92812132Y-100350000D01*
X87412132Y-94950000D01*
X87847823Y-94950000D01*
X87856511Y-95038215D01*
X87882243Y-95123041D01*
X87924029Y-95201216D01*
X87980263Y-95269737D01*
X88048784Y-95325971D01*
X88126959Y-95367757D01*
X88211785Y-95393489D01*
X88300000Y-95402177D01*
X89287500Y-95400000D01*
X89400000Y-95287500D01*
X89400000Y-93850000D01*
X89600000Y-93850000D01*
X89600000Y-95287500D01*
X89712500Y-95400000D01*
X90700000Y-95402177D01*
X90788215Y-95393489D01*
X90873041Y-95367757D01*
X90951216Y-95325971D01*
X91019737Y-95269737D01*
X91075971Y-95201216D01*
X91117757Y-95123041D01*
X91143489Y-95038215D01*
X91152177Y-94950000D01*
X91150000Y-93962500D01*
X91037500Y-93850000D01*
X89600000Y-93850000D01*
X89400000Y-93850000D01*
X87962500Y-93850000D01*
X87850000Y-93962500D01*
X87847823Y-94950000D01*
X87412132Y-94950000D01*
X87400000Y-94937868D01*
X87400000Y-92550000D01*
X87847823Y-92550000D01*
X87850000Y-93537500D01*
X87962500Y-93650000D01*
X89400000Y-93650000D01*
X89400000Y-92212500D01*
X89600000Y-92212500D01*
X89600000Y-93650000D01*
X91037500Y-93650000D01*
X91150000Y-93537500D01*
X91152177Y-92550000D01*
X91143489Y-92461785D01*
X91117757Y-92376959D01*
X91075971Y-92298784D01*
X91019737Y-92230263D01*
X90951216Y-92174029D01*
X90873041Y-92132243D01*
X90788215Y-92106511D01*
X90700000Y-92097823D01*
X89712500Y-92100000D01*
X89600000Y-92212500D01*
X89400000Y-92212500D01*
X89287500Y-92100000D01*
X88300000Y-92097823D01*
X88211785Y-92106511D01*
X88126959Y-92132243D01*
X88048784Y-92174029D01*
X87980263Y-92230263D01*
X87924029Y-92298784D01*
X87882243Y-92376959D01*
X87856511Y-92461785D01*
X87847823Y-92550000D01*
X87400000Y-92550000D01*
X87400000Y-90312132D01*
X89849283Y-87862849D01*
X89981287Y-87836592D01*
X90281568Y-87712211D01*
X90551814Y-87531639D01*
X90781639Y-87301814D01*
X90962211Y-87031568D01*
X91086592Y-86731287D01*
X91112849Y-86599283D01*
X92856066Y-84856066D01*
X92874720Y-84833336D01*
X92888582Y-84807403D01*
X92897118Y-84779264D01*
X92900000Y-84750000D01*
X92900000Y-72817791D01*
X98060000Y-72817791D01*
X98060000Y-73182209D01*
X98131095Y-73539625D01*
X98270552Y-73876303D01*
X98473011Y-74179306D01*
X98730694Y-74436989D01*
X99033697Y-74639448D01*
X99370375Y-74778905D01*
X99727791Y-74850000D01*
X100092209Y-74850000D01*
X100449625Y-74778905D01*
X100786303Y-74639448D01*
X101089306Y-74436989D01*
X101346989Y-74179306D01*
X101549448Y-73876303D01*
X101688905Y-73539625D01*
X101760000Y-73182209D01*
X101760000Y-72817791D01*
X101688905Y-72460375D01*
X101549448Y-72123697D01*
X101346989Y-71820694D01*
X101089306Y-71563011D01*
X100786303Y-71360552D01*
X100449625Y-71221095D01*
X100092209Y-71150000D01*
X99727791Y-71150000D01*
X99370375Y-71221095D01*
X99033697Y-71360552D01*
X98730694Y-71563011D01*
X98473011Y-71820694D01*
X98270552Y-72123697D01*
X98131095Y-72460375D01*
X98060000Y-72817791D01*
X92900000Y-72817791D01*
X92900000Y-70562132D01*
X96162132Y-67300000D01*
X101247823Y-67300000D01*
X101256511Y-67388215D01*
X101282243Y-67473041D01*
X101324029Y-67551216D01*
X101380263Y-67619737D01*
X101448784Y-67675971D01*
X101526959Y-67717757D01*
X101611785Y-67743489D01*
X101700000Y-67752177D01*
X102287500Y-67750000D01*
X102400000Y-67637500D01*
X102400000Y-66600000D01*
X102600000Y-66600000D01*
X102600000Y-67637500D01*
X102712500Y-67750000D01*
X103300000Y-67752177D01*
X103388215Y-67743489D01*
X103473041Y-67717757D01*
X103551216Y-67675971D01*
X103619737Y-67619737D01*
X103675971Y-67551216D01*
X103717757Y-67473041D01*
X103743489Y-67388215D01*
X103752177Y-67300000D01*
X103750000Y-66712500D01*
X103637500Y-66600000D01*
X102600000Y-66600000D01*
X102400000Y-66600000D01*
X101362500Y-66600000D01*
X101250000Y-66712500D01*
X101247823Y-67300000D01*
X96162132Y-67300000D01*
X99812132Y-63650000D01*
X101295131Y-63650000D01*
X101250000Y-63876886D01*
X101250000Y-64123114D01*
X101298037Y-64364611D01*
X101392265Y-64592097D01*
X101529062Y-64796828D01*
X101703172Y-64970938D01*
X101907903Y-65107735D01*
X102135389Y-65201963D01*
X102376886Y-65250000D01*
X102399998Y-65250000D01*
X102399998Y-65362498D01*
X102287500Y-65250000D01*
X101700000Y-65247823D01*
X101611785Y-65256511D01*
X101526959Y-65282243D01*
X101448784Y-65324029D01*
X101380263Y-65380263D01*
X101324029Y-65448784D01*
X101282243Y-65526959D01*
X101256511Y-65611785D01*
X101247823Y-65700000D01*
X101250000Y-66287500D01*
X101362500Y-66400000D01*
X102400000Y-66400000D01*
X102400000Y-66380000D01*
X102600000Y-66380000D01*
X102600000Y-66400000D01*
X103637500Y-66400000D01*
X103732629Y-66304871D01*
X107336551Y-66304871D01*
X107404226Y-66490143D01*
X107608841Y-66587346D01*
X107828488Y-66642764D01*
X108054726Y-66654267D01*
X108278860Y-66621412D01*
X108492279Y-66545461D01*
X108595774Y-66490143D01*
X108663449Y-66304871D01*
X108000000Y-65641421D01*
X107336551Y-66304871D01*
X103732629Y-66304871D01*
X103750000Y-66287500D01*
X103752177Y-65700000D01*
X103743489Y-65611785D01*
X103726181Y-65554726D01*
X106845733Y-65554726D01*
X106878588Y-65778860D01*
X106954539Y-65992279D01*
X107009857Y-66095774D01*
X107195129Y-66163449D01*
X107858579Y-65500000D01*
X108141421Y-65500000D01*
X108804871Y-66163449D01*
X108990143Y-66095774D01*
X109087346Y-65891159D01*
X109142764Y-65671512D01*
X109154267Y-65445274D01*
X109121412Y-65221140D01*
X109045461Y-65007721D01*
X108990143Y-64904226D01*
X108804871Y-64836551D01*
X108141421Y-65500000D01*
X107858579Y-65500000D01*
X107195129Y-64836551D01*
X107009857Y-64904226D01*
X106912654Y-65108841D01*
X106857236Y-65328488D01*
X106845733Y-65554726D01*
X103726181Y-65554726D01*
X103717757Y-65526959D01*
X103675971Y-65448784D01*
X103619737Y-65380263D01*
X103551216Y-65324029D01*
X103473041Y-65282243D01*
X103388215Y-65256511D01*
X103300000Y-65247823D01*
X102712500Y-65250000D01*
X102600002Y-65362498D01*
X102600002Y-65250000D01*
X102623114Y-65250000D01*
X102864611Y-65201963D01*
X103092097Y-65107735D01*
X103296828Y-64970938D01*
X103470938Y-64796828D01*
X103538891Y-64695129D01*
X107336551Y-64695129D01*
X108000000Y-65358579D01*
X108663449Y-64695129D01*
X108595774Y-64509857D01*
X108391159Y-64412654D01*
X108171512Y-64357236D01*
X107945274Y-64345733D01*
X107721140Y-64378588D01*
X107507721Y-64454539D01*
X107404226Y-64509857D01*
X107336551Y-64695129D01*
X103538891Y-64695129D01*
X103607735Y-64592097D01*
X103701963Y-64364611D01*
X103750000Y-64123114D01*
X103750000Y-63876886D01*
X103704869Y-63650000D01*
X104000000Y-63650000D01*
X104029264Y-63647118D01*
X104057403Y-63638582D01*
X104083336Y-63624720D01*
X104106066Y-63606066D01*
X104825397Y-62886735D01*
X106850000Y-62886735D01*
X106850000Y-63113265D01*
X106894194Y-63335443D01*
X106980884Y-63544729D01*
X107106737Y-63733082D01*
X107266918Y-63893263D01*
X107455271Y-64019116D01*
X107664557Y-64105806D01*
X107886735Y-64150000D01*
X108113265Y-64150000D01*
X108335443Y-64105806D01*
X108544729Y-64019116D01*
X108733082Y-63893263D01*
X108893263Y-63733082D01*
X109019116Y-63544729D01*
X109105806Y-63335443D01*
X109142692Y-63150000D01*
X110397823Y-63150000D01*
X110406511Y-63238215D01*
X110432243Y-63323041D01*
X110474029Y-63401216D01*
X110530263Y-63469737D01*
X110598784Y-63525971D01*
X110676959Y-63567757D01*
X110761785Y-63593489D01*
X110850000Y-63602177D01*
X111537500Y-63600000D01*
X111650000Y-63487500D01*
X111650000Y-62350000D01*
X111850000Y-62350000D01*
X111850000Y-63487500D01*
X111962500Y-63600000D01*
X112650000Y-63602177D01*
X112738215Y-63593489D01*
X112823041Y-63567757D01*
X112901216Y-63525971D01*
X112969737Y-63469737D01*
X113025971Y-63401216D01*
X113067757Y-63323041D01*
X113093489Y-63238215D01*
X113102177Y-63150000D01*
X113100000Y-62462500D01*
X112987500Y-62350000D01*
X111850000Y-62350000D01*
X111650000Y-62350000D01*
X110512500Y-62350000D01*
X110400000Y-62462500D01*
X110397823Y-63150000D01*
X109142692Y-63150000D01*
X109150000Y-63113265D01*
X109150000Y-62886735D01*
X109105806Y-62664557D01*
X109019116Y-62455271D01*
X108893263Y-62266918D01*
X108733082Y-62106737D01*
X108544729Y-61980884D01*
X108335443Y-61894194D01*
X108113265Y-61850000D01*
X107886735Y-61850000D01*
X107664557Y-61894194D01*
X107455271Y-61980884D01*
X107266918Y-62106737D01*
X107106737Y-62266918D01*
X106980884Y-62455271D01*
X106894194Y-62664557D01*
X106850000Y-62886735D01*
X104825397Y-62886735D01*
X106362132Y-61350000D01*
X110397823Y-61350000D01*
X110400000Y-62037500D01*
X110512500Y-62150000D01*
X111650000Y-62150000D01*
X111650000Y-61012500D01*
X111850000Y-61012500D01*
X111850000Y-62150000D01*
X112987500Y-62150000D01*
X113100000Y-62037500D01*
X113102177Y-61350000D01*
X113093489Y-61261785D01*
X113067757Y-61176959D01*
X113025971Y-61098784D01*
X112969737Y-61030263D01*
X112901216Y-60974029D01*
X112823041Y-60932243D01*
X112738215Y-60906511D01*
X112650000Y-60897823D01*
X111962500Y-60900000D01*
X111850000Y-61012500D01*
X111650000Y-61012500D01*
X111537500Y-60900000D01*
X110850000Y-60897823D01*
X110761785Y-60906511D01*
X110676959Y-60932243D01*
X110598784Y-60974029D01*
X110530263Y-61030263D01*
X110474029Y-61098784D01*
X110432243Y-61176959D01*
X110406511Y-61261785D01*
X110397823Y-61350000D01*
X106362132Y-61350000D01*
X106562132Y-61150000D01*
X108500000Y-61150000D01*
X108529264Y-61147118D01*
X108557403Y-61138582D01*
X108583336Y-61124720D01*
X108606066Y-61106066D01*
X110062132Y-59650000D01*
X118937868Y-59650000D01*
X120350000Y-61062132D01*
%TO.N,GND*%
G36*
X134600000Y-59501472D02*
G01*
X133618774Y-58520247D01*
X133650000Y-58363265D01*
X133650000Y-58136735D01*
X133605806Y-57914557D01*
X133519116Y-57705271D01*
X133393263Y-57516918D01*
X133233082Y-57356737D01*
X133044729Y-57230884D01*
X132835443Y-57144194D01*
X132613265Y-57100000D01*
X132386735Y-57100000D01*
X132164557Y-57144194D01*
X131955271Y-57230884D01*
X131766918Y-57356737D01*
X131606737Y-57516918D01*
X131517815Y-57650000D01*
X128378528Y-57650000D01*
X128331773Y-57603245D01*
X128348120Y-57563780D01*
X128400000Y-57302963D01*
X128400000Y-57037037D01*
X128348120Y-56776220D01*
X128246354Y-56530535D01*
X128098613Y-56309425D01*
X127910575Y-56121387D01*
X127689465Y-55973646D01*
X127443780Y-55871880D01*
X127182963Y-55820000D01*
X126917037Y-55820000D01*
X126656220Y-55871880D01*
X126410535Y-55973646D01*
X126189425Y-56121387D01*
X126001387Y-56309425D01*
X125853646Y-56530535D01*
X125751880Y-56776220D01*
X125700000Y-57037037D01*
X125700000Y-57302963D01*
X125751880Y-57563780D01*
X125853646Y-57809465D01*
X126001387Y-58030575D01*
X126189425Y-58218613D01*
X126410535Y-58366354D01*
X126656220Y-58468120D01*
X126917037Y-58520000D01*
X127182963Y-58520000D01*
X127443780Y-58468120D01*
X127483245Y-58451773D01*
X127684891Y-58653419D01*
X127703683Y-58676317D01*
X127795045Y-58751296D01*
X127876303Y-58794729D01*
X127899279Y-58807010D01*
X128012379Y-58841319D01*
X128130000Y-58852903D01*
X128159476Y-58850000D01*
X131517815Y-58850000D01*
X131606737Y-58983082D01*
X131766918Y-59143263D01*
X131955271Y-59269116D01*
X132164557Y-59355806D01*
X132386735Y-59400000D01*
X132613265Y-59400000D01*
X132770247Y-59368774D01*
X133650000Y-60248528D01*
X133650000Y-60636735D01*
X133605806Y-60414557D01*
X133519116Y-60205271D01*
X133393263Y-60016918D01*
X133233082Y-59856737D01*
X133044729Y-59730884D01*
X132835443Y-59644194D01*
X132613265Y-59600000D01*
X132386735Y-59600000D01*
X132164557Y-59644194D01*
X131955271Y-59730884D01*
X131766918Y-59856737D01*
X131606737Y-60016918D01*
X131517815Y-60150000D01*
X126879473Y-60150000D01*
X126849999Y-60147097D01*
X126732378Y-60158682D01*
X126698070Y-60169089D01*
X126619279Y-60192990D01*
X126515045Y-60248704D01*
X126423683Y-60323683D01*
X126404896Y-60346575D01*
X125783245Y-60968227D01*
X125743780Y-60951880D01*
X125482963Y-60900000D01*
X125217037Y-60900000D01*
X124956220Y-60951880D01*
X124710535Y-61053646D01*
X124489425Y-61201387D01*
X124301387Y-61389425D01*
X124153646Y-61610535D01*
X124051880Y-61856220D01*
X124000000Y-62117037D01*
X124000000Y-62382963D01*
X124051880Y-62643780D01*
X124112161Y-62789311D01*
X122270247Y-64631226D01*
X122113265Y-64600000D01*
X121886735Y-64600000D01*
X121664557Y-64644194D01*
X121455271Y-64730884D01*
X121266918Y-64856737D01*
X121106737Y-65016918D01*
X120980884Y-65205271D01*
X120894194Y-65414557D01*
X120850000Y-65636735D01*
X120850000Y-65863265D01*
X120894194Y-66085443D01*
X120980884Y-66294729D01*
X121106737Y-66483082D01*
X121266918Y-66643263D01*
X121400000Y-66732185D01*
X121400001Y-67567545D01*
X121203172Y-67699062D01*
X121029062Y-67873172D01*
X120892265Y-68077903D01*
X120798037Y-68305389D01*
X120750000Y-68546886D01*
X120750000Y-68793114D01*
X120798037Y-69034611D01*
X120892265Y-69262097D01*
X121029062Y-69466828D01*
X121203172Y-69640938D01*
X121407903Y-69777735D01*
X121635389Y-69871963D01*
X121876886Y-69920000D01*
X122123114Y-69920000D01*
X122364611Y-69871963D01*
X122592097Y-69777735D01*
X122796828Y-69640938D01*
X122970938Y-69466828D01*
X123102454Y-69270000D01*
X124147546Y-69270000D01*
X124279062Y-69466828D01*
X124453172Y-69640938D01*
X124657903Y-69777735D01*
X124885389Y-69871963D01*
X125126886Y-69920000D01*
X125373114Y-69920000D01*
X125614611Y-69871963D01*
X125842097Y-69777735D01*
X126046828Y-69640938D01*
X126220938Y-69466828D01*
X126357735Y-69262097D01*
X126451963Y-69034611D01*
X126500000Y-68793114D01*
X126500000Y-68546886D01*
X126451963Y-68305389D01*
X126357735Y-68077903D01*
X126220938Y-67873172D01*
X126046828Y-67699062D01*
X125842097Y-67562265D01*
X125614611Y-67468037D01*
X125373114Y-67420000D01*
X125126886Y-67420000D01*
X124885389Y-67468037D01*
X124657903Y-67562265D01*
X124453172Y-67699062D01*
X124279062Y-67873172D01*
X124147546Y-68070000D01*
X123102454Y-68070000D01*
X122970938Y-67873172D01*
X122796828Y-67699062D01*
X122600000Y-67567546D01*
X122600000Y-66732185D01*
X122733082Y-66643263D01*
X122893263Y-66483082D01*
X123019116Y-66294729D01*
X123105806Y-66085443D01*
X123150000Y-65863265D01*
X123150000Y-65636735D01*
X123118774Y-65479753D01*
X125034782Y-63563747D01*
X125217037Y-63600000D01*
X125482963Y-63600000D01*
X125743780Y-63548120D01*
X125989465Y-63446354D01*
X126210575Y-63298613D01*
X126398613Y-63110575D01*
X126546354Y-62889465D01*
X126648120Y-62643780D01*
X126700000Y-62382963D01*
X126700000Y-62117037D01*
X126648120Y-61856220D01*
X126631773Y-61816755D01*
X127098529Y-61350000D01*
X127740812Y-61350000D01*
X127701387Y-61389425D01*
X127553646Y-61610535D01*
X127451880Y-61856220D01*
X127400000Y-62117037D01*
X127400000Y-62382963D01*
X127451880Y-62643780D01*
X127553646Y-62889465D01*
X127701387Y-63110575D01*
X127889425Y-63298613D01*
X128110535Y-63446354D01*
X128356220Y-63548120D01*
X128617037Y-63600000D01*
X128882963Y-63600000D01*
X129143780Y-63548120D01*
X129389465Y-63446354D01*
X129610575Y-63298613D01*
X129798613Y-63110575D01*
X129946354Y-62889465D01*
X130048120Y-62643780D01*
X130100000Y-62382963D01*
X130100000Y-62117037D01*
X130048120Y-61856220D01*
X129946354Y-61610535D01*
X129798613Y-61389425D01*
X129759188Y-61350000D01*
X131517815Y-61350000D01*
X131606737Y-61483082D01*
X131766918Y-61643263D01*
X131955271Y-61769116D01*
X132164557Y-61855806D01*
X132386735Y-61900000D01*
X132613265Y-61900000D01*
X132835443Y-61855806D01*
X133044729Y-61769116D01*
X133233082Y-61643263D01*
X133393263Y-61483082D01*
X133519116Y-61294729D01*
X133605806Y-61085443D01*
X133650000Y-60863265D01*
X133650001Y-61751471D01*
X132096582Y-63304891D01*
X132073684Y-63323683D01*
X131998705Y-63415045D01*
X131973340Y-63462500D01*
X131942991Y-63519279D01*
X131908682Y-63632380D01*
X131897097Y-63750000D01*
X131900001Y-63779483D01*
X131900000Y-64767814D01*
X131766918Y-64856737D01*
X131606737Y-65016918D01*
X131480884Y-65205271D01*
X131394194Y-65414557D01*
X131350000Y-65636735D01*
X131350000Y-65863265D01*
X131381226Y-66020247D01*
X131346586Y-66054887D01*
X131323683Y-66073683D01*
X131248704Y-66165046D01*
X131192990Y-66269280D01*
X131181545Y-66307010D01*
X131158682Y-66382380D01*
X131147097Y-66500000D01*
X131150000Y-66529474D01*
X131150000Y-67567545D01*
X130953172Y-67699062D01*
X130779062Y-67873172D01*
X130647546Y-68070000D01*
X129602454Y-68070000D01*
X129470938Y-67873172D01*
X129296828Y-67699062D01*
X129092097Y-67562265D01*
X128864611Y-67468037D01*
X128623114Y-67420000D01*
X128376886Y-67420000D01*
X128135389Y-67468037D01*
X127907903Y-67562265D01*
X127703172Y-67699062D01*
X127529062Y-67873172D01*
X127392265Y-68077903D01*
X127298037Y-68305389D01*
X127250000Y-68546886D01*
X127250000Y-68793114D01*
X127298037Y-69034611D01*
X127392265Y-69262097D01*
X127529062Y-69466828D01*
X127703172Y-69640938D01*
X127907903Y-69777735D01*
X128135389Y-69871963D01*
X128376886Y-69920000D01*
X128623114Y-69920000D01*
X128864611Y-69871963D01*
X129092097Y-69777735D01*
X129296828Y-69640938D01*
X129470938Y-69466828D01*
X129602454Y-69270000D01*
X130647546Y-69270000D01*
X130779062Y-69466828D01*
X130953172Y-69640938D01*
X131157903Y-69777735D01*
X131385389Y-69871963D01*
X131626886Y-69920000D01*
X131873114Y-69920000D01*
X132114611Y-69871963D01*
X132342097Y-69777735D01*
X132546828Y-69640938D01*
X132720938Y-69466828D01*
X132857735Y-69262097D01*
X132951963Y-69034611D01*
X133000000Y-68793114D01*
X133000000Y-68546886D01*
X133750000Y-68546886D01*
X133750000Y-68793114D01*
X133798037Y-69034611D01*
X133892265Y-69262097D01*
X134029062Y-69466828D01*
X134203172Y-69640938D01*
X134407903Y-69777735D01*
X134635389Y-69871963D01*
X134876886Y-69920000D01*
X135123114Y-69920000D01*
X135364611Y-69871963D01*
X135592097Y-69777735D01*
X135796828Y-69640938D01*
X135970938Y-69466828D01*
X136107735Y-69262097D01*
X136201963Y-69034611D01*
X136250000Y-68793114D01*
X136250000Y-68546886D01*
X136201963Y-68305389D01*
X136107735Y-68077903D01*
X135970938Y-67873172D01*
X135796828Y-67699062D01*
X135600000Y-67567546D01*
X135600000Y-66732185D01*
X135733082Y-66643263D01*
X135893263Y-66483082D01*
X136019116Y-66294729D01*
X136105806Y-66085443D01*
X136150000Y-65863265D01*
X136150000Y-65636735D01*
X136105806Y-65414557D01*
X136019116Y-65205271D01*
X135893263Y-65016918D01*
X135733082Y-64856737D01*
X135544729Y-64730884D01*
X135335443Y-64644194D01*
X135113265Y-64600000D01*
X134886735Y-64600000D01*
X134664557Y-64644194D01*
X134455271Y-64730884D01*
X134266918Y-64856737D01*
X134106737Y-65016918D01*
X133980884Y-65205271D01*
X133894194Y-65414557D01*
X133850000Y-65636735D01*
X133850000Y-65863265D01*
X133894194Y-66085443D01*
X133980884Y-66294729D01*
X134106737Y-66483082D01*
X134266918Y-66643263D01*
X134400000Y-66732185D01*
X134400001Y-67567545D01*
X134203172Y-67699062D01*
X134029062Y-67873172D01*
X133892265Y-68077903D01*
X133798037Y-68305389D01*
X133750000Y-68546886D01*
X133000000Y-68546886D01*
X132951963Y-68305389D01*
X132857735Y-68077903D01*
X132720938Y-67873172D01*
X132546828Y-67699062D01*
X132350000Y-67567546D01*
X132350000Y-66892693D01*
X132386735Y-66900000D01*
X132613265Y-66900000D01*
X132835443Y-66855806D01*
X133044729Y-66769116D01*
X133233082Y-66643263D01*
X133393263Y-66483082D01*
X133519116Y-66294729D01*
X133605806Y-66085443D01*
X133650000Y-65863265D01*
X133650000Y-65636735D01*
X133605806Y-65414557D01*
X133519116Y-65205271D01*
X133393263Y-65016918D01*
X133233082Y-64856737D01*
X133100000Y-64767815D01*
X133100000Y-63998527D01*
X134600000Y-62498528D01*
X134600000Y-62500000D01*
X134602882Y-62529264D01*
X134611418Y-62557403D01*
X134625280Y-62583336D01*
X134643934Y-62606066D01*
X135143934Y-63106066D01*
X135166664Y-63124720D01*
X135192597Y-63138582D01*
X135220736Y-63147118D01*
X135250000Y-63150000D01*
X142025001Y-63150000D01*
X142025000Y-104041573D01*
X141818165Y-103732022D01*
X141267978Y-103181835D01*
X140621026Y-102749556D01*
X139902172Y-102451797D01*
X139139041Y-102300000D01*
X138360959Y-102300000D01*
X137597828Y-102451797D01*
X136878974Y-102749556D01*
X136232022Y-103181835D01*
X135681835Y-103732022D01*
X135249556Y-104378974D01*
X134951797Y-105097828D01*
X134800000Y-105860959D01*
X134800000Y-106639041D01*
X134951797Y-107402172D01*
X135249556Y-108121026D01*
X135681835Y-108767978D01*
X136232022Y-109318165D01*
X136541573Y-109525000D01*
X113697538Y-109525000D01*
X113700000Y-109500000D01*
X113700000Y-108593612D01*
X116837809Y-108593612D01*
X116989820Y-108850524D01*
X117313674Y-109017615D01*
X117663902Y-109118315D01*
X118027047Y-109148755D01*
X118389152Y-109107762D01*
X118736302Y-108996915D01*
X119010180Y-108850524D01*
X119162191Y-108593612D01*
X118000000Y-107431421D01*
X116837809Y-108593612D01*
X113700000Y-108593612D01*
X113700000Y-104780997D01*
X113991805Y-104780997D01*
X114031636Y-105123409D01*
X114137502Y-105451470D01*
X114270893Y-105701027D01*
X114517564Y-105841014D01*
X115608579Y-104750000D01*
X114517564Y-103658986D01*
X114270893Y-103798973D01*
X114113778Y-104105806D01*
X114019541Y-104437395D01*
X113991805Y-104780997D01*
X113700000Y-104780997D01*
X113700000Y-103517564D01*
X114658986Y-103517564D01*
X115750000Y-104608579D01*
X115764142Y-104594436D01*
X115905564Y-104735858D01*
X115891421Y-104750000D01*
X115905564Y-104764142D01*
X115764142Y-104905564D01*
X115750000Y-104891421D01*
X114658986Y-105982436D01*
X114798973Y-106229107D01*
X115105806Y-106386222D01*
X115437395Y-106480459D01*
X115780997Y-106508195D01*
X116123409Y-106468364D01*
X116385902Y-106383657D01*
X116272385Y-106603674D01*
X116171685Y-106953902D01*
X116141245Y-107317047D01*
X116182238Y-107679152D01*
X116293085Y-108026302D01*
X116439476Y-108300180D01*
X116696388Y-108452191D01*
X117858579Y-107290000D01*
X118141421Y-107290000D01*
X119303612Y-108452191D01*
X119560524Y-108300180D01*
X119727615Y-107976326D01*
X119828315Y-107626098D01*
X119858755Y-107262953D01*
X119817762Y-106900848D01*
X119706915Y-106553698D01*
X119560524Y-106279820D01*
X119303612Y-106127809D01*
X118141421Y-107290000D01*
X117858579Y-107290000D01*
X117844437Y-107275858D01*
X117985858Y-107134437D01*
X118000000Y-107148579D01*
X119162191Y-105986388D01*
X119010180Y-105729476D01*
X118686326Y-105562385D01*
X118336098Y-105461685D01*
X117972953Y-105431245D01*
X117610848Y-105472238D01*
X117294543Y-105573236D01*
X117386222Y-105394194D01*
X117480459Y-105062605D01*
X117508195Y-104719003D01*
X117468364Y-104376591D01*
X117362498Y-104048530D01*
X117299229Y-103930162D01*
X117313674Y-103937615D01*
X117663902Y-104038315D01*
X118027047Y-104068755D01*
X118389152Y-104027762D01*
X118736302Y-103916915D01*
X119010180Y-103770524D01*
X119162191Y-103513612D01*
X118000000Y-102351421D01*
X117985858Y-102365564D01*
X117844437Y-102224143D01*
X117858579Y-102210000D01*
X118141421Y-102210000D01*
X119303612Y-103372191D01*
X119560524Y-103220180D01*
X119727615Y-102896326D01*
X119828315Y-102546098D01*
X119858755Y-102182953D01*
X119817762Y-101820848D01*
X119706915Y-101473698D01*
X119560524Y-101199820D01*
X119303612Y-101047809D01*
X118141421Y-102210000D01*
X117858579Y-102210000D01*
X116696388Y-101047809D01*
X116439476Y-101199820D01*
X116272385Y-101523674D01*
X116171685Y-101873902D01*
X116141245Y-102237047D01*
X116182238Y-102599152D01*
X116293085Y-102946302D01*
X116380527Y-103109894D01*
X116062605Y-103019541D01*
X115719003Y-102991805D01*
X115376591Y-103031636D01*
X115048530Y-103137502D01*
X114798973Y-103270893D01*
X114658986Y-103517564D01*
X113700000Y-103517564D01*
X113700000Y-100906388D01*
X116837809Y-100906388D01*
X118000000Y-102068579D01*
X119162191Y-100906388D01*
X119010180Y-100649476D01*
X118686326Y-100482385D01*
X118336098Y-100381685D01*
X117972953Y-100351245D01*
X117610848Y-100392238D01*
X117263698Y-100503085D01*
X116989820Y-100649476D01*
X116837809Y-100906388D01*
X113700000Y-100906388D01*
X113700000Y-98186396D01*
X116568198Y-95318198D01*
X116624161Y-95250007D01*
X116665746Y-95172208D01*
X116691353Y-95087791D01*
X116700000Y-95000000D01*
X116700000Y-91750000D01*
X116691353Y-91662209D01*
X116665746Y-91577792D01*
X116624161Y-91499993D01*
X116568198Y-91431802D01*
X116263282Y-91126886D01*
X121250000Y-91126886D01*
X121250000Y-91373114D01*
X121298037Y-91614611D01*
X121392265Y-91842097D01*
X121529062Y-92046828D01*
X121703172Y-92220938D01*
X121907903Y-92357735D01*
X122135389Y-92451963D01*
X122376886Y-92500000D01*
X122623114Y-92500000D01*
X122864611Y-92451963D01*
X123092097Y-92357735D01*
X123296828Y-92220938D01*
X123470938Y-92046828D01*
X123562007Y-91910534D01*
X123650000Y-91998528D01*
X123650001Y-103429059D01*
X123563167Y-103465027D01*
X123325679Y-103623711D01*
X123123711Y-103825679D01*
X122965027Y-104063167D01*
X122855723Y-104327051D01*
X122800000Y-104607187D01*
X122800000Y-104892813D01*
X122855723Y-105172949D01*
X122965027Y-105436833D01*
X123123711Y-105674321D01*
X123325679Y-105876289D01*
X123563167Y-106034973D01*
X123827051Y-106144277D01*
X124107187Y-106200000D01*
X124392813Y-106200000D01*
X124672949Y-106144277D01*
X124936833Y-106034973D01*
X125174321Y-105876289D01*
X125376289Y-105674321D01*
X125534973Y-105436833D01*
X125644277Y-105172949D01*
X125700000Y-104892813D01*
X125700000Y-104607187D01*
X126300000Y-104607187D01*
X126300000Y-104892813D01*
X126355723Y-105172949D01*
X126465027Y-105436833D01*
X126623711Y-105674321D01*
X126825679Y-105876289D01*
X127063167Y-106034973D01*
X127327051Y-106144277D01*
X127607187Y-106200000D01*
X127892813Y-106200000D01*
X128172949Y-106144277D01*
X128436833Y-106034973D01*
X128674321Y-105876289D01*
X128781816Y-105768794D01*
X130372628Y-105768794D01*
X130476509Y-105984750D01*
X130732259Y-106111925D01*
X131007906Y-106186762D01*
X131292856Y-106206386D01*
X131576159Y-106170042D01*
X131846928Y-106079125D01*
X132023491Y-105984750D01*
X132127372Y-105768794D01*
X131250000Y-104891421D01*
X130372628Y-105768794D01*
X128781816Y-105768794D01*
X128876289Y-105674321D01*
X129034973Y-105436833D01*
X129144277Y-105172949D01*
X129200000Y-104892813D01*
X129200000Y-104792856D01*
X129793614Y-104792856D01*
X129829958Y-105076159D01*
X129920875Y-105346928D01*
X130015250Y-105523491D01*
X130231206Y-105627372D01*
X131108579Y-104750000D01*
X131391421Y-104750000D01*
X132268794Y-105627372D01*
X132484750Y-105523491D01*
X132611925Y-105267741D01*
X132686762Y-104992094D01*
X132706386Y-104707144D01*
X132670042Y-104423841D01*
X132579125Y-104153072D01*
X132484750Y-103976509D01*
X132268794Y-103872628D01*
X131391421Y-104750000D01*
X131108579Y-104750000D01*
X130231206Y-103872628D01*
X130015250Y-103976509D01*
X129888075Y-104232259D01*
X129813238Y-104507906D01*
X129793614Y-104792856D01*
X129200000Y-104792856D01*
X129200000Y-104607187D01*
X129144277Y-104327051D01*
X129034973Y-104063167D01*
X128876289Y-103825679D01*
X128781816Y-103731206D01*
X130372628Y-103731206D01*
X131250000Y-104608579D01*
X132127372Y-103731206D01*
X132023491Y-103515250D01*
X131767741Y-103388075D01*
X131492094Y-103313238D01*
X131207144Y-103293614D01*
X130923841Y-103329958D01*
X130653072Y-103420875D01*
X130476509Y-103515250D01*
X130372628Y-103731206D01*
X128781816Y-103731206D01*
X128674321Y-103623711D01*
X128436833Y-103465027D01*
X128350000Y-103429060D01*
X128350000Y-94748527D01*
X131248528Y-91850000D01*
X132147546Y-91850000D01*
X132279062Y-92046828D01*
X132453172Y-92220938D01*
X132657903Y-92357735D01*
X132885389Y-92451963D01*
X133126886Y-92500000D01*
X133373114Y-92500000D01*
X133614611Y-92451963D01*
X133842097Y-92357735D01*
X134046828Y-92220938D01*
X134220938Y-92046828D01*
X134357735Y-91842097D01*
X134451963Y-91614611D01*
X134500000Y-91373114D01*
X134500000Y-91126886D01*
X134451963Y-90885389D01*
X134357735Y-90657903D01*
X134220938Y-90453172D01*
X134046828Y-90279062D01*
X133842097Y-90142265D01*
X133614611Y-90048037D01*
X133373114Y-90000000D01*
X133126886Y-90000000D01*
X132885389Y-90048037D01*
X132657903Y-90142265D01*
X132453172Y-90279062D01*
X132279062Y-90453172D01*
X132147546Y-90650000D01*
X131029473Y-90650000D01*
X130999999Y-90647097D01*
X130890288Y-90657903D01*
X130882379Y-90658682D01*
X130769279Y-90692990D01*
X130665045Y-90748704D01*
X130573683Y-90823683D01*
X130554891Y-90846581D01*
X127346582Y-94054891D01*
X127323684Y-94073683D01*
X127248705Y-94165045D01*
X127211490Y-94234670D01*
X127192991Y-94269279D01*
X127158682Y-94382380D01*
X127147097Y-94500000D01*
X127150001Y-94529484D01*
X127150000Y-103429060D01*
X127063167Y-103465027D01*
X126825679Y-103623711D01*
X126623711Y-103825679D01*
X126465027Y-104063167D01*
X126355723Y-104327051D01*
X126300000Y-104607187D01*
X125700000Y-104607187D01*
X125644277Y-104327051D01*
X125534973Y-104063167D01*
X125376289Y-103825679D01*
X125174321Y-103623711D01*
X124936833Y-103465027D01*
X124850000Y-103429060D01*
X124850000Y-91779474D01*
X124852903Y-91750000D01*
X124841318Y-91632379D01*
X124807010Y-91519278D01*
X124786400Y-91480721D01*
X124751296Y-91415045D01*
X124676317Y-91323683D01*
X124653420Y-91304892D01*
X124195113Y-90846586D01*
X124176317Y-90823683D01*
X124084955Y-90748704D01*
X123980721Y-90692990D01*
X123867621Y-90658682D01*
X123779474Y-90650000D01*
X123750000Y-90647097D01*
X123720526Y-90650000D01*
X123602454Y-90650000D01*
X123470938Y-90453172D01*
X123296828Y-90279062D01*
X123092097Y-90142265D01*
X122864611Y-90048037D01*
X122623114Y-90000000D01*
X122376886Y-90000000D01*
X122135389Y-90048037D01*
X121907903Y-90142265D01*
X121703172Y-90279062D01*
X121529062Y-90453172D01*
X121392265Y-90657903D01*
X121298037Y-90885389D01*
X121250000Y-91126886D01*
X116263282Y-91126886D01*
X114318198Y-89181802D01*
X114250007Y-89125839D01*
X114172208Y-89084254D01*
X114087791Y-89058647D01*
X114000000Y-89050000D01*
X100836396Y-89050000D01*
X103759510Y-86126886D01*
X121250000Y-86126886D01*
X121250000Y-86373114D01*
X121298037Y-86614611D01*
X121392265Y-86842097D01*
X121529062Y-87046828D01*
X121703172Y-87220938D01*
X121907903Y-87357735D01*
X122135389Y-87451963D01*
X122376886Y-87500000D01*
X122623114Y-87500000D01*
X122864611Y-87451963D01*
X123092097Y-87357735D01*
X123296828Y-87220938D01*
X123470938Y-87046828D01*
X123602454Y-86850000D01*
X123970526Y-86850000D01*
X124000000Y-86852903D01*
X124029474Y-86850000D01*
X124117621Y-86841318D01*
X124230721Y-86807010D01*
X124334955Y-86751296D01*
X124426317Y-86676317D01*
X124445113Y-86653414D01*
X125653420Y-85445108D01*
X125676317Y-85426317D01*
X125751296Y-85334955D01*
X125807010Y-85230721D01*
X125841318Y-85117621D01*
X125850000Y-85029474D01*
X125850000Y-85029473D01*
X125852903Y-85000000D01*
X125850000Y-84970526D01*
X125850000Y-79932454D01*
X126046828Y-79800938D01*
X126220938Y-79626828D01*
X126357735Y-79422097D01*
X126451963Y-79194611D01*
X126500000Y-78953114D01*
X126500000Y-78706886D01*
X127250000Y-78706886D01*
X127250000Y-78953114D01*
X127298037Y-79194611D01*
X127392265Y-79422097D01*
X127529062Y-79626828D01*
X127703172Y-79800938D01*
X127900000Y-79932455D01*
X127900001Y-83720516D01*
X127897097Y-83750000D01*
X127908682Y-83867620D01*
X127942991Y-83980721D01*
X127998705Y-84084955D01*
X128073684Y-84176317D01*
X128096582Y-84195109D01*
X130554891Y-86653419D01*
X130573683Y-86676317D01*
X130665045Y-86751296D01*
X130769279Y-86807010D01*
X130882379Y-86841318D01*
X131000000Y-86852903D01*
X131029474Y-86850000D01*
X132147546Y-86850000D01*
X132279062Y-87046828D01*
X132453172Y-87220938D01*
X132657903Y-87357735D01*
X132885389Y-87451963D01*
X133126886Y-87500000D01*
X133373114Y-87500000D01*
X133614611Y-87451963D01*
X133842097Y-87357735D01*
X134046828Y-87220938D01*
X134220938Y-87046828D01*
X134357735Y-86842097D01*
X134451963Y-86614611D01*
X134500000Y-86373114D01*
X134500000Y-86126886D01*
X134451963Y-85885389D01*
X134357735Y-85657903D01*
X134220938Y-85453172D01*
X134046828Y-85279062D01*
X133842097Y-85142265D01*
X133614611Y-85048037D01*
X133373114Y-85000000D01*
X133126886Y-85000000D01*
X132885389Y-85048037D01*
X132657903Y-85142265D01*
X132453172Y-85279062D01*
X132279062Y-85453172D01*
X132147546Y-85650000D01*
X131248528Y-85650000D01*
X129100000Y-83501473D01*
X129100000Y-79932454D01*
X129296828Y-79800938D01*
X129391543Y-79706223D01*
X131015198Y-79706223D01*
X131094958Y-79901717D01*
X131316626Y-80008917D01*
X131554948Y-80070812D01*
X131800766Y-80085023D01*
X132044633Y-80051004D01*
X132277178Y-79970063D01*
X132405042Y-79901717D01*
X132484802Y-79706223D01*
X134265198Y-79706223D01*
X134344958Y-79901717D01*
X134566626Y-80008917D01*
X134804948Y-80070812D01*
X135050766Y-80085023D01*
X135294633Y-80051004D01*
X135527178Y-79970063D01*
X135655042Y-79901717D01*
X135734802Y-79706223D01*
X135000000Y-78971421D01*
X134265198Y-79706223D01*
X132484802Y-79706223D01*
X131750000Y-78971421D01*
X131015198Y-79706223D01*
X129391543Y-79706223D01*
X129470938Y-79626828D01*
X129607735Y-79422097D01*
X129701963Y-79194611D01*
X129750000Y-78953114D01*
X129750000Y-78880766D01*
X130494977Y-78880766D01*
X130528996Y-79124633D01*
X130609937Y-79357178D01*
X130678283Y-79485042D01*
X130873777Y-79564802D01*
X131608579Y-78830000D01*
X131891421Y-78830000D01*
X132626223Y-79564802D01*
X132821717Y-79485042D01*
X132928917Y-79263374D01*
X132990812Y-79025052D01*
X132999153Y-78880766D01*
X133744977Y-78880766D01*
X133778996Y-79124633D01*
X133859937Y-79357178D01*
X133928283Y-79485042D01*
X134123777Y-79564802D01*
X134858579Y-78830000D01*
X135141421Y-78830000D01*
X135876223Y-79564802D01*
X136071717Y-79485042D01*
X136178917Y-79263374D01*
X136240812Y-79025052D01*
X136255023Y-78779234D01*
X136221004Y-78535367D01*
X136140063Y-78302822D01*
X136071717Y-78174958D01*
X135876223Y-78095198D01*
X135141421Y-78830000D01*
X134858579Y-78830000D01*
X134123777Y-78095198D01*
X133928283Y-78174958D01*
X133821083Y-78396626D01*
X133759188Y-78634948D01*
X133744977Y-78880766D01*
X132999153Y-78880766D01*
X133005023Y-78779234D01*
X132971004Y-78535367D01*
X132890063Y-78302822D01*
X132821717Y-78174958D01*
X132626223Y-78095198D01*
X131891421Y-78830000D01*
X131608579Y-78830000D01*
X130873777Y-78095198D01*
X130678283Y-78174958D01*
X130571083Y-78396626D01*
X130509188Y-78634948D01*
X130494977Y-78880766D01*
X129750000Y-78880766D01*
X129750000Y-78706886D01*
X129701963Y-78465389D01*
X129607735Y-78237903D01*
X129470938Y-78033172D01*
X129391543Y-77953777D01*
X131015198Y-77953777D01*
X131750000Y-78688579D01*
X132484802Y-77953777D01*
X134265198Y-77953777D01*
X135000000Y-78688579D01*
X135734802Y-77953777D01*
X135655042Y-77758283D01*
X135433374Y-77651083D01*
X135195052Y-77589188D01*
X134949234Y-77574977D01*
X134705367Y-77608996D01*
X134472822Y-77689937D01*
X134344958Y-77758283D01*
X134265198Y-77953777D01*
X132484802Y-77953777D01*
X132405042Y-77758283D01*
X132183374Y-77651083D01*
X131945052Y-77589188D01*
X131699234Y-77574977D01*
X131455367Y-77608996D01*
X131222822Y-77689937D01*
X131094958Y-77758283D01*
X131015198Y-77953777D01*
X129391543Y-77953777D01*
X129296828Y-77859062D01*
X129092097Y-77722265D01*
X128864611Y-77628037D01*
X128623114Y-77580000D01*
X128376886Y-77580000D01*
X128135389Y-77628037D01*
X127907903Y-77722265D01*
X127703172Y-77859062D01*
X127529062Y-78033172D01*
X127392265Y-78237903D01*
X127298037Y-78465389D01*
X127250000Y-78706886D01*
X126500000Y-78706886D01*
X126451963Y-78465389D01*
X126357735Y-78237903D01*
X126220938Y-78033172D01*
X126046828Y-77859062D01*
X125842097Y-77722265D01*
X125614611Y-77628037D01*
X125373114Y-77580000D01*
X125126886Y-77580000D01*
X124885389Y-77628037D01*
X124657903Y-77722265D01*
X124453172Y-77859062D01*
X124279062Y-78033172D01*
X124142265Y-78237903D01*
X124048037Y-78465389D01*
X124000000Y-78706886D01*
X124000000Y-78953114D01*
X124048037Y-79194611D01*
X124142265Y-79422097D01*
X124279062Y-79626828D01*
X124453172Y-79800938D01*
X124650001Y-79932455D01*
X124650000Y-84751472D01*
X123751473Y-85650000D01*
X123602454Y-85650000D01*
X123470938Y-85453172D01*
X123296828Y-85279062D01*
X123092097Y-85142265D01*
X122864611Y-85048037D01*
X122623114Y-85000000D01*
X122376886Y-85000000D01*
X122135389Y-85048037D01*
X121907903Y-85142265D01*
X121703172Y-85279062D01*
X121529062Y-85453172D01*
X121392265Y-85657903D01*
X121298037Y-85885389D01*
X121250000Y-86126886D01*
X103759510Y-86126886D01*
X105318198Y-84568198D01*
X105374161Y-84500007D01*
X105415746Y-84422208D01*
X105441353Y-84337791D01*
X105450000Y-84250000D01*
X105450000Y-81336396D01*
X106181802Y-82068198D01*
X106249993Y-82124161D01*
X106327792Y-82165746D01*
X106412209Y-82191353D01*
X106500000Y-82200000D01*
X107975471Y-82200000D01*
X108002991Y-82290721D01*
X108058705Y-82394955D01*
X108133684Y-82486317D01*
X108156581Y-82505108D01*
X109054891Y-83403419D01*
X109073683Y-83426317D01*
X109165045Y-83501296D01*
X109269277Y-83557009D01*
X109269279Y-83557010D01*
X109382379Y-83591318D01*
X109500000Y-83602903D01*
X109529474Y-83600000D01*
X116720526Y-83600000D01*
X116750000Y-83602903D01*
X116779474Y-83600000D01*
X116867621Y-83591318D01*
X116980721Y-83557010D01*
X117084955Y-83501296D01*
X117176317Y-83426317D01*
X117195113Y-83403414D01*
X119153420Y-81445108D01*
X119176317Y-81426317D01*
X119251296Y-81334955D01*
X119307010Y-81230721D01*
X119341318Y-81117621D01*
X119350000Y-81029474D01*
X119350000Y-81029473D01*
X119352903Y-81000001D01*
X119350000Y-80970527D01*
X119350000Y-79932454D01*
X119546828Y-79800938D01*
X119720938Y-79626828D01*
X119852454Y-79430000D01*
X120897546Y-79430000D01*
X121029062Y-79626828D01*
X121203172Y-79800938D01*
X121407903Y-79937735D01*
X121635389Y-80031963D01*
X121876886Y-80080000D01*
X122123114Y-80080000D01*
X122364611Y-80031963D01*
X122592097Y-79937735D01*
X122796828Y-79800938D01*
X122970938Y-79626828D01*
X123107735Y-79422097D01*
X123201963Y-79194611D01*
X123250000Y-78953114D01*
X123250000Y-78706886D01*
X123201963Y-78465389D01*
X123107735Y-78237903D01*
X122970938Y-78033172D01*
X122796828Y-77859062D01*
X122592097Y-77722265D01*
X122364611Y-77628037D01*
X122123114Y-77580000D01*
X121876886Y-77580000D01*
X121635389Y-77628037D01*
X121407903Y-77722265D01*
X121203172Y-77859062D01*
X121029062Y-78033172D01*
X120897546Y-78230000D01*
X119852454Y-78230000D01*
X119720938Y-78033172D01*
X119546828Y-77859062D01*
X119342097Y-77722265D01*
X119114611Y-77628037D01*
X118873114Y-77580000D01*
X118626886Y-77580000D01*
X118385389Y-77628037D01*
X118157903Y-77722265D01*
X117953172Y-77859062D01*
X117779062Y-78033172D01*
X117642265Y-78237903D01*
X117548037Y-78465389D01*
X117500000Y-78706886D01*
X117500000Y-78953114D01*
X117548037Y-79194611D01*
X117642265Y-79422097D01*
X117779062Y-79626828D01*
X117953172Y-79800938D01*
X118150000Y-79932455D01*
X118150000Y-80751472D01*
X116501473Y-82400000D01*
X109748528Y-82400000D01*
X109548528Y-82200000D01*
X114750000Y-82200000D01*
X114837791Y-82191353D01*
X114922208Y-82165746D01*
X115000007Y-82124161D01*
X115068198Y-82068198D01*
X116568198Y-80568198D01*
X116624161Y-80500007D01*
X116665746Y-80422208D01*
X116691353Y-80337791D01*
X116700000Y-80250000D01*
X116700000Y-74010172D01*
X116789448Y-73876303D01*
X116928905Y-73539625D01*
X117000000Y-73182209D01*
X117000000Y-72817791D01*
X116928905Y-72460375D01*
X116789448Y-72123697D01*
X116700000Y-71989828D01*
X116700000Y-68546886D01*
X117500000Y-68546886D01*
X117500000Y-68793114D01*
X117548037Y-69034611D01*
X117642265Y-69262097D01*
X117779062Y-69466828D01*
X117953172Y-69640938D01*
X118157903Y-69777735D01*
X118385389Y-69871963D01*
X118626886Y-69920000D01*
X118873114Y-69920000D01*
X119114611Y-69871963D01*
X119342097Y-69777735D01*
X119546828Y-69640938D01*
X119720938Y-69466828D01*
X119857735Y-69262097D01*
X119951963Y-69034611D01*
X120000000Y-68793114D01*
X120000000Y-68546886D01*
X119951963Y-68305389D01*
X119857735Y-68077903D01*
X119720938Y-67873172D01*
X119546828Y-67699062D01*
X119350000Y-67567546D01*
X119350000Y-66892693D01*
X119386735Y-66900000D01*
X119613265Y-66900000D01*
X119835443Y-66855806D01*
X120044729Y-66769116D01*
X120233082Y-66643263D01*
X120393263Y-66483082D01*
X120519116Y-66294729D01*
X120605806Y-66085443D01*
X120650000Y-65863265D01*
X120650000Y-65636735D01*
X120605806Y-65414557D01*
X120519116Y-65205271D01*
X120393263Y-65016918D01*
X120233082Y-64856737D01*
X120044729Y-64730884D01*
X119835443Y-64644194D01*
X119613265Y-64600000D01*
X119386735Y-64600000D01*
X119164557Y-64644194D01*
X118955271Y-64730884D01*
X118766918Y-64856737D01*
X118606737Y-65016918D01*
X118480884Y-65205271D01*
X118394194Y-65414557D01*
X118350000Y-65636735D01*
X118350000Y-65863265D01*
X118381226Y-66020247D01*
X118346581Y-66054892D01*
X118323684Y-66073683D01*
X118248705Y-66165045D01*
X118232638Y-66195105D01*
X118192991Y-66269279D01*
X118158682Y-66382380D01*
X118147097Y-66500000D01*
X118150001Y-66529483D01*
X118150001Y-67567545D01*
X117953172Y-67699062D01*
X117779062Y-67873172D01*
X117642265Y-68077903D01*
X117548037Y-68305389D01*
X117500000Y-68546886D01*
X116700000Y-68546886D01*
X116700000Y-68436396D01*
X117818198Y-67318198D01*
X117874161Y-67250007D01*
X117915746Y-67172208D01*
X117941353Y-67087791D01*
X117950000Y-67000000D01*
X117950000Y-64500000D01*
X117945075Y-64450000D01*
X119500000Y-64450000D01*
X119587791Y-64441353D01*
X119672208Y-64415746D01*
X119750007Y-64374161D01*
X119818198Y-64318198D01*
X120818198Y-63318198D01*
X120874161Y-63250007D01*
X120915746Y-63172208D01*
X120929412Y-63127156D01*
X120962702Y-63170734D01*
X121161299Y-63345655D01*
X121390205Y-63478470D01*
X121640624Y-63564076D01*
X121850000Y-63483795D01*
X121850000Y-62350000D01*
X122050000Y-62350000D01*
X122050000Y-63483795D01*
X122259376Y-63564076D01*
X122509795Y-63478470D01*
X122738701Y-63345655D01*
X122937298Y-63170734D01*
X123097954Y-62960430D01*
X123214494Y-62722825D01*
X123264072Y-62559375D01*
X123183453Y-62350000D01*
X122050000Y-62350000D01*
X121850000Y-62350000D01*
X121830000Y-62350000D01*
X121830000Y-62150000D01*
X121850000Y-62150000D01*
X121850000Y-61016205D01*
X122050000Y-61016205D01*
X122050000Y-62150000D01*
X123183453Y-62150000D01*
X123264072Y-61940625D01*
X123214494Y-61777175D01*
X123097954Y-61539570D01*
X122937298Y-61329266D01*
X122738701Y-61154345D01*
X122509795Y-61021530D01*
X122259376Y-60935924D01*
X122050000Y-61016205D01*
X121850000Y-61016205D01*
X121640624Y-60935924D01*
X121390205Y-61021530D01*
X121161299Y-61154345D01*
X120962702Y-61329266D01*
X120950000Y-61345893D01*
X120950000Y-61000000D01*
X120941353Y-60912209D01*
X120915746Y-60827792D01*
X120874161Y-60749993D01*
X120818198Y-60681802D01*
X119318198Y-59181802D01*
X119250007Y-59125839D01*
X119172208Y-59084254D01*
X119087791Y-59058647D01*
X119000000Y-59050000D01*
X118336396Y-59050000D01*
X119068198Y-58318198D01*
X119124161Y-58250007D01*
X119165746Y-58172208D01*
X119191353Y-58087791D01*
X119197554Y-58024838D01*
X119201387Y-58030575D01*
X119389425Y-58218613D01*
X119610535Y-58366354D01*
X119856220Y-58468120D01*
X120117037Y-58520000D01*
X120382963Y-58520000D01*
X120643780Y-58468120D01*
X120889465Y-58366354D01*
X121110575Y-58218613D01*
X121298613Y-58030575D01*
X121446354Y-57809465D01*
X121548120Y-57563780D01*
X121600000Y-57302963D01*
X121600000Y-57037037D01*
X122300000Y-57037037D01*
X122300000Y-57302963D01*
X122351880Y-57563780D01*
X122453646Y-57809465D01*
X122601387Y-58030575D01*
X122789425Y-58218613D01*
X123010535Y-58366354D01*
X123256220Y-58468120D01*
X123517037Y-58520000D01*
X123782963Y-58520000D01*
X124043780Y-58468120D01*
X124289465Y-58366354D01*
X124510575Y-58218613D01*
X124698613Y-58030575D01*
X124846354Y-57809465D01*
X124948120Y-57563780D01*
X125000000Y-57302963D01*
X125000000Y-57037037D01*
X124948120Y-56776220D01*
X124846354Y-56530535D01*
X124698613Y-56309425D01*
X124510575Y-56121387D01*
X124289465Y-55973646D01*
X124043780Y-55871880D01*
X123782963Y-55820000D01*
X123517037Y-55820000D01*
X123256220Y-55871880D01*
X123010535Y-55973646D01*
X122789425Y-56121387D01*
X122601387Y-56309425D01*
X122453646Y-56530535D01*
X122351880Y-56776220D01*
X122300000Y-57037037D01*
X121600000Y-57037037D01*
X121548120Y-56776220D01*
X121446354Y-56530535D01*
X121298613Y-56309425D01*
X121110575Y-56121387D01*
X120889465Y-55973646D01*
X120643780Y-55871880D01*
X120382963Y-55820000D01*
X120117037Y-55820000D01*
X119856220Y-55871880D01*
X119610535Y-55973646D01*
X119389425Y-56121387D01*
X119201387Y-56309425D01*
X119200000Y-56311501D01*
X119200000Y-54000000D01*
X119191353Y-53912209D01*
X119165746Y-53827792D01*
X119124161Y-53749993D01*
X119068198Y-53681802D01*
X118361396Y-52975000D01*
X134600000Y-52975000D01*
X134600000Y-59501472D01*
G37*
X134600000Y-59501472D02*
X133618774Y-58520247D01*
X133650000Y-58363265D01*
X133650000Y-58136735D01*
X133605806Y-57914557D01*
X133519116Y-57705271D01*
X133393263Y-57516918D01*
X133233082Y-57356737D01*
X133044729Y-57230884D01*
X132835443Y-57144194D01*
X132613265Y-57100000D01*
X132386735Y-57100000D01*
X132164557Y-57144194D01*
X131955271Y-57230884D01*
X131766918Y-57356737D01*
X131606737Y-57516918D01*
X131517815Y-57650000D01*
X128378528Y-57650000D01*
X128331773Y-57603245D01*
X128348120Y-57563780D01*
X128400000Y-57302963D01*
X128400000Y-57037037D01*
X128348120Y-56776220D01*
X128246354Y-56530535D01*
X128098613Y-56309425D01*
X127910575Y-56121387D01*
X127689465Y-55973646D01*
X127443780Y-55871880D01*
X127182963Y-55820000D01*
X126917037Y-55820000D01*
X126656220Y-55871880D01*
X126410535Y-55973646D01*
X126189425Y-56121387D01*
X126001387Y-56309425D01*
X125853646Y-56530535D01*
X125751880Y-56776220D01*
X125700000Y-57037037D01*
X125700000Y-57302963D01*
X125751880Y-57563780D01*
X125853646Y-57809465D01*
X126001387Y-58030575D01*
X126189425Y-58218613D01*
X126410535Y-58366354D01*
X126656220Y-58468120D01*
X126917037Y-58520000D01*
X127182963Y-58520000D01*
X127443780Y-58468120D01*
X127483245Y-58451773D01*
X127684891Y-58653419D01*
X127703683Y-58676317D01*
X127795045Y-58751296D01*
X127876303Y-58794729D01*
X127899279Y-58807010D01*
X128012379Y-58841319D01*
X128130000Y-58852903D01*
X128159476Y-58850000D01*
X131517815Y-58850000D01*
X131606737Y-58983082D01*
X131766918Y-59143263D01*
X131955271Y-59269116D01*
X132164557Y-59355806D01*
X132386735Y-59400000D01*
X132613265Y-59400000D01*
X132770247Y-59368774D01*
X133650000Y-60248528D01*
X133650000Y-60636735D01*
X133605806Y-60414557D01*
X133519116Y-60205271D01*
X133393263Y-60016918D01*
X133233082Y-59856737D01*
X133044729Y-59730884D01*
X132835443Y-59644194D01*
X132613265Y-59600000D01*
X132386735Y-59600000D01*
X132164557Y-59644194D01*
X131955271Y-59730884D01*
X131766918Y-59856737D01*
X131606737Y-60016918D01*
X131517815Y-60150000D01*
X126879473Y-60150000D01*
X126849999Y-60147097D01*
X126732378Y-60158682D01*
X126698070Y-60169089D01*
X126619279Y-60192990D01*
X126515045Y-60248704D01*
X126423683Y-60323683D01*
X126404896Y-60346575D01*
X125783245Y-60968227D01*
X125743780Y-60951880D01*
X125482963Y-60900000D01*
X125217037Y-60900000D01*
X124956220Y-60951880D01*
X124710535Y-61053646D01*
X124489425Y-61201387D01*
X124301387Y-61389425D01*
X124153646Y-61610535D01*
X124051880Y-61856220D01*
X124000000Y-62117037D01*
X124000000Y-62382963D01*
X124051880Y-62643780D01*
X124112161Y-62789311D01*
X122270247Y-64631226D01*
X122113265Y-64600000D01*
X121886735Y-64600000D01*
X121664557Y-64644194D01*
X121455271Y-64730884D01*
X121266918Y-64856737D01*
X121106737Y-65016918D01*
X120980884Y-65205271D01*
X120894194Y-65414557D01*
X120850000Y-65636735D01*
X120850000Y-65863265D01*
X120894194Y-66085443D01*
X120980884Y-66294729D01*
X121106737Y-66483082D01*
X121266918Y-66643263D01*
X121400000Y-66732185D01*
X121400001Y-67567545D01*
X121203172Y-67699062D01*
X121029062Y-67873172D01*
X120892265Y-68077903D01*
X120798037Y-68305389D01*
X120750000Y-68546886D01*
X120750000Y-68793114D01*
X120798037Y-69034611D01*
X120892265Y-69262097D01*
X121029062Y-69466828D01*
X121203172Y-69640938D01*
X121407903Y-69777735D01*
X121635389Y-69871963D01*
X121876886Y-69920000D01*
X122123114Y-69920000D01*
X122364611Y-69871963D01*
X122592097Y-69777735D01*
X122796828Y-69640938D01*
X122970938Y-69466828D01*
X123102454Y-69270000D01*
X124147546Y-69270000D01*
X124279062Y-69466828D01*
X124453172Y-69640938D01*
X124657903Y-69777735D01*
X124885389Y-69871963D01*
X125126886Y-69920000D01*
X125373114Y-69920000D01*
X125614611Y-69871963D01*
X125842097Y-69777735D01*
X126046828Y-69640938D01*
X126220938Y-69466828D01*
X126357735Y-69262097D01*
X126451963Y-69034611D01*
X126500000Y-68793114D01*
X126500000Y-68546886D01*
X126451963Y-68305389D01*
X126357735Y-68077903D01*
X126220938Y-67873172D01*
X126046828Y-67699062D01*
X125842097Y-67562265D01*
X125614611Y-67468037D01*
X125373114Y-67420000D01*
X125126886Y-67420000D01*
X124885389Y-67468037D01*
X124657903Y-67562265D01*
X124453172Y-67699062D01*
X124279062Y-67873172D01*
X124147546Y-68070000D01*
X123102454Y-68070000D01*
X122970938Y-67873172D01*
X122796828Y-67699062D01*
X122600000Y-67567546D01*
X122600000Y-66732185D01*
X122733082Y-66643263D01*
X122893263Y-66483082D01*
X123019116Y-66294729D01*
X123105806Y-66085443D01*
X123150000Y-65863265D01*
X123150000Y-65636735D01*
X123118774Y-65479753D01*
X125034782Y-63563747D01*
X125217037Y-63600000D01*
X125482963Y-63600000D01*
X125743780Y-63548120D01*
X125989465Y-63446354D01*
X126210575Y-63298613D01*
X126398613Y-63110575D01*
X126546354Y-62889465D01*
X126648120Y-62643780D01*
X126700000Y-62382963D01*
X126700000Y-62117037D01*
X126648120Y-61856220D01*
X126631773Y-61816755D01*
X127098529Y-61350000D01*
X127740812Y-61350000D01*
X127701387Y-61389425D01*
X127553646Y-61610535D01*
X127451880Y-61856220D01*
X127400000Y-62117037D01*
X127400000Y-62382963D01*
X127451880Y-62643780D01*
X127553646Y-62889465D01*
X127701387Y-63110575D01*
X127889425Y-63298613D01*
X128110535Y-63446354D01*
X128356220Y-63548120D01*
X128617037Y-63600000D01*
X128882963Y-63600000D01*
X129143780Y-63548120D01*
X129389465Y-63446354D01*
X129610575Y-63298613D01*
X129798613Y-63110575D01*
X129946354Y-62889465D01*
X130048120Y-62643780D01*
X130100000Y-62382963D01*
X130100000Y-62117037D01*
X130048120Y-61856220D01*
X129946354Y-61610535D01*
X129798613Y-61389425D01*
X129759188Y-61350000D01*
X131517815Y-61350000D01*
X131606737Y-61483082D01*
X131766918Y-61643263D01*
X131955271Y-61769116D01*
X132164557Y-61855806D01*
X132386735Y-61900000D01*
X132613265Y-61900000D01*
X132835443Y-61855806D01*
X133044729Y-61769116D01*
X133233082Y-61643263D01*
X133393263Y-61483082D01*
X133519116Y-61294729D01*
X133605806Y-61085443D01*
X133650000Y-60863265D01*
X133650001Y-61751471D01*
X132096582Y-63304891D01*
X132073684Y-63323683D01*
X131998705Y-63415045D01*
X131973340Y-63462500D01*
X131942991Y-63519279D01*
X131908682Y-63632380D01*
X131897097Y-63750000D01*
X131900001Y-63779483D01*
X131900000Y-64767814D01*
X131766918Y-64856737D01*
X131606737Y-65016918D01*
X131480884Y-65205271D01*
X131394194Y-65414557D01*
X131350000Y-65636735D01*
X131350000Y-65863265D01*
X131381226Y-66020247D01*
X131346586Y-66054887D01*
X131323683Y-66073683D01*
X131248704Y-66165046D01*
X131192990Y-66269280D01*
X131181545Y-66307010D01*
X131158682Y-66382380D01*
X131147097Y-66500000D01*
X131150000Y-66529474D01*
X131150000Y-67567545D01*
X130953172Y-67699062D01*
X130779062Y-67873172D01*
X130647546Y-68070000D01*
X129602454Y-68070000D01*
X129470938Y-67873172D01*
X129296828Y-67699062D01*
X129092097Y-67562265D01*
X128864611Y-67468037D01*
X128623114Y-67420000D01*
X128376886Y-67420000D01*
X128135389Y-67468037D01*
X127907903Y-67562265D01*
X127703172Y-67699062D01*
X127529062Y-67873172D01*
X127392265Y-68077903D01*
X127298037Y-68305389D01*
X127250000Y-68546886D01*
X127250000Y-68793114D01*
X127298037Y-69034611D01*
X127392265Y-69262097D01*
X127529062Y-69466828D01*
X127703172Y-69640938D01*
X127907903Y-69777735D01*
X128135389Y-69871963D01*
X128376886Y-69920000D01*
X128623114Y-69920000D01*
X128864611Y-69871963D01*
X129092097Y-69777735D01*
X129296828Y-69640938D01*
X129470938Y-69466828D01*
X129602454Y-69270000D01*
X130647546Y-69270000D01*
X130779062Y-69466828D01*
X130953172Y-69640938D01*
X131157903Y-69777735D01*
X131385389Y-69871963D01*
X131626886Y-69920000D01*
X131873114Y-69920000D01*
X132114611Y-69871963D01*
X132342097Y-69777735D01*
X132546828Y-69640938D01*
X132720938Y-69466828D01*
X132857735Y-69262097D01*
X132951963Y-69034611D01*
X133000000Y-68793114D01*
X133000000Y-68546886D01*
X133750000Y-68546886D01*
X133750000Y-68793114D01*
X133798037Y-69034611D01*
X133892265Y-69262097D01*
X134029062Y-69466828D01*
X134203172Y-69640938D01*
X134407903Y-69777735D01*
X134635389Y-69871963D01*
X134876886Y-69920000D01*
X135123114Y-69920000D01*
X135364611Y-69871963D01*
X135592097Y-69777735D01*
X135796828Y-69640938D01*
X135970938Y-69466828D01*
X136107735Y-69262097D01*
X136201963Y-69034611D01*
X136250000Y-68793114D01*
X136250000Y-68546886D01*
X136201963Y-68305389D01*
X136107735Y-68077903D01*
X135970938Y-67873172D01*
X135796828Y-67699062D01*
X135600000Y-67567546D01*
X135600000Y-66732185D01*
X135733082Y-66643263D01*
X135893263Y-66483082D01*
X136019116Y-66294729D01*
X136105806Y-66085443D01*
X136150000Y-65863265D01*
X136150000Y-65636735D01*
X136105806Y-65414557D01*
X136019116Y-65205271D01*
X135893263Y-65016918D01*
X135733082Y-64856737D01*
X135544729Y-64730884D01*
X135335443Y-64644194D01*
X135113265Y-64600000D01*
X134886735Y-64600000D01*
X134664557Y-64644194D01*
X134455271Y-64730884D01*
X134266918Y-64856737D01*
X134106737Y-65016918D01*
X133980884Y-65205271D01*
X133894194Y-65414557D01*
X133850000Y-65636735D01*
X133850000Y-65863265D01*
X133894194Y-66085443D01*
X133980884Y-66294729D01*
X134106737Y-66483082D01*
X134266918Y-66643263D01*
X134400000Y-66732185D01*
X134400001Y-67567545D01*
X134203172Y-67699062D01*
X134029062Y-67873172D01*
X133892265Y-68077903D01*
X133798037Y-68305389D01*
X133750000Y-68546886D01*
X133000000Y-68546886D01*
X132951963Y-68305389D01*
X132857735Y-68077903D01*
X132720938Y-67873172D01*
X132546828Y-67699062D01*
X132350000Y-67567546D01*
X132350000Y-66892693D01*
X132386735Y-66900000D01*
X132613265Y-66900000D01*
X132835443Y-66855806D01*
X133044729Y-66769116D01*
X133233082Y-66643263D01*
X133393263Y-66483082D01*
X133519116Y-66294729D01*
X133605806Y-66085443D01*
X133650000Y-65863265D01*
X133650000Y-65636735D01*
X133605806Y-65414557D01*
X133519116Y-65205271D01*
X133393263Y-65016918D01*
X133233082Y-64856737D01*
X133100000Y-64767815D01*
X133100000Y-63998527D01*
X134600000Y-62498528D01*
X134600000Y-62500000D01*
X134602882Y-62529264D01*
X134611418Y-62557403D01*
X134625280Y-62583336D01*
X134643934Y-62606066D01*
X135143934Y-63106066D01*
X135166664Y-63124720D01*
X135192597Y-63138582D01*
X135220736Y-63147118D01*
X135250000Y-63150000D01*
X142025001Y-63150000D01*
X142025000Y-104041573D01*
X141818165Y-103732022D01*
X141267978Y-103181835D01*
X140621026Y-102749556D01*
X139902172Y-102451797D01*
X139139041Y-102300000D01*
X138360959Y-102300000D01*
X137597828Y-102451797D01*
X136878974Y-102749556D01*
X136232022Y-103181835D01*
X135681835Y-103732022D01*
X135249556Y-104378974D01*
X134951797Y-105097828D01*
X134800000Y-105860959D01*
X134800000Y-106639041D01*
X134951797Y-107402172D01*
X135249556Y-108121026D01*
X135681835Y-108767978D01*
X136232022Y-109318165D01*
X136541573Y-109525000D01*
X113697538Y-109525000D01*
X113700000Y-109500000D01*
X113700000Y-108593612D01*
X116837809Y-108593612D01*
X116989820Y-108850524D01*
X117313674Y-109017615D01*
X117663902Y-109118315D01*
X118027047Y-109148755D01*
X118389152Y-109107762D01*
X118736302Y-108996915D01*
X119010180Y-108850524D01*
X119162191Y-108593612D01*
X118000000Y-107431421D01*
X116837809Y-108593612D01*
X113700000Y-108593612D01*
X113700000Y-104780997D01*
X113991805Y-104780997D01*
X114031636Y-105123409D01*
X114137502Y-105451470D01*
X114270893Y-105701027D01*
X114517564Y-105841014D01*
X115608579Y-104750000D01*
X114517564Y-103658986D01*
X114270893Y-103798973D01*
X114113778Y-104105806D01*
X114019541Y-104437395D01*
X113991805Y-104780997D01*
X113700000Y-104780997D01*
X113700000Y-103517564D01*
X114658986Y-103517564D01*
X115750000Y-104608579D01*
X115764142Y-104594436D01*
X115905564Y-104735858D01*
X115891421Y-104750000D01*
X115905564Y-104764142D01*
X115764142Y-104905564D01*
X115750000Y-104891421D01*
X114658986Y-105982436D01*
X114798973Y-106229107D01*
X115105806Y-106386222D01*
X115437395Y-106480459D01*
X115780997Y-106508195D01*
X116123409Y-106468364D01*
X116385902Y-106383657D01*
X116272385Y-106603674D01*
X116171685Y-106953902D01*
X116141245Y-107317047D01*
X116182238Y-107679152D01*
X116293085Y-108026302D01*
X116439476Y-108300180D01*
X116696388Y-108452191D01*
X117858579Y-107290000D01*
X118141421Y-107290000D01*
X119303612Y-108452191D01*
X119560524Y-108300180D01*
X119727615Y-107976326D01*
X119828315Y-107626098D01*
X119858755Y-107262953D01*
X119817762Y-106900848D01*
X119706915Y-106553698D01*
X119560524Y-106279820D01*
X119303612Y-106127809D01*
X118141421Y-107290000D01*
X117858579Y-107290000D01*
X117844437Y-107275858D01*
X117985858Y-107134437D01*
X118000000Y-107148579D01*
X119162191Y-105986388D01*
X119010180Y-105729476D01*
X118686326Y-105562385D01*
X118336098Y-105461685D01*
X117972953Y-105431245D01*
X117610848Y-105472238D01*
X117294543Y-105573236D01*
X117386222Y-105394194D01*
X117480459Y-105062605D01*
X117508195Y-104719003D01*
X117468364Y-104376591D01*
X117362498Y-104048530D01*
X117299229Y-103930162D01*
X117313674Y-103937615D01*
X117663902Y-104038315D01*
X118027047Y-104068755D01*
X118389152Y-104027762D01*
X118736302Y-103916915D01*
X119010180Y-103770524D01*
X119162191Y-103513612D01*
X118000000Y-102351421D01*
X117985858Y-102365564D01*
X117844437Y-102224143D01*
X117858579Y-102210000D01*
X118141421Y-102210000D01*
X119303612Y-103372191D01*
X119560524Y-103220180D01*
X119727615Y-102896326D01*
X119828315Y-102546098D01*
X119858755Y-102182953D01*
X119817762Y-101820848D01*
X119706915Y-101473698D01*
X119560524Y-101199820D01*
X119303612Y-101047809D01*
X118141421Y-102210000D01*
X117858579Y-102210000D01*
X116696388Y-101047809D01*
X116439476Y-101199820D01*
X116272385Y-101523674D01*
X116171685Y-101873902D01*
X116141245Y-102237047D01*
X116182238Y-102599152D01*
X116293085Y-102946302D01*
X116380527Y-103109894D01*
X116062605Y-103019541D01*
X115719003Y-102991805D01*
X115376591Y-103031636D01*
X115048530Y-103137502D01*
X114798973Y-103270893D01*
X114658986Y-103517564D01*
X113700000Y-103517564D01*
X113700000Y-100906388D01*
X116837809Y-100906388D01*
X118000000Y-102068579D01*
X119162191Y-100906388D01*
X119010180Y-100649476D01*
X118686326Y-100482385D01*
X118336098Y-100381685D01*
X117972953Y-100351245D01*
X117610848Y-100392238D01*
X117263698Y-100503085D01*
X116989820Y-100649476D01*
X116837809Y-100906388D01*
X113700000Y-100906388D01*
X113700000Y-98186396D01*
X116568198Y-95318198D01*
X116624161Y-95250007D01*
X116665746Y-95172208D01*
X116691353Y-95087791D01*
X116700000Y-95000000D01*
X116700000Y-91750000D01*
X116691353Y-91662209D01*
X116665746Y-91577792D01*
X116624161Y-91499993D01*
X116568198Y-91431802D01*
X116263282Y-91126886D01*
X121250000Y-91126886D01*
X121250000Y-91373114D01*
X121298037Y-91614611D01*
X121392265Y-91842097D01*
X121529062Y-92046828D01*
X121703172Y-92220938D01*
X121907903Y-92357735D01*
X122135389Y-92451963D01*
X122376886Y-92500000D01*
X122623114Y-92500000D01*
X122864611Y-92451963D01*
X123092097Y-92357735D01*
X123296828Y-92220938D01*
X123470938Y-92046828D01*
X123562007Y-91910534D01*
X123650000Y-91998528D01*
X123650001Y-103429059D01*
X123563167Y-103465027D01*
X123325679Y-103623711D01*
X123123711Y-103825679D01*
X122965027Y-104063167D01*
X122855723Y-104327051D01*
X122800000Y-104607187D01*
X122800000Y-104892813D01*
X122855723Y-105172949D01*
X122965027Y-105436833D01*
X123123711Y-105674321D01*
X123325679Y-105876289D01*
X123563167Y-106034973D01*
X123827051Y-106144277D01*
X124107187Y-106200000D01*
X124392813Y-106200000D01*
X124672949Y-106144277D01*
X124936833Y-106034973D01*
X125174321Y-105876289D01*
X125376289Y-105674321D01*
X125534973Y-105436833D01*
X125644277Y-105172949D01*
X125700000Y-104892813D01*
X125700000Y-104607187D01*
X126300000Y-104607187D01*
X126300000Y-104892813D01*
X126355723Y-105172949D01*
X126465027Y-105436833D01*
X126623711Y-105674321D01*
X126825679Y-105876289D01*
X127063167Y-106034973D01*
X127327051Y-106144277D01*
X127607187Y-106200000D01*
X127892813Y-106200000D01*
X128172949Y-106144277D01*
X128436833Y-106034973D01*
X128674321Y-105876289D01*
X128781816Y-105768794D01*
X130372628Y-105768794D01*
X130476509Y-105984750D01*
X130732259Y-106111925D01*
X131007906Y-106186762D01*
X131292856Y-106206386D01*
X131576159Y-106170042D01*
X131846928Y-106079125D01*
X132023491Y-105984750D01*
X132127372Y-105768794D01*
X131250000Y-104891421D01*
X130372628Y-105768794D01*
X128781816Y-105768794D01*
X128876289Y-105674321D01*
X129034973Y-105436833D01*
X129144277Y-105172949D01*
X129200000Y-104892813D01*
X129200000Y-104792856D01*
X129793614Y-104792856D01*
X129829958Y-105076159D01*
X129920875Y-105346928D01*
X130015250Y-105523491D01*
X130231206Y-105627372D01*
X131108579Y-104750000D01*
X131391421Y-104750000D01*
X132268794Y-105627372D01*
X132484750Y-105523491D01*
X132611925Y-105267741D01*
X132686762Y-104992094D01*
X132706386Y-104707144D01*
X132670042Y-104423841D01*
X132579125Y-104153072D01*
X132484750Y-103976509D01*
X132268794Y-103872628D01*
X131391421Y-104750000D01*
X131108579Y-104750000D01*
X130231206Y-103872628D01*
X130015250Y-103976509D01*
X129888075Y-104232259D01*
X129813238Y-104507906D01*
X129793614Y-104792856D01*
X129200000Y-104792856D01*
X129200000Y-104607187D01*
X129144277Y-104327051D01*
X129034973Y-104063167D01*
X128876289Y-103825679D01*
X128781816Y-103731206D01*
X130372628Y-103731206D01*
X131250000Y-104608579D01*
X132127372Y-103731206D01*
X132023491Y-103515250D01*
X131767741Y-103388075D01*
X131492094Y-103313238D01*
X131207144Y-103293614D01*
X130923841Y-103329958D01*
X130653072Y-103420875D01*
X130476509Y-103515250D01*
X130372628Y-103731206D01*
X128781816Y-103731206D01*
X128674321Y-103623711D01*
X128436833Y-103465027D01*
X128350000Y-103429060D01*
X128350000Y-94748527D01*
X131248528Y-91850000D01*
X132147546Y-91850000D01*
X132279062Y-92046828D01*
X132453172Y-92220938D01*
X132657903Y-92357735D01*
X132885389Y-92451963D01*
X133126886Y-92500000D01*
X133373114Y-92500000D01*
X133614611Y-92451963D01*
X133842097Y-92357735D01*
X134046828Y-92220938D01*
X134220938Y-92046828D01*
X134357735Y-91842097D01*
X134451963Y-91614611D01*
X134500000Y-91373114D01*
X134500000Y-91126886D01*
X134451963Y-90885389D01*
X134357735Y-90657903D01*
X134220938Y-90453172D01*
X134046828Y-90279062D01*
X133842097Y-90142265D01*
X133614611Y-90048037D01*
X133373114Y-90000000D01*
X133126886Y-90000000D01*
X132885389Y-90048037D01*
X132657903Y-90142265D01*
X132453172Y-90279062D01*
X132279062Y-90453172D01*
X132147546Y-90650000D01*
X131029473Y-90650000D01*
X130999999Y-90647097D01*
X130890288Y-90657903D01*
X130882379Y-90658682D01*
X130769279Y-90692990D01*
X130665045Y-90748704D01*
X130573683Y-90823683D01*
X130554891Y-90846581D01*
X127346582Y-94054891D01*
X127323684Y-94073683D01*
X127248705Y-94165045D01*
X127211490Y-94234670D01*
X127192991Y-94269279D01*
X127158682Y-94382380D01*
X127147097Y-94500000D01*
X127150001Y-94529484D01*
X127150000Y-103429060D01*
X127063167Y-103465027D01*
X126825679Y-103623711D01*
X126623711Y-103825679D01*
X126465027Y-104063167D01*
X126355723Y-104327051D01*
X126300000Y-104607187D01*
X125700000Y-104607187D01*
X125644277Y-104327051D01*
X125534973Y-104063167D01*
X125376289Y-103825679D01*
X125174321Y-103623711D01*
X124936833Y-103465027D01*
X124850000Y-103429060D01*
X124850000Y-91779474D01*
X124852903Y-91750000D01*
X124841318Y-91632379D01*
X124807010Y-91519278D01*
X124786400Y-91480721D01*
X124751296Y-91415045D01*
X124676317Y-91323683D01*
X124653420Y-91304892D01*
X124195113Y-90846586D01*
X124176317Y-90823683D01*
X124084955Y-90748704D01*
X123980721Y-90692990D01*
X123867621Y-90658682D01*
X123779474Y-90650000D01*
X123750000Y-90647097D01*
X123720526Y-90650000D01*
X123602454Y-90650000D01*
X123470938Y-90453172D01*
X123296828Y-90279062D01*
X123092097Y-90142265D01*
X122864611Y-90048037D01*
X122623114Y-90000000D01*
X122376886Y-90000000D01*
X122135389Y-90048037D01*
X121907903Y-90142265D01*
X121703172Y-90279062D01*
X121529062Y-90453172D01*
X121392265Y-90657903D01*
X121298037Y-90885389D01*
X121250000Y-91126886D01*
X116263282Y-91126886D01*
X114318198Y-89181802D01*
X114250007Y-89125839D01*
X114172208Y-89084254D01*
X114087791Y-89058647D01*
X114000000Y-89050000D01*
X100836396Y-89050000D01*
X103759510Y-86126886D01*
X121250000Y-86126886D01*
X121250000Y-86373114D01*
X121298037Y-86614611D01*
X121392265Y-86842097D01*
X121529062Y-87046828D01*
X121703172Y-87220938D01*
X121907903Y-87357735D01*
X122135389Y-87451963D01*
X122376886Y-87500000D01*
X122623114Y-87500000D01*
X122864611Y-87451963D01*
X123092097Y-87357735D01*
X123296828Y-87220938D01*
X123470938Y-87046828D01*
X123602454Y-86850000D01*
X123970526Y-86850000D01*
X124000000Y-86852903D01*
X124029474Y-86850000D01*
X124117621Y-86841318D01*
X124230721Y-86807010D01*
X124334955Y-86751296D01*
X124426317Y-86676317D01*
X124445113Y-86653414D01*
X125653420Y-85445108D01*
X125676317Y-85426317D01*
X125751296Y-85334955D01*
X125807010Y-85230721D01*
X125841318Y-85117621D01*
X125850000Y-85029474D01*
X125850000Y-85029473D01*
X125852903Y-85000000D01*
X125850000Y-84970526D01*
X125850000Y-79932454D01*
X126046828Y-79800938D01*
X126220938Y-79626828D01*
X126357735Y-79422097D01*
X126451963Y-79194611D01*
X126500000Y-78953114D01*
X126500000Y-78706886D01*
X127250000Y-78706886D01*
X127250000Y-78953114D01*
X127298037Y-79194611D01*
X127392265Y-79422097D01*
X127529062Y-79626828D01*
X127703172Y-79800938D01*
X127900000Y-79932455D01*
X127900001Y-83720516D01*
X127897097Y-83750000D01*
X127908682Y-83867620D01*
X127942991Y-83980721D01*
X127998705Y-84084955D01*
X128073684Y-84176317D01*
X128096582Y-84195109D01*
X130554891Y-86653419D01*
X130573683Y-86676317D01*
X130665045Y-86751296D01*
X130769279Y-86807010D01*
X130882379Y-86841318D01*
X131000000Y-86852903D01*
X131029474Y-86850000D01*
X132147546Y-86850000D01*
X132279062Y-87046828D01*
X132453172Y-87220938D01*
X132657903Y-87357735D01*
X132885389Y-87451963D01*
X133126886Y-87500000D01*
X133373114Y-87500000D01*
X133614611Y-87451963D01*
X133842097Y-87357735D01*
X134046828Y-87220938D01*
X134220938Y-87046828D01*
X134357735Y-86842097D01*
X134451963Y-86614611D01*
X134500000Y-86373114D01*
X134500000Y-86126886D01*
X134451963Y-85885389D01*
X134357735Y-85657903D01*
X134220938Y-85453172D01*
X134046828Y-85279062D01*
X133842097Y-85142265D01*
X133614611Y-85048037D01*
X133373114Y-85000000D01*
X133126886Y-85000000D01*
X132885389Y-85048037D01*
X132657903Y-85142265D01*
X132453172Y-85279062D01*
X132279062Y-85453172D01*
X132147546Y-85650000D01*
X131248528Y-85650000D01*
X129100000Y-83501473D01*
X129100000Y-79932454D01*
X129296828Y-79800938D01*
X129391543Y-79706223D01*
X131015198Y-79706223D01*
X131094958Y-79901717D01*
X131316626Y-80008917D01*
X131554948Y-80070812D01*
X131800766Y-80085023D01*
X132044633Y-80051004D01*
X132277178Y-79970063D01*
X132405042Y-79901717D01*
X132484802Y-79706223D01*
X134265198Y-79706223D01*
X134344958Y-79901717D01*
X134566626Y-80008917D01*
X134804948Y-80070812D01*
X135050766Y-80085023D01*
X135294633Y-80051004D01*
X135527178Y-79970063D01*
X135655042Y-79901717D01*
X135734802Y-79706223D01*
X135000000Y-78971421D01*
X134265198Y-79706223D01*
X132484802Y-79706223D01*
X131750000Y-78971421D01*
X131015198Y-79706223D01*
X129391543Y-79706223D01*
X129470938Y-79626828D01*
X129607735Y-79422097D01*
X129701963Y-79194611D01*
X129750000Y-78953114D01*
X129750000Y-78880766D01*
X130494977Y-78880766D01*
X130528996Y-79124633D01*
X130609937Y-79357178D01*
X130678283Y-79485042D01*
X130873777Y-79564802D01*
X131608579Y-78830000D01*
X131891421Y-78830000D01*
X132626223Y-79564802D01*
X132821717Y-79485042D01*
X132928917Y-79263374D01*
X132990812Y-79025052D01*
X132999153Y-78880766D01*
X133744977Y-78880766D01*
X133778996Y-79124633D01*
X133859937Y-79357178D01*
X133928283Y-79485042D01*
X134123777Y-79564802D01*
X134858579Y-78830000D01*
X135141421Y-78830000D01*
X135876223Y-79564802D01*
X136071717Y-79485042D01*
X136178917Y-79263374D01*
X136240812Y-79025052D01*
X136255023Y-78779234D01*
X136221004Y-78535367D01*
X136140063Y-78302822D01*
X136071717Y-78174958D01*
X135876223Y-78095198D01*
X135141421Y-78830000D01*
X134858579Y-78830000D01*
X134123777Y-78095198D01*
X133928283Y-78174958D01*
X133821083Y-78396626D01*
X133759188Y-78634948D01*
X133744977Y-78880766D01*
X132999153Y-78880766D01*
X133005023Y-78779234D01*
X132971004Y-78535367D01*
X132890063Y-78302822D01*
X132821717Y-78174958D01*
X132626223Y-78095198D01*
X131891421Y-78830000D01*
X131608579Y-78830000D01*
X130873777Y-78095198D01*
X130678283Y-78174958D01*
X130571083Y-78396626D01*
X130509188Y-78634948D01*
X130494977Y-78880766D01*
X129750000Y-78880766D01*
X129750000Y-78706886D01*
X129701963Y-78465389D01*
X129607735Y-78237903D01*
X129470938Y-78033172D01*
X129391543Y-77953777D01*
X131015198Y-77953777D01*
X131750000Y-78688579D01*
X132484802Y-77953777D01*
X134265198Y-77953777D01*
X135000000Y-78688579D01*
X135734802Y-77953777D01*
X135655042Y-77758283D01*
X135433374Y-77651083D01*
X135195052Y-77589188D01*
X134949234Y-77574977D01*
X134705367Y-77608996D01*
X134472822Y-77689937D01*
X134344958Y-77758283D01*
X134265198Y-77953777D01*
X132484802Y-77953777D01*
X132405042Y-77758283D01*
X132183374Y-77651083D01*
X131945052Y-77589188D01*
X131699234Y-77574977D01*
X131455367Y-77608996D01*
X131222822Y-77689937D01*
X131094958Y-77758283D01*
X131015198Y-77953777D01*
X129391543Y-77953777D01*
X129296828Y-77859062D01*
X129092097Y-77722265D01*
X128864611Y-77628037D01*
X128623114Y-77580000D01*
X128376886Y-77580000D01*
X128135389Y-77628037D01*
X127907903Y-77722265D01*
X127703172Y-77859062D01*
X127529062Y-78033172D01*
X127392265Y-78237903D01*
X127298037Y-78465389D01*
X127250000Y-78706886D01*
X126500000Y-78706886D01*
X126451963Y-78465389D01*
X126357735Y-78237903D01*
X126220938Y-78033172D01*
X126046828Y-77859062D01*
X125842097Y-77722265D01*
X125614611Y-77628037D01*
X125373114Y-77580000D01*
X125126886Y-77580000D01*
X124885389Y-77628037D01*
X124657903Y-77722265D01*
X124453172Y-77859062D01*
X124279062Y-78033172D01*
X124142265Y-78237903D01*
X124048037Y-78465389D01*
X124000000Y-78706886D01*
X124000000Y-78953114D01*
X124048037Y-79194611D01*
X124142265Y-79422097D01*
X124279062Y-79626828D01*
X124453172Y-79800938D01*
X124650001Y-79932455D01*
X124650000Y-84751472D01*
X123751473Y-85650000D01*
X123602454Y-85650000D01*
X123470938Y-85453172D01*
X123296828Y-85279062D01*
X123092097Y-85142265D01*
X122864611Y-85048037D01*
X122623114Y-85000000D01*
X122376886Y-85000000D01*
X122135389Y-85048037D01*
X121907903Y-85142265D01*
X121703172Y-85279062D01*
X121529062Y-85453172D01*
X121392265Y-85657903D01*
X121298037Y-85885389D01*
X121250000Y-86126886D01*
X103759510Y-86126886D01*
X105318198Y-84568198D01*
X105374161Y-84500007D01*
X105415746Y-84422208D01*
X105441353Y-84337791D01*
X105450000Y-84250000D01*
X105450000Y-81336396D01*
X106181802Y-82068198D01*
X106249993Y-82124161D01*
X106327792Y-82165746D01*
X106412209Y-82191353D01*
X106500000Y-82200000D01*
X107975471Y-82200000D01*
X108002991Y-82290721D01*
X108058705Y-82394955D01*
X108133684Y-82486317D01*
X108156581Y-82505108D01*
X109054891Y-83403419D01*
X109073683Y-83426317D01*
X109165045Y-83501296D01*
X109269277Y-83557009D01*
X109269279Y-83557010D01*
X109382379Y-83591318D01*
X109500000Y-83602903D01*
X109529474Y-83600000D01*
X116720526Y-83600000D01*
X116750000Y-83602903D01*
X116779474Y-83600000D01*
X116867621Y-83591318D01*
X116980721Y-83557010D01*
X117084955Y-83501296D01*
X117176317Y-83426317D01*
X117195113Y-83403414D01*
X119153420Y-81445108D01*
X119176317Y-81426317D01*
X119251296Y-81334955D01*
X119307010Y-81230721D01*
X119341318Y-81117621D01*
X119350000Y-81029474D01*
X119350000Y-81029473D01*
X119352903Y-81000001D01*
X119350000Y-80970527D01*
X119350000Y-79932454D01*
X119546828Y-79800938D01*
X119720938Y-79626828D01*
X119852454Y-79430000D01*
X120897546Y-79430000D01*
X121029062Y-79626828D01*
X121203172Y-79800938D01*
X121407903Y-79937735D01*
X121635389Y-80031963D01*
X121876886Y-80080000D01*
X122123114Y-80080000D01*
X122364611Y-80031963D01*
X122592097Y-79937735D01*
X122796828Y-79800938D01*
X122970938Y-79626828D01*
X123107735Y-79422097D01*
X123201963Y-79194611D01*
X123250000Y-78953114D01*
X123250000Y-78706886D01*
X123201963Y-78465389D01*
X123107735Y-78237903D01*
X122970938Y-78033172D01*
X122796828Y-77859062D01*
X122592097Y-77722265D01*
X122364611Y-77628037D01*
X122123114Y-77580000D01*
X121876886Y-77580000D01*
X121635389Y-77628037D01*
X121407903Y-77722265D01*
X121203172Y-77859062D01*
X121029062Y-78033172D01*
X120897546Y-78230000D01*
X119852454Y-78230000D01*
X119720938Y-78033172D01*
X119546828Y-77859062D01*
X119342097Y-77722265D01*
X119114611Y-77628037D01*
X118873114Y-77580000D01*
X118626886Y-77580000D01*
X118385389Y-77628037D01*
X118157903Y-77722265D01*
X117953172Y-77859062D01*
X117779062Y-78033172D01*
X117642265Y-78237903D01*
X117548037Y-78465389D01*
X117500000Y-78706886D01*
X117500000Y-78953114D01*
X117548037Y-79194611D01*
X117642265Y-79422097D01*
X117779062Y-79626828D01*
X117953172Y-79800938D01*
X118150000Y-79932455D01*
X118150000Y-80751472D01*
X116501473Y-82400000D01*
X109748528Y-82400000D01*
X109548528Y-82200000D01*
X114750000Y-82200000D01*
X114837791Y-82191353D01*
X114922208Y-82165746D01*
X115000007Y-82124161D01*
X115068198Y-82068198D01*
X116568198Y-80568198D01*
X116624161Y-80500007D01*
X116665746Y-80422208D01*
X116691353Y-80337791D01*
X116700000Y-80250000D01*
X116700000Y-74010172D01*
X116789448Y-73876303D01*
X116928905Y-73539625D01*
X117000000Y-73182209D01*
X117000000Y-72817791D01*
X116928905Y-72460375D01*
X116789448Y-72123697D01*
X116700000Y-71989828D01*
X116700000Y-68546886D01*
X117500000Y-68546886D01*
X117500000Y-68793114D01*
X117548037Y-69034611D01*
X117642265Y-69262097D01*
X117779062Y-69466828D01*
X117953172Y-69640938D01*
X118157903Y-69777735D01*
X118385389Y-69871963D01*
X118626886Y-69920000D01*
X118873114Y-69920000D01*
X119114611Y-69871963D01*
X119342097Y-69777735D01*
X119546828Y-69640938D01*
X119720938Y-69466828D01*
X119857735Y-69262097D01*
X119951963Y-69034611D01*
X120000000Y-68793114D01*
X120000000Y-68546886D01*
X119951963Y-68305389D01*
X119857735Y-68077903D01*
X119720938Y-67873172D01*
X119546828Y-67699062D01*
X119350000Y-67567546D01*
X119350000Y-66892693D01*
X119386735Y-66900000D01*
X119613265Y-66900000D01*
X119835443Y-66855806D01*
X120044729Y-66769116D01*
X120233082Y-66643263D01*
X120393263Y-66483082D01*
X120519116Y-66294729D01*
X120605806Y-66085443D01*
X120650000Y-65863265D01*
X120650000Y-65636735D01*
X120605806Y-65414557D01*
X120519116Y-65205271D01*
X120393263Y-65016918D01*
X120233082Y-64856737D01*
X120044729Y-64730884D01*
X119835443Y-64644194D01*
X119613265Y-64600000D01*
X119386735Y-64600000D01*
X119164557Y-64644194D01*
X118955271Y-64730884D01*
X118766918Y-64856737D01*
X118606737Y-65016918D01*
X118480884Y-65205271D01*
X118394194Y-65414557D01*
X118350000Y-65636735D01*
X118350000Y-65863265D01*
X118381226Y-66020247D01*
X118346581Y-66054892D01*
X118323684Y-66073683D01*
X118248705Y-66165045D01*
X118232638Y-66195105D01*
X118192991Y-66269279D01*
X118158682Y-66382380D01*
X118147097Y-66500000D01*
X118150001Y-66529483D01*
X118150001Y-67567545D01*
X117953172Y-67699062D01*
X117779062Y-67873172D01*
X117642265Y-68077903D01*
X117548037Y-68305389D01*
X117500000Y-68546886D01*
X116700000Y-68546886D01*
X116700000Y-68436396D01*
X117818198Y-67318198D01*
X117874161Y-67250007D01*
X117915746Y-67172208D01*
X117941353Y-67087791D01*
X117950000Y-67000000D01*
X117950000Y-64500000D01*
X117945075Y-64450000D01*
X119500000Y-64450000D01*
X119587791Y-64441353D01*
X119672208Y-64415746D01*
X119750007Y-64374161D01*
X119818198Y-64318198D01*
X120818198Y-63318198D01*
X120874161Y-63250007D01*
X120915746Y-63172208D01*
X120929412Y-63127156D01*
X120962702Y-63170734D01*
X121161299Y-63345655D01*
X121390205Y-63478470D01*
X121640624Y-63564076D01*
X121850000Y-63483795D01*
X121850000Y-62350000D01*
X122050000Y-62350000D01*
X122050000Y-63483795D01*
X122259376Y-63564076D01*
X122509795Y-63478470D01*
X122738701Y-63345655D01*
X122937298Y-63170734D01*
X123097954Y-62960430D01*
X123214494Y-62722825D01*
X123264072Y-62559375D01*
X123183453Y-62350000D01*
X122050000Y-62350000D01*
X121850000Y-62350000D01*
X121830000Y-62350000D01*
X121830000Y-62150000D01*
X121850000Y-62150000D01*
X121850000Y-61016205D01*
X122050000Y-61016205D01*
X122050000Y-62150000D01*
X123183453Y-62150000D01*
X123264072Y-61940625D01*
X123214494Y-61777175D01*
X123097954Y-61539570D01*
X122937298Y-61329266D01*
X122738701Y-61154345D01*
X122509795Y-61021530D01*
X122259376Y-60935924D01*
X122050000Y-61016205D01*
X121850000Y-61016205D01*
X121640624Y-60935924D01*
X121390205Y-61021530D01*
X121161299Y-61154345D01*
X120962702Y-61329266D01*
X120950000Y-61345893D01*
X120950000Y-61000000D01*
X120941353Y-60912209D01*
X120915746Y-60827792D01*
X120874161Y-60749993D01*
X120818198Y-60681802D01*
X119318198Y-59181802D01*
X119250007Y-59125839D01*
X119172208Y-59084254D01*
X119087791Y-59058647D01*
X119000000Y-59050000D01*
X118336396Y-59050000D01*
X119068198Y-58318198D01*
X119124161Y-58250007D01*
X119165746Y-58172208D01*
X119191353Y-58087791D01*
X119197554Y-58024838D01*
X119201387Y-58030575D01*
X119389425Y-58218613D01*
X119610535Y-58366354D01*
X119856220Y-58468120D01*
X120117037Y-58520000D01*
X120382963Y-58520000D01*
X120643780Y-58468120D01*
X120889465Y-58366354D01*
X121110575Y-58218613D01*
X121298613Y-58030575D01*
X121446354Y-57809465D01*
X121548120Y-57563780D01*
X121600000Y-57302963D01*
X121600000Y-57037037D01*
X122300000Y-57037037D01*
X122300000Y-57302963D01*
X122351880Y-57563780D01*
X122453646Y-57809465D01*
X122601387Y-58030575D01*
X122789425Y-58218613D01*
X123010535Y-58366354D01*
X123256220Y-58468120D01*
X123517037Y-58520000D01*
X123782963Y-58520000D01*
X124043780Y-58468120D01*
X124289465Y-58366354D01*
X124510575Y-58218613D01*
X124698613Y-58030575D01*
X124846354Y-57809465D01*
X124948120Y-57563780D01*
X125000000Y-57302963D01*
X125000000Y-57037037D01*
X124948120Y-56776220D01*
X124846354Y-56530535D01*
X124698613Y-56309425D01*
X124510575Y-56121387D01*
X124289465Y-55973646D01*
X124043780Y-55871880D01*
X123782963Y-55820000D01*
X123517037Y-55820000D01*
X123256220Y-55871880D01*
X123010535Y-55973646D01*
X122789425Y-56121387D01*
X122601387Y-56309425D01*
X122453646Y-56530535D01*
X122351880Y-56776220D01*
X122300000Y-57037037D01*
X121600000Y-57037037D01*
X121548120Y-56776220D01*
X121446354Y-56530535D01*
X121298613Y-56309425D01*
X121110575Y-56121387D01*
X120889465Y-55973646D01*
X120643780Y-55871880D01*
X120382963Y-55820000D01*
X120117037Y-55820000D01*
X119856220Y-55871880D01*
X119610535Y-55973646D01*
X119389425Y-56121387D01*
X119201387Y-56309425D01*
X119200000Y-56311501D01*
X119200000Y-54000000D01*
X119191353Y-53912209D01*
X119165746Y-53827792D01*
X119124161Y-53749993D01*
X119068198Y-53681802D01*
X118361396Y-52975000D01*
X134600000Y-52975000D01*
X134600000Y-59501472D01*
G36*
X95155564Y-107275858D02*
G01*
X95141421Y-107290000D01*
X95155564Y-107304143D01*
X95014143Y-107445564D01*
X95000000Y-107431421D01*
X94985858Y-107445564D01*
X94844437Y-107304143D01*
X94858579Y-107290000D01*
X94844437Y-107275858D01*
X94985858Y-107134437D01*
X95000000Y-107148579D01*
X95014143Y-107134437D01*
X95155564Y-107275858D01*
G37*
X95155564Y-107275858D02*
X95141421Y-107290000D01*
X95155564Y-107304143D01*
X95014143Y-107445564D01*
X95000000Y-107431421D01*
X94985858Y-107445564D01*
X94844437Y-107304143D01*
X94858579Y-107290000D01*
X94844437Y-107275858D01*
X94985858Y-107134437D01*
X95000000Y-107148579D01*
X95014143Y-107134437D01*
X95155564Y-107275858D01*
G36*
X95655564Y-104735858D02*
G01*
X95641421Y-104750000D01*
X95655564Y-104764142D01*
X95514142Y-104905564D01*
X95500000Y-104891421D01*
X95485858Y-104905564D01*
X95344437Y-104764143D01*
X95358579Y-104750000D01*
X95344436Y-104735858D01*
X95485858Y-104594437D01*
X95500000Y-104608579D01*
X95514142Y-104594436D01*
X95655564Y-104735858D01*
G37*
X95655564Y-104735858D02*
X95641421Y-104750000D01*
X95655564Y-104764142D01*
X95514142Y-104905564D01*
X95500000Y-104891421D01*
X95485858Y-104905564D01*
X95344437Y-104764143D01*
X95358579Y-104750000D01*
X95344436Y-104735858D01*
X95485858Y-104594437D01*
X95500000Y-104608579D01*
X95514142Y-104594436D01*
X95655564Y-104735858D01*
G36*
X82293855Y-102430251D02*
G01*
X81639041Y-102300000D01*
X80860959Y-102300000D01*
X80097828Y-102451797D01*
X79378974Y-102749556D01*
X78732022Y-103181835D01*
X78181835Y-103732022D01*
X77975000Y-104041573D01*
X77975000Y-98111396D01*
X82293855Y-102430251D01*
G37*
X82293855Y-102430251D02*
X81639041Y-102300000D01*
X80860959Y-102300000D01*
X80097828Y-102451797D01*
X79378974Y-102749556D01*
X78732022Y-103181835D01*
X78181835Y-103732022D01*
X77975000Y-104041573D01*
X77975000Y-98111396D01*
X82293855Y-102430251D01*
G36*
X95155564Y-102195858D02*
G01*
X95141421Y-102210000D01*
X95155564Y-102224143D01*
X95014143Y-102365564D01*
X95000000Y-102351421D01*
X94985858Y-102365564D01*
X94844437Y-102224143D01*
X94858579Y-102210000D01*
X94844437Y-102195858D01*
X94985858Y-102054437D01*
X95000000Y-102068579D01*
X95014143Y-102054437D01*
X95155564Y-102195858D01*
G37*
X95155564Y-102195858D02*
X95141421Y-102210000D01*
X95155564Y-102224143D01*
X95014143Y-102365564D01*
X95000000Y-102351421D01*
X94985858Y-102365564D01*
X94844437Y-102224143D01*
X94858579Y-102210000D01*
X94844437Y-102195858D01*
X94985858Y-102054437D01*
X95000000Y-102068579D01*
X95014143Y-102054437D01*
X95155564Y-102195858D01*
G36*
X92300000Y-84563604D02*
G01*
X91082596Y-85781008D01*
X91018063Y-85583369D01*
X90897674Y-85358138D01*
X90661243Y-85230179D01*
X89641421Y-86250000D01*
X89655564Y-86264142D01*
X89514142Y-86405564D01*
X89500000Y-86391421D01*
X88480179Y-87411243D01*
X88608138Y-87647674D01*
X88897947Y-87794812D01*
X89031371Y-87832233D01*
X87200000Y-89663604D01*
X87200000Y-86284949D01*
X87842384Y-86284949D01*
X87881053Y-86607662D01*
X87981937Y-86916631D01*
X88102326Y-87141862D01*
X88338757Y-87269821D01*
X89358579Y-86250000D01*
X88338757Y-85230179D01*
X88102326Y-85358138D01*
X87955188Y-85647947D01*
X87867416Y-85960892D01*
X87842384Y-86284949D01*
X87200000Y-86284949D01*
X87200000Y-85088757D01*
X88480179Y-85088757D01*
X89500000Y-86108579D01*
X90519821Y-85088757D01*
X90391862Y-84852326D01*
X90102053Y-84705188D01*
X89789108Y-84617416D01*
X89465051Y-84592384D01*
X89142338Y-84631053D01*
X88833369Y-84731937D01*
X88608138Y-84852326D01*
X88480179Y-85088757D01*
X87200000Y-85088757D01*
X87200000Y-77950000D01*
X87847823Y-77950000D01*
X87856511Y-78038215D01*
X87882243Y-78123041D01*
X87924029Y-78201216D01*
X87980263Y-78269737D01*
X88048784Y-78325971D01*
X88126959Y-78367757D01*
X88211785Y-78393489D01*
X88300000Y-78402177D01*
X89287500Y-78400000D01*
X89400000Y-78287500D01*
X89400000Y-76850000D01*
X89600000Y-76850000D01*
X89600000Y-78287500D01*
X89712500Y-78400000D01*
X90700000Y-78402177D01*
X90788215Y-78393489D01*
X90873041Y-78367757D01*
X90951216Y-78325971D01*
X91019737Y-78269737D01*
X91075971Y-78201216D01*
X91117757Y-78123041D01*
X91143489Y-78038215D01*
X91152177Y-77950000D01*
X91150000Y-76962500D01*
X91037500Y-76850000D01*
X89600000Y-76850000D01*
X89400000Y-76850000D01*
X87962500Y-76850000D01*
X87850000Y-76962500D01*
X87847823Y-77950000D01*
X87200000Y-77950000D01*
X87200000Y-75936396D01*
X87586396Y-75550000D01*
X87847823Y-75550000D01*
X87850000Y-76537500D01*
X87962500Y-76650000D01*
X89400000Y-76650000D01*
X89400000Y-75212500D01*
X89600000Y-75212500D01*
X89600000Y-76650000D01*
X91037500Y-76650000D01*
X91150000Y-76537500D01*
X91152177Y-75550000D01*
X91143489Y-75461785D01*
X91117757Y-75376959D01*
X91075971Y-75298784D01*
X91019737Y-75230263D01*
X90951216Y-75174029D01*
X90873041Y-75132243D01*
X90788215Y-75106511D01*
X90700000Y-75097823D01*
X89712500Y-75100000D01*
X89600000Y-75212500D01*
X89400000Y-75212500D01*
X89287500Y-75100000D01*
X88300000Y-75097823D01*
X88211785Y-75106511D01*
X88126959Y-75132243D01*
X88048784Y-75174029D01*
X87980263Y-75230263D01*
X87924029Y-75298784D01*
X87882243Y-75376959D01*
X87856511Y-75461785D01*
X87847823Y-75550000D01*
X87586396Y-75550000D01*
X92300000Y-70836396D01*
X92300000Y-84563604D01*
G37*
X92300000Y-84563604D02*
X91082596Y-85781008D01*
X91018063Y-85583369D01*
X90897674Y-85358138D01*
X90661243Y-85230179D01*
X89641421Y-86250000D01*
X89655564Y-86264142D01*
X89514142Y-86405564D01*
X89500000Y-86391421D01*
X88480179Y-87411243D01*
X88608138Y-87647674D01*
X88897947Y-87794812D01*
X89031371Y-87832233D01*
X87200000Y-89663604D01*
X87200000Y-86284949D01*
X87842384Y-86284949D01*
X87881053Y-86607662D01*
X87981937Y-86916631D01*
X88102326Y-87141862D01*
X88338757Y-87269821D01*
X89358579Y-86250000D01*
X88338757Y-85230179D01*
X88102326Y-85358138D01*
X87955188Y-85647947D01*
X87867416Y-85960892D01*
X87842384Y-86284949D01*
X87200000Y-86284949D01*
X87200000Y-85088757D01*
X88480179Y-85088757D01*
X89500000Y-86108579D01*
X90519821Y-85088757D01*
X90391862Y-84852326D01*
X90102053Y-84705188D01*
X89789108Y-84617416D01*
X89465051Y-84592384D01*
X89142338Y-84631053D01*
X88833369Y-84731937D01*
X88608138Y-84852326D01*
X88480179Y-85088757D01*
X87200000Y-85088757D01*
X87200000Y-77950000D01*
X87847823Y-77950000D01*
X87856511Y-78038215D01*
X87882243Y-78123041D01*
X87924029Y-78201216D01*
X87980263Y-78269737D01*
X88048784Y-78325971D01*
X88126959Y-78367757D01*
X88211785Y-78393489D01*
X88300000Y-78402177D01*
X89287500Y-78400000D01*
X89400000Y-78287500D01*
X89400000Y-76850000D01*
X89600000Y-76850000D01*
X89600000Y-78287500D01*
X89712500Y-78400000D01*
X90700000Y-78402177D01*
X90788215Y-78393489D01*
X90873041Y-78367757D01*
X90951216Y-78325971D01*
X91019737Y-78269737D01*
X91075971Y-78201216D01*
X91117757Y-78123041D01*
X91143489Y-78038215D01*
X91152177Y-77950000D01*
X91150000Y-76962500D01*
X91037500Y-76850000D01*
X89600000Y-76850000D01*
X89400000Y-76850000D01*
X87962500Y-76850000D01*
X87850000Y-76962500D01*
X87847823Y-77950000D01*
X87200000Y-77950000D01*
X87200000Y-75936396D01*
X87586396Y-75550000D01*
X87847823Y-75550000D01*
X87850000Y-76537500D01*
X87962500Y-76650000D01*
X89400000Y-76650000D01*
X89400000Y-75212500D01*
X89600000Y-75212500D01*
X89600000Y-76650000D01*
X91037500Y-76650000D01*
X91150000Y-76537500D01*
X91152177Y-75550000D01*
X91143489Y-75461785D01*
X91117757Y-75376959D01*
X91075971Y-75298784D01*
X91019737Y-75230263D01*
X90951216Y-75174029D01*
X90873041Y-75132243D01*
X90788215Y-75106511D01*
X90700000Y-75097823D01*
X89712500Y-75100000D01*
X89600000Y-75212500D01*
X89400000Y-75212500D01*
X89287500Y-75100000D01*
X88300000Y-75097823D01*
X88211785Y-75106511D01*
X88126959Y-75132243D01*
X88048784Y-75174029D01*
X87980263Y-75230263D01*
X87924029Y-75298784D01*
X87882243Y-75376959D01*
X87856511Y-75461785D01*
X87847823Y-75550000D01*
X87586396Y-75550000D01*
X92300000Y-70836396D01*
X92300000Y-84563604D01*
%TD*%
M02*
